<svg xmlns="http://www.w3.org/2000/svg" width="16" height="16" viewBox="0 0 128 128"><path fill="#f0f3ff" d="M21 43a7.34 7.34 0 0 0-7.33 7.34v30.74a7.34 7.34 0 0 0 7.34 7.34 7.33 7.33 0 0 0 7.34-7.34V50.34A7.34 7.34 0 0 0 21 43m59.2-27.6 5.12-9.35a1.02 1.02 0 0 0-.4-1.4 1.02 1.02 0 0 0-1.38.41l-5.18 9.46a35.22 35.22 0 0 0-14.38-3.02 35.21 35.21 0 0 0-14.35 3l-5.18-9.43a1.01 1.01 0 0 0-1.38-.4 1 1 0 0 0-.4 1.38l5.12 9.35c-10.07 5.2-16.87 15.08-16.86 26.44l66.11-.01c0-11.35-6.79-21.22-16.84-26.43M48.94 29.86a2.77 2.77 0 0 1 0-5.55 2.78 2.78 0 0 1 2.78 2.78 2.78 2.78 0 0 1-2.78 2.77m30.1 0a2.77 2.77 0 0 1-2.76-2.78 2.8 2.8 0 0 1 2.77-2.78 2.79 2.79 0 0 1 2.77 2.78 2.77 2.77 0 0 1-2.77 2.77M31.2 44.4v47.63a7.82 7.82 0 0 0 7.84 7.84h5.33v16.26a7.35 7.35 0 0 0 14.68 0V99.86h9.91v16.26a7.34 7.34 0 0 0 14.69 0l-.01-16.27h5.35A7.83 7.83 0 0 0 96.83 92l-.01-47.63zm83.13 5.94a7.34 7.34 0 0 0-7.34-7.34 7.34 7.34 0 0 0-7.34 7.35v30.73a7.33 7.33 0 0 0 7.35 7.34 7.34 7.34 0 0 0 7.33-7.34z"/></svg>