<svg xmlns="http://www.w3.org/2000/svg" width="16" height="16" viewBox="0 0 24 24"><path fill="#f0f3ff" d="M11.7 5.62c.03-.9.28-2.24 1.15-3.12.8-.8 1.78-1.2 2.4-1.39a.35.35 0 0 1 .44.36c-.04.86-.27 2.15-.85 2.85a4.31 4.31 0 0 1-2.75 1.66.35.35 0 0 1-.39-.36"/><path fill="#f0f3ff" d="M13.94 22.17c.62.24 1.26.48 1.83.48 1.23 0 4.8-2.83 4.93-5.77a.4.4 0 0 0-.22-.36c-.9-.5-2.4-1.77-2.44-3.61a6.08 6.08 0 0 1 1.83-4.56c.18-.15.25-.43.08-.61-.74-.81-2.23-1.93-3.6-1.9-.98.02-1.88.39-2.64.7a4.5 4.5 0 0 1-1.53.46c-.4 0-.89-.21-1.44-.45a6.54 6.54 0 0 0-2.61-.71c-1.83 0-5.43 1.51-5.43 7.35 0 3.1 3.2 9.54 5.9 9.46.57 0 1.2-.24 1.81-.48.61-.23 1.21-.47 1.77-.47.54 0 1.14.24 1.76.47"/></svg>