<svg xmlns="http://www.w3.org/2000/svg" width="128" height="128" fill="none"><path fill="#F0F3FF" stroke="#000" stroke-width=".8" d="m16.25 15.9-.33.03-.03.34c-.44 4.77-1.07 15 .08 26.89l.4-.04-.4.04c.18 1.86.4 3.72.66 5.58l.12.8.56-.57 31.65-31.65.57-.57-.8-.1a140.1 140.1 0 0 0-19.5-1.32h-.93l.02.02c-5.23.03-9.46.31-12.07.55Zm1.22 37.03-.14.15.03.2a97.74 97.74 0 0 0 4.16 15.78c3.4 9.41 8.16 17.24 14.17 23.25l.29-.28-.29.28c7.65 7.65 18.17 13.24 31.23 16.62 2.52.66 5.13 1.23 7.8 1.71l.2.04.16-.15 35.45-35.45.15-.15-.04-.2a97.65 97.65 0 0 0-4.16-15.79c-3.4-9.41-8.16-17.23-14.17-23.24-7.65-7.65-18.16-13.24-31.21-16.62l-.1.38.1-.38c-2.53-.66-5.14-1.23-7.82-1.71l-.2-.04-.15.15-35.46 35.45Zm94.28 59.18.33-.03.03-.33c.44-4.77 1.07-15.02-.08-26.9-.18-1.87-.4-3.73-.66-5.58l-.12-.8-.56.57-31.65 31.65-.57.57.8.1c6.18.88 12.7 1.33 19.52 1.33 5.63 0 10.2-.32 12.96-.58ZM13.27 13.27l.87-.1a149.02 149.02 0 0 1 15.08-.77c18.11 0 47.1 3.18 65.15 21.23 13.86 13.87 18.96 34.19 20.57 51.1a151.86 151.86 0 0 1 .02 27.95 81.7 81.7 0 0 1-.2 1.75c0 .11-.02.21-.03.3l-.87.1a148.96 148.96 0 0 1-15.08.77c-18.11 0-47.1-3.18-65.15-21.23-13.86-13.87-18.96-34.19-20.57-51.1a151.71 151.71 0 0 1-.01-27.95 84.43 84.43 0 0 1 .22-2.05Z"/><path fill="#F0F3FF" stroke="#000" stroke-width=".8" d="m77.1 79.18-.27-.28-.29.28-6.88 6.88-2.26-2.26 6.88-6.88.28-.29-.28-.28-5.66-5.66-.28-.28-.28.28-6.89 6.89-2.26-2.27 6.88-6.88.29-.29-.29-.28-5.65-5.66-.28-.28-.29.28-6.88 6.89-2.27-2.26 6.89-6.89.28-.28-.28-.29-5.66-5.65-.28-.29-.28.29-6.9 6.88-2.25-2.26 6.89-6.89.28-.28-.28-.28-5.66-5.66-.28-.28-.29.28-6.89 6.89-2.26-2.26 16.4-16.4 2.27 2.26-6.89 6.88-.28.29.28.28 5.66 5.66.28.28.28-.28 6.89-6.9 2.26 2.27-6.89 6.89-.28.28.28.28 5.66 5.66.28.29.29-.29 6.89-6.89 2.26 2.27-6.9 6.89-.27.28.28.28 5.66 5.66.28.28.28-.28 6.9-6.9 2.26 2.27-6.9 6.9-.28.28.28.28 5.66 5.66.28.28.29-.28 6.9-6.9 2.26 2.27-6.9 6.9-.28.27.28.29 5.66 5.66.28.28.28-.28 6.9-6.9 2.26 2.26-16.4 16.4-2.27-2.26 6.89-6.88.28-.28-.28-.28-5.66-5.66Z"/></svg>