<svg xmlns="http://www.w3.org/2000/svg" width="128" height="128" fill="none"><path fill="#F0F3FF" stroke="#000" d="m30.37 32.7-.37-.4-.37.4a46.35 46.35 0 0 0-12.08 29.28l-.03.52h24.95l-.02-.52A46.11 46.11 0 0 0 30.37 32.7ZM65.5 62v.5h17.03l.01-.48a49.12 49.12 0 0 1 12.99-31.49l.34-.36-.37-.34a46.31 46.31 0 0 0-29.48-12.28l-.52-.03V62Zm-3.5.5h.5V17.52l-.52.03A46.31 46.31 0 0 0 32.5 29.83l-.37.34.34.36a49.12 49.12 0 0 1 12.99 31.49l.01.48H62Zm-19.55 3.52.02-.52H17.52l.03.52A46.35 46.35 0 0 0 29.63 95.3l.37.4.37-.4a46.11 46.11 0 0 0 12.08-29.28ZM62.5 66v-.5H45.95v.5l-.5-.02a49.12 49.12 0 0 1-12.98 31.49l-.34.36.37.34a46.32 46.32 0 0 0 29.48 12.28l.52.03V66Zm3.5-.5h-.5V110.48l.52-.03A46.32 46.32 0 0 0 95.5 98.17l.37-.34-.34-.36a49.12 49.12 0 0 1-12.99-31.49l-.01-.48H66Zm20.05 0h-.52l.02.52A46.11 46.11 0 0 0 97.63 95.3l.37.4.37-.4a46.35 46.35 0 0 0 12.08-29.28l.03-.52H86.05Zm-.5-3.52-.02.52h24.95l-.03-.52A46.35 46.35 0 0 0 98.38 32.7l-.37-.4-.37.4a46.11 46.11 0 0 0-12.08 29.28ZM36.5 22.84a49.5 49.5 0 1 1 55 82.32 49.5 49.5 0 0 1-55-82.32Z"/></svg>