<svg width="43" height="35" viewBox="0 0 43 35" fill="none" xmlns="http://www.w3.org/2000/svg">
<mask id="path-1-outside-1_178_29" maskUnits="userSpaceOnUse" x="4.35156" y="12.8727" width="36" height="8" fill="black">
<rect fill="white" x="4.35156" y="12.8727" width="36" height="8"/>
<path d="M5.35156 20.2281C6.23464 18.779 7.56742 17.6586 9.14665 17.0376C10.7259 16.4167 12.4649 16.3293 14.0984 16.7888C15.461 16.9814 16.8463 16.9423 18.1959 16.6733C19.2235 15.4972 19.1951 14.8693 21.5766 14.1891C23.9581 13.5089 30.7011 14.1277 30.9568 14.1891C31.7715 14.2898 32.5532 14.5717 33.2447 15.0141C33.9361 15.4565 34.5197 16.0482 34.9526 16.7457C34.9526 16.7457 39.0134 15.8941 39.4543 18.2628"/>
</mask>
<path d="M4.9246 19.9679C4.7809 20.2037 4.85556 20.5113 5.09136 20.655C5.32717 20.7988 5.63482 20.7241 5.77852 20.4883L4.9246 19.9679ZM14.0984 16.7888L13.963 17.2701C13.9845 17.2761 14.0063 17.2807 14.0284 17.2838L14.0984 16.7888ZM18.1959 16.6733L18.2937 17.1636C18.4018 17.142 18.4998 17.0853 18.5724 17.0022L18.1959 16.6733ZM30.9568 14.1891L30.8401 14.6753C30.8583 14.6797 30.8768 14.683 30.8955 14.6853L30.9568 14.1891ZM34.9526 16.7457L34.5277 17.0093C34.6386 17.188 34.8494 17.2782 35.0552 17.235L34.9526 16.7457ZM38.9628 18.3543C39.0133 18.6257 39.2743 18.8048 39.5458 18.7543C39.8173 18.7038 39.9964 18.4427 39.9459 18.1713L38.9628 18.3543ZM5.77852 20.4883C6.60482 19.1324 7.85192 18.084 9.32962 17.5029L8.96368 16.5723C7.28292 17.2332 5.86445 18.4257 4.9246 19.9679L5.77852 20.4883ZM9.32962 17.5029C10.8073 16.9219 12.4345 16.8401 13.963 17.2701L14.2338 16.3074C12.4952 15.8184 10.6444 15.9114 8.96368 16.5723L9.32962 17.5029ZM14.0284 17.2838C15.4468 17.4844 16.8888 17.4437 18.2937 17.1636L18.0981 16.1829C16.8038 16.441 15.4752 16.4784 14.1684 16.2937L14.0284 17.2838ZM18.5724 17.0022C18.8432 16.6924 19.0466 16.4157 19.2204 16.1877C19.3974 15.9555 19.5428 15.7749 19.7187 15.6116C20.0566 15.298 20.5605 14.9993 21.7139 14.6699L21.4393 13.7083C20.2112 14.0591 19.5385 14.4144 19.0383 14.8788C18.7952 15.1045 18.6062 15.3439 18.4251 15.5815C18.2408 15.8233 18.0624 16.0661 17.8194 16.3443L18.5724 17.0022ZM21.7139 14.6699C22.2482 14.5172 23.0657 14.4296 24.0298 14.3931C24.9836 14.3571 26.044 14.3722 27.0447 14.4106C28.0444 14.449 28.9787 14.5104 29.6786 14.566C30.0285 14.5937 30.3186 14.62 30.528 14.641C30.6329 14.6516 30.716 14.6607 30.7755 14.6679C30.8494 14.6768 30.8583 14.6796 30.8401 14.6753L31.0736 13.7029C31.0233 13.6908 30.9496 13.6816 30.8955 13.6751C30.8269 13.6668 30.7366 13.657 30.628 13.6461C30.4104 13.6242 30.1132 13.5973 29.7577 13.5691C29.0469 13.5126 28.0987 13.4503 27.083 13.4114C26.0683 13.3724 24.9804 13.3565 23.9921 13.3939C23.0141 13.4308 22.0956 13.5208 21.4393 13.7083L21.7139 14.6699ZM30.8955 14.6853C31.636 14.7769 32.3467 15.0331 32.9752 15.4353L33.5142 14.593C32.7598 14.1103 31.9069 13.8027 31.0182 13.6929L30.8955 14.6853ZM32.9752 15.4353C33.6038 15.8375 34.1343 16.3753 34.5277 17.0093L35.3774 16.482C34.9052 15.7211 34.2685 15.0756 33.5142 14.593L32.9752 15.4353ZM34.9526 16.7457C35.0552 17.235 35.0551 17.2351 35.055 17.2351C35.0549 17.2351 35.0548 17.2351 35.0548 17.2351C35.0547 17.2351 35.0547 17.2351 35.0548 17.2351C35.0549 17.2351 35.0553 17.235 35.0559 17.2349C35.0571 17.2346 35.0592 17.2342 35.0623 17.2336C35.0684 17.2324 35.0782 17.2304 35.0914 17.2279C35.1179 17.2229 35.1581 17.2156 35.2102 17.2069C35.3144 17.1895 35.4655 17.1669 35.6489 17.1466C36.018 17.1058 36.5059 17.0761 36.9993 17.1145C37.4989 17.1533 37.9646 17.2591 38.3166 17.4604C38.6503 17.6513 38.8831 17.9261 38.9628 18.3543L39.9459 18.1713C39.8051 17.4151 39.3649 16.9081 38.8132 16.5924C38.2797 16.2873 37.6476 16.1618 37.0768 16.1175C36.5 16.0726 35.9451 16.1078 35.539 16.1526C35.3348 16.1752 35.1652 16.2006 35.0457 16.2205C34.9858 16.2305 34.9384 16.2391 34.9051 16.2454C34.8885 16.2486 34.8755 16.2511 34.8662 16.253C34.8616 16.2539 34.8579 16.2547 34.8551 16.2552C34.8538 16.2555 34.8527 16.2557 34.8518 16.2559C34.8514 16.256 34.851 16.2561 34.8507 16.2562C34.8505 16.2562 34.8503 16.2562 34.8503 16.2562C34.8501 16.2563 34.8499 16.2563 34.9526 16.7457Z" fill="#F0F3FF" mask="url(#path-1-outside-1_178_29)"/>
<mask id="path-3-outside-2_178_29" maskUnits="userSpaceOnUse" x="3.125" y="17.2743" width="38" height="14" fill="black">
<rect fill="white" x="3.125" y="17.2743" width="38" height="14"/>
<path d="M5.35152 20.2281C5.35152 20.2281 4.07919 20.5489 4.56319 22.616C5.04719 24.6831 3.86652 24.6088 4.17819 25.6162C4.48985 26.6237 4.89777 27.4184 7.02077 28.127C10.391 29.2205 13.8921 29.8595 17.4314 30.0272C20.2485 30.3339 23.0976 30.1459 25.85 29.4717C25.85 29.4717 25.7455 22.4235 27.6907 20.4948C29.6359 18.5662 30.9128 20.2272 31.0118 21.5215C31.1418 23.5292 30.795 25.5392 29.9998 27.3872L37.5632 23.7472C37.345 23.5858 37.367 17.6312 39.215 18.3315C40.095 18.6642 39.8411 21.3455 39.8411 21.3455"/>
</mask>
<path d="M5.47377 20.7129C5.74154 20.6454 5.90386 20.3736 5.83634 20.1058C5.76882 19.8381 5.49703 19.6757 5.22927 19.7433L5.47377 20.7129ZM7.02077 28.127L6.86247 28.6013L6.86646 28.6026L7.02077 28.127ZM17.4314 30.0272L17.4855 29.5302C17.4753 29.5291 17.4652 29.5283 17.455 29.5278L17.4314 30.0272ZM25.85 29.4717L25.969 29.9574C26.1954 29.9019 26.3534 29.6974 26.35 29.4643L25.85 29.4717ZM31.0118 21.5215L31.5108 21.4892L31.5103 21.4834L31.0118 21.5215ZM29.9998 27.3872L29.5405 27.1896C29.458 27.3812 29.5032 27.6038 29.6538 27.7482C29.8043 27.8925 30.0287 27.9282 30.2166 27.8378L29.9998 27.3872ZM37.5632 23.7472L37.78 24.1977C37.9379 24.1217 38.0445 23.9686 38.061 23.7941C38.0774 23.6197 38.0014 23.4493 37.8605 23.3451L37.5632 23.7472ZM39.215 18.3315L39.0378 18.799L39.0382 18.7992L39.215 18.3315ZM39.3433 21.2984C39.3173 21.5733 39.5191 21.8172 39.794 21.8433C40.0689 21.8693 40.3128 21.6675 40.3389 21.3926L39.3433 21.2984ZM5.35152 20.2281C5.22927 19.7433 5.22888 19.7434 5.22848 19.7435C5.22835 19.7435 5.22795 19.7436 5.22767 19.7437C5.22712 19.7438 5.22654 19.744 5.22595 19.7441C5.22476 19.7444 5.22349 19.7447 5.22213 19.7451C5.21942 19.7458 5.21639 19.7467 5.21303 19.7476C5.20633 19.7495 5.19834 19.7518 5.18919 19.7546C5.1709 19.7603 5.14782 19.7681 5.1208 19.7783C5.0669 19.7987 4.99642 19.8293 4.91653 19.8739C4.75671 19.9632 4.55591 20.1102 4.37792 20.3442C4.00819 20.8302 3.80954 21.5905 4.07635 22.73L5.05002 22.502C4.83284 21.5745 5.02835 21.1408 5.17379 20.9496C5.25338 20.845 5.34041 20.7826 5.40403 20.7471C5.43586 20.7293 5.461 20.7187 5.47479 20.7135C5.48161 20.7109 5.4854 20.7098 5.48551 20.7097C5.48556 20.7097 5.48466 20.71 5.48274 20.7105C5.48178 20.7108 5.48056 20.7111 5.47907 20.7115C5.47832 20.7117 5.47751 20.7119 5.47663 20.7122C5.47619 20.7123 5.47573 20.7124 5.47525 20.7125C5.47502 20.7126 5.47465 20.7127 5.47453 20.7127C5.47415 20.7128 5.47377 20.7129 5.35152 20.2281ZM4.07635 22.73C4.18735 23.2041 4.19592 23.5257 4.16732 23.7526C4.13947 23.9735 4.0734 24.1301 3.99446 24.2776C3.94637 24.3675 3.91269 24.4209 3.8544 24.525C3.80452 24.6141 3.7476 24.7223 3.70374 24.8458C3.60716 25.1179 3.59184 25.4127 3.70052 25.764L4.65585 25.4685C4.6087 25.3161 4.62409 25.2424 4.6461 25.1804C4.66154 25.137 4.68589 25.0868 4.72692 25.0136C4.75954 24.9553 4.8264 24.8424 4.87617 24.7494C4.99294 24.5312 5.1118 24.2557 5.15946 23.8777C5.20637 23.5057 5.18102 23.0615 5.05002 22.502L4.07635 22.73ZM3.70052 25.764C3.86395 26.2923 4.07288 26.8351 4.56372 27.3343C5.04719 27.8259 5.76248 28.2341 6.86247 28.6013L7.17907 27.6527C6.15606 27.3113 5.60589 26.9678 5.27674 26.6331C4.95495 26.3059 4.80409 25.9476 4.65585 25.4685L3.70052 25.764ZM6.86646 28.6026C10.279 29.7098 13.824 30.3569 17.4077 30.5267L17.455 29.5278C13.9602 29.3622 10.5031 28.7312 7.17508 27.6514L6.86646 28.6026ZM17.3773 30.5243C20.2523 30.8372 23.1599 30.6454 25.969 29.9574L25.7311 28.9861C23.0352 29.6464 20.2447 29.8305 17.4855 29.5302L17.3773 30.5243ZM25.85 29.4717C26.35 29.4643 26.35 29.4644 26.35 29.4644C26.35 29.4644 26.35 29.4644 26.35 29.4643C26.35 29.4642 26.35 29.4639 26.35 29.4636C26.3499 29.4629 26.3499 29.4618 26.3499 29.4603C26.3499 29.4573 26.3498 29.4526 26.3498 29.4463C26.3496 29.4337 26.3495 29.4146 26.3493 29.3893C26.349 29.3389 26.3489 29.2639 26.3493 29.1675C26.3502 28.9746 26.3537 28.696 26.3639 28.3552C26.3842 27.6729 26.4313 26.7453 26.538 25.7604C26.645 24.7731 26.8104 23.7418 27.0636 22.8473C27.3213 21.9367 27.6509 21.2384 28.0427 20.8499L27.3386 20.1398C26.7579 20.7156 26.3712 21.6216 26.1014 22.575C25.827 23.5445 25.6539 24.6369 25.5438 25.6527C25.4335 26.671 25.3852 27.6259 25.3643 28.3254C25.3539 28.6756 25.3503 28.9626 25.3493 29.1627C25.3489 29.2628 25.349 29.3412 25.3493 29.3949C25.3495 29.4218 25.3497 29.4425 25.3498 29.4566C25.3499 29.4637 25.3499 29.4692 25.35 29.4729C25.35 29.4748 25.35 29.4763 25.3501 29.4773C25.3501 29.4778 25.3501 29.4783 25.3501 29.4786C25.3501 29.4787 25.3501 29.4789 25.3501 29.4789C25.3501 29.4791 25.3501 29.4792 25.85 29.4717ZM28.0427 20.8499C28.4876 20.4087 28.8549 20.2129 29.1336 20.1456C29.4002 20.0813 29.613 20.127 29.7912 20.2312C30.1823 20.4598 30.472 21.0208 30.5132 21.5596L31.5103 21.4834C31.4525 20.7279 31.0543 19.8112 30.2959 19.3679C29.8993 19.1361 29.422 19.0473 28.899 19.1735C28.3881 19.2968 27.8663 19.6166 27.3386 20.1398L28.0427 20.8499ZM30.5128 21.5538C30.6377 23.4828 30.3046 25.414 29.5405 27.1896L30.4591 27.5849C31.2855 25.6644 31.6458 23.5756 31.5107 21.4892L30.5128 21.5538ZM30.2166 27.8378L37.78 24.1977L37.3464 23.2966L29.7829 26.9367L30.2166 27.8378ZM37.8605 23.3451C37.9267 23.3941 37.9629 23.4474 37.9782 23.472C37.9954 23.4998 38.0047 23.5222 38.0086 23.532C38.0162 23.5512 38.0169 23.559 38.0141 23.5458C38.0088 23.5217 38.001 23.4723 37.9935 23.3925C37.9788 23.2365 37.9692 23.0102 37.9694 22.7346C37.9696 22.1846 38.0085 21.4717 38.109 20.789C38.2114 20.093 38.3704 19.4837 38.583 19.1036C38.6886 18.9149 38.7819 18.8291 38.8431 18.7959C38.8817 18.775 38.9313 18.7587 39.0378 18.799L39.3922 17.8639C39.0367 17.7292 38.6814 17.7458 38.366 17.9171C38.073 18.0761 37.8632 18.342 37.7102 18.6155C37.4057 19.16 37.2264 19.9181 37.1196 20.6434C37.0109 21.382 36.9696 22.1443 36.9694 22.7342C36.9692 23.0287 36.9793 23.2886 36.9979 23.4863C37.0071 23.5835 37.0194 23.6778 37.0369 23.7583C37.0454 23.7974 37.0582 23.8477 37.0783 23.8989C37.0892 23.9263 37.1378 24.0544 37.2659 24.1492L37.8605 23.3451ZM39.0382 18.7992C39.0393 18.7996 39.1224 18.8404 39.21 19.1017C39.29 19.3403 39.337 19.6574 39.3591 19.9959C39.3809 20.3288 39.3771 20.6558 39.3674 20.9018C39.3626 21.0241 39.3565 21.1249 39.3515 21.1944C39.3491 21.2291 39.347 21.256 39.3455 21.2737C39.3447 21.2826 39.3442 21.2892 39.3438 21.2934C39.3436 21.2954 39.3435 21.2969 39.3434 21.2977C39.3434 21.2982 39.3433 21.2984 39.3433 21.2985C39.3433 21.2986 39.3433 21.2986 39.3433 21.2986C39.3433 21.2986 39.3433 21.2985 39.3433 21.2985C39.3433 21.2984 39.3433 21.2984 39.8411 21.3455C40.3389 21.3926 40.3389 21.3925 40.3389 21.3924C40.3389 21.3924 40.3389 21.3923 40.3389 21.3922C40.3389 21.392 40.339 21.3918 40.339 21.3915C40.339 21.3909 40.3391 21.3902 40.3392 21.3894C40.3393 21.3876 40.3396 21.3852 40.3398 21.3822C40.3404 21.3762 40.3411 21.3677 40.342 21.3569C40.3438 21.3352 40.3463 21.3041 40.3491 21.2649C40.3546 21.1865 40.3614 21.0752 40.3666 20.9409C40.3771 20.6738 40.3818 20.3097 40.357 19.9307C40.3326 19.5573 40.2781 19.1416 40.1582 18.7839C40.0459 18.4489 39.8308 18.0298 39.3919 17.8638L39.0382 18.7992Z" fill="#F0F3FF" mask="url(#path-3-outside-2_178_29)"/>
<mask id="path-5-outside-3_178_29" maskUnits="userSpaceOnUse" x="4.35156" y="16.567" width="36" height="14" fill="black">
<rect fill="white" x="4.35156" y="16.567" width="36" height="14"/>
<path d="M17.4241 22.1723C17.4241 22.1723 15.2176 23.6069 17.5084 23.4703C19.7991 23.3338 20.8771 23.507 22.6298 21.8552C24.3825 20.2033 25.0736 19.5873 22.8113 19.6763C20.549 19.7652 17.4241 22.1723 17.4241 22.1723ZM5.35156 20.2281C6.10323 20.8468 8.21156 21.681 8.57365 17.567ZM26.148 28.8567C26.148 28.8567 28.4653 30.6662 29.9998 27.3873ZM37.5632 23.7472C37.5632 23.7472 39.6175 25.4687 39.8411 21.3455Z"/>
</mask>
<path d="M17.4241 22.1723L17.6966 22.5915C17.7078 22.5843 17.7186 22.5766 17.7292 22.5684L17.4241 22.1723ZM5.66933 19.8421C5.45613 19.6666 5.14103 19.6971 4.96553 19.9103C4.79003 20.1235 4.82059 20.4386 5.03379 20.6141L5.66933 19.8421ZM9.07172 17.6108C9.09593 17.3358 8.89256 17.0931 8.61748 17.0689C8.3424 17.0447 8.09978 17.2481 8.07557 17.5232L9.07172 17.6108ZM26.4557 28.4626C26.2381 28.2926 25.9238 28.3313 25.7539 28.5489C25.5839 28.7666 25.6226 29.0808 25.8403 29.2508L26.4557 28.4626ZM30.4527 27.5992C30.5697 27.3491 30.4619 27.0514 30.2118 26.9344C29.9616 26.8173 29.664 26.9252 29.547 27.1753L30.4527 27.5992ZM37.8844 23.3639C37.6727 23.1866 37.3574 23.2144 37.18 23.426C37.0026 23.6377 37.0304 23.953 37.2421 24.1304L37.8844 23.3639ZM40.3404 21.3726C40.3554 21.0968 40.144 20.8612 39.8682 20.8462C39.5925 20.8313 39.3568 21.0427 39.3419 21.3184L40.3404 21.3726ZM17.4241 22.1723C17.1515 21.7531 17.1514 21.7532 17.1513 21.7533C17.1513 21.7533 17.1512 21.7534 17.1511 21.7534C17.1509 21.7536 17.1507 21.7537 17.1504 21.7539C17.1499 21.7542 17.1493 21.7546 17.1485 21.7551C17.1469 21.7561 17.1449 21.7575 17.1423 21.7592C17.1372 21.7626 17.1301 21.7673 17.1211 21.7733C17.1033 21.7852 17.0783 21.8023 17.0477 21.8236C16.9867 21.8661 16.9026 21.9266 16.8091 21.9989C16.631 22.1368 16.3852 22.3432 16.2123 22.5659C16.1284 22.6739 16.0284 22.8272 15.9873 23.0098C15.9395 23.2216 15.9743 23.4778 16.1753 23.6787C16.3424 23.8459 16.5681 23.9146 16.7659 23.9471C16.9758 23.9817 17.2328 23.9877 17.5382 23.9694L17.4786 22.9712C17.2113 22.9872 17.0361 22.9782 16.9283 22.9604C16.8082 22.9407 16.8305 22.9197 16.8824 22.9716C16.968 23.0572 16.9757 23.1725 16.9628 23.2295C16.9566 23.2573 16.9534 23.242 17.0021 23.1792C17.0945 23.0603 17.2571 22.9167 17.4211 22.7898C17.4987 22.7298 17.569 22.6792 17.6198 22.6438C17.645 22.6262 17.6652 22.6125 17.6785 22.6035C17.6852 22.599 17.6902 22.5957 17.6933 22.5937C17.6948 22.5927 17.6959 22.592 17.6965 22.5916C17.6967 22.5914 17.6969 22.5913 17.6969 22.5913C17.6969 22.5913 17.6969 22.5913 17.6969 22.5914C17.6968 22.5914 17.6968 22.5914 17.6968 22.5914C17.6967 22.5915 17.6966 22.5915 17.4241 22.1723ZM17.5382 23.9694C18.6327 23.9042 19.5543 23.911 20.3842 23.718C21.2614 23.5139 22.0454 23.093 22.9727 22.219L22.2869 21.4913C21.4616 22.2691 20.8302 22.5875 20.1576 22.744C19.4376 22.9114 18.6748 22.8999 17.4786 22.9712L17.5382 23.9694ZM22.9727 22.219C23.406 21.8107 23.7899 21.4514 24.0772 21.1508C24.2215 20.9999 24.3507 20.8542 24.4541 20.7162C24.5534 20.5836 24.6512 20.4292 24.7035 20.262C24.7592 20.0836 24.7747 19.8441 24.6305 19.6203C24.4999 19.4175 24.2956 19.3208 24.1338 19.2699C23.8158 19.1699 23.3548 19.1545 22.7917 19.1766L22.831 20.1759C23.399 20.1535 23.7 20.1818 23.8339 20.2239C23.8981 20.2441 23.8422 20.2431 23.7899 20.1618C23.724 20.0596 23.7478 19.9676 23.7489 19.9639C23.7491 19.9634 23.748 19.9669 23.7446 19.9744C23.7412 19.982 23.7359 19.9926 23.728 20.0063C23.712 20.0344 23.6881 20.0709 23.6538 20.1166C23.5846 20.209 23.4859 20.3222 23.3543 20.4598C23.0897 20.7366 22.73 21.0737 22.2869 21.4913L22.9727 22.219ZM22.7917 19.1766C21.5289 19.2263 20.0901 19.9078 19.0197 20.5244C18.4729 20.8394 17.9997 21.1509 17.6633 21.3836C17.4948 21.5001 17.36 21.5973 17.2668 21.6657C17.2202 21.7 17.1839 21.7271 17.1589 21.7459C17.1464 21.7553 17.1368 21.7626 17.1301 21.7677C17.1267 21.7703 17.1241 21.7723 17.1223 21.7737C17.1213 21.7744 17.1206 21.775 17.12 21.7754C17.1197 21.7756 17.1195 21.7758 17.1193 21.7759C17.1192 21.776 17.1191 21.7761 17.1191 21.7761C17.119 21.7762 17.1189 21.7762 17.4241 22.1723C17.7292 22.5684 17.7291 22.5685 17.7291 22.5685C17.7291 22.5685 17.7291 22.5685 17.7291 22.5685C17.7291 22.5685 17.7291 22.5685 17.7292 22.5684C17.7294 22.5682 17.7298 22.5679 17.7304 22.5675C17.7316 22.5666 17.7335 22.5652 17.7361 22.5631C17.7414 22.5591 17.7495 22.5529 17.7605 22.5447C17.7824 22.5282 17.8155 22.5035 17.8587 22.4717C17.9452 22.4082 18.0722 22.3166 18.2321 22.2061C18.5522 21.9846 19.0017 21.6888 19.5189 21.3909C20.5766 20.7816 21.8314 20.2152 22.831 20.1759L22.7917 19.1766ZM5.03379 20.6141C5.2621 20.8021 5.58883 21.004 5.96596 21.1271C6.34394 21.2506 6.80538 21.3048 7.27081 21.1453C8.23812 20.8138 8.88725 19.7068 9.07172 17.6108L8.07557 17.5232C7.89796 19.5412 7.31188 20.0741 6.94659 20.1993C6.74571 20.2682 6.5165 20.255 6.27645 20.1766C6.03554 20.0979 5.81686 19.9635 5.66933 19.8421L5.03379 20.6141ZM26.148 28.8567C25.8403 29.2508 25.8405 29.2509 25.8407 29.2511C25.8408 29.2512 25.8411 29.2514 25.8413 29.2516C25.8417 29.2519 25.8421 29.2522 25.8425 29.2525C25.8435 29.2532 25.8445 29.2541 25.8457 29.255C25.8481 29.2568 25.8511 29.2591 25.8547 29.2618C25.8618 29.2671 25.8712 29.274 25.8828 29.2824C25.906 29.299 25.9381 29.3213 25.9783 29.3474C26.0585 29.3995 26.1724 29.4677 26.3137 29.537C26.5932 29.6742 26.9976 29.8247 27.4709 29.8508C27.9526 29.8774 28.4965 29.7739 29.0298 29.4149C29.5574 29.0598 30.0419 28.4769 30.4527 27.5992L29.547 27.1753C29.1905 27.9371 28.8098 28.3576 28.4714 28.5853C28.1386 28.8093 27.8154 28.8683 27.526 28.8523C27.2282 28.8359 26.9573 28.739 26.7544 28.6393C26.6544 28.5903 26.5753 28.5427 26.5228 28.5086C26.4966 28.4917 26.4775 28.4783 26.466 28.47C26.4602 28.4659 26.4564 28.4631 26.4547 28.4618C26.4538 28.4611 26.4534 28.4608 26.4536 28.461C26.4537 28.461 26.4539 28.4612 26.4543 28.4615C26.4544 28.4616 26.4546 28.4618 26.4549 28.4619C26.455 28.462 26.4552 28.4622 26.4553 28.4622C26.4555 28.4624 26.4557 28.4626 26.148 28.8567ZM37.5632 23.7472C37.2421 24.1304 37.2423 24.1306 37.2426 24.1308C37.2427 24.1309 37.2429 24.1311 37.2431 24.1312C37.2435 24.1316 37.2439 24.1319 37.2443 24.1323C37.2452 24.133 37.2462 24.1338 37.2474 24.1348C37.2496 24.1367 37.2525 24.1389 37.2558 24.1416C37.2624 24.1469 37.2711 24.1538 37.2817 24.162C37.3029 24.1783 37.3321 24.1999 37.3682 24.2248C37.4398 24.2741 37.5418 24.3385 37.6661 24.3999C37.9039 24.5175 38.2785 24.652 38.6959 24.5865C39.1467 24.5157 39.5466 24.2286 39.8317 23.6962C40.1054 23.1851 40.2827 22.4358 40.3404 21.3726L39.3419 21.3184C39.2877 22.3168 39.1245 22.8985 38.9501 23.2242C38.787 23.5287 38.6314 23.5843 38.5408 23.5986C38.4166 23.6181 38.2637 23.5798 38.1093 23.5035C38.0375 23.468 37.9773 23.4301 37.9357 23.4014C37.9152 23.3873 37.9 23.3759 37.891 23.369C37.8865 23.3656 37.8836 23.3633 37.8825 23.3624C37.8819 23.3619 37.8818 23.3618 37.8821 23.362C37.8822 23.3622 37.8825 23.3624 37.8829 23.3627C37.8831 23.3629 37.8833 23.363 37.8835 23.3632C37.8837 23.3633 37.8839 23.3635 37.8839 23.3636C37.8842 23.3638 37.8844 23.3639 37.5632 23.7472Z" fill="#F0F3FF" mask="url(#path-5-outside-3_178_29)"/>
<g clip-path="url(#clip0_178_29)">
<path d="M14.9929 13.625C14.9201 13.5521 14.8153 13.4746 14.6788 13.3926C14.6697 13.3835 14.6378 13.3652 14.5832 13.3379C14.483 13.2832 14.3828 13.2331 14.2827 13.1875C14.228 13.1602 14.1916 13.1465 14.1734 13.1465C13.8911 13.028 13.5815 12.9323 13.2446 12.8594V11.041C13.9093 11.1322 14.4921 11.4102 14.9929 11.875V13.625ZM12.2066 11C11.9971 11 11.7604 11.0137 11.4963 11.041V9.29102C11.7604 9.26367 11.9971 9.25 12.2066 9.25C12.6618 9.25 13.0079 9.26367 13.2446 9.29102V11.041C13.017 11.0137 12.671 11 12.2066 11ZM11.4963 7.54102V5.79102C11.7604 5.76367 11.9971 5.75 12.2066 5.75C12.671 5.75 13.017 5.76367 13.2446 5.79102V7.54102C13.017 7.51367 12.671 7.5 12.2066 7.5C11.9971 7.5 11.7604 7.51367 11.4963 7.54102ZM7.99973 8.62109V6.87109C8.86478 6.51562 9.44754 6.28776 9.74803 6.1875V7.9375C9.46575 8.02865 8.88299 8.25651 7.99973 8.62109ZM5.58217 9.25C5.23616 9.25 4.87648 9.21354 4.50315 9.14062V7.39062C4.87648 7.46354 5.23616 7.5 5.58217 7.5C5.7825 7.5 6.00559 7.47721 6.25144 7.43164V9.18164C6.00559 9.22721 5.7825 9.25 5.58217 9.25ZM2.75486 8.375C3.1464 8.73047 3.72917 8.98568 4.50315 9.14062V10.8906C3.72006 10.7357 3.1373 10.4805 2.75486 10.125V11.875C3.1464 12.2305 3.72917 12.4857 4.50315 12.6406V14.459C4.37567 14.4408 4.24364 14.4134 4.10705 14.377C4.08884 14.377 4.06608 14.3724 4.03876 14.3633C4.01144 14.3542 3.99778 14.3451 3.99778 14.3359C3.89762 14.3086 3.80201 14.2767 3.71095 14.2402C3.65632 14.222 3.61079 14.2038 3.57437 14.1855C3.48331 14.14 3.3877 14.0853 3.28754 14.0215C3.21469 13.9759 3.17372 13.9531 3.16461 13.9531C3.00982 13.8438 2.87323 13.7344 2.75486 13.625V17.125L1.87391 17L1.87388 10.9316V4.875C1.63258 4.875 2.04234 4.70638 1.87388 4.875C2.11518 4.875 1.87388 4.80288 1.87388 4.80288C1.87388 4.55679 2.04689 4.9715 1.87388 4.80288C1.95583 4.88491 2.94608 5.03906 3.08266 5.12109C3.09177 5.12109 3.10315 5.12565 3.11681 5.13477L3.15778 5.16211L3.19193 5.17578C3.28299 5.23047 3.3786 5.2806 3.47876 5.32617C3.52429 5.3444 3.56071 5.36263 3.58803 5.38086C3.72461 5.42643 3.85209 5.46745 3.97047 5.50391L4.01144 5.51758C4.16624 5.56315 4.33014 5.60417 4.50315 5.64062V7.39062C3.72917 7.23568 3.1464 6.98047 2.75486 6.625V8.375ZM5.58217 11C5.7825 11 6.00559 10.9772 6.25144 10.9316V12.6816C6.00559 12.7272 5.7825 12.75 5.58217 12.75C5.23616 12.75 4.87648 12.7135 4.50315 12.6406V10.8906C4.87648 10.9635 5.23616 11 5.58217 11ZM9.74803 9.6875V11.4375C9.45665 11.5378 8.87388 11.7656 7.99973 12.1211V10.3711C8.86478 10.0156 9.44754 9.78776 9.74803 9.6875ZM9.74803 7.9375C10.3581 7.73698 10.9409 7.60482 11.4963 7.54102V9.29102C10.9409 9.35482 10.3581 9.48698 9.74803 9.6875V7.9375ZM6.25144 10.9316V9.18164C6.68852 9.10872 7.27128 8.92188 7.99973 8.62109V10.3711C7.27128 10.6719 6.68852 10.8587 6.25144 10.9316ZM11.4963 12.791C10.9318 12.8457 10.349 12.9733 9.74803 13.1738V11.4375C10.3581 11.237 10.9409 11.1048 11.4963 11.041V12.791ZM7.99973 13.8574C7.86315 13.9121 7.73567 13.9622 7.6173 14.0078C7.58998 14.0169 7.55811 14.0306 7.52169 14.0488C7.42152 14.0853 7.3077 14.1263 7.18022 14.1719L7.09827 14.1992C6.94348 14.2539 6.80689 14.2949 6.68852 14.3223C6.53372 14.3678 6.38803 14.4043 6.25144 14.4316V12.6816C6.68852 12.6087 7.27128 12.4219 7.99973 12.1211V13.8574ZM6.25144 5.68164C6.61567 5.61784 7.04819 5.49023 7.549 5.29883L7.56266 5.29199L7.58998 5.28516C7.73567 5.23047 7.87226 5.17578 7.99973 5.12109V6.87109C7.27128 7.17188 6.68852 7.35872 6.25144 7.43164V5.68164ZM9.74803 4.4375C10.3581 4.23698 10.9409 4.10482 11.4963 4.04102V5.79102C10.9409 5.85482 10.3581 5.98698 9.74803 6.1875V4.4375ZM13.6407 4.12305C13.6589 4.12305 13.6794 4.1276 13.7022 4.13672C13.7249 4.14583 13.7409 4.15039 13.75 4.15039C13.8501 4.17773 13.9503 4.21419 14.0505 4.25977C14.0869 4.27799 14.1279 4.29622 14.1734 4.31445C14.2645 4.36003 14.3601 4.41471 14.4602 4.47852C14.5331 4.52409 14.574 4.54688 14.5832 4.54688C14.7379 4.65625 14.8745 4.76562 14.9929 4.875V6.625C14.4921 6.16016 13.9093 5.88216 13.2446 5.79102V4.04102C13.3721 4.05924 13.5041 4.08659 13.6407 4.12305ZM14.9929 8.375V10.125C14.4921 9.66016 13.9093 9.38216 13.2446 9.29102V7.54102C13.9093 7.63216 14.4921 7.91016 14.9929 8.375Z" fill="#F0F3FF"/>
</g>
<defs>
<clipPath id="clip0_178_29">
<rect width="14" height="14" fill="white" transform="translate(1 4)"/>
</clipPath>
</defs>
</svg>
