<svg xmlns="http://www.w3.org/2000/svg" width="43" height="35" fill="none"><mask id="a" width="36" height="8" x="4.35" y="12.87" fill="#000" maskUnits="userSpaceOnUse"><path fill="#fff" d="M4.35 12.87h36v8h-36z"/><path d="M5.35 20.23a7.78 7.78 0 0 1 8.75-3.44c1.36.2 2.75.15 4.1-.12 1.02-1.17 1-1.8 3.38-2.48 2.38-.68 9.12-.06 9.38 0a5.5 5.5 0 0 1 4 2.56s4.05-.86 4.5 1.51"/></mask><path fill="#F0F3FF" d="M4.92 19.97a.5.5 0 1 0 .86.52l-.86-.52Zm9.18-3.18-.14.48a.5.5 0 0 0 .07.01l.07-.5Zm4.1-.12.1.5a.5.5 0 0 0 .27-.17l-.37-.33Zm12.76-2.48-.12.49a.5.5 0 0 0 .06 0l.06-.5Zm4 2.56-.43.26a.5.5 0 0 0 .53.22l-.1-.48Zm4 1.6a.5.5 0 0 0 .99-.18l-.99.18ZM5.78 20.5a7.28 7.28 0 0 1 3.55-2.99l-.37-.93a8.28 8.28 0 0 0-4.04 3.4l.86.52Zm3.55-2.99a7.28 7.28 0 0 1 4.63-.23l.27-.96a8.28 8.28 0 0 0-5.27.26l.37.93Zm4.7-.22c1.42.2 2.86.16 4.26-.12l-.2-.98c-1.29.26-2.61.3-3.92.11l-.14 1Zm4.54-.28c.27-.3.48-.58.65-.81.18-.23.32-.42.5-.58.34-.31.84-.61 2-.94l-.28-.96c-1.23.35-1.9.7-2.4 1.17-.24.22-.43.46-.61.7-.19.24-.37.49-.61.76l.75.66Zm3.14-2.33c.54-.15 1.36-.24 2.32-.28.95-.03 2.01-.02 3.01.02a66.16 66.16 0 0 1 3.74.26h.06l.23-.97a41.78 41.78 0 0 0-7.08-.3c-.98.03-1.9.12-2.55.3l.27.97Zm9.19.02a5 5 0 0 1 2.08.75l.53-.85a6 6 0 0 0-2.5-.9l-.11 1Zm2.08.75A5 5 0 0 1 34.53 17l.85-.53a6 6 0 0 0-1.87-1.89l-.53.85Zm1.97 1.3.1.5h.01l.03-.01a5.82 5.82 0 0 1 .56-.08c.37-.04.86-.07 1.35-.04.5.04.96.15 1.32.35.33.2.56.47.64.9l.99-.19a2.24 2.24 0 0 0-1.14-1.58 4.18 4.18 0 0 0-1.73-.47 8.39 8.39 0 0 0-2.17.13H34.85l.1.5Z" mask="url(#a)"/><mask id="b" width="38" height="14" x="3.13" y="17.27" fill="#000" maskUnits="userSpaceOnUse"><path fill="#fff" d="M3.13 17.27h38v14h-38z"/><path d="M5.35 20.23s-1.27.32-.79 2.39c.49 2.06-.7 1.99-.38 3 .31 1 .72 1.8 2.84 2.5a39.84 39.84 0 0 0 10.41 1.9c2.82.31 5.67.13 8.42-.55 0 0-.1-7.05 1.84-8.98 1.95-1.92 3.22-.26 3.32 1.03.13 2-.21 4.02-1.01 5.87l7.56-3.64c-.22-.16-.2-6.12 1.66-5.42.88.33.62 3.02.62 3.02"/></mask><path fill="#F0F3FF" d="M5.47 20.71a.5.5 0 1 0-.24-.97l.24.97Zm1.55 7.42-.16.47.16-.47Zm10.41 1.9.06-.5h-.04l-.02.5Zm8.42-.56.12.49a.5.5 0 0 0 .38-.5l-.5.01Zm5.16-7.95.5-.03-.5.03ZM30 27.4l-.46-.2a.5.5 0 0 0 .68.65l-.22-.45Zm7.56-3.64.22.45a.5.5 0 0 0 .08-.85l-.3.4Zm1.66-5.42-.18.47.18-.47Zm.12 2.97a.5.5 0 0 0 1 .1l-1-.1ZM5.35 20.23l-.12-.49H5.2a1.18 1.18 0 0 0-.3.13c-.15.1-.35.24-.53.47-.37.49-.57 1.25-.3 2.39l.97-.23c-.22-.93-.02-1.36.12-1.55a.75.75 0 0 1 .3-.24h.02-.01l-.13-.48Zm-1.27 2.5c.1.47.12.8.09 1.02-.03.22-.1.38-.18.53-.04.09-.08.14-.14.24l-.15.33c-.1.27-.1.56 0 .91l.96-.3c-.05-.14-.04-.22-.01-.28l.08-.17.15-.26c.11-.22.23-.5.28-.87a3.9 3.9 0 0 0-.11-1.38l-.97.23Zm-.38 3.03c.16.53.37 1.08.86 1.57.49.5 1.2.9 2.3 1.27l.32-.95a4.67 4.67 0 0 1-1.9-1.02 2.62 2.62 0 0 1-.62-1.16l-.96.3Zm3.17 2.84a40.34 40.34 0 0 0 10.54 1.93l.04-1c-3.49-.17-6.95-.8-10.27-1.88l-.31.95Zm10.5 1.92c2.88.32 5.79.13 8.6-.56l-.24-.97c-2.7.66-5.49.84-8.24.54l-.11 1Zm8.48-1.05h.5v-.08a22.86 22.86 0 0 1 .01-1.03c.02-.69.07-1.61.18-2.6.1-.99.27-2.02.52-2.91.26-.91.6-1.61.98-2l-.7-.71a5.62 5.62 0 0 0-1.24 2.43c-.27.97-.45 2.07-.56 3.08a34.98 34.98 0 0 0-.2 3.74l.01.07v.01h.5Zm2.2-8.62c.44-.44.8-.64 1.08-.7a.85.85 0 0 1 .66.08c.4.23.68.8.72 1.33l1-.08a2.74 2.74 0 0 0-1.21-2.11c-.4-.23-.88-.32-1.4-.2-.51.13-1.03.45-1.56.97l.7.71Zm2.46.7c.13 1.93-.2 3.86-.97 5.64l.92.4c.83-1.93 1.19-4.01 1.05-6.1l-1 .06Zm-.3 6.29 7.57-3.64-.43-.9-7.57 3.64.44.9Zm7.65-4.5a.46.46 0 0 1 .15.2c0 .01 0 .02 0 0L38 23.4a13.98 13.98 0 0 1 .12-2.6c.1-.7.26-1.3.47-1.69.1-.19.2-.27.26-.3.04-.03.1-.04.2 0l.35-.94a1.2 1.2 0 0 0-1.02.06c-.3.16-.5.42-.66.7-.3.54-.48 1.3-.59 2.02A14.98 14.98 0 0 0 37 23.5a2.38 2.38 0 0 0 .08.4c0 .04.06.16.19.26l.59-.8Zm1.18-4.54s.08.04.17.3c.08.24.13.56.15.9a8.87 8.87 0 0 1-.01 1.27v.02l.5.06.49.04v-.03a7.96 7.96 0 0 0 .02-1.43 4.68 4.68 0 0 0-.2-1.15c-.11-.33-.33-.75-.77-.92l-.35.94Z" mask="url(#b)"/><mask id="c" width="36" height="14" x="4.35" y="16.57" fill="#000" maskUnits="userSpaceOnUse"><path fill="#fff" d="M4.35 16.57h36v14h-36z"/><path d="M17.42 22.17s-2.2 1.44.09 1.3c2.29-.14 3.37.04 5.12-1.61 1.75-1.66 2.44-2.27.18-2.18-2.26.09-5.39 2.5-5.39 2.5ZM5.35 20.23c.75.62 2.86 1.45 3.22-2.66Zm20.8 8.63s2.32 1.8 3.85-1.47Zm11.41-5.11s2.06 1.72 2.28-2.4Z"/></mask><path fill="#F0F3FF" d="m17.42 22.17.28.42.03-.02-.3-.4ZM5.67 19.84a.5.5 0 1 0-.64.77l.64-.77Zm3.4-2.23a.5.5 0 0 0-1-.09l1 .1Zm17.39 10.85a.5.5 0 1 0-.62.8l.62-.8Zm4-.86a.5.5 0 0 0-.91-.42l.9.42Zm7.42-4.24a.5.5 0 0 0-.64.77l.64-.77Zm2.46-1.99a.5.5 0 1 0-1-.05l1 .05Zm-22.92.8-.27-.42-.03.02a5 5 0 0 0-.9.8c-.1.1-.2.26-.23.44a.7.7 0 0 0 .19.67c.16.17.39.23.59.27.2.03.46.04.77.02l-.06-1c-.27.02-.44 0-.55-.01-.12-.02-.1-.04-.05.01.09.09.1.2.08.26 0 .03 0 .01.04-.05a2.54 2.54 0 0 1 .62-.54 4.65 4.65 0 0 1 .07-.05l-.27-.42Zm.12 1.8c1.1-.07 2.01-.06 2.84-.25.88-.2 1.67-.63 2.6-1.5l-.7-.73a4.45 4.45 0 0 1-2.12 1.25c-.72.17-1.49.16-2.68.23l.06 1Zm5.43-1.75c.44-.4.82-.77 1.1-1.07.15-.15.28-.3.38-.43.1-.14.2-.3.25-.46a.75.75 0 0 0-.07-.64.89.89 0 0 0-.5-.35 4.3 4.3 0 0 0-1.34-.1l.04 1c.57-.02.87.01 1 .05.07.02.01.02-.04-.06a.26.26 0 0 1-.04-.2v.01l-.02.04-.08.1c-.07.1-.16.21-.3.35-.26.28-.62.61-1.06 1.03l.68.73Zm-.18-3.04c-1.26.05-2.7.73-3.77 1.34a19.75 19.75 0 0 0-1.9 1.25l.3.4.3.4h.01l.03-.03a11.34 11.34 0 0 1 .47-.33c.32-.23.77-.52 1.29-.82a8.13 8.13 0 0 1 3.31-1.21l-.04-1ZM5.03 20.6c.23.2.56.4.94.52.37.12.84.17 1.3.02.97-.34 1.62-1.44 1.8-3.54l-1-.09c-.17 2.02-.76 2.55-1.12 2.68-.2.07-.43.05-.67-.02a1.95 1.95 0 0 1-.61-.34l-.64.77Zm21.12 8.25-.3.4a2.49 2.49 0 0 0 .46.28c.28.13.69.28 1.16.31a2.5 2.5 0 0 0 1.56-.44 4.3 4.3 0 0 0 1.42-1.81l-.9-.42a3.33 3.33 0 0 1-1.08 1.4 1.5 1.5 0 0 1-.94.27 2.03 2.03 0 0 1-1.08-.39l-.3.4Zm11.41-5.11a36.49 36.49 0 0 0-.32.38l.02.01a1.82 1.82 0 0 0 .1.08c.08.05.18.12.3.18.24.12.62.25 1.04.19.45-.07.85-.36 1.13-.9.28-.5.45-1.25.51-2.32l-1-.05c-.05 1-.22 1.58-.39 1.9-.16.3-.32.36-.4.38a.76.76 0 0 1-.44-.1 1.42 1.42 0 0 1-.23-.14l-.32.39Z" mask="url(#c)"/><g clip-path="url(#d)"><path fill="#F0F3FF" d="M15 13.63a1.65 1.65 0 0 0-.42-.3 4.65 4.65 0 0 0-1.34-.47v-1.82c.67.1 1.25.37 1.75.84v1.74ZM12.2 11c-.2 0-.44.01-.7.04V9.3a9.76 9.76 0 0 1 1.75 0v1.75A9.54 9.54 0 0 0 12.2 11Zm-.7-3.46V5.8a9.53 9.53 0 0 1 1.75 0v1.75a9.53 9.53 0 0 0-1.75 0ZM8 8.62V6.87c.86-.35 1.45-.58 1.75-.68v1.75c-.28.09-.87.32-1.75.68Zm-2.42.63c-.34 0-.7-.04-1.08-.1V7.38c.38.07.74.11 1.08.11.2 0 .43-.02.67-.07v1.75a3.7 3.7 0 0 1-.67.07Zm-2.83-.88c.4.36.98.62 1.75.77v1.75a3.55 3.55 0 0 1-1.75-.77v1.76c.4.35.98.6 1.75.76v1.82a3.42 3.42 0 0 1-1.34-.5c-.15-.12-.29-.23-.4-.34v3.5L1.86 17V4.88c-.24 0 .17-.17 0 0 .25 0 0-.08 0-.08 0-.24.18.17 0 0 .09.08 1.08.24 1.21.32l.04.01.04.03.03.02a2.84 2.84 0 0 0 .78.32l.04.02.5.12V7.4a3.63 3.63 0 0 1-1.76-.76v1.75ZM5.58 11c.2 0 .43-.02.67-.07v1.75a3.7 3.7 0 0 1-.67.07c-.34 0-.7-.04-1.08-.1v-1.76c.38.07.74.11 1.08.11Zm4.17-1.31v1.75c-.3.1-.88.33-1.75.68v-1.75c.86-.35 1.45-.58 1.75-.68Zm0-1.75c.6-.2 1.2-.34 1.75-.4V9.3c-.56.06-1.14.2-1.75.4V7.94Zm-3.5 3V9.17A8.62 8.62 0 0 0 8 8.62v1.75c-.73.3-1.31.49-1.75.56Zm5.25 1.85c-.57.06-1.15.18-1.75.38v-1.73c.6-.2 1.2-.34 1.75-.4v1.75ZM8 13.86a31.16 31.16 0 0 1-.82.31l-.08.03c-.16.05-.3.1-.41.12l-.44.11v-1.75A8.62 8.62 0 0 0 8 12.12v1.74ZM6.25 5.68c.37-.06.8-.19 1.3-.38h.01l.03-.01.41-.17v1.75c-.73.3-1.31.49-1.75.56V5.68Zm3.5-1.24c.6-.2 1.2-.34 1.75-.4V5.8c-.56.06-1.14.2-1.75.4V4.44Zm3.9-.32s.03 0 .05.02l.05.01a2 2 0 0 1 .42.16 3.2 3.2 0 0 1 .41.24c.16.1.3.22.41.33v1.75a3.14 3.14 0 0 0-1.75-.84V4.04l.4.08Zm1.34 4.25v1.76a3.14 3.14 0 0 0-1.75-.84V7.54c.67.1 1.25.37 1.75.83Z"/></g><defs><clipPath id="d"><path fill="#fff" d="M1 4h14v14H1z"/></clipPath></defs></svg>