<svg xmlns="http://www.w3.org/2000/svg" width="56" height="56" fill="none"><path fill="#fff" stroke="#000" d="M28 6.13a21.87 21.87 0 1 0 0 43.74 21.87 21.87 0 0 0 0-43.74Zm0 33.24a11.37 11.37 0 1 1 0-22.74 11.37 11.37 0 0 1 0 22.75Zm8.63-21.24a13.06 13.06 0 0 0-7.76-3.22V7.89c4.73.2 9.24 2.08 12.72 5.28l-4.96 4.96Zm-9.5-3.22c-2.88.19-5.6 1.32-7.76 3.22l-4.96-4.96A20.05 20.05 0 0 1 27.12 7.9v7.02Zm-9 4.46a13.06 13.06 0 0 0-3.22 7.75H7.89c.2-4.72 2.08-9.23 5.28-12.71l4.96 4.96Zm-3.22 9.5c.19 2.88 1.32 5.6 3.22 7.76l-4.96 4.96A20.05 20.05 0 0 1 7.9 28.87h7.02Zm4.46 9a13.06 13.06 0 0 0 7.75 3.22v7.02a20.05 20.05 0 0 1-12.71-5.28l4.96-4.96Zm9.5 3.22c2.88-.19 5.6-1.32 7.76-3.22l4.96 4.96a20.05 20.05 0 0 1-12.72 5.28v-7.02Zm9-4.46a13.06 13.06 0 0 0 3.22-7.76h7.02a20.05 20.05 0 0 1-5.28 12.72l-4.96-4.96Zm3.22-9.5a13.06 13.06 0 0 0-3.22-7.76l4.96-4.96a20.05 20.05 0 0 1 5.28 12.71h-7.02Z"/></svg>