<svg xmlns="http://www.w3.org/2000/svg" width="56" height="56" fill="none"><path fill="#fff" stroke="#000" d="M33.7 22.3a2.2 2.2 0 1 0 0 4.4 2.2 2.2 0 0 0 0-4.4ZM38.5 27.11a2.2 2.2 0 1 0 0 4.39 2.2 2.2 0 0 0 0-4.39ZM14.8 20.16a4.32 4.32 0 0 0-4.3 4.34c0 2.4 1.92 4.33 4.3 4.33 2.36 0 4.28-1.94 4.28-4.33a4.32 4.32 0 0 0-4.29-4.34Zm-.02 6.47a2.12 2.12 0 0 1 0-4.26c1.16 0 2.11.96 2.11 2.13s-.95 2.13-2.11 2.13ZM38.5 17.5a2.2 2.2 0 1 0 0 4.4 2.2 2.2 0 0 0 0-4.4ZM43.3 22.3a2.2 2.2 0 1 0 0 4.4 2.2 2.2 0 0 0 0-4.4Z"/><path fill="#fff" stroke="#000" d="M51 27.22c-2.31-9.68-4.77-14.82-9.68-16.28a9.74 9.74 0 0 0-2.81-.44c-3.02 0-5.14 1.6-10.51 1.6-5.38 0-7.5-1.6-10.5-1.6-.85 0-1.75.12-2.82.44-4.9 1.46-7.37 6.6-9.68 16.28-2.31 9.68-1.9 16.66.84 17.97.45.21.9.31 1.37.31 2.37 0 4.93-2.6 7.4-5.7 2.8-3.5 3.5-3.6 12.06-3.6h2.66c8.55 0 9.26.1 12.06 3.6 2.47 3.1 5.03 5.7 7.4 5.7.47 0 .92-.1 1.37-.31 2.73-1.3 3.15-8.3.84-17.97Zm-1.6 16.39c-.2.1-.4.14-.6.14-.67 0-1.55-.44-2.55-1.28-1-.84-2.12-2.02-3.49-3.75-1.42-1.77-2.59-3.08-4.76-3.7-1.82-.53-4.23-.57-8.67-.57h-2.66c-4.45 0-6.85.04-8.67.56-2.17.63-3.34 1.94-4.76 3.71a25.84 25.84 0 0 1-3.49 3.75c-1 .83-1.88 1.28-2.54 1.28-.22 0-.41-.05-.61-.14-1.05-.5-2.47-5.22.1-15.98 2.35-9.8 4.64-13.87 8.48-15.01.83-.25 1.59-.37 2.31-.37 1.07 0 2.04.25 3.26.57 1.76.46 3.95 1.04 7.25 1.04s5.48-.58 7.24-1.04c1.23-.32 2.2-.57 3.27-.57.72 0 1.48.12 2.32.37 3.83 1.14 6.12 5.2 8.47 15 2.57 10.78 1.15 15.5.1 15.99Z"/></svg>