<svg xmlns="http://www.w3.org/2000/svg" width="45" height="45" fill="none"><path fill="#fff" stroke="#000" stroke-width=".5" d="M22.15 5.31a17.19 17.19 0 1 0 0 34.38 17.19 17.19 0 0 0 0-34.38Zm7.02 25.34-2-2.77 2.4-6.98 3.24-1.06 5.1 3.91a15.7 15.7 0 0 1-2.22 6.9h-6.52Zm-14.05 0H8.6a15.7 15.7 0 0 1-2.21-6.9l5.1-3.9 3.25 1.05 2.4 6.98-2.02 2.77ZM9.03 13.68l1.53 5.14-4.22 3.23c.08-2.99 1.01-5.9 2.7-8.37ZM18.4 27.3l-2.3-6.69 6.06-4.16 6.05 4.16-2.3 6.7H18.4Zm15.35-8.5 1.52-5.13a15.71 15.71 0 0 1 2.7 8.37l-4.22-3.23Zm.5-6.5-1.85 6.22-3.27 1.06-6.28-4.33v-3.4L28.45 8c2.23.98 4.21 2.45 5.78 4.31Zm-7.36-4.9-4.73 3.26-4.73-3.26c3.08-.96 6.38-.96 9.46 0Zm-11.04.6 5.62 3.85v3.4l-6.3 4.33-3.26-1.06-1.84-6.22a15.89 15.89 0 0 1 5.78-4.3Zm-6.3 24.02h5.45l1.9 5.39a15.9 15.9 0 0 1-7.36-5.4Zm8.98 5.86-2.28-6.44 2.01-2.76h7.8l2 2.76-2.28 6.44c-2.38.56-4.86.56-7.25 0Zm8.88-.47 1.9-5.4h5.46a15.9 15.9 0 0 1-7.36 5.4Z"/></svg>