<svg xmlns="http://www.w3.org/2000/svg" width="14" height="14" fill="none"><g clip-path="url(#a)"><path fill="#F0F3FF" stroke="#000" stroke-width=".3" d="M10.91 2.6c0-.59-.15-1.05-.48-1.39-.33-.33-.8-.48-1.37-.48-.43 0-.88.07-1.35.21-.46.15-.93.35-1.4.62a12 12 0 0 0-2.7 2.06c-.4.42-.78.85-1.14 1.3a9.52 9.52 0 0 0-1.52 2.8c-.15.46-.22.91-.22 1.35 0 .58.15 1.04.48 1.37.34.32.8.47 1.38.47.43 0 .87-.07 1.34-.22.46-.14.93-.35 1.4-.61a11.55 11.55 0 0 0 2.69-2.06 13.3 13.3 0 0 0 2.06-2.69c.26-.47.46-.93.6-1.4.15-.46.22-.9.23-1.34ZM4.93 13.27c.43 0 .88-.08 1.35-.22a7.2 7.2 0 0 0 1.4-.62 12.83 12.83 0 0 0 4.76-4.75c.26-.48.46-.94.6-1.41.16-.47.24-.92.24-1.35 0-.25-.04-.49-.1-.71-.08-.24-.2-.46-.4-.65l-1.03-1.04-.25-.26v.36c-.02.45-.1.93-.25 1.42-.15.5-.36 1-.64 1.5a14.17 14.17 0 0 1-5.06 5.06c-.49.26-.99.48-1.5.64-.5.17-.97.25-1.42.24h-.37l.27.26 1.04 1.04c.19.18.4.3.64.38.23.06.47.1.72.1ZM9.05.14c.34 0 .67.05.97.15.3.1.57.26.82.5l2.36 2.36c.24.24.4.51.5.81.1.3.15.63.15.98 0 .46-.07.93-.23 1.43a8 8 0 0 1-.63 1.5 12.11 12.11 0 0 1-2.2 2.91 13.8 13.8 0 0 1-2.9 2.2c-.5.27-1 .48-1.5.63-.5.16-.98.23-1.44.23-.34 0-.66-.05-.97-.15a2 2 0 0 1-.82-.5L.8 10.84a2 2 0 0 1-.5-.81c-.1-.3-.15-.63-.15-.98 0-.46.07-.93.23-1.43.15-.5.36-1 .63-1.51s.59-1 .97-1.5A14.47 14.47 0 0 1 4.6 1.99c.49-.38.99-.7 1.5-.98A8.2 8.2 0 0 1 7.6.38c.5-.16.98-.23 1.44-.23Z"/></g><defs><clipPath id="a"><path fill="#fff" d="M0 0h14v14H0z"/></clipPath></defs></svg>