<svg xmlns="http://www.w3.org/2000/svg" width="128" height="128" fill="none"><mask id="a" fill="#fff"><path fill-rule="evenodd" d="m112.77 29.18 2.63 9.83a7.31 7.31 0 0 1-2.2 7.36l-.36.3a11.43 11.43 0 0 0 5.07 20.27l.49.07a7.03 7.03 0 0 1 5.89 5.16l2.68 10a9.14 9.14 0 0 1-6.47 11.2l-92.73 24.85a9.14 9.14 0 0 1-11.2-6.47l-2.52-9.41a7.96 7.96 0 0 1 2.28-7.9l.38-.33a11.43 11.43 0 0 0-5.42-20.14 7.9 7.9 0 0 1-6.38-5.76l-2.53-9.45a9.14 9.14 0 0 1 6.47-11.2l92.72-24.84a9.15 9.15 0 0 1 11.2 6.46m-9.52 1.4L11.32 55.2a2.38 2.38 0 0 0-1.69 2.92l1.81 6.75a21.41 21.41 0 0 1 9.93 37.06l1.81 6.75a2.38 2.38 0 0 0 2.92 1.68l91.93-24.63a2.38 2.38 0 0 0 1.68-2.91l-1.8-6.75A21.41 21.41 0 0 1 107.96 39l-1.8-6.75a2.38 2.38 0 0 0-2.92-1.68Zm-2.93 49.27a6.87 6.87 0 1 1-13.28 3.55 6.87 6.87 0 0 1 13.28-3.55Zm-4.74-17.66a6.86 6.86 0 0 1-13.24 3.54 6.86 6.86 0 0 1 13.24-3.55Zm-4.73-17.67a6.86 6.86 0 1 1-13.25 3.55 6.86 6.86 0 0 1 13.25-3.55Z" clip-rule="evenodd"/></mask><path fill="#fff" fill-rule="evenodd" d="m112.77 29.18 2.63 9.83a7.31 7.31 0 0 1-2.2 7.36l-.36.3a11.43 11.43 0 0 0 5.07 20.27l.49.07a7.03 7.03 0 0 1 5.89 5.16l2.68 10a9.14 9.14 0 0 1-6.47 11.2l-92.73 24.85a9.14 9.14 0 0 1-11.2-6.47l-2.52-9.41a7.96 7.96 0 0 1 2.28-7.9l.38-.33a11.43 11.43 0 0 0-5.42-20.14 7.9 7.9 0 0 1-6.38-5.76l-2.53-9.45a9.14 9.14 0 0 1 6.47-11.2l92.72-24.84a9.15 9.15 0 0 1 11.2 6.46m-9.52 1.4L11.32 55.2a2.38 2.38 0 0 0-1.69 2.92l1.81 6.75a21.41 21.41 0 0 1 9.93 37.06l1.81 6.75a2.38 2.38 0 0 0 2.92 1.68l91.93-24.63a2.38 2.38 0 0 0 1.68-2.91l-1.8-6.75A21.41 21.41 0 0 1 107.96 39l-1.8-6.75a2.38 2.38 0 0 0-2.92-1.68Zm-2.93 49.27a6.87 6.87 0 1 1-13.28 3.55 6.87 6.87 0 0 1 13.28-3.55Zm-4.74-17.66a6.86 6.86 0 0 1-13.24 3.54 6.86 6.86 0 0 1 13.24-3.55Zm-4.73-17.67a6.86 6.86 0 1 1-13.25 3.55 6.86 6.86 0 0 1 13.25-3.55Z" clip-rule="evenodd"/><path fill="#000" d="m115.4 39 2.9-.77-2.9.78Zm-2.2 7.37 1.92 2.3.03-.03.03-.03-1.99-2.24Zm-.36.3 1.84 2.36.04-.03.05-.04-1.93-2.3Zm5.07 20.27-.52 2.95.03.01h.03l.46-2.96Zm.49.07-.45 2.97h.03l.03.01.39-2.98Zm5.89 5.16-2.9.78 2.9-.78Zm2.68 10-2.9.78 2.9-.78Zm-6.47 11.2.78 2.9-.78-2.9Zm-92.73 24.85.78 2.9-.78-2.9Zm-11.2-6.47 2.9-.78-2.9.78Zm-2.52-9.41 2.9-.78-2.9.78Zm2.28-7.9-1.95-2.28-.04.04-.05.03 2.04 2.2Zm.38-.33-1.9-2.32-.03.02-.03.03 1.96 2.27Zm-5.42-20.14-.48 2.96.48-2.96ZM4.9 68.21l2.9-.78-2.9.78Zm-2.53-9.45-2.9.78 2.9-.78Zm6.47-11.2.77 2.9-.77-2.9Zm92.72-24.84.78 2.9-.78-2.9Zm1.68 7.85.78 2.9-.78-2.9ZM11.32 55.2l-.78-2.9.78 2.9Zm-1.69 2.92 2.9-.78-2.9.78Zm1.81 6.75-2.9.77.49 1.8 1.82.37.6-2.94ZM27.9 80.32l-2.9.78 2.9-.78Zm-6.53 21.61-1.98-2.25-1.4 1.23.49 1.8 2.9-.78Zm1.81 6.75-2.9.78 2.9-.78Zm2.92 1.68-.78-2.9.78 2.9Zm91.93-24.63.77 2.9-.77-2.9Zm1.68-2.91-2.9.77 2.9-.77Zm-1.8-6.75 2.9-.78-.49-1.8-1.82-.36-.6 2.94ZM101.44 60.6l2.9-.77-2.9.77Zm6.52-21.6 1.98 2.24 1.4-1.23-.48-1.8-2.9.78Zm-1.8-6.76 2.89-.77-2.9.77Zm-5.85 47.6-2.9.78 2.9-.78ZM87.07 83.4l-2.9.77 2.9-.77Zm8.51-21.22 2.9-.77v-.04l-2.9.82Zm-13.24 3.55-2.91.74v.04l2.9-.78Zm8.5-21.2 2.9-.78-2.9.77ZM77.6 48.06l2.9-.77-2.9.77Zm32.27-18.1 2.63 9.81 5.8-1.55-2.63-9.82-5.8 1.55Zm2.63 9.81c.21.78.2 1.6-.03 2.36l5.74 1.72c.55-1.83.58-3.78.09-5.63l-5.8 1.55Zm-.03 2.36a4.31 4.31 0 0 1-1.27 1.98l3.98 4.5a10.32 10.32 0 0 0 3.03-4.76l-5.74-1.72Zm-1.2 1.93-.36.3 3.86 4.6.35-.3-3.86-4.6Zm-.28.23a14.43 14.43 0 0 0-4.77 6.68l5.68 1.95a8.43 8.43 0 0 1 2.78-3.9L111 44.3Zm-4.77 6.68a14.42 14.42 0 0 0-.35 8.2l5.82-1.46a8.44 8.44 0 0 1 .2-4.79l-5.67-1.95Zm-.35 8.2a14.43 14.43 0 0 0 4.17 7.07l4.09-4.4a8.43 8.43 0 0 1-2.44-4.13l-5.82 1.46Zm4.17 7.07c2.05 1.9 4.6 3.17 7.35 3.64l1.03-5.9a8.43 8.43 0 0 1-4.3-2.14l-4.08 4.4Zm7.41 3.65.5.08.9-5.93-.5-.08-.9 5.93Zm.56.09c.8.1 1.54.44 2.14.96l3.95-4.5a10.03 10.03 0 0 0-5.31-2.41l-.78 5.95Zm2.14.96c.6.53 1.03 1.22 1.24 2l5.8-1.56a10.04 10.04 0 0 0-3.09-4.95l-3.95 4.51Zm1.24 2 2.68 10 5.8-1.56-2.69-10-5.8 1.56Zm2.68 10c.2.78.26 1.6.16 2.4l5.95.77c.2-1.58.1-3.19-.31-4.73l-5.8 1.56Zm.16 2.4c-.1.8-.37 1.56-.77 2.26l5.2 3c.79-1.38 1.3-2.9 1.52-4.49l-5.95-.78Zm-.77 2.26c-.4.7-.94 1.31-1.58 1.8l3.65 4.76a12.13 12.13 0 0 0 3.12-3.56l-5.2-3Zm-1.58 1.8c-.64.5-1.37.85-2.15 1.06l1.55 5.8a12.14 12.14 0 0 0 4.25-2.1l-3.65-4.76Zm-2.15 1.06L27 115.32l1.55 5.8 92.73-24.85-1.55-5.8ZM27 115.32c-1.58.42-3.25.2-4.66-.62l-3 5.2a12.14 12.14 0 0 0 9.2 1.21l-1.54-5.8Zm-4.66-.62a6.14 6.14 0 0 1-2.87-3.73l-5.8 1.56a12.14 12.14 0 0 0 5.66 7.37l3-5.2Zm-2.87-3.73-2.52-9.4-5.8 1.55 2.53 9.4 5.8-1.55Zm-2.52-9.4c-.23-.88-.22-1.8.03-2.67l-5.77-1.66a10.97 10.97 0 0 0-.05 5.88l5.8-1.56Zm.03-2.67c.25-.87.73-1.65 1.4-2.27l-4.09-4.4a10.97 10.97 0 0 0-3.08 5l5.77 1.67Zm1.3-2.19.38-.32-3.9-4.55-.38.32 3.9 4.55Zm.32-.27a14.43 14.43 0 0 0 4.61-6.75l-5.7-1.85a8.43 8.43 0 0 1-2.7 3.95l3.8 4.65Zm4.61-6.75c.86-2.65.93-5.5.2-8.18l-5.79 1.56a8.43 8.43 0 0 1-.12 4.77l5.71 1.85Zm.2-8.18c-.72-2.69-2.2-5.11-4.27-6.97l-4.02 4.45a8.43 8.43 0 0 1 2.5 4.08l5.8-1.56Zm-4.27-6.97A14.43 14.43 0 0 0 11.76 71l-.95 5.92c1.61.26 3.1.98 4.31 2.06l4.02-4.45ZM11.77 71a4.9 4.9 0 0 1-2.51-1.2l-4.02 4.45a10.9 10.9 0 0 0 5.57 2.67l.96-5.92Zm-2.51-1.2a4.9 4.9 0 0 1-1.45-2.38L2 69a10.9 10.9 0 0 0 3.23 5.27l4.02-4.45ZM7.8 67.43 5.27 58l-5.79 1.55 2.53 9.45 5.8-1.56ZM5.28 58c-.21-.78-.27-1.6-.16-2.4l-5.95-.78c-.2 1.58-.1 3.19.3 4.73l5.8-1.55Zm-.16-2.4c.1-.8.37-1.57.77-2.26l-5.2-3c-.8 1.37-1.31 2.9-1.52 4.48l5.95.78Zm.77-2.26c.4-.7.94-1.32 1.58-1.8l-3.65-4.77a12.14 12.14 0 0 0-3.13 3.56l5.2 3Zm1.58-1.8c.64-.5 1.37-.86 2.15-1.07l-1.55-5.8a12.14 12.14 0 0 0-4.25 2.1l3.65 4.76Zm2.15-1.07 92.73-24.84-1.56-5.8L8.07 44.67l1.55 5.8Zm92.73-24.84c.78-.21 1.59-.27 2.39-.16l.78-5.95c-1.58-.2-3.19-.1-4.73.31l1.56 5.8Zm2.39-.16c.8.1 1.57.37 2.27.77l3-5.2c-1.38-.8-2.9-1.31-4.49-1.52l-.78 5.95Zm2.27.77c.7.4 1.31.94 1.8 1.58l4.76-3.65a12.15 12.15 0 0 0-3.56-3.13l-3 5.2Zm1.8 1.58c.5.64.85 1.37 1.06 2.15l5.8-1.55a12.15 12.15 0 0 0-2.1-4.25l-4.76 3.65Zm-6.34-.14L10.54 52.31l1.55 5.8 91.94-24.64-1.56-5.8ZM10.54 52.31a5.38 5.38 0 0 0-3.8 6.59l5.8-1.56c.08.34-.12.67-.45.76l-1.55-5.8Zm-3.8 6.59 1.8 6.74 5.8-1.55-1.8-6.75-5.8 1.55Zm4.11 8.91c3.36.68 6.47 2.28 8.97 4.63l4.1-4.38a24.41 24.41 0 0 0-11.89-6.13l-1.18 5.88Zm8.97 4.63c2.5 2.34 4.3 5.34 5.18 8.66l5.8-1.56a24.41 24.41 0 0 0-6.87-11.48l-4.11 4.38ZM25 81.1c.89 3.31.84 6.8-.16 10.09l5.75 1.73a24.41 24.41 0 0 0 .2-13.38L25 81.1Zm-.16 10.09c-.99 3.28-2.88 6.22-5.45 8.49l3.97 4.5c3.4-3 5.91-6.9 7.23-11.26l-5.75-1.73Zm-6.36 11.52 1.8 6.75 5.8-1.55-1.8-6.75-5.8 1.55Zm1.8 6.75a5.38 5.38 0 0 0 6.6 3.8l-1.56-5.8c.34-.08.67.12.76.44l-5.8 1.56Zm6.6 3.8 91.92-24.63-1.55-5.8-91.93 24.64 1.55 5.8Zm91.93-24.63a5.38 5.38 0 0 0 3.8-6.6l-5.8 1.56a.62.62 0 0 1 .44-.76l1.56 5.8Zm3.8-6.59-1.8-6.75-5.8 1.55 1.8 6.75 5.8-1.55Zm-4.11-8.91a18.42 18.42 0 0 1-8.97-4.63l-4.11 4.37a24.42 24.42 0 0 0 11.9 6.14l1.18-5.88Zm-8.97-4.63a18.42 18.42 0 0 1-5.19-8.66l-5.8 1.55a24.41 24.41 0 0 0 6.88 11.48l4.1-4.37Zm-5.19-8.66a18.4 18.4 0 0 1 .16-10.1l-5.74-1.73a24.41 24.41 0 0 0-.21 13.38l5.8-1.55Zm.16-10.1c1-3.28 2.88-6.22 5.45-8.49l-3.96-4.5a24.4 24.4 0 0 0-7.23 11.26l5.74 1.74Zm6.37-11.51-1.81-6.75-5.8 1.55 1.81 6.75 5.8-1.55Zm-1.81-6.75a5.38 5.38 0 0 0-2.5-3.27l-3 5.2a.62.62 0 0 1-.3-.38l5.8-1.55Zm-2.5-3.27a5.37 5.37 0 0 0-4.09-.54l1.56 5.8a.63.63 0 0 1-.48-.06l3-5.2Zm-9.14 52.41c.13.5.16 1 .1 1.5l5.94.8a9.84 9.84 0 0 0-.25-3.85l-5.8 1.56Zm.1 1.5c-.07.5-.23 1-.49 1.43l5.2 3a9.84 9.84 0 0 0 1.23-3.64l-5.94-.78Zm-.49 1.43c-.25.44-.59.83-1 1.13l3.66 4.76a9.85 9.85 0 0 0 2.54-2.89l-5.2-3Zm-1 1.13c-.4.31-.85.54-1.34.67l1.55 5.8a9.86 9.86 0 0 0 3.45-1.7l-3.65-4.77Zm-1.34.67c-.49.13-1 .16-1.5.1l-.79 5.95c1.29.16 2.6.08 3.84-.26l-1.55-5.8Zm-1.5.1c-.5-.07-.99-.23-1.43-.49l-3 5.2a9.86 9.86 0 0 0 3.64 1.24l.79-5.95Zm-1.43-.49c-.44-.25-.82-.59-1.13-.99l-4.76 3.65a9.86 9.86 0 0 0 2.9 2.54l3-5.2Zm-1.13-.99c-.3-.4-.53-.86-.66-1.35l-5.8 1.55a9.86 9.86 0 0 0 1.7 3.45l4.76-3.65Zm-.66-1.35a3.86 3.86 0 0 1 .38-2.93l-5.2-3a9.86 9.86 0 0 0-.98 7.48l5.8-1.55Zm.38-2.93a3.86 3.86 0 0 1 2.34-1.8l-1.55-5.79a9.86 9.86 0 0 0-5.98 4.6l5.2 3Zm2.34-1.8a3.86 3.86 0 0 1 2.93.4l3-5.2a9.86 9.86 0 0 0-7.48-.99l1.55 5.8Zm2.93.4a3.86 3.86 0 0 1 1.8 2.33l5.8-1.55a9.86 9.86 0 0 0-4.6-5.98l-3 5.2ZM92.7 62.95c.26.99.12 2.04-.39 2.93l5.2 3a9.86 9.86 0 0 0 .98-7.48l-5.8 1.55Zm-.39 2.93a3.86 3.86 0 0 1-2.34 1.8l1.55 5.8a9.86 9.86 0 0 0 5.99-4.6l-5.2-3Zm-2.34 1.8c-.99.26-2.04.12-2.93-.39l-3 5.2a9.86 9.86 0 0 0 7.48.98l-1.55-5.8Zm-2.93-.39a3.86 3.86 0 0 1-1.8-2.34l-5.8 1.55a9.86 9.86 0 0 0 4.6 5.99l3-5.2ZM85.24 65c-.25-.99-.1-2.03.41-2.9l-5.17-3.04a9.86 9.86 0 0 0-1.05 7.41L85.24 65Zm.41-2.9a3.86 3.86 0 0 1 2.33-1.78l-1.55-5.8a9.86 9.86 0 0 0-5.95 4.54l5.17 3.04Zm2.33-1.78a3.86 3.86 0 0 1 2.9.37l2.97-5.21a9.86 9.86 0 0 0-7.42-.95l1.55 5.8Zm2.9.37c.9.5 1.54 1.34 1.82 2.31l5.77-1.63a9.86 9.86 0 0 0-4.62-5.9L90.9 60.7ZM87.96 45.3c.13.49.16 1 .1 1.5l5.95.78a9.86 9.86 0 0 0-.25-3.83l-5.8 1.55Zm.1 1.5c-.07.5-.23.99-.49 1.43l5.2 3A9.86 9.86 0 0 0 94 47.58l-5.95-.78Zm-.49 1.43c-.25.44-.59.82-.99 1.13l3.66 4.76a9.86 9.86 0 0 0 2.53-2.9l-5.2-3Zm-.99 1.13c-.4.3-.86.53-1.35.66l1.56 5.8a9.86 9.86 0 0 0 3.44-1.7l-3.65-4.76Zm-1.35.66c-.49.14-1 .17-1.5.1l-.78 5.95c1.28.17 2.59.09 3.84-.25l-1.56-5.8Zm-1.5.1c-.5-.06-.99-.23-1.42-.48l-3 5.2a9.86 9.86 0 0 0 3.64 1.23l.78-5.95Zm-1.42-.48c-.44-.25-.83-.6-1.14-1L76.4 52.3a9.86 9.86 0 0 0 2.9 2.54l3-5.2Zm-1.14-1c-.3-.4-.53-.85-.66-1.34l-5.8 1.55a9.86 9.86 0 0 0 1.7 3.45l4.76-3.65Zm-.66-1.34a3.86 3.86 0 0 1 .38-2.93l-5.2-3a9.86 9.86 0 0 0-.98 7.48l5.8-1.55Zm.38-2.93a3.86 3.86 0 0 1 2.35-1.8l-1.56-5.8a9.86 9.86 0 0 0-5.98 4.6l5.2 3Zm2.35-1.8a3.86 3.86 0 0 1 2.92.39l3-5.2a9.86 9.86 0 0 0-7.48-.98l1.56 5.8Zm2.92.39a3.86 3.86 0 0 1 1.8 2.34l5.8-1.55a9.86 9.86 0 0 0-4.6-5.99l-3 5.2Z" mask="url(#a)"/></svg>