<svg width="128" height="128" viewBox="0 0 128 128" fill="none" xmlns="http://www.w3.org/2000/svg">
<mask id="path-1-inside-1_282_2" fill="white">
<path fill-rule="evenodd" clip-rule="evenodd" d="M112.768 29.1839L115.401 39.0079C115.752 40.319 115.731 41.7018 115.341 43.0016C114.95 44.3014 114.206 45.4669 113.191 46.3679L112.837 46.665C111.092 48.026 109.78 49.864 109.059 51.9561C108.339 54.0482 108.241 56.3044 108.778 58.4509C109.315 60.5975 110.463 62.5421 112.083 64.0489C113.704 65.5556 115.727 66.5597 117.906 66.9393L118.4 67.0148C119.781 67.1945 121.078 67.7804 122.126 68.698C123.174 69.6156 123.925 70.8237 124.286 72.169L126.967 82.1713C127.278 83.3312 127.358 84.5409 127.201 85.7315C127.045 86.9221 126.655 88.0702 126.055 89.1103C125.455 90.1503 124.655 91.062 123.703 91.7931C122.75 92.5242 121.663 93.0605 120.503 93.3713L27.7715 118.217C25.4294 118.844 22.9343 118.515 20.8348 117.302C18.7353 116.09 17.2034 114.093 16.5761 111.751L14.0549 102.34C13.6792 100.94 13.6929 99.4636 14.0945 98.0703C14.4961 96.677 15.2703 95.4198 16.3338 94.4342L16.7064 94.1142C18.4145 92.7206 19.6833 90.8628 20.3598 88.7646C21.0362 86.6664 21.0916 84.4174 20.519 82.2885C19.9465 80.1596 18.7706 78.2417 17.133 76.7658C15.4954 75.2899 13.466 74.319 11.2892 73.9702C9.78374 73.7273 8.38058 73.0544 7.24873 72.0325C6.11688 71.0105 5.30463 69.6831 4.9098 68.2102L2.37722 58.7633C2.06653 57.6033 1.98739 56.3935 2.14434 55.2029C2.30128 54.0124 2.69124 52.8644 3.29192 51.8245C3.89261 50.7847 4.69226 49.8733 5.64521 49.1426C6.59815 48.4118 7.68572 47.876 8.8458 47.5656L101.57 22.7199C102.73 22.4088 103.94 22.3292 105.131 22.4857C106.321 22.6422 107.469 23.0317 108.509 23.6319C109.549 24.2322 110.461 25.0314 111.192 25.9841C111.923 26.9367 112.46 28.024 112.77 29.1839M103.25 30.5713L11.3167 55.2045C10.0481 55.545 9.2938 56.8502 9.63437 58.1188L11.4424 64.8685C15.3524 65.6557 18.9648 67.5193 21.8725 70.2494C24.7802 72.9794 26.8676 76.4672 27.8995 80.3199C28.9326 84.1725 28.8691 88.237 27.7161 92.0555C26.5631 95.8739 24.3665 99.2943 21.3738 101.931L23.1818 108.681C23.5247 109.95 24.8275 110.704 26.0961 110.363L118.028 85.7302C119.296 85.3896 120.05 84.0845 119.71 82.8159L117.904 76.0685C113.994 75.2808 110.381 73.4167 107.474 70.6863C104.566 67.9559 102.479 64.4677 101.447 60.6148C100.414 56.7624 100.477 52.698 101.629 48.8796C102.782 45.0612 104.978 41.6406 107.97 39.0033L106.162 32.2536C105.999 31.6441 105.6 31.1244 105.054 30.8089C104.507 30.4934 103.86 30.408 103.25 30.5713ZM100.316 79.849C100.548 80.7189 100.608 81.6262 100.49 82.519C100.372 83.4118 100.08 84.2726 99.6296 85.0524C99.1792 85.8322 98.5796 86.5157 97.8651 87.0638C97.1506 87.6118 96.3351 88.0138 95.4652 88.2468C94.5954 88.4797 93.6881 88.539 92.7953 88.4213C91.9025 88.3036 91.0417 88.0112 90.2619 87.5608C89.4821 87.1104 88.7986 86.5109 88.2505 85.7964C87.7024 85.0818 87.3004 84.2663 87.0675 83.3965C86.5971 81.6397 86.8438 79.768 87.7534 78.1931C88.663 76.6182 90.161 75.4692 91.9178 74.9988C93.6746 74.5283 95.5463 74.7751 97.1212 75.6847C98.6961 76.5943 99.8451 78.0922 100.316 79.849ZM95.5841 62.185C96.0548 63.9418 95.8084 65.8137 94.899 67.3888C93.9896 68.9639 92.4917 70.1132 90.7349 70.5839C88.9782 71.0546 87.1063 70.8082 85.5312 69.8988C83.9561 68.9894 82.8068 67.4916 82.3361 65.7348C81.8922 63.9872 82.1545 62.1351 83.0661 60.5794C83.9778 59.0238 85.4655 57.8899 87.2072 57.4232C88.9488 56.9564 90.8042 57.1944 92.3716 58.0857C93.939 58.9769 95.0946 60.4497 95.5841 62.185ZM90.8481 44.5233C91.0812 45.3932 91.1406 46.3005 91.0231 47.1933C90.9055 48.0862 90.6133 48.9471 90.163 49.727C89.7127 50.507 89.1132 51.1905 88.3987 51.7388C87.6843 52.287 86.8688 52.6891 85.9989 52.9222C85.1291 53.1553 84.2218 53.2147 83.3289 53.0972C82.4361 52.9796 81.5751 52.6874 80.7952 52.2371C80.0153 51.7868 79.3317 51.1873 78.7835 50.4728C78.2353 49.7584 77.8332 48.9429 77.6001 48.073C77.1294 46.3162 77.3758 44.4444 78.2852 42.8693C79.1946 41.2942 80.6924 40.1449 82.4492 39.6742C84.206 39.2035 86.0779 39.4499 87.6529 40.3593C89.228 41.2687 90.3774 42.7665 90.8481 44.5233Z"/>
</mask>
<path fill-rule="evenodd" clip-rule="evenodd" d="M112.768 29.1839L115.401 39.0079C115.752 40.319 115.731 41.7018 115.341 43.0016C114.95 44.3014 114.206 45.4669 113.191 46.3679L112.837 46.665C111.092 48.026 109.78 49.864 109.059 51.9561C108.339 54.0482 108.241 56.3044 108.778 58.4509C109.315 60.5975 110.463 62.5421 112.083 64.0489C113.704 65.5556 115.727 66.5597 117.906 66.9393L118.4 67.0148C119.781 67.1945 121.078 67.7804 122.126 68.698C123.174 69.6156 123.925 70.8237 124.286 72.169L126.967 82.1713C127.278 83.3312 127.358 84.5409 127.201 85.7315C127.045 86.9221 126.655 88.0702 126.055 89.1103C125.455 90.1503 124.655 91.062 123.703 91.7931C122.75 92.5242 121.663 93.0605 120.503 93.3713L27.7715 118.217C25.4294 118.844 22.9343 118.515 20.8348 117.302C18.7353 116.09 17.2034 114.093 16.5761 111.751L14.0549 102.34C13.6792 100.94 13.6929 99.4636 14.0945 98.0703C14.4961 96.677 15.2703 95.4198 16.3338 94.4342L16.7064 94.1142C18.4145 92.7206 19.6833 90.8628 20.3598 88.7646C21.0362 86.6664 21.0916 84.4174 20.519 82.2885C19.9465 80.1596 18.7706 78.2417 17.133 76.7658C15.4954 75.2899 13.466 74.319 11.2892 73.9702C9.78374 73.7273 8.38058 73.0544 7.24873 72.0325C6.11688 71.0105 5.30463 69.6831 4.9098 68.2102L2.37722 58.7633C2.06653 57.6033 1.98739 56.3935 2.14434 55.2029C2.30128 54.0124 2.69124 52.8644 3.29192 51.8245C3.89261 50.7847 4.69226 49.8733 5.64521 49.1426C6.59815 48.4118 7.68572 47.876 8.8458 47.5656L101.57 22.7199C102.73 22.4088 103.94 22.3292 105.131 22.4857C106.321 22.6422 107.469 23.0317 108.509 23.6319C109.549 24.2322 110.461 25.0314 111.192 25.9841C111.923 26.9367 112.46 28.024 112.77 29.1839M103.25 30.5713L11.3167 55.2045C10.0481 55.545 9.2938 56.8502 9.63437 58.1188L11.4424 64.8685C15.3524 65.6557 18.9648 67.5193 21.8725 70.2494C24.7802 72.9794 26.8676 76.4672 27.8995 80.3199C28.9326 84.1725 28.8691 88.237 27.7161 92.0555C26.5631 95.8739 24.3665 99.2943 21.3738 101.931L23.1818 108.681C23.5247 109.95 24.8275 110.704 26.0961 110.363L118.028 85.7302C119.296 85.3896 120.05 84.0845 119.71 82.8159L117.904 76.0685C113.994 75.2808 110.381 73.4167 107.474 70.6863C104.566 67.9559 102.479 64.4677 101.447 60.6148C100.414 56.7624 100.477 52.698 101.629 48.8796C102.782 45.0612 104.978 41.6406 107.97 39.0033L106.162 32.2536C105.999 31.6441 105.6 31.1244 105.054 30.8089C104.507 30.4934 103.86 30.408 103.25 30.5713ZM100.316 79.849C100.548 80.7189 100.608 81.6262 100.49 82.519C100.372 83.4118 100.08 84.2726 99.6296 85.0524C99.1792 85.8322 98.5796 86.5157 97.8651 87.0638C97.1506 87.6118 96.3351 88.0138 95.4652 88.2468C94.5954 88.4797 93.6881 88.539 92.7953 88.4213C91.9025 88.3036 91.0417 88.0112 90.2619 87.5608C89.4821 87.1104 88.7986 86.5109 88.2505 85.7964C87.7024 85.0818 87.3004 84.2663 87.0675 83.3965C86.5971 81.6397 86.8438 79.768 87.7534 78.1931C88.663 76.6182 90.161 75.4692 91.9178 74.9988C93.6746 74.5283 95.5463 74.7751 97.1212 75.6847C98.6961 76.5943 99.8451 78.0922 100.316 79.849ZM95.5841 62.185C96.0548 63.9418 95.8084 65.8137 94.899 67.3888C93.9896 68.9639 92.4917 70.1132 90.7349 70.5839C88.9782 71.0546 87.1063 70.8082 85.5312 69.8988C83.9561 68.9894 82.8068 67.4916 82.3361 65.7348C81.8922 63.9872 82.1545 62.1351 83.0661 60.5794C83.9778 59.0238 85.4655 57.8899 87.2072 57.4232C88.9488 56.9564 90.8042 57.1944 92.3716 58.0857C93.939 58.9769 95.0946 60.4497 95.5841 62.185ZM90.8481 44.5233C91.0812 45.3932 91.1406 46.3005 91.0231 47.1933C90.9055 48.0862 90.6133 48.9471 90.163 49.727C89.7127 50.507 89.1132 51.1905 88.3987 51.7388C87.6843 52.287 86.8688 52.6891 85.9989 52.9222C85.1291 53.1553 84.2218 53.2147 83.3289 53.0972C82.4361 52.9796 81.5751 52.6874 80.7952 52.2371C80.0153 51.7868 79.3317 51.1873 78.7835 50.4728C78.2353 49.7584 77.8332 48.9429 77.6001 48.073C77.1294 46.3162 77.3758 44.4444 78.2852 42.8693C79.1946 41.2942 80.6924 40.1449 82.4492 39.6742C84.206 39.2035 86.0779 39.4499 87.6529 40.3593C89.228 41.2687 90.3774 42.7665 90.8481 44.5233Z" fill="white"/>
<path d="M115.401 39.0079L118.299 38.2327L118.299 38.2312L115.401 39.0079ZM113.191 46.3679L115.119 48.6665L115.151 48.6394L115.183 48.6115L113.191 46.3679ZM112.837 46.665L114.682 49.0305L114.724 48.9978L114.765 48.9636L112.837 46.665ZM117.906 66.9393L117.392 69.8948L117.422 69.9002L117.453 69.9049L117.906 66.9393ZM118.4 67.0148L117.947 69.9803L117.98 69.9854L118.013 69.9897L118.4 67.0148ZM124.286 72.169L121.388 72.9454L121.388 72.9458L124.286 72.169ZM126.967 82.1713L124.069 82.9481L124.069 82.9486L126.967 82.1713ZM120.503 93.3713L121.279 96.2691L121.28 96.2691L120.503 93.3713ZM27.7715 118.217L28.5472 121.115L28.5479 121.115L27.7715 118.217ZM16.5761 111.751L19.4739 110.975L19.4739 110.974L16.5761 111.751ZM14.0549 102.34L16.9527 101.564L16.9525 101.563L14.0549 102.34ZM16.3338 94.4342L14.3791 92.1584L14.3361 92.1953L14.2945 92.2339L16.3338 94.4342ZM16.7064 94.1142L14.8099 91.7896L14.7805 91.8136L14.7517 91.8384L16.7064 94.1142ZM11.2892 73.9702L10.8115 76.9319L10.8145 76.9324L11.2892 73.9702ZM4.9098 68.2102L7.8075 67.4334L7.80747 67.4334L4.9098 68.2102ZM2.37722 58.7633L-0.520628 59.5395L-0.520453 59.5402L2.37722 58.7633ZM8.8458 47.5656L9.62115 50.4637L9.62226 50.4634L8.8458 47.5656ZM101.57 22.7199L102.347 25.6177L102.348 25.6175L101.57 22.7199ZM103.25 30.5713L104.027 33.4691L104.027 33.4691L103.25 30.5713ZM11.3167 55.2045L10.5402 52.3067L10.5388 52.3071L11.3167 55.2045ZM9.63437 58.1188L12.5322 57.3425L12.5318 57.3409L9.63437 58.1188ZM11.4424 64.8685L8.54453 65.6447L9.026 67.4422L10.8502 67.8095L11.4424 64.8685ZM27.8995 80.3199L25.0017 81.0961L25.0019 81.0969L27.8995 80.3199ZM21.3738 101.931L19.3905 99.6805L17.9946 100.91L18.476 102.708L21.3738 101.931ZM23.1818 108.681L20.284 109.457L20.2857 109.464L23.1818 108.681ZM26.0961 110.363L25.3196 107.466L25.3182 107.466L26.0961 110.363ZM118.028 85.7302L118.804 88.628L118.805 88.6276L118.028 85.7302ZM119.71 82.8159L116.812 83.5915L116.812 83.5938L119.71 82.8159ZM117.904 76.0685L120.802 75.2929L120.321 73.4951L118.497 73.1275L117.904 76.0685ZM101.447 60.6148L104.345 59.8387L104.345 59.8375L101.447 60.6148ZM107.97 39.0033L109.954 41.254L111.35 40.024L110.868 38.2271L107.97 39.0033ZM106.162 32.2536L109.06 31.4774L109.06 31.4769L106.162 32.2536ZM100.316 79.849L97.4176 80.625L100.316 79.849ZM87.0675 83.3965L84.1696 84.1724L87.0675 83.3965ZM95.5841 62.185L98.4819 61.4086L98.4768 61.3896L98.4714 61.3706L95.5841 62.185ZM82.3361 65.7348L79.4284 66.4733L79.4332 66.4923L79.4383 66.5112L82.3361 65.7348ZM90.8481 44.5233L93.7459 43.7469L90.8481 44.5233ZM77.6001 48.073L80.4979 47.2966L77.6001 48.073ZM109.87 29.9606L112.504 39.7846L118.299 38.2312L115.666 28.4072L109.87 29.9606ZM112.503 39.7831C112.71 40.5564 112.698 41.372 112.467 42.1387L118.214 43.8644C118.764 42.0315 118.794 40.0816 118.299 38.2327L112.503 39.7831ZM112.467 42.1387C112.237 42.9054 111.798 43.5929 111.199 44.1243L115.183 48.6115C116.614 47.341 117.663 45.6974 118.214 43.8644L112.467 42.1387ZM111.263 44.0693L110.909 44.3665L114.765 48.9636L115.119 48.6665L111.263 44.0693ZM110.991 44.2996C108.789 46.0177 107.132 48.3382 106.223 50.9793L111.896 52.9329C112.427 51.3899 113.395 50.0342 114.682 49.0305L110.991 44.2996ZM106.223 50.9793C105.313 53.6204 105.19 56.4688 105.868 59.1787L111.688 57.7232C111.293 56.14 111.365 54.4759 111.896 52.9329L106.223 50.9793ZM105.868 59.1787C106.545 61.8886 107.995 64.3436 110.04 66.2458L114.126 61.8519C112.931 60.7406 112.084 59.3064 111.688 57.7232L105.868 59.1787ZM110.04 66.2458C112.086 68.148 114.64 69.4156 117.392 69.8948L118.421 63.9838C116.813 63.7038 115.321 62.9633 114.126 61.8519L110.04 66.2458ZM117.453 69.9049L117.947 69.9803L118.853 64.0492L118.359 63.9737L117.453 69.9049ZM118.013 69.9897C118.805 70.0928 119.548 70.4287 120.149 70.9549L124.102 66.4411C122.607 65.1321 120.758 64.2963 118.787 64.0399L118.013 69.9897ZM120.149 70.9549C120.75 71.4811 121.181 72.1739 121.388 72.9454L127.184 71.3927C126.669 69.4735 125.597 67.7501 124.102 66.4411L120.149 70.9549ZM121.388 72.9458L124.069 82.9481L129.865 81.3946L127.184 71.3923L121.388 72.9458ZM124.069 82.9486C124.278 83.7278 124.332 84.5406 124.227 85.3406L130.176 86.1225C130.383 84.5412 130.278 82.9345 129.865 81.3941L124.069 82.9486ZM124.227 85.3406C124.122 86.1405 123.86 86.9119 123.457 87.6107L128.653 90.6099C129.45 89.2286 129.968 87.7037 130.176 86.1225L124.227 85.3406ZM123.457 87.6107C123.053 88.3095 122.516 88.922 121.876 89.4132L125.529 94.173C126.795 93.202 127.856 91.9912 128.653 90.6099L123.457 87.6107ZM121.876 89.4132C121.236 89.9044 120.506 90.2647 119.726 90.4736L121.28 96.2691C122.82 95.8562 124.264 95.144 125.529 94.173L121.876 89.4132ZM119.727 90.4735L26.9951 115.319L28.5479 121.115L121.279 96.2691L119.727 90.4735ZM26.9959 115.319C25.4223 115.74 23.7458 115.519 22.3352 114.704L19.3343 119.9C22.1227 121.511 25.4366 121.948 28.5472 121.115L26.9959 115.319ZM22.3352 114.704C20.9246 113.89 19.8954 112.548 19.4739 110.975L13.6782 112.527C14.5114 115.637 16.5459 118.29 19.3343 119.9L22.3352 114.704ZM19.4739 110.974L16.9527 101.564L11.1571 103.117L13.6783 112.527L19.4739 110.974ZM16.9525 101.563C16.7183 100.69 16.7268 99.7697 16.9771 98.9012L11.2119 97.2394C10.659 99.1574 10.6402 101.19 11.1574 103.118L16.9525 101.563ZM16.9771 98.9012C17.2275 98.0326 17.7101 97.2489 18.3731 96.6345L14.2945 92.2339C12.8305 93.5907 11.7647 95.3215 11.2119 97.2394L16.9771 98.9012ZM18.2885 96.71L18.661 96.39L14.7517 91.8384L14.3791 92.1584L18.2885 96.71ZM18.6028 96.4387C20.7593 94.6794 22.361 92.334 23.215 89.6852L17.5045 87.844C17.0056 89.3916 16.0698 90.7618 14.8099 91.7896L18.6028 96.4387ZM23.215 89.6852C24.069 87.0363 24.1389 84.197 23.4161 81.5094L17.622 83.0676C18.0442 84.6377 18.0034 86.2965 17.5045 87.844L23.215 89.6852ZM23.4161 81.5094C22.6934 78.8218 21.2089 76.4005 19.1415 74.5373L15.1246 78.9943C16.3324 80.0828 17.1997 81.4974 17.622 83.0676L23.4161 81.5094ZM19.1415 74.5373C17.0741 72.674 14.512 71.4484 11.764 71.008L10.8145 76.9324C12.42 77.1897 13.9168 77.9057 15.1246 78.9943L19.1415 74.5373ZM11.767 71.0085C10.8326 70.8577 9.96168 70.4401 9.25919 69.8058L5.23827 74.2591C6.79947 75.6687 8.73491 76.5969 10.8115 76.9319L11.767 71.0085ZM9.25919 69.8058C8.55669 69.1715 8.05255 68.3476 7.8075 67.4334L2.0121 68.9869C2.5567 71.0186 3.67707 72.8495 5.23827 74.2591L9.25919 69.8058ZM7.80747 67.4334L5.2749 57.9865L-0.520453 59.5402L2.01212 68.987L7.80747 67.4334ZM5.27508 57.9872C5.06633 57.2078 5.01316 56.3949 5.11861 55.595L-0.829932 54.8109C-1.03838 56.3921 -0.933273 57.9989 -0.520628 59.5395L5.27508 57.9872ZM5.11861 55.595C5.22405 54.7951 5.48605 54.0238 5.88964 53.3251L0.694204 50.3239C-0.103583 51.7049 -0.621488 53.2296 -0.829932 54.8109L5.11861 55.595ZM5.88964 53.3251C6.29322 52.6265 6.83049 52.0142 7.47075 51.5232L3.81966 46.762C2.55403 47.7325 1.49199 48.9428 0.694204 50.3239L5.88964 53.3251ZM7.47075 51.5232C8.11102 51.0322 8.84173 50.6722 9.62115 50.4637L8.07044 44.6675C6.52971 45.0797 5.08529 45.7914 3.81966 46.762L7.47075 51.5232ZM9.62226 50.4634L102.347 25.6177L100.794 19.8221L8.06933 44.6678L9.62226 50.4634ZM102.348 25.6175C103.127 25.4084 103.94 25.355 104.74 25.4601L105.522 19.5113C103.94 19.3034 102.334 19.4091 100.793 19.8223L102.348 25.6175ZM104.74 25.4601C105.54 25.5652 106.311 25.8269 107.01 26.2302L110.009 21.0336C108.628 20.2364 107.103 19.7191 105.522 19.5113L104.74 25.4601ZM107.01 26.2302C107.709 26.6335 108.321 27.1705 108.812 27.8106L113.572 24.1575C112.601 22.8923 111.39 21.8308 110.009 21.0336L107.01 26.2302ZM108.812 27.8106C109.303 28.4506 109.664 29.1811 109.873 29.9605L115.668 28.4073C115.255 26.8668 114.543 25.4227 113.572 24.1575L108.812 27.8106ZM102.474 27.6735L10.5402 52.3067L12.0931 58.1023L104.027 33.4691L102.474 27.6735ZM10.5388 52.3071C7.67315 53.0764 5.96596 56.0247 6.73697 58.8966L12.5318 57.3409C12.6216 57.6756 12.423 58.0137 12.0945 58.1019L10.5388 52.3071ZM6.73653 58.895L8.54453 65.6447L14.3402 64.0922L12.5322 57.3425L6.73653 58.895ZM10.8502 67.8095C14.2124 68.4864 17.3187 70.0889 19.819 72.4365L23.9259 68.0623C20.6108 64.9498 16.4923 62.825 12.0345 61.9275L10.8502 67.8095ZM19.819 72.4365C22.3194 74.784 24.1143 77.7832 25.0017 81.0961L30.7974 79.5437C29.6209 75.1513 27.241 71.1748 23.9259 68.0623L19.819 72.4365ZM25.0019 81.0969C25.8902 84.4097 25.8356 87.9048 24.8441 91.1883L30.588 92.9227C31.9025 88.5693 31.975 83.9352 30.7971 79.5429L25.0019 81.0969ZM24.8441 91.1883C23.8527 94.4717 21.9638 97.4129 19.3905 99.6805L23.3571 104.182C26.7691 101.176 29.2735 97.276 30.588 92.9227L24.8441 91.1883ZM18.476 102.708L20.284 109.457L26.0796 107.905L24.2716 101.155L18.476 102.708ZM20.2857 109.464C21.0579 112.321 23.9981 114.033 26.8739 113.261L25.3182 107.466C25.6569 107.375 25.9914 107.578 26.0779 107.898L20.2857 109.464ZM26.8725 113.261L118.804 88.628L117.251 82.8324L25.3196 107.466L26.8725 113.261ZM118.805 88.6276C121.671 87.8583 123.378 84.9099 122.607 82.038L116.812 83.5938C116.723 83.259 116.921 82.921 117.25 82.8328L118.805 88.6276ZM122.608 82.0403L120.802 75.2929L115.006 76.844L116.812 83.5915L122.608 82.0403ZM118.497 73.1275C115.134 72.4502 112.028 70.8473 109.527 68.4994L105.42 72.8733C108.735 75.9862 112.854 78.1114 117.312 79.0094L118.497 73.1275ZM109.527 68.4994C107.027 66.1515 105.232 63.1519 104.345 59.8387L98.5491 61.3908C99.7254 65.7835 102.105 69.7604 105.42 72.8733L109.527 68.4994ZM104.345 59.8375C103.456 56.5249 103.51 53.0299 104.501 49.7465L98.7574 48.0126C97.4433 52.366 97.3713 56.9999 98.5494 61.392L104.345 59.8375ZM104.501 49.7465C105.492 46.463 107.381 43.5217 109.954 41.254L105.987 36.7527C102.575 39.7594 100.071 43.6593 98.7574 48.0126L104.501 49.7465ZM110.868 38.2271L109.06 31.4774L103.265 33.0298L105.073 39.7796L110.868 38.2271ZM109.06 31.4769C108.691 30.0989 107.789 28.924 106.553 28.2107L103.554 33.4071C103.411 33.3248 103.307 33.1893 103.265 33.0303L109.06 31.4769ZM106.553 28.2107C105.319 27.498 103.853 27.304 102.474 27.6736L104.027 33.4691C103.867 33.5119 103.695 33.4889 103.554 33.4071L106.553 28.2107ZM97.4176 80.625C97.5486 81.1143 97.582 81.6247 97.5158 82.1269L103.464 82.911C103.634 81.6276 103.548 80.3235 103.213 79.0731L97.4176 80.625ZM97.5158 82.1269C97.4496 82.6291 97.2851 83.1133 97.0318 83.552L102.227 86.5529C102.875 85.4319 103.295 84.1944 103.464 82.911L97.5158 82.1269ZM97.0318 83.552C96.7784 83.9906 96.4412 84.3751 96.0392 84.6834L99.691 89.4441C100.718 88.6563 101.58 87.6738 102.227 86.5529L97.0318 83.552ZM96.0392 84.6834C95.6373 84.9917 95.1786 85.2178 94.6893 85.3489L96.2412 91.1447C97.4917 90.8098 98.6639 90.232 99.691 89.4441L96.0392 84.6834ZM94.6893 85.3489C94.1999 85.4799 93.6896 85.5132 93.1874 85.447L92.4033 91.3956C93.6866 91.5647 94.9908 91.4795 96.2412 91.1447L94.6893 85.3489ZM93.1874 85.447C92.6852 85.3808 92.2009 85.2164 91.7623 84.963L88.7614 90.1587C89.8824 90.8061 91.1199 91.2264 92.4033 91.3956L93.1874 85.447ZM91.7623 84.963C91.3236 84.7097 90.9392 84.3724 90.6309 83.9705L85.8701 87.6222C86.658 88.6494 87.6405 89.5112 88.7614 90.1587L91.7623 84.963ZM90.6309 83.9705C90.3226 83.5685 90.0964 83.1098 89.9654 82.6205L84.1696 84.1724C84.5044 85.4229 85.0823 86.5951 85.8701 87.6222L90.6309 83.9705ZM89.9654 82.6205C89.7008 81.6323 89.8396 80.5794 90.3513 79.6935L85.1556 76.6927C83.8481 78.9565 83.4934 81.6471 84.1696 84.1724L89.9654 82.6205ZM90.3513 79.6935C90.8629 78.8076 91.7056 78.1613 92.6938 77.8967L91.1418 72.1009C88.6165 72.7771 86.4632 74.4288 85.1556 76.6927L90.3513 79.6935ZM92.6938 77.8967C93.682 77.6321 94.7349 77.7708 95.6208 78.2825L98.6216 73.0869C96.3578 71.7793 93.6672 71.4246 91.1418 72.1009L92.6938 77.8967ZM95.6208 78.2825C96.5067 78.7942 97.153 79.6368 97.4176 80.625L103.213 79.0731C102.537 76.5477 100.885 74.3944 98.6216 73.0869L95.6208 78.2825ZM92.6863 62.9615C92.9511 63.9497 92.8125 65.0027 92.3009 65.8887L97.497 68.8888C98.8043 66.6246 99.1585 63.9339 98.4819 61.4086L92.6863 62.9615ZM92.3009 65.8887C91.7893 66.7748 90.9468 67.4213 89.9585 67.6861L91.5114 73.4817C94.0367 72.805 96.1898 71.1529 97.497 68.8888L92.3009 65.8887ZM89.9585 67.6861C88.9703 67.9509 87.9173 67.8123 87.0312 67.3007L84.0312 72.4969C86.2954 73.8041 88.9861 74.1583 91.5114 73.4817L89.9585 67.6861ZM87.0312 67.3007C86.1452 66.7892 85.4987 65.9466 85.2339 64.9583L79.4383 66.5112C80.115 69.0365 81.7671 71.1896 84.0312 72.4969L87.0312 67.3007ZM85.2438 64.9962C84.9941 64.0132 85.1416 62.9713 85.6544 62.0963L80.4779 59.0626C79.1673 61.2988 78.7903 63.9612 79.4284 66.4733L85.2438 64.9962ZM85.6544 62.0963C86.1672 61.2213 87.0041 60.5834 87.9837 60.3209L86.4306 54.5254C83.927 55.1963 81.7884 56.8264 80.4779 59.0626L85.6544 62.0963ZM87.9837 60.3209C88.9634 60.0584 90.0071 60.1923 90.8887 60.6936L93.8545 55.4778C91.6013 54.1966 88.9342 53.8545 86.4306 54.5254L87.9837 60.3209ZM90.8887 60.6936C91.7723 61.196 92.422 62.0254 92.6968 62.9995L98.4714 61.3706C97.7672 58.8739 96.1057 56.7579 93.8545 55.4778L90.8887 60.6936ZM87.9503 45.2998C88.0814 45.7891 88.1149 46.2995 88.0487 46.8017L93.9974 47.5849C94.1664 46.3015 94.0809 44.9973 93.7459 43.7469L87.9503 45.2998ZM88.0487 46.8017C87.9826 47.304 87.8182 47.7883 87.5649 48.227L92.761 51.2271C93.4083 50.106 93.8284 48.8684 93.9974 47.5849L88.0487 46.8017ZM87.5649 48.227C87.3116 48.6658 86.9744 49.0503 86.5725 49.3587L90.225 54.1188C91.252 53.3308 92.1138 52.3482 92.761 51.2271L87.5649 48.227ZM86.5725 49.3587C86.1706 49.6671 85.7118 49.8933 85.2225 50.0244L86.7754 55.82C88.0258 55.4849 89.198 54.9069 90.225 54.1188L86.5725 49.3587ZM85.2225 50.0244C84.7332 50.1555 84.2228 50.189 83.7205 50.1228L82.9374 56.0715C84.2208 56.2405 85.525 56.155 86.7754 55.82L85.2225 50.0244ZM83.7205 50.1228C83.2183 50.0567 82.734 49.8923 82.2952 49.639L79.2952 54.8351C80.4163 55.4824 81.6539 55.9025 82.9374 56.0715L83.7205 50.1228ZM82.2952 49.639C81.8565 49.3857 81.472 49.0485 81.1636 48.6466L76.4034 52.2991C77.1915 53.3261 78.1741 54.1879 79.2952 54.8351L82.2952 49.639ZM81.1636 48.6466C80.8552 48.2447 80.629 47.7859 80.4979 47.2966L74.7023 48.8495C75.0373 50.0999 75.6154 51.2721 76.4034 52.2991L81.1636 48.6466ZM80.4979 47.2966C80.2331 46.3083 80.3717 45.2554 80.8833 44.3693L75.6871 41.3693C74.3799 43.6335 74.0257 46.3241 74.7023 48.8495L80.4979 47.2966ZM80.8833 44.3693C81.3948 43.4833 82.2374 42.8368 83.2257 42.572L81.6728 36.7764C79.1474 37.4531 76.9943 39.1052 75.6871 41.3693L80.8833 44.3693ZM83.2257 42.572C84.2139 42.3072 85.2669 42.4458 86.1529 42.9574L89.153 37.7612C86.8888 36.454 84.1981 36.0998 81.6728 36.7764L83.2257 42.572ZM86.1529 42.9574C87.039 43.4689 87.6855 44.3115 87.9503 45.2998L93.7459 43.7469C93.0692 41.2216 91.4171 39.0685 89.153 37.7612L86.1529 42.9574Z" fill="black" mask="url(#path-1-inside-1_282_2)"/>
</svg>
