<svg width="14" height="14" viewBox="0 0 14 14" fill="none" xmlns="http://www.w3.org/2000/svg">
<g clip-path="url(#clip0_175_2)">
<path d="M2.23421 4.03287C2.3788 3.85699 2.29283 3.42409 2.29283 3.42409C2.29283 3.42409 2.0089 3.64831 1.88027 4.11949C1.88027 4.11928 2.09005 4.20809 2.23421 4.03287ZM0.949271 5.6199C0.934396 5.73496 1.0313 6.24684 1.13433 5.91499C1.23671 5.58271 0.949271 5.6199 0.949271 5.6199Z" fill="#F0F3FF"/>
<mask id="path-2-inside-1_175_2" fill="white">
<path d="M12.9463 10.5162C12.7785 10.4108 12.5504 10.2312 12.3224 9.94919C12.3386 9.57928 12.1743 9.33975 12.1503 9.30759L12.08 9.21353L11.965 9.1875C11.9291 9.17919 11.8919 9.17481 11.855 9.16913C11.7492 8.92655 11.6653 8.675 11.6043 8.4175L11.555 8.21209C11.6514 7.81408 11.6434 7.39792 11.5316 7.00394C11.9643 6.98753 12.3699 7.09888 12.149 7.64597C11.683 8.79988 13.5625 9.76566 13.5625 9.76566C13.5625 9.76566 12.5289 8.14931 13.3118 6.94706C13.7797 6.22847 12.2741 5.80803 11.2527 6.39975C11.0018 6.02897 10.6455 5.79381 10.2369 5.73453C10.4843 5.36156 10.4762 4.95688 10.2314 4.43756L10.2544 4.41591L10.1916 4.34963L10.1518 4.27088L10.1253 4.28269C9.86761 4.03069 8.72355 2.99709 7.34345 3.066L7.2413 2.81619C7.37124 2.65694 7.45108 2.43622 7.4548 2.16497C7.59567 2.17153 7.68711 2.14594 7.69039 2.06019C7.72583 1.20006 7.02845 0.474469 6.13289 0.438376C5.23733 0.402719 4.48242 1.07056 4.44655 1.93047C4.44655 1.93441 4.44874 1.93681 4.44917 1.94053L4.44786 1.94097C4.33739 2.02016 4.0353 2.28113 4.03705 2.41938C3.67969 2.28433 3.30125 2.2136 2.91924 2.21047C2.64908 1.743 2.34589 1.52775 2.34589 1.52775C2.32896 1.63326 2.31953 1.73984 2.31767 1.84669C2.10724 1.72988 1.94952 1.69356 1.91999 1.68766L1.56452 1.61897L1.53936 1.97706C1.51114 2.37869 1.61461 2.73416 1.67695 2.90588C1.54877 3.36175 1.03295 4.41503 0.747704 4.99778C0.586704 5.32656 0.501173 5.50244 0.468798 5.58622C0.299704 6.02481 0.860141 6.46647 1.20927 6.69091L1.31689 6.76003L1.44289 6.73641C1.49561 6.72656 1.54111 6.70884 1.58092 6.68763C1.62205 6.73728 1.67674 6.77491 1.73952 6.79591C1.7813 6.80969 1.82505 6.81713 1.86924 6.81713C2.09892 6.81713 2.24745 6.63928 2.39117 6.46734C2.48895 6.35031 2.59964 6.21775 2.71339 6.15606C2.95445 6.02525 3.15483 5.89444 3.31561 5.76188C3.24933 5.95175 3.1662 6.1075 3.14586 6.14491C2.67598 6.99847 2.92295 8.11191 3.07017 8.60125C2.64295 8.83378 1.96264 9.00266 1.70167 9.05384L1.48927 9.09541L1.44902 9.30628C1.00824 11.6152 1.87689 12.4578 2.43361 12.7549C2.73461 12.9148 2.98442 12.9395 3.01199 12.9417L3.31736 12.9673L3.35652 12.6658L3.47661 11.7373L3.52386 11.3713L3.15177 11.3798C3.05361 11.3786 2.95595 11.3658 2.86083 11.3415C2.75605 11.3135 2.62458 11.2608 2.59089 11.1648C2.52374 10.9747 2.58674 10.5319 2.67161 10.1714C2.79499 10.1798 2.91727 10.1843 3.0378 10.1843C3.21411 10.1843 3.3808 10.1738 3.54202 10.1583C3.52506 10.1785 3.50755 10.1983 3.48952 10.2176C3.25392 10.463 3.27383 10.7087 3.3062 10.8334C3.37424 11.0919 3.59867 11.2691 3.77827 11.3243C3.89311 11.359 4.61017 11.4317 5.9102 11.5406L6.04277 11.5515L6.14427 11.466C6.14602 11.4647 6.37395 11.2761 6.64717 11.1705C6.76202 11.1261 6.86461 11.1038 6.95255 11.1038C6.96742 11.1038 6.98252 11.1044 6.99739 11.1059L7.55127 11.1593L7.31939 10.6577C7.2892 10.5925 7.01095 10.0128 6.56711 9.79213L6.39911 9.70856L6.24358 9.81313C6.23811 9.81706 6.1062 9.90566 5.94127 10.0288C5.84327 10.1023 5.71683 10.2005 5.59958 10.3027L5.50224 10.2745C5.69824 10.0702 6.00033 9.79956 6.41267 9.53203C6.5157 9.52481 6.6207 9.52 6.7292 9.52C6.85608 9.52 6.98208 9.52678 7.10852 9.53575C6.97945 9.62763 6.90508 9.70091 6.88933 9.7545C6.84142 9.91309 6.96195 10.0328 7.09452 10.0769L7.11683 10.0815C7.12317 10.0824 7.27717 10.1001 7.5202 10.1001C7.74989 10.1001 8.08261 10.0831 8.44486 10.0131C8.96898 10.6971 9.63224 10.8594 10.1365 10.8594C10.4101 10.8594 10.666 10.813 10.8813 10.7538C10.6625 11.8657 11.0055 12.6459 11.2591 13.0425C11.4347 13.3164 11.5973 13.4617 11.615 13.4774L11.7117 13.5625L11.8407 13.5568C12.3931 13.5325 12.535 12.7695 12.5655 12.5366L12.5889 12.3552L12.4425 12.2441C12.3757 12.194 12.3139 12.1375 12.2581 12.0754C12.1203 11.9227 12.033 11.7312 12.0081 11.527C12.1032 11.6193 12.2006 11.7101 12.3038 11.7957C12.4745 11.9385 12.6554 12.0671 12.84 12.1769L13.1618 12.3679L13.3015 12.0229C13.3096 12.003 13.4969 11.5356 13.5105 10.9955L13.5164 10.7509L13.2792 10.6827C13.2792 10.6824 13.1416 10.64 12.9463 10.5162ZM11.501 9.15184C11.4745 9.15272 11.4472 9.15294 11.4212 9.15403C11.3741 9.156 11.3275 9.15841 11.281 9.15841C11.2094 9.15841 11.1399 9.15447 11.0631 9.12756C11.1775 9.00646 11.2756 8.87092 11.3549 8.72441C11.3989 8.87688 11.4481 9.01863 11.501 9.15184ZM9.7672 5.93469C9.28836 6.35381 8.04849 6.79416 8.03602 6.79853L7.91067 6.84272L7.97914 6.95494C8.19286 7.30559 8.26067 7.518 8.28255 7.61884C8.20183 7.68053 8.02311 7.77766 7.6963 7.81659C7.67567 7.77748 7.65445 7.73868 7.63264 7.70022C7.48608 7.43816 7.24086 6.99978 7.36008 6.71191C7.59567 6.14688 8.73099 5.18634 8.85742 5.08069L10.0476 4.55263C10.3587 5.22791 10.1791 5.57484 9.7672 5.93469ZM7.30539 5.91325C7.35286 5.87563 7.69761 5.68947 8.08545 5.48384C7.91461 5.64718 7.75091 5.81781 7.5948 5.99528C7.47243 6.00201 7.34977 6.00114 7.22752 5.99266C7.2507 5.96269 7.27608 5.93841 7.30539 5.91325ZM7.16277 5.7505C7.09123 5.81153 7.03611 5.87234 6.99127 5.96313C6.90624 5.94806 6.82395 5.92033 6.74714 5.88088L7.46749 4.80922L8.4862 5.02994C8.01655 5.2745 7.24392 5.68138 7.16277 5.7505ZM7.08205 2.97434L7.16583 3.20797C7.15205 3.22963 7.06717 3.32238 7.04792 3.35016C7.05886 3.30553 7.0768 3.02072 7.08205 2.97434ZM7.37845 3.27775C8.55402 3.22088 9.5817 4.07531 9.90961 4.37806L8.78633 4.87616L7.36774 4.56706L6.55223 5.78003H5.05752C5.06364 5.72753 5.0678 5.67 5.06802 5.60219L5.06911 5.43878C5.37645 5.40859 5.92289 5.37272 6.29389 5.35194L6.37724 5.34734L6.67233 3.97841C7.06258 3.77081 7.29773 3.41556 7.37845 3.27775ZM6.12939 4.52222C6.05021 4.35697 5.96297 4.1957 5.86799 4.039C5.90583 4.04797 5.94542 4.05366 5.98808 4.05366C6.12349 4.05366 6.27158 4.00706 6.45708 3.93947L6.39933 4.20744L6.12939 4.52222ZM6.30308 4.65325L6.26524 4.82847C6.25255 4.79828 6.2427 4.77094 6.22914 4.73966L6.30308 4.65325ZM6.4387 1.97553C6.45599 1.97881 6.47392 1.98275 6.49099 1.98625C6.47611 2.06413 6.48158 2.14878 6.51702 2.226C6.57674 2.35594 6.70886 2.34763 6.70886 2.34763C6.6242 2.23759 6.60364 2.11597 6.60692 2.00988C6.74845 2.03919 6.89086 2.07025 7.02495 2.09847C7.02627 2.10131 7.02627 2.1035 7.02714 2.10634L6.79549 2.73197L6.33305 2.07134C6.36192 2.04116 6.39824 2.00834 6.4387 1.97553ZM6.07077 2.07791L6.66905 2.933L6.78389 3.48075C6.78389 3.48075 6.58264 3.65028 6.50542 3.69163C6.38708 3.75506 6.11255 3.83884 5.98786 3.83884C5.86295 3.83884 5.77917 3.77694 5.71508 3.61419C5.65077 3.65925 5.53636 3.67041 5.49042 3.65488C5.41605 3.62972 5.43114 3.54659 5.46527 3.46806C5.49961 3.41338 5.53483 3.36481 5.55802 3.33594C5.53964 3.36438 5.51602 3.40419 5.49458 3.44597C5.44514 3.54288 5.49239 3.57941 5.59739 3.44881C5.64705 3.38756 5.74286 3.17428 5.74286 3.17428C5.74286 3.17428 5.45849 3.395 5.3047 3.40178C5.25045 3.40419 5.25111 3.31931 5.16667 3.23444C5.13495 3.25434 5.0783 3.26638 5.02011 3.26638C4.90067 3.26638 4.77555 3.21475 4.85058 3.07344C4.90067 2.97938 4.99452 2.80022 4.97067 2.73066C4.93873 2.63725 4.85145 2.54931 4.7983 2.40341C5.21764 2.30934 5.73149 2.17175 6.07077 2.07791ZM4.58174 2.44913C4.61914 2.56309 4.6723 2.64775 4.71539 2.71513C4.72808 2.73525 4.74098 2.75559 4.75039 2.77266C4.74781 2.7807 4.74497 2.78865 4.74186 2.7965C4.58286 2.68353 4.41395 2.58521 4.2372 2.50272C4.32295 2.49616 4.44108 2.47713 4.58174 2.44913ZM1.85874 1.99916C1.85874 1.99916 2.27895 2.08053 2.6832 2.56375C2.6832 2.56375 2.81642 2.52941 3.03648 2.52941C3.39786 2.52941 3.99352 2.62828 4.61389 3.11916C4.6058 3.20513 4.63052 3.27228 4.65414 3.30991C4.71911 3.41534 4.84686 3.47594 5.00502 3.47966C5.36223 3.86509 5.71202 4.40584 6.01805 5.15288C5.73345 5.17016 5.31258 5.19816 5.03805 5.22594C5.01982 5.18504 4.99415 5.14788 4.96236 5.11634C4.89223 5.04727 4.79763 5.00874 4.6992 5.00916L4.58589 5.00872H4.5837C4.48789 5.00872 4.39864 5.04372 4.3317 5.10453C4.08014 5.15113 3.9198 5.30731 3.88305 5.54028C3.82377 5.52847 3.76427 5.51753 3.70564 5.50397C3.73692 5.28194 3.71942 5.06188 3.6013 4.886C3.60182 4.88549 3.60226 4.8849 3.60261 4.88425C3.45692 4.56881 3.33486 4.27175 3.14586 4.00247C2.9724 3.75377 2.77582 3.52203 2.55873 3.31034C2.34327 3.10166 2.11052 2.97456 2.01099 2.88269C2.01142 2.88291 1.82483 2.47822 1.85874 1.99916ZM4.85036 5.37228L4.84905 5.60109C4.84752 5.92156 4.84752 5.94016 4.47061 5.94016L4.39755 5.93994C4.09239 5.93906 4.0937 5.68859 4.0937 5.64375C4.09502 5.37009 4.29452 5.31716 4.44655 5.30709C4.45945 5.28188 4.47911 5.26075 4.50333 5.24607C4.52755 5.23139 4.55538 5.22374 4.5837 5.22397H4.58458L4.69855 5.22441C4.71826 5.22403 4.73784 5.22757 4.75618 5.23482C4.77451 5.24207 4.79122 5.25288 4.80534 5.26664C4.81946 5.28039 4.83071 5.29681 4.83844 5.31495C4.84617 5.33308 4.85022 5.35257 4.85036 5.37228ZM1.38295 6.42491C1.38295 6.42491 0.665673 5.964 0.76761 5.69953C0.862548 5.45213 1.76008 3.7415 1.97577 3.0205C1.9727 3.03122 1.96964 3.04238 1.96636 3.052C2.06174 3.14125 2.2702 3.25041 2.45002 3.42409C2.56289 3.53347 2.68802 3.6785 2.81839 3.857C2.69917 4.02609 2.33867 4.48634 1.44661 5.31147C1.30945 5.13319 1.18542 5.01441 1.11477 4.97416L1.04739 5.11197C1.09749 5.14194 1.14692 5.17628 1.24208 5.27078C1.37814 5.40597 1.62927 5.77675 1.77474 6.17772C1.79267 6.16897 1.82395 6.16831 1.85239 6.17006C1.56627 6.18691 1.52361 6.39844 1.38295 6.42491ZM2.55939 5.87803C2.23236 6.05522 2.03111 6.50016 1.86902 6.50016C1.85972 6.50003 1.8505 6.49849 1.84167 6.49556C1.76008 6.46866 1.94361 6.22519 1.91736 6.17728L1.92064 6.17772C1.82459 5.91711 1.69659 5.66942 1.53958 5.44031C1.68151 5.30914 1.8216 5.17598 1.9598 5.04088C2.08952 5.10016 2.3343 5.20581 2.69961 5.33838C2.85098 5.39372 2.9993 5.4425 3.14542 5.48734C3.00695 5.60678 2.81839 5.73738 2.55939 5.87803ZM3.2548 5.38475C3.08374 5.33426 2.91427 5.27853 2.74664 5.21763C2.51432 5.1342 2.285 5.04264 2.05911 4.94309C2.54495 4.46184 2.79652 4.15428 2.91399 3.99394C3.10189 4.27022 3.29767 4.61081 3.48273 5.01528C3.45867 5.11722 3.39436 5.24147 3.2548 5.38475ZM4.94486 10.4433L5.6838 10.6584C5.79733 10.5459 5.95067 10.4223 6.0887 10.3171C6.20005 10.4394 6.34092 10.6278 6.47677 10.8983C6.17227 11.0276 5.93645 11.2245 5.93645 11.2245C5.93645 11.2245 4.01102 11.0633 3.87233 11.0213C3.73386 10.9788 3.44555 10.7227 3.72095 10.4359C3.78789 10.3666 3.88699 10.241 3.99811 10.094C4.38945 10.0223 4.74711 9.91769 5.09645 9.81444C5.30475 9.75114 5.51444 9.6925 5.72536 9.63856C5.18877 10.0774 4.94486 10.4433 4.94486 10.4433ZM6.72899 9.20347C6.3803 9.20347 6.02811 9.23716 5.67155 9.32488C4.83417 9.53028 4.08342 9.86716 3.03714 9.86716C2.84574 9.86716 2.64405 9.85578 2.43055 9.83041C2.43055 9.83041 2.13217 10.8266 2.28836 11.2693C2.36536 11.4885 2.57974 11.5955 2.77705 11.6476C2.78142 11.6487 2.78514 11.6491 2.78908 11.6502C2.73089 11.8372 2.65127 12.133 2.59724 12.481L2.58542 12.4755C2.07595 12.2041 1.36589 11.4485 1.76314 9.36556C1.76314 9.36556 2.92645 9.13806 3.45167 8.73403C3.45167 8.73403 2.88336 7.28306 3.42652 6.29694C3.52233 6.12238 3.62973 5.88109 3.68486 5.63281C3.75092 5.64769 3.81392 5.65906 3.8778 5.67131C3.8907 5.96531 4.09064 6.15366 4.39733 6.15453L4.47083 6.15475C4.75586 6.15475 4.90964 6.11647 4.98992 5.99506H6.38052C6.49252 6.13616 6.7898 6.57191 6.53845 6.95778C6.25758 7.38894 6.74845 8.05394 7.54624 8.24775L7.6018 8.54394C7.57467 8.72769 7.51342 8.96853 7.37845 9.24109C7.16273 9.21771 6.94597 9.20515 6.72899 9.20347ZM7.51998 9.88597C7.33164 9.88597 7.19864 9.87459 7.15642 9.87044C7.13652 9.86191 7.09123 9.84025 7.09495 9.82581C7.14264 9.74991 7.54645 9.50819 7.89295 9.3275L7.96383 9.29053L7.72999 8.04366C7.88245 8.04256 8.13139 8.01522 8.34161 7.88178L8.50589 9.78228C8.18188 9.85182 7.85137 9.88658 7.51998 9.88597ZM11.9923 12.2524C11.9116 12.4307 11.7565 12.7015 11.5176 12.8544C11.2269 12.39 10.899 11.508 11.3595 10.2268C11.3595 10.2268 10.803 10.5429 10.136 10.5429C9.67095 10.5429 9.15317 10.3845 8.73208 9.86234L8.58923 8.21756C8.68592 8.18934 8.7837 8.15653 8.88236 8.11278C9.67074 7.76344 9.30389 7.03325 9.26342 6.50716C9.51258 6.37963 9.7497 6.23788 9.91245 6.09525C9.9352 6.07556 9.95227 6.05544 9.97305 6.03575C9.99361 6.03466 10.0142 6.03203 10.0341 6.03203C10.4396 6.03225 10.7697 6.25275 10.992 6.58197L10.9915 6.58241C11.0825 6.71759 11.1556 6.87116 11.2079 7.03522H11.2083C11.4363 7.75009 11.2761 8.66622 10.5392 9.14944C10.8273 9.43119 11.0537 9.47538 11.2807 9.47538C11.3846 9.47538 11.4888 9.46619 11.5992 9.46619C11.6915 9.46619 11.7882 9.47253 11.8928 9.49659C11.8928 9.49659 12.096 9.76806 11.9562 10.1896C11.8318 10.5683 11.3776 11.5224 11.9923 12.2524ZM12.5447 11.5795C12.5333 11.5701 12.521 11.562 12.5095 11.5522C12.3334 11.4061 12.1741 11.2451 12.0227 11.0803C12.0599 10.8642 12.1317 10.6472 12.2069 10.4409C12.2207 10.4035 12.2308 10.3731 12.2424 10.3416C12.4011 10.51 12.5796 10.6586 12.7741 10.7839L12.8076 10.8041C12.7345 11.1628 12.6337 11.4118 12.5447 11.5795Z"/>
</mask>
<path d="M12.9463 10.5162C12.7785 10.4108 12.5504 10.2312 12.3224 9.94919C12.3386 9.57928 12.1743 9.33975 12.1503 9.30759L12.08 9.21353L11.965 9.1875C11.9291 9.17919 11.8919 9.17481 11.855 9.16913C11.7492 8.92655 11.6653 8.675 11.6043 8.4175L11.555 8.21209C11.6514 7.81408 11.6434 7.39792 11.5316 7.00394C11.9643 6.98753 12.3699 7.09888 12.149 7.64597C11.683 8.79988 13.5625 9.76566 13.5625 9.76566C13.5625 9.76566 12.5289 8.14931 13.3118 6.94706C13.7797 6.22847 12.2741 5.80803 11.2527 6.39975C11.0018 6.02897 10.6455 5.79381 10.2369 5.73453C10.4843 5.36156 10.4762 4.95688 10.2314 4.43756L10.2544 4.41591L10.1916 4.34963L10.1518 4.27088L10.1253 4.28269C9.86761 4.03069 8.72355 2.99709 7.34345 3.066L7.2413 2.81619C7.37124 2.65694 7.45108 2.43622 7.4548 2.16497C7.59567 2.17153 7.68711 2.14594 7.69039 2.06019C7.72583 1.20006 7.02845 0.474469 6.13289 0.438376C5.23733 0.402719 4.48242 1.07056 4.44655 1.93047C4.44655 1.93441 4.44874 1.93681 4.44917 1.94053L4.44786 1.94097C4.33739 2.02016 4.0353 2.28113 4.03705 2.41938C3.67969 2.28433 3.30125 2.2136 2.91924 2.21047C2.64908 1.743 2.34589 1.52775 2.34589 1.52775C2.32896 1.63326 2.31953 1.73984 2.31767 1.84669C2.10724 1.72988 1.94952 1.69356 1.91999 1.68766L1.56452 1.61897L1.53936 1.97706C1.51114 2.37869 1.61461 2.73416 1.67695 2.90588C1.54877 3.36175 1.03295 4.41503 0.747704 4.99778C0.586704 5.32656 0.501173 5.50244 0.468798 5.58622C0.299704 6.02481 0.860141 6.46647 1.20927 6.69091L1.31689 6.76003L1.44289 6.73641C1.49561 6.72656 1.54111 6.70884 1.58092 6.68763C1.62205 6.73728 1.67674 6.77491 1.73952 6.79591C1.7813 6.80969 1.82505 6.81713 1.86924 6.81713C2.09892 6.81713 2.24745 6.63928 2.39117 6.46734C2.48895 6.35031 2.59964 6.21775 2.71339 6.15606C2.95445 6.02525 3.15483 5.89444 3.31561 5.76188C3.24933 5.95175 3.1662 6.1075 3.14586 6.14491C2.67598 6.99847 2.92295 8.11191 3.07017 8.60125C2.64295 8.83378 1.96264 9.00266 1.70167 9.05384L1.48927 9.09541L1.44902 9.30628C1.00824 11.6152 1.87689 12.4578 2.43361 12.7549C2.73461 12.9148 2.98442 12.9395 3.01199 12.9417L3.31736 12.9673L3.35652 12.6658L3.47661 11.7373L3.52386 11.3713L3.15177 11.3798C3.05361 11.3786 2.95595 11.3658 2.86083 11.3415C2.75605 11.3135 2.62458 11.2608 2.59089 11.1648C2.52374 10.9747 2.58674 10.5319 2.67161 10.1714C2.79499 10.1798 2.91727 10.1843 3.0378 10.1843C3.21411 10.1843 3.3808 10.1738 3.54202 10.1583C3.52506 10.1785 3.50755 10.1983 3.48952 10.2176C3.25392 10.463 3.27383 10.7087 3.3062 10.8334C3.37424 11.0919 3.59867 11.2691 3.77827 11.3243C3.89311 11.359 4.61017 11.4317 5.9102 11.5406L6.04277 11.5515L6.14427 11.466C6.14602 11.4647 6.37395 11.2761 6.64717 11.1705C6.76202 11.1261 6.86461 11.1038 6.95255 11.1038C6.96742 11.1038 6.98252 11.1044 6.99739 11.1059L7.55127 11.1593L7.31939 10.6577C7.2892 10.5925 7.01095 10.0128 6.56711 9.79213L6.39911 9.70856L6.24358 9.81313C6.23811 9.81706 6.1062 9.90566 5.94127 10.0288C5.84327 10.1023 5.71683 10.2005 5.59958 10.3027L5.50224 10.2745C5.69824 10.0702 6.00033 9.79956 6.41267 9.53203C6.5157 9.52481 6.6207 9.52 6.7292 9.52C6.85608 9.52 6.98208 9.52678 7.10852 9.53575C6.97945 9.62763 6.90508 9.70091 6.88933 9.7545C6.84142 9.91309 6.96195 10.0328 7.09452 10.0769L7.11683 10.0815C7.12317 10.0824 7.27717 10.1001 7.5202 10.1001C7.74989 10.1001 8.08261 10.0831 8.44486 10.0131C8.96898 10.6971 9.63224 10.8594 10.1365 10.8594C10.4101 10.8594 10.666 10.813 10.8813 10.7538C10.6625 11.8657 11.0055 12.6459 11.2591 13.0425C11.4347 13.3164 11.5973 13.4617 11.615 13.4774L11.7117 13.5625L11.8407 13.5568C12.3931 13.5325 12.535 12.7695 12.5655 12.5366L12.5889 12.3552L12.4425 12.2441C12.3757 12.194 12.3139 12.1375 12.2581 12.0754C12.1203 11.9227 12.033 11.7312 12.0081 11.527C12.1032 11.6193 12.2006 11.7101 12.3038 11.7957C12.4745 11.9385 12.6554 12.0671 12.84 12.1769L13.1618 12.3679L13.3015 12.0229C13.3096 12.003 13.4969 11.5356 13.5105 10.9955L13.5164 10.7509L13.2792 10.6827C13.2792 10.6824 13.1416 10.64 12.9463 10.5162ZM11.501 9.15184C11.4745 9.15272 11.4472 9.15294 11.4212 9.15403C11.3741 9.156 11.3275 9.15841 11.281 9.15841C11.2094 9.15841 11.1399 9.15447 11.0631 9.12756C11.1775 9.00646 11.2756 8.87092 11.3549 8.72441C11.3989 8.87688 11.4481 9.01863 11.501 9.15184ZM9.7672 5.93469C9.28836 6.35381 8.04849 6.79416 8.03602 6.79853L7.91067 6.84272L7.97914 6.95494C8.19286 7.30559 8.26067 7.518 8.28255 7.61884C8.20183 7.68053 8.02311 7.77766 7.6963 7.81659C7.67567 7.77748 7.65445 7.73868 7.63264 7.70022C7.48608 7.43816 7.24086 6.99978 7.36008 6.71191C7.59567 6.14688 8.73099 5.18634 8.85742 5.08069L10.0476 4.55263C10.3587 5.22791 10.1791 5.57484 9.7672 5.93469ZM7.30539 5.91325C7.35286 5.87563 7.69761 5.68947 8.08545 5.48384C7.91461 5.64718 7.75091 5.81781 7.5948 5.99528C7.47243 6.00201 7.34977 6.00114 7.22752 5.99266C7.2507 5.96269 7.27608 5.93841 7.30539 5.91325ZM7.16277 5.7505C7.09123 5.81153 7.03611 5.87234 6.99127 5.96313C6.90624 5.94806 6.82395 5.92033 6.74714 5.88088L7.46749 4.80922L8.4862 5.02994C8.01655 5.2745 7.24392 5.68138 7.16277 5.7505ZM7.08205 2.97434L7.16583 3.20797C7.15205 3.22963 7.06717 3.32238 7.04792 3.35016C7.05886 3.30553 7.0768 3.02072 7.08205 2.97434ZM7.37845 3.27775C8.55402 3.22088 9.5817 4.07531 9.90961 4.37806L8.78633 4.87616L7.36774 4.56706L6.55223 5.78003H5.05752C5.06364 5.72753 5.0678 5.67 5.06802 5.60219L5.06911 5.43878C5.37645 5.40859 5.92289 5.37272 6.29389 5.35194L6.37724 5.34734L6.67233 3.97841C7.06258 3.77081 7.29773 3.41556 7.37845 3.27775ZM6.12939 4.52222C6.05021 4.35697 5.96297 4.1957 5.86799 4.039C5.90583 4.04797 5.94542 4.05366 5.98808 4.05366C6.12349 4.05366 6.27158 4.00706 6.45708 3.93947L6.39933 4.20744L6.12939 4.52222ZM6.30308 4.65325L6.26524 4.82847C6.25255 4.79828 6.2427 4.77094 6.22914 4.73966L6.30308 4.65325ZM6.4387 1.97553C6.45599 1.97881 6.47392 1.98275 6.49099 1.98625C6.47611 2.06413 6.48158 2.14878 6.51702 2.226C6.57674 2.35594 6.70886 2.34763 6.70886 2.34763C6.6242 2.23759 6.60364 2.11597 6.60692 2.00988C6.74845 2.03919 6.89086 2.07025 7.02495 2.09847C7.02627 2.10131 7.02627 2.1035 7.02714 2.10634L6.79549 2.73197L6.33305 2.07134C6.36192 2.04116 6.39824 2.00834 6.4387 1.97553ZM6.07077 2.07791L6.66905 2.933L6.78389 3.48075C6.78389 3.48075 6.58264 3.65028 6.50542 3.69163C6.38708 3.75506 6.11255 3.83884 5.98786 3.83884C5.86295 3.83884 5.77917 3.77694 5.71508 3.61419C5.65077 3.65925 5.53636 3.67041 5.49042 3.65488C5.41605 3.62972 5.43114 3.54659 5.46527 3.46806C5.49961 3.41338 5.53483 3.36481 5.55802 3.33594C5.53964 3.36438 5.51602 3.40419 5.49458 3.44597C5.44514 3.54288 5.49239 3.57941 5.59739 3.44881C5.64705 3.38756 5.74286 3.17428 5.74286 3.17428C5.74286 3.17428 5.45849 3.395 5.3047 3.40178C5.25045 3.40419 5.25111 3.31931 5.16667 3.23444C5.13495 3.25434 5.0783 3.26638 5.02011 3.26638C4.90067 3.26638 4.77555 3.21475 4.85058 3.07344C4.90067 2.97938 4.99452 2.80022 4.97067 2.73066C4.93873 2.63725 4.85145 2.54931 4.7983 2.40341C5.21764 2.30934 5.73149 2.17175 6.07077 2.07791ZM4.58174 2.44913C4.61914 2.56309 4.6723 2.64775 4.71539 2.71513C4.72808 2.73525 4.74098 2.75559 4.75039 2.77266C4.74781 2.7807 4.74497 2.78865 4.74186 2.7965C4.58286 2.68353 4.41395 2.58521 4.2372 2.50272C4.32295 2.49616 4.44108 2.47713 4.58174 2.44913ZM1.85874 1.99916C1.85874 1.99916 2.27895 2.08053 2.6832 2.56375C2.6832 2.56375 2.81642 2.52941 3.03648 2.52941C3.39786 2.52941 3.99352 2.62828 4.61389 3.11916C4.6058 3.20513 4.63052 3.27228 4.65414 3.30991C4.71911 3.41534 4.84686 3.47594 5.00502 3.47966C5.36223 3.86509 5.71202 4.40584 6.01805 5.15288C5.73345 5.17016 5.31258 5.19816 5.03805 5.22594C5.01982 5.18504 4.99415 5.14788 4.96236 5.11634C4.89223 5.04727 4.79763 5.00874 4.6992 5.00916L4.58589 5.00872H4.5837C4.48789 5.00872 4.39864 5.04372 4.3317 5.10453C4.08014 5.15113 3.9198 5.30731 3.88305 5.54028C3.82377 5.52847 3.76427 5.51753 3.70564 5.50397C3.73692 5.28194 3.71942 5.06188 3.6013 4.886C3.60182 4.88549 3.60226 4.8849 3.60261 4.88425C3.45692 4.56881 3.33486 4.27175 3.14586 4.00247C2.9724 3.75377 2.77582 3.52203 2.55873 3.31034C2.34327 3.10166 2.11052 2.97456 2.01099 2.88269C2.01142 2.88291 1.82483 2.47822 1.85874 1.99916ZM4.85036 5.37228L4.84905 5.60109C4.84752 5.92156 4.84752 5.94016 4.47061 5.94016L4.39755 5.93994C4.09239 5.93906 4.0937 5.68859 4.0937 5.64375C4.09502 5.37009 4.29452 5.31716 4.44655 5.30709C4.45945 5.28188 4.47911 5.26075 4.50333 5.24607C4.52755 5.23139 4.55538 5.22374 4.5837 5.22397H4.58458L4.69855 5.22441C4.71826 5.22403 4.73784 5.22757 4.75618 5.23482C4.77451 5.24207 4.79122 5.25288 4.80534 5.26664C4.81946 5.28039 4.83071 5.29681 4.83844 5.31495C4.84617 5.33308 4.85022 5.35257 4.85036 5.37228ZM1.38295 6.42491C1.38295 6.42491 0.665673 5.964 0.76761 5.69953C0.862548 5.45213 1.76008 3.7415 1.97577 3.0205C1.9727 3.03122 1.96964 3.04238 1.96636 3.052C2.06174 3.14125 2.2702 3.25041 2.45002 3.42409C2.56289 3.53347 2.68802 3.6785 2.81839 3.857C2.69917 4.02609 2.33867 4.48634 1.44661 5.31147C1.30945 5.13319 1.18542 5.01441 1.11477 4.97416L1.04739 5.11197C1.09749 5.14194 1.14692 5.17628 1.24208 5.27078C1.37814 5.40597 1.62927 5.77675 1.77474 6.17772C1.79267 6.16897 1.82395 6.16831 1.85239 6.17006C1.56627 6.18691 1.52361 6.39844 1.38295 6.42491ZM2.55939 5.87803C2.23236 6.05522 2.03111 6.50016 1.86902 6.50016C1.85972 6.50003 1.8505 6.49849 1.84167 6.49556C1.76008 6.46866 1.94361 6.22519 1.91736 6.17728L1.92064 6.17772C1.82459 5.91711 1.69659 5.66942 1.53958 5.44031C1.68151 5.30914 1.8216 5.17598 1.9598 5.04088C2.08952 5.10016 2.3343 5.20581 2.69961 5.33838C2.85098 5.39372 2.9993 5.4425 3.14542 5.48734C3.00695 5.60678 2.81839 5.73738 2.55939 5.87803ZM3.2548 5.38475C3.08374 5.33426 2.91427 5.27853 2.74664 5.21763C2.51432 5.1342 2.285 5.04264 2.05911 4.94309C2.54495 4.46184 2.79652 4.15428 2.91399 3.99394C3.10189 4.27022 3.29767 4.61081 3.48273 5.01528C3.45867 5.11722 3.39436 5.24147 3.2548 5.38475ZM4.94486 10.4433L5.6838 10.6584C5.79733 10.5459 5.95067 10.4223 6.0887 10.3171C6.20005 10.4394 6.34092 10.6278 6.47677 10.8983C6.17227 11.0276 5.93645 11.2245 5.93645 11.2245C5.93645 11.2245 4.01102 11.0633 3.87233 11.0213C3.73386 10.9788 3.44555 10.7227 3.72095 10.4359C3.78789 10.3666 3.88699 10.241 3.99811 10.094C4.38945 10.0223 4.74711 9.91769 5.09645 9.81444C5.30475 9.75114 5.51444 9.6925 5.72536 9.63856C5.18877 10.0774 4.94486 10.4433 4.94486 10.4433ZM6.72899 9.20347C6.3803 9.20347 6.02811 9.23716 5.67155 9.32488C4.83417 9.53028 4.08342 9.86716 3.03714 9.86716C2.84574 9.86716 2.64405 9.85578 2.43055 9.83041C2.43055 9.83041 2.13217 10.8266 2.28836 11.2693C2.36536 11.4885 2.57974 11.5955 2.77705 11.6476C2.78142 11.6487 2.78514 11.6491 2.78908 11.6502C2.73089 11.8372 2.65127 12.133 2.59724 12.481L2.58542 12.4755C2.07595 12.2041 1.36589 11.4485 1.76314 9.36556C1.76314 9.36556 2.92645 9.13806 3.45167 8.73403C3.45167 8.73403 2.88336 7.28306 3.42652 6.29694C3.52233 6.12238 3.62973 5.88109 3.68486 5.63281C3.75092 5.64769 3.81392 5.65906 3.8778 5.67131C3.8907 5.96531 4.09064 6.15366 4.39733 6.15453L4.47083 6.15475C4.75586 6.15475 4.90964 6.11647 4.98992 5.99506H6.38052C6.49252 6.13616 6.7898 6.57191 6.53845 6.95778C6.25758 7.38894 6.74845 8.05394 7.54624 8.24775L7.6018 8.54394C7.57467 8.72769 7.51342 8.96853 7.37845 9.24109C7.16273 9.21771 6.94597 9.20515 6.72899 9.20347ZM7.51998 9.88597C7.33164 9.88597 7.19864 9.87459 7.15642 9.87044C7.13652 9.86191 7.09123 9.84025 7.09495 9.82581C7.14264 9.74991 7.54645 9.50819 7.89295 9.3275L7.96383 9.29053L7.72999 8.04366C7.88245 8.04256 8.13139 8.01522 8.34161 7.88178L8.50589 9.78228C8.18188 9.85182 7.85137 9.88658 7.51998 9.88597ZM11.9923 12.2524C11.9116 12.4307 11.7565 12.7015 11.5176 12.8544C11.2269 12.39 10.899 11.508 11.3595 10.2268C11.3595 10.2268 10.803 10.5429 10.136 10.5429C9.67095 10.5429 9.15317 10.3845 8.73208 9.86234L8.58923 8.21756C8.68592 8.18934 8.7837 8.15653 8.88236 8.11278C9.67074 7.76344 9.30389 7.03325 9.26342 6.50716C9.51258 6.37963 9.7497 6.23788 9.91245 6.09525C9.9352 6.07556 9.95227 6.05544 9.97305 6.03575C9.99361 6.03466 10.0142 6.03203 10.0341 6.03203C10.4396 6.03225 10.7697 6.25275 10.992 6.58197L10.9915 6.58241C11.0825 6.71759 11.1556 6.87116 11.2079 7.03522H11.2083C11.4363 7.75009 11.2761 8.66622 10.5392 9.14944C10.8273 9.43119 11.0537 9.47538 11.2807 9.47538C11.3846 9.47538 11.4888 9.46619 11.5992 9.46619C11.6915 9.46619 11.7882 9.47253 11.8928 9.49659C11.8928 9.49659 12.096 9.76806 11.9562 10.1896C11.8318 10.5683 11.3776 11.5224 11.9923 12.2524ZM12.5447 11.5795C12.5333 11.5701 12.521 11.562 12.5095 11.5522C12.3334 11.4061 12.1741 11.2451 12.0227 11.0803C12.0599 10.8642 12.1317 10.6472 12.2069 10.4409C12.2207 10.4035 12.2308 10.3731 12.2424 10.3416C12.4011 10.51 12.5796 10.6586 12.7741 10.7839L12.8076 10.8041C12.7345 11.1628 12.6337 11.4118 12.5447 11.5795Z" fill="#F0F3FF" stroke="black" stroke-width="0.12" mask="url(#path-2-inside-1_175_2)"/>
<path d="M5.29833 2.83959C5.36571 2.80852 5.3843 2.70571 5.34033 2.6099C5.29615 2.51409 5.2058 2.46159 5.13865 2.49243C5.07149 2.52349 5.0879 2.6099 5.13186 2.70593C5.17627 2.80174 5.23118 2.87065 5.29833 2.83959Z" fill="#F0F3FF"/>
</g>
<defs>
<clipPath id="clip0_175_2">
<rect width="14" height="14" fill="white"/>
</clipPath>
</defs>
</svg>
