<svg xmlns="http://www.w3.org/2000/svg" width="14" height="14" fill="none"><g clip-path="url(#a)"><path fill="#F0F3FF" d="M2.23 4.03c.15-.17.06-.6.06-.6s-.28.22-.41.69c0 0 .21.09.35-.09ZM.95 5.62c-.02.11.08.63.18.3.1-.34-.18-.3-.18-.3Z"/><mask id="b" fill="#fff"><path d="M12.95 10.52c-.17-.1-.4-.29-.63-.57.02-.37-.15-.61-.17-.64l-.07-.1-.12-.02-.1-.02c-.11-.24-.2-.5-.26-.75l-.04-.2c.1-.4.08-.82-.03-1.22.43-.01.84.1.62.65-.47 1.15 1.41 2.12 1.41 2.12s-1.03-1.62-.25-2.82c.47-.72-1.04-1.14-2.06-.55-.25-.37-.6-.6-1.01-.67.24-.37.24-.77 0-1.3l.01-.01-.06-.07-.04-.08-.02.01C9.87 4.03 8.73 3 7.34 3.07l-.1-.25c.13-.16.21-.38.21-.66.15.01.24-.01.24-.1A1.59 1.59 0 0 0 6.13.44a1.6 1.6 0 0 0-1.68 1.49v.01c-.11.08-.41.34-.41.48-.36-.14-.74-.2-1.12-.21a2.29 2.29 0 0 0-.57-.68c-.02.1-.03.21-.03.32a1.49 1.49 0 0 0-.4-.16l-.36-.07-.02.36c-.03.4.07.75.14.93-.13.45-.65 1.5-.93 2.09-.16.33-.25.5-.28.59-.17.43.39.88.74 1.1l.1.07.13-.02c.06-.01.1-.03.14-.05a.41.41 0 0 0 .29.13c.23 0 .38-.18.52-.35.1-.12.21-.25.32-.31.24-.13.44-.27.6-.4-.06.2-.14.35-.16.38-.47.86-.23 1.97-.08 2.46-.43.23-1.1.4-1.37.45l-.21.05-.04.2c-.44 2.32.43 3.16.98 3.45.3.16.55.19.58.2l.3.02.05-.3.12-.93.04-.37-.37.01c-.1 0-.2-.01-.29-.04-.1-.03-.24-.08-.27-.18-.07-.19 0-.63.08-.99a5.4 5.4 0 0 0 .87-.01 1.5 1.5 0 0 1-.05.06.63.63 0 0 0-.18.61c.06.26.29.44.47.5.11.03.83.1 2.13.21l.13.01.1-.08s.23-.2.5-.3a.87.87 0 0 1 .36-.06l.55.05-.23-.5c-.03-.07-.3-.65-.75-.87l-.17-.08-.16.1-.3.22-.34.27-.1-.03c.2-.2.5-.47.91-.74a4.5 4.5 0 0 1 .7 0c-.13.1-.2.17-.22.22-.05.16.07.28.2.33h.03s.16.02.4.02c.23 0 .56-.02.92-.09.53.69 1.2.85 1.7.85.27 0 .53-.05.74-.1-.22 1.1.13 1.89.38 2.28.17.28.34.42.36.44l.1.08h.12c.55-.03.7-.79.73-1.02l.02-.18-.15-.12c-.06-.05-.13-.1-.18-.16a1 1 0 0 1-.25-.55 5.12 5.12 0 0 0 .83.65l.32.19.14-.35c.01-.02.2-.48.21-1.02v-.25l-.23-.07s-.14-.04-.33-.16ZM11.5 9.15H11.28c-.07 0-.14 0-.22-.02.12-.12.22-.26.3-.4l.14.42ZM9.77 5.93c-.48.42-1.72.86-1.73.87l-.13.04.07.11c.21.36.28.57.3.67a1.2 1.2 0 0 1-.58.2 4.35 4.35 0 0 0-.07-.12c-.14-.26-.39-.7-.27-.99a7 7 0 0 1 1.5-1.63l1.19-.53c.3.68.13 1.02-.28 1.38ZM7.3 5.91a14 14 0 0 1 .78-.43 8.2 8.2 0 0 0-.5.52h-.36a.53.53 0 0 1 .08-.09Zm-.15-.16a.64.64 0 0 0-.17.21.86.86 0 0 1-.24-.08l.72-1.07 1.02.22c-.47.24-1.25.65-1.33.72Zm-.08-2.78.09.24-.12.14.03-.38Zm.3.3c1.17-.05 2.2.8 2.53 1.1l-1.12.5-1.42-.3-.82 1.21h-1.5l.02-.18v-.16l1.22-.09h.09l.3-1.37c.38-.2.62-.56.7-.7ZM6.13 4.53a5.6 5.6 0 0 0-.26-.48l.12.01c.13 0 .28-.04.47-.11l-.06.27-.27.31Zm.17.13-.03.18-.04-.09.07-.09Zm.14-2.67h.05a.4.4 0 0 0 .03.25c.06.13.19.12.19.12A.51.51 0 0 1 6.6 2l.41.09-.22.63-.47-.66.1-.1Zm-.37.1.6.85.11.55s-.2.17-.27.21c-.12.07-.4.15-.52.15-.13 0-.21-.06-.27-.23a.32.32 0 0 1-.23.04c-.07-.02-.06-.1-.02-.18l.09-.13-.07.1c-.04.1 0 .14.1 0 .06-.05.15-.27.15-.27s-.28.23-.44.23c-.05 0-.05-.08-.13-.17a.3.3 0 0 1-.15.04c-.12 0-.24-.06-.17-.2.05-.1.14-.27.12-.34-.03-.1-.12-.18-.17-.33l1.27-.32Zm-1.49.37c.04.11.1.2.14.27 0 .02.02.04.03.05v.03a3.23 3.23 0 0 0-.51-.3c.08 0 .2-.02.34-.05ZM1.86 2s.42.08.82.56c0 0 .14-.03.36-.03.36 0 .95.1 1.57.59 0 .09.02.15.04.19.07.1.2.17.36.17.35.39.7.93 1 1.67l-.97.08A.37.37 0 0 0 4.7 5h-.11c-.1 0-.2.03-.26.1-.25.04-.41.2-.45.43l-.17-.04a.87.87 0 0 0-.1-.62c-.15-.31-.28-.6-.46-.88a4.81 4.81 0 0 0-.6-.69c-.2-.2-.44-.34-.54-.43 0 0-.19-.4-.15-.88Zm2.99 3.37v.23c0 .32 0 .34-.38.34H4.4c-.3 0-.3-.25-.3-.3 0-.27.2-.32.35-.33a.15.15 0 0 1 .13-.09h.12a.15.15 0 0 1 .15.15ZM1.38 6.42S.67 5.96.77 5.7c.1-.25.99-1.96 1.2-2.68v.03c.1.1.3.2.48.37.11.11.24.26.37.44-.12.17-.48.63-1.37 1.45-.14-.18-.26-.3-.34-.34l-.06.14.2.16c.13.14.38.5.52.9h.08c-.28.02-.33.23-.47.25Zm1.18-.54c-.33.18-.53.62-.7.62h-.02c-.08-.03.1-.27.08-.32-.1-.26-.22-.51-.38-.74l.42-.4a10.09 10.09 0 0 0 1.19.45c-.14.12-.33.25-.6.39Zm.7-.5a8.7 8.7 0 0 1-1.2-.44c.48-.48.74-.79.85-.95a7 7 0 0 1 .57 1.03.81.81 0 0 1-.23.36Zm1.68 5.06.74.22.4-.34c.12.12.26.3.4.58-.3.13-.54.32-.54.32s-1.93-.16-2.07-.2c-.14-.04-.42-.3-.15-.58.07-.07.17-.2.28-.35.39-.07.75-.17 1.1-.28l.63-.17c-.54.44-.79.8-.79.8ZM6.73 9.2c-.35 0-.7.04-1.06.12-.84.21-1.59.55-2.63.55-.2 0-.4-.01-.6-.04 0 0-.3 1-.15 1.44.08.22.29.33.49.38-.05.19-.13.48-.18.83h-.01c-.51-.28-1.22-1.03-.83-3.11 0 0 1.17-.23 1.7-.64 0 0-.58-1.45-.03-2.43.1-.18.2-.42.25-.67l.2.04c.01.3.21.48.52.48h.07c.29 0 .44-.03.52-.15h1.4c.1.14.4.57.15.96-.28.43.2 1.1 1 1.29l.06.3c-.03.18-.09.42-.22.7a6.5 6.5 0 0 0-.65-.05Zm.79.69c-.19 0-.32-.02-.36-.02l-.07-.04a4 4 0 0 1 .8-.5l.07-.04-.23-1.25c.15 0 .4-.02.61-.16l.17 1.9c-.33.07-.66.1-.99.1Zm4.47 2.36c-.08.18-.23.45-.47.6-.3-.46-.62-1.34-.16-2.62 0 0-.56.31-1.22.31-.47 0-.99-.16-1.4-.68l-.15-1.64.3-.1c.78-.36.41-1.09.37-1.61.25-.13.49-.27.65-.41l.06-.06h.06c.41 0 .74.21.96.54.1.14.17.3.22.46.23.71.07 1.63-.67 2.1.29.3.51.34.74.34l.32-.01c.1 0 .19 0 .3.03 0 0 .2.27.06.69-.13.38-.58 1.33.03 2.06Zm.55-.67-.03-.03c-.18-.14-.34-.3-.49-.47.04-.22.11-.43.19-.64l.03-.1c.16.17.34.32.53.44l.04.02c-.08.36-.18.61-.27.78Z"/></mask><path fill="#F0F3FF" stroke="#000" stroke-width=".12" d="M12.95 10.52c-.17-.1-.4-.29-.63-.57.02-.37-.15-.61-.17-.64l-.07-.1-.12-.02-.1-.02c-.11-.24-.2-.5-.26-.75l-.04-.2c.1-.4.08-.82-.03-1.22.43-.01.84.1.62.65-.47 1.15 1.41 2.12 1.41 2.12s-1.03-1.62-.25-2.82c.47-.72-1.04-1.14-2.06-.55-.25-.37-.6-.6-1.01-.67.24-.37.24-.77 0-1.3l.01-.01-.06-.07-.04-.08-.02.01C9.87 4.03 8.73 3 7.34 3.07l-.1-.25c.13-.16.21-.38.21-.66.15.01.24-.01.24-.1A1.59 1.59 0 0 0 6.13.44a1.6 1.6 0 0 0-1.68 1.49v.01c-.11.08-.41.34-.41.48-.36-.14-.74-.2-1.12-.21a2.29 2.29 0 0 0-.57-.68c-.02.1-.03.21-.03.32a1.49 1.49 0 0 0-.4-.16l-.36-.07-.02.36c-.03.4.07.75.14.93-.13.45-.65 1.5-.93 2.09-.16.33-.25.5-.28.59-.17.43.39.88.74 1.1l.1.07.13-.02c.06-.01.1-.03.14-.05a.41.41 0 0 0 .29.13c.23 0 .38-.18.52-.35.1-.12.21-.25.32-.31.24-.13.44-.27.6-.4-.06.2-.14.35-.16.38-.47.86-.23 1.97-.08 2.46-.43.23-1.1.4-1.37.45l-.21.05-.04.2c-.44 2.32.43 3.16.98 3.45.3.16.55.19.58.2l.3.02.05-.3.12-.93.04-.37-.37.01c-.1 0-.2-.01-.29-.04-.1-.03-.24-.08-.27-.18-.07-.19 0-.63.08-.99a5.4 5.4 0 0 0 .87-.01 1.5 1.5 0 0 1-.05.06.63.63 0 0 0-.18.61c.06.26.29.44.47.5.11.03.83.1 2.13.21l.13.01.1-.08s.23-.2.5-.3a.87.87 0 0 1 .36-.06l.55.05-.23-.5c-.03-.07-.3-.65-.75-.87l-.17-.08-.16.1-.3.22-.34.27-.1-.03c.2-.2.5-.47.91-.74a4.5 4.5 0 0 1 .7 0c-.13.1-.2.17-.22.22-.05.16.07.28.2.33h.03s.16.02.4.02c.23 0 .56-.02.92-.09.53.69 1.2.85 1.7.85.27 0 .53-.05.74-.1-.22 1.1.13 1.89.38 2.28.17.28.34.42.36.44l.1.08h.12c.55-.03.7-.79.73-1.02l.02-.18-.15-.12c-.06-.05-.13-.1-.18-.16a1 1 0 0 1-.25-.55 5.12 5.12 0 0 0 .83.65l.32.19.14-.35c.01-.02.2-.48.21-1.02v-.25l-.23-.07s-.14-.04-.33-.16ZM11.5 9.15H11.28c-.07 0-.14 0-.22-.02.12-.12.22-.26.3-.4l.14.42ZM9.77 5.93c-.48.42-1.72.86-1.73.87l-.13.04.07.11c.21.36.28.57.3.67a1.2 1.2 0 0 1-.58.2 4.35 4.35 0 0 0-.07-.12c-.14-.26-.39-.7-.27-.99a7 7 0 0 1 1.5-1.63l1.19-.53c.3.68.13 1.02-.28 1.38ZM7.3 5.91a14 14 0 0 1 .78-.43 8.2 8.2 0 0 0-.5.52h-.36a.53.53 0 0 1 .08-.09Zm-.15-.16a.64.64 0 0 0-.17.21.86.86 0 0 1-.24-.08l.72-1.07 1.02.22c-.47.24-1.25.65-1.33.72Zm-.08-2.78.09.24-.12.14.03-.38Zm.3.3c1.17-.05 2.2.8 2.53 1.1l-1.12.5-1.42-.3-.82 1.21h-1.5l.02-.18v-.16l1.22-.09h.09l.3-1.37c.38-.2.62-.56.7-.7ZM6.13 4.53a5.6 5.6 0 0 0-.26-.48l.12.01c.13 0 .28-.04.47-.11l-.06.27-.27.31Zm.17.13-.03.18-.04-.09.07-.09Zm.14-2.67h.05a.4.4 0 0 0 .03.25c.06.13.19.12.19.12A.51.51 0 0 1 6.6 2l.41.09-.22.63-.47-.66.1-.1Zm-.37.1.6.85.11.55s-.2.17-.27.21c-.12.07-.4.15-.52.15-.13 0-.21-.06-.27-.23a.32.32 0 0 1-.23.04c-.07-.02-.06-.1-.02-.18l.09-.13-.07.1c-.04.1 0 .14.1 0 .06-.05.15-.27.15-.27s-.28.23-.44.23c-.05 0-.05-.08-.13-.17a.3.3 0 0 1-.15.04c-.12 0-.24-.06-.17-.2.05-.1.14-.27.12-.34-.03-.1-.12-.18-.17-.33l1.27-.32Zm-1.49.37c.04.11.1.2.14.27 0 .02.02.04.03.05v.03a3.23 3.23 0 0 0-.51-.3c.08 0 .2-.02.34-.05ZM1.86 2s.42.08.82.56c0 0 .14-.03.36-.03.36 0 .95.1 1.57.59 0 .09.02.15.04.19.07.1.2.17.36.17.35.39.7.93 1 1.67l-.97.08A.37.37 0 0 0 4.7 5h-.11c-.1 0-.2.03-.26.1-.25.04-.41.2-.45.43l-.17-.04a.87.87 0 0 0-.1-.62c-.15-.31-.28-.6-.46-.88a4.81 4.81 0 0 0-.6-.69c-.2-.2-.44-.34-.54-.43 0 0-.19-.4-.15-.88Zm2.99 3.37v.23c0 .32 0 .34-.38.34H4.4c-.3 0-.3-.25-.3-.3 0-.27.2-.32.35-.33a.15.15 0 0 1 .13-.09h.12a.15.15 0 0 1 .15.15ZM1.38 6.42S.67 5.96.77 5.7c.1-.25.99-1.96 1.2-2.68v.03c.1.1.3.2.48.37.11.11.24.26.37.44-.12.17-.48.63-1.37 1.45-.14-.18-.26-.3-.34-.34l-.06.14.2.16c.13.14.38.5.52.9h.08c-.28.02-.33.23-.47.25Zm1.18-.54c-.33.18-.53.62-.7.62h-.02c-.08-.03.1-.27.08-.32-.1-.26-.22-.51-.38-.74l.42-.4a10.09 10.09 0 0 0 1.19.45c-.14.12-.33.25-.6.39Zm.7-.5a8.7 8.7 0 0 1-1.2-.44c.48-.48.74-.79.85-.95a7 7 0 0 1 .57 1.03.81.81 0 0 1-.23.36Zm1.68 5.06.74.22.4-.34c.12.12.26.3.4.58-.3.13-.54.32-.54.32s-1.93-.16-2.07-.2c-.14-.04-.42-.3-.15-.58.07-.07.17-.2.28-.35.39-.07.75-.17 1.1-.28l.63-.17c-.54.44-.79.8-.79.8ZM6.73 9.2c-.35 0-.7.04-1.06.12-.84.21-1.59.55-2.63.55-.2 0-.4-.01-.6-.04 0 0-.3 1-.15 1.44.08.22.29.33.49.38-.05.19-.13.48-.18.83h-.01c-.51-.28-1.22-1.03-.83-3.11 0 0 1.17-.23 1.7-.64 0 0-.58-1.45-.03-2.43.1-.18.2-.42.25-.67l.2.04c.01.3.21.48.52.48h.07c.29 0 .44-.03.52-.15h1.4c.1.14.4.57.15.96-.28.43.2 1.1 1 1.29l.06.3c-.03.18-.09.42-.22.7a6.5 6.5 0 0 0-.65-.05Zm.79.69c-.19 0-.32-.02-.36-.02l-.07-.04a4 4 0 0 1 .8-.5l.07-.04-.23-1.25c.15 0 .4-.02.61-.16l.17 1.9c-.33.07-.66.1-.99.1Zm4.47 2.36c-.08.18-.23.45-.47.6-.3-.46-.62-1.34-.16-2.62 0 0-.56.31-1.22.31-.47 0-.99-.16-1.4-.68l-.15-1.64.3-.1c.78-.36.41-1.09.37-1.61.25-.13.49-.27.65-.41l.06-.06h.06c.41 0 .74.21.96.54.1.14.17.3.22.46.23.71.07 1.63-.67 2.1.29.3.51.34.74.34l.32-.01c.1 0 .19 0 .3.03 0 0 .2.27.06.69-.13.38-.58 1.33.03 2.06Zm.55-.67-.03-.03c-.18-.14-.34-.3-.49-.47.04-.22.11-.43.19-.64l.03-.1c.16.17.34.32.53.44l.04.02c-.08.36-.18.61-.27.78Z" mask="url(#b)"/><path fill="#F0F3FF" d="M5.3 2.84c.07-.03.08-.13.04-.23s-.13-.15-.2-.12-.05.12 0 .22c.04.1.1.16.16.13Z"/></g><defs><clipPath id="a"><path fill="#fff" d="M0 0h14v14H0z"/></clipPath></defs></svg>