<svg xmlns="http://www.w3.org/2000/svg" width="45" height="45" fill="none"><path fill="#fff" stroke="#000" stroke-width=".5" d="M39.08 9.88A4.97 4.97 0 0 0 35 5.8c-5.44-.92-15.67-1.35-23.17 6.15-7.5 7.5-7.07 17.73-6.15 23.16a4.97 4.97 0 0 0 4.07 4.07c1.91.33 3.85.5 5.8.5 5.37 0 12.05-1.34 17.37-6.65 7.5-7.5 7.07-17.73 6.15-23.16Zm-9.92-3.21c1.88 0 3.76.17 5.62.5a3.6 3.6 0 0 1 2.94 2.94c.46 2.61.6 5.27.4 7.92L26.85 6.76c.75-.06 1.51-.09 2.3-.09ZM9.99 37.84a3.61 3.61 0 0 1-2.95-2.95c-.46-2.61-.6-5.27-.4-7.92l11.27 11.27c-2.64.2-5.3.06-7.92-.4Zm21.96-5.77a21.63 21.63 0 0 1-12.3 5.97L6.85 25.23a21.65 21.65 0 0 1 5.96-12.3c2.1-2.1 6.06-5.04 12.3-5.97l12.81 12.81a21.65 21.65 0 0 1-5.97 12.3Zm-3.58-15.55a.69.69 0 0 1 0 .97l-2.95 2.95L26.99 22a.69.69 0 0 1-.97.97l-1.57-1.57-3.16 3.15 1.58 1.58a.69.69 0 1 1-.97.97l-1.58-1.58-2.95 2.95a.69.69 0 1 1-.97-.97l2.95-2.95L17.77 23a.69.69 0 1 1 .98-.97l1.57 1.57 3.15-3.15-1.57-1.58a.69.69 0 1 1 .97-.97l1.57 1.57 2.95-2.94a.69.69 0 0 1 .98 0Z"/></svg>