<svg xmlns="http://www.w3.org/2000/svg" width="56" height="56" fill="none"><g fill="#fff" stroke="#000" clip-path="url(#a)"><path d="M55.86 33.05a24.66 24.66 0 0 0-21.77-11.62 17.82 17.82 0 0 0-3.94-5.94 17.56 17.56 0 0 0-12.48-5.16c-4.7 0-9.14 1.83-12.48 5.16A17.56 17.56 0 0 0 0 28c0 4.73 1.84 9.17 5.2 12.51a17.73 17.73 0 0 0 20.35 3.31 24.72 24.72 0 0 0 21.52-1.34 24.84 24.84 0 0 0 8.79-8.44.94.94 0 0 0 0-.99ZM32.12 21.6a24.7 24.7 0 0 0-5.79 1.37c.68-2 1.75-3.85 3.16-5.44a15.97 15.97 0 0 1 2.63 4.07Zm-13.5-9.36c3.55.2 6.89 1.59 9.55 3.96a17.6 17.6 0 0 0-4.05 7.72 24.33 24.33 0 0 0-4.9 3.15h-.6V12.23Zm-1.88 0v14.83h-5.06a17.52 17.52 0 0 0-4.5-10.87c2.66-2.37 6-3.76 9.56-3.96ZM5.85 17.5c2.37 2.66 3.75 6 3.96 9.55H1.9c.2-3.55 1.59-6.89 3.95-9.55ZM1.9 28.94h7.9a15.66 15.66 0 0 1-3.95 9.55c-2.36-2.67-3.74-6-3.95-9.55Zm14.84 14.83c-3.56-.2-6.9-1.59-9.56-3.96a17.52 17.52 0 0 0 4.5-10.87h5.06v.48a24.73 24.73 0 0 0-2.76 3.63.94.94 0 0 0 0 1c.8 1.29 1.73 2.5 2.76 3.62v6.1Zm-.86-10.22c.93-1.4 2-2.7 3.21-3.86v7.72a22.94 22.94 0 0 1-3.2-3.86Zm2.73 10.22v-4.26a24.73 24.73 0 0 0 4.69 3.26c-1.5.57-3.08.9-4.69 1Zm30.26-4.74a22.79 22.79 0 0 1-27.9 0V28.07a22.8 22.8 0 0 1 13.95-4.77 22.79 22.79 0 0 1 13.95 4.77v10.96Zm1.87-1.62v-7.72a22.95 22.95 0 0 1 3.21 3.86c-.92 1.4-2 2.7-3.2 3.86Z"/><path d="M46.71 32.61h-1.8v-1.3a.94.94 0 1 0-1.88 0v1.3h-2.65v-1.3a.94.94 0 0 0-1.87 0v1.3h-2.66v-1.3a.94.94 0 1 0-1.87 0v1.3h-2.65v-1.3a.94.94 0 0 0-1.87 0v1.3H26.8v-1.3a.94.94 0 1 0-1.87 0v1.3h-1.8a.94.94 0 1 0 0 1.87h1.8v1.3a.94.94 0 0 0 1.87 0v-1.3h2.66v1.3a.94.94 0 1 0 1.87 0v-1.3h2.65v1.3a.94.94 0 0 0 1.87 0v-1.3h2.66v1.3a.94.94 0 1 0 1.87 0v-1.3h2.65v1.3a.94.94 0 0 0 1.87 0v-1.3h1.81a.94.94 0 0 0 0-1.87Z"/></g><defs><clipPath id="a"><path fill="#fff" d="M0 0h56v56H0z"/></clipPath></defs></svg>