<svg width="45" height="45" viewBox="0 0 45 45" fill="none" xmlns="http://www.w3.org/2000/svg">
<path d="M34.7757 10.3468C33.1825 8.74549 31.2876 7.47605 29.2006 6.61194C27.1137 5.74782 24.876 5.30617 22.6172 5.31257H22.5846C18.6098 5.32125 14.7609 6.70731 11.6931 9.23475C8.62537 11.7622 6.52846 15.2748 5.75939 19.1745C4.99032 23.0742 5.59664 27.1199 7.47511 30.6228C9.35358 34.1257 12.3881 36.8692 16.062 38.3863C19.7358 39.9034 23.822 40.1003 27.6247 38.9434C31.4274 37.7865 34.7116 35.3473 36.9181 32.0412C39.1246 28.7351 40.117 24.7664 39.7264 20.8109C39.3358 16.8553 37.5862 13.1574 34.7757 10.3468ZM11.4316 11.3282C14.2122 8.53274 17.9425 6.8854 21.8816 6.71335C21.7082 10.6491 20.0608 14.3757 17.2667 17.153C14.4866 19.9458 10.7587 21.5923 6.8219 21.7662C6.99937 17.8329 8.64402 14.1088 11.4316 11.3282ZM6.82018 23.1429C11.1233 22.9697 15.2021 21.1771 18.2396 18.1241C21.2951 15.0876 23.0886 11.0074 23.26 6.70304C27.2286 6.86109 30.992 8.50843 33.8004 11.3169C36.6089 14.1253 38.2562 17.8887 38.4142 21.8573C34.113 22.0406 30.0371 23.8315 26.9929 26.8758C23.9487 29.92 22.1578 33.9958 21.9744 38.2971C18.0058 38.139 14.2424 36.4917 11.434 33.6833C8.62558 30.8748 6.97824 27.1115 6.82018 23.1429ZM33.8046 33.6805C31.024 36.476 27.2937 38.1233 23.3546 38.2954C23.5374 34.3601 25.1827 30.6347 27.9683 27.8489C30.7538 25.063 34.4789 23.4173 38.4142 23.234C38.2384 27.1705 36.593 30.8981 33.8028 33.6805H33.8046Z" fill="white" stroke="black" stroke-width="0.5"/>
</svg>
