<svg xmlns="http://www.w3.org/2000/svg" width="45" height="45" fill="none"><path fill="#fff" stroke="#000" stroke-width=".5" d="M34.78 10.35A17.08 17.08 0 0 0 22.62 5.3h-.04a17.19 17.19 0 1 0 12.2 5.04Zm-23.35.98A15.7 15.7 0 0 1 21.88 6.7a15.7 15.7 0 0 1-4.61 10.44 15.72 15.72 0 0 1-10.45 4.62 15.75 15.75 0 0 1 4.61-10.44ZM6.82 23.14c4.3-.17 8.38-1.96 11.42-5.02A17.06 17.06 0 0 0 23.26 6.7a15.8 15.8 0 0 1 15.15 15.16A17.19 17.19 0 0 0 21.97 38.3 15.8 15.8 0 0 1 6.82 23.14ZM33.8 33.68a15.7 15.7 0 0 1-10.45 4.62 15.81 15.81 0 0 1 15.06-15.07 15.75 15.75 0 0 1-4.6 10.45Z"/></svg>