<svg xmlns="http://www.w3.org/2000/svg" width="45" height="45" fill="none"><path fill="#fff" stroke="#000" stroke-width=".5" d="M22.85 5.31a17.19 17.19 0 1 0 0 34.38 17.19 17.19 0 0 0 0-34.38Zm14.61 23.24a15.81 15.81 0 0 1-17.56.44l3.35-5.8h15.4a15.75 15.75 0 0 1-1.19 5.36ZM15.55 8.48c1.64-.86 3.4-1.42 5.24-1.66a15.81 15.81 0 0 1 9.16 15h-6.7l-7.7-13.34Zm23.1 13.33h-7.33a17.2 17.2 0 0 0-7.9-15.11 15.83 15.83 0 0 1 15.23 15.11ZM14.35 9.17l3.67 6.34a17.2 17.2 0 0 0-9.14 14.4 15.8 15.8 0 0 1 5.48-20.74ZM10.3 32.1a15.81 15.81 0 0 1 8.4-15.41l3.36 5.8-7.7 13.33c-1.56-1-2.93-2.25-4.06-3.72Zm12.55 6.2a15.7 15.7 0 0 1-7.3-1.79l3.66-6.34a17.2 17.2 0 0 0 17.03.72 15.81 15.81 0 0 1-13.39 7.41Z"/></svg>