<svg width="202" height="108" viewBox="0 0 202 108" fill="none" xmlns="http://www.w3.org/2000/svg">
<path fill-rule="evenodd" clip-rule="evenodd" d="M32.218 14.3082C32.2177 14.5023 32.1783 14.6943 32.1021 14.8735C32.0259 15.0526 31.9143 15.2153 31.7738 15.3523C31.6333 15.4893 31.4666 15.5979 31.2832 15.6718C31.0998 15.7458 30.9033 15.7837 30.7049 15.7834C30.5065 15.7831 30.3101 15.7445 30.127 15.67C29.9438 15.5954 29.7775 15.4863 29.6374 15.3489C29.4974 15.2115 29.3864 15.0484 29.3107 14.8691C29.2351 14.6897 29.1964 14.4975 29.1967 14.3034C29.1969 14.1094 29.2363 13.9174 29.3124 13.7382C29.3886 13.5591 29.5001 13.3964 29.6406 13.2594C29.781 13.1224 29.9477 13.0138 30.1311 12.9399C30.3145 12.8659 30.5109 12.828 30.7093 12.8283C30.9079 12.8281 31.1045 12.8663 31.2879 12.9406C31.4713 13.015 31.6379 13.1241 31.7781 13.2616C31.9183 13.3991 32.0293 13.5624 32.1048 13.742C32.1803 13.9216 32.2188 14.114 32.218 14.3082ZM17.3752 19.5129C18.119 18.637 18.7058 17.6462 19.1232 16.5832L19.1183 16.5789H22.7401C22.2437 18.0565 21.4922 19.4401 20.5183 20.6697C20.5183 20.6697 22.1621 23.4803 22.536 25.0071H18.7449C18.4696 23.8217 18.0075 22.6854 17.3752 21.639V25.0114H14.21V14.1129L17.3752 13.5003V19.5129ZM23.1707 20.2739C23.1707 17.8037 24.6094 16.5578 27.4443 16.4683V16.464C27.7139 16.4515 27.9875 16.4683 28.2576 16.5066V18.9687C26.4616 19.028 26.262 19.666 26.262 21.146V25.0114H23.1707V20.2739ZM8.89992 17.7821H8.90579H8.90139C11.7446 17.965 13.4407 19.3257 13.4407 21.4221C13.4407 23.2721 11.9276 25.1344 8.54514 25.1344C7.16857 25.1559 5.79494 25.003 4.45848 24.6797V21.9879C5.55337 22.4126 6.7194 22.6346 7.89722 22.6427C9.12307 22.6427 9.85369 22.2473 9.85369 21.571C9.85369 20.7602 8.97431 20.7047 8.63469 20.6827H8.62784C4.66694 20.4189 4.24071 18.1311 4.24071 17.157C4.24071 15.4689 5.46705 13.5003 8.92341 13.5003C10.2926 13.462 11.6541 13.6745 12.9406 14.1254L12.9885 14.1378V16.7449L12.9538 16.7363C12.5794 16.5832 12.1405 16.43 12.1405 16.43C11.2512 16.1549 10.3289 15.9948 9.39711 15.9538C8.9102 15.9538 7.61926 15.9538 7.61926 16.9106C7.61926 17.6974 8.5099 17.7568 8.89992 17.7821ZM32.24 25.0114H29.1747V16.5918H32.24V25.0114ZM38.0179 25.0114V14.0364L41.0872 13.5003V25.0114H38.0179ZM36.6051 13.5003L33.5398 14.0364V25.0114H36.6051V13.5003ZM5.76262 29.0597H5.78856V35.3106H7.61486V27.418H6.04939L3.91479 28.3877L4.22309 29.7738L5.76262 29.0597ZM13.3795 31.5131V32.738H10.1277V31.5127L13.3795 31.5131ZM13.2538 28.6854H15.497V35.3145H17.3967V28.6854H19.684V27.1289H13.2538V28.6854ZM23.2617 35.3145L23.1492 34.7195H23.11C22.7141 35.1914 22.0921 35.447 21.3708 35.447C20.1406 35.447 19.4099 34.5707 19.4099 33.6268C19.4099 32.0832 20.8271 31.3432 22.9749 31.3557V31.271C22.9749 30.956 22.8012 30.5051 21.8705 30.5051C21.249 30.5051 20.5922 30.7138 20.1924 30.956L19.845 29.7657C20.2663 29.5359 21.0968 29.2425 22.2057 29.2425C24.2316 29.2425 24.8746 30.4075 24.8746 31.8066V33.8733C24.8746 34.4429 24.9011 34.9914 24.9618 35.3188H23.2617V35.3145ZM23.04 32.5082C22.0491 32.4953 21.2749 32.725 21.2749 33.444C21.2749 33.9159 21.5969 34.1495 22.0187 34.1495C22.4924 34.1495 22.8751 33.8479 23.0009 33.4693C23.0273 33.3712 23.04 33.2611 23.04 33.1544V32.5082ZM26.3227 29.3784C26.3442 29.9227 26.3706 30.5903 26.3706 31.3686L26.375 31.3643V37.7172H28.2615V34.7664H28.2879C28.562 35.1531 29.1311 35.4465 29.8661 35.4465C31.2182 35.4465 32.6227 34.4261 32.6227 32.266C32.6227 30.3735 31.4311 29.2425 30.101 29.2425C29.2182 29.2425 28.5223 29.5699 28.0751 30.2036H28.0486L27.9615 29.3784H26.3227ZM28.2968 33.1501C28.2689 33.023 28.2557 32.8933 28.2576 32.7633V31.9511C28.2576 31.841 28.2703 31.7214 28.2968 31.6237C28.4225 31.0752 28.8923 30.6885 29.4272 30.6885C30.2703 30.6885 30.7049 31.4026 30.7049 32.3508C30.7049 33.3588 30.218 34.026 29.4008 34.026C28.8527 34.026 28.4225 33.6479 28.2968 33.1501ZM34.035 27.5415H32.9178V26.7675H36.1172V27.5415H34.9795V30.8411H34.035V27.5415ZM40.1158 29.2382L40.1173 29.2851V29.2889L40.178 30.8498H41.0999L40.8699 26.7761H39.6392L39.1958 28.1283C39.0608 28.583 38.9174 29.119 38.7999 29.591H38.7828C38.6849 29.1005 38.5674 28.614 38.4305 28.1326L38.0218 26.7718H36.7656L36.5004 30.8455H37.37L37.4439 29.2976C37.462 28.9922 37.4757 28.6437 37.4894 28.2958C37.4982 28.0627 37.5075 27.8296 37.5178 27.6094H37.531C37.6308 28.1407 37.7742 28.7237 37.9093 29.1999L38.3526 30.7775H39.0872L39.5961 29.187C39.7571 28.7108 39.9308 28.1283 40.061 27.6094H40.0786C40.0786 28.1862 40.0987 28.7586 40.1158 29.2382Z" fill="#852268"/>
<mask id="mask0_139_16" style="mask-type:luminance" maskUnits="userSpaceOnUse" x="54" y="13" width="65" height="18">
<path d="M118.658 13.9106H54.166V30.134H118.658V13.9106Z" fill="white"/>
</mask>
<g mask="url(#mask0_139_16)">
<path d="M62.7155 20.169V19.9915C62.7155 17.9483 61.8179 16.972 60.4045 16.972C58.991 16.972 58.071 18.0154 58.071 19.9691V20.1467C58.071 22.1228 58.9459 23.1225 60.4045 23.1225C61.8631 23.1225 62.7155 22.0792 62.7155 20.169ZM61.8406 13.9739C64.5782 13.9739 66.8 16.0169 66.8 19.9915V20.169C66.8 24.1658 64.5782 26.1643 61.8179 26.1643C60.0455 26.1643 58.7664 25.3432 58.1827 24.1882V29.7835H54.166V14.2844H58.1827V16.0159C58.8556 14.9066 60.0681 13.9739 61.8406 13.9739Z" fill="white"/>
<path d="M76.3866 20.0835V19.9059C76.3866 17.8852 75.5342 16.9088 74.1874 16.9088C72.774 16.9088 71.9431 17.9074 71.9431 19.9282V20.1058C71.9431 22.0595 72.7955 23.0593 74.1197 23.0593C75.4439 23.0593 76.3866 22.0606 76.3866 20.0835ZM67.8586 20.1505V19.9729C67.8597 16.0197 70.1481 13.9106 72.774 13.9106C74.5465 13.9106 75.602 14.6657 76.2748 15.842V14.2212H80.2916V25.8341H76.2748V23.9687C75.6686 25.146 74.4347 26.1 72.7514 26.1C70.1481 26.1 67.8597 24.1686 67.8597 20.1494" fill="white"/>
<path d="M88.3254 20.4797L90.5697 14.2845H94.407L88.1233 29.7837H84.2861L86.2391 24.7212L81.5483 14.2845H85.9015L88.3254 20.4797Z" fill="white"/>
<path d="M94.6141 25.8975V23.145L99.9552 17.2827H95.2655L95.243 14.2845H104.645V17.2157L99.5284 22.878H105.026V25.8975H94.6141Z" fill="white"/>
<path d="M106.92 24.339C106.968 21.1409 109.415 18.5203 112.742 18.5203C116.069 18.5203 118.658 21.1409 118.658 24.339C118.658 27.5371 116.14 30.1343 112.742 30.1343C109.344 30.1343 106.92 27.5615 106.92 24.339Z" fill="#D0FA02"/>
</g>
<path fill-rule="evenodd" clip-rule="evenodd" d="M144.544 11.6941H142.133V25.5125H144.544V11.6941ZM130.892 22.6571L134.23 15.0267L136.065 19.2181L130.892 22.6571ZM141.293 25.5285L138.945 20.1665L141.233 18.6453L140.06 16.5617L137.974 17.9487L135.688 12.7289C135.548 12.409 135.335 12.1438 135.071 11.9614C134.805 11.7783 134.5 11.6857 134.189 11.6947C133.877 11.7034 133.576 11.8131 133.318 12.0114C133.072 12.201 132.876 12.4658 132.749 12.7785L128.169 23.2513L128.158 23.2796C127.853 24.0749 128.055 24.9759 128.66 25.5224C129.254 26.0586 130.072 26.1042 130.71 25.6421L137.037 21.4359L138.829 25.5289L141.293 25.5285ZM148.427 18.1556H152.009C153.853 18.1556 154.474 17.0855 154.474 15.8786C154.474 14.6717 153.853 13.6794 152.027 13.6794H148.427V18.1556ZM152.47 11.6941C155.91 11.6941 157.01 13.7183 157.01 15.8592C157.01 17.4744 156.247 19.1483 154.19 19.7322L157.435 25.5125H154.704L151.69 20.0826H148.427V25.5125H146.015V11.6941H152.47ZM157.736 13.835H162.329V25.5125H164.742V13.835H169.335V11.6941H157.736V13.835ZM173.993 11.6941H170.428L170.428 25.5125H172.609V15.5089C172.609 14.886 172.574 14.3214 172.521 13.835H172.591C172.662 14.2051 172.84 14.9252 173.017 15.4505L176.599 25.5129H178.869L182.451 15.4505C182.647 14.9249 182.859 14.1464 182.913 13.835H182.984C182.93 14.3412 182.895 14.9443 182.895 15.5089V25.5125H185.147V11.6941H181.547L178.16 21.328C177.965 21.9116 177.859 22.2619 177.788 22.7293H177.752C177.689 22.3141 177.598 22.0065 177.454 21.5192C177.436 21.4585 177.417 21.3949 177.398 21.328L173.993 11.6941Z" fill="#FDFDFD"/>
<path d="M5.41198 51.9248C5.58514 51.8469 5.76618 51.7888 5.94983 51.7505C6.11148 50.9273 6.5336 50.1906 7.14361 49.6672C7.75884 49.1385 8.52202 48.8512 9.30815 48.8523C10.0979 48.8523 10.8627 49.14 11.474 49.6686C12.0853 50.1958 12.5064 50.9314 12.6665 51.7505C13.1361 51.8228 13.5716 52.0538 13.9101 52.4081C13.9167 52.1003 13.9027 51.7925 13.8681 51.4869C13.7737 50.2429 13.2367 49.0867 12.37 48.2613C11.4936 47.4264 10.3582 46.9791 9.19008 47.0085C8.02199 47.0339 6.90589 47.535 6.06528 48.4116C5.23468 49.2784 4.74792 50.4597 4.70752 51.7066V52.4081C4.9266 52.2224 5.16273 52.0595 5.41198 51.9248Z" fill="white"/>
<path d="M12.0016 52.2763H6.48927C6.19936 52.2706 5.91206 52.3471 5.66019 52.496C5.40307 52.5937 5.17481 52.7596 4.9964 52.9778C4.61072 53.5206 4.41919 54.1895 4.45855 54.8669V59.4317C4.42837 60.1219 4.61728 60.8022 4.9964 61.3634C5.19318 61.559 5.41619 61.7219 5.66019 61.8452C5.91862 61.9799 6.20067 62.055 6.48927 62.0663H12.0016C13.4119 62.0663 14.1583 61.2316 14.1583 59.5635V54.7791C14.1583 53.111 13.4525 52.3202 12.0016 52.2763ZM78.5316 54.4729V59.8286C78.5256 60.1181 78.5782 60.4055 78.6856 60.6708C78.793 60.9362 78.9526 61.173 79.1534 61.3648C79.3783 61.581 79.6407 61.7467 79.9253 61.8523C80.21 61.9579 80.5113 62.0013 80.8116 61.9799H84.086V61.0133H80.8523C80.6735 61.0198 80.4955 60.9838 80.331 60.9078C80.1664 60.8319 80.0193 60.718 79.8999 60.574C79.6575 60.286 79.5241 59.9102 79.526 59.521V54.6926C79.5169 54.5115 79.5457 54.3305 79.6105 54.1631C79.6752 53.9957 79.7742 53.8463 79.8999 53.7261C80.0183 53.5958 80.1605 53.4934 80.3174 53.4256C80.4744 53.3578 80.6427 53.326 80.8116 53.3321H84.044V52.3216H80.8116C80.2672 52.3273 79.7359 52.4945 79.2768 52.8035C79.022 52.9819 78.8173 53.2324 78.6851 53.5277C78.5539 53.8224 78.5015 54.1484 78.5316 54.4729ZM93.6191 54.2547C93.6149 53.9667 93.5577 53.6825 93.451 53.4185C93.3442 53.1545 93.19 52.9161 92.9973 52.717C92.8526 52.5162 92.6475 52.3764 92.4175 52.3216C92.1582 52.2682 91.8933 52.2539 91.6304 52.2791H86.4486V53.2882H91.4218C92.4581 53.2882 92.6247 53.9018 92.6247 54.2972V55.5259H88.5213C87.1111 55.5259 86.4486 56.4046 86.4486 58.2923V59.6968C86.4486 60.3033 86.6716 60.8872 87.0704 61.3209C87.251 61.5442 87.4742 61.7226 87.7246 61.844C87.975 61.9653 88.2468 62.0267 88.5213 62.0238H91.6304C91.8873 62.0177 92.1406 61.9563 92.3753 61.8431C92.61 61.7299 92.8215 61.5673 92.9973 61.3648C93.1919 61.1677 93.3474 60.9298 93.4543 60.6657C93.5612 60.4016 93.6173 60.1168 93.6191 59.8286V54.2547ZM92.6247 59.7407C92.6162 59.9435 92.5588 60.1404 92.4581 60.3118C92.4007 60.4556 92.3157 60.5847 92.2087 60.6904C92.1018 60.7962 91.9753 60.8763 91.8376 60.9255C91.5976 61.0105 91.3431 61.0388 91.0912 61.0133H89.0185C88.6476 61.0423 88.2761 60.9672 87.9402 60.7951C87.7832 60.6671 87.6557 60.5017 87.5676 60.3118C87.4967 60.1457 87.4545 59.9671 87.443 59.7846V57.9423C87.443 57.4136 87.6502 56.5803 88.9778 56.5803H92.6654L92.6247 59.7407ZM98.5923 53.3307H99.0488V52.2763H98.469C98.1843 52.2513 97.8978 52.289 97.627 52.3872C97.3561 52.4853 97.1066 52.6419 96.8935 52.8474C96.6036 53.1549 96.4789 53.7261 96.4789 54.5594V61.9784H97.4326V54.6033C97.414 54.4347 97.431 54.2637 97.4824 54.1031C97.5337 53.9426 97.6181 53.7967 97.7291 53.6765C97.8409 53.5542 97.9761 53.4599 98.1252 53.4002C98.2743 53.3404 98.4338 53.3167 98.5923 53.3307ZM108.086 48.6766H107.132V52.2763H103.277C101.785 52.2763 101.081 52.9778 101.081 54.4701V59.7393C101.059 60.0254 101.093 60.3132 101.178 60.585C101.264 60.8567 101.4 61.1067 101.578 61.3194C101.77 61.5391 102.001 61.7146 102.257 61.8351C102.514 61.9557 102.79 62.0189 103.07 62.021H106.096C106.366 62.0266 106.634 61.9657 106.878 61.8438C107.122 61.7219 107.337 61.5434 107.505 61.3194C107.908 60.8376 108.118 60.2069 108.086 59.5621V48.6766ZM107.132 59.5182C107.142 59.7124 107.114 59.9066 107.049 60.0883C106.985 60.2699 106.886 60.4349 106.759 60.5726C106.637 60.7138 106.49 60.826 106.326 60.9017C106.161 60.9773 105.985 61.0149 105.806 61.0119H103.112C102.961 61.0158 102.812 60.9821 102.675 60.9135C102.539 60.8449 102.419 60.7433 102.324 60.6165C102.126 60.3587 102.022 60.0307 102.033 59.6953V54.7351C102.033 53.8125 102.49 53.3293 103.319 53.3293H107.132V59.5182ZM23.1943 55.3502C23.1943 54.9548 23.0277 54.7791 22.6958 54.7791H20.9563C20.826 54.7782 20.6984 54.8188 20.5892 54.8956C20.4801 54.9724 20.3942 55.0822 20.3423 55.2113C20.3094 55.2966 20.2929 55.3882 20.2938 55.4806V58.8181C20.2938 59.2999 20.543 59.5196 20.9982 59.5196H22.6144C22.6936 59.5156 22.7713 59.4942 22.8425 59.4567C22.9138 59.4192 22.9773 59.3663 23.029 59.3014C23.0863 59.2566 23.1318 59.1964 23.161 59.1268C23.1902 59.0572 23.2021 58.9806 23.1956 58.9045V55.3502H23.1943ZM17.9298 54.8669C17.9238 54.1647 18.1436 53.482 18.5516 52.9353C18.7484 52.7397 18.9714 52.5767 19.2141 52.4534C19.4733 52.3184 19.7556 52.2431 20.0432 52.2323H23.2769C24.6858 52.2323 25.4323 53.0671 25.4323 54.7351V59.7832C25.4376 60.0707 25.3803 60.3556 25.265 60.6148C25.1497 60.874 24.9796 61.1004 24.7685 61.2755C24.3684 61.7004 23.8373 61.9507 23.2769 61.9784H20.2085V65.6221H17.9285L17.9298 54.8669ZM29.5357 59.0817C29.5321 59.151 29.5457 59.22 29.5749 59.2818C29.6042 59.3436 29.6482 59.3958 29.7023 59.4332C29.8245 59.5225 29.9693 59.5685 30.1168 59.565H31.8577C32.2302 59.565 32.4375 59.3892 32.4795 59.0831V58.3802C32.4795 57.9834 32.2722 57.809 31.8577 57.809H30.1155C29.9541 57.7926 29.7925 57.8394 29.6603 57.9408C29.5592 58.0936 29.5148 58.2817 29.5357 58.468V59.0817ZM32.4795 55.3063C32.4795 54.9562 32.2722 54.7805 31.8577 54.7805H27.2977V52.3216H32.4375C33.929 52.3656 34.6755 53.1124 34.7175 54.6033V59.7407C34.728 60.3402 34.5207 60.9226 34.1376 61.3648C33.947 61.5837 33.715 61.7558 33.4575 61.8695C33.1999 61.9832 32.9228 62.0358 32.6448 62.0238H29.5357C28.0441 62.0238 27.2557 61.2769 27.2557 59.8271V57.8544C27.2557 56.3181 28.0035 55.5727 29.453 55.5273H32.4795V55.3063ZM41.0589 63.2086C41.2315 63.2012 41.3949 63.1226 41.5154 62.9889C41.5671 62.9392 41.6085 62.8783 41.637 62.8102C41.6655 62.7421 41.6804 62.6683 41.6807 62.5935V62.0224H38.7789C38.4705 62.0311 38.1627 61.9866 37.8672 61.8906C37.5975 61.7774 37.3561 61.5973 37.1627 61.3648C36.9593 61.115 36.7917 60.8336 36.6655 60.5301C36.5595 60.221 36.5036 59.8945 36.5003 59.565V52.2777H38.7789V58.7742C38.7789 59.3014 38.9862 59.565 39.402 59.565H41.0182C41.1104 59.5655 41.2018 59.5463 41.2871 59.5086C41.3724 59.471 41.45 59.4154 41.5154 59.3453C41.6296 59.2478 41.704 59.1059 41.7227 58.9499V52.2777H43.9607V62.9889C43.9856 63.6833 43.7797 64.3679 43.3809 64.9206C43.1972 65.1629 42.9637 65.3571 42.6987 65.4874C42.431 65.617 42.1392 65.6781 41.846 65.666H36.5409V63.2086H41.0589ZM45.7015 59.565H49.7223C50.0949 59.565 50.3021 59.3892 50.3021 59.0817V58.862C50.3051 58.7863 50.2912 58.711 50.2615 58.6424C50.2341 58.5699 50.1887 58.5069 50.1304 58.4604C50.0721 58.414 50.0031 58.3857 49.9309 58.3788H47.9408C47.3689 58.3871 46.8171 58.1507 46.406 57.7212C46.2086 57.5512 46.0471 57.3376 45.9324 57.0948C45.8178 56.8529 45.7533 56.5869 45.7435 56.3153V54.4729C45.7842 53.0231 46.4899 52.3216 47.9408 52.2763H52.6241V54.7351H48.6453C48.1888 54.7351 47.9408 54.8669 47.9408 55.1745V55.3941C47.9408 55.7017 48.1901 55.876 48.6453 55.876H50.634C50.8938 55.8731 51.1509 55.9312 51.3883 56.046C51.6245 56.1594 51.8344 56.3266 52.0023 56.535C52.3696 56.936 52.5782 57.4703 52.5821 58.0273V59.8271C52.5401 60.394 52.304 60.924 51.9196 61.3209C51.7437 61.5356 51.533 61.7138 51.2978 61.8467C51.004 61.9501 50.6944 61.9955 50.3861 61.9784H45.7028L45.7015 59.565ZM56.5203 59.0817C56.5165 59.151 56.53 59.2201 56.5593 59.2819C56.5886 59.3437 56.6326 59.3959 56.6869 59.4332C56.809 59.5225 56.9539 59.5685 57.1014 59.565H58.8422C59.2148 59.565 59.422 59.3892 59.464 59.0831V58.3802C59.464 57.9834 59.2568 57.809 58.8422 57.809H57.1014C56.9395 57.7922 56.7774 57.839 56.6449 57.9408C56.5437 58.0935 56.4992 58.2816 56.5203 58.468V59.0817ZM59.464 55.3063C59.464 54.9562 59.2568 54.7805 58.8422 54.7805H54.2823V52.3216H59.422C60.9149 52.3656 61.66 53.1124 61.702 54.6033V59.7407C61.7125 60.3402 61.5053 60.9226 61.1222 61.3648C60.9327 61.5854 60.701 61.7586 60.4431 61.8725C60.1853 61.9863 59.9076 62.0379 59.6293 62.0238H56.5203C55.0287 62.0238 54.2403 61.2769 54.2403 59.8271V57.8544C54.2403 56.3181 54.988 55.5727 56.4376 55.5273H59.464V55.3063ZM63.5255 50.9172C63.5191 50.6124 63.5795 50.3103 63.702 50.0357C63.8244 49.761 64.0054 49.5216 64.2299 49.337C64.7264 48.9196 65.342 48.7022 65.9708 48.7219H67.4217V51.0915H66.5519C66.4579 51.0778 66.3622 51.0859 66.2713 51.1152C66.1804 51.1446 66.0963 51.1944 66.0245 51.2616C65.9543 51.3278 65.8983 51.4098 65.8605 51.5018C65.8226 51.5939 65.8039 51.6937 65.8055 51.7944V52.3216H67.4217V54.7791H65.8055V62.0649H63.5255V50.9172ZM73.8064 55.2623V55.2198C73.8095 55.1564 73.7954 55.0933 73.7658 55.0385C73.7362 54.9836 73.6924 54.9392 73.6398 54.9109C73.5304 54.8281 73.4007 54.7823 73.2672 54.7791H71.693C71.6032 54.7706 71.5128 54.7818 71.4272 54.812C71.3415 54.8422 71.2624 54.8907 71.1945 54.9548C71.1224 54.9999 71.0619 55.0637 71.0184 55.1404C70.9749 55.2171 70.9497 55.3043 70.9453 55.3941V56.4032L73.8064 55.2623ZM71.0292 58.7302V58.862C71.0211 58.9506 71.0318 59.04 71.0604 59.1235C71.0891 59.207 71.1349 59.2824 71.1945 59.3439C71.2772 59.4771 71.3598 59.565 71.4844 59.565H76.1283V62.0224H71.1945C70.8448 62.0362 70.4953 61.9917 70.1582 61.8906C69.88 61.7902 69.6254 61.6258 69.4117 61.4087C69.1908 61.1907 69.02 60.9199 68.9132 60.6179C68.8188 60.2466 68.7772 59.8619 68.7899 59.4771V54.5594C68.8319 53.0671 69.5363 52.3202 70.9872 52.2777H74.0543C75.4645 52.3202 76.169 53.0671 76.2097 54.6473V56.5789L71.0292 58.7302Z" fill="white"/>
<mask id="mask1_139_16" style="mask-type:luminance" maskUnits="userSpaceOnUse" x="120" y="43" width="22" height="22">
<path d="M141.5 43.7227H120.5V64.7911H141.5V43.7227Z" fill="white"/>
</mask>
<g mask="url(#mask1_139_16)">
<path d="M131 63.6509C136.172 63.6509 140.364 59.4451 140.364 54.2569C140.364 49.0687 136.172 44.8628 131 44.8628C125.829 44.8628 121.637 49.0687 121.637 54.2569C121.637 59.4451 125.829 63.6509 131 63.6509Z" fill="white"/>
<path d="M131 43.7227C128.923 43.7227 126.893 44.3405 125.167 45.4981C123.44 46.6556 122.094 48.3008 121.299 50.2257C120.505 52.1505 120.297 54.2686 120.702 56.312C121.107 58.3554 122.107 60.2325 123.575 61.7057C125.044 63.1789 126.915 64.1822 128.952 64.5887C130.988 64.9951 133.1 64.7866 135.018 63.9893C136.937 63.192 138.577 61.8417 139.73 60.1094C140.884 58.377 141.5 56.3404 141.5 54.2569C141.504 52.8776 141.237 51.5109 140.715 50.235C140.192 48.9591 139.424 47.799 138.455 46.8208C137.486 45.8426 136.334 45.0655 135.065 44.534C133.797 44.0024 132.436 43.7267 131.061 43.7227H131ZM131.178 54.614L130.085 58.3125H135.932C135.971 58.3111 136.01 58.3174 136.046 58.331C136.082 58.3446 136.115 58.3653 136.144 58.3919C136.172 58.4184 136.195 58.4503 136.211 58.4857C136.227 58.521 136.236 58.5593 136.237 58.5981V58.695L135.729 60.455C135.706 60.5383 135.656 60.6113 135.587 60.6623C135.518 60.7133 135.433 60.7391 135.347 60.7356H126.398L127.898 55.6088L126.22 56.1189L126.602 54.9456L128.28 54.4355L130.39 47.2426C130.413 47.1599 130.463 47.0873 130.532 47.0364C130.601 46.9856 130.686 46.9594 130.771 46.962H133.034C133.073 46.9607 133.111 46.967 133.148 46.9806C133.184 46.9942 133.217 47.0149 133.245 47.0414C133.274 47.068 133.297 47.0998 133.313 47.1352C133.329 47.1706 133.338 47.2089 133.339 47.2477V47.3446L131.559 53.4152L133.237 52.905L132.881 54.1294L131.178 54.614Z" fill="#345D9D"/>
</g>
<path fill-rule="evenodd" clip-rule="evenodd" d="M153.509 45.1805L149.487 53.8943C149.472 53.9267 149.467 53.9633 149.473 53.9988C149.48 54.0343 149.497 54.0667 149.522 54.0914L160.385 64.8274C160.416 64.858 160.457 64.875 160.5 64.875C160.543 64.875 160.584 64.858 160.615 64.8274L171.478 54.0921C171.503 54.0674 171.52 54.0349 171.527 53.9995C171.533 53.964 171.528 53.9274 171.513 53.895L167.491 45.1812C167.478 45.1519 167.457 45.1271 167.431 45.1098C167.404 45.0924 167.374 45.0833 167.342 45.0833H153.659C153.627 45.0829 153.597 45.0919 153.57 45.1091C153.544 45.1264 153.523 45.1512 153.509 45.1805Z" fill="#50AF95"/>
<path fill-rule="evenodd" clip-rule="evenodd" d="M161.847 54.6753C161.771 54.6809 161.383 54.7041 160.516 54.7041C159.827 54.7041 159.337 54.6835 159.166 54.6753C156.501 54.5582 154.513 54.0949 154.513 53.5402C154.513 52.9855 156.501 52.5228 159.166 52.4038V54.2139C159.34 54.2264 159.839 54.2558 160.528 54.2558C161.355 54.2558 161.769 54.2214 161.844 54.2145V52.4051C164.503 52.5234 166.487 52.9867 166.487 53.5402C166.487 54.0937 164.503 54.557 161.844 54.6747L161.847 54.6753ZM161.847 52.2179V50.5982H165.557V48.1282H155.455V50.5982H159.165V52.2173C156.15 52.3556 153.882 52.9523 153.882 53.6673C153.882 54.3823 156.15 54.9783 159.165 55.1173V60.3077H161.846V55.1155C164.854 54.9771 167.118 54.381 167.118 53.6667C167.118 52.9523 164.856 52.3562 161.846 52.2173L161.847 52.2179Z" fill="white"/>
<mask id="mask2_139_16" style="mask-type:luminance" maskUnits="userSpaceOnUse" x="179" y="45" width="21" height="21">
<path d="M199.656 45.1905H179.5V65.8747H199.656V45.1905Z" fill="white"/>
</mask>
<g mask="url(#mask2_139_16)">
<path d="M199.355 58.0344C198.009 63.5749 192.54 66.9467 187.139 65.5651C181.741 64.1838 178.455 58.5719 179.802 53.0319C181.147 47.4908 186.616 44.1187 192.015 45.4999C197.415 46.8812 200.701 52.4937 199.355 58.0344Z" fill="#F7931A"/>
<path d="M194.023 54.0591C194.223 52.6828 193.202 51.943 191.806 51.4495L192.259 49.5851L191.153 49.3023L190.712 51.1176C190.421 51.0432 190.122 50.9731 189.825 50.9036L190.27 49.0763L189.164 48.7935L188.711 50.6573C188.47 50.6011 188.234 50.5455 188.005 50.487L188.006 50.4811L186.481 50.0903L186.187 51.3024C186.187 51.3024 187.007 51.4954 186.99 51.5073C187.438 51.622 187.519 51.9262 187.505 52.1673L186.989 54.2913C187.02 54.2993 187.06 54.3109 187.104 54.3291C187.067 54.3197 187.028 54.3094 186.987 54.2994L186.264 57.2747C186.209 57.4143 186.07 57.6239 185.757 57.5443C185.768 57.5608 184.953 57.3385 184.953 57.3385L184.404 58.6375L185.844 59.0057C186.111 59.0746 186.374 59.1467 186.632 59.2145L186.175 61.1002L187.279 61.383L187.733 59.5173C188.034 59.6014 188.327 59.6789 188.614 59.752L188.162 61.6089L189.268 61.8917L189.726 60.0095C191.612 60.3757 193.03 60.2281 193.627 58.4777C194.108 57.0684 193.603 56.2556 192.611 55.7255C193.333 55.5545 193.877 55.0665 194.023 54.0591ZM191.496 57.695C191.154 59.1044 188.841 58.3425 188.092 58.1515L188.699 55.6533C189.449 55.8453 191.853 56.2254 191.496 57.695ZM191.838 54.0387C191.526 55.3206 189.601 54.6693 188.977 54.5096L189.527 52.2439C190.152 52.4036 192.162 52.7016 191.838 54.0387Z" fill="white"/>
</g>
<path d="M91.7751 86.0001C91.7751 90.7667 87.997 94.6626 83.2744 94.6626C78.5967 94.6626 74.7736 90.7667 74.7736 86.0001C74.7736 81.2334 78.5517 77.3376 83.2294 77.3376C87.997 77.3376 91.7751 81.2334 91.7751 86.0001Z" fill="#FFB600"/>
<path d="M83.2744 77.3376C87.9521 77.3376 91.7751 81.2334 91.7751 86.0001C91.7751 90.7667 87.997 94.6626 83.2744 94.6626C78.5967 94.6626 74.7736 90.7667 74.7736 86.0001" fill="#F7981D"/>
<path d="M83.2744 77.3376C87.9521 77.3376 91.7752 81.2334 91.7752 86.0001C91.7752 90.7667 87.997 94.6626 83.2744 94.6626" fill="#FF8500"/>
<path d="M71.8499 77.3376C67.2172 77.3834 63.4391 81.2334 63.4391 86.0001C63.4391 90.7667 67.2172 94.6626 71.9399 94.6626C74.1438 94.6626 76.1228 93.7917 77.652 92.4167C77.9669 92.1417 78.2368 91.8209 78.5066 91.5001H76.7525C76.5276 91.2251 76.3028 90.9042 76.1228 90.6292H79.1363C79.3162 90.3542 79.4961 90.0334 79.6311 89.7125H75.6281C75.4932 89.4375 75.3582 89.1167 75.2682 88.7959H79.9459C80.2158 87.9251 80.3957 87.0084 80.3957 86.0459C80.3957 85.4042 80.3057 84.8084 80.2158 84.2125H74.9984C75.0434 83.8917 75.1333 83.6167 75.2233 83.2959H79.9009C79.811 82.9751 79.6761 82.6542 79.5411 82.3792H75.583C75.718 82.0584 75.8979 81.7834 76.0778 81.4625H79.0913C78.9114 81.1417 78.6865 80.8209 78.4167 80.5459H76.7525C77.0224 80.2251 77.2922 79.9501 77.6071 79.6751C76.1228 78.2542 74.0988 77.4292 71.8949 77.4292C71.8949 77.3376 71.8949 77.3376 71.8499 77.3376Z" fill="#FF5050"/>
<path d="M63.4391 86C63.4391 90.7667 67.2172 94.6625 71.9399 94.6625C74.1438 94.6625 76.1228 93.7917 77.652 92.4167C77.9669 92.1417 78.2368 91.8209 78.5066 91.5H76.7525C76.5276 91.225 76.3028 90.9042 76.1228 90.6292H79.1363C79.3162 90.3542 79.4961 90.0333 79.6311 89.7125H75.6281C75.4932 89.4375 75.3582 89.1167 75.2682 88.7959H79.9459C80.2158 87.925 80.3957 87.0083 80.3957 86.0459C80.3957 85.4042 80.3057 84.8083 80.2158 84.2125H74.9984C75.0434 83.8917 75.1333 83.6167 75.2233 83.2959H79.9009C79.811 82.975 79.6761 82.6542 79.5411 82.3792H75.583C75.718 82.0583 75.8979 81.7833 76.0778 81.4625H79.0913C78.9114 81.1417 78.6865 80.8209 78.4167 80.5459H76.7525C77.0224 80.225 77.2922 79.95 77.6071 79.675C76.1228 78.2542 74.0988 77.4292 71.8949 77.4292H71.8499" fill="#E52836"/>
<path d="M71.9401 94.6625C74.1439 94.6625 76.123 93.7917 77.6522 92.4167C77.9671 92.1417 78.2369 91.8209 78.5068 91.5H76.7526C76.5278 91.225 76.3029 90.9042 76.123 90.6292H79.1365C79.3164 90.3542 79.4963 90.0333 79.6312 89.7125H75.6282C75.4933 89.4375 75.3584 89.1167 75.2684 88.7959H79.9461C80.216 87.925 80.3959 87.0083 80.3959 86.0459C80.3959 85.4042 80.3059 84.8083 80.216 84.2125H74.9985C75.0435 83.8917 75.1334 83.6167 75.2234 83.2959H79.9011C79.8111 82.975 79.6762 82.6542 79.5413 82.3792H75.5832C75.7182 82.0583 75.8981 81.7833 76.078 81.4625H79.0915C78.9116 81.1417 78.6867 80.8209 78.4168 80.5459H76.7526C77.0225 80.225 77.2924 79.95 77.6072 79.675C76.123 78.2542 74.099 77.4292 71.895 77.4292H71.8501" fill="#CB2026"/>
<path d="M74.9534 88.2001L75.0883 87.4209C75.0433 87.4209 74.9534 87.4667 74.8634 87.4667C74.5486 87.4667 74.5036 87.2834 74.5486 87.1917L74.8184 85.5875H75.3132L75.4481 84.7167H74.9983L75.0883 84.1667H74.1887C74.1887 84.1667 73.649 87.1917 73.649 87.5584C73.649 88.1084 73.9639 88.3375 74.3687 88.3375C74.6385 88.3375 74.8634 88.2459 74.9534 88.2001ZM75.2682 86.7334C75.2682 88.0167 76.1228 88.3375 76.8425 88.3375C77.5171 88.3375 77.787 88.2001 77.787 88.2001L77.9669 87.3292C77.9669 87.3292 77.4721 87.5584 77.0224 87.5584C76.0329 87.5584 76.2128 86.8251 76.2128 86.8251H78.0568C78.0568 86.8251 78.1918 86.2292 78.1918 86.0001C78.1918 85.4042 77.8769 84.6709 76.8874 84.6709C75.9429 84.5792 75.2682 85.5875 75.2682 86.7334ZM76.8425 85.4042C77.3372 85.4042 77.2472 86.0001 77.2472 86.0459H76.2577C76.2577 86.0001 76.3477 85.4042 76.8425 85.4042ZM82.5546 88.2001L82.7345 87.1917C82.7345 87.1917 82.2847 87.4209 81.9699 87.4209C81.3402 87.4209 81.0704 86.9167 81.0704 86.3667C81.0704 85.2667 81.6101 84.6709 82.2398 84.6709C82.6896 84.6709 83.0494 84.9459 83.0494 84.9459L83.1843 83.9834C83.1843 83.9834 82.6446 83.7542 82.1498 83.7542C81.1153 83.7542 80.0809 84.6709 80.0809 86.4125C80.0809 87.5584 80.6206 88.3375 81.7001 88.3375C82.0599 88.3375 82.5546 88.2001 82.5546 88.2001ZM70.0058 84.5792C69.3761 84.5792 68.9263 84.7625 68.9263 84.7625L68.7914 85.5417C68.7914 85.5417 69.1962 85.3584 69.7809 85.3584C70.0958 85.3584 70.3657 85.4042 70.3657 85.6792C70.3657 85.8625 70.3207 85.9084 70.3207 85.9084H69.9159C69.1512 85.9084 68.2967 86.2292 68.2967 87.2834C68.2967 88.1084 68.8364 88.2917 69.1512 88.2917C69.7809 88.2917 70.0508 87.8792 70.0958 87.8792L70.0508 88.2459H70.8604L71.2202 85.7251C71.2202 84.6251 70.3207 84.5792 70.0058 84.5792ZM70.1858 86.6417C70.1858 86.7792 70.0958 87.5125 69.556 87.5125C69.2862 87.5125 69.1962 87.2834 69.1962 87.1459C69.1962 86.9167 69.3311 86.5959 70.0058 86.5959C70.1407 86.6417 70.1858 86.6417 70.1858 86.6417ZM72.0748 88.2917C72.2997 88.2917 73.4242 88.3375 73.4242 87.1001C73.4242 85.9542 72.3447 86.1834 72.3447 85.7251C72.3447 85.4959 72.5246 85.4042 72.8394 85.4042C72.9744 85.4042 73.4691 85.4501 73.4691 85.4501L73.6041 84.6251C73.6041 84.6251 73.2892 84.5334 72.7495 84.5334C72.0748 84.5334 71.4001 84.8084 71.4001 85.7251C71.4001 86.7792 72.5246 86.6875 72.5246 87.1001C72.5246 87.3751 72.2097 87.4209 71.9849 87.4209C71.58 87.4209 71.1753 87.2834 71.1753 87.2834L71.0403 88.1084C71.0853 88.2001 71.3102 88.2917 72.0748 88.2917ZM90.0209 83.8459L89.841 85.0834C89.841 85.0834 89.4812 84.6251 88.9865 84.6251C88.1769 84.6251 87.4572 85.6334 87.4572 86.8251C87.4572 87.5584 87.817 88.3375 88.5816 88.3375C89.1214 88.3375 89.4362 87.9709 89.4362 87.9709L89.3912 88.2917H90.2908L90.9655 83.8917L90.0209 83.8459ZM89.6161 86.2751C89.6161 86.7792 89.3912 87.4209 88.8965 87.4209C88.5816 87.4209 88.4017 87.1459 88.4017 86.6875C88.4017 85.9542 88.7166 85.4959 89.1214 85.4959C89.4362 85.4959 89.6161 85.7251 89.6161 86.2751ZM65.1032 88.2459L65.643 84.9459L65.7329 88.2459H66.3626L67.532 84.9459L67.0373 88.2459H67.9818L68.7015 83.8459H67.2172L66.3176 86.5501L66.2727 83.8459H64.9683L64.2487 88.2459H65.1032ZM79.0463 88.2459C79.3162 86.7334 79.3612 85.4959 79.9909 85.7251C80.0809 85.1292 80.2158 84.9001 80.3057 84.6709H80.1258C79.721 84.6709 79.4062 85.2209 79.4062 85.2209L79.4961 84.7167H78.6416L78.0568 88.2917H79.0463V88.2459ZM84.6236 84.5792C83.9939 84.5792 83.5441 84.7625 83.5441 84.7625L83.4092 85.5417C83.4092 85.5417 83.814 85.3584 84.3987 85.3584C84.7135 85.3584 84.9834 85.4042 84.9834 85.6792C84.9834 85.8625 84.9385 85.9084 84.9385 85.9084H84.5336C83.769 85.9084 82.9144 86.2292 82.9144 87.2834C82.9144 88.1084 83.4542 88.2917 83.769 88.2917C84.3987 88.2917 84.6686 87.8792 84.7135 87.8792L84.6686 88.2459H85.4782L85.838 85.7251C85.883 84.6251 84.9385 84.5792 84.6236 84.5792ZM84.8485 86.6417C84.8485 86.7792 84.7585 87.5125 84.2188 87.5125C83.9489 87.5125 83.859 87.2834 83.859 87.1459C83.859 86.9167 83.9939 86.5959 84.6686 86.5959C84.8035 86.6417 84.8035 86.6417 84.8485 86.6417ZM86.6026 88.2459C86.8725 86.7334 86.9175 85.4959 87.5472 85.7251C87.6371 85.1292 87.772 84.9001 87.862 84.6709H87.6821C87.2773 84.6709 86.9624 85.2209 86.9624 85.2209L87.0524 84.7167H86.1978L85.6131 88.2917H86.6026V88.2459Z" fill="white"/>
<path d="M73.5591 87.5584C73.5591 88.1084 73.8739 88.3375 74.2787 88.3375C74.5936 88.3375 74.8634 88.2459 74.9534 88.2001L75.0883 87.4209C75.0433 87.4209 74.9534 87.4667 74.8634 87.4667C74.5486 87.4667 74.5036 87.2834 74.5486 87.1917L74.8184 85.5875H75.3132L75.4481 84.7167H74.9983L75.0883 84.1667M75.718 86.7334C75.718 88.0167 76.1228 88.3375 76.8425 88.3375C77.5171 88.3375 77.787 88.2001 77.787 88.2001L77.9669 87.3292C77.9669 87.3292 77.4721 87.5584 77.0224 87.5584C76.0329 87.5584 76.2128 86.8251 76.2128 86.8251H78.0568C78.0568 86.8251 78.1918 86.2292 78.1918 86.0001C78.1918 85.4042 77.8769 84.6709 76.8874 84.6709C75.9429 84.5792 75.718 85.5875 75.718 86.7334ZM76.8425 85.4042C77.3372 85.4042 77.4271 86.0001 77.4271 86.0459H76.2577C76.2577 86.0001 76.3477 85.4042 76.8425 85.4042ZM82.5546 88.2001L82.7345 87.1917C82.7345 87.1917 82.2847 87.4209 81.9699 87.4209C81.3402 87.4209 81.0704 86.9167 81.0704 86.3667C81.0704 85.2667 81.6101 84.6709 82.2398 84.6709C82.6896 84.6709 83.0494 84.9459 83.0494 84.9459L83.1843 83.9834C83.1843 83.9834 82.6446 83.7542 82.1498 83.7542C81.1153 83.7542 80.5306 84.6709 80.5306 86.4125C80.5306 87.5584 80.6206 88.3375 81.7001 88.3375C82.0599 88.3375 82.5546 88.2001 82.5546 88.2001ZM68.7914 85.5875C68.7914 85.5875 69.1962 85.4042 69.7809 85.4042C70.0958 85.4042 70.3657 85.4501 70.3657 85.7251C70.3657 85.9084 70.3207 85.9542 70.3207 85.9542H69.9159C69.1512 85.9542 68.2967 86.2751 68.2967 87.3292C68.2967 88.1542 68.8364 88.3375 69.1512 88.3375C69.7809 88.3375 70.0508 87.9251 70.0958 87.9251L70.0508 88.2917H70.8604L71.2202 85.7709C71.2202 84.7167 70.3207 84.6709 69.9608 84.6709M70.6355 86.6417C70.6355 86.7792 70.0958 87.5125 69.556 87.5125C69.2862 87.5125 69.1962 87.2834 69.1962 87.1459C69.1962 86.9167 69.3311 86.5959 70.0058 86.5959C70.1407 86.6417 70.6355 86.6417 70.6355 86.6417ZM71.0853 88.2001C71.0853 88.2001 71.3552 88.2917 72.1198 88.2917C72.3447 88.2917 73.4691 88.3375 73.4691 87.1001C73.4691 85.9542 72.3896 86.1834 72.3896 85.7251C72.3896 85.4959 72.5695 85.4042 72.8844 85.4042C73.0193 85.4042 73.5141 85.4501 73.5141 85.4501L73.649 84.6251C73.649 84.6251 73.3342 84.5334 72.7945 84.5334C72.1198 84.5334 71.8949 84.8084 71.8949 85.7251C71.8949 86.7792 72.5695 86.6875 72.5695 87.1001C72.5695 87.3751 72.2547 87.4209 72.0298 87.4209M89.841 85.0834C89.841 85.0834 89.4812 84.6251 88.9865 84.6251C88.1769 84.6251 87.907 85.6334 87.907 86.8251C87.907 87.5584 87.817 88.3375 88.5816 88.3375C89.1214 88.3375 89.4362 87.9709 89.4362 87.9709L89.3912 88.2917H90.2908L90.9655 83.8917M89.7961 86.2751C89.7961 86.7792 89.3912 87.4209 88.8965 87.4209C88.5816 87.4209 88.4017 87.1459 88.4017 86.6875C88.4017 85.9542 88.7166 85.4959 89.1214 85.4959C89.4362 85.4959 89.7961 85.7251 89.7961 86.2751ZM65.1032 88.2459L65.643 84.9459L65.7329 88.2459H66.3626L67.532 84.9459L67.0373 88.2459H67.9818L68.7015 83.8459H67.577L66.3176 86.5501L66.2727 83.8459H65.7779L64.2487 88.2459H65.1032ZM78.1018 88.2459H79.0463C79.3162 86.7334 79.3612 85.4959 79.9909 85.7251C80.0809 85.1292 80.2158 84.9001 80.3057 84.6709H80.1258C79.721 84.6709 79.4062 85.2209 79.4062 85.2209L79.4961 84.7167M83.4092 85.5875C83.4092 85.5875 83.814 85.4042 84.3987 85.4042C84.7135 85.4042 84.9834 85.4501 84.9834 85.7251C84.9834 85.9084 84.9385 85.9542 84.9385 85.9542H84.5336C83.769 85.9542 82.9144 86.2751 82.9144 87.3292C82.9144 88.1542 83.4542 88.3375 83.769 88.3375C84.3987 88.3375 84.6686 87.9251 84.7135 87.9251L84.6686 88.2917H85.4782L85.838 85.7709C85.838 84.7167 84.9385 84.6709 84.5786 84.6709M85.2533 86.6417C85.2533 86.7792 84.7135 87.5125 84.1738 87.5125C83.9039 87.5125 83.814 87.2834 83.814 87.1459C83.814 86.9167 83.9489 86.5959 84.6236 86.5959C84.8035 86.6417 85.2533 86.6417 85.2533 86.6417ZM85.6581 88.2459H86.6026C86.8725 86.7334 86.9175 85.4959 87.5472 85.7251C87.6371 85.1292 87.772 84.9001 87.862 84.6709H87.6821C87.2773 84.6709 86.9624 85.2209 86.9624 85.2209L87.0524 84.7167" fill="#DCE5E5"/>
<path d="M130.582 77.5419C127.299 77.5419 124.352 79.303 124.352 82.5347C124.352 86.2566 129.558 86.5108 129.558 88.3627C129.558 89.1434 128.676 89.8514 127.193 89.8514C125.075 89.8514 123.487 88.871 123.487 88.871L122.816 92.139C122.816 92.139 124.634 92.9742 127.07 92.9742C130.67 92.9742 133.494 91.1405 133.494 87.8362C133.494 83.9145 128.27 83.6604 128.27 81.9356C128.27 81.3183 128.994 80.6465 130.476 80.6465C132.153 80.6465 133.53 81.3546 133.53 81.3546L134.2 78.1955C134.183 78.1955 132.682 77.5419 130.582 77.5419ZM100.507 77.778L100.418 78.25C100.418 78.25 101.795 78.5042 103.048 79.0307C104.654 79.6298 104.76 79.9748 105.043 81.046L107.99 92.72H111.944L117.998 77.778H114.062L110.161 87.9451L108.573 79.3212C108.431 78.3408 107.69 77.778 106.772 77.778H100.507ZM119.586 77.778L116.497 92.72H120.257L123.328 77.778H119.586ZM140.519 77.778C139.619 77.778 139.142 78.2682 138.789 79.1396L133.283 92.72H137.218L137.977 90.4506H142.778L143.237 92.72H146.714L143.696 77.778H140.519ZM141.031 81.8267L142.196 87.4367H139.072L141.031 81.8267Z" fill="#1434CB"/>
</svg>
