<svg xmlns="http://www.w3.org/2000/svg" width="202" height="68" fill="none"><path fill="#852268" fill-rule="evenodd" d="M23.113 3.077a1.032 1.032 0 0 1-.319.746 1.086 1.086 0 0 1-.767.308 1.109 1.109 0 0 1-.765-.31 1.054 1.054 0 0 1-.317-.747 1.03 1.03 0 0 1 .319-.746 1.086 1.086 0 0 1 .767-.308 1.107 1.107 0 0 1 .766.31 1.051 1.051 0 0 1 .316.747ZM12.465 6.795a7.41 7.41 0 0 0 1.254-2.093l-.004-.003h2.598a9.649 9.649 0 0 1-1.593 2.922s1.179 2.008 1.447 3.098h-2.72a8.244 8.244 0 0 0-.982-2.405v2.409h-2.271V2.938l2.27-.438v4.295Zm4.157.544c0-1.765 1.032-2.655 3.066-2.719v-.003c.194-.009.39.003.584.03v1.76c-1.289.042-1.432.497-1.432 1.554v2.761h-2.218V7.34ZM6.385 5.559h.004-.003c2.04.13 3.256 1.102 3.256 2.6 0 1.321-1.085 2.651-3.512 2.651a11.742 11.742 0 0 1-2.932-.324V8.563a6.982 6.982 0 0 0 2.467.468c.88 0 1.404-.283 1.404-.766 0-.58-.631-.619-.875-.634H6.19c-2.841-.189-3.147-1.823-3.147-2.519 0-1.206.88-2.612 3.36-2.612a8.066 8.066 0 0 1 2.881.447l.035.009v1.862l-.025-.006c-.269-.11-.584-.22-.584-.22a7.858 7.858 0 0 0-1.968-.34c-.349 0-1.275 0-1.275.684 0 .562.639.605.919.623Zm16.744 5.163h-2.2V4.708h2.2v6.014Zm4.145 0V2.883l2.201-.383v8.223h-2.201ZM26.26 2.5l-2.199.383v7.84h2.2V2.5ZM4.134 13.614h.019v4.465h1.31v-5.638H4.34l-1.532.693.222.99 1.104-.51Zm5.464 1.753v.874H7.265v-.875h2.333Zm-.09-2.02h1.61v4.735h1.362v-4.735h1.641v-1.112H9.508v1.112Zm7.18 4.735-.081-.425h-.028c-.284.337-.73.52-1.248.52-.882 0-1.407-.627-1.407-1.3 0-1.103 1.017-1.632 2.558-1.623v-.06c0-.225-.125-.547-.792-.547-.446 0-.917.149-1.204.322l-.25-.85c.303-.165.899-.374 1.694-.374 1.454 0 1.915.832 1.915 1.831v1.476c0 .407.019.799.062 1.033h-1.22v-.003Zm-.16-2.005c-.71-.009-1.266.155-1.266.669 0 .337.231.504.534.504.34 0 .614-.216.704-.486a.878.878 0 0 0 .029-.225v-.462Zm2.356-2.235c.015.388.034.865.034 1.421l.003-.003v4.538h1.354V17.69h.018c.197.277.605.486 1.133.486.97 0 1.977-.729 1.977-2.272 0-1.351-.855-2.16-1.809-2.16-.633 0-1.132.235-1.453.687h-.02l-.062-.59h-1.175Zm1.416 2.694c-.02-.09-.03-.184-.028-.276v-.58c0-.08.009-.165.028-.234a.844.844 0 0 1 .81-.668c.606 0 .917.51.917 1.187 0 .72-.349 1.197-.935 1.197a.815.815 0 0 1-.792-.626Zm4.116-4.006h-.801v-.553h2.295v.553h-.816v2.357h-.678V12.53Zm4.363 1.212V13.778l.044 1.115h.662l-.165-2.91h-.883l-.318.966c-.097.325-.2.707-.284 1.045h-.013c-.07-.35-.154-.698-.252-1.042l-.294-.972h-.9l-.191 2.91h.624l.053-1.106c.013-.218.023-.467.033-.716.006-.166.012-.332.02-.49h.01c.07.38.174.796.27 1.136l.319 1.127h.527l.365-1.136c.115-.34.24-.756.333-1.127h.013c0 .412.014.821.027 1.164Z" clip-rule="evenodd"/><mask id="a" width="57" height="15" x="40" y="3" maskUnits="userSpaceOnUse" style="mask-type:luminance"><path fill="#fff" d="M96.96 3.4H40.758v14.108h56.2V3.4Z"/></mask><g mask="url(#a)"><path fill="#fff" d="M48.21 8.843v-.155c0-1.776-.783-2.625-2.014-2.625-1.232 0-2.034.907-2.034 2.606v.154c0 1.719.762 2.588 2.034 2.588 1.27 0 2.013-.907 2.013-2.568Zm-.763-5.387c2.386 0 4.322 1.776 4.322 5.232v.155c0 3.475-1.936 5.213-4.342 5.213-1.544 0-2.659-.714-3.168-1.718v4.865h-3.5V3.726h3.5V5.23c.587-.964 1.643-1.775 3.188-1.775ZM60.123 8.768v-.154c0-1.757-.743-2.606-1.917-2.606-1.232 0-1.956.868-1.956 2.625v.155c0 1.698.743 2.568 1.897 2.568s1.976-.868 1.976-2.588Zm-7.432.058v-.154c.001-3.438 1.995-5.271 4.283-5.271 1.545 0 2.465.656 3.051 1.679V3.67h3.5V13.77h-3.5v-1.622A3.396 3.396 0 0 1 56.955 14c-2.269 0-4.263-1.68-4.263-5.174M70.527 9.113l1.955-5.387h3.344l-5.475 13.477h-3.344l1.701-4.402-4.087-9.075h3.793l2.113 5.387ZM76.007 13.824V11.43l4.654-5.098h-4.087l-.02-2.607h8.194v2.549l-4.459 4.923h4.791v2.626h-9.073Z"/><path fill="#D0FA02" d="M86.73 12.469c.042-2.781 2.175-5.06 5.074-5.06s5.155 2.279 5.155 5.06c0 2.78-2.194 5.039-5.155 5.039-2.961 0-5.073-2.237-5.073-5.04Z"/></g><path fill="#FDFDFD" fill-rule="evenodd" d="M120.45 1.506h-2.139v12.283h2.139V1.506Zm-12.11 9.745 2.961-6.783 1.628 3.726-4.589 3.057Zm9.227 2.552-2.084-4.766 2.03-1.352-1.041-1.852-1.85 1.232-2.028-4.64a1.6 1.6 0 0 0-.547-.682 1.307 1.307 0 0 0-.783-.237 1.318 1.318 0 0 0-.772.282 1.616 1.616 0 0 0-.505.682l-4.063 9.309-.01.025c-.27.707-.091 1.508.446 1.994.526.476 1.252.517 1.818.106l5.612-3.739 1.59 3.638h2.187Zm6.328-6.554h3.177c1.636 0 2.187-.95 2.187-2.024 0-1.072-.551-1.954-2.171-1.954h-3.193v3.978Zm3.587-5.743c3.051 0 4.027 1.8 4.027 3.702 0 1.436-.677 2.924-2.502 3.443l2.879 5.138h-2.423l-2.674-4.827h-2.894v4.827h-2.14V1.506h5.727Zm4.671 1.903h4.075v10.38h2.139V3.409h4.075V1.506h-10.289v1.903Zm14.421-1.903h-3.162v12.283h1.935V4.897c0-.554-.032-1.056-.078-1.488h.062c.063.329.221.969.378 1.436l3.177 8.944h2.014l3.178-8.944c.173-.467.362-1.16.409-1.436h.063c-.047.45-.079.986-.079 1.488v8.892h1.998V1.506h-3.193l-3.005 8.563c-.173.52-.267.83-.33 1.246h-.032c-.055-.37-.136-.643-.264-1.076l-.05-.17-3.021-8.563Z" clip-rule="evenodd"/><path fill="#FFB600" d="M192.775 11c0 4.767-3.778 8.663-8.501 8.663-4.677 0-8.501-3.896-8.501-8.663s3.779-8.662 8.456-8.662c4.768 0 8.546 3.895 8.546 8.662Z"/><path fill="#F7981D" d="M184.274 2.338c4.678 0 8.501 3.895 8.501 8.662 0 4.767-3.778 8.663-8.501 8.663-4.677 0-8.501-3.896-8.501-8.663"/><path fill="#FF8500" d="M184.274 2.338c4.678 0 8.501 3.895 8.501 8.662 0 4.767-3.778 8.663-8.501 8.663"/><path fill="#FF5050" d="M172.85 2.338c-4.633.045-8.411 3.895-8.411 8.662 0 4.767 3.778 8.663 8.501 8.663 2.204 0 4.183-.871 5.712-2.246.315-.275.585-.596.855-.917h-1.755a10.548 10.548 0 0 1-.629-.87h3.013c.18-.276.36-.597.495-.918h-4.003a5.52 5.52 0 0 1-.36-.916h4.678c.27-.871.45-1.788.45-2.75 0-.642-.09-1.238-.18-1.834h-5.218c.045-.32.135-.595.225-.916h4.678a5.523 5.523 0 0 0-.36-.917h-3.958c.135-.32.315-.596.495-.917h3.013a4.384 4.384 0 0 0-.674-.916h-1.665c.27-.321.54-.596.855-.871-1.484-1.42-3.508-2.246-5.712-2.246 0-.091 0-.091-.045-.091Z"/><path fill="#E52836" d="M164.439 11c0 4.767 3.778 8.663 8.501 8.663 2.204 0 4.183-.871 5.712-2.246.315-.275.585-.596.855-.917h-1.755a10.548 10.548 0 0 1-.629-.87h3.013c.18-.276.36-.597.495-.918h-4.003a5.522 5.522 0 0 1-.36-.916h4.678c.27-.871.45-1.788.45-2.75 0-.642-.09-1.238-.18-1.833h-5.218c.045-.321.135-.596.225-.917h4.678a5.52 5.52 0 0 0-.36-.917h-3.958c.135-.32.315-.596.495-.916h3.013a4.383 4.383 0 0 0-.674-.917h-1.665c.27-.321.54-.596.855-.871-1.484-1.42-3.508-2.246-5.712-2.246h-.045"/><path fill="#CB2026" d="M172.94 19.663c2.204 0 4.183-.871 5.712-2.246.315-.275.585-.596.855-.917h-1.754c-.225-.275-.45-.596-.63-.87h3.013c.18-.276.36-.597.495-.918h-4.003a5.522 5.522 0 0 1-.36-.916h4.678c.27-.871.45-1.788.45-2.75 0-.642-.09-1.238-.18-1.833h-5.217c.044-.321.134-.596.224-.917h4.678a5.52 5.52 0 0 0-.36-.917h-3.958c.135-.32.315-.596.495-.916h3.013a4.313 4.313 0 0 0-.674-.917h-1.664c.27-.321.539-.596.854-.871-1.484-1.42-3.508-2.246-5.712-2.246h-.045"/><path fill="#fff" d="m175.953 13.2.135-.78c-.045 0-.135.047-.225.047-.315 0-.36-.184-.315-.275l.27-1.604h.495l.135-.871h-.45l.09-.55h-.899s-.54 3.025-.54 3.391c0 .55.315.78.72.78.269 0 .494-.092.584-.138Zm.315-1.467c0 1.284.855 1.604 1.574 1.604.675 0 .945-.137.945-.137l.18-.87s-.495.228-.945.228c-.989 0-.809-.733-.809-.733h1.844s.135-.596.135-.825c0-.596-.315-1.33-1.305-1.33-.944-.09-1.619.918-1.619 2.063Zm1.574-1.329c.495 0 .405.596.405.642h-.989c0-.046.09-.642.584-.642Zm5.712 2.796.18-1.008s-.449.229-.764.229c-.63 0-.9-.504-.9-1.054 0-1.1.54-1.696 1.17-1.696.449 0 .809.275.809.275l.135-.963s-.54-.229-1.034-.229c-1.035 0-2.069.917-2.069 2.659 0 1.145.539 1.925 1.619 1.925.36 0 .854-.138.854-.138Zm-12.548-3.62c-.63 0-1.08.182-1.08.182l-.135.78s.405-.184.99-.184c.315 0 .585.046.585.321 0 .184-.045.23-.045.23h-.405c-.765 0-1.619.32-1.619 1.374 0 .825.539 1.009.854 1.009.63 0 .9-.413.945-.413l-.045.367h.809l.36-2.521c0-1.1-.899-1.146-1.214-1.146Zm.18 2.062c0 .137-.09.87-.63.87-.27 0-.36-.229-.36-.366 0-.23.135-.55.81-.55.135.046.18.046.18.046Zm1.889 1.65c.225 0 1.349.046 1.349-1.192 0-1.146-1.079-.917-1.079-1.375 0-.23.179-.32.494-.32.135 0 .63.045.63.045l.135-.825s-.315-.092-.855-.092c-.674 0-1.349.275-1.349 1.192 0 1.054 1.124.963 1.124 1.375 0 .275-.314.32-.539.32-.405 0-.81-.137-.81-.137l-.135.825c.045.092.27.184 1.035.184Zm17.946-4.446-.18 1.237s-.36-.458-.855-.458c-.809 0-1.529 1.008-1.529 2.2 0 .733.36 1.513 1.124 1.513.54 0 .855-.367.855-.367l-.045.32h.9l.674-4.4-.944-.045Zm-.405 2.429c0 .504-.225 1.146-.72 1.146-.315 0-.494-.275-.494-.733 0-.734.314-1.192.719-1.192.315 0 .495.229.495.779Zm-24.513 1.97.54-3.3.09 3.3h.629l1.17-3.3-.495 3.3h.945l.719-4.4h-1.484l-.899 2.705-.045-2.704h-1.305l-.719 4.4h.854Zm13.943 0c.27-1.512.315-2.75.945-2.52.09-.596.225-.825.315-1.054h-.18c-.405 0-.72.55-.72.55l.09-.504h-.855l-.584 3.575h.989v-.046Zm5.577-3.666c-.629 0-1.079.183-1.079.183l-.135.78s.405-.184.99-.184c.314 0 .584.046.584.321 0 .184-.045.23-.045.23h-.405c-.764 0-1.619.32-1.619 1.374 0 .825.54 1.009.855 1.009.63 0 .899-.413.944-.413l-.045.367h.81l.36-2.521c.045-1.1-.9-1.146-1.215-1.146Zm.225 2.063c0 .137-.09.87-.629.87-.27 0-.36-.229-.36-.366 0-.23.135-.55.809-.55.135.046.135.046.18.046Zm1.754 1.604c.27-1.513.315-2.75.945-2.521.09-.596.225-.825.315-1.054h-.18c-.405 0-.72.55-.72.55l.09-.504h-.854l-.585 3.575h.989v-.046Z"/><path fill="#DCE5E5" d="M174.559 12.558c0 .55.315.78.72.78.314 0 .584-.092.674-.138l.135-.78c-.045 0-.135.047-.225.047-.315 0-.36-.184-.315-.275l.27-1.604h.495l.135-.871h-.45l.09-.55m.63 2.566c0 1.284.405 1.604 1.124 1.604.675 0 .945-.137.945-.137l.18-.87s-.495.228-.945.228c-.989 0-.809-.733-.809-.733h1.844s.135-.596.135-.825c0-.596-.315-1.33-1.305-1.33-.944-.09-1.169.918-1.169 2.063Zm1.124-1.329c.495 0 .585.596.585.642h-1.169c0-.046.09-.642.584-.642Zm5.712 2.796.18-1.008s-.449.229-.764.229c-.63 0-.9-.504-.9-1.054 0-1.1.54-1.696 1.17-1.696.449 0 .809.275.809.275l.135-.963s-.54-.229-1.034-.229c-1.035 0-1.619.917-1.619 2.659 0 1.145.089 1.925 1.169 1.925.36 0 .854-.138.854-.138Zm-13.763-2.612s.405-.184.99-.184c.315 0 .585.046.585.321 0 .183-.045.23-.045.23h-.405c-.765 0-1.619.32-1.619 1.374 0 .825.539 1.008.854 1.008.63 0 .9-.412.945-.412l-.045.367h.809l.36-2.521c0-1.054-.899-1.1-1.259-1.1m.674 1.97c0 .138-.539.871-1.079.871-.27 0-.36-.229-.36-.366 0-.23.135-.55.81-.55.135.046.629.046.629.046Zm.45 1.559s.27.092 1.035.092c.225 0 1.349.046 1.349-1.192 0-1.146-1.079-.917-1.079-1.375 0-.23.179-.32.494-.32.135 0 .63.045.63.045l.135-.825s-.315-.092-.855-.092c-.674 0-.899.275-.899 1.192 0 1.054.674.963.674 1.375 0 .275-.314.32-.539.32m17.811-2.337s-.36-.458-.855-.458c-.809 0-1.079 1.008-1.079 2.2 0 .733-.09 1.513.674 1.513.54 0 .855-.367.855-.367l-.045.32h.9l.674-4.4m-1.169 2.384c0 .504-.405 1.146-.9 1.146-.315 0-.494-.275-.494-.733 0-.734.314-1.192.719-1.192.315 0 .675.229.675.779Zm-24.693 1.97.54-3.3.09 3.3h.629l1.17-3.3-.495 3.3h.945l.719-4.4h-1.124l-1.259 2.705-.045-2.704h-.495l-1.529 4.4h.854Zm12.999 0h.944c.27-1.512.315-2.75.945-2.52.09-.596.225-.825.315-1.054h-.18c-.405 0-.72.55-.72.55l.09-.504m3.913.87s.405-.183.99-.183c.314 0 .584.046.584.321 0 .183-.045.23-.045.23h-.405c-.764 0-1.619.32-1.619 1.374 0 .825.54 1.008.855 1.008.63 0 .899-.412.944-.412l-.045.367h.81l.36-2.521c0-1.054-.9-1.1-1.259-1.1m.674 1.97c0 .138-.54.871-1.079.871-.27 0-.36-.229-.36-.366 0-.23.135-.55.809-.55.18.046.63.046.63.046Zm.405 1.605h.944c.27-1.513.315-2.75.945-2.521.09-.596.225-.825.315-1.054h-.18c-.405 0-.72.55-.72.55l.09-.504"/><path fill="#fff" d="M4.225 36.985a2.03 2.03 0 0 1 .42-.137c.126-.644.456-1.22.932-1.63a2.58 2.58 0 0 1 1.69-.638c.616 0 1.213.225 1.69.639.478.413.807.988.932 1.63.366.056.706.237.97.514a5.389 5.389 0 0 0-.032-.721 3.896 3.896 0 0 0-1.17-2.525 3.465 3.465 0 0 0-2.482-.98 3.482 3.482 0 0 0-2.44 1.098 3.918 3.918 0 0 0-1.06 2.579v.549c.171-.145.355-.273.55-.378Z"/><path fill="#fff" d="M9.37 37.26H5.066a1.224 1.224 0 0 0-.647.172c-.2.076-.38.206-.518.377-.301.425-.451.948-.42 1.478v3.573c-.024.54.124 1.072.42 1.511.153.153.327.28.518.377.202.106.422.165.647.173H9.37c1.1 0 1.683-.653 1.683-1.958v-3.745c0-1.305-.55-1.924-1.683-1.958Zm51.94 1.719v4.191c-.005.227.036.452.12.66.084.207.208.392.365.542.176.17.38.3.603.382.222.083.457.117.692.1h2.556v-.757h-2.525a.89.89 0 0 1-.407-.082.961.961 0 0 1-.336-.261 1.274 1.274 0 0 1-.292-.825v-3.778a1.011 1.011 0 0 1 .066-.415.944.944 0 0 1 .226-.342.952.952 0 0 1 .326-.235.89.89 0 0 1 .386-.073h2.523v-.79H63.09c-.425.004-.84.135-1.199.376-.198.14-.358.336-.461.567-.103.23-.144.486-.12.74Zm11.779-.171a1.823 1.823 0 0 0-.132-.654 1.71 1.71 0 0 0-.354-.55.784.784 0 0 0-.453-.309 2.058 2.058 0 0 0-.614-.033H67.49v.79h3.883c.81 0 .94.48.94.79v.96h-3.204c-1.101 0-1.618.688-1.618 2.166v1.099c0 .475.174.932.485 1.271.141.175.315.315.51.41.196.094.408.142.623.14h2.427c.2-.005.398-.053.582-.141.183-.089.348-.216.485-.375.152-.154.273-.34.357-.547.083-.206.127-.43.129-.655v-4.362Zm-.777 4.293a.966.966 0 0 1-.13.447.87.87 0 0 1-.195.297.791.791 0 0 1-.29.184 1.336 1.336 0 0 1-.582.068h-1.618a1.57 1.57 0 0 1-.842-.17c-.123-.1-.222-.23-.29-.379a1.256 1.256 0 0 1-.098-.412v-1.442c0-.414.162-1.066 1.198-1.066h2.879l-.032 2.473Zm4.66-5.016h.356v-.825h-.453a1.53 1.53 0 0 0-.657.086c-.212.077-.407.2-.573.36-.227.241-.324.688-.324 1.34v5.807h.745V39.08a.948.948 0 0 1 .039-.392.893.893 0 0 1 .501-.55.791.791 0 0 1 .365-.054Zm7.411-3.642h-.745v2.817h-3.01c-1.164 0-1.714.549-1.714 1.717V43.1c-.017.224.01.45.076.662.067.213.173.408.312.575.15.172.33.31.53.403.2.095.416.144.635.146h2.362a1.3 1.3 0 0 0 .61-.139c.191-.095.36-.235.49-.41a2 2 0 0 0 .454-1.375v-8.52Zm-.745 8.484a1.17 1.17 0 0 1-.065.446 1.1 1.1 0 0 1-.226.38.996.996 0 0 1-.338.257.926.926 0 0 1-.406.086h-2.104a.715.715 0 0 1-.34-.077.777.777 0 0 1-.274-.232 1.123 1.123 0 0 1-.228-.721v-3.882c0-.722.357-1.1 1.004-1.1h2.977v4.843Zm-65.53-3.262c0-.31-.13-.447-.39-.447H16.36a.49.49 0 0 0-.286.092.554.554 0 0 0-.23.457v2.612c0 .377.194.55.55.55h1.261a.427.427 0 0 0 .178-.05.462.462 0 0 0 .146-.121.339.339 0 0 0 .103-.137.37.37 0 0 0 .027-.174v-2.782h-.001Zm-4.11-.378a2.5 2.5 0 0 1 .485-1.512c.154-.153.328-.28.518-.377.202-.105.422-.164.647-.173h2.524c1.1 0 1.683.654 1.683 1.959v3.95c.004.226-.04.449-.13.651-.09.203-.223.38-.388.518a1.715 1.715 0 0 1-1.165.55h-2.395v2.851h-1.78v-8.417Zm9.06 3.299a.327.327 0 0 0 .031.156c.023.049.057.09.1.119.095.07.208.106.323.103h1.36c.29 0 .452-.138.485-.377v-.55c0-.31-.162-.447-.486-.447h-1.36a.499.499 0 0 0-.355.103.625.625 0 0 0-.098.412v.48Zm2.299-2.955c0-.274-.162-.412-.486-.412h-3.56v-1.924h4.013c1.164.035 1.747.619 1.78 1.786v4.02c.008.47-.154.925-.453 1.271-.149.172-.33.306-.53.395-.202.09-.418.13-.635.121h-2.428c-1.164 0-1.78-.584-1.78-1.719v-1.544c0-1.202.584-1.785 1.716-1.821h2.363v-.173Zm6.698 6.184a.51.51 0 0 0 .356-.171.446.446 0 0 0 .13-.31v-.447h-2.266a2.1 2.1 0 0 1-.712-.103 1.444 1.444 0 0 1-.55-.412 2.638 2.638 0 0 1-.388-.653 2.408 2.408 0 0 1-.13-.755V37.26h1.78v5.084c0 .413.162.619.486.619h1.262a.51.51 0 0 0 .21-.044.546.546 0 0 0 .178-.128.481.481 0 0 0 .162-.31v-5.221h1.747v8.383c.02.543-.141 1.079-.453 1.511-.143.19-.325.342-.532.444a1.39 1.39 0 0 1-.666.14h-4.141v-1.924h3.527Zm3.624-2.851h3.14c.29 0 .452-.138.452-.378v-.172a.394.394 0 0 0-.032-.172.332.332 0 0 0-.102-.143.295.295 0 0 0-.156-.063h-1.554a1.624 1.624 0 0 1-1.198-.515c-.154-.133-.28-.3-.37-.49-.089-.19-.14-.398-.147-.61v-1.442c.032-1.135.583-1.684 1.715-1.72h3.657v1.925h-3.107c-.356 0-.55.103-.55.344v.172c0 .24.195.377.55.377h1.553c.203-.002.404.043.589.133.184.089.348.22.48.383.286.313.449.732.452 1.167v1.409a1.882 1.882 0 0 1-.517 1.169 1.727 1.727 0 0 1-.486.411c-.23.081-.47.117-.712.104H35.68v-1.89Zm8.446-.378a.326.326 0 0 0 .03.156c.024.049.058.09.1.119.096.07.209.106.324.103h1.36c.29 0 .452-.138.485-.377v-.55c0-.31-.162-.447-.486-.447H44.58a.498.498 0 0 0-.356.103.624.624 0 0 0-.098.412v.48Zm2.299-2.955c0-.274-.162-.412-.486-.412h-3.56v-1.924h4.013c1.165.035 1.747.619 1.78 1.786v4.02c.008.47-.154.925-.453 1.271a1.499 1.499 0 0 1-.53.398c-.201.089-.418.13-.635.118h-2.428c-1.164 0-1.78-.584-1.78-1.719v-1.544c0-1.202.584-1.785 1.716-1.821h2.363v-.173Zm3.17-3.435a1.617 1.617 0 0 1 .138-.69c.096-.215.237-.402.412-.547a2.007 2.007 0 0 1 1.36-.481h1.132v1.854h-.679a.485.485 0 0 0-.412.133.54.54 0 0 0-.128.189.58.58 0 0 0-.043.229v.412h1.262v1.923h-1.262v5.702h-1.78v-8.724Zm8.027 3.4v-.033a.27.27 0 0 0-.032-.142.245.245 0 0 0-.098-.1.5.5 0 0 0-.291-.103h-1.23a.484.484 0 0 0-.207.026.514.514 0 0 0-.181.112.409.409 0 0 0-.138.145.45.45 0 0 0-.057.199v.79l2.234-.893Zm-2.168 2.715v.103a.495.495 0 0 0 .129.377c.064.104.129.173.226.173h3.626v1.923h-3.852a2.464 2.464 0 0 1-.81-.103 1.565 1.565 0 0 1-.582-.377 1.634 1.634 0 0 1-.39-.62 3.203 3.203 0 0 1-.096-.892v-3.849c.033-1.167.583-1.752 1.716-1.785h2.394c1.101.033 1.651.617 1.683 1.854v1.512l-4.044 1.684Z"/><mask id="b" width="16" height="17" x="95" y="30" maskUnits="userSpaceOnUse" style="mask-type:luminance"><path fill="#fff" d="M110.875 30.534h-15.75v15.572h15.75V30.534Z"/></mask><g mask="url(#b)"><path fill="#fff" d="M103 45.264c3.879 0 7.023-3.109 7.023-6.944 0-3.834-3.144-6.943-7.023-6.943-3.878 0-7.022 3.109-7.022 6.943 0 3.835 3.144 6.944 7.022 6.944Z"/><path fill="#345D9D" d="M103 30.534c-1.558 0-3.08.457-4.375 1.312a7.806 7.806 0 0 0-2.9 3.495 7.704 7.704 0 0 0-.449 4.498 7.76 7.76 0 0 0 2.156 3.987 7.904 7.904 0 0 0 4.032 2.13 7.96 7.96 0 0 0 4.55-.442 7.854 7.854 0 0 0 3.534-2.868 7.726 7.726 0 0 0 1.327-4.326 7.685 7.685 0 0 0-.589-2.972 7.761 7.761 0 0 0-1.695-2.524 7.86 7.86 0 0 0-2.542-1.69 7.93 7.93 0 0 0-3.003-.6H103Zm.133 8.05-.819 2.734h4.385a.221.221 0 0 1 .229.211v.072l-.381 1.3a.282.282 0 0 1-.286.208h-6.712l1.125-3.79-1.259.378.286-.868 1.259-.377 1.582-5.316a.287.287 0 0 1 .286-.208h1.697a.22.22 0 0 1 .229.211v.072l-1.335 4.487 1.259-.377-.267.905-1.278.358Z"/></g><path fill="#50AF95" fill-rule="evenodd" d="m121.407 31.707-3.218 6.82a.135.135 0 0 0-.011.08.13.13 0 0 0 .04.073l8.69 8.402a.133.133 0 0 0 .184 0l8.69-8.401a.134.134 0 0 0 .028-.154l-3.218-6.82a.128.128 0 0 0-.118-.076h-10.947a.13.13 0 0 0-.12.076Z" clip-rule="evenodd"/><path fill="#fff" fill-rule="evenodd" d="M128.077 39.137c-.06.005-.371.023-1.064.023-.552 0-.943-.016-1.08-.023-2.132-.091-3.723-.454-3.723-.888s1.591-.796 3.723-.89v1.417c.139.01.538.033 1.089.033.662 0 .994-.027 1.053-.032V37.36c2.127.092 3.714.455 3.714.888s-1.586.796-3.714.888h.002Zm0-1.923v-1.268h2.968v-1.933h-8.081v1.933h2.968v1.268c-2.412.108-4.226.575-4.226 1.134 0 .56 1.814 1.026 4.226 1.135v4.062h2.145v-4.063c2.406-.109 4.217-.575 4.217-1.134 0-.56-1.809-1.026-4.217-1.134Z" clip-rule="evenodd"/><mask id="c" width="15" height="15" x="143" y="31" maskUnits="userSpaceOnUse" style="mask-type:luminance"><path fill="#fff" d="M157.34 31.524h-14.278v14.389h14.278v-14.39Z"/></mask><g mask="url(#c)"><path fill="#F7931A" d="M157.126 40.459c-.953 3.854-4.827 6.2-8.652 5.238-3.824-.96-6.152-4.864-5.198-8.718.953-3.855 4.827-6.2 8.651-5.24 3.825.961 6.153 4.865 5.199 8.72Z"/><path fill="#fff" d="M153.35 37.693c.142-.957-.582-1.472-1.571-1.815l.321-1.297-.783-.197-.313 1.263a32.71 32.71 0 0 0-.627-.149l.314-1.271-.783-.197-.321 1.297a25.87 25.87 0 0 1-.5-.119l.001-.004-1.081-.272-.208.844s.581.134.569.142c.317.08.375.291.365.46l-.365 1.477c.022.005.05.013.081.026l-.083-.02-.512 2.07c-.039.096-.137.242-.359.187.008.011-.569-.143-.569-.143l-.389.903 1.019.256c.19.048.376.099.559.146l-.324 1.311.782.197.321-1.298c.214.059.421.113.624.164l-.32 1.291.784.197.324-1.31c1.336.255 2.341.153 2.763-1.065.341-.98-.017-1.546-.719-1.915.511-.118.897-.458 1-1.159Zm-1.79 2.53c-.242.98-1.881.45-2.412.317l.431-1.738c.531.134 2.234.398 1.981 1.42Zm.242-2.544c-.221.892-1.584.439-2.027.328l.391-1.576c.442.11 1.866.318 1.636 1.248Z"/></g><path fill="#1434CB" d="M187.699 31.49c-2.549 0-4.837 1.344-4.837 3.809 0 2.84 4.042 3.033 4.042 4.446 0 .595-.685 1.135-1.836 1.135-1.644 0-2.878-.748-2.878-.748l-.521 2.493s1.412.637 3.303.637c2.796 0 4.988-1.398 4.988-3.919 0-2.992-4.056-3.185-4.056-4.501 0-.471.562-.983 1.713-.983 1.302 0 2.371.54 2.371.54l.521-2.41c-.014 0-1.179-.499-2.81-.499Zm-23.352.18-.068.36s1.069.194 2.042.596c1.247.457 1.329.72 1.548 1.537l2.289 8.906h3.07l4.7-11.399h-3.056l-3.028 7.756-1.234-6.578c-.11-.748-.685-1.178-1.398-1.178h-4.865Zm14.815 0-2.399 11.398h2.919l2.385-11.398h-2.905Zm16.253 0c-.699 0-1.069.374-1.343 1.04l-4.276 10.358h3.056l.589-1.73h3.728l.356 1.73h2.7l-2.344-11.398h-2.466Zm.397 3.089.905 4.28h-2.426l1.521-4.28Z"/></svg>