<svg xmlns="http://www.w3.org/2000/svg" width="202" height="108" fill="none"><path fill="#852268" fill-rule="evenodd" d="M32.22 14.3a1.45 1.45 0 0 1-.45 1.05 1.51 1.51 0 0 1-1.07.43 1.54 1.54 0 0 1-1.06-.43 1.48 1.48 0 0 1-.44-1.05 1.45 1.45 0 0 1 .44-1.04 1.51 1.51 0 0 1 1.07-.43 1.54 1.54 0 0 1 1.07.43 1.47 1.47 0 0 1 .44 1.05Zm-14.84 5.21c.74-.87 1.33-1.86 1.74-2.93h3.62a13.53 13.53 0 0 1-2.22 4.09s1.64 2.81 2.02 4.34h-3.8a11.58 11.58 0 0 0-1.36-3.37V25H14.2v-10.9l3.17-.61v6.01Zm5.8.76c0-2.47 1.43-3.71 4.26-3.8.27-.02.55 0 .82.04v2.46c-1.8.06-2 .7-2 2.18V25h-3.09v-4.74ZM8.9 17.78c2.84.18 4.54 1.55 4.54 3.64 0 1.85-1.51 3.71-4.9 3.71a16.3 16.3 0 0 1-4.08-.45v-2.7a9.7 9.7 0 0 0 3.44.66c1.22 0 1.95-.4 1.95-1.07 0-.81-.88-.87-1.22-.89-3.96-.26-4.39-2.55-4.39-3.52 0-1.7 1.23-3.66 4.68-3.66a11.2 11.2 0 0 1 4.02.63H13v2.61h-.04c-.37-.16-.8-.31-.8-.31a10.9 10.9 0 0 0-2.75-.48c-.49 0-1.78 0-1.78.96 0 .79.89.85 1.28.87Zm23.34 7.23h-3.07V16.6h3.07v8.42Zm5.78 0V14.04l3.07-.54v11.51h-3.07ZM36.6 13.5l-3.07.54V25h3.07V13.5ZM5.76 29.06h.03v6.25H7.6v-7.9H6.05l-2.14.98.31 1.38 1.54-.71Zm7.62 2.45v1.23h-3.25V31.5h3.25Zm-.13-2.82h2.25v6.62h1.9V28.7h2.28v-1.56h-6.43v1.56Zm10.01 6.62-.11-.6h-.04c-.4.48-1.02.74-1.74.74-1.23 0-1.96-.88-1.96-1.82 0-1.55 1.42-2.29 3.56-2.27v-.09c0-.31-.17-.76-1.1-.76-.62 0-1.28.2-1.68.45l-.35-1.2a5.1 5.1 0 0 1 2.37-.52c2.02 0 2.66 1.17 2.66 2.57v2.06c0 .57.03 1.12.1 1.45h-1.7Zm-.22-2.8c-1-.01-1.77.22-1.77.93 0 .48.33.71.75.71.47 0 .86-.3.98-.68.03-.1.04-.2.04-.32v-.64Zm3.28-3.13c.02.54.05 1.21.05 1.99v6.35h1.9v-2.95h.02c.27.38.84.68 1.58.68 1.35 0 2.75-1.02 2.75-3.18 0-1.9-1.19-3.03-2.52-3.03-.88 0-1.58.33-2.02.96h-.03l-.09-.82h-1.64Zm1.98 3.77a1.69 1.69 0 0 1-.04-.39v-.8c0-.12.01-.24.04-.34.12-.54.6-.93 1.13-.93.84 0 1.27.71 1.27 1.66 0 1-.48 1.68-1.3 1.68-.55 0-.98-.38-1.1-.88Zm5.73-5.6h-1.11v-.78h3.2v.77h-1.14v3.3h-.95v-3.3Zm6.09 1.69v.05l.06 1.56h.92l-.23-4.07h-1.23l-.44 1.35c-.14.45-.28.99-.4 1.46h-.02c-.1-.49-.21-.98-.35-1.46l-.4-1.36h-1.26l-.27 4.08h.87l.07-1.55.05-1c0-.24.02-.47.03-.7h.01c.1.54.24 1.12.38 1.6l.44 1.58h.74l.5-1.6c.17-.47.34-1.05.47-1.57h.02c0 .58.02 1.15.04 1.63Z" clip-rule="evenodd"/><mask id="a" width="65" height="18" x="54" y="13" maskUnits="userSpaceOnUse" style="mask-type:luminance"><path fill="#fff" d="M118.66 13.91h-64.5v16.22h64.5V13.91Z"/></mask><g mask="url(#a)"><path fill="#fff" d="M62.72 20.17v-.18c0-2.04-.9-3.02-2.32-3.02-1.4 0-2.33 1.05-2.33 3v.18c0 1.97.88 2.97 2.33 2.97 1.46 0 2.32-1.04 2.32-2.95Zm-.88-6.2c2.74 0 4.96 2.05 4.96 6.02v.18c0 4-2.22 6-4.98 6-1.77 0-3.05-.83-3.64-1.98v5.6h-4.01v-15.5h4.01v1.73a4.15 4.15 0 0 1 3.66-2.05ZM76.39 20.08v-.17c0-2.02-.86-3-2.2-3-1.42 0-2.25 1-2.25 3.02v.18c0 1.95.86 2.95 2.18 2.95 1.32 0 2.27-1 2.27-2.98Zm-8.53.07v-.18c0-3.95 2.29-6.06 4.91-6.06 1.78 0 2.83.76 3.5 1.93v-1.62h4.02v11.61h-4.02v-1.86a3.9 3.9 0 0 1-3.52 2.13c-2.6 0-4.89-1.93-4.89-5.95M88.33 20.48l2.24-6.2h3.84l-6.29 15.5H84.3l1.95-5.06-4.7-10.44h4.36l2.43 6.2ZM94.61 25.9v-2.75l5.35-5.87h-4.7l-.02-3h9.4v2.94l-5.11 5.66h5.5v3.02H94.6Z"/><path fill="#D0FA02" d="M106.92 24.34a5.79 5.79 0 0 1 5.82-5.82 5.84 5.84 0 0 1 5.92 5.82c0 3.2-2.52 5.8-5.92 5.8a5.68 5.68 0 0 1-5.82-5.8Z"/></g><path fill="#FDFDFD" fill-rule="evenodd" d="M144.54 11.7h-2.4V25.5h2.4V11.7ZM130.9 22.65l3.34-7.63 1.84 4.19-5.18 3.44Zm10.4 2.87-2.34-5.36 2.28-1.52-1.17-2.09-2.09 1.39-2.28-5.22a1.8 1.8 0 0 0-.62-.77 1.47 1.47 0 0 0-1.75.05c-.25.2-.44.46-.57.77l-4.58 10.47-.01.03c-.3.8-.1 1.7.5 2.24.6.54 1.41.58 2.05.12l6.33-4.2 1.79 4.09h2.46Zm7.14-7.37H152c1.84 0 2.46-1.07 2.46-2.28 0-1.2-.62-2.2-2.44-2.2h-3.6v4.48Zm4.04-6.47c3.44 0 4.54 2.03 4.54 4.17 0 1.61-.76 3.29-2.82 3.87l3.25 5.78h-2.74l-3.01-5.43h-3.26v5.43H146V11.7h6.46Zm5.27 2.15h4.59V25.5h2.41V13.83h4.6V11.7h-11.6v2.15Zm16.25-2.15h-3.56v13.82h2.18v-10c0-.62-.04-1.19-.09-1.67h.07c.07.37.25 1.09.43 1.61l3.58 10.06h2.27l3.58-10.06c.2-.53.4-1.3.46-1.61h.07c-.05.5-.08 1.1-.08 1.67v10h2.25V11.7h-3.6l-3.39 9.64c-.2.58-.3.93-.37 1.4h-.04c-.06-.42-.15-.72-.3-1.21l-.05-.2-3.4-9.63Z" clip-rule="evenodd"/><path fill="#fff" d="M5.41 51.92c.18-.07.36-.13.54-.17.16-.82.58-1.56 1.2-2.08a3.31 3.31 0 0 1 4.32 0 3.68 3.68 0 0 1 1.2 2.08c.47.07.9.3 1.24.66 0-.31 0-.62-.04-.92a4.97 4.97 0 0 0-1.5-3.23 4.44 4.44 0 0 0-3.18-1.25 4.47 4.47 0 0 0-3.12 1.4 5 5 0 0 0-1.36 3.3v.7c.22-.19.45-.35.7-.49Z"/><path fill="#fff" d="M12 52.28H6.5c-.3 0-.58.07-.83.22-.26.1-.49.26-.66.48a2.97 2.97 0 0 0-.54 1.89v4.56A3.2 3.2 0 0 0 5 61.36c.2.2.42.36.66.49.26.13.54.2.83.22H12c1.41 0 2.16-.84 2.16-2.5v-4.8c0-1.66-.7-2.45-2.16-2.5Zm66.53 2.2v5.35a2.13 2.13 0 0 0 .62 1.53 2.11 2.11 0 0 0 1.66.62h3.28v-.97h-3.24c-.18.01-.35-.03-.52-.1a1.23 1.23 0 0 1-.43-.34 1.63 1.63 0 0 1-.37-1.05V54.7a1.2 1.2 0 0 1 .37-.97c.12-.12.26-.23.42-.3.15-.06.32-.1.5-.09h3.22v-1h-3.23a2.8 2.8 0 0 0-1.53.47c-.26.18-.46.43-.6.73-.13.3-.18.62-.15.94Zm15.09-.23a2.32 2.32 0 0 0-.62-1.53 1 1 0 0 0-.58-.4 2.65 2.65 0 0 0-.79-.04h-5.18v1h4.97c1.04 0 1.2.62 1.2 1.02v1.23h-4.1c-1.4 0-2.07.87-2.07 2.76v1.4c0 .61.22 1.2.62 1.63.18.22.4.4.65.52.25.13.53.19.8.18h3.11c.26 0 .51-.06.75-.18.23-.11.44-.27.62-.48a2.27 2.27 0 0 0 .62-1.54v-5.57Zm-1 5.5c0 .2-.06.39-.16.56-.06.15-.14.27-.25.38-.1.1-.23.19-.37.24-.24.08-.5.1-.75.08h-2.07c-.37.03-.74-.04-1.08-.21a1.36 1.36 0 0 1-.5-1.02v-1.84c0-.53.21-1.36 1.54-1.36h3.69l-.05 3.16Zm5.97-6.42h.46v-1.05h-.58a1.96 1.96 0 0 0-1.58.57c-.29.3-.41.88-.41 1.7v7.43h.95V54.6a1.2 1.2 0 0 1 .3-.92c.11-.13.25-.22.4-.28.14-.06.3-.08.46-.07Zm9.5-4.65h-.96v3.6h-3.85c-1.5 0-2.2.7-2.2 2.19v5.27a2.26 2.26 0 0 0 .5 1.58 1.94 1.94 0 0 0 1.5.7h3.02a1.78 1.78 0 0 0 1.4-.7c.4-.48.62-1.11.59-1.76V48.68Zm-.96 10.84a1.47 1.47 0 0 1-.8 1.38 1.2 1.2 0 0 1-.52.11h-2.7a.92.92 0 0 1-.44-.1 1 1 0 0 1-.35-.3c-.2-.25-.3-.58-.29-.91v-4.96c0-.93.46-1.41 1.29-1.41h3.81v6.19ZM23.2 55.35c0-.4-.16-.57-.5-.57h-1.73a.63.63 0 0 0-.37.12.7.7 0 0 0-.3.58v3.34c0 .48.25.7.7.7h1.62c.08 0 .16-.03.23-.06a.6.6 0 0 0 .19-.16c.06-.04.1-.1.13-.17a.47.47 0 0 0 .04-.23v-3.55Zm-5.26-.48c0-.7.21-1.39.62-1.93.2-.2.42-.36.66-.49.26-.13.55-.2.83-.22h3.24c1.4 0 2.15.84 2.15 2.5v5.05a1.81 1.81 0 0 1-.66 1.5c-.4.42-.93.67-1.5.7h-3.06v3.64h-2.28V54.87Zm11.6 4.21c0 .07.02.14.04.2.03.06.08.12.13.15.12.1.27.14.42.13h1.74c.37 0 .58-.17.62-.48v-.7c0-.4-.2-.57-.62-.57h-1.74a.64.64 0 0 0-.46.13.8.8 0 0 0-.12.53v.61Zm2.95-3.77c0-.35-.2-.53-.62-.53H27.3v-2.46h5.14c1.49.05 2.24.8 2.28 2.28v5.14c0 .6-.2 1.18-.58 1.62a1.82 1.82 0 0 1-1.5.66h-3.1c-1.5 0-2.28-.74-2.28-2.2v-1.97c0-1.53.74-2.28 2.2-2.32h3.02v-.22Zm8.58 7.9c.17 0 .33-.09.46-.22a.57.57 0 0 0 .17-.4v-.57h-2.91c-.3.01-.62-.03-.91-.13-.27-.11-.51-.3-.7-.53-.21-.24-.38-.53-.5-.83-.11-.3-.17-.64-.17-.97v-7.28h2.28v6.5c0 .52.2.78.62.78h1.62c.09 0 .18-.01.27-.05a.7.7 0 0 0 .23-.16c.11-.1.18-.24.2-.4v-6.67h2.24v10.7c.03.7-.18 1.39-.58 1.94a1.78 1.78 0 0 1-1.53.75h-5.3V63.2h4.5Zm4.64-3.65h4.02c.37 0 .58-.17.58-.48v-.22a.5.5 0 0 0-.04-.22.42.42 0 0 0-.13-.18.38.38 0 0 0-.2-.08h-1.99c-.57 0-1.12-.23-1.53-.66a1.99 1.99 0 0 1-.66-1.4v-1.85c.03-1.45.74-2.15 2.2-2.2h4.67v2.47h-3.97c-.46 0-.7.13-.7.43v.22c0 .31.24.49.7.49h1.98a1.78 1.78 0 0 1 1.37.66c.37.4.58.93.58 1.49v1.8a2.4 2.4 0 0 1-.66 1.5c-.18.2-.39.38-.62.52-.3.1-.6.15-.91.13H45.7v-2.41Zm10.82-.48c0 .07.01.14.04.2s.07.12.13.15c.12.1.26.14.41.13h1.74c.37 0 .58-.17.62-.48v-.7c0-.4-.2-.57-.62-.57H57.1a.64.64 0 0 0-.46.13.8.8 0 0 0-.12.53v.61Zm2.94-3.77c0-.35-.2-.53-.62-.53h-4.56v-2.46h5.14c1.5.05 2.24.8 2.28 2.28v5.14c.01.6-.2 1.18-.58 1.62-.19.23-.42.4-.68.51-.25.12-.53.17-.81.15h-3.11c-1.5 0-2.28-.74-2.28-2.2v-1.97c0-1.53.75-2.28 2.2-2.32h3.02v-.22Zm4.07-4.4c-.01-.3.05-.6.17-.87.12-.28.3-.52.53-.7.5-.42 1.11-.64 1.74-.62h1.45v2.37h-.87a.62.62 0 0 0-.53.17.74.74 0 0 0-.22.53v.53h1.62v2.46h-1.61v7.28h-2.28V50.92Zm10.28 4.35v-.04a.35.35 0 0 0-.04-.18.31.31 0 0 0-.13-.13.64.64 0 0 0-.37-.13h-1.58a.62.62 0 0 0-.5.17.52.52 0 0 0-.17.19.57.57 0 0 0-.07.25v1.01l2.86-1.14Zm-2.78 3.47v.13a.63.63 0 0 0 .16.48c.09.14.17.22.3.22h4.64v2.46h-4.94c-.35.02-.7-.03-1.03-.13a2.09 2.09 0 0 1-1.24-1.27c-.1-.37-.14-.76-.13-1.14v-4.92c.04-1.5.75-2.24 2.2-2.28h3.06c1.41.04 2.12.79 2.16 2.37v1.93l-5.18 2.15Z"/><mask id="b" width="22" height="22" x="120" y="43" maskUnits="userSpaceOnUse" style="mask-type:luminance"><path fill="#fff" d="M141.5 43.72h-21V64.8h21V43.72Z"/></mask><g mask="url(#b)"><path fill="#fff" d="M131 63.65c5.17 0 9.36-4.2 9.36-9.4 0-5.18-4.19-9.39-9.36-9.39a9.38 9.38 0 0 0-9.36 9.4c0 5.19 4.19 9.4 9.36 9.4Z"/><path fill="#345D9D" d="M131 43.72a10.47 10.47 0 0 0-9.7 6.5 10.57 10.57 0 0 0 2.28 11.49 10.5 10.5 0 0 0 17.92-7.45 10.54 10.54 0 0 0-6.44-9.73c-1.26-.53-2.62-.8-4-.8H131Zm.18 10.9-1.1 3.7h5.85a.3.3 0 0 1 .3.28v.1l-.5 1.75a.38.38 0 0 1-.38.28h-8.95l1.5-5.12-1.68.5.38-1.16 1.68-.51 2.11-7.2a.38.38 0 0 1 .38-.28h2.26a.3.3 0 0 1 .22.08.29.29 0 0 1 .09.2v.1l-1.78 6.08 1.68-.52-.36 1.23-1.7.48Z"/></g><path fill="#50AF95" fill-rule="evenodd" d="m153.5 45.18-4.01 8.71a.18.18 0 0 0-.02.1l.05.1 10.86 10.74a.16.16 0 0 0 .24 0l10.86-10.74a.18.18 0 0 0 .05-.1c0-.03 0-.06-.02-.1l-4.02-8.7a.16.16 0 0 0-.15-.1h-13.68c-.03 0-.06 0-.09.02a.18.18 0 0 0-.06.07Z" clip-rule="evenodd"/><path fill="#fff" fill-rule="evenodd" d="M161.85 54.68c-.08 0-.47.02-1.33.02-.7 0-1.18-.02-1.35-.02-2.67-.12-4.66-.59-4.66-1.14 0-.55 2-1.02 4.66-1.14v1.81a20.1 20.1 0 0 0 2.67 0v-1.8c2.66.11 4.65.58 4.65 1.13 0 .55-1.99 1.02-4.65 1.13Zm0-2.46V50.6h3.7v-2.47h-10.1v2.47h3.72v1.62c-3.02.14-5.29.73-5.29 1.45 0 .71 2.27 1.3 5.28 1.45v5.19h2.69v-5.2c3-.13 5.27-.73 5.27-1.44 0-.72-2.26-1.31-5.27-1.45Z" clip-rule="evenodd"/><mask id="c" width="21" height="21" x="179" y="45" maskUnits="userSpaceOnUse" style="mask-type:luminance"><path fill="#fff" d="M199.66 45.19H179.5v20.68h20.16V45.2Z"/></mask><g mask="url(#c)"><path fill="#F7931A" d="M199.35 58.03a10.06 10.06 0 0 1-12.21 7.54c-5.4-1.39-8.68-7-7.34-12.54a10.06 10.06 0 0 1 12.21-7.53c5.4 1.38 8.7 7 7.34 12.53Z"/><path fill="#fff" d="M194.02 54.06c.2-1.38-.82-2.12-2.21-2.61l.45-1.86-1.1-.29-.45 1.82-.89-.22.45-1.82-1.1-.29-.46 1.87-.7-.17-1.53-.4-.3 1.21.81.2c.45.12.53.43.51.67l-.51 2.12c.03 0 .07.02.11.04l-.11-.03-.73 2.97c-.05.14-.19.35-.5.27 0 .02-.8-.2-.8-.2l-.56 1.3 1.44.37.8.2-.46 1.89 1.1.28.45-1.86.88.23-.45 1.86 1.1.28.47-1.88c1.88.37 3.3.22 3.9-1.53.48-1.41-.03-2.22-1.02-2.75.72-.18 1.27-.66 1.41-1.67Zm-2.52 3.63c-.35 1.41-2.66.65-3.4.46l.6-2.5c.75.2 3.15.58 2.8 2.05Zm.34-3.65c-.31 1.28-2.24.63-2.86.47l.55-2.27c.62.16 2.63.46 2.3 1.8Z"/></g><path fill="#FFB600" d="M91.78 86a8.58 8.58 0 0 1-8.5 8.66 8.6 8.6 0 0 1-8.5-8.66 8.57 8.57 0 0 1 8.45-8.66c4.77 0 8.55 3.9 8.55 8.66Z"/><path fill="#F7981D" d="M83.27 77.34a8.6 8.6 0 0 1 8.5 8.66 8.58 8.58 0 0 1-8.5 8.66 8.6 8.6 0 0 1-8.5-8.66"/><path fill="#FF8500" d="M83.27 77.34a8.6 8.6 0 0 1 8.5 8.66 8.58 8.58 0 0 1-8.5 8.66"/><path fill="#FF5050" d="M71.85 77.34A8.59 8.59 0 0 0 63.44 86a8.58 8.58 0 0 0 8.5 8.66 8.51 8.51 0 0 0 6.57-3.16h-1.76c-.22-.27-.45-.6-.63-.87h3.02c.18-.28.36-.6.5-.92h-4.01c-.14-.27-.27-.6-.36-.91h4.68c.27-.87.45-1.8.45-2.75 0-.65-.1-1.24-.18-1.84H75c.04-.32.13-.6.22-.91h4.68a5.51 5.51 0 0 0-.36-.92h-3.96c.14-.32.32-.6.5-.92h3.01c-.18-.32-.4-.64-.67-.91h-1.67c.27-.32.54-.6.86-.87a8.21 8.21 0 0 0-5.72-2.25c0-.1 0-.1-.04-.1Z"/><path fill="#E52836" d="M63.44 86a8.58 8.58 0 0 0 8.5 8.66 8.51 8.51 0 0 0 6.57-3.16h-1.76c-.22-.28-.45-.6-.63-.87h3.02c.18-.28.36-.6.5-.92h-4.01c-.14-.27-.27-.6-.36-.91h4.68c.27-.88.45-1.8.45-2.75 0-.65-.1-1.24-.18-1.84H75c.04-.32.13-.6.22-.91h4.68a5.51 5.51 0 0 0-.36-.92h-3.96c.14-.32.32-.6.5-.92h3.01c-.18-.32-.4-.64-.67-.91h-1.67c.27-.33.54-.6.86-.88a8.21 8.21 0 0 0-5.72-2.24h-.04"/><path fill="#CB2026" d="M71.94 94.66c2.2 0 4.18-.87 5.71-2.24.32-.28.59-.6.86-.92h-1.76c-.22-.28-.45-.6-.63-.87h3.02c.18-.28.36-.6.5-.92h-4.01c-.14-.27-.27-.6-.36-.91h4.68c.27-.88.45-1.8.45-2.75 0-.65-.1-1.24-.18-1.84H75c.04-.32.13-.6.22-.91h4.68a5.53 5.53 0 0 0-.36-.92h-3.96c.14-.32.32-.6.5-.92h3.01c-.18-.32-.4-.64-.67-.91h-1.67c.27-.33.54-.6.86-.88a8.21 8.21 0 0 0-5.72-2.24h-.04"/><path fill="#fff" d="m74.95 88.2.14-.78c-.05 0-.14.05-.23.05-.31 0-.36-.19-.31-.28l.27-1.6h.5l.13-.87H75l.09-.55h-.9s-.54 3.02-.54 3.39c0 .55.31.78.72.78.27 0 .5-.1.58-.14Zm.32-1.47c0 1.29.85 1.6 1.57 1.6.68 0 .95-.13.95-.13l.18-.87s-.5.23-.95.23c-.99 0-.8-.73-.8-.73h1.84s.13-.6.13-.83c0-.6-.31-1.33-1.3-1.33-.95-.1-1.62.92-1.62 2.06Zm1.57-1.33c.5 0 .4.6.4.65h-.98c0-.05.09-.65.58-.65Zm5.71 2.8.18-1s-.45.22-.76.22c-.63 0-.9-.5-.9-1.05 0-1.1.54-1.7 1.17-1.7.45 0 .8.28.8.28l.14-.97s-.54-.23-1.03-.23c-1.03 0-2.07.92-2.07 2.66 0 1.15.54 1.93 1.62 1.93.36 0 .85-.14.85-.14Zm-12.54-3.62c-.63 0-1.08.18-1.08.18l-.14.78s.4-.18 1-.18c.3 0 .58.04.58.32 0 .18-.05.23-.05.23h-.4c-.77 0-1.62.32-1.62 1.37 0 .83.54 1.01.85 1.01.63 0 .9-.41.95-.41l-.05.37h.81l.36-2.52c0-1.1-.9-1.15-1.21-1.15Zm.18 2.06c0 .14-.1.87-.63.87-.27 0-.36-.23-.36-.36 0-.23.13-.55.8-.55a.7.7 0 0 0 .19.04Zm1.88 1.65c.23 0 1.35.05 1.35-1.19 0-1.15-1.08-.92-1.08-1.37 0-.23.18-.33.5-.33.13 0 .63.05.63.05l.13-.82s-.31-.1-.85-.1c-.68 0-1.35.28-1.35 1.2 0 1.05 1.12.96 1.12 1.37 0 .28-.31.32-.54.32-.4 0-.8-.14-.8-.14l-.14.83c.05.09.27.18 1.03.18Zm17.95-4.44-.18 1.23s-.36-.45-.85-.45c-.81 0-1.53 1-1.53 2.2 0 .73.36 1.5 1.12 1.5.54 0 .86-.36.86-.36l-.05.32h.9l.68-4.4-.95-.04Zm-.4 2.43c0 .5-.23 1.14-.72 1.14-.32 0-.5-.27-.5-.73 0-.74.32-1.2.72-1.2.32 0 .5.24.5.79ZM65.1 88.25l.54-3.3.1 3.3h.62l1.17-3.3-.5 3.3h.95l.72-4.4h-1.48l-.9 2.7-.05-2.7h-1.3l-.72 4.4h.85Zm13.95 0c.27-1.52.31-2.75.94-2.52.1-.6.23-.83.32-1.06h-.18c-.4 0-.72.55-.72.55l.09-.5h-.86l-.58 3.57h.99v-.04Zm5.57-3.67c-.63 0-1.08.18-1.08.18l-.13.78s.4-.18.99-.18c.31 0 .58.04.58.32 0 .18-.04.23-.04.23h-.4c-.77 0-1.63.32-1.63 1.37 0 .83.54 1.01.86 1.01.63 0 .9-.41.94-.41l-.04.37h.8l.37-2.52c.04-1.1-.9-1.15-1.22-1.15Zm.23 2.06c0 .14-.1.87-.63.87-.27 0-.36-.23-.36-.36 0-.23.13-.55.8-.55.14.04.14.04.19.04Zm1.75 1.6c.27-1.5.32-2.74.95-2.51.09-.6.22-.83.31-1.06h-.18c-.4 0-.72.55-.72.55l.1-.5h-.86l-.59 3.57h1v-.04Z"/><path fill="#DCE5E5" d="M73.56 87.56c0 .55.31.78.72.78.31 0 .58-.1.67-.14l.14-.78c-.05 0-.14.05-.23.05-.31 0-.36-.19-.31-.28l.27-1.6h.5l.13-.87H75l.09-.55m.63 2.56c0 1.29.4 1.6 1.12 1.6.68 0 .95-.13.95-.13l.18-.87s-.5.23-.95.23c-.99 0-.8-.73-.8-.73h1.84s.13-.6.13-.83c0-.6-.31-1.33-1.3-1.33-.95-.1-1.17.92-1.17 2.06Zm1.12-1.33c.5 0 .59.6.59.65h-1.17c0-.05.09-.65.58-.65Zm5.71 2.8.18-1s-.45.22-.76.22c-.63 0-.9-.5-.9-1.05 0-1.1.54-1.7 1.17-1.7.45 0 .8.28.8.28l.14-.97s-.54-.23-1.03-.23c-1.03 0-1.62.92-1.62 2.66 0 1.15.1 1.93 1.17 1.93.36 0 .85-.14.85-.14ZM68.8 85.59s.4-.19 1-.19c.3 0 .58.05.58.33 0 .18-.05.22-.05.22h-.4c-.77 0-1.62.33-1.62 1.38 0 .82.54 1 .85 1 .63 0 .9-.4.95-.4l-.05.36h.81l.36-2.52c0-1.05-.9-1.1-1.26-1.1m.68 1.97c0 .14-.54.87-1.08.87-.27 0-.36-.23-.36-.36 0-.23.13-.55.8-.55.14.04.64.04.64.04Zm.45 1.56s.27.1 1.03.1c.22 0 1.35.04 1.35-1.2 0-1.15-1.08-.92-1.08-1.37 0-.23.18-.33.5-.33.13 0 .62.05.62.05l.14-.82s-.32-.1-.86-.1c-.67 0-.9.28-.9 1.2 0 1.05.68.96.68 1.37 0 .28-.32.32-.54.32m17.81-2.34s-.36-.45-.85-.45c-.81 0-1.08 1-1.08 2.2 0 .73-.1 1.5.67 1.5.54 0 .86-.36.86-.36l-.05.32h.9l.68-4.4m-1.17 2.39c0 .5-.4 1.14-.9 1.14-.32 0-.5-.27-.5-.73 0-.74.32-1.2.72-1.2.32 0 .68.24.68.79Zm-24.7 1.97.54-3.3.1 3.3h.62l1.17-3.3-.5 3.3h.95l.72-4.4h-1.12l-1.26 2.7-.05-2.7h-.5l-1.52 4.4h.85Zm13 0h.95c.27-1.52.31-2.75.94-2.52.1-.6.23-.83.32-1.06h-.18c-.4 0-.72.55-.72.55l.09-.5m3.9.87s.41-.19 1-.19c.31 0 .58.05.58.33 0 .18-.04.22-.04.22h-.4c-.77 0-1.63.33-1.63 1.38 0 .82.54 1 .86 1 .63 0 .9-.4.94-.4l-.04.36h.8l.37-2.52c0-1.05-.9-1.1-1.26-1.1m.67 1.97c0 .14-.54.87-1.08.87-.27 0-.36-.23-.36-.36 0-.23.14-.55.81-.55.18.04.63.04.63.04Zm.4 1.6h.95c.27-1.5.32-2.74.95-2.51.09-.6.22-.83.31-1.06h-.18c-.4 0-.72.55-.72.55l.1-.5"/><path fill="#1434CB" d="M130.58 77.54c-3.28 0-6.23 1.76-6.23 5 0 3.72 5.2 3.97 5.2 5.82 0 .78-.87 1.5-2.36 1.5-2.11 0-3.7-.99-3.7-.99l-.67 3.27s1.81.83 4.25.83c3.6 0 6.42-1.83 6.42-5.13 0-3.93-5.22-4.18-5.22-5.9 0-.62.72-1.3 2.2-1.3 1.68 0 3.06.71 3.06.71l.67-3.15c-.02 0-1.52-.66-3.62-.66Zm-30.07.24-.1.47s1.39.25 2.64.78c1.6.6 1.71.94 2 2.02l2.94 11.67h3.95L118 77.78h-3.94l-3.9 10.17-1.59-8.63a1.73 1.73 0 0 0-1.8-1.54h-6.26Zm19.08 0-3.1 14.94h3.77l3.07-14.94h-3.74Zm20.93 0c-.9 0-1.38.49-1.73 1.36l-5.5 13.58h3.93l.76-2.27h4.8l.46 2.27h3.47l-3.01-14.94h-3.18Zm.51 4.05 1.17 5.6h-3.13l1.96-5.6Z"/></svg>