<svg xmlns="http://www.w3.org/2000/svg" width="193" height="110" fill="none"><mask id="a" width="21" height="21" x="1" y="11" maskUnits="userSpaceOnUse" style="mask-type:luminance"><path fill="#fff" d="M21.66 11.2H1.5v20.67h20.16V11.2Z"/></mask><g mask="url(#a)"><path fill="#F7931A" d="M21.35 24.03a10.06 10.06 0 0 1-12.21 7.54c-5.4-1.39-8.68-7-7.34-12.54a10.06 10.06 0 0 1 12.21-7.53c5.4 1.38 8.7 7 7.34 12.53Z"/><path fill="#fff" d="M16.02 20.06c.2-1.38-.82-2.12-2.21-2.61l.45-1.86-1.1-.29-.45 1.82-.88-.22.44-1.82-1.1-.29-.46 1.87a36 36 0 0 1-.7-.17l-1.53-.4-.3 1.21.81.2c.45.12.53.43.52.67l-.52 2.12c.03 0 .07.02.11.04L9 20.3l-.73 2.97c-.05.14-.19.35-.5.27 0 .02-.8-.2-.8-.2l-.56 1.3 1.44.37.8.2-.47 1.89 1.1.28.46-1.86.88.23-.45 1.86 1.1.28.47-1.88c1.88.37 3.3.22 3.9-1.53.48-1.41-.03-2.22-1.02-2.75.72-.18 1.27-.66 1.41-1.67ZM13.5 23.7c-.35 1.4-2.66.64-3.4.45l.6-2.5c.75.2 3.15.58 2.8 2.05Zm.34-3.66c-.31 1.28-2.24.63-2.86.47l.55-2.27c.62.16 2.63.46 2.3 1.8Z"/></g><g clip-path="url(#b)"><path fill="#343434" d="m37 7-.18.57V24.1l.18.16 8-4.53L37 7Z"/><path fill="#8C8C8C" d="m37 7-8 12.73 8 4.53V7Z"/><path fill="#3C3C3B" d="m37 25.72-.1.11v5.89l.1.27 8-10.8-8 4.53Z"/><path fill="#8C8C8C" d="M37 32v-6.28l-8-4.54L37 32Z"/><path fill="#141414" d="m37 24.26 8-4.53-8-3.49v8.02Z"/><path fill="#393939" d="m29 19.73 8 4.53v-8.02l-8 3.49Z"/></g><g clip-path="url(#c)"><g filter="url(#d)"><path fill="#000" d="M61.5 30.87c5.95 0 10.78-4.87 10.78-10.88 0-6.01-4.83-10.88-10.78-10.88a10.83 10.83 0 0 0-10.78 10.88c0 6 4.83 10.88 10.78 10.88Z"/></g><path fill="#C3A634" d="M61.5 30.87c5.95 0 10.78-4.87 10.78-10.88 0-6.01-4.83-10.88-10.78-10.88a10.83 10.83 0 0 0-10.78 10.88c0 6 4.83 10.88 10.78 10.88Z"/><path fill="url(#e)" d="M61.5 30.87c5.95 0 10.78-4.87 10.78-10.88 0-6.01-4.83-10.88-10.78-10.88a10.83 10.83 0 0 0-10.78 10.88c0 6 4.83 10.88 10.78 10.88Z" style="mix-blend-mode:soft-light"/><path stroke="#000" stroke-opacity=".1" d="M61.5 30.5c5.76 0 10.42-4.7 10.42-10.51S67.26 9.47 61.5 9.47a10.47 10.47 0 0 0-10.42 10.52c0 5.8 4.66 10.52 10.42 10.52Z"/><g filter="url(#f)"><path fill="#000" d="M59.52 18.98h3.1v1.66h-3.1v3.5h1.96c.77 0 1.4-.11 1.9-.32.5-.21.88-.5 1.16-.88.28-.37.47-.81.57-1.32a8.33 8.33 0 0 0 0-3.26 2.79 2.79 0 0 0-1.73-2.2 4.86 4.86 0 0 0-1.9-.32h-1.96v3.14Zm-1.99 1.66h-1.06v-1.66h1.06v-4.8h4.71c.87 0 1.62.16 2.26.46.64.3 1.15.72 1.56 1.24.4.53.7 1.14.9 1.85.2.7.29 1.46.29 2.26 0 .8-.1 1.55-.3 2.26-.19.7-.49 1.32-.9 1.84-.4.53-.91.94-1.55 1.25a5.2 5.2 0 0 1-2.26.45h-4.7v-5.15Z"/></g><path fill="#fff" d="M59.52 18.98h3.1v1.66h-3.1v3.5h1.96c.77 0 1.4-.11 1.9-.32.5-.21.88-.5 1.16-.88.28-.37.47-.81.57-1.32a8.33 8.33 0 0 0 0-3.26 2.79 2.79 0 0 0-1.73-2.2 4.86 4.86 0 0 0-1.9-.32h-1.96v3.14Zm-1.99 1.66h-1.06v-1.66h1.06v-4.8h4.71c.87 0 1.62.16 2.26.46.64.3 1.15.72 1.56 1.24.4.53.7 1.14.9 1.85.2.7.29 1.46.29 2.26 0 .8-.1 1.55-.3 2.26-.19.7-.49 1.32-.9 1.84-.4.53-.91.94-1.55 1.25a5.2 5.2 0 0 1-2.26.45h-4.7v-5.15Z"/></g><g clip-path="url(#g)"><g filter="url(#h)"><path fill="#000" d="M89.5 31.56a10.78 10.78 0 1 0 0-21.56 10.78 10.78 0 0 0 0 21.56Z"/></g><path fill="#23292F" d="M89.5 31.56a10.78 10.78 0 1 0 0-21.56 10.78 10.78 0 0 0 0 21.56Z"/><path fill="url(#i)" d="M89.5 31.56a10.78 10.78 0 1 0 0-21.56 10.78 10.78 0 0 0 0 21.56Z" style="mix-blend-mode:soft-light"/><path stroke="#000" stroke-opacity=".1" d="M89.5 31.2a10.42 10.42 0 1 0 0-20.84 10.42 10.42 0 0 0 0 20.84Z"/><path fill="#fff" d="M94.07 15.75h1.87l-3.89 3.85a3.64 3.64 0 0 1-5.1 0l-3.9-3.85h1.88l2.95 2.93c.9.88 2.34.88 3.23 0l2.96-2.93ZM84.9 26.46h-1.87l3.92-3.87a3.64 3.64 0 0 1 5.1 0l3.92 3.87H94.1l-2.98-2.95a2.3 2.3 0 0 0-3.23 0l-2.99 2.95Z"/></g><g fill="#0033AD" clip-path="url(#j)"><path d="M112.3 20.92c-.04.88.61 1.64 1.47 1.69h.09c.86 0 1.55-.72 1.54-1.6 0-.9-.7-1.61-1.55-1.6-.82 0-1.5.66-1.54 1.51ZM106.53 20.5a.5.5 0 0 0-.53.5c-.01.28.2.53.47.54.28.02.51-.2.53-.49a.51.51 0 0 0-.47-.54ZM112.2 11.61a.53.53 0 0 0 .23-.7.5.5 0 0 0-.68-.22.53.53 0 0 0-.22.69c.13.26.43.37.68.23ZM113.78 14.45c.38-.2.53-.68.34-1.07a.76.76 0 0 0-1.04-.36.81.81 0 0 0-.34 1.08c.2.39.66.55 1.04.35ZM108.49 16.4c.3.2.69.11.88-.2.2-.3.11-.7-.18-.9a.63.63 0 0 0-.88.19c-.2.3-.11.71.18.91ZM109.43 20.22a.78.78 0 0 0-.82.76c-.02.44.3.82.73.84.43.03.8-.3.82-.75a.8.8 0 0 0-.73-.85ZM108.58 25.6a.67.67 0 0 0-.29.89c.16.32.54.46.86.3a.67.67 0 0 0 .28-.9.63.63 0 0 0-.85-.29ZM111.58 18.57c.42.28.99.16 1.26-.28a.95.95 0 0 0-.27-1.3.88.88 0 0 0-1.25.27.96.96 0 0 0 .26 1.3ZM121.12 14.39c.35.24.84.14 1.07-.23a.82.82 0 0 0-.22-1.11.76.76 0 0 0-1.07.23.81.81 0 0 0 .22 1.1ZM122.7 11.56c.23.16.54.1.7-.15a.53.53 0 0 0-.15-.72.5.5 0 0 0-.7.15.55.55 0 0 0 .15.72ZM121.23 19.4a1.57 1.57 0 0 0-1.63 1.5c-.04.88.61 1.65 1.46 1.7l.09-.01c.85 0 1.54-.72 1.54-1.6.01-.85-.63-1.56-1.45-1.6ZM114.29 18.45c.26.54.8.88 1.38.88.86 0 1.55-.71 1.55-1.6 0-.25-.06-.5-.17-.73a1.52 1.52 0 0 0-2.08-.7 1.64 1.64 0 0 0-.68 2.15ZM126.42 16.4a.67.67 0 0 0 .28-.89.63.63 0 0 0-.86-.28.67.67 0 0 0-.28.88c.16.32.55.46.86.29ZM122.5 16.9a.96.96 0 0 0-.4 1.27.9.9 0 0 0 1.21.42c.45-.23.64-.8.4-1.26a.9.9 0 0 0-1.21-.42ZM117.44 11.32c.35.02.65-.26.67-.62a.66.66 0 0 0-.6-.7.65.65 0 0 0-.67.62c-.02.36.25.68.6.7ZM117.43 15.47c.5.03.93-.37.96-.9a.92.92 0 0 0-.86-.98.92.92 0 0 0-.96.89c-.02.52.36.96.86.99ZM112.5 25.1c.45-.24.63-.8.4-1.27a.9.9 0 0 0-1.21-.42.96.96 0 0 0-.4 1.26.9.9 0 0 0 1.21.42ZM118.02 16.84c-.46.75-.27 1.74.45 2.22.72.48 1.67.28 2.14-.46.47-.75.27-1.74-.45-2.22a1.5 1.5 0 0 0-.84-.26c-.53 0-1.01.27-1.3.72ZM120.71 23.55a1.52 1.52 0 0 0-2.07-.71 1.63 1.63 0 0 0-.7 2.15c.4.8 1.33 1.11 2.09.71.76-.4 1.07-1.34.69-2.14v-.01ZM123.42 23.43a.89.89 0 0 0-1.26.28.95.95 0 0 0 .27 1.3c.42.29.98.16 1.25-.27a.96.96 0 0 0-.26-1.3ZM126.39 21.03a.79.79 0 0 0-.73-.85.78.78 0 0 0-.82.76c-.02.44.3.82.73.84.43.03.8-.31.82-.75ZM128.53 20.46a.5.5 0 0 0-.53.49c-.01.28.2.53.47.54.28.02.51-.2.53-.49a.52.52 0 0 0-.47-.54ZM126.51 25.6a.63.63 0 0 0-.88.2c-.2.3-.11.7.18.9.3.2.69.12.88-.19.2-.3.11-.71-.18-.91ZM112.3 30.44a.5.5 0 0 0-.7.14.53.53 0 0 0 .14.72.5.5 0 0 0 .7-.14.52.52 0 0 0-.15-.72ZM122.8 30.39a.53.53 0 0 0-.23.7.5.5 0 0 0 .68.22.53.53 0 0 0 .22-.69.49.49 0 0 0-.68-.23ZM116.98 25.16c.46-.75.27-1.74-.45-2.23a1.52 1.52 0 0 0-2.15.47c-.47.74-.27 1.73.45 2.22a1.51 1.51 0 0 0 2.15-.46ZM113.88 27.61a.76.76 0 0 0-1.07.23.82.82 0 0 0 .22 1.11c.36.24.84.14 1.07-.23a.81.81 0 0 0-.22-1.1ZM117.5 30.68a.66.66 0 0 0-.68.62c-.02.36.25.67.6.7.35.02.65-.25.67-.62a.66.66 0 0 0-.6-.7ZM117.5 26.53a.92.92 0 0 0-.96.9c-.03.51.36.96.86.98.5.03.93-.37.96-.89a.93.93 0 0 0-.86-.99ZM121.22 27.55a.82.82 0 0 0-.33 1.08c.2.4.66.55 1.04.35.38-.2.53-.68.34-1.08a.77.77 0 0 0-1.05-.35Z"/></g><g fill="#E6007A" clip-path="url(#k)"><path d="M145.5 15.03c2.44 0 4.41-1.12 4.41-2.51 0-1.4-1.97-2.52-4.41-2.52-2.44 0-4.41 1.13-4.41 2.52 0 1.39 1.97 2.51 4.4 2.51ZM145.5 34c2.44 0 4.41-1.13 4.41-2.52 0-1.39-1.97-2.52-4.41-2.52-2.44 0-4.41 1.13-4.41 2.52 0 1.4 1.97 2.52 4.4 2.52ZM139.35 18.52c1.22-2.07 1.21-4.31-.01-5-1.23-.7-3.22.4-4.43 2.48-1.22 2.07-1.21 4.31.01 5 1.23.7 3.22-.41 4.43-2.48ZM156.09 28c1.22-2.07 1.21-4.31-.02-5-1.22-.7-3.2.41-4.42 2.48-1.22 2.07-1.21 4.31.01 5 1.23.7 3.21-.41 4.43-2.48ZM139.34 30.49c1.22-.7 1.23-2.94.01-5-1.22-2.08-3.2-3.2-4.42-2.5-1.23.7-1.24 2.94-.02 5 1.22 2.08 3.2 3.2 4.43 2.5ZM156.07 21c1.23-.69 1.24-2.93.02-5s-3.2-3.18-4.43-2.49c-1.22.7-1.23 2.94-.01 5 1.22 2.08 3.2 3.2 4.42 2.5Z"/></g><path fill="#FF060A" d="M174.54 32.9c6.87 0 12.44-5.12 12.44-11.42s-5.57-11.42-12.44-11.42c-6.87 0-12.44 5.11-12.44 11.42 0 6.3 5.57 11.42 12.44 11.42Z"/><path fill="#fff" d="M181.53 19.43c-.68-.59-1.64-1.48-2.4-2.1l-.06-.03c-.07-.06-.16-.1-.25-.14-1.87-.32-10.56-1.8-10.72-1.79-.05 0-.1.02-.14.05l-.04.03a.46.46 0 0 0-.12.18l-.01.02v.18c.98 2.5 4.84 10.69 5.6 12.62.05.13.14.38.3.39h.04c.08 0 .46-.45.46-.45s6.63-7.39 7.3-8.18c.1-.1.17-.2.23-.3a.43.43 0 0 0-.02-.26.57.57 0 0 0-.17-.22Zm-5.65.86 2.83-2.15 1.66 1.4-4.49.75Zm-1.1-.14-4.88-3.67 7.9 1.34-3.02 2.33Zm.44.96 4.99-.74-5.7 6.31.7-5.57Zm-5.98-4.26 5.13 4-.74 5.84-4.39-9.84Z"/><g clip-path="url(#l)"><g filter="url(#m)"><path fill="#000" d="M11 61.63A10.31 10.31 0 1 0 11 41a10.31 10.31 0 0 0 0 20.63Z"/></g><path fill="#F3BA2F" d="M11 61.63A10.31 10.31 0 1 0 11 41a10.31 10.31 0 0 0 0 20.63Z"/><path fill="url(#n)" d="M11 61.63A10.31 10.31 0 1 0 11 41a10.31 10.31 0 0 0 0 20.63Z" style="mix-blend-mode:soft-light"/><path stroke="#000" stroke-opacity=".1" d="M11 61.28a9.97 9.97 0 1 0 0-19.94 9.97 9.97 0 0 0 0 19.94Z"/><g filter="url(#o)"><path fill="#000" d="M8.33 50.22 11 47.55l2.67 2.67 1.56-1.56L11 44.44l-4.22 4.22 1.55 1.56Zm-4.2 1.1 1.55-1.56 1.55 1.55-1.55 1.56-1.55-1.56Zm4.2 1.09L11 55.08l2.67-2.67 1.56 1.55L11 58.2l-4.22-4.23 1.55-1.55Zm6.44-1.1 1.55-1.55 1.55 1.55-1.55 1.56-1.55-1.56Zm-2.2 0L11 52.9l-1.58-1.58.28-.28.13-.13L11 49.74l1.58 1.57Z"/></g><path fill="#fff" d="M8.33 50.22 11 47.55l2.67 2.67 1.56-1.56L11 44.44l-4.22 4.22 1.55 1.56Zm-4.2 1.1 1.55-1.56 1.55 1.55-1.55 1.56-1.55-1.56Zm4.2 1.09L11 55.08l2.67-2.67 1.56 1.55L11 58.2l-4.22-4.23 1.55-1.55Zm6.44-1.1 1.55-1.55 1.55 1.55-1.55 1.56-1.55-1.56Zm-2.2 0L11 52.9l-1.58-1.58.28-.28.13-.13L11 49.74l1.58 1.57Z"/></g><g clip-path="url(#p)"><path fill="#fff" d="M44.78 44.77H31.2v12.35h13.58V44.77Z"/><path fill="#E84142" fill-rule="evenodd" d="M49 52A10.99 10.99 0 1 1 27 52 10.99 10.99 0 0 1 49 52Zm-14.12 4.37h-2.13c-.45 0-.67 0-.8-.08a.54.54 0 0 1-.25-.43c0-.16.1-.35.33-.74l5.26-9.28c.23-.4.34-.59.48-.66a.54.54 0 0 1 .5 0c.14.07.25.27.48.66l1.08 1.89v.01c.25.42.37.64.42.86.06.25.06.5 0 .75-.05.23-.17.44-.42.87l-2.77 4.9c-.25.43-.37.65-.54.8-.19.19-.41.32-.66.39-.22.06-.47.06-.98.06Zm5.4 0h3.05c.45 0 .68 0 .81-.09.15-.1.24-.25.25-.42 0-.16-.1-.34-.31-.71l-.03-.04-1.53-2.62-.02-.03c-.21-.36-.32-.54-.46-.61a.54.54 0 0 0-.49 0c-.14.07-.25.26-.48.65l-1.52 2.61v.01c-.23.39-.34.58-.33.74 0 .17.1.33.24.43.13.08.36.08.81.08Z" clip-rule="evenodd"/></g><g clip-path="url(#q)"><path fill="url(#r)" d="M57.74 57.74a.75.75 0 0 1 .53-.22h18.35c.34 0 .5.4.27.64l-3.63 3.62a.75.75 0 0 1-.53.22H54.38c-.34 0-.5-.4-.27-.64l3.63-3.62Z"/><path fill="url(#s)" d="M57.74 44.22a.77.77 0 0 1 .53-.22h18.35c.34 0 .5.4.27.64l-3.63 3.62a.75.75 0 0 1-.53.22H54.38c-.34 0-.5-.4-.27-.64l3.63-3.62Z"/><path fill="url(#t)" d="M73.26 50.94a.75.75 0 0 0-.53-.22H54.38c-.34 0-.5.4-.27.64l3.63 3.62c.13.14.33.22.53.22h18.35c.34 0 .5-.4.27-.64l-3.63-3.62Z"/></g><g clip-path="url(#u)"><path fill="#8247E5" d="M92.5 62a10.5 10.5 0 1 0 0-21 10.5 10.5 0 0 0 0 21Z"/><path fill="#fff" d="M96.1 49.14a.93.93 0 0 0-.88 0l-2.04 1.2-1.4.77-2 1.21a.93.93 0 0 1-.88 0l-1.57-.95a.9.9 0 0 1-.44-.77v-1.83c0-.29.14-.58.44-.76l1.57-.92a.93.93 0 0 1 .88 0l1.57.95c.25.15.44.44.44.77v1.2l1.39-.8v-1.24a.9.9 0 0 0-.44-.77l-2.93-1.72a.93.93 0 0 0-.87 0l-3 1.76a.8.8 0 0 0-.44.73v3.44c0 .29.15.58.44.76l2.96 1.72c.26.15.58.15.88 0l2-1.17 1.4-.8 2-1.17a.93.93 0 0 1 .88 0l1.58.91c.25.15.43.44.43.77v1.83a.9.9 0 0 1-.43.77l-1.54.9a.93.93 0 0 1-.88 0l-1.57-.9a.89.89 0 0 1-.44-.77v-1.17l-1.39.8v1.2c0 .3.15.6.44.78l2.96 1.71c.26.15.59.15.88 0l2.96-1.71a.89.89 0 0 0 .44-.77v-3.48a.9.9 0 0 0-.44-.76l-2.96-1.72Z"/></g><g clip-path="url(#v)"><path fill="#213147" d="M109.9 47.38v8.24c0 .53.28 1 .74 1.27l7.13 4.12c.45.26 1.02.26 1.47 0l7.13-4.12c.45-.26.74-.74.74-1.27v-8.24c0-.53-.28-1-.74-1.27l-7.13-4.12a1.48 1.48 0 0 0-1.47 0l-7.13 4.12c-.46.26-.73.74-.73 1.27h-.01Z"/><path fill="#12AAFF" d="m120.05 53.1-1.01 2.78a.39.39 0 0 0 0 .25l1.74 4.8 2.03-1.17-2.43-6.66a.18.18 0 0 0-.33 0ZM122.1 48.4a.17.17 0 0 0-.33 0l-1.02 2.8a.4.4 0 0 0 0 .24l2.87 7.86 2.02-1.17-3.55-9.71v-.01Z"/><path fill="#9DCCED" d="M118.5 42.3c.05 0 .1.02.14.04l7.71 4.46c.1.05.15.15.15.25v8.9c0 .1-.06.2-.15.25l-7.7 4.46a.29.29 0 0 1-.15.04.29.29 0 0 1-.14-.04l-7.71-4.46a.29.29 0 0 1-.15-.25v-8.91c0-.1.06-.2.15-.25l7.7-4.45c.05-.03.1-.05.15-.05v.01Zm0-1.3c-.28 0-.55.07-.8.21l-7.7 4.45c-.5.29-.8.8-.8 1.38v8.9c0 .57.3 1.1.8 1.38l7.7 4.45c.25.15.52.21.8.21s.55-.06.8-.2l7.7-4.46c.5-.28.8-.8.8-1.38v-8.9c0-.57-.3-1.1-.8-1.38l-7.71-4.45a1.58 1.58 0 0 0-.8-.21h.01Z"/><path fill="#213147" d="m113.4 59.3.7-1.95 1.44 1.19-1.34 1.23-.8-.47Z"/><path fill="#fff" d="M117.84 46.41h-1.95c-.14 0-.28.1-.33.23l-4.2 11.49 2.03 1.17 4.62-12.66a.17.17 0 0 0-.16-.24v.01ZM121.27 46.41h-1.95c-.15 0-.28.1-.33.23l-4.8 13.12 2.03 1.16 5.21-14.28a.17.17 0 0 0-.16-.24v.01Z"/></g><g clip-path="url(#w)"><path fill="#FF0420" d="M145 63a11 11 0 1 0 0-22 11 11 0 0 0 0 22Z"/><path fill="#fff" d="M141.8 54.92c-.66 0-1.2-.15-1.62-.46a1.58 1.58 0 0 1-.62-1.34c0-.12.01-.27.04-.44.07-.4.17-.87.3-1.43.38-1.52 1.35-2.27 2.9-2.27.43 0 .81.07 1.14.21a1.68 1.68 0 0 1 1.08 1.62c0 .12 0 .26-.03.44-.09.49-.18.97-.3 1.43-.2.75-.53 1.32-1 1.7a3 3 0 0 1-1.9.54Zm.11-1.19c.3 0 .57-.09.78-.27.22-.18.38-.46.47-.84a19.35 19.35 0 0 0 .33-1.7c0-.5-.26-.76-.78-.76-.31 0-.57.1-.8.27-.21.18-.36.46-.46.84a17.64 17.64 0 0 0-.33 1.7c0 .51.26.76.8.76ZM145.4 54.84a.18.18 0 0 1-.13-.05.22.22 0 0 1-.03-.15l1.14-5.37c.01-.06.04-.11.1-.15.04-.04.1-.06.15-.06h2.2c.61 0 1.1.13 1.47.38.37.25.56.62.56 1.1 0 .14-.02.28-.05.43-.13.63-.41 1.1-.83 1.4-.42.3-.98.46-1.7.46h-1.12l-.38 1.8a.24.24 0 0 1-.09.16.25.25 0 0 1-.16.05h-1.12Zm2.93-3.15c.23 0 .43-.06.6-.2a.9.9 0 0 0 .35-.54l.03-.24a.47.47 0 0 0-.14-.37c-.1-.09-.26-.13-.48-.13h-1l-.3 1.48h.94Z"/></g><g clip-path="url(#x)"><path fill="#002D74" d="M171.5 41 161 47v12l10.5 6 10.5-6V47l-10.5-6Zm7.39 16.22-7.4 4.22-7.38-4.22v-8.44l7.4-4.22 7.38 4.22v8.44Z"/><path fill="url(#y)" d="m171.5 65 10.5-6V47l-10.5-6v3.56l7.39 4.22v8.46l-7.4 4.22V65h.02Z"/><path fill="url(#z)" d="M171.5 41 161 47v12l10.5 6v-3.56l-7.39-4.22v-8.46l7.38-4.2V41Z"/><path fill="#002D74" d="m176.4 55.8-4.9 2.8-4.9-2.8v-5.6l4.9-2.8 4.9 2.8-2.04 1.17-2.87-1.64-2.85 1.64v3.27l2.87 1.65 2.87-1.65 2.03 1.16Z"/></g><path fill="#1434CB" d="M27.63 72.86c-2.67 0-5.07 1.42-5.07 4.03 0 3.01 4.24 3.21 4.24 4.71 0 .63-.72 1.2-1.93 1.2-1.72 0-3.01-.79-3.01-.79l-.55 2.64s1.48.68 3.46.68c2.93 0 5.23-1.49 5.23-4.15 0-3.17-4.25-3.38-4.25-4.77 0-.5.59-1.04 1.8-1.04 1.36 0 2.48.57 2.48.57l.55-2.55c-.02 0-1.24-.53-2.95-.53Zm-24.48.2-.08.37s1.13.2 2.15.63c1.3.49 1.39.77 1.62 1.63l2.4 9.43h3.22l4.93-12.07h-3.2L11 81.26 9.7 74.3a1.4 1.4 0 0 0-1.46-1.25h-5.1Zm15.53 0-2.51 12.06h3.06l2.5-12.07h-3.05Zm17.04 0c-.73 0-1.12.39-1.4 1.1l-4.49 10.96h3.2l.62-1.83h3.91l.38 1.83h2.83L38.3 73.05h-2.59Zm.42 3.26.95 4.53h-2.54l1.59-4.53Z"/><path fill="#FFB600" d="M76.77 79.4c0 5-3.9 9.07-8.79 9.07-4.83 0-8.78-4.08-8.78-9.06s3.9-9.06 8.74-9.06a8.93 8.93 0 0 1 8.83 9.06Z"/><path fill="#F7981D" d="M67.98 70.35c4.84 0 8.79 4.08 8.79 9.06s-3.9 9.06-8.79 9.06c-4.83 0-8.78-4.08-8.78-9.06"/><path fill="#FF8500" d="M67.98 70.35c4.84 0 8.79 4.08 8.79 9.06s-3.9 9.06-8.79 9.06"/><path fill="#FF5050" d="M56.18 70.35a8.93 8.93 0 0 0-8.7 9.06c0 4.98 3.91 9.06 8.8 9.06 2.27 0 4.31-.91 5.9-2.35.32-.29.6-.63.88-.96h-1.82c-.23-.29-.46-.62-.65-.91h3.12c.18-.29.37-.62.5-.96h-4.13a5.81 5.81 0 0 1-.37-.96h4.83c.28-.9.47-1.87.47-2.87 0-.67-.1-1.3-.19-1.92h-5.39c.05-.34.14-.62.23-.96h4.84c-.1-.33-.23-.67-.37-.96h-4.1c.14-.33.33-.62.52-.95h3.11a4.55 4.55 0 0 0-.7-.96h-1.72c.28-.34.56-.63.89-.91a8.43 8.43 0 0 0-5.9-2.35c0-.1 0-.1-.05-.1Z"/><path fill="#E52836" d="M47.49 79.4c0 5 3.9 9.07 8.78 9.07a8.74 8.74 0 0 0 6.79-3.31h-1.82c-.23-.29-.46-.62-.65-.91h3.12c.18-.29.37-.62.5-.96h-4.13a5.81 5.81 0 0 1-.37-.96h4.83c.28-.9.47-1.87.47-2.87 0-.67-.1-1.3-.19-1.92h-5.39c.05-.34.14-.62.23-.96h4.84c-.1-.33-.23-.67-.37-.96h-4.1c.14-.33.33-.62.52-.95h3.11a4.55 4.55 0 0 0-.7-.96h-1.72c.28-.34.56-.63.89-.91a8.44 8.44 0 0 0-5.9-2.35h-.05"/><path fill="#CB2026" d="M56.27 88.47a8.74 8.74 0 0 0 6.79-3.31h-1.82c-.23-.29-.46-.62-.65-.91h3.12c.18-.29.37-.62.5-.96h-4.13a5.82 5.82 0 0 1-.37-.96h4.83c.28-.9.47-1.87.47-2.87 0-.67-.1-1.3-.19-1.92h-5.39c.05-.34.14-.62.23-.96h4.84a5.8 5.8 0 0 0-.37-.96h-4.1c.15-.33.33-.62.52-.95h3.11a4.54 4.54 0 0 0-.7-.96h-1.72c.28-.34.56-.63.89-.91a8.44 8.44 0 0 0-5.9-2.35h-.05"/><path fill="#fff" d="m59.38 81.7.14-.8c-.04 0-.14.04-.23.04-.32 0-.37-.19-.32-.28l.28-1.68h.5l.15-.91h-.47l.1-.58h-.94s-.55 3.17-.55 3.55c0 .57.32.81.74.81.28 0 .51-.1.6-.14Zm.33-1.52c0 1.34.88 1.67 1.63 1.67.7 0 .97-.14.97-.14l.19-.91s-.51.24-.98.24c-1.02 0-.83-.77-.83-.77h1.9s.14-.62.14-.86c0-.62-.32-1.39-1.35-1.39-.97-.1-1.67.96-1.67 2.16Zm1.63-1.4c.5 0 .42.63.42.68h-1.03c0-.05.1-.67.6-.67Zm5.9 2.93.19-1.05s-.47.23-.8.23c-.65 0-.92-.52-.92-1.1 0-1.15.55-1.77 1.2-1.77.47 0 .84.29.84.29l.14-1s-.56-.25-1.07-.25c-1.07 0-2.14.96-2.14 2.78 0 1.2.56 2.01 1.68 2.01.37 0 .88-.14.88-.14Zm-12.97-3.79c-.65 0-1.11.2-1.11.2l-.14.81s.42-.2 1.02-.2c.33 0 .6.06.6.34 0 .2-.04.24-.04.24h-.42c-.8 0-1.67.34-1.67 1.44 0 .86.55 1.06.88 1.06.65 0 .93-.44.98-.44l-.05.39h.84l.37-2.64c0-1.15-.93-1.2-1.26-1.2Zm.19 2.16c0 .14-.1.91-.65.91-.28 0-.37-.24-.37-.38 0-.24.14-.58.83-.58.14.05.19.05.19.05Zm1.95 1.73c.23 0 1.4.04 1.4-1.25 0-1.2-1.12-.96-1.12-1.44 0-.24.19-.33.51-.33l.65.04.14-.86s-.32-.1-.88-.1c-.7 0-1.4.3-1.4 1.25 0 1.1 1.17 1 1.17 1.44 0 .29-.33.33-.56.33-.42 0-.84-.14-.84-.14l-.14.86c.05.1.28.2 1.07.2Zm18.54-4.65-.18 1.3s-.37-.49-.88-.49c-.84 0-1.58 1.06-1.58 2.3 0 .77.37 1.58 1.16 1.58.56 0 .88-.38.88-.38l-.05.34h.93l.7-4.6-.98-.05Zm-.41 2.54c0 .52-.24 1.2-.75 1.2-.32 0-.5-.3-.5-.77 0-.77.32-1.25.74-1.25.32 0 .5.24.5.82ZM49.2 81.76l.55-3.45.1 3.45h.65l1.2-3.45-.5 3.45h.97l.74-4.6H51.4l-.93 2.82-.05-2.82h-1.34l-.75 4.6h.89Zm14.4 0c.28-1.58.33-2.88.98-2.64.1-.62.23-.86.33-1.1h-.19c-.42 0-.74.57-.74.57l.09-.52h-.88l-.6 3.74h1.01v-.05Zm5.77-3.84c-.65 0-1.12.2-1.12.2l-.14.81s.42-.2 1.03-.2c.32 0 .6.06.6.34 0 .2-.05.24-.05.24h-.42c-.79 0-1.67.34-1.67 1.44 0 .86.56 1.06.88 1.06.66 0 .93-.44.98-.44l-.05.39h.84l.37-2.64c.05-1.15-.93-1.2-1.25-1.2Zm.23 2.16c0 .14-.1.91-.65.91-.28 0-.37-.24-.37-.38 0-.24.14-.58.83-.58.14.05.14.05.19.05Zm1.81 1.68c.28-1.58.33-2.88.98-2.64.1-.62.23-.86.32-1.1h-.18c-.42 0-.75.57-.75.57l.1-.52H71l-.6 3.74h1.02v-.05Z"/><path fill="#DCE5E5" d="M57.94 81.04c0 .57.33.81.75.81.32 0 .6-.1.7-.14l.13-.82c-.04 0-.14.05-.23.05-.32 0-.37-.19-.32-.28l.28-1.68h.5l.15-.91h-.47l.1-.58m.65 2.69c0 1.34.41 1.67 1.16 1.67.7 0 .97-.14.97-.14l.19-.91s-.51.24-.98.24c-1.02 0-.83-.77-.83-.77h1.9s.14-.62.14-.86c0-.62-.32-1.39-1.35-1.39-.97-.1-1.2.96-1.2 2.16Zm1.16-1.4c.5 0 .6.63.6.68h-1.2c0-.05.09-.67.6-.67Zm5.9 2.93.19-1.05s-.47.23-.8.23c-.65 0-.92-.52-.92-1.1 0-1.15.55-1.77 1.2-1.77.47 0 .84.29.84.29l.14-1s-.56-.25-1.07-.25c-1.07 0-1.67.96-1.67 2.78 0 1.2.1 2.01 1.2 2.01.38 0 .89-.14.89-.14Zm-14.22-2.73s.42-.2 1.02-.2c.33 0 .6.05.6.34 0 .2-.04.24-.04.24h-.42c-.8 0-1.67.34-1.67 1.44 0 .86.55 1.05.88 1.05.65 0 .93-.43.98-.43l-.05.39h.84l.37-2.64c0-1.1-.93-1.15-1.3-1.15m.7 2.06c0 .14-.56.91-1.12.91-.28 0-.37-.24-.37-.38 0-.24.14-.58.83-.58.14.05.65.05.65.05Zm.46 1.63s.28.1 1.07.1c.23 0 1.4.04 1.4-1.25 0-1.2-1.12-.96-1.12-1.44 0-.24.18-.33.5-.33l.66.04.14-.86s-.33-.1-.89-.1c-.7 0-.93.3-.93 1.25 0 1.1.7 1 .7 1.44 0 .29-.32.33-.56.33m18.4-2.44s-.36-.48-.87-.48c-.84 0-1.12 1.06-1.12 2.3 0 .77-.1 1.58.7 1.58.56 0 .88-.38.88-.38l-.05.34h.93l.7-4.6m-1.2 2.49c0 .52-.43 1.2-.94 1.2-.32 0-.5-.3-.5-.77 0-.77.32-1.25.74-1.25.32 0 .7.24.7.82ZM49.2 81.76l.55-3.45.1 3.45h.65l1.2-3.45-.5 3.45h.97l.74-4.6h-1.16l-1.3 2.82-.05-2.82h-.5l-1.59 4.6h.89Zm13.43 0h.97c.28-1.58.33-2.88.98-2.64.1-.62.23-.86.33-1.1h-.19c-.42 0-.74.57-.74.57l.09-.52m4.04.9s.42-.18 1.03-.18c.32 0 .6.04.6.33 0 .2-.05.24-.05.24h-.42c-.79 0-1.67.34-1.67 1.44 0 .86.56 1.05.88 1.05.66 0 .93-.43.98-.43l-.05.39h.84l.37-2.64c0-1.1-.93-1.15-1.3-1.15m.7 2.06c0 .14-.56.91-1.12.91-.28 0-.37-.24-.37-.38 0-.24.14-.58.84-.58.18.05.65.05.65.05Zm.42 1.68h.97c.28-1.58.33-2.88.98-2.64.1-.62.23-.86.32-1.1h-.18c-.42 0-.75.57-.75.57l.1-.52"/><g clip-path="url(#A)"><path fill="#fff" d="m183.64 86.43-4.08-9.45h2.73l2.8 6.78 3.22-6.78H191L184.64 90h-2.74l1.74-3.57Zm-9.95-1.96a2.77 2.77 0 0 0 1.73-1.23 2.85 2.85 0 0 0 .4-1.5 3.01 3.01 0 0 0-.4-1.53 2.64 2.64 0 0 0-1.73-1.22 3.38 3.38 0 0 0-2.22.25 2.66 2.66 0 0 0-1.34 1.67 3.13 3.13 0 0 0 .3 2.33c.11.2.27.4.44.56a2.72 2.72 0 0 0 1.27.67 3.31 3.31 0 0 0 1.54 0Zm-2.77 2.12a4.6 4.6 0 0 1-3.43-3.47 5.87 5.87 0 0 1 0-2.79 4.62 4.62 0 0 1 3.43-3.46 5.43 5.43 0 0 1 3.93.5 2.84 2.84 0 0 1 .8.75v-1.14h2.6v9.5h-2.6v-1.14a3.42 3.42 0 0 1-1.32 1.03 5.68 5.68 0 0 1-3.4.22Zm-9.44-7.2c.37 0 .74-.04 1.1-.13a2 2 0 0 0 .78-.39c.2-.17.36-.39.45-.64.1-.28.15-.58.14-.89 0-.3-.04-.6-.14-.88-.1-.24-.25-.46-.46-.63a2.04 2.04 0 0 0-.76-.38c-.37-.1-.74-.14-1.11-.13h-2.56v4.07h2.56Zm-5.25-6.31h5.5c.87 0 1.62.1 2.25.32.64.2 1.16.5 1.57.88.4.37.72.84.92 1.36.2.54.3 1.13.3 1.71 0 .59-.1 1.17-.3 1.72-.2.51-.51.97-.92 1.34a4.3 4.3 0 0 1-1.57.9c-.63.2-1.38.32-2.24.32h-2.82v4.85h-2.69v-13.4Zm-11.55 3.9h2.58v1.14c.16-.22.35-.42.56-.6a3.55 3.55 0 0 1 1.64-.73 5.5 5.5 0 0 1 2.65.18 3.3 3.3 0 0 1 1.97 2.07c.18.54.27 1.12.26 1.7v5.74h-2.57V81.4c0-.37-.04-.74-.15-1.1a2.2 2.2 0 0 0-.44-.8c-.2-.2-.43-.37-.7-.47-.3-.1-.63-.16-.96-.16-.32 0-.65.05-.95.16-.27.1-.51.26-.71.48-.2.23-.35.5-.44.8-.1.35-.16.72-.15 1.08v5.08h-2.6v-9.5Zm-6.36 7.47c.24-.06.48-.15.7-.27.22-.1.42-.25.6-.42a2.71 2.71 0 0 0 .7-1.25 3.33 3.33 0 0 0 0-1.59 2.58 2.58 0 0 0-1.3-1.67 2.84 2.84 0 0 0-.7-.27 3.56 3.56 0 0 0-2.34.27 2.7 2.7 0 0 0-1.01 1 3.09 3.09 0 0 0 0 2.94 2.4 2.4 0 0 0 1.02.98 3.14 3.14 0 0 0 1.52.37c.28 0 .55-.03.82-.1m-2.35 2.14a6.1 6.1 0 0 1-1.34-.48 4.96 4.96 0 0 1-1.94-1.78c-.23-.38-.41-.79-.53-1.22a5.32 5.32 0 0 1 0-2.78 4.74 4.74 0 0 1 2.47-3 6.85 6.85 0 0 1 4.41-.49c.46.11.91.28 1.34.5a5.16 5.16 0 0 1 1.96 1.77 5.3 5.3 0 0 1 .53 4 4.75 4.75 0 0 1-2.5 3c-.41.21-.86.37-1.32.48-1.01.23-2.06.23-3.07 0m-10.08-2.14c.24-.06.48-.15.7-.26a2.72 2.72 0 0 0 1.3-1.67 3.38 3.38 0 0 0 0-1.6 2.58 2.58 0 0 0-1.3-1.67 2.86 2.86 0 0 0-.7-.27 3.57 3.57 0 0 0-2.34.27 2.72 2.72 0 0 0-1.01 1 3.09 3.09 0 0 0 0 2.95 2.51 2.51 0 0 0 1.72 1.25 3.39 3.39 0 0 0 1.63 0Zm-2.35 2.15c-.47-.11-.92-.27-1.35-.49a4.96 4.96 0 0 1-1.94-1.77 5.3 5.3 0 0 1 0-5.22 4.81 4.81 0 0 1 1.94-1.78c.43-.22.88-.38 1.35-.49 1-.23 2.05-.23 3.06 0a5.17 5.17 0 0 1 3.3 2.26 5.3 5.3 0 0 1 .53 4 4.74 4.74 0 0 1-2.5 3c-.42.22-.86.38-1.32.49-1.01.23-2.06.23-3.07 0m-20.4-13.51h2.73l4.64 7.15 4.68-7.15h2.73v13.4h-2.7v-9.2l-3.86 5.94h-1.65l-3.86-5.93v9.2h-2.7V73.08Zm-6.2 2.4a2.7 2.7 0 0 0 2.52-1.7 2.75 2.75 0 0 0-1.98-3.73 2.7 2.7 0 0 0-2.8 1.16 2.75 2.75 0 0 0 2.26 4.27ZM88.63 87.8a6.6 6.6 0 0 1-6.12-4.13 6.71 6.71 0 0 1 1.44-7.26 6.61 6.61 0 0 1 11.3 4.7 6.7 6.7 0 0 1-4.09 6.18c-.8.33-1.66.5-2.53.5Z"/></g><defs><clipPath id="b"><path fill="#fff" d="M29 10h16v25H29z"/></clipPath><clipPath id="c"><path fill="#fff" d="M50 10h23v25H50z"/></clipPath><clipPath id="g"><path fill="#fff" d="M78 10h23v24H78z"/></clipPath><clipPath id="j"><path fill="#fff" d="M106 10h23v22h-23z"/></clipPath><clipPath id="k"><path fill="#fff" d="M134 10h23v24h-23z"/></clipPath><clipPath id="l"><path fill="#fff" d="M0 41h22v22H0z"/></clipPath><clipPath id="p"><path fill="#fff" d="M27 41h22v22H27z"/></clipPath><clipPath id="q"><path fill="#fff" d="M54 41h23v21H54z"/></clipPath><clipPath id="u"><path fill="#fff" d="M82 41h21v21H82z"/></clipPath><clipPath id="v"><path fill="#fff" d="M108 41h21v21h-21z"/></clipPath><clipPath id="w"><path fill="#fff" d="M134 41h22v22h-22z"/></clipPath><clipPath id="x"><path fill="#fff" d="M161 41h21v24h-21z"/></clipPath><clipPath id="A"><path fill="#fff" d="M82 70h109v20H82z"/></clipPath><linearGradient id="e" x1="1128.84" x2="1128.84" y1="9.11" y2="2185.45" gradientUnits="userSpaceOnUse"><stop stop-color="#fff" stop-opacity=".5"/><stop offset="1" stop-opacity=".5"/></linearGradient><linearGradient id="i" x1="1156.84" x2="1156.84" y1="10" y2="2166.25" gradientUnits="userSpaceOnUse"><stop stop-color="#fff" stop-opacity=".5"/><stop offset="1" stop-opacity=".5"/></linearGradient><linearGradient id="n" x1="1031.94" x2="1031.94" y1="41" y2="2103.5" gradientUnits="userSpaceOnUse"><stop stop-color="#fff" stop-opacity=".5"/><stop offset="1" stop-opacity=".5"/></linearGradient><linearGradient id="r" x1="74.87" x2="62.2" y1="41.84" y2="66.15" gradientUnits="userSpaceOnUse"><stop stop-color="#00FFA3"/><stop offset="1" stop-color="#DC1FFF"/></linearGradient><linearGradient id="s" x1="69.32" x2="56.64" y1="38.94" y2="63.25" gradientUnits="userSpaceOnUse"><stop stop-color="#00FFA3"/><stop offset="1" stop-color="#DC1FFF"/></linearGradient><linearGradient id="t" x1="72.08" x2="59.4" y1="40.38" y2="64.69" gradientUnits="userSpaceOnUse"><stop stop-color="#00FFA3"/><stop offset="1" stop-color="#DC1FFF"/></linearGradient><linearGradient id="y" x1="176.76" x2="176.76" y1="65" y2="53" gradientUnits="userSpaceOnUse"><stop stop-color="#002D74"/><stop offset="1" stop-color="#002D74" stop-opacity="0"/></linearGradient><linearGradient id="z" x1="166.25" x2="166.25" y1="41" y2="53" gradientUnits="userSpaceOnUse"><stop stop-color="#002D74"/><stop offset="1" stop-color="#002D74" stop-opacity="0"/></linearGradient><filter id="d" width="23.56" height="23.76" x="49.72" y="8.61" color-interpolation-filters="sRGB" filterUnits="userSpaceOnUse"><feFlood flood-opacity="0" result="BackgroundImageFix"/><feColorMatrix in="SourceAlpha" result="hardAlpha" values="0 0 0 0 0 0 0 0 0 0 0 0 0 0 0 0 0 0 127 0"/><feOffset dy=".5"/><feGaussianBlur stdDeviation=".5"/><feComposite in2="hardAlpha" operator="out"/><feColorMatrix values="0 0 0 0 0 0 0 0 0 0 0 0 0 0 0 0 0 0 0.199474 0"/><feBlend in2="BackgroundImageFix" result="effect1_dropShadow_256_2"/><feBlend in="SourceGraphic" in2="effect1_dropShadow_256_2" result="shape"/></filter><filter id="f" width="12.78" height="13.61" x="55.47" y="13.69" color-interpolation-filters="sRGB" filterUnits="userSpaceOnUse"><feFlood flood-opacity="0" result="BackgroundImageFix"/><feColorMatrix in="SourceAlpha" result="hardAlpha" values="0 0 0 0 0 0 0 0 0 0 0 0 0 0 0 0 0 0 127 0"/><feOffset dy=".5"/><feGaussianBlur stdDeviation=".5"/><feColorMatrix values="0 0 0 0 0 0 0 0 0 0 0 0 0 0 0 0 0 0 0.204257 0"/><feBlend in2="BackgroundImageFix" result="effect1_dropShadow_256_2"/><feBlend in="SourceGraphic" in2="effect1_dropShadow_256_2" result="shape"/></filter><filter id="h" width="23.56" height="23.56" x="77.72" y="9.5" color-interpolation-filters="sRGB" filterUnits="userSpaceOnUse"><feFlood flood-opacity="0" result="BackgroundImageFix"/><feColorMatrix in="SourceAlpha" result="hardAlpha" values="0 0 0 0 0 0 0 0 0 0 0 0 0 0 0 0 0 0 127 0"/><feOffset dy=".5"/><feGaussianBlur stdDeviation=".5"/><feComposite in2="hardAlpha" operator="out"/><feColorMatrix values="0 0 0 0 0 0 0 0 0 0 0 0 0 0 0 0 0 0 0.199474 0"/><feBlend in2="BackgroundImageFix" result="effect1_dropShadow_256_2"/><feBlend in="SourceGraphic" in2="effect1_dropShadow_256_2" result="shape"/></filter><filter id="m" width="22.63" height="22.63" x="-.31" y="40.5" color-interpolation-filters="sRGB" filterUnits="userSpaceOnUse"><feFlood flood-opacity="0" result="BackgroundImageFix"/><feColorMatrix in="SourceAlpha" result="hardAlpha" values="0 0 0 0 0 0 0 0 0 0 0 0 0 0 0 0 0 0 127 0"/><feOffset dy=".5"/><feGaussianBlur stdDeviation=".5"/><feComposite in2="hardAlpha" operator="out"/><feColorMatrix values="0 0 0 0 0 0 0 0 0 0 0 0 0 0 0 0 0 0 0.199474 0"/><feBlend in2="BackgroundImageFix" result="effect1_dropShadow_256_2"/><feBlend in="SourceGraphic" in2="effect1_dropShadow_256_2" result="shape"/></filter><filter id="o" width="15.75" height="15.75" x="3.13" y="43.94" color-interpolation-filters="sRGB" filterUnits="userSpaceOnUse"><feFlood flood-opacity="0" result="BackgroundImageFix"/><feColorMatrix in="SourceAlpha" result="hardAlpha" values="0 0 0 0 0 0 0 0 0 0 0 0 0 0 0 0 0 0 127 0"/><feOffset dy=".5"/><feGaussianBlur stdDeviation=".5"/><feColorMatrix values="0 0 0 0 0 0 0 0 0 0 0 0 0 0 0 0 0 0 0.204257 0"/><feBlend in2="BackgroundImageFix" result="effect1_dropShadow_256_2"/><feBlend in="SourceGraphic" in2="effect1_dropShadow_256_2" result="shape"/></filter></defs></svg>