<svg xmlns="http://www.w3.org/2000/svg" width="202" height="68" fill="none"><mask id="a" width="19" height="19" x="1" y="2" maskUnits="userSpaceOnUse" style="mask-type:luminance"><path fill="#fff" d="M19.852 2.346H1.375v18.64h18.477V2.346Z"/></mask><g mask="url(#a)"><path fill="#F7931A" d="M19.575 13.92c-1.234 4.993-6.247 8.032-11.197 6.787-4.949-1.245-7.96-6.302-6.726-11.295C2.885 4.42 7.898 1.38 12.847 2.624c4.95 1.245 7.962 6.303 6.728 11.296Z"/><path fill="#fff" d="M14.687 10.338c.184-1.24-.752-1.907-2.032-2.352l.415-1.68-1.014-.255-.404 1.636a41.88 41.88 0 0 0-.812-.193l.407-1.647-1.013-.254-.416 1.68c-.22-.051-.437-.102-.647-.154l.001-.006-1.398-.352-.27 1.093s.753.174.737.184c.41.104.485.378.472.595l-.473 1.914a.808.808 0 0 1 .106.034c-.034-.008-.07-.018-.108-.026l-.663 2.68c-.05.127-.177.315-.464.244.01.015-.737-.186-.737-.186l-.503 1.17 1.319.333c.245.062.486.127.723.188l-.42 1.7 1.013.254.415-1.681c.277.075.546.145.808.211l-.414 1.674 1.014.255.42-1.697c1.729.33 3.029.197 3.576-1.38.44-1.27-.022-2.003-.932-2.48.663-.155 1.161-.594 1.294-1.502Zm-2.316 3.277c-.313 1.27-2.433.583-3.12.41l.556-2.25c.688.173 2.891.515 2.564 1.84Zm.313-3.296c-.285 1.156-2.05.569-2.622.425l.505-2.042c.572.144 2.415.413 2.117 1.617Z"/></g><g clip-path="url(#b)"><path fill="#343434" d="m33.498.48-.142.478v13.883l.142.14 6.498-3.809L33.498.48Z"/><path fill="#8C8C8C" d="M33.498.48 27 11.172l6.498 3.81V.48Z"/><path fill="#3C3C3B" d="m33.498 16.202-.08.096v4.946l.08.231L40 12.395l-6.502 3.807Z"/><path fill="#8C8C8C" d="M33.498 21.475v-5.274L27 12.394l6.498 9.081Z"/><path fill="#141414" d="m33.498 14.982 6.498-3.81-6.498-2.929v6.739Z"/><path fill="#393939" d="m27 11.172 6.498 3.81V8.242L27 11.173Z"/></g><g clip-path="url(#c)"><g filter="url(#d)"><path fill="#000" d="M55 21.366c5.178 0 9.375-4.287 9.375-9.576 0-5.288-4.197-9.576-9.375-9.576s-9.375 4.288-9.375 9.576c0 5.289 4.197 9.576 9.375 9.576Z"/></g><path fill="#C3A634" d="M55 21.366c5.178 0 9.375-4.287 9.375-9.576 0-5.288-4.197-9.576-9.375-9.576s-9.375 4.288-9.375 9.576c0 5.289 4.197 9.576 9.375 9.576Z"/><path fill="url(#e)" d="M55 21.366c5.178 0 9.375-4.287 9.375-9.576 0-5.288-4.197-9.576-9.375-9.576s-9.375 4.288-9.375 9.576c0 5.289 4.197 9.576 9.375 9.576Z" style="mix-blend-mode:soft-light"/><path stroke="#000" stroke-opacity=".097" d="M55 21.047c5.005 0 9.063-4.145 9.063-9.257S60.005 2.533 55 2.533c-5.005 0-9.063 4.145-9.063 9.257 0 5.113 4.058 9.257 9.063 9.257Z"/><g filter="url(#f)"><path fill="#000" d="M53.28 10.903h2.696v1.46H53.28v3.075h1.7c.674 0 1.224-.093 1.653-.279a2.426 2.426 0 0 0 1.01-.772c.244-.33.41-.716.497-1.16.088-.443.132-.922.132-1.437a7.42 7.42 0 0 0-.132-1.438 2.837 2.837 0 0 0-.498-1.158 2.426 2.426 0 0 0-1.009-.773c-.429-.186-.98-.279-1.652-.279H53.28v2.761Zm-1.729 1.46h-.926v-1.46h.926v-4.22h4.093c.756 0 1.41.133 1.964.4a3.67 3.67 0 0 1 1.355 1.095c.35.462.61 1.004.781 1.624.17.62.256 1.282.256 1.988a7.47 7.47 0 0 1-.256 1.989 4.74 4.74 0 0 1-.781 1.623c-.35.463-.802.828-1.355 1.095-.553.267-1.208.4-1.964.4h-4.093v-4.535Z"/></g><path fill="#fff" d="M53.28 10.903h2.696v1.46H53.28v3.075h1.7c.674 0 1.224-.093 1.653-.279a2.426 2.426 0 0 0 1.01-.772c.244-.33.41-.716.497-1.16.088-.443.132-.922.132-1.437a7.42 7.42 0 0 0-.132-1.438 2.837 2.837 0 0 0-.498-1.158 2.426 2.426 0 0 0-1.009-.773c-.429-.186-.98-.279-1.652-.279H53.28v2.761Zm-1.729 1.46h-.926v-1.46h.926v-4.22h4.093c.756 0 1.41.133 1.964.4a3.67 3.67 0 0 1 1.355 1.095c.35.462.61 1.004.781 1.624.17.62.256 1.282.256 1.988a7.47 7.47 0 0 1-.256 1.989 4.74 4.74 0 0 1-.781 1.623c-.35.463-.802.828-1.355 1.095-.553.267-1.208.4-1.964.4h-4.093v-4.535Z"/></g><g clip-path="url(#g)"><g filter="url(#h)"><path fill="#000" d="M79.5 19.969c4.919 0 8.906-4.023 8.906-8.985S84.42 2 79.5 2c-4.919 0-8.906 4.022-8.906 8.984S74.58 19.97 79.5 19.97Z"/></g><path fill="#23292F" d="M79.5 19.969c4.919 0 8.906-4.023 8.906-8.985S84.42 2 79.5 2c-4.919 0-8.906 4.022-8.906 8.984S74.58 19.97 79.5 19.97Z"/><path fill="url(#i)" d="M79.5 19.969c4.919 0 8.906-4.023 8.906-8.985S84.42 2 79.5 2c-4.919 0-8.906 4.022-8.906 8.984S74.58 19.97 79.5 19.97Z" style="mix-blend-mode:soft-light"/><path stroke="#000" stroke-opacity=".097" d="M79.5 19.67c4.755 0 8.61-3.89 8.61-8.686 0-4.796-3.855-8.685-8.61-8.685-4.755 0-8.61 3.889-8.61 8.685 0 4.797 3.855 8.685 8.61 8.685Z"/><path fill="#fff" d="M83.278 6.792h1.545l-3.215 3.21a2.985 2.985 0 0 1-4.217 0l-3.216-3.21h1.547l2.442 2.438a1.888 1.888 0 0 0 2.67 0l2.444-2.438ZM75.703 15.72h-1.547l3.236-3.23a2.985 2.985 0 0 1 4.216 0l3.236 3.23h-1.547l-2.461-2.46a1.888 1.888 0 0 0-2.67 0l-2.463 2.46Z"/></g><g fill="#0033AD" clip-path="url(#j)"><path d="M99.483 11.344c-.043.769.528 1.428 1.269 1.472h.08c.747 0 1.349-.626 1.344-1.4 0-.775-.603-1.4-1.349-1.395-.715 0-1.307.581-1.344 1.323ZM94.459 10.984a.438.438 0 0 0-.459.426c-.01.25.17.465.41.476.24.017.443-.177.46-.426a.446.446 0 0 0-.411-.476ZM99.397 3.232a.465.465 0 0 0 .192-.61.432.432 0 0 0-.586-.198.458.458 0 0 0-.192.603c.106.227.368.32.586.205ZM100.763 5.705a.71.71 0 0 0 .298-.935.661.661 0 0 0-.901-.31.71.71 0 0 0-.298.935c.165.343.57.482.901.31ZM96.165 7.404c.256.171.598.1.768-.166a.592.592 0 0 0-.16-.797.546.546 0 0 0-.767.166.586.586 0 0 0 .16.797ZM96.981 10.735a.68.68 0 0 0-.709.659.687.687 0 0 0 .635.736.68.68 0 0 0 .71-.659.69.69 0 0 0-.636-.736ZM96.24 15.422a.588.588 0 0 0-.245.775c.138.282.469.398.746.254a.588.588 0 0 0 .246-.774.548.548 0 0 0-.747-.255ZM98.853 9.29a.768.768 0 0 0 1.094-.237.833.833 0 0 0-.23-1.134.768.768 0 0 0-1.093.238.835.835 0 0 0 .23 1.134ZM107.146 5.65c.31.21.731.122.934-.2a.72.72 0 0 0-.192-.968.663.663 0 0 0-.934.2.708.708 0 0 0 .192.968ZM108.523 3.187a.423.423 0 0 0 .602-.133.459.459 0 0 0-.128-.625.426.426 0 0 0-.602.127.476.476 0 0 0 .128.631ZM107.248 10.01c-.741-.044-1.381.548-1.419 1.317-.042.77.528 1.434 1.27 1.472h.074c.742 0 1.344-.625 1.344-1.4.006-.736-.554-1.35-1.269-1.389ZM101.205 9.191c.23.47.694.77 1.206.77.741 0 1.344-.626 1.344-1.4 0-.216-.048-.432-.144-.631-.336-.692-1.147-.969-1.808-.62a1.428 1.428 0 0 0-.598 1.881ZM111.76 7.404a.587.587 0 0 0 .24-.775.547.547 0 0 0-.747-.249.588.588 0 0 0-.245.77.554.554 0 0 0 .752.254ZM108.347 7.847a.834.834 0 0 0-.352 1.1.777.777 0 0 0 1.061.366.836.836 0 0 0 .352-1.101.782.782 0 0 0-1.061-.365ZM103.947 2.977a.57.57 0 0 0 .586-.542.571.571 0 0 0-.522-.609.565.565 0 0 0-.587.537.578.578 0 0 0 .523.614ZM103.941 6.59c.438.028.811-.32.832-.774.027-.454-.309-.841-.746-.863-.438-.028-.811.32-.832.774-.022.454.309.841.746.864ZM99.653 14.98a.834.834 0 0 0 .352-1.102.777.777 0 0 0-1.061-.365.835.835 0 0 0-.352 1.101.778.778 0 0 0 1.061.365ZM104.453 7.791c-.405.648-.234 1.51.39 1.931.624.421 1.456.244 1.861-.403.405-.648.235-1.511-.389-1.932a1.303 1.303 0 0 0-.736-.227 1.34 1.34 0 0 0-1.126.631ZM106.795 13.635c-.336-.692-1.147-.969-1.808-.62-.667.349-.934 1.19-.598 1.876.336.691 1.147.968 1.808.62.662-.343.934-1.173.603-1.865 0-.006 0-.006-.005-.011ZM109.147 13.535a.769.769 0 0 0-1.094.238.833.833 0 0 0 .23 1.135.768.768 0 0 0 1.093-.239.835.835 0 0 0-.229-1.134ZM111.728 11.438a.686.686 0 0 0-.635-.736.68.68 0 0 0-.709.659.686.686 0 0 0 .635.735c.368.023.688-.276.709-.658ZM113.589 10.94a.437.437 0 0 0-.458.426c-.011.249.17.465.41.476.24.016.443-.177.459-.426a.45.45 0 0 0-.411-.476ZM111.835 15.422a.545.545 0 0 0-.768.166.591.591 0 0 0 .16.797c.256.171.597.1.768-.166a.587.587 0 0 0-.16-.797ZM99.472 19.639a.427.427 0 0 0-.603.127.464.464 0 0 0 .123.625c.203.139.47.078.603-.127a.454.454 0 0 0-.123-.625ZM108.603 19.595a.464.464 0 0 0-.192.608c.106.221.373.31.586.2a.457.457 0 0 0 .192-.604.424.424 0 0 0-.586-.204ZM103.547 15.035c.405-.648.234-1.511-.39-1.937a1.32 1.32 0 0 0-1.866.404 1.428 1.428 0 0 0 .389 1.937c.219.15.475.226.736.226.459.006.88-.232 1.131-.63ZM100.853 17.176a.662.662 0 0 0-.933.2.719.719 0 0 0 .192.968c.309.21.731.121.933-.2a.708.708 0 0 0-.192-.968ZM103.995 19.849a.57.57 0 0 0-.587.542.572.572 0 0 0 .523.609.564.564 0 0 0 .586-.537.577.577 0 0 0-.522-.614ZM104 16.235c-.437-.027-.811.322-.832.775a.804.804 0 0 0 .747.863.8.8 0 0 0 .832-.774c.026-.448-.31-.841-.747-.864ZM107.237 17.121a.712.712 0 0 0-.293.94.663.663 0 0 0 .907.305.71.71 0 0 0 .298-.935.669.669 0 0 0-.912-.31Z"/></g><g fill="#E6007A" clip-path="url(#k)"><path d="M128.499 6.195c2.013 0 3.644-.94 3.644-2.098S130.512 2 128.499 2c-2.012 0-3.643.939-3.643 2.097 0 1.159 1.631 2.098 3.643 2.098ZM128.499 21.999c2.013 0 3.644-.94 3.644-2.098s-1.631-2.097-3.644-2.097c-2.012 0-3.643.939-3.643 2.097 0 1.159 1.631 2.098 3.643 2.098ZM123.422 9.098c1.006-1.725.999-3.593-.015-4.172-1.014-.58-2.652.349-3.658 2.073-1.006 1.725-1 3.593.015 4.173 1.014.58 2.652-.349 3.658-2.074ZM137.248 17c1.006-1.726 1-3.594-.013-4.173-1.014-.579-2.651.35-3.657 2.075-1.007 1.725-1.001 3.592.013 4.171 1.013.58 2.651-.349 3.657-2.074ZM123.408 19.073c1.014-.58 1.02-2.448.014-4.173-1.006-1.724-2.644-2.653-3.658-2.073-1.014.58-1.021 2.447-.014 4.172 1.006 1.725 2.643 2.654 3.658 2.074ZM137.235 11.172c1.014-.579 1.02-2.447.014-4.172-1.006-1.724-2.644-2.653-3.657-2.074-1.014.58-1.02 2.447-.013 4.172 1.006 1.725 2.643 2.653 3.656 2.074Z"/></g><path fill="#FF060A" d="M154.033 22.256c6.047 0 10.945-4.523 10.945-10.101 0-5.578-4.898-10.102-10.945-10.102-6.047 0-10.945 4.524-10.945 10.102s4.902 10.101 10.945 10.101Z"/><path fill="#fff" d="M160.189 10.34c-.604-.516-1.443-1.304-2.122-1.861l-.042-.024a.882.882 0 0 0-.222-.117c-1.644-.283-9.293-1.604-9.44-1.588a.284.284 0 0 0-.117.04l-.038.029a.407.407 0 0 0-.105.157l-.008.025v.153c.859 2.213 4.26 9.46 4.931 11.164.042.117.118.335.26.348h.034c.075 0 .403-.4.403-.4s5.841-6.536 6.433-7.23c.075-.085.142-.178.201-.275a.381.381 0 0 0-.021-.226.52.52 0 0 0-.147-.194Zm-4.974.764 2.491-1.906 1.464 1.244-3.955.662Zm-.968-.125-4.29-3.247 6.944 1.183-2.654 2.064Zm.386.848 4.39-.654-5.019 5.586.629-4.932Zm-5.259-3.768 4.516 3.534-.654 5.17-3.862-8.704Z"/><g clip-path="url(#l)"><g filter="url(#m)"><path fill="#000" d="M180.5 21.688c5.437 0 9.844-4.408 9.844-9.844 0-5.437-4.407-9.844-9.844-9.844-5.437 0-9.844 4.407-9.844 9.844 0 5.436 4.407 9.844 9.844 9.844Z"/></g><path fill="#F3BA2F" d="M180.5 21.688c5.437 0 9.844-4.408 9.844-9.844 0-5.437-4.407-9.844-9.844-9.844-5.437 0-9.844 4.407-9.844 9.844 0 5.436 4.407 9.844 9.844 9.844Z"/><path fill="url(#n)" d="M180.5 21.688c5.437 0 9.844-4.408 9.844-9.844 0-5.437-4.407-9.844-9.844-9.844-5.437 0-9.844 4.407-9.844 9.844 0 5.436 4.407 9.844 9.844 9.844Z" style="mix-blend-mode:soft-light"/><path stroke="#000" stroke-opacity=".097" d="M180.5 21.36c5.255 0 9.516-4.26 9.516-9.516s-4.261-9.516-9.516-9.516-9.516 4.26-9.516 9.516c0 5.255 4.261 9.515 9.516 9.515Z"/><g filter="url(#o)"><path fill="#000" d="m177.951 10.796 2.549-2.548 2.55 2.55 1.483-1.483L180.5 5.28l-4.032 4.032 1.483 1.483Zm-4.013 1.048 1.483-1.484 1.483 1.484-1.483 1.483-1.483-1.483Zm4.013 1.047 2.549 2.549 2.55-2.55 1.484 1.482h-.001l-4.033 4.034-4.032-4.032-.002-.002 1.485-1.481Zm6.145-1.047 1.483-1.483 1.483 1.483-1.483 1.483-1.483-1.483Zm-2.092-.001h.002l-.001.002-1.505 1.505-1.504-1.504-.002-.002.002-.002.264-.264.128-.128 1.112-1.112 1.505 1.505h-.001Z"/></g><path fill="#fff" d="m177.951 10.796 2.549-2.548 2.55 2.55 1.483-1.483L180.5 5.28l-4.032 4.032 1.483 1.483Zm-4.013 1.048 1.483-1.484 1.483 1.484-1.483 1.483-1.483-1.483Zm4.013 1.047 2.549 2.549 2.55-2.55 1.484 1.482h-.001l-4.033 4.034-4.032-4.032-.002-.002 1.485-1.481Zm6.145-1.047 1.483-1.483 1.483 1.483-1.483 1.483-1.483-1.483Zm-2.092-.001h.002l-.001.002-1.505 1.505-1.504-1.504-.002-.002.002-.002.264-.264.128-.128 1.112-1.112 1.505 1.505h-.001Z"/></g><g clip-path="url(#p)"><path fill="#fff" d="M13.742 35.916H3.246v9.54h10.496v-9.54Z"/><path fill="#E84142" fill-rule="evenodd" d="M16.994 41.5c0 4.688-3.803 8.489-8.494 8.489S.006 46.189.006 41.5c0-4.688 3.803-8.489 8.494-8.489s8.494 3.8 8.494 8.489Zm-10.9 3.378h-1.65c-.346 0-.517 0-.621-.067a.419.419 0 0 1-.19-.327c-.006-.123.08-.273.25-.574l4.07-7.17c.174-.304.262-.456.372-.512a.42.42 0 0 1 .38 0c.11.056.198.208.371.513l.837 1.46.004.007c.188.327.282.492.324.666.046.19.046.39 0 .58-.042.175-.136.342-.326.673l-2.138 3.777-.005.01c-.189.33-.284.496-.416.622a1.244 1.244 0 0 1-.507.294c-.174.048-.368.048-.756.048Zm4.162 0h2.362c.349 0 .524 0 .628-.069a.417.417 0 0 0 .19-.33c.006-.118-.077-.262-.241-.545a13.66 13.66 0 0 1-.017-.03l-1.184-2.023-.013-.022c-.166-.281-.25-.423-.358-.478a.416.416 0 0 0-.378 0c-.108.056-.196.204-.369.503l-1.18 2.022-.003.007c-.173.298-.259.447-.253.569a.422.422 0 0 0 .19.33c.102.066.278.066.626.066Z" clip-rule="evenodd"/></g><g clip-path="url(#q)"><path fill="url(#r)" d="M25.086 46.55a.629.629 0 0 1 .44-.178H40.69c.277 0 .415.328.22.52l-2.996 2.93a.629.629 0 0 1-.44.178H22.311c-.278 0-.416-.327-.22-.519l2.995-2.931Z"/><path fill="url(#s)" d="M25.086 35.606a.646.646 0 0 1 .44-.177H40.69c.277 0 .415.327.22.518l-2.996 2.932a.629.629 0 0 1-.44.177H22.311c-.278 0-.416-.327-.22-.519l2.995-2.93Z"/><path fill="url(#t)" d="M37.914 41.043a.628.628 0 0 0-.44-.178H22.311c-.278 0-.416.328-.22.52l2.995 2.93a.629.629 0 0 0 .44.178H40.69c.277 0 .415-.327.22-.519l-2.996-2.931Z"/></g><g clip-path="url(#u)"><path fill="#8247E5" d="M55 51a9 9 0 1 0 0-18 9 9 0 0 0 0 18Z"/><path fill="#fff" d="M58.086 39.977a.8.8 0 0 0-.752 0l-1.755 1.034-1.19.658-1.723 1.034a.8.8 0 0 1-.752 0l-1.348-.815a.763.763 0 0 1-.376-.657v-1.567c0-.251.126-.502.377-.658l1.347-.784a.8.8 0 0 1 .752 0l1.347.816c.22.125.376.375.376.657v1.034l1.19-.689v-1.065a.772.772 0 0 0-.376-.659l-2.506-1.472a.8.8 0 0 0-.752 0l-2.569 1.504a.69.69 0 0 0-.376.627v2.944c0 .252.125.502.376.659l2.538 1.472a.8.8 0 0 0 .752 0l1.723-1.002 1.19-.69 1.724-1.002a.8.8 0 0 1 .752 0l1.347.783c.22.125.376.376.376.658v1.567c0 .25-.125.501-.376.658l-1.316.783a.8.8 0 0 1-.752 0l-1.347-.783a.764.764 0 0 1-.376-.658V43.36l-1.191.689v1.034c0 .25.125.501.376.657l2.538 1.474a.8.8 0 0 0 .752 0l2.538-1.474a.763.763 0 0 0 .375-.657v-2.977a.773.773 0 0 0-.376-.658l-2.537-1.472Z"/></g><g clip-path="url(#v)"><path fill="#213147" d="M70.717 38.776v7.448c0 .479.251.912.67 1.155l6.451 3.724c.41.236.92.236 1.33 0l6.453-3.724c.41-.235.669-.676.669-1.155v-7.448c0-.479-.251-.912-.67-1.155l-6.452-3.724a1.34 1.34 0 0 0-1.33 0l-6.452 3.724c-.41.235-.661.676-.661 1.155h-.008Z"/><path fill="#12AAFF" d="m79.906 43.944-.92 2.523a.363.363 0 0 0 0 .22l1.581 4.34 1.832-1.056-2.197-6.027a.158.158 0 0 0-.296 0ZM81.753 39.703a.158.158 0 0 0-.297 0l-.92 2.523a.363.363 0 0 0 0 .22l2.592 7.107 1.832-1.057-3.207-8.785v-.008Z"/><path fill="#9DCCED" d="M78.5 34.178c.046 0 .091.015.13.038l6.976 4.028c.084.046.13.137.13.228v8.056a.275.275 0 0 1-.13.228l-6.977 4.028a.256.256 0 0 1-.13.038.256.256 0 0 1-.128-.038l-6.977-4.028a.258.258 0 0 1-.13-.228v-8.064c0-.09.054-.182.13-.228l6.977-4.028a.256.256 0 0 1 .129-.038v.008Zm0-1.178c-.25 0-.494.06-.722.19L70.8 37.218c-.448.258-.722.73-.722 1.246v8.056c0 .517.274.988.722 1.247l6.977 4.028c.22.129.471.19.722.19.25 0 .494-.061.722-.19l6.977-4.028c.448-.259.722-.73.722-1.247v-8.056c0-.516-.274-.988-.722-1.246l-6.985-4.028c-.22-.13-.47-.19-.722-.19h.008Z"/><path fill="#213147" d="m73.879 49.56.646-1.763 1.292 1.072-1.208 1.11-.73-.419Z"/><path fill="#fff" d="M77.907 37.894h-1.77c-.13 0-.252.084-.297.206l-3.793 10.396 1.832 1.057 4.18-11.453a.157.157 0 0 0-.144-.213l-.008.007ZM81.008 37.894h-1.771c-.13 0-.251.084-.297.206l-4.332 11.87 1.832 1.057L81.152 38.1a.157.157 0 0 0-.144-.213v.007Z"/></g><g clip-path="url(#w)"><path fill="#002D74" d="M102.007 33 93 38.25v10.5l9.007 5.25L111 48.75v-10.5L102.007 33Zm6.325 14.192-6.339 3.691-6.325-3.691v-7.384l6.339-3.691 6.325 3.691v7.384Z"/><path fill="url(#x)" d="M102.008 54 111 48.75v-10.5L102.008 33v3.117l6.324 3.691v7.399l-6.339 3.691V54h.015Z"/><path fill="url(#y)" d="M101.993 33 93 38.25v10.5l8.993 5.25v-3.117l-6.325-3.691v-7.399l6.325-3.676V33Z"/><path fill="#002D74" d="m106.204 45.951-4.197 2.451-4.211-2.451v-4.902l4.211-2.451 4.197 2.451-1.754 1.029-2.458-1.438-2.443 1.438v2.86l2.458 1.437 2.458-1.438 1.739 1.014Z"/></g><path fill="#1434CB" d="M143.226 36.197c-2.954 0-5.607 1.59-5.607 4.508 0 3.36 4.686 3.589 4.686 5.26 0 .705-.794 1.344-2.129 1.344-1.905 0-3.335-.885-3.335-.885l-.603 2.95s1.635.754 3.827.754c3.24 0 5.782-1.655 5.782-4.638 0-3.54-4.702-3.77-4.702-5.326 0-.558.652-1.164 1.986-1.164 1.509 0 2.747.64 2.747.64l.604-2.853c-.016 0-1.366-.59-3.256-.59Zm-27.065.213-.079.427s1.239.229 2.367.704c1.445.541 1.54.853 1.794 1.82l2.653 10.538h3.558l5.447-13.489h-3.541l-3.511 9.179-1.429-7.785c-.127-.886-.794-1.394-1.62-1.394h-5.639Zm17.17 0-2.78 13.489h3.383l2.764-13.489h-3.367Zm18.837 0c-.81 0-1.239.443-1.556 1.23l-4.956 12.259h3.542l.683-2.049h4.32l.413 2.049h3.129l-2.716-13.489h-2.859Zm.461 3.655 1.048 5.065h-2.811l1.763-5.065Z"/><path fill="#FFB600" d="M195.753 42.904c0 5.246-4.156 9.533-9.351 9.533-5.146 0-9.351-4.287-9.351-9.533 0-5.245 4.156-9.533 9.301-9.533 5.245 0 9.401 4.288 9.401 9.533Z"/><path fill="#F7981D" d="M186.402 33.371c5.145 0 9.351 4.288 9.351 9.533 0 5.246-4.156 9.533-9.351 9.533-5.146 0-9.351-4.287-9.351-9.533"/><path fill="#FF8500" d="M186.402 33.371c5.145 0 9.351 4.288 9.351 9.533 0 5.246-4.156 9.533-9.351 9.533"/><path fill="#FF5050" d="M173.835 33.371c-5.096.05-9.252 4.288-9.252 9.533 0 5.246 4.156 9.533 9.351 9.533 2.424 0 4.601-.958 6.283-2.471.347-.303.643-.656.94-1.009h-1.929a11.495 11.495 0 0 1-.693-.958h3.315c.198-.303.396-.656.544-1.01h-4.403a6.032 6.032 0 0 1-.396-1.008h5.146c.296-.958.494-1.967.494-3.026 0-.706-.099-1.362-.198-2.018h-5.739c.05-.353.149-.655.248-1.009h5.145a6.036 6.036 0 0 0-.396-1.008h-4.354c.149-.353.347-.656.545-1.01h3.314a4.757 4.757 0 0 0-.742-1.008h-1.83c.297-.353.593-.656.94-.958-1.633-1.564-3.859-2.472-6.284-2.472 0-.1 0-.1-.049-.1Z"/><path fill="#E52836" d="M164.583 42.904c0 5.246 4.156 9.533 9.351 9.533 2.424 0 4.601-.958 6.283-2.471.347-.303.643-.656.94-1.01h-1.929a11.51 11.51 0 0 1-.693-.957h3.315c.198-.303.396-.656.544-1.01h-4.403a6.036 6.036 0 0 1-.396-1.008h5.146c.296-.958.494-1.967.494-3.026 0-.706-.099-1.362-.198-2.018h-5.739c.05-.353.149-.655.248-1.009h5.145a6.032 6.032 0 0 0-.396-1.008h-4.354c.149-.353.347-.656.545-1.01h3.314a4.752 4.752 0 0 0-.742-1.008h-1.83c.297-.353.593-.656.94-.958-1.633-1.564-3.859-2.472-6.284-2.472h-.049"/><path fill="#CB2026" d="M173.934 52.437c2.424 0 4.601-.958 6.283-2.471.347-.303.643-.656.94-1.01h-1.929a11.51 11.51 0 0 1-.693-.957h3.315c.198-.303.396-.656.544-1.01h-4.403a6.036 6.036 0 0 1-.396-1.008h5.146c.296-.958.494-1.967.494-3.026 0-.706-.099-1.362-.198-2.018h-5.739c.05-.353.149-.655.248-1.009h5.145a6.032 6.032 0 0 0-.396-1.008h-4.354c.149-.353.347-.656.545-1.01h3.314a4.752 4.752 0 0 0-.742-1.008h-1.83c.297-.353.593-.656.94-.958-1.633-1.564-3.859-2.472-6.284-2.472h-.049"/><path fill="#fff" d="m177.248 45.326.149-.858c-.05 0-.149.05-.248.05-.346 0-.395-.201-.346-.302l.297-1.766h.544l.149-.958h-.495l.099-.605h-.99s-.593 3.329-.593 3.732c0 .606.346.858.791.858.297 0 .544-.101.643-.151Zm.347-1.614c0 1.412.94 1.765 1.731 1.765.742 0 1.039-.151 1.039-.151l.198-.959s-.544.252-1.039.252c-1.088 0-.89-.807-.89-.807h2.028s.149-.655.149-.907c0-.656-.347-1.463-1.435-1.463-1.039-.101-1.781 1.008-1.781 2.27Zm1.731-1.463c.545 0 .446.655.446.706h-1.089c0-.05.099-.706.643-.706Zm6.284 3.077.198-1.11s-.495.252-.841.252c-.693 0-.99-.555-.99-1.16 0-1.21.594-1.866 1.286-1.866.495 0 .891.302.891.302l.148-1.059s-.593-.252-1.138-.252c-1.138 0-2.275 1.009-2.275 2.925 0 1.261.593 2.119 1.781 2.119.395 0 .94-.151.94-.151Zm-13.804-3.985c-.693 0-1.187.202-1.187.202l-.149.857s.445-.202 1.089-.202c.346 0 .643.05.643.353 0 .202-.05.253-.05.253h-.445c-.841 0-1.781.353-1.781 1.513 0 .908.594 1.11.94 1.11.693 0 .989-.455 1.039-.455l-.05.404h.891l.396-2.774c0-1.21-.99-1.261-1.336-1.261Zm.198 2.27c0 .15-.099.958-.693.958-.297 0-.396-.252-.396-.404 0-.252.149-.605.891-.605.148.05.198.05.198.05Zm2.078 1.815c.247 0 1.484.05 1.484-1.311 0-1.261-1.187-1.009-1.187-1.513 0-.252.198-.353.544-.353.148 0 .693.05.693.05l.148-.908s-.346-.1-.94-.1c-.742 0-1.484.302-1.484 1.31 0 1.16 1.237 1.06 1.237 1.514 0 .303-.347.353-.594.353-.445 0-.891-.151-.891-.151l-.148.908c.049.1.297.201 1.138.201Zm19.741-4.892-.198 1.362s-.396-.505-.94-.505c-.891 0-1.682 1.11-1.682 2.421 0 .807.395 1.665 1.236 1.665.594 0 .94-.404.94-.404l-.049.353h.989l.743-4.842-1.039-.05Zm-.446 2.673c0 .555-.247 1.261-.791 1.261-.347 0-.544-.303-.544-.807 0-.807.346-1.311.791-1.311.346 0 .544.252.544.857Zm-26.964 2.169.594-3.632.099 3.632h.692l1.287-3.632-.544 3.632h1.039l.791-4.842h-1.632l-.99 2.976-.049-2.976h-1.435l-.792 4.842h.94Zm15.338 0c.296-1.664.346-3.026 1.039-2.774.099-.656.247-.908.346-1.16h-.198c-.445 0-.792.605-.792.605l.099-.555h-.94l-.643 3.934h1.089v-.05Zm6.135-4.035a3.45 3.45 0 0 0-1.188.202l-.148.857s.445-.202 1.088-.202c.347 0 .643.05.643.353 0 .202-.049.253-.049.253h-.445c-.841 0-1.782.353-1.782 1.513 0 .908.594 1.11.941 1.11.692 0 .989-.455 1.039-.455l-.05.404h.891l.395-2.774c.05-1.21-.989-1.261-1.335-1.261Zm.247 2.27c0 .15-.099.958-.693.958-.297 0-.395-.252-.395-.404 0-.252.148-.605.89-.605.148.05.148.05.198.05Zm1.929 1.765c.297-1.664.347-3.026 1.04-2.774.098-.656.247-.908.346-1.16h-.198c-.445 0-.792.605-.792.605l.099-.555h-.94l-.643 3.934h1.088v-.05Z"/><path fill="#DCE5E5" d="M175.715 44.62c0 .605.346.857.791.857.347 0 .643-.101.742-.151l.149-.858c-.05 0-.149.05-.248.05-.346 0-.395-.201-.346-.302l.297-1.766h.544l.149-.958h-.495l.099-.605m.692 2.825c0 1.412.446 1.765 1.237 1.765.742 0 1.039-.151 1.039-.151l.198-.959s-.544.252-1.039.252c-1.088 0-.89-.807-.89-.807h2.028s.149-.655.149-.907c0-.656-.347-1.463-1.435-1.463-1.039-.101-1.287 1.008-1.287 2.27Zm1.237-1.463c.545 0 .643.655.643.706h-1.286c0-.05.099-.706.643-.706Zm6.284 3.077.198-1.11s-.495.252-.841.252c-.693 0-.99-.555-.99-1.16 0-1.21.594-1.866 1.286-1.866.495 0 .891.302.891.302l.148-1.059s-.593-.252-1.138-.252c-1.138 0-1.781 1.009-1.781 2.925 0 1.261.099 2.119 1.287 2.119.395 0 .94-.151.94-.151Zm-15.14-2.876s.445-.201 1.089-.201c.346 0 .643.05.643.353 0 .202-.05.252-.05.252h-.445c-.841 0-1.781.353-1.781 1.513 0 .908.594 1.11.94 1.11.693 0 .989-.454 1.039-.454l-.05.403h.891l.396-2.774c0-1.16-.99-1.21-1.385-1.21m.742 2.169c0 .15-.594.958-1.188.958-.297 0-.396-.252-.396-.404 0-.252.149-.605.891-.605.148.05.693.05.693.05Zm.494 1.715s.297.1 1.138.1c.248 0 1.485.05 1.485-1.311 0-1.261-1.188-1.009-1.188-1.513 0-.252.198-.353.544-.353.149 0 .693.05.693.05l.149-.908s-.347-.1-.94-.1c-.743 0-.99.302-.99 1.31 0 1.16.742 1.06.742 1.514 0 .303-.346.353-.594.353m19.593-2.572s-.396-.505-.94-.505c-.891 0-1.188 1.11-1.188 2.421 0 .807-.099 1.665.742 1.665.594 0 .94-.404.94-.404l-.049.353h.989l.743-4.842m-1.287 2.623c0 .555-.445 1.261-.989 1.261-.347 0-.544-.303-.544-.807 0-.807.346-1.311.791-1.311.346 0 .742.252.742.857Zm-27.162 2.169.594-3.632.099 3.632h.692l1.287-3.632-.544 3.632h1.039l.791-4.842h-1.237l-1.385 2.976-.049-2.976h-.545l-1.682 4.842h.94Zm14.299 0h1.039c.296-1.664.346-3.026 1.039-2.774.099-.656.247-.908.346-1.16h-.198c-.445 0-.792.605-.792.605l.099-.555m4.305.959s.445-.202 1.088-.202c.347 0 .643.05.643.353 0 .202-.049.252-.049.252h-.445c-.841 0-1.782.353-1.782 1.513 0 .908.594 1.11.941 1.11.692 0 .989-.454 1.039-.454l-.05.403h.891l.395-2.774c0-1.16-.989-1.21-1.385-1.21m.742 2.169c0 .15-.593.958-1.187.958-.297 0-.396-.252-.396-.404 0-.252.148-.605.891-.605.197.05.692.05.692.05Zm.446 1.765h1.038c.297-1.664.347-3.026 1.04-2.774.098-.656.247-.908.346-1.16h-.198c-.445 0-.792.605-.792.605l.099-.555"/><defs><clipPath id="b"><path fill="#fff" d="M27 0h13v22H27z"/></clipPath><clipPath id="c"><path fill="#fff" d="M45 0h20v22H45z"/></clipPath><clipPath id="g"><path fill="#fff" d="M70 0h19v22H70z"/></clipPath><clipPath id="j"><path fill="#fff" d="M94 0h20v21H94z"/></clipPath><clipPath id="k"><path fill="#fff" d="M119 0h19v22h-19z"/></clipPath><clipPath id="l"><path fill="#fff" d="M170 0h21v23h-21z"/></clipPath><clipPath id="p"><path fill="#fff" d="M0 33h17v17H0z"/></clipPath><clipPath id="q"><path fill="#fff" d="M22 33h19v17H22z"/></clipPath><clipPath id="u"><path fill="#fff" d="M46 33h18v18H46z"/></clipPath><clipPath id="v"><path fill="#fff" d="M69 33h19v19H69z"/></clipPath><clipPath id="w"><path fill="#fff" d="M93 33h18v21H93z"/></clipPath><linearGradient id="e" x1="983.125" x2="983.125" y1="2.214" y2="1917.39" gradientUnits="userSpaceOnUse"><stop stop-color="#fff" stop-opacity=".5"/><stop offset="1" stop-opacity=".5"/></linearGradient><linearGradient id="i" x1="961.219" x2="961.219" y1="2" y2="1798.88" gradientUnits="userSpaceOnUse"><stop stop-color="#fff" stop-opacity=".5"/><stop offset="1" stop-opacity=".5"/></linearGradient><linearGradient id="n" x1="1155.03" x2="1155.03" y1="2" y2="1970.75" gradientUnits="userSpaceOnUse"><stop stop-color="#fff" stop-opacity=".5"/><stop offset="1" stop-opacity=".5"/></linearGradient><linearGradient id="r" x1="39.241" x2="29.1" y1="33.678" y2="53.528" gradientUnits="userSpaceOnUse"><stop stop-color="#00FFA3"/><stop offset="1" stop-color="#DC1FFF"/></linearGradient><linearGradient id="s" x1="34.652" x2="24.511" y1="31.333" y2="51.183" gradientUnits="userSpaceOnUse"><stop stop-color="#00FFA3"/><stop offset="1" stop-color="#DC1FFF"/></linearGradient><linearGradient id="t" x1="36.932" x2="26.791" y1="32.498" y2="52.348" gradientUnits="userSpaceOnUse"><stop stop-color="#00FFA3"/><stop offset="1" stop-color="#DC1FFF"/></linearGradient><linearGradient id="x" x1="106.506" x2="106.506" y1="54.001" y2="43.5" gradientUnits="userSpaceOnUse"><stop stop-color="#002D74"/><stop offset="1" stop-color="#002D74" stop-opacity="0"/></linearGradient><linearGradient id="y" x1="97.5" x2="97.5" y1="33" y2="43.5" gradientUnits="userSpaceOnUse"><stop stop-color="#002D74"/><stop offset="1" stop-color="#002D74" stop-opacity="0"/></linearGradient><filter id="d" width="20.75" height="21.152" x="44.625" y="1.714" color-interpolation-filters="sRGB" filterUnits="userSpaceOnUse"><feFlood flood-opacity="0" result="BackgroundImageFix"/><feColorMatrix in="SourceAlpha" result="hardAlpha" values="0 0 0 0 0 0 0 0 0 0 0 0 0 0 0 0 0 0 127 0"/><feOffset dy=".5"/><feGaussianBlur stdDeviation=".5"/><feComposite in2="hardAlpha" operator="out"/><feColorMatrix values="0 0 0 0 0 0 0 0 0 0 0 0 0 0 0 0 0 0 0.199474 0"/><feBlend in2="BackgroundImageFix" result="effect1_dropShadow_431_858"/><feBlend in="SourceGraphic" in2="effect1_dropShadow_431_858" result="shape"/></filter><filter id="f" width="11.375" height="12.214" x="49.625" y="6.183" color-interpolation-filters="sRGB" filterUnits="userSpaceOnUse"><feFlood flood-opacity="0" result="BackgroundImageFix"/><feColorMatrix in="SourceAlpha" result="hardAlpha" values="0 0 0 0 0 0 0 0 0 0 0 0 0 0 0 0 0 0 127 0"/><feOffset dy=".5"/><feGaussianBlur stdDeviation=".5"/><feColorMatrix values="0 0 0 0 0 0 0 0 0 0 0 0 0 0 0 0 0 0 0.204257 0"/><feBlend in2="BackgroundImageFix" result="effect1_dropShadow_431_858"/><feBlend in="SourceGraphic" in2="effect1_dropShadow_431_858" result="shape"/></filter><filter id="h" width="19.813" height="19.969" x="69.594" y="1.5" color-interpolation-filters="sRGB" filterUnits="userSpaceOnUse"><feFlood flood-opacity="0" result="BackgroundImageFix"/><feColorMatrix in="SourceAlpha" result="hardAlpha" values="0 0 0 0 0 0 0 0 0 0 0 0 0 0 0 0 0 0 127 0"/><feOffset dy=".5"/><feGaussianBlur stdDeviation=".5"/><feComposite in2="hardAlpha" operator="out"/><feColorMatrix values="0 0 0 0 0 0 0 0 0 0 0 0 0 0 0 0 0 0 0.199474 0"/><feBlend in2="BackgroundImageFix" result="effect1_dropShadow_431_858"/><feBlend in="SourceGraphic" in2="effect1_dropShadow_431_858" result="shape"/></filter><filter id="m" width="21.688" height="21.688" x="169.656" y="1.5" color-interpolation-filters="sRGB" filterUnits="userSpaceOnUse"><feFlood flood-opacity="0" result="BackgroundImageFix"/><feColorMatrix in="SourceAlpha" result="hardAlpha" values="0 0 0 0 0 0 0 0 0 0 0 0 0 0 0 0 0 0 127 0"/><feOffset dy=".5"/><feGaussianBlur stdDeviation=".5"/><feComposite in2="hardAlpha" operator="out"/><feColorMatrix values="0 0 0 0 0 0 0 0 0 0 0 0 0 0 0 0 0 0 0.199474 0"/><feBlend in2="BackgroundImageFix" result="effect1_dropShadow_431_858"/><feBlend in="SourceGraphic" in2="effect1_dropShadow_431_858" result="shape"/></filter><filter id="o" width="15.125" height="15.125" x="172.938" y="4.781" color-interpolation-filters="sRGB" filterUnits="userSpaceOnUse"><feFlood flood-opacity="0" result="BackgroundImageFix"/><feColorMatrix in="SourceAlpha" result="hardAlpha" values="0 0 0 0 0 0 0 0 0 0 0 0 0 0 0 0 0 0 127 0"/><feOffset dy=".5"/><feGaussianBlur stdDeviation=".5"/><feColorMatrix values="0 0 0 0 0 0 0 0 0 0 0 0 0 0 0 0 0 0 0.204257 0"/><feBlend in2="BackgroundImageFix" result="effect1_dropShadow_431_858"/><feBlend in="SourceGraphic" in2="effect1_dropShadow_431_858" result="shape"/></filter></defs></svg>