<svg width="193" height="110" viewBox="0 0 193 110" fill="none" xmlns="http://www.w3.org/2000/svg">
<mask id="mask0_256_2" style="mask-type:luminance" maskUnits="userSpaceOnUse" x="1" y="11" width="21" height="21">
<path d="M21.6562 11.1905H1.5V31.8747H21.6562V11.1905Z" fill="white"/>
</mask>
<g mask="url(#mask0_256_2)">
<path d="M21.3547 24.0344C20.0085 29.5749 14.5396 32.9467 9.13928 31.5651C3.74124 30.1838 0.455112 24.5719 1.80186 19.0319C3.14743 13.4908 8.61641 10.1187 14.015 11.5C19.4149 12.8812 22.701 18.4937 21.3547 24.0344Z" fill="#F7931A"/>
<path d="M16.0226 20.0591C16.2232 18.6828 15.202 17.943 13.8056 17.4495L14.2586 15.5851L13.1526 15.3024L12.7116 17.1176C12.4208 17.0432 12.1222 16.9731 11.8254 16.9036L12.2696 15.0763L11.1643 14.7936L10.711 16.6573C10.4704 16.6011 10.2341 16.5455 10.0048 16.487L10.0061 16.4811L8.48081 16.0903L8.18659 17.3024C8.18659 17.3024 9.00721 17.4954 8.98988 17.5073C9.43779 17.622 9.5188 17.9262 9.50532 18.1673L8.98932 20.2913C9.02018 20.2993 9.06018 20.3109 9.10427 20.3291C9.06742 20.3197 9.02812 20.3094 8.98736 20.2994L8.26413 23.2747C8.2094 23.4143 8.07044 23.6239 7.7573 23.5443C7.76839 23.5608 6.95342 23.3385 6.95342 23.3385L6.4043 24.6376L7.84362 25.0057C8.11139 25.0746 8.3738 25.1467 8.63217 25.2145L8.1745 27.1002L9.27925 27.383L9.73252 25.5173C10.0343 25.6014 10.3272 25.6789 10.6139 25.752L10.1622 27.6089L11.2683 27.8917L11.7259 26.0095C13.612 26.3757 15.0301 26.2281 15.627 24.4777C16.108 23.0685 15.603 22.2556 14.6108 21.7255C15.3335 21.5545 15.8775 21.0666 16.0226 20.0591ZM13.4956 23.6951C13.1538 25.1044 10.8413 24.3425 10.0915 24.1515L10.6989 21.6533C11.4486 21.8453 13.8528 22.2254 13.4956 23.6951ZM13.8376 20.0387C13.5258 21.3206 11.6011 20.6694 10.9768 20.5096L11.5274 18.2439C12.1518 18.4036 14.1624 18.7016 13.8376 20.0387Z" fill="white"/>
</g>
<g clip-path="url(#clip0_256_2)">
<path d="M36.9977 7L36.823 7.56954V24.0964L36.9977 24.2637L44.9953 19.729L36.9977 7Z" fill="#343434"/>
<path d="M36.9976 7L29 19.729L36.9976 24.2637V16.2421V7Z" fill="#8C8C8C"/>
<path d="M36.9976 25.7162L36.8992 25.8313V31.7186L36.9976 31.9944L45 21.1839L36.9976 25.7162Z" fill="#3C3C3B"/>
<path d="M36.9976 31.9943V25.7161L29 21.1838L36.9976 31.9943Z" fill="#8C8C8C"/>
<path d="M36.9976 24.2637L44.9951 19.7291L36.9976 16.2421V24.2637Z" fill="#141414"/>
<path d="M29 19.7291L36.9975 24.2637V16.2421L29 19.7291Z" fill="#393939"/>
</g>
<g clip-path="url(#clip1_256_2)">
<g filter="url(#filter0_d_256_2)">
<path d="M61.5 30.8705C67.4543 30.8705 72.2812 25.9986 72.2812 19.9888C72.2812 13.979 67.4543 9.10715 61.5 9.10715C55.5457 9.10715 50.7188 13.979 50.7188 19.9888C50.7188 25.9986 55.5457 30.8705 61.5 30.8705Z" fill="black"/>
</g>
<path d="M61.5 30.8705C67.4543 30.8705 72.2812 25.9986 72.2812 19.9888C72.2812 13.979 67.4543 9.10715 61.5 9.10715C55.5457 9.10715 50.7188 13.979 50.7188 19.9888C50.7188 25.9986 55.5457 30.8705 61.5 30.8705Z" fill="#C3A634"/>
<path style="mix-blend-mode:soft-light" d="M61.5 30.8705C67.4543 30.8705 72.2812 25.9986 72.2812 19.9888C72.2812 13.979 67.4543 9.10715 61.5 9.10715C55.5457 9.10715 50.7188 13.979 50.7188 19.9888C50.7188 25.9986 55.5457 30.8705 61.5 30.8705Z" fill="url(#paint0_linear_256_2)"/>
<path d="M61.5 30.5078C67.2558 30.5078 71.9219 25.7983 71.9219 19.9888C71.9219 14.1794 67.2558 9.46986 61.5 9.46986C55.7442 9.46986 51.0781 14.1794 51.0781 19.9888C51.0781 25.7983 55.7442 30.5078 61.5 30.5078Z" stroke="black" stroke-opacity="0.097"/>
<g filter="url(#filter1_d_256_2)">
<path d="M59.5218 18.9809H62.6226V20.6391H59.5218V24.1343H61.4777C62.2516 24.1343 62.885 24.0286 63.378 23.8172C63.8709 23.6059 64.2579 23.3133 64.5388 22.9394C64.8197 22.5655 65.0105 22.1266 65.1112 21.6226C65.212 21.1187 65.2623 20.5741 65.2623 19.9888C65.2623 19.4036 65.212 18.859 65.1112 18.3551C65.0105 17.8511 64.8197 17.4122 64.5388 17.0383C64.2579 16.6644 63.8709 16.3718 63.378 16.1604C62.885 15.9491 62.2516 15.8434 61.4777 15.8434H59.5218V18.9809ZM57.5342 20.6391H56.4688V18.9809H57.5342V14.1853H62.241C63.1103 14.1853 63.863 14.337 64.499 14.6405C65.1351 14.9439 65.6545 15.3584 66.0574 15.8841C66.4602 16.4097 66.7597 17.0247 66.9558 17.7292C67.1519 18.4336 67.25 19.1869 67.25 19.9888C67.25 20.7908 67.1519 21.544 66.9558 22.2485C66.7597 22.9529 66.4602 23.568 66.0574 24.0936C65.6545 24.6192 65.1351 25.0338 64.499 25.3372C63.863 25.6407 63.1103 25.7924 62.241 25.7924H57.5342V20.6391Z" fill="black"/>
</g>
<path d="M59.5218 18.9809H62.6226V20.6391H59.5218V24.1343H61.4777C62.2516 24.1343 62.885 24.0286 63.378 23.8172C63.8709 23.6059 64.2579 23.3133 64.5388 22.9394C64.8197 22.5655 65.0105 22.1266 65.1112 21.6226C65.212 21.1187 65.2623 20.5741 65.2623 19.9888C65.2623 19.4036 65.212 18.859 65.1112 18.3551C65.0105 17.8511 64.8197 17.4122 64.5388 17.0383C64.2579 16.6644 63.8709 16.3718 63.378 16.1604C62.885 15.9491 62.2516 15.8434 61.4777 15.8434H59.5218V18.9809ZM57.5342 20.6391H56.4688V18.9809H57.5342V14.1853H62.241C63.1103 14.1853 63.863 14.337 64.499 14.6405C65.1351 14.9439 65.6545 15.3584 66.0574 15.8841C66.4602 16.4097 66.7597 17.0247 66.9558 17.7292C67.1519 18.4336 67.25 19.1869 67.25 19.9888C67.25 20.7908 67.1519 21.544 66.9558 22.2485C66.7597 22.9529 66.4602 23.568 66.0574 24.0936C65.6545 24.6192 65.1351 25.0338 64.499 25.3372C63.863 25.6407 63.1103 25.7924 62.241 25.7924H57.5342V20.6391Z" fill="white"/>
</g>
<g clip-path="url(#clip2_256_2)">
<g filter="url(#filter2_d_256_2)">
<path d="M89.5 31.5625C95.4543 31.5625 100.281 26.7356 100.281 20.7812C100.281 14.8269 95.4543 10 89.5 10C83.5457 10 78.7188 14.8269 78.7188 20.7812C78.7188 26.7356 83.5457 31.5625 89.5 31.5625Z" fill="black"/>
</g>
<path d="M89.5 31.5625C95.4543 31.5625 100.281 26.7356 100.281 20.7812C100.281 14.8269 95.4543 10 89.5 10C83.5457 10 78.7188 14.8269 78.7188 20.7812C78.7188 26.7356 83.5457 31.5625 89.5 31.5625Z" fill="#23292F"/>
<path style="mix-blend-mode:soft-light" d="M89.5 31.5625C95.4543 31.5625 100.281 26.7356 100.281 20.7812C100.281 14.8269 95.4543 10 89.5 10C83.5457 10 78.7188 14.8269 78.7188 20.7812C78.7188 26.7356 83.5457 31.5625 89.5 31.5625Z" fill="url(#paint1_linear_256_2)"/>
<path d="M89.5 31.2031C95.2558 31.2031 99.9219 26.5371 99.9219 20.7812C99.9219 15.0254 95.2558 10.3594 89.5 10.3594C83.7442 10.3594 79.0781 15.0254 79.0781 20.7812C79.0781 26.5371 83.7442 31.2031 89.5 31.2031Z" stroke="black" stroke-opacity="0.097"/>
<path d="M94.0736 15.75H95.9434L92.0521 19.6035C90.6421 20.9983 88.3578 20.9983 86.9478 19.6035L83.054 15.75H84.9264L87.8828 18.6761C88.7748 19.5605 90.2226 19.5605 91.1146 18.6761L94.0736 15.75Z" fill="white"/>
<path d="M84.9036 26.4639H83.0312L86.9479 22.5877C88.3579 21.1928 90.6421 21.1928 92.0521 22.5877L95.9688 26.4639H94.0964L91.1172 23.5125C90.2252 22.6281 88.7773 22.6281 87.8853 23.5125L84.9036 26.4639Z" fill="white"/>
</g>
<g clip-path="url(#clip3_256_2)">
<path d="M112.305 20.9206C112.256 21.8032 112.912 22.5587 113.765 22.6095C113.795 22.6095 113.826 22.6095 113.857 22.6095C114.715 22.6095 115.409 21.8921 115.402 21.0032C115.402 20.1143 114.709 19.3968 113.851 19.4032C113.029 19.4032 112.348 20.0698 112.305 20.9206Z" fill="#0033AD"/>
<path d="M106.527 20.5079C106.251 20.4889 106.012 20.7111 106 20.9968C105.988 21.2825 106.196 21.5302 106.472 21.5429C106.748 21.5619 106.981 21.3397 107 21.054C107.018 20.7682 106.803 20.527 106.527 20.5079Z" fill="#0033AD"/>
<path d="M112.207 11.6127C112.452 11.4857 112.55 11.1683 112.428 10.9143C112.305 10.6603 111.998 10.5587 111.753 10.6857C111.508 10.8127 111.41 11.1238 111.532 11.3778C111.655 11.6381 111.956 11.746 112.207 11.6127Z" fill="#0033AD"/>
<path d="M113.777 14.4508C114.157 14.254 114.311 13.7714 114.121 13.3778C113.93 12.9841 113.464 12.8254 113.084 13.0222C112.704 13.219 112.55 13.7016 112.741 14.0952C112.931 14.4889 113.397 14.6476 113.777 14.4508Z" fill="#0033AD"/>
<path d="M108.49 16.4C108.785 16.5968 109.177 16.5143 109.373 16.2095C109.564 15.9048 109.484 15.4984 109.189 15.2952C108.895 15.0984 108.502 15.1809 108.306 15.4857C108.11 15.7905 108.196 16.2032 108.49 16.4Z" fill="#0033AD"/>
<path d="M109.429 20.2222C108.999 20.1968 108.637 20.5333 108.613 20.9778C108.588 21.4222 108.913 21.7968 109.343 21.8222C109.772 21.8476 110.134 21.5111 110.158 21.0667C110.183 20.6286 109.858 20.2476 109.429 20.2222Z" fill="#0033AD"/>
<path d="M108.576 25.6C108.263 25.7651 108.134 26.1587 108.294 26.4889C108.453 26.8127 108.834 26.946 109.153 26.7809C109.465 26.6159 109.594 26.2222 109.435 25.8921C109.275 25.5682 108.889 25.4349 108.576 25.6Z" fill="#0033AD"/>
<path d="M111.581 18.5651C112.005 18.8508 112.569 18.7302 112.839 18.2921C113.115 17.854 112.998 17.2698 112.575 16.9905C112.152 16.7048 111.588 16.8254 111.318 17.2635C111.042 17.6952 111.158 18.2794 111.581 18.5651Z" fill="#0033AD"/>
<path d="M121.119 14.3873C121.474 14.6286 121.959 14.527 122.192 14.1587C122.425 13.7905 122.327 13.2889 121.971 13.0476C121.615 12.8063 121.131 12.9079 120.898 13.2762C120.659 13.6508 120.757 14.146 121.119 14.3873Z" fill="#0033AD"/>
<path d="M122.701 11.5619C122.934 11.7206 123.241 11.6508 123.394 11.4095C123.548 11.1682 123.48 10.8508 123.247 10.692C123.014 10.5333 122.707 10.6032 122.554 10.8381C122.407 11.0794 122.474 11.4032 122.701 11.5619Z" fill="#0033AD"/>
<path d="M121.235 19.3905C120.383 19.3397 119.647 20.019 119.604 20.9016C119.555 21.7841 120.211 22.546 121.063 22.5905C121.094 22.5905 121.125 22.5905 121.149 22.5905C122.002 22.5905 122.695 21.873 122.695 20.9841C122.701 20.1397 122.057 19.4349 121.235 19.3905Z" fill="#0033AD"/>
<path d="M114.286 18.4508C114.55 18.9905 115.083 19.3333 115.672 19.3333C116.525 19.3333 117.218 18.6159 117.218 17.727C117.218 17.4794 117.163 17.2317 117.052 17.0032C116.666 16.2095 115.734 15.8921 114.973 16.2921C114.206 16.6984 113.9 17.6635 114.286 18.4508Z" fill="#0033AD"/>
<path d="M126.424 16.4C126.737 16.2349 126.86 15.8349 126.7 15.5111C126.541 15.1873 126.154 15.0603 125.841 15.2254C125.529 15.3905 125.406 15.7841 125.559 16.1079C125.725 16.4317 126.105 16.5651 126.424 16.4Z" fill="#0033AD"/>
<path d="M122.499 16.9079C122.051 17.1428 121.867 17.7079 122.094 18.1714C122.321 18.6349 122.867 18.8254 123.314 18.5905C123.762 18.3555 123.946 17.7905 123.719 17.327C123.492 16.8635 122.946 16.6794 122.499 16.9079Z" fill="#0033AD"/>
<path d="M117.439 11.3206C117.788 11.3397 118.089 11.0603 118.113 10.6984C118.138 10.3365 117.862 10.0254 117.512 9.99999C117.163 9.98095 116.862 10.254 116.838 10.6159C116.819 10.9841 117.089 11.2952 117.439 11.3206Z" fill="#0033AD"/>
<path d="M117.433 15.4667C117.935 15.4984 118.365 15.0984 118.389 14.5778C118.42 14.0571 118.034 13.6127 117.531 13.5873C117.028 13.5555 116.598 13.9555 116.574 14.4762C116.549 14.9968 116.93 15.4413 117.433 15.4667Z" fill="#0033AD"/>
<path d="M112.501 25.0921C112.949 24.8571 113.133 24.2921 112.906 23.8286C112.679 23.3651 112.133 23.1746 111.686 23.4095C111.238 23.6444 111.054 24.2095 111.281 24.673C111.508 25.1365 112.054 25.327 112.501 25.0921Z" fill="#0033AD"/>
<path d="M118.021 16.8444C117.555 17.5873 117.751 18.5778 118.469 19.0603C119.187 19.5428 120.143 19.3397 120.61 18.5968C121.076 17.854 120.879 16.8635 120.162 16.3809C119.91 16.2095 119.616 16.1206 119.315 16.1206C118.794 16.1206 118.31 16.3936 118.021 16.8444Z" fill="#0033AD"/>
<path d="M120.714 23.5492C120.328 22.7555 119.395 22.4381 118.635 22.8381C117.868 23.2381 117.561 24.2032 117.948 24.9905C118.334 25.7841 119.266 26.1016 120.027 25.7016C120.788 25.3079 121.1 24.3555 120.72 23.5619C120.72 23.5555 120.72 23.5555 120.714 23.5492Z" fill="#0033AD"/>
<path d="M123.419 23.4349C122.996 23.1492 122.431 23.2698 122.161 23.7079C121.885 24.146 122.002 24.7301 122.425 25.0095C122.848 25.2952 123.413 25.1746 123.683 24.7365C123.959 24.3048 123.842 23.7206 123.419 23.4349Z" fill="#0033AD"/>
<path d="M126.387 21.0286C126.412 20.5841 126.087 20.2095 125.657 20.1841C125.228 20.1587 124.866 20.4952 124.842 20.9397C124.817 21.3841 125.142 21.7587 125.572 21.7841C125.995 21.8095 126.363 21.4667 126.387 21.0286Z" fill="#0033AD"/>
<path d="M128.528 20.4571C128.252 20.4381 128.013 20.6603 128 20.946C127.988 21.2317 128.197 21.4794 128.473 21.4921C128.749 21.5111 128.982 21.2889 129 21.0032C129.012 20.7175 128.804 20.4762 128.528 20.4571Z" fill="#0033AD"/>
<path d="M126.51 25.6C126.216 25.4032 125.823 25.4857 125.627 25.7905C125.437 26.0952 125.516 26.5016 125.811 26.7048C126.105 26.9016 126.498 26.819 126.694 26.5143C126.89 26.2095 126.804 25.7968 126.51 25.6Z" fill="#0033AD"/>
<path d="M112.293 30.4381C112.06 30.2794 111.753 30.3492 111.6 30.5841C111.446 30.8254 111.514 31.1428 111.741 31.3016C111.974 31.4603 112.281 31.3905 112.434 31.1555C112.593 30.9206 112.526 30.5968 112.293 30.4381Z" fill="#0033AD"/>
<path d="M122.793 30.3873C122.548 30.5143 122.45 30.8317 122.572 31.0857C122.695 31.3397 123.002 31.4413 123.247 31.3143C123.492 31.1873 123.59 30.8762 123.468 30.6222C123.345 30.3619 123.045 30.254 122.793 30.3873Z" fill="#0033AD"/>
<path d="M116.979 25.1555C117.445 24.4127 117.249 23.4222 116.531 22.9333C115.813 22.4508 114.857 22.654 114.384 23.3968C113.912 24.1397 114.115 25.1302 114.832 25.619C115.084 25.7905 115.378 25.8794 115.679 25.8794C116.206 25.8857 116.691 25.6127 116.979 25.1555Z" fill="#0033AD"/>
<path d="M113.881 27.6127C113.526 27.3714 113.041 27.473 112.808 27.8413C112.575 28.2095 112.673 28.7111 113.029 28.9524C113.385 29.1936 113.869 29.0921 114.102 28.7238C114.341 28.3556 114.243 27.854 113.881 27.6127Z" fill="#0033AD"/>
<path d="M117.494 30.6794C117.144 30.6603 116.844 30.9397 116.819 31.3016C116.795 31.6635 117.071 31.9746 117.42 32C117.77 32.019 118.07 31.746 118.095 31.3841C118.113 31.0159 117.843 30.7048 117.494 30.6794Z" fill="#0033AD"/>
<path d="M117.5 26.5333C116.997 26.5016 116.568 26.9016 116.543 27.4222C116.513 27.9428 116.899 28.3873 117.402 28.4127C117.905 28.4381 118.334 28.0444 118.359 27.5238C118.389 27.0095 118.003 26.5587 117.5 26.5333Z" fill="#0033AD"/>
<path d="M121.223 27.5492C120.843 27.7524 120.689 28.2349 120.886 28.6286C121.082 29.0222 121.548 29.181 121.928 28.9778C122.309 28.781 122.462 28.2984 122.272 27.9048C122.075 27.5111 121.609 27.346 121.223 27.5492Z" fill="#0033AD"/>
</g>
<g clip-path="url(#clip4_256_2)">
<path d="M145.499 15.0338C147.935 15.0338 149.91 13.907 149.91 12.5169C149.91 11.1269 147.935 10 145.499 10C143.063 10 141.089 11.1269 141.089 12.5169C141.089 13.907 143.063 15.0338 145.499 15.0338Z" fill="#E6007A"/>
<path d="M145.499 33.9983C147.935 33.9983 149.91 32.8714 149.91 31.4814C149.91 30.0913 147.935 28.9645 145.499 28.9645C143.063 28.9645 141.089 30.0913 141.089 31.4814C141.089 32.8714 143.063 33.9983 145.499 33.9983Z" fill="#E6007A"/>
<path d="M139.353 18.5178C140.571 16.448 140.563 14.2063 139.335 13.5108C138.107 12.8153 136.125 13.9294 134.907 15.9992C133.689 18.069 133.697 20.3107 134.924 21.0062C136.152 21.7017 138.135 20.5876 139.353 18.5178Z" fill="#E6007A"/>
<path d="M156.09 27.9989C157.308 25.9291 157.3 23.6878 156.073 22.9928C154.847 22.2978 152.865 23.4122 151.647 25.482C150.429 27.5518 150.436 29.7931 151.663 30.4882C152.89 31.1832 154.872 30.0687 156.09 27.9989Z" fill="#E6007A"/>
<path d="M139.336 30.4876C140.563 29.7921 140.571 27.5504 139.353 25.4806C138.135 23.4108 136.153 22.2967 134.925 22.9922C133.697 23.6877 133.689 25.9294 134.907 27.9992C136.125 30.069 138.108 31.1831 139.336 30.4876Z" fill="#E6007A"/>
<path d="M156.074 21.0068C157.301 20.3117 157.309 18.0704 156.091 16.0006C154.873 13.9308 152.891 12.8164 151.664 13.5114C150.437 14.2064 150.43 16.4477 151.648 18.5175C152.866 20.5873 154.848 21.7018 156.074 21.0068Z" fill="#E6007A"/>
</g>
<path d="M174.537 32.8985C181.409 32.8985 186.975 27.7846 186.975 21.479C186.975 15.1734 181.409 10.0596 174.537 10.0596C167.666 10.0596 162.1 15.1734 162.1 21.479C162.1 27.7846 167.67 32.8985 174.537 32.8985Z" fill="#FF060A"/>
<path d="M181.533 19.4289C180.847 18.8444 179.894 17.9541 179.122 17.324L179.074 17.2966C178.998 17.2418 178.912 17.1961 178.822 17.1642C176.953 16.8446 168.261 15.3515 168.095 15.3698C168.047 15.3743 167.999 15.3926 167.961 15.4154L167.918 15.4474C167.866 15.4976 167.823 15.557 167.799 15.6255L167.79 15.6529V15.8035V15.8264C168.766 18.3285 172.631 26.5198 173.394 28.4466C173.441 28.579 173.527 28.8256 173.689 28.8393H173.727C173.813 28.8393 174.185 28.3872 174.185 28.3872C174.185 28.3872 180.823 20.9996 181.495 20.2142C181.581 20.1183 181.657 20.0133 181.724 19.9037C181.743 19.817 181.733 19.7302 181.7 19.6481C181.667 19.5659 181.605 19.4882 181.533 19.4289ZM175.881 20.2918L178.712 18.1367L180.375 19.543L175.881 20.2918ZM174.78 20.1503L169.905 16.4793L177.797 17.8171L174.78 20.1503ZM175.219 21.1091L180.208 20.3695L174.504 26.6842L175.219 21.1091ZM169.243 16.8491L174.375 20.8443L173.632 26.6887L169.243 16.8491Z" fill="white"/>
<g clip-path="url(#clip5_256_2)">
<g filter="url(#filter3_d_256_2)">
<path d="M11 61.625C16.6954 61.625 21.3125 57.0079 21.3125 51.3125C21.3125 45.6171 16.6954 41 11 41C5.30456 41 0.6875 45.6171 0.6875 51.3125C0.6875 57.0079 5.30456 61.625 11 61.625Z" fill="black"/>
</g>
<path d="M11 61.625C16.6954 61.625 21.3125 57.0079 21.3125 51.3125C21.3125 45.6171 16.6954 41 11 41C5.30456 41 0.6875 45.6171 0.6875 51.3125C0.6875 57.0079 5.30456 61.625 11 61.625Z" fill="#F3BA2F"/>
<path style="mix-blend-mode:soft-light" d="M11 61.625C16.6954 61.625 21.3125 57.0079 21.3125 51.3125C21.3125 45.6171 16.6954 41 11 41C5.30456 41 0.6875 45.6171 0.6875 51.3125C0.6875 57.0079 5.30456 61.625 11 61.625Z" fill="url(#paint2_linear_256_2)"/>
<path d="M11 61.2812C16.5056 61.2812 20.9688 56.8181 20.9688 51.3125C20.9688 45.8069 16.5056 41.3438 11 41.3438C5.49441 41.3438 1.03125 45.8069 1.03125 51.3125C1.03125 56.8181 5.49441 61.2812 11 61.2812Z" stroke="black" stroke-opacity="0.097"/>
<g filter="url(#filter4_d_256_2)">
<path d="M8.32963 50.2154L10.9999 47.5452L13.6715 50.2168L15.2252 48.663L10.9999 44.4375L6.77595 48.6616L8.32963 50.2154ZM4.125 51.3123L5.67879 49.7585L7.23248 51.3122L5.6787 52.866L4.125 51.3123ZM8.32963 52.4096L10.9999 55.0798L13.6714 52.4083L15.226 53.9612L15.2252 53.9621L10.9999 58.1875L6.77581 53.9635L6.77361 53.9613L8.32963 52.4096ZM14.7675 51.3131L16.3213 49.7593L17.875 51.313L16.3212 52.8668L14.7675 51.3131ZM12.5758 51.3117L12.5773 51.3124L12.5765 51.3133L10.9999 52.89L9.42467 51.3147L9.42247 51.3124L9.42467 51.3103L9.70077 51.0341L9.83463 50.9002H9.8347L10.9999 49.735L12.5765 51.3117H12.5758Z" fill="black"/>
</g>
<path d="M8.32963 50.2154L10.9999 47.5452L13.6715 50.2168L15.2252 48.663L10.9999 44.4375L6.77595 48.6616L8.32963 50.2154ZM4.125 51.3123L5.67879 49.7585L7.23248 51.3122L5.6787 52.866L4.125 51.3123ZM8.32963 52.4096L10.9999 55.0798L13.6714 52.4083L15.226 53.9612L15.2252 53.9621L10.9999 58.1875L6.77581 53.9635L6.77361 53.9613L8.32963 52.4096ZM14.7675 51.3131L16.3213 49.7593L17.875 51.313L16.3212 52.8668L14.7675 51.3131ZM12.5758 51.3117L12.5773 51.3124L12.5765 51.3133L10.9999 52.89L9.42467 51.3147L9.42247 51.3124L9.42467 51.3103L9.70077 51.0341L9.83463 50.9002H9.8347L10.9999 49.735L12.5765 51.3117H12.5758Z" fill="white"/>
</g>
<g clip-path="url(#clip6_256_2)">
<path d="M44.7844 44.7739H31.2009V57.1197H44.7844V44.7739Z" fill="white"/>
<path fill-rule="evenodd" clip-rule="evenodd" d="M48.9927 52C48.9927 58.0671 44.0712 62.9854 38 62.9854C31.9289 62.9854 27.0073 58.0671 27.0073 52C27.0073 45.9329 31.9289 41.0146 38 41.0146C44.0712 41.0146 48.9927 45.9329 48.9927 52ZM34.885 56.3716H32.7516C32.3033 56.3716 32.0819 56.3716 31.9469 56.2853C31.8011 56.1908 31.7119 56.0343 31.7011 55.8616C31.693 55.7024 31.8038 55.508 32.0252 55.1194L37.2928 45.8408C37.5169 45.4468 37.6303 45.2498 37.7734 45.1769C37.9274 45.0987 38.111 45.0987 38.2649 45.1769C38.4081 45.2498 38.5215 45.4468 38.7456 45.8408L39.8285 47.7299L39.834 47.7395C40.0761 48.1622 40.1989 48.3766 40.2525 48.6015C40.3119 48.8471 40.3119 49.1062 40.2525 49.3518C40.1985 49.5785 40.0769 49.7944 39.8312 50.2235L37.0643 55.1113L37.0571 55.1239C36.8134 55.55 36.6899 55.766 36.5188 55.929C36.3325 56.1072 36.1083 56.2366 35.8626 56.3096C35.6384 56.3716 35.3873 56.3716 34.885 56.3716ZM40.2725 56.3716H43.3293C43.7803 56.3716 44.0072 56.3716 44.1423 56.2827C44.2881 56.1882 44.3799 56.0289 44.3881 55.8563C44.3958 55.7023 44.2875 55.5155 44.0753 55.1494C44.0679 55.137 44.0606 55.1243 44.0532 55.1114L42.5219 52.4937L42.5045 52.4642C42.2893 52.1006 42.1807 51.917 42.0412 51.846C41.8874 51.7677 41.7063 51.7677 41.5525 51.846C41.4121 51.9189 41.2986 52.1105 41.0745 52.4964L39.5487 55.1141L39.5435 55.1231C39.3202 55.5084 39.2085 55.7009 39.2166 55.8589C39.2274 56.0317 39.3165 56.1908 39.4623 56.2853C39.5946 56.3716 39.8215 56.3716 40.2725 56.3716Z" fill="#E84142"/>
</g>
<g clip-path="url(#clip7_256_2)">
<path d="M57.7359 57.7382C57.8747 57.5996 58.0656 57.5188 58.268 57.5188H76.624C76.9595 57.5188 77.1272 57.923 76.8901 58.1598L73.264 61.7806C73.1252 61.9192 72.9343 62 72.7319 62H54.3759C54.0404 62 53.8727 61.5958 54.1098 61.359L57.7359 57.7382Z" fill="url(#paint3_linear_256_2)"/>
<path d="M57.7362 44.2194C57.8808 44.0808 58.0716 44 58.2682 44H76.6243C76.9597 44 77.1274 44.4042 76.8903 44.641L73.2642 48.2618C73.1254 48.4004 72.9346 48.4812 72.7321 48.4812H54.3761C54.0407 48.4812 53.873 48.077 54.1101 47.8402L57.7362 44.2194Z" fill="url(#paint4_linear_256_2)"/>
<path d="M73.264 50.9355C73.1252 50.7969 72.9343 50.7161 72.7319 50.7161H54.3759C54.0404 50.7161 53.8727 51.1203 54.1098 51.3571L57.7359 54.9779C57.8747 55.1164 58.0656 55.1973 58.268 55.1973H76.624C76.9595 55.1973 77.1272 54.7931 76.8901 54.5563L73.264 50.9355Z" fill="url(#paint5_linear_256_2)"/>
</g>
<g clip-path="url(#clip8_256_2)">
<path d="M92.5 62C98.299 62 103 57.299 103 51.5C103 45.701 98.299 41 92.5 41C86.701 41 82 45.701 82 51.5C82 57.299 86.701 62 92.5 62Z" fill="#8247E5"/>
<path d="M96.1003 49.1398C95.8448 48.994 95.5158 48.994 95.223 49.1398L93.1761 50.3462L91.7877 51.1138L89.777 52.3202C89.5209 52.466 89.1919 52.466 88.8997 52.3202L87.3276 51.3693C87.1941 51.2907 87.0834 51.1785 87.0064 51.044C86.9295 50.9095 86.889 50.7572 86.8889 50.6022V48.7747C86.8889 48.4818 87.0348 48.1896 87.3276 48.007L88.8997 47.0929C89.1552 46.9471 89.4842 46.9471 89.777 47.0929L91.3485 48.0437C91.6046 48.1896 91.7872 48.4818 91.7872 48.8108V50.0172L93.1761 49.2133V47.9708C93.1761 47.678 93.0302 47.3852 92.7374 47.2026L89.8132 45.4847C89.5577 45.3388 89.2287 45.3388 88.9358 45.4847L85.9387 47.2393C85.6464 47.3852 85.5 47.678 85.5 47.9702V51.4061C85.5 51.6989 85.6458 51.9912 85.9387 52.1737L88.8997 53.8922C89.1552 54.0381 89.4842 54.0381 89.777 53.8922L91.7872 52.7221L93.1761 51.9182L95.1868 50.7481C95.4423 50.6022 95.7713 50.6022 96.0642 50.7481L97.6357 51.6622C97.8918 51.808 98.0743 52.1008 98.0743 52.4298V54.2574C98.0743 54.5497 97.9285 54.8425 97.6357 55.0251L96.1003 55.9392C95.8448 56.085 95.5158 56.085 95.223 55.9392L93.6515 55.0251C93.5179 54.9464 93.4071 54.8342 93.3302 54.6995C93.2533 54.5649 93.2128 54.4125 93.2128 54.2574V53.0878L91.8233 53.8917V55.0974C91.8233 55.3902 91.9692 55.6825 92.262 55.8651L95.2224 57.5836C95.4785 57.7294 95.8075 57.7294 96.0997 57.5836L99.0607 55.8651C99.3168 55.7192 99.4994 55.4264 99.4994 55.0974V51.6248C99.4994 51.3332 99.3536 51.0403 99.0607 50.8572L96.0997 49.1392L96.1003 49.1398Z" fill="white"/>
</g>
<g clip-path="url(#clip9_256_2)">
<path d="M109.898 47.384V55.616C109.898 56.1452 110.176 56.624 110.638 56.8928L117.769 61.0088C118.223 61.2692 118.786 61.2692 119.239 61.0088L126.371 56.8928C126.824 56.6324 127.11 56.1452 127.11 55.616V47.384C127.11 46.8548 126.833 46.376 126.371 46.1072L119.239 41.9912C118.786 41.7308 118.223 41.7308 117.769 41.9912L110.638 46.1072C110.184 46.3676 109.907 46.8548 109.907 47.384H109.898Z" fill="#213147"/>
<path d="M120.054 53.096L119.038 55.8848C119.012 55.9604 119.012 56.0444 119.038 56.1284L120.785 60.9248L122.809 59.7572L120.382 53.096C120.323 52.9448 120.113 52.9448 120.054 53.096Z" fill="#12AAFF"/>
<path d="M122.095 48.4088C122.037 48.2576 121.827 48.2576 121.768 48.4088L120.751 51.1976C120.726 51.2732 120.726 51.3572 120.751 51.4412L123.616 59.2952L125.64 58.1276L122.095 48.4172V48.4088Z" fill="#12AAFF"/>
<path d="M118.5 42.302C118.55 42.302 118.601 42.3188 118.643 42.344L126.354 46.796C126.446 46.8464 126.497 46.9472 126.497 47.048V55.952C126.497 56.0528 126.438 56.1536 126.354 56.204L118.643 60.656C118.601 60.6812 118.55 60.698 118.5 60.698C118.45 60.698 118.399 60.6812 118.357 60.656L110.646 56.204C110.554 56.1536 110.503 56.0528 110.503 55.952V47.0396C110.503 46.9388 110.562 46.838 110.646 46.7876L118.357 42.3356C118.399 42.3104 118.45 42.2936 118.5 42.2936V42.302ZM118.5 41C118.223 41 117.954 41.0672 117.702 41.21L109.991 45.662C109.495 45.9476 109.193 46.4684 109.193 47.0396V55.9436C109.193 56.5148 109.495 57.0356 109.991 57.3212L117.702 61.7732C117.946 61.916 118.223 61.9832 118.5 61.9832C118.777 61.9832 119.046 61.916 119.298 61.7732L127.009 57.3212C127.505 57.0356 127.807 56.5148 127.807 55.9436V47.0396C127.807 46.4684 127.505 45.9476 127.009 45.662L119.29 41.21C119.046 41.0672 118.769 41 118.492 41H118.5Z" fill="#9DCCED"/>
<path d="M113.393 59.3036L114.107 57.3548L115.535 58.5392L114.199 59.7656L113.393 59.3036Z" fill="#213147"/>
<path d="M117.845 46.4096H115.888C115.745 46.4096 115.61 46.502 115.56 46.6364L111.368 58.1276L113.393 59.2952L118.013 46.6364C118.055 46.5188 117.971 46.4012 117.853 46.4012L117.845 46.4096Z" fill="white"/>
<path d="M121.272 46.4096H119.315C119.172 46.4096 119.038 46.502 118.987 46.6364L114.199 59.7572L116.224 60.9248L121.432 46.6364C121.474 46.5188 121.39 46.4012 121.272 46.4012V46.4096Z" fill="white"/>
</g>
<g clip-path="url(#clip10_256_2)">
<path d="M145 63C151.075 63 156 58.0751 156 52C156 45.9249 151.075 41 145 41C138.925 41 134 45.9249 134 52C134 58.0751 138.925 63 145 63Z" fill="#FF0420"/>
<path d="M141.792 54.9216C141.137 54.9216 140.6 54.7676 140.182 54.4596C139.768 54.1472 139.562 53.6984 139.562 53.122C139.562 52.9988 139.575 52.8536 139.601 52.6776C139.672 52.2816 139.773 51.8064 139.905 51.2476C140.279 49.734 141.247 48.9772 142.804 48.9772C143.227 48.9772 143.61 49.0476 143.944 49.1928C144.278 49.3292 144.542 49.5404 144.736 49.822C144.93 50.0992 145.026 50.4292 145.026 50.812C145.026 50.9264 145.013 51.0716 144.987 51.2476C144.903 51.736 144.806 52.2156 144.688 52.6776C144.494 53.43 144.164 53.9976 143.689 54.3716C143.218 54.7412 142.584 54.9216 141.792 54.9216ZM141.911 53.7336C142.219 53.7336 142.479 53.6412 142.694 53.4608C142.914 53.2804 143.073 53.0032 143.165 52.6248C143.293 52.1056 143.39 51.6568 143.456 51.2696C143.478 51.1552 143.491 51.0364 143.491 50.9132C143.491 50.4116 143.231 50.1608 142.708 50.1608C142.4 50.1608 142.136 50.2532 141.916 50.4336C141.7 50.614 141.546 50.8912 141.454 51.2696C141.352 51.6392 141.256 52.088 141.154 52.6248C141.132 52.7348 141.119 52.8492 141.119 52.9724C141.115 53.4828 141.383 53.7336 141.911 53.7336Z" fill="white"/>
<path d="M145.409 54.8424C145.348 54.8424 145.304 54.8248 145.268 54.7852C145.242 54.7412 145.233 54.6928 145.242 54.6356L146.382 49.2676C146.39 49.206 146.421 49.1576 146.474 49.118C146.522 49.0784 146.575 49.0608 146.632 49.0608H148.828C149.44 49.0608 149.928 49.1884 150.298 49.4392C150.672 49.6944 150.861 50.0596 150.861 50.5392C150.861 50.6756 150.843 50.8208 150.812 50.9704C150.676 51.604 150.399 52.0704 149.976 52.374C149.563 52.6776 148.995 52.8272 148.274 52.8272H147.16L146.782 54.6356C146.769 54.6972 146.742 54.7456 146.69 54.7852C146.641 54.8248 146.588 54.8424 146.531 54.8424H145.409ZM148.331 51.6876C148.564 51.6876 148.762 51.626 148.934 51.4984C149.11 51.3708 149.224 51.1904 149.281 50.9528C149.299 50.8604 149.308 50.7768 149.308 50.7064C149.308 50.548 149.259 50.4248 149.167 50.3412C149.074 50.2532 148.912 50.2092 148.687 50.2092H147.697L147.385 51.6876H148.331Z" fill="white"/>
</g>
<g clip-path="url(#clip11_256_2)">
<path d="M171.509 41L161 47V59L171.509 65L182 59V47L171.509 41ZM178.888 57.219L171.491 61.438L164.112 57.219V48.781L171.509 44.562L178.888 48.781V57.219Z" fill="#002D74"/>
<path d="M171.509 65L182 59V47L171.509 41V44.562L178.888 48.781V57.2363L171.491 61.4553V65H171.509Z" fill="url(#paint6_linear_256_2)"/>
<path d="M171.491 41L161 47V59L171.491 65V61.438L164.112 57.219V48.7637L171.491 44.562V41Z" fill="url(#paint7_linear_256_2)"/>
<path d="M176.405 55.8012L171.509 58.6023L166.595 55.8012V50.1989L171.509 47.3977L176.405 50.1989L174.359 51.3747L171.491 49.732L168.641 51.3747V54.6427L171.509 56.2853L174.376 54.6427L176.405 55.8012Z" fill="#002D74"/>
</g>
<path d="M27.6331 72.8608C24.9602 72.8608 22.5603 74.2832 22.5603 76.8934C22.5603 79.8996 26.7996 80.1049 26.7996 81.6006C26.7996 82.2312 26.0811 82.8031 24.874 82.8031C23.1495 82.8031 21.8562 82.0112 21.8562 82.0112L21.3101 84.6507C21.3101 84.6507 22.7903 85.3253 24.7734 85.3253C27.7049 85.3253 30.0042 83.8442 30.0042 81.1753C30.0042 78.0079 25.7506 77.8026 25.7506 76.4095C25.7506 75.9109 26.3397 75.3683 27.5468 75.3683C28.912 75.3683 30.0329 75.9402 30.0329 75.9402L30.579 73.3887C30.5646 73.3887 29.3431 72.8608 27.6331 72.8608ZM3.14607 73.0514L3.07422 73.4327C3.07422 73.4327 4.1951 73.638 5.21539 74.0632C6.52309 74.5472 6.60931 74.8258 6.83924 75.691L9.23908 85.12H12.458L17.387 73.0514H14.1825L11.0066 81.2633L9.7133 74.2979C9.59833 73.506 8.99478 73.0514 8.24753 73.0514H3.14607ZM18.6804 73.0514L16.1656 85.12H19.2264L21.7269 73.0514H18.6804ZM35.7235 73.0514C34.9907 73.0514 34.6027 73.4473 34.3152 74.1512L29.8317 85.12H33.0363L33.6542 83.287H37.5629L37.9366 85.12H40.7675L38.3102 73.0514H35.7235ZM36.1403 76.3215L37.0887 80.8527H34.5452L36.1403 76.3215Z" fill="#1434CB"/>
<path d="M76.7675 79.4092C76.7675 84.3925 72.8635 88.4654 67.9834 88.4654C63.1498 88.4654 59.1992 84.3925 59.1992 79.4092C59.1992 74.4258 63.1033 70.3529 67.9369 70.3529C72.8635 70.3529 76.7675 74.4258 76.7675 79.4092Z" fill="#FFB600"/>
<path d="M67.9834 70.3529C72.817 70.3529 76.7675 74.4258 76.7675 79.4092C76.7675 84.3925 72.8635 88.4654 67.9834 88.4654C63.1498 88.4654 59.1992 84.3925 59.1992 79.4092" fill="#F7981D"/>
<path d="M67.9836 70.3529C72.8173 70.3529 76.7678 74.4258 76.7678 79.4092C76.7678 84.3925 72.8637 88.4654 67.9836 88.4654" fill="#FF8500"/>
<path d="M56.178 70.3529C51.3909 70.4008 47.4868 74.4258 47.4868 79.4092C47.4868 84.3925 51.3909 88.4654 56.271 88.4654C58.5483 88.4654 60.5933 87.555 62.1735 86.1175C62.4989 85.83 62.7778 85.4945 63.0566 85.1592H61.244C61.0116 84.8717 60.7793 84.5362 60.5934 84.2487H63.7073C63.8932 83.9612 64.0791 83.6258 64.2186 83.2904H60.0821C59.9427 83.0029 59.8032 82.6675 59.7103 82.332H64.5439C64.8227 81.4217 65.0086 80.4633 65.0086 79.457C65.0086 78.7862 64.9157 78.1633 64.8227 77.5404H59.4314C59.4779 77.205 59.5709 76.9175 59.6638 76.582H64.4974C64.4044 76.2467 64.265 75.9112 64.1255 75.6237H60.0356C60.175 75.2883 60.3609 75.0008 60.5469 74.6654H63.6608C63.4749 74.33 63.2425 73.9945 62.9637 73.707H61.244C61.5229 73.3717 61.8017 73.0842 62.1271 72.7967C60.5934 71.3112 58.5019 70.4487 56.2245 70.4487C56.2245 70.3529 56.2245 70.3529 56.178 70.3529Z" fill="#FF5050"/>
<path d="M47.4868 79.4091C47.4868 84.3924 51.3909 88.4654 56.271 88.4654C58.5483 88.4654 60.5933 87.5549 62.1735 86.1174C62.4989 85.8299 62.7778 85.4945 63.0566 85.1591H61.244C61.0116 84.8716 60.7793 84.5362 60.5934 84.2487H63.7073C63.8932 83.9612 64.0791 83.6257 64.2186 83.2904H60.0821C59.9427 83.0029 59.8032 82.6674 59.7103 82.332H64.5439C64.8227 81.4216 65.0086 80.4632 65.0086 79.457C65.0086 78.7862 64.9157 78.1632 64.8227 77.5404H59.4314C59.4779 77.2049 59.5709 76.9174 59.6638 76.582H64.4974C64.4044 76.2466 64.265 75.9112 64.1255 75.6237H60.0356C60.175 75.2882 60.3609 75.0007 60.5469 74.6654H63.6608C63.4749 74.3299 63.2425 73.9945 62.9637 73.707H61.244C61.5229 73.3716 61.8017 73.0841 62.1271 72.7966C60.5934 71.3112 58.5019 70.4487 56.2245 70.4487H56.178" fill="#E52836"/>
<path d="M56.2714 88.4654C58.5488 88.4654 60.5937 87.5549 62.174 86.1174C62.4993 85.8299 62.7782 85.4945 63.0571 85.1591H61.2444C61.0121 84.8716 60.7797 84.5362 60.5937 84.2487H63.7077C63.8936 83.9612 64.0796 83.6257 64.219 83.2904H60.0825C59.9431 83.0029 59.8037 82.6674 59.7107 82.332H64.5443C64.8232 81.4216 65.0091 80.4632 65.0091 79.457C65.0091 78.7862 64.9161 78.1632 64.8232 77.5404H59.4319C59.4783 77.2049 59.5713 76.9174 59.6642 76.582H64.4978C64.4049 76.2466 64.2655 75.9112 64.126 75.6237H60.036C60.1755 75.2882 60.3614 75.0007 60.5473 74.6654H63.6612C63.4753 74.3299 63.243 73.9945 62.9641 73.707H61.2444C61.5233 73.3716 61.8022 73.0841 62.1275 72.7966C60.5937 71.3112 58.5023 70.4487 56.2249 70.4487H56.1785" fill="#CB2026"/>
<path d="M59.385 81.7092L59.5244 80.8946C59.478 80.8946 59.385 80.9425 59.2921 80.9425C58.9667 80.9425 58.9203 80.7508 58.9667 80.655L59.2456 78.9779H59.7569L59.8963 78.0675H59.4315L59.5244 77.4925H58.5949C58.5949 77.4925 58.0372 80.655 58.0372 81.0383C58.0372 81.6133 58.3626 81.8529 58.7808 81.8529C59.0597 81.8529 59.2921 81.7571 59.385 81.7092ZM59.7104 80.1758C59.7104 81.5175 60.5935 81.8529 61.3371 81.8529C62.0342 81.8529 62.3131 81.7092 62.3131 81.7092L62.499 80.7987C62.499 80.7987 61.9878 81.0383 61.523 81.0383C60.5005 81.0383 60.6864 80.2717 60.6864 80.2717H62.5919C62.5919 80.2717 62.7314 79.6487 62.7314 79.4092C62.7314 78.7862 62.406 78.0196 61.3835 78.0196C60.4075 77.9237 59.7104 78.9779 59.7104 80.1758ZM61.3371 78.7862C61.8483 78.7862 61.7553 79.4092 61.7553 79.4571H60.7328C60.7328 79.4092 60.8258 78.7862 61.3371 78.7862ZM67.2396 81.7092L67.4255 80.655C67.4255 80.655 66.9608 80.8946 66.6355 80.8946C65.9848 80.8946 65.7059 80.3675 65.7059 79.7925C65.7059 78.6425 66.2636 78.0196 66.9143 78.0196C67.3791 78.0196 67.7509 78.3071 67.7509 78.3071L67.8903 77.3008C67.8903 77.3008 67.3326 77.0612 66.8214 77.0612C65.7524 77.0612 64.6834 78.0196 64.6834 79.8404C64.6834 81.0383 65.2412 81.8529 66.3566 81.8529C66.7284 81.8529 67.2396 81.7092 67.2396 81.7092ZM54.2726 77.9237C53.6219 77.9237 53.1571 78.1154 53.1571 78.1154L53.0177 78.93C53.0177 78.93 53.436 78.7383 54.0402 78.7383C54.3655 78.7383 54.6444 78.7862 54.6444 79.0737C54.6444 79.2654 54.5979 79.3133 54.5979 79.3133H54.1796C53.3895 79.3133 52.5064 79.6487 52.5064 80.7508C52.5064 81.6133 53.0641 81.805 53.3895 81.805C54.0402 81.805 54.319 81.3737 54.3655 81.3737L54.319 81.7571H55.1556L55.5274 79.1217C55.5274 77.9717 54.5979 77.9237 54.2726 77.9237ZM54.4585 80.08C54.4585 80.2237 54.3655 80.9904 53.8078 80.9904C53.5289 80.9904 53.436 80.7508 53.436 80.6071C53.436 80.3675 53.5754 80.0321 54.2726 80.0321C54.412 80.08 54.4585 80.08 54.4585 80.08ZM56.4105 81.805C56.6429 81.805 57.8048 81.8529 57.8048 80.5592C57.8048 79.3612 56.6894 79.6008 56.6894 79.1217C56.6894 78.8821 56.8753 78.7862 57.2006 78.7862C57.3401 78.7862 57.8513 78.8342 57.8513 78.8342L57.9907 77.9717C57.9907 77.9717 57.6654 77.8758 57.1076 77.8758C56.4105 77.8758 55.7133 78.1633 55.7133 79.1217C55.7133 80.2237 56.8753 80.1279 56.8753 80.5592C56.8753 80.8467 56.5499 80.8946 56.3176 80.8946C55.8992 80.8946 55.481 80.7508 55.481 80.7508L55.3415 81.6133C55.388 81.7092 55.6204 81.805 56.4105 81.805ZM74.9548 77.1571L74.7689 78.4508C74.7689 78.4508 74.3971 77.9717 73.8859 77.9717C73.0493 77.9717 72.3057 79.0258 72.3057 80.2717C72.3057 81.0383 72.6775 81.8529 73.4675 81.8529C74.0253 81.8529 74.3506 81.4696 74.3506 81.4696L74.3041 81.805H75.2337L75.9309 77.205L74.9548 77.1571ZM74.5366 79.6967C74.5366 80.2237 74.3041 80.8946 73.7929 80.8946C73.4675 80.8946 73.2816 80.6071 73.2816 80.1279C73.2816 79.3612 73.607 78.8821 74.0253 78.8821C74.3506 78.8821 74.5366 79.1217 74.5366 79.6967ZM49.2065 81.7571L49.7643 78.3071L49.8572 81.7571H50.5079L51.7163 78.3071L51.2051 81.7571H52.1811L52.9247 77.1571H51.391L50.4614 79.9842L50.415 77.1571H49.0671L48.3235 81.7571H49.2065ZM63.6144 81.7571C63.8933 80.1758 63.9398 78.8821 64.5905 79.1217C64.6834 78.4987 64.8228 78.2592 64.9158 78.0196H64.7299C64.3116 78.0196 63.9862 78.5946 63.9862 78.5946L64.0792 78.0675H63.1962L62.5919 81.805H63.6144V81.7571ZM69.3776 77.9237C68.7269 77.9237 68.2621 78.1154 68.2621 78.1154L68.1227 78.93C68.1227 78.93 68.541 78.7383 69.1452 78.7383C69.4705 78.7383 69.7494 78.7862 69.7494 79.0737C69.7494 79.2654 69.7029 79.3133 69.7029 79.3133H69.2846C68.4945 79.3133 67.6114 79.6487 67.6114 80.7508C67.6114 81.6133 68.1692 81.805 68.4945 81.805C69.1452 81.805 69.4241 81.3737 69.4705 81.3737L69.4241 81.7571H70.2607L70.6325 79.1217C70.6789 77.9717 69.7029 77.9237 69.3776 77.9237ZM69.61 80.08C69.61 80.2237 69.517 80.9904 68.9593 80.9904C68.6804 80.9904 68.5875 80.7508 68.5875 80.6071C68.5875 80.3675 68.7269 80.0321 69.4241 80.0321C69.5635 80.08 69.5635 80.08 69.61 80.08ZM71.4226 81.7571C71.7014 80.1758 71.7479 78.8821 72.3986 79.1217C72.4916 78.4987 72.631 78.2592 72.7239 78.0196H72.538C72.1197 78.0196 71.7944 78.5946 71.7944 78.5946L71.8873 78.0675H71.0043L70.4001 81.805H71.4226V81.7571Z" fill="white"/>
<path d="M57.9442 81.0383C57.9442 81.6133 58.2696 81.8529 58.6879 81.8529C59.0132 81.8529 59.2921 81.7571 59.385 81.7092L59.5244 80.8946C59.478 80.8946 59.385 80.9425 59.2921 80.9425C58.9667 80.9425 58.9203 80.7508 58.9667 80.655L59.2456 78.9779H59.7569L59.8963 78.0675H59.4315L59.5244 77.4925M60.1751 80.1758C60.1751 81.5175 60.5935 81.8529 61.3371 81.8529C62.0342 81.8529 62.3131 81.7092 62.3131 81.7092L62.499 80.7987C62.499 80.7987 61.9878 81.0383 61.523 81.0383C60.5005 81.0383 60.6864 80.2717 60.6864 80.2717H62.5919C62.5919 80.2717 62.7314 79.6487 62.7314 79.4092C62.7314 78.7862 62.406 78.0196 61.3835 78.0196C60.4075 77.9237 60.1751 78.9779 60.1751 80.1758ZM61.3371 78.7862C61.8483 78.7862 61.9413 79.4092 61.9413 79.4571H60.7328C60.7328 79.4092 60.8258 78.7862 61.3371 78.7862ZM67.2396 81.7092L67.4255 80.655C67.4255 80.655 66.9608 80.8946 66.6355 80.8946C65.9848 80.8946 65.7059 80.3675 65.7059 79.7925C65.7059 78.6425 66.2636 78.0196 66.9143 78.0196C67.3791 78.0196 67.7509 78.3071 67.7509 78.3071L67.8903 77.3008C67.8903 77.3008 67.3326 77.0612 66.8214 77.0612C65.7524 77.0612 65.1482 78.0196 65.1482 79.8404C65.1482 81.0383 65.2412 81.8529 66.3566 81.8529C66.7284 81.8529 67.2396 81.7092 67.2396 81.7092ZM53.0177 78.9779C53.0177 78.9779 53.436 78.7862 54.0402 78.7862C54.3655 78.7862 54.6444 78.8342 54.6444 79.1217C54.6444 79.3133 54.5979 79.3612 54.5979 79.3612H54.1796C53.3895 79.3612 52.5064 79.6967 52.5064 80.7987C52.5064 81.6612 53.0641 81.8529 53.3895 81.8529C54.0402 81.8529 54.319 81.4217 54.3655 81.4217L54.319 81.805H55.1556L55.5274 79.1696C55.5274 78.0675 54.5979 78.0196 54.2261 78.0196M54.9233 80.08C54.9233 80.2237 54.3655 80.9904 53.8078 80.9904C53.5289 80.9904 53.436 80.7508 53.436 80.6071C53.436 80.3675 53.5754 80.0321 54.2726 80.0321C54.412 80.08 54.9233 80.08 54.9233 80.08ZM55.388 81.7092C55.388 81.7092 55.6669 81.805 56.457 81.805C56.6894 81.805 57.8513 81.8529 57.8513 80.5592C57.8513 79.3612 56.7358 79.6008 56.7358 79.1217C56.7358 78.8821 56.9217 78.7862 57.2471 78.7862C57.3865 78.7862 57.8978 78.8342 57.8978 78.8342L58.0372 77.9717C58.0372 77.9717 57.7119 77.8758 57.1542 77.8758C56.457 77.8758 56.2246 78.1633 56.2246 79.1217C56.2246 80.2237 56.9217 80.1279 56.9217 80.5592C56.9217 80.8467 56.5964 80.8946 56.364 80.8946M74.7689 78.4508C74.7689 78.4508 74.3971 77.9717 73.8859 77.9717C73.0493 77.9717 72.7704 79.0258 72.7704 80.2717C72.7704 81.0383 72.6775 81.8529 73.4675 81.8529C74.0253 81.8529 74.3506 81.4696 74.3506 81.4696L74.3041 81.805H75.2337L75.9309 77.205M74.7225 79.6967C74.7225 80.2237 74.3041 80.8946 73.7929 80.8946C73.4675 80.8946 73.2816 80.6071 73.2816 80.1279C73.2816 79.3612 73.607 78.8821 74.0253 78.8821C74.3506 78.8821 74.7225 79.1217 74.7225 79.6967ZM49.2065 81.7571L49.7643 78.3071L49.8572 81.7571H50.5079L51.7163 78.3071L51.2051 81.7571H52.1811L52.9247 77.1571H51.7628L50.4614 79.9842L50.415 77.1571H49.9037L48.3235 81.7571H49.2065ZM62.6384 81.7571H63.6144C63.8933 80.1758 63.9398 78.8821 64.5905 79.1217C64.6834 78.4987 64.8228 78.2592 64.9158 78.0196H64.7299C64.3116 78.0196 63.9862 78.5946 63.9862 78.5946L64.0792 78.0675M68.1227 78.9779C68.1227 78.9779 68.541 78.7862 69.1452 78.7862C69.4705 78.7862 69.7494 78.8342 69.7494 79.1217C69.7494 79.3133 69.7029 79.3612 69.7029 79.3612H69.2846C68.4945 79.3612 67.6114 79.6967 67.6114 80.7987C67.6114 81.6612 68.1692 81.8529 68.4945 81.8529C69.1452 81.8529 69.4241 81.4217 69.4705 81.4217L69.4241 81.805H70.2607L70.6325 79.1696C70.6325 78.0675 69.7029 78.0196 69.3311 78.0196M70.0283 80.08C70.0283 80.2237 69.4705 80.9904 68.9128 80.9904C68.6339 80.9904 68.541 80.7508 68.541 80.6071C68.541 80.3675 68.6805 80.0321 69.3776 80.0321C69.5635 80.08 70.0283 80.08 70.0283 80.08ZM70.4466 81.7571H71.4226C71.7014 80.1758 71.7479 78.8821 72.3986 79.1217C72.4916 78.4987 72.631 78.2592 72.7239 78.0196H72.538C72.1197 78.0196 71.7944 78.5946 71.7944 78.5946L71.8873 78.0675" fill="#DCE5E5"/>
<g clip-path="url(#clip12_256_2)">
<path d="M183.642 86.4333L179.555 76.9791H182.291L185.084 83.7582L188.309 76.9791H191L184.642 90H181.9L183.642 86.4333ZM173.685 84.4727C173.926 84.4182 174.159 84.3317 174.377 84.2155C174.589 84.1016 174.785 83.9614 174.962 83.7982C175.139 83.6361 175.292 83.4494 175.416 83.2438C175.545 83.0274 175.644 82.7948 175.712 82.5522C175.788 82.2865 175.826 82.0113 175.825 81.7348C175.826 81.4545 175.788 81.1755 175.712 80.906C175.642 80.663 175.541 80.4304 175.411 80.2143C175.286 80.0075 175.133 79.819 174.957 79.6542C174.784 79.4904 174.589 79.3519 174.377 79.2426C174.158 79.1309 173.925 79.0465 173.685 78.9911C173.432 78.933 173.173 78.9042 172.913 78.9054C172.655 78.9042 172.398 78.933 172.146 78.9911C171.91 79.0467 171.681 79.1311 171.465 79.2426C171.251 79.3524 171.052 79.4908 170.875 79.6542C170.698 79.8184 170.545 80.007 170.421 80.2143C170.291 80.43 170.191 80.6628 170.125 80.906C170.054 81.1763 170.02 81.4551 170.023 81.7348C170.02 82.0106 170.055 82.2856 170.125 82.5522C170.192 82.7934 170.291 83.0242 170.421 83.2381C170.544 83.4462 170.697 83.635 170.875 83.7982C171.053 83.9601 171.249 84.1001 171.459 84.2155C171.674 84.3314 171.903 84.4179 172.141 84.4727C172.394 84.5334 172.653 84.5641 172.913 84.5642C173.173 84.5635 173.432 84.5329 173.685 84.4727ZM170.92 86.5876C170.502 86.4809 170.099 86.3195 169.722 86.1075C168.987 85.6908 168.379 85.0776 167.968 84.3355C167.755 83.9526 167.593 83.5433 167.485 83.118C167.262 82.2038 167.262 81.2486 167.485 80.3344C167.593 79.9108 167.755 79.5034 167.968 79.1226C168.381 78.3835 168.988 77.7727 169.722 77.3564C170.099 77.1443 170.502 76.9829 170.92 76.8763C171.369 76.7607 171.831 76.7031 172.294 76.7048C172.544 76.7042 172.795 76.7194 173.043 76.7505C173.272 76.779 173.497 76.8249 173.719 76.8877C173.924 76.9473 174.125 77.0198 174.321 77.1049C174.503 77.1824 174.68 77.2741 174.849 77.3793C175.009 77.4781 175.159 77.593 175.297 77.7222C175.424 77.8465 175.542 77.9802 175.649 78.1223V76.9791H178.249V86.4847H175.649V85.3415C175.483 85.5537 175.292 85.7456 175.081 85.9131C174.85 86.0969 174.596 86.2505 174.326 86.3704C174.026 86.5011 173.712 86.597 173.39 86.6562C173.029 86.7259 172.662 86.7603 172.294 86.7591C171.831 86.7608 171.369 86.7031 170.92 86.5876ZM161.479 79.3855C161.852 79.3932 162.224 79.3509 162.586 79.2598C162.868 79.1881 163.132 79.0554 163.358 78.8711C163.562 78.7008 163.718 78.4802 163.812 78.2309C163.913 77.9468 163.961 77.6465 163.954 77.345C163.959 77.0449 163.909 76.7465 163.807 76.4647C163.713 76.2168 163.556 75.9981 163.353 75.8302C163.127 75.6496 162.866 75.5191 162.586 75.4473C162.225 75.3543 161.852 75.3101 161.479 75.3158H158.924V79.3855H161.479ZM156.233 73.0752H161.735C162.597 73.0752 163.347 73.1819 163.983 73.3953C164.619 73.6087 165.141 73.9021 165.55 74.2755C165.958 74.6497 166.273 75.1159 166.469 75.6359C166.674 76.1838 166.776 76.7653 166.77 77.3507C166.778 77.9362 166.676 78.518 166.469 79.0654C166.27 79.5804 165.955 80.042 165.55 80.4144C165.137 80.7955 164.615 81.0927 163.983 81.3061C163.347 81.5195 162.597 81.6262 161.735 81.6262H158.924V86.4847H156.233V73.0752ZM144.675 76.9734H147.258V78.1166C147.417 77.8952 147.607 77.697 147.82 77.5279C148.045 77.348 148.291 77.1964 148.552 77.0763C148.841 76.9454 149.144 76.8495 149.455 76.7905C149.8 76.7268 150.149 76.6962 150.5 76.6991C151.047 76.691 151.592 76.784 152.106 76.9734C152.564 77.143 152.979 77.4124 153.321 77.7622C153.665 78.1255 153.925 78.5608 154.082 79.0369C154.263 79.5839 154.352 80.1579 154.343 80.7345V86.479H151.771V81.409C151.778 81.0373 151.726 80.6669 151.618 80.3115C151.529 80.0188 151.38 79.7481 151.181 79.517C150.987 79.3042 150.746 79.1415 150.477 79.0426C150.171 78.9312 149.848 78.877 149.523 78.8825C149.198 78.8777 148.875 78.9319 148.569 79.0426C148.298 79.1405 148.055 79.3033 147.86 79.517C147.66 79.7497 147.511 80.0224 147.423 80.3172C147.316 80.669 147.264 81.0354 147.269 81.4033V86.479H144.675V76.9734ZM138.317 84.4498C138.563 84.3884 138.801 84.2982 139.026 84.1812C139.241 84.0708 139.438 83.9282 139.611 83.7582C139.783 83.5901 139.932 83.3999 140.054 83.1923C140.178 82.9785 140.269 82.7473 140.326 82.5064C140.388 82.2481 140.418 81.9833 140.417 81.7176C140.419 81.4501 140.389 81.1832 140.326 80.9231C140.21 80.4477 139.962 80.0154 139.611 79.6771C139.436 79.5081 139.24 79.3639 139.026 79.2484C138.803 79.1276 138.564 79.0372 138.317 78.9797C138.049 78.9177 137.774 78.887 137.499 78.8883C137.226 78.887 136.953 78.9177 136.687 78.9797C136.44 79.0363 136.201 79.1267 135.978 79.2484C135.767 79.3647 135.572 79.5089 135.399 79.6771C135.227 79.8427 135.082 80.0335 134.967 80.2429C134.85 80.458 134.758 80.6864 134.695 80.9231C134.627 81.1824 134.595 81.4496 134.598 81.7176C134.596 81.9837 134.628 82.2489 134.695 82.5064C134.757 82.7456 134.848 82.976 134.967 83.1923C135.083 83.4028 135.228 83.5954 135.399 83.7639C135.574 83.93 135.773 84.0687 135.989 84.1755C136.214 84.2934 136.452 84.3836 136.699 84.4441C136.965 84.5076 137.237 84.5383 137.51 84.5356C137.786 84.5385 138.06 84.5077 138.328 84.4441M135.983 86.5819C135.518 86.4734 135.066 86.3103 134.638 86.096C134.236 85.8924 133.864 85.6347 133.531 85.3301C133.207 85.036 132.926 84.6973 132.696 84.3241C132.465 83.9431 132.287 83.5314 132.168 83.1009C131.921 82.1898 131.921 81.2283 132.168 80.3172C132.286 79.8884 132.464 79.4785 132.696 79.0997C132.928 78.7277 133.208 78.3893 133.531 78.0937C133.863 77.7863 134.235 77.5266 134.638 77.3221C135.066 77.1079 135.518 76.9448 135.983 76.8362C136.992 76.6047 138.04 76.6047 139.049 76.8362C139.513 76.9436 139.963 77.1067 140.389 77.3221C140.79 77.5296 141.162 77.789 141.496 78.0937C141.824 78.3879 142.111 78.7265 142.347 79.0997C142.583 79.4776 142.762 79.8876 142.881 80.3172C143.129 81.2283 143.129 82.1898 142.881 83.1009C142.76 83.5324 142.578 83.9443 142.342 84.3241C142.109 84.6982 141.824 85.0369 141.496 85.3301C141.161 85.632 140.789 85.8894 140.389 86.096C139.965 86.311 139.517 86.4741 139.055 86.5819C138.046 86.8126 136.998 86.8126 135.989 86.5819M125.907 84.4441C126.153 84.3827 126.391 84.2926 126.616 84.1755C126.831 84.0651 127.028 83.9225 127.201 83.7525C127.373 83.5844 127.522 83.3941 127.644 83.1866C127.768 82.9727 127.859 82.7416 127.916 82.5007C127.977 82.2423 128.008 81.9775 128.007 81.7119C128.009 81.4443 127.978 81.1775 127.916 80.9174C127.8 80.442 127.552 80.0097 127.201 79.6713C127.026 79.5024 126.829 79.3582 126.616 79.2426C126.392 79.1219 126.154 79.0315 125.907 78.974C125.638 78.912 125.364 78.8813 125.089 78.8825C124.816 78.8813 124.543 78.912 124.277 78.974C124.03 79.0306 123.791 79.121 123.568 79.2426C123.356 79.3591 123.162 79.5032 122.988 79.6713C122.817 79.837 122.672 80.0278 122.557 80.2372C122.44 80.4524 122.348 80.6807 122.285 80.9174C122.217 81.1767 122.185 81.4439 122.188 81.7119C122.186 81.978 122.218 82.2431 122.285 82.5007C122.347 82.7399 122.438 82.9703 122.557 83.1866C122.673 83.3971 122.818 83.5897 122.988 83.7582C123.16 83.9254 123.355 84.066 123.568 84.1755C123.793 84.2934 124.031 84.3836 124.277 84.4441C124.543 84.5076 124.816 84.5383 125.089 84.5356C125.364 84.5385 125.639 84.5077 125.907 84.4441ZM123.556 86.5876C123.09 86.4791 122.639 86.3161 122.211 86.1017C121.809 85.8981 121.437 85.6405 121.104 85.3358C120.78 85.0416 120.499 84.703 120.269 84.3298C120.037 83.9489 119.86 83.5371 119.741 83.1066C119.493 82.1955 119.493 81.2341 119.741 80.323C119.859 79.8941 120.037 79.4842 120.269 79.1055C120.501 78.7335 120.781 78.395 121.104 78.0995C121.436 77.792 121.808 77.5323 122.211 77.3278C122.639 77.1136 123.09 76.9505 123.556 76.842C124.565 76.6104 125.613 76.6104 126.622 76.842C127.084 76.9497 127.532 77.1128 127.956 77.3278C128.359 77.5349 128.733 77.7943 129.069 78.0995C129.397 78.3937 129.684 78.7322 129.92 79.1055C130.153 79.4836 130.331 79.8937 130.448 80.323C130.696 81.2341 130.696 82.1955 130.448 83.1066C130.329 83.5379 130.149 83.9497 129.915 84.3298C129.681 84.7039 129.397 85.0426 129.069 85.3358C128.732 85.6382 128.358 85.8956 127.956 86.1017C127.534 86.3163 127.088 86.4794 126.627 86.5876C125.618 86.8184 124.571 86.8184 123.562 86.5876M103.164 73.0752H105.889L110.533 80.2258L115.211 73.0752H117.936V86.4847H115.239V77.2878L111.379 83.2209H109.732L105.872 77.2878V86.4904H103.175L103.164 73.0752ZM96.9647 75.4759C97.5023 75.4759 98.0278 75.3154 98.4749 75.0148C98.922 74.7142 99.2705 74.287 99.4765 73.787C99.6825 73.287 99.7367 72.7368 99.6322 72.2059C99.5277 71.6749 99.2693 71.1871 98.8896 70.8039C98.5098 70.4208 98.0258 70.1596 97.4987 70.0533C96.9716 69.947 96.425 70.0004 95.928 70.2068C95.431 70.4131 95.0059 70.7632 94.7065 71.2127C94.407 71.6622 94.2465 72.1909 94.2454 72.7322C94.2447 73.0922 94.3144 73.4489 94.4508 73.7817C94.5871 74.1146 94.7873 74.4171 95.0399 74.6719C95.2925 74.9268 95.5925 75.1289 95.9228 75.2669C96.2531 75.4048 96.6071 75.4759 96.9647 75.4759ZM88.6251 87.8051C87.3152 87.804 86.0351 87.4119 84.9465 86.6785C83.8579 85.9451 83.0096 84.9033 82.5088 83.6847C82.0081 82.466 81.8774 81.1253 82.1332 79.8319C82.389 78.5385 83.0199 77.3504 83.9461 76.4179C84.8723 75.4853 86.0523 74.8502 87.3369 74.5926C88.6215 74.335 89.9531 74.4666 91.1635 74.9708C92.3738 75.475 93.4086 76.3291 94.137 77.4251C94.8654 78.5212 95.2548 79.8101 95.2559 81.1289C95.2567 82.0058 95.0857 82.8743 94.7527 83.6847C94.4197 84.495 93.9313 85.2313 93.3155 85.8514C92.6996 86.4714 91.9683 86.9632 91.1635 87.2984C90.3587 87.6337 89.4961 87.8058 88.6251 87.8051Z" fill="white"/>
</g>
<defs>
<filter id="filter0_d_256_2" x="49.7188" y="8.60715" width="23.5625" height="23.7634" filterUnits="userSpaceOnUse" color-interpolation-filters="sRGB">
<feFlood flood-opacity="0" result="BackgroundImageFix"/>
<feColorMatrix in="SourceAlpha" type="matrix" values="0 0 0 0 0 0 0 0 0 0 0 0 0 0 0 0 0 0 127 0" result="hardAlpha"/>
<feOffset dy="0.5"/>
<feGaussianBlur stdDeviation="0.5"/>
<feComposite in2="hardAlpha" operator="out"/>
<feColorMatrix type="matrix" values="0 0 0 0 0 0 0 0 0 0 0 0 0 0 0 0 0 0 0.199474 0"/>
<feBlend mode="normal" in2="BackgroundImageFix" result="effect1_dropShadow_256_2"/>
<feBlend mode="normal" in="SourceGraphic" in2="effect1_dropShadow_256_2" result="shape"/>
</filter>
<filter id="filter1_d_256_2" x="55.4688" y="13.6853" width="12.7812" height="13.6071" filterUnits="userSpaceOnUse" color-interpolation-filters="sRGB">
<feFlood flood-opacity="0" result="BackgroundImageFix"/>
<feColorMatrix in="SourceAlpha" type="matrix" values="0 0 0 0 0 0 0 0 0 0 0 0 0 0 0 0 0 0 127 0" result="hardAlpha"/>
<feOffset dy="0.5"/>
<feGaussianBlur stdDeviation="0.5"/>
<feColorMatrix type="matrix" values="0 0 0 0 0 0 0 0 0 0 0 0 0 0 0 0 0 0 0.204257 0"/>
<feBlend mode="normal" in2="BackgroundImageFix" result="effect1_dropShadow_256_2"/>
<feBlend mode="normal" in="SourceGraphic" in2="effect1_dropShadow_256_2" result="shape"/>
</filter>
<filter id="filter2_d_256_2" x="77.7188" y="9.5" width="23.5625" height="23.5625" filterUnits="userSpaceOnUse" color-interpolation-filters="sRGB">
<feFlood flood-opacity="0" result="BackgroundImageFix"/>
<feColorMatrix in="SourceAlpha" type="matrix" values="0 0 0 0 0 0 0 0 0 0 0 0 0 0 0 0 0 0 127 0" result="hardAlpha"/>
<feOffset dy="0.5"/>
<feGaussianBlur stdDeviation="0.5"/>
<feComposite in2="hardAlpha" operator="out"/>
<feColorMatrix type="matrix" values="0 0 0 0 0 0 0 0 0 0 0 0 0 0 0 0 0 0 0.199474 0"/>
<feBlend mode="normal" in2="BackgroundImageFix" result="effect1_dropShadow_256_2"/>
<feBlend mode="normal" in="SourceGraphic" in2="effect1_dropShadow_256_2" result="shape"/>
</filter>
<filter id="filter3_d_256_2" x="-0.3125" y="40.5" width="22.625" height="22.625" filterUnits="userSpaceOnUse" color-interpolation-filters="sRGB">
<feFlood flood-opacity="0" result="BackgroundImageFix"/>
<feColorMatrix in="SourceAlpha" type="matrix" values="0 0 0 0 0 0 0 0 0 0 0 0 0 0 0 0 0 0 127 0" result="hardAlpha"/>
<feOffset dy="0.5"/>
<feGaussianBlur stdDeviation="0.5"/>
<feComposite in2="hardAlpha" operator="out"/>
<feColorMatrix type="matrix" values="0 0 0 0 0 0 0 0 0 0 0 0 0 0 0 0 0 0 0.199474 0"/>
<feBlend mode="normal" in2="BackgroundImageFix" result="effect1_dropShadow_256_2"/>
<feBlend mode="normal" in="SourceGraphic" in2="effect1_dropShadow_256_2" result="shape"/>
</filter>
<filter id="filter4_d_256_2" x="3.125" y="43.9375" width="15.75" height="15.75" filterUnits="userSpaceOnUse" color-interpolation-filters="sRGB">
<feFlood flood-opacity="0" result="BackgroundImageFix"/>
<feColorMatrix in="SourceAlpha" type="matrix" values="0 0 0 0 0 0 0 0 0 0 0 0 0 0 0 0 0 0 127 0" result="hardAlpha"/>
<feOffset dy="0.5"/>
<feGaussianBlur stdDeviation="0.5"/>
<feColorMatrix type="matrix" values="0 0 0 0 0 0 0 0 0 0 0 0 0 0 0 0 0 0 0.204257 0"/>
<feBlend mode="normal" in2="BackgroundImageFix" result="effect1_dropShadow_256_2"/>
<feBlend mode="normal" in="SourceGraphic" in2="effect1_dropShadow_256_2" result="shape"/>
</filter>
<linearGradient id="paint0_linear_256_2" x1="1128.84" y1="9.10715" x2="1128.84" y2="2185.45" gradientUnits="userSpaceOnUse">
<stop stop-color="white" stop-opacity="0.5"/>
<stop offset="1" stop-opacity="0.5"/>
</linearGradient>
<linearGradient id="paint1_linear_256_2" x1="1156.84" y1="10" x2="1156.84" y2="2166.25" gradientUnits="userSpaceOnUse">
<stop stop-color="white" stop-opacity="0.5"/>
<stop offset="1" stop-opacity="0.5"/>
</linearGradient>
<linearGradient id="paint2_linear_256_2" x1="1031.94" y1="41" x2="1031.94" y2="2103.5" gradientUnits="userSpaceOnUse">
<stop stop-color="white" stop-opacity="0.5"/>
<stop offset="1" stop-opacity="0.5"/>
</linearGradient>
<linearGradient id="paint3_linear_256_2" x1="74.8705" y1="41.837" x2="62.1959" y2="66.1496" gradientUnits="userSpaceOnUse">
<stop stop-color="#00FFA3"/>
<stop offset="1" stop-color="#DC1FFF"/>
</linearGradient>
<linearGradient id="paint4_linear_256_2" x1="69.3159" y1="38.9412" x2="56.6413" y2="63.2538" gradientUnits="userSpaceOnUse">
<stop stop-color="#00FFA3"/>
<stop offset="1" stop-color="#DC1FFF"/>
</linearGradient>
<linearGradient id="paint5_linear_256_2" x1="72.0754" y1="40.3799" x2="59.4008" y2="64.6925" gradientUnits="userSpaceOnUse">
<stop stop-color="#00FFA3"/>
<stop offset="1" stop-color="#DC1FFF"/>
</linearGradient>
<linearGradient id="paint6_linear_256_2" x1="176.757" y1="65.0005" x2="176.757" y2="53.0002" gradientUnits="userSpaceOnUse">
<stop stop-color="#002D74"/>
<stop offset="1" stop-color="#002D74" stop-opacity="0"/>
</linearGradient>
<linearGradient id="paint7_linear_256_2" x1="166.25" y1="41" x2="166.25" y2="53.0002" gradientUnits="userSpaceOnUse">
<stop stop-color="#002D74"/>
<stop offset="1" stop-color="#002D74" stop-opacity="0"/>
</linearGradient>
<clipPath id="clip0_256_2">
<rect width="16" height="25" fill="white" transform="translate(29 10)"/>
</clipPath>
<clipPath id="clip1_256_2">
<rect width="23" height="25" fill="white" transform="translate(50 10)"/>
</clipPath>
<clipPath id="clip2_256_2">
<rect width="23" height="24" fill="white" transform="translate(78 10)"/>
</clipPath>
<clipPath id="clip3_256_2">
<rect width="23" height="22" fill="white" transform="translate(106 10)"/>
</clipPath>
<clipPath id="clip4_256_2">
<rect width="23" height="24" fill="white" transform="translate(134 10)"/>
</clipPath>
<clipPath id="clip5_256_2">
<rect width="22" height="22" fill="white" transform="translate(0 41)"/>
</clipPath>
<clipPath id="clip6_256_2">
<rect width="22" height="22" fill="white" transform="translate(27 41)"/>
</clipPath>
<clipPath id="clip7_256_2">
<rect width="23" height="21" fill="white" transform="translate(54 41)"/>
</clipPath>
<clipPath id="clip8_256_2">
<rect width="21" height="21" fill="white" transform="translate(82 41)"/>
</clipPath>
<clipPath id="clip9_256_2">
<rect width="21" height="21" fill="white" transform="translate(108 41)"/>
</clipPath>
<clipPath id="clip10_256_2">
<rect width="22" height="22" fill="white" transform="translate(134 41)"/>
</clipPath>
<clipPath id="clip11_256_2">
<rect width="21" height="24" fill="white" transform="translate(161 41)"/>
</clipPath>
<clipPath id="clip12_256_2">
<rect width="109" height="20" fill="white" transform="translate(82 70)"/>
</clipPath>
</defs>
</svg>
