<svg xmlns="http://www.w3.org/2000/svg" width="202" height="68" fill="none"><path fill="#83BA3B" d="M51.746 6.027c-.663-.675-1.667-1.016-2.983-1.016h-3.445l-1.282 10.334h-4.514l.29-2.345h2.72l.322-2.633-2.718.006.291-2.334h2.801l.373-3.027h-5.689l-1.216 9.802H34.61l1.224-9.803H32.86l-1.217 9.802H29.61l1.226-9.802h-2.973l-1.282 10.334h-4.547L22.322 13h2.73l.322-2.618-2.727-.004.29-2.338h2.832l.37-3.029H8.413L7.404 13.2 5.394 5.01H2.31L.65 18.375h2.946L4.6 9.96l1.95 8.414H17.11l1.284-10.337h1.65l-1.283 10.337h27.783l.806-6.525 1.303 6.525H51.6l-1.35-5.332.308-.098c.68-.217 1.212-.683 1.581-1.38.37-.705.557-1.609.557-2.695 0-1.264-.311-2.194-.952-2.844l.001.001Zm-37.2 9.318h-4.51L10.327 13h2.829l.32-2.64h-2.801l.27-2.32h4.503l-.903 7.305Zm34.771-4.501c-.296.308-.726.457-1.313.457h-.583l.447-3.586h.428c.488 0 .844.116 1.09.353.191.186.42.554.42 1.25-.001.841-.267 1.293-.49 1.526h.001Z"/><path fill="#872165" d="M87.43 18.108h3.493V7.493H87.43v10.615ZM85.452 7.34c-3.23.115-4.87 1.68-4.87 4.792v5.976h3.529V13.24c0-1.871.23-2.673 2.276-2.75V7.379a4.456 4.456 0 0 0-.723-.057l-.212.02ZM59 8.22c0 1.221.494 4.104 4.994 4.448.388.019 1.394.095 1.394 1.126 0 .84-.83 1.356-2.223 1.356a11.12 11.12 0 0 1-3.918-.84v3.398c1.518.401 3.088.592 4.659.573 3.847 0 5.576-2.348 5.576-4.678 0-2.634-1.94-4.353-5.17-4.582-.441-.038-1.465-.095-1.465-1.107 0-1.203 1.465-1.203 2.03-1.203.97 0 2.223.306 3.123.611 0 0 .494.191.935.382l.036.02V4.4l-.053-.019c-1.06-.4-2.294-.783-4.57-.783C60.393 3.598 59 6.08 59 8.218Zm11.365-3.857v13.746h3.6v-4.257c1.04 1.699 1.57 4.257 1.57 4.257h4.324c-.424-1.928-2.294-5.46-2.294-5.46 1.112-1.547 1.959-3.284 2.54-5.155H75.96a13.642 13.642 0 0 1-1.994 3.704V3.598l-3.6.764Zm22.04-.096v13.842H95.9V3.598l-3.494.668Zm5.1 0v13.842H101V3.598l-3.494.668ZM89.178 2.74c-.954 0-1.73.84-1.73 1.871 0 1.031.776 1.871 1.73 1.871.952 0 1.729-.84 1.729-1.87-.018-1.032-.777-1.872-1.73-1.872Z"/><mask id="a" width="42" height="17" x="59" y="2" maskUnits="userSpaceOnUse" style="mask-type:luminance"><path fill="#fff" d="M87.43 18.108h3.493V7.493H87.43v10.615ZM85.452 7.34c-3.23.115-4.87 1.68-4.87 4.792v5.976h3.529V13.24c0-1.871.23-2.673 2.276-2.75V7.379a4.456 4.456 0 0 0-.723-.057l-.212.02ZM59 8.22c0 1.221.494 4.104 4.994 4.448.388.019 1.394.095 1.394 1.126 0 .84-.83 1.356-2.223 1.356a11.12 11.12 0 0 1-3.918-.84v3.398c1.518.401 3.088.592 4.659.573 3.847 0 5.576-2.348 5.576-4.678 0-2.634-1.94-4.353-5.17-4.582-.441-.038-1.465-.095-1.465-1.107 0-1.203 1.465-1.203 2.03-1.203.97 0 2.223.306 3.123.611 0 0 .494.191.935.382l.036.02V4.4l-.053-.019c-1.06-.4-2.294-.783-4.57-.783C60.393 3.598 59 6.08 59 8.218Zm11.365-3.857v13.746h3.6v-4.257c1.04 1.699 1.57 4.257 1.57 4.257h4.324c-.424-1.928-2.294-5.46-2.294-5.46 1.112-1.547 1.959-3.284 2.54-5.155H75.96a13.642 13.642 0 0 1-1.994 3.704V3.598l-3.6.764Zm22.04-.096v13.842H95.9V3.598l-3.494.668Zm5.1 0v13.842H101V3.598l-3.494.668ZM89.178 2.74c-.954 0-1.73.84-1.73 1.871 0 1.031.776 1.871 1.73 1.871.952 0 1.729-.84 1.729-1.87-.018-1.032-.777-1.872-1.73-1.872Z"/></mask><g mask="url(#a)"><path fill="#872165" d="M101 2.74H59v15.52h42V2.74Z"/></g><path fill="#1434CB" d="M133.329 3.133c-2.934 0-5.568 1.558-5.568 4.417 0 3.292 4.653 3.517 4.653 5.156 0 .69-.789 1.317-2.113 1.317-1.893 0-3.313-.868-3.313-.868l-.599 2.891s1.625.739 3.801.739c3.218 0 5.741-1.622 5.741-4.545 0-3.47-4.668-3.694-4.668-5.22 0-.546.646-1.14 1.971-1.14 1.499 0 2.729.626 2.729.626l.599-2.795c-.016 0-1.356-.578-3.233-.578Zm-26.876.21-.079.417s1.23.225 2.35.69c1.435.53 1.53.835 1.782 1.783l2.634 10.327h3.533l5.41-13.218h-3.517l-3.486 8.994-1.419-7.629c-.126-.867-.789-1.365-1.609-1.365h-5.599Zm17.05 0-2.76 13.217h3.359l2.744-13.218h-3.343Zm18.706 0c-.805 0-1.231.433-1.546 1.204l-4.921 12.013h3.517l.678-2.007h4.29l.411 2.007h3.107l-2.697-13.218h-2.839Zm.457 3.58 1.041 4.963h-2.792l1.751-4.962Z"/><path fill="#FFB600" d="M181.775 12c0 4.767-3.778 8.663-8.501 8.663-4.677 0-8.501-3.896-8.501-8.663s3.779-8.662 8.456-8.662c4.768 0 8.546 3.895 8.546 8.662Z"/><path fill="#F7981D" d="M173.274 3.338c4.678 0 8.501 3.895 8.501 8.662 0 4.767-3.778 8.663-8.501 8.663-4.677 0-8.501-3.896-8.501-8.663"/><path fill="#FF8500" d="M173.274 3.338c4.678 0 8.501 3.895 8.501 8.662 0 4.767-3.778 8.663-8.501 8.663"/><path fill="#FF5050" d="M161.85 3.338c-4.633.045-8.411 3.895-8.411 8.662 0 4.767 3.778 8.663 8.501 8.663 2.204 0 4.183-.871 5.712-2.246.315-.275.585-.596.855-.917h-1.755a10.548 10.548 0 0 1-.629-.87h3.013c.18-.276.36-.597.495-.917h-4.003a5.52 5.52 0 0 1-.36-.917h4.678c.27-.871.45-1.788.45-2.75 0-.642-.09-1.238-.18-1.833h-5.218c.045-.321.135-.596.225-.917h4.678a5.523 5.523 0 0 0-.36-.917h-3.958c.135-.32.315-.596.495-.917h3.013a4.384 4.384 0 0 0-.674-.916h-1.665c.27-.321.54-.596.855-.871-1.484-1.42-3.508-2.246-5.712-2.246 0-.091 0-.091-.045-.091Z"/><path fill="#E52836" d="M153.439 12c0 4.767 3.778 8.663 8.501 8.663 2.204 0 4.183-.871 5.712-2.246.315-.275.585-.596.855-.917h-1.755a10.548 10.548 0 0 1-.629-.87h3.013c.18-.276.36-.597.495-.917h-4.003a5.522 5.522 0 0 1-.36-.917h4.678c.27-.871.45-1.788.45-2.75 0-.642-.09-1.238-.18-1.833h-5.218c.045-.321.135-.596.225-.917h4.678a5.52 5.52 0 0 0-.36-.917h-3.958c.135-.32.315-.596.495-.916h3.013a4.383 4.383 0 0 0-.674-.917h-1.665c.27-.321.54-.596.855-.871-1.484-1.42-3.508-2.246-5.712-2.246h-.045"/><path fill="#CB2026" d="M161.94 20.663c2.204 0 4.183-.871 5.712-2.246.315-.275.585-.596.855-.917h-1.754c-.225-.275-.45-.596-.63-.87h3.013c.18-.276.36-.597.495-.917h-4.003a5.522 5.522 0 0 1-.36-.917h4.678c.27-.871.45-1.788.45-2.75 0-.642-.09-1.238-.18-1.833h-5.217c.044-.321.134-.596.224-.917h4.678a5.52 5.52 0 0 0-.36-.917h-3.958c.135-.32.315-.596.495-.916h3.013a4.313 4.313 0 0 0-.674-.917h-1.664c.27-.321.539-.596.854-.871-1.484-1.42-3.508-2.246-5.712-2.246h-.045"/><path fill="#fff" d="m164.953 14.2.135-.78c-.045 0-.135.047-.225.047-.315 0-.36-.184-.315-.275l.27-1.604h.495l.135-.871h-.45l.09-.55h-.899s-.54 3.025-.54 3.391c0 .55.315.78.72.78.269 0 .494-.092.584-.138Zm.315-1.467c0 1.284.855 1.604 1.574 1.604.675 0 .945-.137.945-.137l.18-.87s-.495.228-.945.228c-.989 0-.809-.733-.809-.733h1.844s.135-.596.135-.825c0-.596-.315-1.33-1.305-1.33-.944-.09-1.619.918-1.619 2.063Zm1.574-1.329c.495 0 .405.596.405.642h-.989c0-.046.09-.642.584-.642Zm5.712 2.796.18-1.008s-.449.229-.764.229c-.63 0-.9-.504-.9-1.054 0-1.1.54-1.696 1.17-1.696.449 0 .809.275.809.275l.135-.963s-.54-.229-1.034-.229c-1.035 0-2.069.917-2.069 2.659 0 1.145.539 1.925 1.619 1.925.36 0 .854-.138.854-.138Zm-12.548-3.62c-.63 0-1.08.182-1.08.182l-.135.78s.405-.184.99-.184c.315 0 .585.046.585.321 0 .184-.045.23-.045.23h-.405c-.765 0-1.619.32-1.619 1.374 0 .825.539 1.009.854 1.009.63 0 .9-.413.945-.413l-.045.367h.809l.36-2.521c0-1.1-.899-1.146-1.214-1.146Zm.18 2.062c0 .137-.09.87-.63.87-.27 0-.36-.229-.36-.366 0-.23.135-.55.81-.55.135.046.18.046.18.046Zm1.889 1.65c.225 0 1.349.046 1.349-1.192 0-1.146-1.079-.917-1.079-1.375 0-.23.179-.32.494-.32.135 0 .63.045.63.045l.135-.825s-.315-.092-.855-.092c-.674 0-1.349.275-1.349 1.192 0 1.054 1.124.963 1.124 1.375 0 .275-.314.32-.539.32-.405 0-.81-.137-.81-.137l-.135.825c.045.092.27.184 1.035.184Zm17.946-4.446-.18 1.237s-.36-.458-.855-.458c-.809 0-1.529 1.008-1.529 2.2 0 .733.36 1.513 1.124 1.513.54 0 .855-.367.855-.367l-.045.32h.9l.674-4.4-.944-.045Zm-.405 2.429c0 .504-.225 1.146-.72 1.146-.315 0-.494-.275-.494-.733 0-.734.314-1.192.719-1.192.315 0 .495.229.495.779Zm-24.513 1.97.54-3.3.09 3.3h.629l1.17-3.3-.495 3.3h.945l.719-4.4h-1.484l-.899 2.705-.045-2.704h-1.305l-.719 4.4h.854Zm13.943 0c.27-1.512.315-2.75.945-2.52.09-.596.225-.825.315-1.054h-.18c-.405 0-.72.55-.72.55l.09-.504h-.855l-.584 3.575h.989v-.046Zm5.577-3.666c-.629 0-1.079.183-1.079.183l-.135.78s.405-.184.99-.184c.314 0 .584.046.584.321 0 .184-.045.23-.045.23h-.405c-.764 0-1.619.32-1.619 1.374 0 .825.54 1.009.855 1.009.63 0 .899-.413.944-.413l-.045.367h.81l.36-2.521c.045-1.1-.9-1.146-1.215-1.146Zm.225 2.063c0 .137-.09.87-.629.87-.27 0-.36-.229-.36-.366 0-.23.135-.55.809-.55.135.046.135.046.18.046Zm1.754 1.604c.27-1.513.315-2.75.945-2.521.09-.596.225-.825.315-1.054h-.18c-.405 0-.72.55-.72.55l.09-.504h-.854l-.585 3.575h.989v-.046Z"/><path fill="#DCE5E5" d="M163.559 13.558c0 .55.315.78.72.78.314 0 .584-.092.674-.138l.135-.78c-.045 0-.135.047-.225.047-.315 0-.36-.184-.315-.275l.27-1.604h.495l.135-.871h-.45l.09-.55m.63 2.566c0 1.284.405 1.604 1.124 1.604.675 0 .945-.137.945-.137l.18-.87s-.495.228-.945.228c-.989 0-.809-.733-.809-.733h1.844s.135-.596.135-.825c0-.596-.315-1.33-1.305-1.33-.944-.09-1.169.918-1.169 2.063Zm1.124-1.329c.495 0 .585.596.585.642h-1.169c0-.046.09-.642.584-.642Zm5.712 2.796.18-1.008s-.449.229-.764.229c-.63 0-.9-.504-.9-1.054 0-1.1.54-1.696 1.17-1.696.449 0 .809.275.809.275l.135-.963s-.54-.229-1.034-.229c-1.035 0-1.619.917-1.619 2.659 0 1.145.089 1.925 1.169 1.925.36 0 .854-.138.854-.138Zm-13.763-2.612s.405-.184.99-.184c.315 0 .585.046.585.321 0 .183-.045.23-.045.23h-.405c-.765 0-1.619.32-1.619 1.374 0 .825.539 1.008.854 1.008.63 0 .9-.412.945-.412l-.045.367h.809l.36-2.521c0-1.054-.899-1.1-1.259-1.1m.674 1.97c0 .138-.539.871-1.079.871-.27 0-.36-.229-.36-.366 0-.23.135-.55.81-.55.135.046.629.046.629.046Zm.45 1.559s.27.092 1.035.092c.225 0 1.349.046 1.349-1.192 0-1.146-1.079-.917-1.079-1.375 0-.23.179-.32.494-.32.135 0 .63.045.63.045l.135-.825s-.315-.092-.855-.092c-.674 0-.899.275-.899 1.192 0 1.054.674.963.674 1.375 0 .275-.314.32-.539.32m17.811-2.337s-.36-.458-.855-.458c-.809 0-1.079 1.008-1.079 2.2 0 .733-.09 1.513.674 1.513.54 0 .855-.367.855-.367l-.045.32h.9l.674-4.4m-1.169 2.384c0 .504-.405 1.146-.9 1.146-.315 0-.494-.275-.494-.733 0-.734.314-1.192.719-1.192.315 0 .675.229.675.779Zm-24.693 1.97.54-3.3.09 3.3h.629l1.17-3.3-.495 3.3h.945l.719-4.4h-1.124l-1.259 2.705-.045-2.704h-.495l-1.529 4.4h.854Zm12.999 0h.944c.27-1.512.315-2.75.945-2.52.09-.596.225-.825.315-1.054h-.18c-.405 0-.72.55-.72.55l.09-.504m3.913.87s.405-.183.99-.183c.314 0 .584.046.584.321 0 .183-.045.23-.045.23h-.405c-.764 0-1.619.32-1.619 1.374 0 .825.54 1.008.855 1.008.63 0 .899-.412.944-.412l-.045.367h.81l.36-2.521c0-1.054-.9-1.1-1.259-1.1m.674 1.97c0 .138-.54.871-1.079.871-.27 0-.36-.229-.36-.366 0-.23.135-.55.809-.55.18.046.63.046.63.046Zm.405 1.605h.944c.27-1.513.315-2.75.945-2.521.09-.596.225-.825.315-1.054h-.18c-.405 0-.72.55-.72.55l.09-.504"/><mask id="b" width="22" height="22" x="1" y="32" maskUnits="userSpaceOnUse" style="mask-type:luminance"><path fill="#fff" d="M22.559 32.238H1.562V53.75H22.56V32.238Z"/></mask><g mask="url(#b)"><path fill="#F7931A" d="M22.244 45.596c-1.402 5.762-7.099 9.269-12.724 7.832C3.897 51.99.474 46.155 1.877 40.393c1.402-5.763 7.098-9.27 12.722-7.833 5.625 1.436 9.048 7.273 7.645 13.036Z"/><path fill="#fff" d="M16.69 41.462c.21-1.432-.855-2.201-2.31-2.715l.473-1.938-1.152-.294-.46 1.887c-.303-.077-.614-.15-.923-.222l.463-1.9-1.152-.295-.472 1.939c-.25-.059-.496-.117-.735-.178l.001-.006-1.589-.406-.306 1.26s.855.201.836.214c.467.119.551.435.537.686l-.537 2.209a.91.91 0 0 1 .12.04l-.122-.032-.754 3.095c-.057.145-.201.363-.527.28.011.017-.838-.214-.838-.214l-.572 1.351 1.5.383c.278.072.552.147.82.217l-.476 1.961 1.15.294.473-1.94c.314.087.62.168.918.244l-.47 1.931 1.152.294.476-1.957c1.965.38 3.442.227 4.064-1.593.501-1.466-.025-2.311-1.058-2.863.752-.177 1.319-.685 1.47-1.733Zm-2.632 3.78c-.356 1.467-2.765.674-3.546.476l.633-2.599c.78.2 3.285.595 2.913 2.124Zm.356-3.802c-.325 1.334-2.33.656-2.98.49l.574-2.356c.65.166 2.745.476 2.406 1.866Z"/></g><g clip-path="url(#c)"><path fill="#fff" d="M28 33.913h1.968l1.577 5.826 1.519-5.551h1.605l1.548 5.551 1.548-5.826h1.967l-2.546 8.373h-1.779l-1.562-5.658-1.519 5.658h-1.78L28 33.913Z"/><path fill="#fff" d="M40.674 38.763c.095 1.342 1.321 2.09 2.5 2.074 1.007 0 1.683-.442 2.076-1.128h2.123c-.409.93-1.022 1.632-1.746 2.104a4.37 4.37 0 0 1-2.468.732c-2.657 0-4.56-2.089-4.56-4.422a4.485 4.485 0 0 1 4.528-4.469c1.29 0 2.422.473 3.224 1.281 1.053 1.052 1.446 2.364 1.273 3.828h-6.95Zm4.921-1.525c-.078-.793-.943-1.907-2.453-1.891-1.525 0-2.358 1.067-2.437 1.89h4.89Z"/><path fill="#fff" d="M47.325 31h2.06v3.95c.85-1.022 2.091-1.296 2.878-1.296 2.044 0 4.308 1.449 4.308 4.407 0 2.837-2.044 4.484-4.403 4.484-1.352 0-2.406-.64-2.862-1.464v1.205h-1.981V31Zm7.186 7.076a2.557 2.557 0 0 0-2.595-2.562c-1.603 0-2.61 1.22-2.61 2.577 0 1.404 1.007 2.593 2.563 2.593 1.682 0 2.642-1.296 2.642-2.593v-.015Z"/><path fill="#FFA817" d="M30.544 42.125h1.934v1.22c.613-.84 1.62-1.48 3.05-1.48 3.02 0 4.293 2.486 4.293 4.515 0 2.379-1.746 4.377-4.277 4.377-1.683 0-2.595-.839-2.94-1.373v4.042h-2.06V42.125Zm7.217 4.178c0-1.204-.896-2.577-2.641-2.577-.755 0-1.4.29-1.871.763a2.603 2.603 0 0 0-.74 1.845c0 .717.284 1.357.755 1.815a2.679 2.679 0 0 0 1.871.747c1.573 0 2.626-1.205 2.626-2.577v-.015Z"/><path fill="#FFA817" d="M48.72 50.498h-2.06v-1.205c-.55.976-1.698 1.464-2.908 1.464-2.768 0-4.388-2.09-4.388-4.453 0-2.639 1.966-4.439 4.388-4.439 1.572 0 2.531.809 2.908 1.48v-1.22h2.06v8.372Zm-7.296-4.149c0 1.037.77 2.547 2.626 2.547 1.148 0 1.902-.58 2.296-1.342.204-.366.298-.763.33-1.174a2.539 2.539 0 0 0-.236-1.175c-.362-.793-1.164-1.48-2.406-1.48-1.667 0-2.61 1.313-2.61 2.609v.015Z"/><path fill="#FFA817" d="m51.22 50.177-3.255-8.053h2.201l2.108 5.567 2.075-5.567h2.201l-4.544 11.302h-2.201l1.416-3.25-.001.001Z"/><path fill="#FF0005" d="M63.245 36.846a.26.26 0 0 0-.358 0l-5.31 5.15-.18.174v6.173a.25.25 0 0 0 .254.246h6.11c.14 0 .334-.079.432-.174l5.31-5.15a.242.242 0 0 0 0-.349l-6.258-6.07Z"/><path fill="#fff" d="M58.248 42.622h.508v.473c.21-.324.57-.553 1.067-.553.96 0 1.41.777 1.41 1.449 0 .766-.569 1.418-1.405 1.418-.58 0-.924-.309-1.047-.527v1.433h-.533v-3.692Zm2.447 1.348a.937.937 0 0 0-.975-.945.966.966 0 0 0-.692.279.949.949 0 0 0-.273.676.92.92 0 0 0 .277.672c.175.17.421.274.693.274.565 0 .97-.423.97-.95v-.006ZM61.393 41.647h.533v3.682h-.533v-3.683ZM64.81 45.33h-.503v-.419c-.134.28-.447.503-.944.498-.898-.005-1.13-.637-1.13-1.2v-1.587h.535v1.468c0 .488.194.836.743.836.524-.005.765-.328.765-.791v-1.513h.534v2.707ZM66.354 43.329c0-.21-.133-.369-.405-.364-.262 0-.405.17-.4.349.01.214.21.313.508.393.425.114.892.234.908.816.01.528-.441.886-.996.886-.44 0-.99-.244-1.015-.861h.528c.02.328.293.438.493.438.256 0 .456-.174.456-.403-.005-.269-.215-.358-.713-.518-.39-.114-.698-.293-.703-.701 0-.513.431-.822.94-.822.384 0 .887.184.928.787h-.528Z"/></g><g clip-path="url(#d)"><path fill="#fff" d="m84.988 30.285-4.984 17.323h2.954l1.415-5.095h4.06l1.477 5.095h3.015L87.88 30.285h-2.892Zm2.708 9.462H85.11l1.046-3.858c.06-.291.123-.51.184-.8.062.29.123.51.246.801l1.108 3.857Zm10.151 0c-1.354-.656-1.477-.947-1.477-1.384 0-.582.43-.946 1.046-.946.615 0 1.17.219 1.723.582l.553.437.739-2.766-.307-.291c-.81-.595-1.757-.874-2.708-.8-2.277 0-3.877 1.673-3.877 4.003 0 2.11 1.6 3.275 2.954 3.858 1.354.582 1.477 1.019 1.477 1.528 0 .947-.861 1.092-1.354 1.092-.738-.073-1.477-.29-2.092-.728l-.553-.364-.739 2.838.37.22c.922.582 1.969.945 3.014.873 2.462 0 4.185-1.675 4.185-4.149-.062-2.402-1.723-3.421-2.954-4.003Zm7.322-7.861-2.831 1.019v1.965h-1.477v2.838h1.539v5.677c-.062 1.239.184 2.476.8 3.495.615.728 1.416 1.164 2.276 1.091.616 0 1.17-.073 1.723-.291l.369-.146-.123-2.838-.615.218c-.307.073-.553.145-.862.145-.307 0-.799 0-.799-1.6v-5.75h2.523v-2.84h-2.523v-2.983Zm9.352 2.838-.492-.072c-.184 0-.308-.074-.493-.074-.86 0-1.723.437-2.337 1.165v-.946h-2.646v.728c.061.946.061 2.111.061 3.567v8.588h2.831v-6.769c0-.29 0-.582.061-.873.185-1.31.924-2.184 1.846-2.184h.493l.615.145.061-3.275Zm5.168-.145c-3.138 0-5.352 2.766-5.352 6.77 0 3.857 2.153 6.55 5.229 6.55 2.585 0 5.416-2.11 5.416-6.77-.062-3.858-2.216-6.55-5.293-6.55Zm2.339 6.624c0 2.256-1.046 3.857-2.4 3.857-1.354 0-2.399-1.601-2.399-3.785 0-1.456.553-3.858 2.461-3.858 1.846 0 2.338 2.475 2.338 3.786Zm12.183-9.537c-.924-1.019-2.339-1.528-4.185-1.528-1.169 0-2.338.072-3.445.291l-.431.146v17.032h2.83v-6.331c.309 0 .616.072.862.072 1.661.074 3.322-.582 4.553-1.965.799-1.019 1.231-2.475 1.231-3.858 0-1.456-.493-2.838-1.415-3.857v-.002Zm-1.416 3.932c0 2.401-1.784 2.765-2.892 2.765-.307 0-.614 0-.923-.072v-5.168c.37-.074.739-.074 1.108-.074 1.231.074 2.707.51 2.707 2.549Zm11.444 8.661v-4.293c0-3.421-1.538-5.314-4.245-5.314-1.23 0-2.461.363-3.507 1.091l-.369.291.738 2.693.616-.509c.676-.51 1.477-.801 2.276-.728.431-.073.923.146 1.292.51.246.29.369.727.43 1.164-2.215.074-3.814.728-4.799 1.893-.676.8-1.045 1.893-1.045 3.056 0 2.184 1.477 3.931 3.261 3.931h.246c.922 0 1.907-.364 2.646-1.019l.061.728h2.707l-.062-.728a15.05 15.05 0 0 1-.246-2.766Zm-4.737.874c-.554.073-1.047-.437-1.108-1.092v-.291c0-.437.123-.8.37-1.091.307-.365 1.045-.802 2.707-.874v1.383c0 .145 0 .29-.062.51-.308.873-1.046 1.455-1.907 1.455Zm12.551-10.263-2.03 7.206a1.57 1.57 0 0 0-.123.583c-.061-.146-.123-.365-.184-.51l-2.216-7.206h-3.076l3.876 11.5c.062.073.062.146.062.291 0 .073-.062.146-.062.22-.307.8-.739 1.527-1.353 2.11-.431.437-.862.728-1.354.873l-.492.218.738 2.839.493-.072c.922-.22 1.723-.728 2.461-1.456 1.353-1.456 2.276-3.713 3.506-7.498l2.769-9.17-3.015.072Z"/><path fill="red" d="M90.401 35.089c1.847-2.184 4.924-3.495 8.308-3.495 1.292 0 2.584.22 3.814.583h.123l2.154-.8-.985-.437c-2.03-.802-4.123-1.237-6.214-1.237-2.914-.073-5.789.809-8.306 2.547l-.246.146.922 3.13.431-.437Z"/></g><g clip-path="url(#e)"><mask id="f" width="26" height="25" x="164" y="31" maskUnits="userSpaceOnUse" style="mask-type:luminance"><path fill="#fff" d="M190 31h-25v25h25V31Z"/></mask><g mask="url(#f)"><path fill="#FDB913" d="M167.438 31.426h20.124a2.015 2.015 0 0 1 2.012 2.012v20.124a2.014 2.014 0 0 1-2.012 2.012h-20.124a2.012 2.012 0 0 1-2.012-2.012V33.438a2.014 2.014 0 0 1 2.012-2.012Z"/><path fill="#fff" d="M187.562 31.426a2.014 2.014 0 0 1 2.012 2.012v20.124a2.014 2.014 0 0 1-2.012 2.012h-20.124a2.013 2.013 0 0 1-2.012-2.012V33.438a2.015 2.015 0 0 1 1.242-1.859c.244-.101.506-.153.77-.153h20.124Zm0-.426h-20.124A2.44 2.44 0 0 0 165 33.438v20.124A2.443 2.443 0 0 0 167.438 56h20.124A2.441 2.441 0 0 0 190 53.562V33.438A2.443 2.443 0 0 0 187.562 31Z"/><path fill="#231F20" d="m178.909 43.76-.002-4.323 1.129-.268v.567s.292-.745.971-.918a.647.647 0 0 1 .313-.021V39.9a1.579 1.579 0 0 0-.591.123c-.417.165-.627.524-.627 1.072l.001 2.388-1.194.278ZM172.96 45.167s-.184-.276-.184-1.248v-2.153l-.58.138v-.887l.582-.137v-.967l1.2-.283v.966l.848-.201v.886l-.848.201s-.002 1.764 0 2.192c0 .997.264 1.188.264 1.188l-1.282.305ZM174.951 42.594c0-.768.109-1.329.344-1.76.28-.51.738-.843 1.406-.995 1.317-.3 1.792.48 1.774 1.525-.007.374-.006.556-.006.556l-2.319.545v.037c0 .73.153 1.077.616.979.399-.085.51-.335.542-.645.005-.05.008-.176.008-.176l1.086-.26s.003.088.001.188c-.009.415-.13 1.444-1.64 1.801-1.431.34-1.812-.534-1.812-1.795Zm1.799-1.95c-.385.088-.586.465-.595 1.09l1.167-.279c.002-.028.002-.09.002-.188-.002-.471-.148-.72-.574-.622ZM185.382 40.066c-.045-1.317.297-2.362 1.766-2.694.936-.213 1.292.03 1.472.266.173.224.24.527.24.952l.001.078-1.15.273v-.16c0-.503-.139-.695-.505-.603-.435.109-.61.522-.61 1.342l.001.383c0 .833.114 1.215.615 1.11.434-.09.494-.472.501-.806l.003-.22 1.148-.272.001.18c-.003 1.092-.579 1.781-1.659 2.032-1.487.349-1.778-.51-1.824-1.86ZM181.409 41.91c0-1.002.586-1.319 1.47-1.684.794-.328.811-.492.814-.777.005-.24-.107-.446-.502-.345a.598.598 0 0 0-.479.566 2.055 2.055 0 0 0-.007.221l-1.114.263a2.247 2.247 0 0 1 .077-.658c.178-.598.706-1.001 1.618-1.212 1.185-.273 1.58.247 1.581 1.055v1.915c0 .926.172 1.062.172 1.062l-1.093.259a2.384 2.384 0 0 1-.146-.393s-.24.603-1.065.797c-.867.204-1.326-.333-1.326-1.07Zm2.277-1.368c-.185.13-.379.243-.582.34-.364.179-.529.398-.529.736 0 .293.181.486.511.404.354-.089.6-.419.6-.878v-.602ZM166.685 48.197a.695.695 0 0 1-.581-1.07l.008-.01.013-.004 1.632-.386v1.24l-.025.006c-.371.089-.813.19-.904.21a.687.687 0 0 1-.143.014ZM166.685 49.783a.692.692 0 0 1-.581-1.069l.008-.012.013-.003 1.632-.385v1.24l-.025.006c-.371.089-.813.191-.904.21a.737.737 0 0 1-.143.013ZM166.685 51.372a.693.693 0 0 1-.581-1.07l.008-.012 1.645-.388v1.24l-.025.006c-.391.094-.826.192-.904.21a.738.738 0 0 1-.143.014ZM166.493 46.678l-.001-6.935 1.265-.3v6.937l-1.264.298ZM169.642 46.088a.781.781 0 1 0-1.56 0l.001 6.483a2.12 2.12 0 0 0 2.111 2.112l2.209-.002.001-2.705V48.96a1.013 1.013 0 0 0-.453-.85l-1.969-1.337v3.036a.17.17 0 0 1-.049.119.169.169 0 0 1-.238 0 .17.17 0 0 1-.049-.119l-.004-3.72Z"/><path fill="#231F20" d="M170.696 41.252a1.713 1.713 0 0 0-1.125.87v-.487l-1.139.269.001 3.113a1.166 1.166 0 0 1 1.199.21v-2.01c0-.482.24-.866.582-.942.258-.056.473.036.473.494l.001 2.933 1.199-.281v-3.102c0-.753-.29-1.278-1.191-1.067ZM188.121 36.813a.74.74 0 1 1-.001-1.481.74.74 0 0 1 .001 1.48Zm0-1.39a.65.65 0 1 0 0 1.3.65.65 0 0 0 0-1.3Z"/><path fill="#231F20" d="M187.851 35.63h.32a.208.208 0 0 1 .229.233c0 .117-.052.207-.151.223v.001c.09.01.137.059.142.186l.005.184c0 .016.004.031.012.045a.09.09 0 0 0 .031.033h-.163a.144.144 0 0 1-.024-.08c-.005-.054-.004-.105-.007-.17-.002-.1-.032-.143-.131-.143h-.119v.393h-.144v-.905Zm.26.403a.133.133 0 0 0 .138-.089c.006-.018.009-.038.006-.058 0-.096-.041-.147-.136-.147h-.124v.294h.116Z"/></g></g><defs><clipPath id="c"><path fill="#fff" d="M28 31h42v25H28z"/></clipPath><clipPath id="d"><path fill="#fff" d="M75 31h85v23H75z"/></clipPath><clipPath id="e"><path fill="#fff" d="M165 31h25v25h-25z"/></clipPath></defs></svg>