<svg xmlns="http://www.w3.org/2000/svg" width="192" height="110" fill="none"><path fill="#83BA3B" d="M54.62 16.31c-.7-.7-1.76-1.06-3.15-1.06h-3.64l-1.35 10.83h-4.76l.3-2.46h2.87l.34-2.76h-2.86l.3-2.44h2.96l.4-3.17h-6.01l-1.29 10.27h-2.2l1.3-10.27h-3.14L33.4 25.52h-2.15l1.3-10.27H29.4l-1.35 10.83h-4.8l.3-2.46h2.88l.34-2.74H23.9l.31-2.46h2.99l.4-3.17H8.87l-1.06 8.58-2.13-8.58H2.44l-1.75 14h3.1l1.07-8.82 2.05 8.82h11.15l1.36-10.83h1.74L19.8 29.25h29.33l.85-6.84 1.38 6.84h3.1l-1.42-5.59.33-.1a2.84 2.84 0 0 0 1.67-1.44c.39-.74.58-1.69.58-2.83 0-1.32-.32-2.3-1-2.98Zm-39.27 9.77H10.6l.31-2.46h2.99l.34-2.77h-2.96l.28-2.43h4.76l-.96 7.66Zm36.7-4.72c-.3.32-.76.48-1.38.48h-.61l.47-3.76h.45c.51 0 .89.12 1.15.37.2.2.44.58.44 1.31 0 .88-.28 1.36-.51 1.6Z"/><path fill="#872165" d="M91.78 28.97h3.66V17.85h-3.66v11.12Zm-2.07-11.28c-3.38.12-5.1 1.76-5.1 5.02v6.26h3.7v-5.1c0-1.96.24-2.8 2.38-2.88v-3.26c-.24-.04-.5-.06-.76-.06l-.22.02ZM62 18.61c0 1.28.52 4.3 5.23 4.66.4.02 1.46.1 1.46 1.18 0 .88-.87 1.42-2.33 1.42-1.4-.04-2.79-.34-4.1-.88v3.56c1.59.42 3.23.62 4.88.6 4.03 0 5.84-2.46 5.84-4.9 0-2.76-2.03-4.56-5.42-4.8-.46-.04-1.53-.1-1.53-1.16 0-1.26 1.53-1.26 2.13-1.26a11.35 11.35 0 0 1 4.25 1.04l.04.02v-3.48l-.06-.02a12.2 12.2 0 0 0-4.79-.82c-4.14 0-5.6 2.6-5.6 4.84Zm11.9-4.04v14.4h3.78v-4.46a16.66 16.66 0 0 1 1.64 4.46h4.53c-.44-2.02-2.4-5.72-2.4-5.72a18.77 18.77 0 0 0 2.66-5.4h-4.34a14.3 14.3 0 0 1-2.1 3.88v-7.96l-3.76.8Zm23.1-.1v14.5h3.66v-15.2l-3.66.7Zm5.34 0v14.5H106v-15.2l-3.66.7Zm-8.73-1.6c-1 0-1.8.88-1.8 1.96s.8 1.96 1.8 1.96 1.82-.88 1.82-1.96c-.02-1.08-.82-1.96-1.82-1.96Z"/><mask id="a" width="44" height="18" x="62" y="12" maskUnits="userSpaceOnUse" style="mask-type:luminance"><path fill="#fff" d="M91.78 28.97h3.66V17.85h-3.66v11.12Zm-2.07-11.28c-3.38.12-5.1 1.76-5.1 5.02v6.26h3.7v-5.1c0-1.96.24-2.8 2.38-2.88v-3.26c-.24-.04-.5-.06-.76-.06l-.22.02ZM62 18.61c0 1.28.52 4.3 5.23 4.66.4.02 1.46.1 1.46 1.18 0 .88-.87 1.42-2.33 1.42-1.4-.04-2.79-.34-4.1-.88v3.56c1.59.42 3.23.62 4.88.6 4.03 0 5.84-2.46 5.84-4.9 0-2.76-2.03-4.56-5.42-4.8-.46-.04-1.53-.1-1.53-1.16 0-1.26 1.53-1.26 2.13-1.26a11.35 11.35 0 0 1 4.25 1.04l.04.02v-3.48l-.06-.02a12.2 12.2 0 0 0-4.79-.82c-4.14 0-5.6 2.6-5.6 4.84Zm11.9-4.04v14.4h3.78v-4.46a16.66 16.66 0 0 1 1.64 4.46h4.53c-.44-2.02-2.4-5.72-2.4-5.72a18.77 18.77 0 0 0 2.66-5.4h-4.34a14.3 14.3 0 0 1-2.1 3.88v-7.96l-3.76.8Zm23.1-.1v14.5h3.66v-15.2l-3.66.7Zm5.34 0v14.5H106v-15.2l-3.66.7Zm-8.73-1.6c-1 0-1.8.88-1.8 1.96s.8 1.96 1.8 1.96 1.82-.88 1.82-1.96c-.02-1.08-.82-1.96-1.82-1.96Z"/></mask><g mask="url(#a)"><path fill="#872165" d="M106 12.87H62v16.26h44V12.87Z"/></g><path fill="#1434CB" d="M138.33 13.13c-2.94 0-5.57 1.56-5.57 4.42 0 3.3 4.65 3.52 4.65 5.16 0 .69-.78 1.31-2.1 1.31-1.9 0-3.32-.86-3.32-.86l-.6 2.89s1.62.73 3.8.73c3.22 0 5.74-1.62 5.74-4.54 0-3.47-4.67-3.7-4.67-5.22 0-.55.65-1.14 1.97-1.14 1.5 0 2.73.63 2.73.63l.6-2.8c-.01 0-1.35-.58-3.23-.58Zm-26.88.21-.08.42s1.23.22 2.35.69c1.44.53 1.53.84 1.79 1.78l2.63 10.33h3.53l5.41-13.22h-3.51l-3.49 9-1.42-7.63c-.13-.87-.79-1.37-1.6-1.37h-5.6Zm17.05 0-2.76 13.22h3.36l2.75-13.22h-3.35Zm18.7 0c-.8 0-1.22.44-1.54 1.2l-4.92 12.02h3.52l.68-2h4.29l.4 2h3.12l-2.7-13.22h-2.84Zm.47 3.58 1.04 4.97h-2.8l1.76-4.97Z"/><path fill="#FFB600" d="M186.78 22a8.58 8.58 0 0 1-8.5 8.66 8.6 8.6 0 0 1-8.5-8.66 8.57 8.57 0 0 1 8.45-8.66c4.77 0 8.55 3.9 8.55 8.66Z"/><path fill="#F7981D" d="M178.27 13.34a8.6 8.6 0 0 1 8.5 8.66 8.58 8.58 0 0 1-8.5 8.66 8.6 8.6 0 0 1-8.5-8.66"/><path fill="#FF8500" d="M178.27 13.34a8.6 8.6 0 0 1 8.5 8.66 8.58 8.58 0 0 1-8.5 8.66"/><path fill="#FF5050" d="M166.85 13.34a8.59 8.59 0 0 0-8.41 8.66 8.58 8.58 0 0 0 8.5 8.66c2.2 0 4.18-.87 5.71-2.24.32-.28.59-.6.86-.92h-1.76c-.22-.27-.45-.6-.63-.87h3.02c.18-.28.36-.6.5-.92h-4.01c-.14-.27-.27-.6-.36-.91h4.68c.27-.87.45-1.8.45-2.75 0-.65-.1-1.24-.18-1.84H170c.04-.32.13-.6.22-.91h4.68a5.52 5.52 0 0 0-.36-.92h-3.96c.14-.32.32-.6.5-.92h3.01c-.18-.32-.4-.64-.67-.91h-1.67c.27-.32.54-.6.86-.87a8.21 8.21 0 0 0-5.72-2.25c0-.1 0-.1-.04-.1Z"/><path fill="#E52836" d="M158.44 22a8.58 8.58 0 0 0 8.5 8.66 8.51 8.51 0 0 0 6.57-3.16h-1.76c-.22-.27-.45-.6-.63-.87h3.02c.18-.28.36-.6.5-.92h-4.01c-.14-.27-.27-.6-.36-.91h4.68a9.25 9.25 0 0 0 .27-4.59H170c.04-.32.13-.6.22-.91h4.68a5.52 5.52 0 0 0-.36-.92h-3.96c.14-.32.32-.6.5-.92h3.01c-.18-.32-.4-.64-.67-.91h-1.67c.27-.32.54-.6.86-.88a8.21 8.21 0 0 0-5.72-2.24h-.04"/><path fill="#CB2026" d="M166.94 30.66a8.51 8.51 0 0 0 6.57-3.16h-1.76c-.22-.27-.45-.6-.63-.87h3.02c.18-.28.36-.6.5-.92h-4.01c-.14-.27-.27-.6-.36-.91h4.68a9.25 9.25 0 0 0 .27-4.59H170c.04-.32.13-.6.22-.91h4.68a5.52 5.52 0 0 0-.36-.92h-3.96c.14-.32.32-.6.5-.92h3.01c-.18-.32-.4-.64-.67-.91h-1.67c.27-.32.54-.6.86-.88a8.21 8.21 0 0 0-5.72-2.24h-.04"/><path fill="#fff" d="m169.95 24.2.14-.78c-.05 0-.14.05-.23.05-.31 0-.36-.19-.31-.28l.27-1.6h.5l.13-.87H170l.09-.55h-.9s-.54 3.02-.54 3.39c0 .55.31.78.72.78.27 0 .5-.1.58-.14Zm.32-1.47c0 1.29.85 1.6 1.57 1.6.68 0 .95-.13.95-.13l.18-.87s-.5.23-.95.23c-.99 0-.8-.73-.8-.73h1.84s.13-.6.13-.83c0-.6-.31-1.33-1.3-1.33-.95-.1-1.62.92-1.62 2.06Zm1.57-1.33c.5 0 .4.6.4.65h-.98c0-.05.09-.65.58-.65Zm5.71 2.8.18-1s-.44.22-.76.22c-.63 0-.9-.5-.9-1.05 0-1.1.54-1.7 1.17-1.7.45 0 .8.28.8.28l.14-.97s-.54-.23-1.03-.23c-1.03 0-2.07.92-2.07 2.66 0 1.15.54 1.93 1.62 1.93.36 0 .85-.14.85-.14Zm-12.54-3.62c-.63 0-1.08.18-1.08.18l-.14.78s.4-.18 1-.18c.3 0 .58.04.58.32 0 .18-.05.23-.05.23h-.4c-.77 0-1.62.32-1.62 1.37 0 .83.54 1.01.85 1.01.63 0 .9-.41.95-.41l-.05.37h.81l.36-2.52c0-1.1-.9-1.15-1.21-1.15Zm.18 2.06c0 .14-.1.87-.63.87-.27 0-.36-.23-.36-.36 0-.23.13-.55.8-.55a.7.7 0 0 0 .19.04Zm1.88 1.65c.23 0 1.35.05 1.35-1.19 0-1.15-1.07-.92-1.07-1.37 0-.23.17-.33.49-.33.13 0 .63.05.63.05l.13-.82s-.31-.1-.85-.1c-.68 0-1.35.28-1.35 1.2 0 1.05 1.12.96 1.12 1.37 0 .28-.31.32-.53.32-.41 0-.81-.14-.81-.14l-.14.83c.05.09.27.18 1.03.18Zm17.95-4.44-.18 1.23s-.36-.45-.85-.45c-.81 0-1.53 1-1.53 2.2 0 .73.36 1.5 1.12 1.5.54 0 .86-.36.86-.36l-.05.32h.9l.68-4.4-.95-.04Zm-.4 2.43c0 .5-.23 1.14-.72 1.14-.32 0-.5-.27-.5-.73 0-.74.32-1.2.72-1.2.32 0 .5.24.5.79Zm-24.52 1.97.54-3.3.1 3.3h.62l1.17-3.3-.5 3.3h.95l.72-4.4h-1.48l-.9 2.7-.05-2.7h-1.3l-.72 4.4h.85Zm13.95 0c.27-1.52.31-2.75.94-2.52.1-.6.23-.83.32-1.06h-.18c-.4 0-.72.55-.72.55l.09-.5h-.86l-.58 3.57h.99v-.04Zm5.57-3.67c-.63 0-1.08.18-1.08.18l-.13.78s.4-.18.99-.18c.31 0 .58.04.58.32 0 .18-.04.23-.04.23h-.4c-.77 0-1.63.32-1.63 1.37 0 .83.54 1.01.86 1.01.63 0 .9-.41.94-.41l-.04.37h.8l.37-2.52c.04-1.1-.9-1.15-1.22-1.15Zm.23 2.06c0 .14-.1.87-.63.87-.27 0-.36-.23-.36-.36 0-.23.13-.55.8-.55.14.04.14.04.19.04Zm1.75 1.6c.27-1.5.32-2.74.95-2.51.09-.6.22-.83.31-1.06h-.18c-.4 0-.72.55-.72.55l.1-.5h-.86l-.59 3.57h1v-.04Z"/><path fill="#DCE5E5" d="M168.56 23.56c0 .55.31.78.72.78.31 0 .58-.1.67-.14l.14-.78c-.05 0-.14.05-.23.05-.31 0-.36-.19-.31-.28l.27-1.6h.5l.13-.87H170l.09-.55m.63 2.56c0 1.29.4 1.6 1.12 1.6.68 0 .95-.13.95-.13l.18-.87s-.5.23-.95.23c-.99 0-.8-.73-.8-.73h1.84s.13-.6.13-.83c0-.6-.31-1.33-1.3-1.33-.95-.1-1.17.92-1.17 2.06Zm1.12-1.33c.5 0 .59.6.59.65h-1.17c0-.05.09-.65.58-.65Zm5.71 2.8.18-1s-.44.22-.76.22c-.63 0-.9-.5-.9-1.05 0-1.1.54-1.7 1.17-1.7.45 0 .8.28.8.28l.14-.97s-.54-.23-1.03-.23c-1.03 0-1.62.92-1.62 2.66 0 1.15.09 1.93 1.17 1.93.36 0 .85-.14.85-.14Zm-13.76-2.61s.4-.19 1-.19c.3 0 .58.05.58.33 0 .18-.05.22-.05.22h-.4c-.77 0-1.62.33-1.62 1.38 0 .82.54 1 .85 1 .63 0 .9-.4.95-.4l-.05.36h.81l.36-2.52c0-1.05-.9-1.1-1.26-1.1m.67 1.97c0 .14-.53.87-1.07.87-.27 0-.36-.23-.36-.36 0-.23.13-.55.8-.55.14.04.63.04.63.04Zm.46 1.56s.26.1 1.03.1c.22 0 1.35.04 1.35-1.2 0-1.15-1.08-.92-1.08-1.37 0-.23.18-.33.5-.33.13 0 .62.05.62.05l.14-.82s-.32-.1-.86-.1c-.67 0-.9.28-.9 1.2 0 1.05.68.96.68 1.37 0 .28-.31.32-.54.32m17.81-2.34s-.36-.45-.85-.45c-.81 0-1.08 1-1.08 2.2 0 .73-.1 1.5.67 1.5.54 0 .86-.36.86-.36l-.05.32h.9l.68-4.4m-1.17 2.39c0 .5-.4 1.14-.9 1.14-.32 0-.5-.27-.5-.73 0-.74.32-1.2.72-1.2.32 0 .68.24.68.79Zm-24.7 1.97.54-3.3.1 3.3h.62l1.17-3.3-.5 3.3h.95l.72-4.4h-1.12l-1.26 2.7-.05-2.7h-.5l-1.52 4.4h.85Zm13 0h.95c.27-1.52.31-2.75.94-2.52.1-.6.23-.83.32-1.06h-.18c-.4 0-.72.55-.72.55l.09-.5m3.9.87s.41-.19 1-.19c.31 0 .58.05.58.33 0 .18-.04.22-.04.22h-.4c-.77 0-1.63.33-1.63 1.38 0 .82.54 1 .86 1 .63 0 .9-.4.94-.4l-.04.36h.8l.37-2.52c0-1.05-.9-1.1-1.26-1.1m.67 1.97c0 .14-.54.87-1.08.87-.27 0-.36-.23-.36-.36 0-.23.14-.55.81-.55.18.04.63.04.63.04Zm.4 1.6h.95c.27-1.5.32-2.74.95-2.51.09-.6.22-.83.31-1.06h-.18c-.4 0-.72.55-.72.55l.1-.5"/><mask id="b" width="22" height="22" x="1" y="46" maskUnits="userSpaceOnUse" style="mask-type:luminance"><path fill="#fff" d="M22.56 46.24h-21v21.51h21V46.24Z"/></mask><g mask="url(#b)"><path fill="#F7931A" d="M22.24 59.6a10.48 10.48 0 0 1-12.72 7.83 10.77 10.77 0 0 1-7.64-13.04c1.4-5.76 7.1-9.27 12.72-7.83a10.77 10.77 0 0 1 7.64 13.04Z"/><path fill="#fff" d="M16.69 55.46c.2-1.43-.85-2.2-2.3-2.71l.46-1.94-1.15-.3-.46 1.9c-.3-.09-.61-.16-.92-.23l.46-1.9-1.15-.3-.47 1.94-.74-.17v-.01l-1.59-.4-.3 1.25s.85.2.83.22c.47.12.56.43.54.68l-.54 2.21.12.04-.12-.03-.75 3.1c-.06.14-.2.36-.53.28l-.84-.22-.57 1.35 1.5.39.82.21-.47 1.96 1.15.3.47-1.94.92.24-.47 1.93 1.15.3.47-1.96c1.97.38 3.45.23 4.07-1.6.5-1.46-.03-2.3-1.06-2.86.75-.17 1.32-.68 1.47-1.73Zm-2.63 3.78c-.36 1.47-2.77.68-3.55.48l.63-2.6c.79.2 3.29.6 2.92 2.12Zm.35-3.8c-.32 1.33-2.33.66-2.98.49l.58-2.36c.65.17 2.74.48 2.4 1.87Z"/></g><g clip-path="url(#c)"><path fill="#fff" d="M30 48.26h2.2l1.77 6.53 1.7-6.22h1.8l1.73 6.22 1.73-6.53h2.2l-2.85 9.38h-2l-1.74-6.34-1.7 6.34h-1.99L30 48.26Z"/><path fill="#fff" d="M44.18 53.7c.1 1.5 1.48 2.33 2.8 2.32a2.5 2.5 0 0 0 2.32-1.27h2.38a5.33 5.33 0 0 1-1.95 2.36c-.81.55-1.76.82-2.77.82a5 5 0 0 1-5.1-4.95c0-2.67 2.15-5 5.07-5a4.97 4.97 0 0 1 5.03 5.72h-7.78Zm5.51-1.71c-.09-.9-1.06-2.14-2.75-2.12-1.7 0-2.63 1.2-2.72 2.12h5.47Z"/><path fill="#fff" d="M51.63 45h2.3v4.42a4.24 4.24 0 0 1 3.22-1.45 4.74 4.74 0 0 1 4.82 4.94 4.78 4.78 0 0 1-4.92 5.02c-1.52 0-2.7-.72-3.2-1.64v1.35h-2.22V45Zm8.04 7.93a2.86 2.86 0 0 0-2.9-2.87 2.84 2.84 0 0 0-2.93 2.88 2.8 2.8 0 0 0 2.87 2.9 2.87 2.87 0 0 0 2.96-2.9v-.01Z"/><path fill="#FFA817" d="M32.85 57.46H35v1.37a4.07 4.07 0 0 1 3.41-1.66c3.38 0 4.8 2.78 4.8 5.06 0 2.66-1.95 4.9-4.78 4.9-1.88 0-2.9-.94-3.29-1.54v4.53h-2.3V57.46Zm8.07 4.68c0-1.35-1-2.89-2.95-2.89a2.9 2.9 0 0 0-2.1.86 2.92 2.92 0 0 0 .02 4.1 3 3 0 0 0 2.1.83 2.86 2.86 0 0 0 2.93-2.88v-.02Z"/><path fill="#FFA817" d="M53.19 66.84h-2.3v-1.35c-.62 1.1-1.9 1.64-3.26 1.64-3.1 0-4.91-2.34-4.91-4.99 0-2.96 2.2-4.97 4.9-4.97 1.77 0 2.84.9 3.26 1.66v-1.37h2.3v9.38Zm-8.17-4.65c0 1.16.86 2.85 2.94 2.85 1.28 0 2.13-.65 2.57-1.5a2.85 2.85 0 0 0 .1-2.63 2.84 2.84 0 0 0-2.69-1.66 2.86 2.86 0 0 0-2.92 2.92v.02Z"/><path fill="#FFA817" d="m55.98 66.48-3.64-9.02h2.47l2.35 6.23 2.33-6.23h2.46l-5.09 12.66H54.4l1.58-3.64Z"/><path fill="#FF0005" d="M69.44 51.55a.3.3 0 0 0-.4 0l-5.94 5.77-.2.2v6.9c0 .16.12.28.28.28h6.84a.8.8 0 0 0 .48-.2l5.94-5.76a.27.27 0 0 0 0-.4l-7-6.8Z"/><path fill="#fff" d="M63.85 58.02h.57v.53c.23-.37.63-.62 1.2-.62 1.07 0 1.57.87 1.57 1.62 0 .86-.64 1.59-1.57 1.59-.65 0-1.04-.35-1.17-.6v1.61h-.6v-4.13Zm2.74 1.5c0-.49-.36-1.05-1.1-1.05-.3 0-.57.12-.77.31-.19.19-.3.46-.3.76s.11.56.3.75c.2.19.48.3.78.3.63 0 1.09-.47 1.09-1.06ZM67.37 56.92h.6v4.13h-.6v-4.13ZM71.2 61.05h-.57v-.47c-.15.31-.5.56-1.06.56-1 0-1.26-.72-1.26-1.35v-1.77h.6v1.64c0 .55.21.94.83.94.58 0 .85-.37.85-.89v-1.7h.6v3.04ZM72.92 58.8c0-.23-.15-.4-.45-.4-.3 0-.46.2-.45.4.01.23.23.34.57.43.47.13 1 .26 1.01.92.02.59-.49.99-1.11.99-.5 0-1.1-.28-1.14-.97h.6c.02.37.32.5.55.5.28 0 .5-.2.5-.46 0-.3-.23-.4-.8-.58-.43-.13-.77-.33-.78-.78 0-.58.48-.92 1.05-.92.43 0 1 .2 1.04.88h-.59Z"/></g><g clip-path="url(#d)"><mask id="e" width="26" height="25" x="81" y="45" maskUnits="userSpaceOnUse" style="mask-type:luminance"><path fill="#fff" d="M107 45H82v25h25V45Z"/></mask><g mask="url(#e)"><path fill="#FDB913" d="M84.44 45.43h20.12a2.01 2.01 0 0 1 2.01 2v20.13a2.01 2.01 0 0 1-2 2.01H84.43a2.01 2.01 0 0 1-2.01-2V47.43a2.01 2.01 0 0 1 2-2.01Z"/><path fill="#fff" d="M104.56 45.43a2.01 2.01 0 0 1 2.01 2v20.13a2.01 2.01 0 0 1-2 2.01H84.43a2.01 2.01 0 0 1-2.01-2V47.43a2.01 2.01 0 0 1 2-2.01h20.13Zm0-.43H84.44A2.44 2.44 0 0 0 82 47.44v20.12A2.44 2.44 0 0 0 84.44 70h20.12a2.44 2.44 0 0 0 2.44-2.44V47.44a2.44 2.44 0 0 0-2.44-2.44Z"/><path fill="#231F20" d="M95.9 57.76v-4.32l1.14-.27v.57s.29-.75.97-.92c.1-.03.2-.04.31-.02v1.1c-.2 0-.4.04-.6.12-.4.17-.62.53-.62 1.08v2.38l-1.2.28ZM89.96 59.17s-.18-.28-.18-1.25v-2.15l-.58.13v-.88l.58-.14v-.97l1.2-.28v.97l.85-.2v.88l-.85.2v2.2c0 1 .26 1.18.26 1.18l-1.28.3ZM91.95 56.6c0-.77.11-1.33.35-1.77a2 2 0 0 1 1.4-1c1.32-.29 1.8.49 1.77 1.53v.56l-2.32.54v.04c0 .73.15 1.08.62.98.4-.08.5-.33.54-.64v-.18l1.1-.26v.19c-.02.41-.14 1.44-1.65 1.8-1.43.34-1.8-.54-1.8-1.8Zm1.8-1.96c-.38.1-.59.47-.6 1.1l1.17-.28v-.2c0-.46-.14-.71-.57-.62ZM102.38 54.07c-.04-1.32.3-2.37 1.77-2.7.93-.21 1.29.03 1.47.27.17.22.24.53.24.95v.08l-1.15.27v-.16c0-.5-.14-.7-.5-.6-.44.1-.61.52-.61 1.34v.38c0 .84.11 1.22.61 1.11.44-.09.5-.47.5-.8v-.22l1.15-.27v.17c0 1.1-.57 1.79-1.65 2.04-1.5.35-1.78-.51-1.83-1.86ZM98.4 55.91c0-1 .6-1.32 1.48-1.68.8-.33.81-.5.81-.78 0-.24-.1-.45-.5-.35a.6.6 0 0 0-.48.57v.22l-1.12.26c0-.22.02-.44.08-.65.18-.6.7-1 1.62-1.22 1.18-.27 1.58.25 1.58 1.06v1.91c0 .93.17 1.07.17 1.07l-1.1.25-.14-.39s-.24.6-1.07.8c-.86.2-1.32-.33-1.32-1.07Zm2.29-1.37c-.19.13-.38.25-.59.34-.36.18-.52.4-.52.74 0 .3.18.48.5.4.36-.09.6-.42.6-.88v-.6ZM83.69 62.2a.7.7 0 0 1-.59-1.07l.01-.01h.01l1.64-.4v1.25h-.03a56.14 56.14 0 0 1-1.04.23ZM83.69 63.78a.7.7 0 0 1-.59-1.07h.01l.01-.01 1.64-.39v1.24l-.03.01a47.57 47.57 0 0 1-1.04.22ZM83.69 65.37a.7.7 0 0 1-.59-1.07l.01-.01 1.65-.39v1.24h-.03a63.35 63.35 0 0 1-1.04.23ZM83.5 60.68v-6.94l1.26-.3v6.94l-1.27.3ZM86.64 60.09a.78.78 0 0 0-1.56 0v6.48a2.11 2.11 0 0 0 2.11 2.11h2.21V62.96a1.02 1.02 0 0 0-.45-.85l-1.97-1.34v3.04a.17.17 0 0 1-.33 0v-3.72ZM87.7 55.25a1.7 1.7 0 0 0-1.13.87v-.49l-1.14.27v3.12a1.16 1.16 0 0 1 1.2.2v-2c0-.48.24-.87.58-.94.26-.06.48.03.48.49v2.93l1.2-.28v-3.1c0-.75-.3-1.28-1.2-1.07ZM105.12 50.81a.74.74 0 1 1 0-1.48.74.74 0 0 1 0 1.48Zm0-1.39a.65.65 0 1 0 0 1.3.65.65 0 0 0 0-1.3Z"/><path fill="#231F20" d="M104.85 49.63h.32a.2.2 0 0 1 .22.14.2.2 0 0 1 .01.1c0 .11-.05.2-.15.22.09 0 .14.06.14.18v.19l.02.04c0 .02.02.03.03.04h-.16a.14.14 0 0 1-.03-.09v-.17c0-.1-.04-.14-.14-.14H105v.4h-.15v-.91Zm.26.4a.13.13 0 0 0 .14-.09v-.05c0-.1-.04-.15-.13-.15h-.13v.3h.12Z"/></g></g><g fill="#FF6400" clip-path="url(#f)"><path d="M135.94 61.2h-3.86c-.35 0-.42.08-.28.38.36.81.97 1.34 1.85 1.55.86.2 1.66.1 2.39-.43.1-.08.22-.1.35-.07l2.61.73.63.19c.17.05.2.14.1.3a6.45 6.45 0 0 1-1.48 1.67 6.46 6.46 0 0 1-5.28 1.15 6.3 6.3 0 0 1-4.56-3.42 7.97 7.97 0 0 1-.5-5.5c.26-1 .75-1.9 1.45-2.67.8-.9 1.77-1.54 2.94-1.89a6.97 6.97 0 0 1 5.31.7 5.58 5.58 0 0 1 2.27 2.78c.42 1.06.58 2.17.57 3.3 0 .29-.05.56-.12.82-.1.32-.24.42-.58.42h-3.8Zm-1.9-3.2h2c.14 0 .33 0 .23-.23-.12-.3-.28-.58-.54-.79a2.6 2.6 0 0 0-1.8-.52c-.93.03-1.58.47-2.02 1.26-.11.21-.07.28.18.28h1.94ZM125.89 54.86v5.78c0 1.4-.45 2.64-1.3 3.74a6.13 6.13 0 0 1-9.2.68 6.2 6.2 0 0 1-1.89-4.25c0-.22.1-.31.31-.31h4.36c.22 0 .34.1.39.32.13.67.72.98 1.25.92a1.18 1.18 0 0 0 1.04-1.2V48.69c0-.5 0-.5.51-.5h4.12c.4 0 .41.01.41.4v6.28ZM150.63 59.97c.04-1.7.46-3.19 1.45-4.48 1-1.28 2.3-2.1 3.92-2.4a7.11 7.11 0 0 1 3.97.31c.96.38 1.78.97 2.48 1.74a6.6 6.6 0 0 1 1.56 3.02c.2.93.25 1.88.1 2.83a6.6 6.6 0 0 1-3.35 4.96c-1.44.82-3 1.05-4.64.74a6.5 6.5 0 0 1-5.1-4.5 8.85 8.85 0 0 1-.39-2.22Zm7.1 3.15c.76-.04 1.62-.5 2.1-1.52.5-1.09.5-2.2.08-3.31-.2-.55-.58-1-1.09-1.28-1.39-.78-3.26-.37-3.93 1.35-.39 1-.37 2.03.01 3.03.4 1.07 1.36 1.72 2.83 1.73ZM165.83 59.86V53.8c0-.5.03-.52.51-.52h2.92c.42 0 .46.03.49.44 0 .16.07.19.2.1.56-.41 1.2-.65 1.88-.77 1.88-.31 3.78.22 4.88 1.96.59.93.87 1.93.87 3.01v8.03c0 .38-.04.42-.43.42h-3.06c-.4 0-.46-.07-.47-.47v-7.42c0-.49-.12-.93-.39-1.32-.41-.59-1.06-.67-1.7-.6-.97.12-1.46.66-1.64 1.62-.07.4-.1.8-.1 1.2v6.5c0 .47-.03.49-.49.49h-3c-.4 0-.47-.06-.47-.46v-6.15ZM142.9 59.93V57.4c0-.43 0-.43-.42-.43h-.71c-.24 0-.36-.1-.35-.34v-3c0-.26.12-.37.38-.36h.77c.25.02.34-.07.34-.32v-2.87c0-.44.01-.45.45-.45h3.03c.4 0 .47.06.47.43 0 .99 0 1.98-.03 2.96 0 .23.11.25.28.26h1.78c.38 0 .44.05.44.42v2.84c0 .37-.06.42-.44.42h-1.8c-.2 0-.26.07-.26.28.02 1.5.01 3 .02 4.49v.37c.06.64.13.76.9.83.41.04.82-.08 1.22-.16.29-.06.36-.03.36.25v2.87c0 .16-.06.26-.21.33-.77.32-1.56.43-2.38.36a4.5 4.5 0 0 1-1.94-.53 3.52 3.52 0 0 1-1.73-2.3c-.27-1.11-.13-2.24-.16-3.36v-.46Z"/></g><g clip-path="url(#g)"><path fill="#F69220" d="m8.3 93.74-5.74-9.89a1.37 1.37 0 0 0-1.88-.5 1.38 1.38 0 0 0-.5 1.9l5.75 9.88a1.37 1.37 0 1 0 2.38-1.4Z"/><path fill="#606060" d="M21.58 90.44c-.02-.7-.24-1.41-.64-2.13a5.03 5.03 0 0 0-5-2.83c.33-.64.5-1.35.57-2.07.1-1.05-.25-1.98-.89-3.08a4.54 4.54 0 0 0-1.5-1.63 4.5 4.5 0 0 0-1.95-.67 6.3 6.3 0 0 0-2.2.17c-.24.06-.5.14-.76.23l-.32.1c-.45.17-1.66.84-2.06 1.08l-1.95 1.22-.04.03a1.54 1.54 0 0 0 .76 2.87c.25 0 .51-.07.75-.2l.04-.02 3.22-1.85a2.44 2.44 0 0 1 1.87-.25 2.56 2.56 0 0 1 1.5 1.2 2.85 2.85 0 0 1 .35 1.91 2.02 2.02 0 0 1-1 1.47l-1.94 1.17-.83.48-.54.3a1.46 1.46 0 0 0 .73 2.73c.25 0 .5-.06.73-.2l1.07-.62 2.76-1.51c.28-.16.58-.25.88-.27.3-.02.6.03.9.13a2.77 2.77 0 0 1 1.47 1.27 2.56 2.56 0 0 1-.14 2.76c-.2.26-.45.47-.75.65L11.9 95.6l-.24.13-.86.5-1.67.9a1.52 1.52 0 0 0 .72 2.86c.24 0 .49-.06.72-.18l4.12-2.23 3.3-1.82a8.63 8.63 0 0 0 1.94-1.49c.54-.56.96-1.17 1.25-1.82.29-.65.42-1.32.4-2.03ZM67.9 87.91a2.33 2.33 0 0 0 1.26-2.08c0-1.73-1.15-2.84-3.12-2.84h-2.86c-.29 0-.65 0-.93.28-.27.27-.27.64-.27.93v7.69c0 .29 0 .65.27.92.28.28.64.28.93.28h3.03c1.8 0 3.1-1.02 3.1-2.9 0-1.36-.79-2-1.4-2.28Zm-3.95-3.16h1.93c.84 0 1.3.47 1.3 1.16 0 .7-.46 1.17-1.3 1.17h-1.92v-2.33Zm2.06 6.58h-2.06v-2.48h2.06c.9 0 1.32.55 1.32 1.23 0 .68-.43 1.25-1.32 1.25ZM73.78 85.62c-1.91 0-3.2 1.36-3.2 3.78 0 2.98 1.66 3.78 3.4 3.78.81 0 1.5-.17 2-.51.43-.29.73-.6.73-.95 0-.43-.4-.78-.74-.78-.22 0-.4.07-.69.28-.36.27-.81.4-1.27.4-1.07 0-1.63-.69-1.63-1.65h3.54c.28 0 .58 0 .81-.23.22-.22.25-.54.25-.82-.07-1.87-1.22-3.3-3.2-3.3Zm-1.4 3.09c.01-.32.05-.53.17-.8.19-.44.61-.76 1.23-.76.61 0 1.03.32 1.23.76.12.27.15.48.17.8h-2.8ZM81.17 87.33c.35 0 .48-.02.63-.1.22-.11.34-.33.34-.6 0-.28-.12-.5-.34-.62-.15-.08-.28-.1-.63-.1h-.55v-.98c0-.45-.02-.63-.12-.83-.13-.26-.42-.44-.8-.44-.37 0-.66.17-.8.44-.1.2-.11.38-.11.83v.98h-.19c-.34 0-.47.03-.62.1-.22.12-.34.34-.34.61 0 .28.12.5.34.61.15.08.28.1.62.1h.19v3.65c0 1.08.6 2.11 2.12 2.11h.1c.36 0 .6-.04.76-.12.22-.12.37-.34.37-.66 0-.33-.15-.55-.37-.66-.16-.08-.32-.1-.55-.12-.47-.03-.6-.3-.6-.65v-3.55h.55ZM86.12 87.33c.35 0 .47-.02.62-.1.22-.11.34-.33.34-.6 0-.28-.12-.5-.34-.62-.15-.08-.27-.1-.62-.1h-.55v-.98c0-.45-.02-.63-.12-.83-.14-.26-.43-.44-.8-.44-.38 0-.66.17-.8.44-.1.2-.12.38-.12.83v.98h-.18c-.35 0-.48.03-.63.1-.21.12-.33.34-.33.61 0 .28.12.5.33.61.15.08.28.1.63.1h.18v3.65c0 1.08.6 2.11 2.13 2.11h.1c.35 0 .59-.04.75-.12.22-.12.37-.34.37-.66 0-.33-.14-.55-.37-.66-.15-.08-.32-.1-.55-.12-.47-.03-.6-.3-.6-.65v-3.55h.56ZM91.08 85.62c-1.9 0-3.2 1.36-3.2 3.78 0 2.98 1.66 3.78 3.4 3.78.82 0 1.5-.17 2.01-.51.42-.29.72-.6.72-.95 0-.43-.39-.78-.74-.78-.22 0-.4.07-.69.28-.36.27-.8.4-1.27.4-1.06 0-1.62-.69-1.62-1.65h3.54c.27 0 .57 0 .8-.23.22-.22.26-.54.25-.82-.06-1.87-1.21-3.3-3.2-3.3Zm-1.4 3.09c.02-.32.05-.53.17-.8.2-.44.62-.76 1.23-.76s1.04.32 1.24.76c.12.27.14.48.16.8h-2.8ZM100.53 85.96c-.33-.22-.7-.34-1.27-.34-.73 0-1.4.37-1.75.8a.86.86 0 0 0-.28-.56.82.82 0 0 0-.58-.22c-.35 0-.66.17-.8.43-.1.21-.13.35-.13.83v4.99c0 .44.02.62.12.82.14.27.42.44.8.44.37 0 .66-.17.8-.44.1-.2.12-.38.12-.82v-3.25c0-.94.6-1.36 1.22-1.36.25 0 .48.07.7.19.25.12.44.19.63.19.22 0 .45-.1.61-.26.17-.16.28-.4.28-.67 0-.32-.2-.59-.47-.77Z"/><path fill="#F69220" d="M36.84 82.86c-.26 0-.45.05-.63.17-.25.16-.43.47-.52.64l-2.43 4.64-2.43-4.64a1.77 1.77 0 0 0-.52-.64 1.03 1.03 0 0 0-.63-.17c-.28 0-.52.1-.71.29-.26.26-.32.58-.32 1v7.6c0 .45.01.63.14.9.17.31.52.5.92.5s.75-.19.92-.5c.13-.27.14-.45.14-.9v-4.21l1.48 2.92c.24.47.48.74 1.01.74.54 0 .78-.27 1.01-.74l1.48-2.92v4.21c0 .45.01.63.14.9.17.31.52.5.92.5s.75-.19.92-.5c.13-.27.14-.45.14-.9v-7.6c0-.42-.05-.74-.31-1a.97.97 0 0 0-.72-.3ZM44.84 85.55c-.4 0-.72.17-.87.48-.1.21-.12.4-.12.85v3.24c0 1.15-.88 1.24-1.15 1.24-.26 0-1.12-.09-1.12-1.24v-3.24c0-.44-.02-.64-.13-.85-.15-.3-.47-.48-.86-.48-.4 0-.72.17-.87.48-.1.21-.12.4-.12.85v3.5c0 .95.22 1.6.76 2.13.44.44 1.05.67 1.78.67.68 0 1.34-.26 1.8-.7a.9.9 0 0 0 .25.44.9.9 0 0 0 .64.23c.37 0 .7-.18.85-.46.13-.24.15-.4.15-.86v-4.95c0-.44-.02-.64-.13-.86-.15-.3-.47-.48-.87-.48ZM50.46 87.34c.3 0 .52.08.83.3.27.2.45.27.68.27.23 0 .47-.1.62-.26.19-.2.28-.42.28-.66 0-.52-.5-.89-.93-1.1a2.72 2.72 0 0 0-1.47-.37c-.62 0-1.51.13-2.24.78-.73.65-1.1 1.68-1.1 3.04 0 1.37.36 2.4 1.1 3.06a3.3 3.3 0 0 0 2.23.78c.57 0 1.02-.1 1.48-.36.63-.34.93-.7.93-1.11a.9.9 0 0 0-.28-.65.9.9 0 0 0-.62-.27c-.25 0-.44.1-.68.28-.29.21-.51.3-.83.3-.4 0-.72-.15-.97-.46-.27-.33-.39-.82-.39-1.57 0-.74.12-1.21.39-1.55.24-.3.57-.45.97-.45ZM59.47 86.19a2.44 2.44 0 0 0-1.78-.67c-.69 0-1.22.2-1.7.65V84.2c0-.44-.02-.63-.13-.85-.15-.3-.48-.48-.87-.48s-.71.18-.86.48c-.1.21-.13.41-.13.85v7.63c0 .44.02.64.13.86.15.3.47.48.86.48.4 0 .72-.18.87-.48.1-.22.12-.42.12-.86v-3.24c0-1.15.88-1.24 1.15-1.24.26 0 1.12.09 1.12 1.24v3.24c0 .44.02.64.13.86.15.3.47.48.86.48.4 0 .72-.18.87-.48.1-.22.12-.42.12-.86v-3.49c0-.96-.23-1.6-.76-2.14Z"/></g><g clip-path="url(#h)"><path fill="#fff" d="m115.4 77.32-4.7 16.57h2.79l1.33-4.88h3.82l1.4 4.88h2.83l-4.75-16.57h-2.72Zm2.55 9.05h-2.43l.98-3.7c.06-.27.12-.48.17-.76.06.28.12.49.23.77l1.05 3.69Zm9.55 0c-1.27-.63-1.39-.91-1.39-1.33 0-.55.4-.9.99-.9.58 0 1.1.2 1.62.56l.52.41.7-2.64-.3-.28a3.75 3.75 0 0 0-2.54-.77c-2.14 0-3.65 1.6-3.65 3.83 0 2.02 1.5 3.14 2.78 3.7 1.27.55 1.39.97 1.39 1.45 0 .91-.81 1.05-1.28 1.05a4.04 4.04 0 0 1-1.97-.7l-.52-.35-.69 2.72.35.2c.86.57 1.85.91 2.83.84 2.32 0 3.94-1.6 3.94-3.96-.06-2.3-1.62-3.28-2.78-3.83Zm6.9-7.52-2.67.97v1.88h-1.39v2.72h1.45v5.43a5.99 5.99 0 0 0 .75 3.34c.58.7 1.33 1.11 2.14 1.04.58 0 1.1-.07 1.63-.28l.34-.13-.11-2.72-.58.2c-.3.08-.52.15-.81.15-.3 0-.76 0-.76-1.53v-5.5h2.38V81.7h-2.38v-2.85Zm8.8 2.71-.47-.07c-.17 0-.29-.07-.46-.07-.81 0-1.62.42-2.2 1.12v-.9h-2.5v.69c.07.9.07 2.02.07 3.41v8.21h2.66v-6.47c0-.28 0-.56.06-.84.17-1.25.87-2.08 1.74-2.08h.46l.58.14.06-3.14Zm4.86-.14c-2.95 0-5.04 2.65-5.04 6.48 0 3.69 2.03 6.26 4.92 6.26 2.44 0 5.1-2.01 5.1-6.47-.06-3.7-2.08-6.27-4.98-6.27Zm2.2 6.34c0 2.16-.98 3.69-2.26 3.69-1.27 0-2.25-1.53-2.25-3.62 0-1.4.51-3.7 2.31-3.7 1.74 0 2.2 2.38 2.2 3.63Zm11.47-9.12c-.87-.98-2.2-1.46-3.94-1.46-1.1 0-2.2.06-3.24.27l-.4.14v16.3h2.66v-6.06c.28 0 .57.07.8.07a5.34 5.34 0 0 0 4.3-1.88 6.22 6.22 0 0 0 1.15-3.7c0-1.38-.46-2.7-1.33-3.68Zm-1.33 3.76c0 2.3-1.68 2.64-2.73 2.64-.29 0-.57 0-.86-.07v-4.94c.34-.07.69-.07 1.04-.07 1.16.07 2.55.49 2.55 2.44Zm10.77 8.28v-4.1c0-3.28-1.45-5.09-4-5.09-1.16 0-2.32.35-3.3 1.05l-.35.28.7 2.57.58-.49a3.1 3.1 0 0 1 2.14-.7c.4-.06.87.15 1.22.5.23.27.34.7.4 1.1-2.09.08-3.59.7-4.52 1.82a4.57 4.57 0 0 0-.98 2.92c0 2.1 1.39 3.76 3.07 3.76h.23c.87 0 1.8-.35 2.49-.97l.06.7h2.55l-.06-.7c-.16-.87-.24-1.76-.23-2.65Zm-4.46.84c-.52.07-.99-.42-1.05-1.05v-.27c0-.42.12-.77.35-1.05.3-.35.99-.76 2.55-.83v1.32c0 .14 0 .28-.06.49-.29.83-.98 1.39-1.8 1.39Zm11.81-9.82-1.91 6.9c-.07.17-.11.36-.12.55-.05-.14-.11-.35-.17-.49l-2.08-6.89h-2.9l3.65 11c.06.07.06.14.06.28 0 .07-.06.14-.06.21a5.4 5.4 0 0 1-1.28 2.02c-.4.42-.8.7-1.27.83l-.46.21.7 2.72.45-.07a4.9 4.9 0 0 0 2.32-1.4c1.28-1.39 2.14-3.55 3.3-7.17l2.6-8.77-2.83.07Z"/><path fill="red" d="M120.5 81.91c1.73-2.09 4.63-3.34 7.81-3.34 1.22 0 2.44.2 3.6.56h.11l2.03-.77-.93-.42a15.7 15.7 0 0 0-5.85-1.18 13 13 0 0 0-7.82 2.44l-.23.13.87 3 .4-.42Z"/></g><defs><clipPath id="c"><path fill="#fff" d="M30 45h47v28H30z"/></clipPath><clipPath id="d"><path fill="#fff" d="M82 45h25v25H82z"/></clipPath><clipPath id="f"><path fill="#fff" d="M112 45h67v25h-67z"/></clipPath><clipPath id="g"><path fill="#fff" d="M0 78h101v22H0z"/></clipPath><clipPath id="h"><path fill="#fff" d="M106 78h80v22h-80z"/></clipPath></defs></svg>