<svg width="192" height="110" viewBox="0 0 192 110" fill="none" xmlns="http://www.w3.org/2000/svg">
<path d="M54.6209 16.314C53.9208 15.6067 52.8612 15.25 51.4723 15.25H47.8349L46.4827 26.0755H41.7176L42.0238 23.6194H44.8943L45.2344 20.8609L42.3656 20.867L42.6727 18.4218H45.6294L46.0228 15.2506H40.0184L38.7347 25.5193H36.5312L37.8237 15.2501H34.685L33.4012 25.5188H31.2547L32.5484 15.2501H29.4113L28.0574 26.0756H23.258L23.5614 23.6195H26.4434L26.7839 20.8766L23.9047 20.8724L24.2102 18.4224H27.2L27.5909 15.2498H8.88026L7.81529 23.8283L5.69444 15.2498H2.43797L0.685303 29.2498H3.79526L4.85611 20.4348L6.91415 29.2498H18.06L19.4151 18.421H21.1583L19.8031 29.2498H49.13L49.9803 22.4143L51.3557 29.2498H54.4673L53.042 23.6643L53.3681 23.5609C54.0863 23.3338 54.6465 22.8463 55.0365 22.1152C55.4262 21.3775 55.6247 20.4304 55.6247 19.2927C55.6247 17.9681 55.2962 16.9936 54.62 16.3132L54.6209 16.314ZM15.3536 26.0755H10.5931L10.9006 23.6194H13.8866L14.2251 20.853H11.2679L11.5527 18.4225H16.3063L15.3528 26.0755L15.3536 26.0755ZM52.0571 21.3599C51.7442 21.6825 51.2905 21.8395 50.6701 21.8395H50.0551L50.5269 18.0826H50.9793C51.4944 18.0826 51.8701 18.2043 52.1293 18.4527C52.3316 18.6474 52.5722 19.0328 52.5722 19.7614C52.5715 20.6427 52.2915 21.1163 52.0562 21.3598L52.0571 21.3599Z" fill="#83BA3B"/>
<path d="M91.7832 28.9704H95.4437V17.8498H91.7832V28.9704ZM89.7126 17.6898C86.3294 17.8098 84.6101 19.4499 84.6101 22.7101V28.9704H88.3076V23.8702C88.3076 21.9101 88.5479 21.07 90.6924 20.99V17.7298C90.4521 17.6898 90.1933 17.6698 89.9345 17.6698L89.7126 17.6898ZM62 18.6099C62 19.8899 62.5176 22.9101 67.2319 23.2701C67.6387 23.2901 68.6924 23.3701 68.6924 24.4502C68.6924 25.3302 67.8235 25.8703 66.363 25.8703C64.958 25.8303 63.5714 25.5302 62.2588 24.9902V28.5504C63.8487 28.9704 65.4941 29.1704 67.1395 29.1504C71.1697 29.1504 72.9815 26.6903 72.9815 24.2502C72.9815 21.49 70.9479 19.6899 67.5647 19.4499C67.1025 19.4099 66.0303 19.3499 66.0303 18.2899C66.0303 17.0298 67.5647 17.0298 68.1563 17.0298C69.1731 17.0298 70.4857 17.3498 71.4286 17.6698C71.4286 17.6698 71.9462 17.8698 72.4084 18.0698L72.4454 18.0898V14.6097L72.3899 14.5897C71.2807 14.1696 69.9866 13.7696 67.6017 13.7696C63.4605 13.7696 62 16.3698 62 18.6099ZM73.9059 14.5697V28.9704H77.6773V24.5102C78.7681 26.2903 79.3227 28.9704 79.3227 28.9704H83.8521C83.4084 26.9503 81.4487 23.2501 81.4487 23.2501C82.6134 21.63 83.5008 19.8099 84.1109 17.8498H79.7664C79.2672 19.2499 78.5647 20.57 77.6773 21.73V13.7696L73.9059 14.5697ZM96.9966 14.4697V28.9704H100.657V13.7696L96.9966 14.4697ZM102.339 14.4697V28.9704H106V13.7696L102.339 14.4697ZM93.6134 12.8696C92.6151 12.8696 91.8017 13.7496 91.8017 14.8297C91.8017 15.9097 92.6151 16.7898 93.6134 16.7898C94.6118 16.7898 95.4252 15.9097 95.4252 14.8297C95.4067 13.7496 94.6118 12.8696 93.6134 12.8696Z" fill="#872165"/>
<mask id="mask0_197_50" style="mask-type:luminance" maskUnits="userSpaceOnUse" x="62" y="12" width="44" height="18">
<path d="M91.7832 28.9704H95.4437V17.8498H91.7832V28.9704ZM89.7126 17.6898C86.3294 17.8098 84.6101 19.4499 84.6101 22.7101V28.9704H88.3076V23.8702C88.3076 21.9101 88.5479 21.07 90.6924 20.99V17.7298C90.4521 17.6898 90.1933 17.6698 89.9345 17.6698L89.7126 17.6898ZM62 18.6099C62 19.8899 62.5176 22.9101 67.2319 23.2701C67.6387 23.2901 68.6924 23.3701 68.6924 24.4502C68.6924 25.3302 67.8235 25.8703 66.363 25.8703C64.958 25.8303 63.5714 25.5302 62.2588 24.9902V28.5504C63.8487 28.9704 65.4941 29.1704 67.1395 29.1504C71.1697 29.1504 72.9815 26.6903 72.9815 24.2502C72.9815 21.49 70.9479 19.6899 67.5647 19.4499C67.1025 19.4099 66.0303 19.3499 66.0303 18.2899C66.0303 17.0298 67.5647 17.0298 68.1563 17.0298C69.1731 17.0298 70.4857 17.3498 71.4286 17.6698C71.4286 17.6698 71.9462 17.8698 72.4084 18.0698L72.4454 18.0898V14.6097L72.3899 14.5897C71.2807 14.1696 69.9866 13.7696 67.6017 13.7696C63.4605 13.7696 62 16.3698 62 18.6099ZM73.9059 14.5697V28.9704H77.6773V24.5102C78.7681 26.2903 79.3227 28.9704 79.3227 28.9704H83.8521C83.4084 26.9503 81.4487 23.2501 81.4487 23.2501C82.6134 21.63 83.5008 19.8099 84.1109 17.8498H79.7664C79.2672 19.2499 78.5647 20.57 77.6773 21.73V13.7696L73.9059 14.5697ZM96.9966 14.4697V28.9704H100.657V13.7696L96.9966 14.4697ZM102.339 14.4697V28.9704H106V13.7696L102.339 14.4697ZM93.6134 12.8696C92.6151 12.8696 91.8017 13.7496 91.8017 14.8297C91.8017 15.9097 92.6151 16.7898 93.6134 16.7898C94.6118 16.7898 95.4252 15.9097 95.4252 14.8297C95.4067 13.7496 94.6118 12.8696 93.6134 12.8696Z" fill="white"/>
</mask>
<g mask="url(#mask0_197_50)">
<path d="M106 12.8696H62V29.1304H106V12.8696Z" fill="#872165"/>
</g>
<path d="M138.329 13.1332C135.395 13.1332 132.761 14.6911 132.761 17.5499C132.761 20.8424 137.414 21.0672 137.414 22.7054C137.414 23.396 136.625 24.0224 135.301 24.0224C133.408 24.0224 131.988 23.1551 131.988 23.1551L131.389 26.0461C131.389 26.0461 133.014 26.7849 135.19 26.7849C138.408 26.7849 140.931 25.1627 140.931 22.2397C140.931 18.7706 136.263 18.5457 136.263 17.0199C136.263 16.4739 136.909 15.8796 138.234 15.8796C139.733 15.8796 140.963 16.506 140.963 16.506L141.562 13.7114C141.546 13.7114 140.206 13.1332 138.329 13.1332ZM111.453 13.342L111.374 13.7596C111.374 13.7596 112.604 13.9845 113.724 14.4502C115.159 14.9802 115.254 15.2854 115.506 16.233L118.14 26.56H121.673L127.083 13.342H123.566L120.08 22.336L118.661 14.7072C118.535 13.8399 117.872 13.342 117.052 13.342H111.453ZM128.503 13.342L125.743 26.56H129.102L131.846 13.342H128.503ZM147.209 13.342C146.404 13.342 145.978 13.7757 145.663 14.5466L140.742 26.56H144.259L144.937 24.5524H149.227L149.638 26.56H152.745L150.048 13.342H147.209ZM147.666 16.9236L148.707 21.8863H145.915L147.666 16.9236Z" fill="#1434CB"/>
<path d="M186.775 22.0001C186.775 26.7667 182.997 30.6626 178.274 30.6626C173.597 30.6626 169.773 26.7667 169.773 22.0001C169.773 17.2334 173.552 13.3376 178.229 13.3376C182.997 13.3376 186.775 17.2334 186.775 22.0001Z" fill="#FFB600"/>
<path d="M178.274 13.3376C182.952 13.3376 186.775 17.2334 186.775 22.0001C186.775 26.7667 182.997 30.6626 178.274 30.6626C173.597 30.6626 169.773 26.7667 169.773 22.0001" fill="#F7981D"/>
<path d="M178.274 13.3376C182.952 13.3376 186.775 17.2334 186.775 22.0001C186.775 26.7667 182.997 30.6626 178.274 30.6626" fill="#FF8500"/>
<path d="M166.85 13.3376C162.217 13.3834 158.439 17.2334 158.439 22.0001C158.439 26.7667 162.217 30.6626 166.94 30.6626C169.144 30.6626 171.123 29.7917 172.652 28.4167C172.967 28.1417 173.237 27.8209 173.507 27.5001H171.752C171.527 27.2251 171.303 26.9042 171.123 26.6292H174.136C174.316 26.3542 174.496 26.0334 174.631 25.7125H170.628C170.493 25.4375 170.358 25.1167 170.268 24.7959H174.946C175.216 23.9251 175.396 23.0084 175.396 22.0459C175.396 21.4042 175.306 20.8084 175.216 20.2125H169.998C170.043 19.8917 170.133 19.6167 170.223 19.2959H174.901C174.811 18.9751 174.676 18.6542 174.541 18.3792H170.583C170.718 18.0584 170.898 17.7834 171.078 17.4625H174.091C173.911 17.1417 173.686 16.8209 173.417 16.5459H171.752C172.022 16.2251 172.292 15.9501 172.607 15.6751C171.123 14.2542 169.099 13.4292 166.895 13.4292C166.895 13.3376 166.895 13.3376 166.85 13.3376Z" fill="#FF5050"/>
<path d="M158.439 22C158.439 26.7667 162.217 30.6625 166.94 30.6625C169.144 30.6625 171.123 29.7917 172.652 28.4167C172.967 28.1417 173.237 27.8209 173.507 27.5H171.752C171.527 27.225 171.303 26.9042 171.123 26.6292H174.136C174.316 26.3542 174.496 26.0333 174.631 25.7125H170.628C170.493 25.4375 170.358 25.1167 170.268 24.7959H174.946C175.216 23.925 175.396 23.0083 175.396 22.0459C175.396 21.4042 175.306 20.8083 175.216 20.2125H169.998C170.043 19.8917 170.133 19.6167 170.223 19.2959H174.901C174.811 18.975 174.676 18.6542 174.541 18.3792H170.583C170.718 18.0583 170.898 17.7833 171.078 17.4625H174.091C173.911 17.1417 173.686 16.8209 173.417 16.5459H171.752C172.022 16.225 172.292 15.95 172.607 15.675C171.123 14.2542 169.099 13.4292 166.895 13.4292H166.85" fill="#E52836"/>
<path d="M166.94 30.6625C169.144 30.6625 171.123 29.7917 172.652 28.4167C172.967 28.1417 173.237 27.8209 173.507 27.5H171.753C171.528 27.225 171.303 26.9042 171.123 26.6292H174.136C174.316 26.3542 174.496 26.0333 174.631 25.7125H170.628C170.493 25.4375 170.358 25.1167 170.268 24.7959H174.946C175.216 23.925 175.396 23.0083 175.396 22.0459C175.396 21.4042 175.306 20.8083 175.216 20.2125H169.999C170.043 19.8917 170.133 19.6167 170.223 19.2959H174.901C174.811 18.975 174.676 18.6542 174.541 18.3792H170.583C170.718 18.0583 170.898 17.7833 171.078 17.4625H174.091C173.912 17.1417 173.687 16.8209 173.417 16.5459H171.753C172.023 16.225 172.292 15.95 172.607 15.675C171.123 14.2542 169.099 13.4292 166.895 13.4292H166.85" fill="#CB2026"/>
<path d="M169.953 24.2001L170.088 23.4209C170.043 23.4209 169.953 23.4667 169.863 23.4667C169.548 23.4667 169.503 23.2834 169.548 23.1917L169.818 21.5875H170.313L170.448 20.7167H169.998L170.088 20.1667H169.189C169.189 20.1667 168.649 23.1917 168.649 23.5584C168.649 24.1084 168.964 24.3375 169.369 24.3375C169.638 24.3375 169.863 24.2459 169.953 24.2001ZM170.268 22.7334C170.268 24.0167 171.123 24.3375 171.842 24.3375C172.517 24.3375 172.787 24.2001 172.787 24.2001L172.967 23.3292C172.967 23.3292 172.472 23.5584 172.022 23.5584C171.033 23.5584 171.213 22.8251 171.213 22.8251H173.057C173.057 22.8251 173.192 22.2292 173.192 22.0001C173.192 21.4042 172.877 20.6709 171.887 20.6709C170.943 20.5792 170.268 21.5875 170.268 22.7334ZM171.842 21.4042C172.337 21.4042 172.247 22.0001 172.247 22.0459H171.258C171.258 22.0001 171.348 21.4042 171.842 21.4042ZM177.554 24.2001L177.734 23.1917C177.734 23.1917 177.285 23.4209 176.97 23.4209C176.34 23.4209 176.07 22.9167 176.07 22.3667C176.07 21.2667 176.61 20.6709 177.24 20.6709C177.689 20.6709 178.049 20.9459 178.049 20.9459L178.184 19.9834C178.184 19.9834 177.644 19.7542 177.15 19.7542C176.115 19.7542 175.081 20.6709 175.081 22.4125C175.081 23.5584 175.62 24.3375 176.7 24.3375C177.06 24.3375 177.554 24.2001 177.554 24.2001ZM165.006 20.5792C164.376 20.5792 163.926 20.7625 163.926 20.7625L163.791 21.5417C163.791 21.5417 164.196 21.3584 164.781 21.3584C165.096 21.3584 165.366 21.4042 165.366 21.6792C165.366 21.8625 165.321 21.9084 165.321 21.9084H164.916C164.151 21.9084 163.297 22.2292 163.297 23.2834C163.297 24.1084 163.836 24.2917 164.151 24.2917C164.781 24.2917 165.051 23.8792 165.096 23.8792L165.051 24.2459H165.86L166.22 21.7251C166.22 20.6251 165.321 20.5792 165.006 20.5792ZM165.186 22.6417C165.186 22.7792 165.096 23.5125 164.556 23.5125C164.286 23.5125 164.196 23.2834 164.196 23.1459C164.196 22.9167 164.331 22.5959 165.006 22.5959C165.141 22.6417 165.186 22.6417 165.186 22.6417ZM167.075 24.2917C167.3 24.2917 168.424 24.3375 168.424 23.1001C168.424 21.9542 167.345 22.1834 167.345 21.7251C167.345 21.4959 167.524 21.4042 167.839 21.4042C167.974 21.4042 168.469 21.4501 168.469 21.4501L168.604 20.6251C168.604 20.6251 168.289 20.5334 167.749 20.5334C167.075 20.5334 166.4 20.8084 166.4 21.7251C166.4 22.7792 167.524 22.6875 167.524 23.1001C167.524 23.3751 167.21 23.4209 166.985 23.4209C166.58 23.4209 166.175 23.2834 166.175 23.2834L166.04 24.1084C166.085 24.2001 166.31 24.2917 167.075 24.2917ZM185.021 19.8459L184.841 21.0834C184.841 21.0834 184.481 20.6251 183.986 20.6251C183.177 20.6251 182.457 21.6334 182.457 22.8251C182.457 23.5584 182.817 24.3375 183.581 24.3375C184.121 24.3375 184.436 23.9709 184.436 23.9709L184.391 24.2917H185.291L185.965 19.8917L185.021 19.8459ZM184.616 22.2751C184.616 22.7792 184.391 23.4209 183.896 23.4209C183.581 23.4209 183.402 23.1459 183.402 22.6875C183.402 21.9542 183.716 21.4959 184.121 21.4959C184.436 21.4959 184.616 21.7251 184.616 22.2751ZM160.103 24.2459L160.643 20.9459L160.733 24.2459H161.362L162.532 20.9459L162.037 24.2459H162.982L163.701 19.8459H162.217L161.318 22.5501L161.273 19.8459H159.968L159.249 24.2459H160.103ZM174.046 24.2459C174.316 22.7334 174.361 21.4959 174.991 21.7251C175.081 21.1292 175.216 20.9001 175.306 20.6709H175.126C174.721 20.6709 174.406 21.2209 174.406 21.2209L174.496 20.7167H173.641L173.057 24.2917H174.046V24.2459ZM179.623 20.5792C178.994 20.5792 178.544 20.7625 178.544 20.7625L178.409 21.5417C178.409 21.5417 178.814 21.3584 179.399 21.3584C179.713 21.3584 179.983 21.4042 179.983 21.6792C179.983 21.8625 179.938 21.9084 179.938 21.9084H179.533C178.769 21.9084 177.914 22.2292 177.914 23.2834C177.914 24.1084 178.454 24.2917 178.769 24.2917C179.399 24.2917 179.668 23.8792 179.713 23.8792L179.668 24.2459H180.478L180.838 21.7251C180.883 20.6251 179.938 20.5792 179.623 20.5792ZM179.848 22.6417C179.848 22.7792 179.758 23.5125 179.219 23.5125C178.949 23.5125 178.859 23.2834 178.859 23.1459C178.859 22.9167 178.994 22.5959 179.668 22.5959C179.803 22.6417 179.803 22.6417 179.848 22.6417ZM181.602 24.2459C181.872 22.7334 181.917 21.4959 182.547 21.7251C182.637 21.1292 182.772 20.9001 182.862 20.6709H182.682C182.277 20.6709 181.962 21.2209 181.962 21.2209L182.052 20.7167H181.198L180.613 24.2917H181.602V24.2459Z" fill="white"/>
<path d="M168.559 23.5584C168.559 24.1084 168.874 24.3375 169.279 24.3375C169.593 24.3375 169.863 24.2459 169.953 24.2001L170.088 23.4209C170.043 23.4209 169.953 23.4667 169.863 23.4667C169.548 23.4667 169.503 23.2834 169.548 23.1917L169.818 21.5875H170.313L170.448 20.7167H169.998L170.088 20.1667M170.718 22.7334C170.718 24.0167 171.123 24.3375 171.842 24.3375C172.517 24.3375 172.787 24.2001 172.787 24.2001L172.967 23.3292C172.967 23.3292 172.472 23.5584 172.022 23.5584C171.033 23.5584 171.213 22.8251 171.213 22.8251H173.057C173.057 22.8251 173.192 22.2292 173.192 22.0001C173.192 21.4042 172.877 20.6709 171.887 20.6709C170.943 20.5792 170.718 21.5875 170.718 22.7334ZM171.842 21.4042C172.337 21.4042 172.427 22.0001 172.427 22.0459H171.258C171.258 22.0001 171.348 21.4042 171.842 21.4042ZM177.554 24.2001L177.734 23.1917C177.734 23.1917 177.285 23.4209 176.97 23.4209C176.34 23.4209 176.07 22.9167 176.07 22.3667C176.07 21.2667 176.61 20.6709 177.24 20.6709C177.689 20.6709 178.049 20.9459 178.049 20.9459L178.184 19.9834C178.184 19.9834 177.644 19.7542 177.15 19.7542C176.115 19.7542 175.531 20.6709 175.531 22.4125C175.531 23.5584 175.62 24.3375 176.7 24.3375C177.06 24.3375 177.554 24.2001 177.554 24.2001ZM163.791 21.5875C163.791 21.5875 164.196 21.4042 164.781 21.4042C165.096 21.4042 165.366 21.4501 165.366 21.7251C165.366 21.9084 165.321 21.9542 165.321 21.9542H164.916C164.151 21.9542 163.297 22.2751 163.297 23.3292C163.297 24.1542 163.836 24.3375 164.151 24.3375C164.781 24.3375 165.051 23.9251 165.096 23.9251L165.051 24.2917H165.86L166.22 21.7709C166.22 20.7167 165.321 20.6709 164.961 20.6709M165.635 22.6417C165.635 22.7792 165.096 23.5125 164.556 23.5125C164.286 23.5125 164.196 23.2834 164.196 23.1459C164.196 22.9167 164.331 22.5959 165.006 22.5959C165.141 22.6417 165.635 22.6417 165.635 22.6417ZM166.085 24.2001C166.085 24.2001 166.355 24.2917 167.12 24.2917C167.345 24.2917 168.469 24.3375 168.469 23.1001C168.469 21.9542 167.39 22.1834 167.39 21.7251C167.39 21.4959 167.569 21.4042 167.884 21.4042C168.019 21.4042 168.514 21.4501 168.514 21.4501L168.649 20.6251C168.649 20.6251 168.334 20.5334 167.794 20.5334C167.12 20.5334 166.895 20.8084 166.895 21.7251C166.895 22.7792 167.569 22.6875 167.569 23.1001C167.569 23.3751 167.255 23.4209 167.03 23.4209M184.841 21.0834C184.841 21.0834 184.481 20.6251 183.986 20.6251C183.177 20.6251 182.907 21.6334 182.907 22.8251C182.907 23.5584 182.817 24.3375 183.581 24.3375C184.121 24.3375 184.436 23.9709 184.436 23.9709L184.391 24.2917H185.291L185.965 19.8917M184.796 22.2751C184.796 22.7792 184.391 23.4209 183.896 23.4209C183.581 23.4209 183.402 23.1459 183.402 22.6875C183.402 21.9542 183.716 21.4959 184.121 21.4959C184.436 21.4959 184.796 21.7251 184.796 22.2751ZM160.103 24.2459L160.643 20.9459L160.733 24.2459H161.362L162.532 20.9459L162.037 24.2459H162.982L163.701 19.8459H162.577L161.318 22.5501L161.273 19.8459H160.778L159.249 24.2459H160.103ZM173.102 24.2459H174.046C174.316 22.7334 174.361 21.4959 174.991 21.7251C175.081 21.1292 175.216 20.9001 175.306 20.6709H175.126C174.721 20.6709 174.406 21.2209 174.406 21.2209L174.496 20.7167M178.409 21.5875C178.409 21.5875 178.814 21.4042 179.399 21.4042C179.713 21.4042 179.983 21.4501 179.983 21.7251C179.983 21.9084 179.938 21.9542 179.938 21.9542H179.533C178.769 21.9542 177.914 22.2751 177.914 23.3292C177.914 24.1542 178.454 24.3375 178.769 24.3375C179.399 24.3375 179.668 23.9251 179.713 23.9251L179.668 24.2917H180.478L180.838 21.7709C180.838 20.7167 179.938 20.6709 179.579 20.6709M180.253 22.6417C180.253 22.7792 179.713 23.5125 179.174 23.5125C178.904 23.5125 178.814 23.2834 178.814 23.1459C178.814 22.9167 178.949 22.5959 179.623 22.5959C179.803 22.6417 180.253 22.6417 180.253 22.6417ZM180.658 24.2459H181.602C181.872 22.7334 181.917 21.4959 182.547 21.7251C182.637 21.1292 182.772 20.9001 182.862 20.6709H182.682C182.277 20.6709 181.962 21.2209 181.962 21.2209L182.052 20.7167" fill="#DCE5E5"/>
<mask id="mask1_197_50" style="mask-type:luminance" maskUnits="userSpaceOnUse" x="1" y="46" width="22" height="22">
<path d="M22.5586 46.2381H1.5625V67.7497H22.5586V46.2381Z" fill="white"/>
</mask>
<g mask="url(#mask1_197_50)">
<path d="M22.2444 59.5958C20.8422 65.3579 15.1454 68.8645 9.52008 67.4277C3.89712 65.9912 0.474075 60.1547 1.87694 54.3931C3.27857 48.6304 8.97543 45.1234 14.599 46.5599C20.2239 47.9965 23.6468 53.8334 22.2444 59.5958Z" fill="#F7931A"/>
<path d="M16.6902 55.4615C16.8992 54.0301 15.8355 53.2607 14.3808 52.7474L14.8527 50.8085L13.7006 50.5144L13.2413 52.4023C12.9383 52.3249 12.6273 52.252 12.3182 52.1797L12.7809 50.2794L11.6295 49.9853L11.1573 51.9236C10.9067 51.8651 10.6605 51.8073 10.4217 51.7464L10.423 51.7403L8.83418 51.3339L8.5277 52.5945C8.5277 52.5945 9.38251 52.7952 9.36446 52.8076C9.83103 52.9269 9.91541 53.2433 9.90137 53.494L9.36387 55.7029C9.39602 55.7113 9.43769 55.7234 9.48362 55.7422C9.44523 55.7325 9.40429 55.7218 9.36184 55.7114L8.60847 58.8057C8.55145 58.9509 8.40671 59.1688 8.08052 59.0861C8.09207 59.1032 7.24315 58.872 7.24315 58.872L6.67114 60.223L8.17044 60.6059C8.44936 60.6776 8.7227 60.7526 8.99185 60.8231L8.5151 62.7842L9.66589 63.0783L10.138 61.138C10.4524 61.2254 10.7575 61.3061 11.0562 61.3821L10.5856 63.3132L11.7378 63.6073L12.2145 61.6499C14.1791 62.0308 15.6563 61.8772 16.2781 60.0568C16.7792 58.5912 16.2531 57.7458 15.2196 57.1945C15.9724 57.0167 16.539 56.5092 16.6902 55.4615ZM14.0579 59.2429C13.7019 60.7085 11.293 59.9162 10.512 59.7176L11.1447 57.1194C11.9256 57.3191 14.43 57.7144 14.0579 59.2429ZM14.4142 55.4402C14.0894 56.7734 12.0845 56.0961 11.4342 55.93L12.0077 53.5736C12.6581 53.7397 14.7525 54.0497 14.4142 55.4402Z" fill="white"/>
</g>
<g clip-path="url(#clip0_197_50)">
<path d="M30.0009 48.2627H32.2024L33.9669 54.7878L35.6665 48.5701H37.4633L39.1953 54.7878L40.9273 48.2627H43.1288L40.2795 57.6404H38.2889L36.5407 51.3032L34.841 57.6404H32.85L29.9998 48.2627H30.0009Z" fill="white"/>
<path d="M44.1832 53.6947C44.2887 55.1979 45.6612 56.0349 46.9809 56.0178C48.107 56.0178 48.8636 55.5224 49.3035 54.7537H51.6791C51.2215 55.7957 50.5353 56.5814 49.7259 57.111C48.9165 57.6576 47.9663 57.931 46.9634 57.931C43.9897 57.931 41.8606 55.5908 41.8606 52.9773C41.8606 50.3127 44.0073 47.9725 46.9282 47.9725C48.371 47.9725 49.6379 48.502 50.5354 49.4073C51.7142 50.5859 52.1542 52.0549 51.9606 53.6948H44.1829L44.1832 53.6947ZM49.6898 51.9862C49.6018 51.098 48.6341 49.8511 46.9449 49.8681C45.2382 49.8681 44.3055 51.0638 44.2176 51.9862H49.6906H49.6898Z" fill="white"/>
<path d="M51.6257 45H53.9308V49.4241C54.881 48.2797 56.2711 47.9722 57.1509 47.9722C59.4383 47.9722 61.9721 49.5949 61.9721 52.9088C61.9721 56.0859 59.6847 57.9308 57.0452 57.9308C55.5319 57.9308 54.353 57.2133 53.8428 56.2909V57.6403H51.6252V44.9999L51.6257 45ZM59.6668 52.9254C59.6668 51.388 58.4525 50.0557 56.7635 50.0557C54.9687 50.0557 53.8426 51.4222 53.8426 52.9425C53.8426 54.5139 54.9687 55.8463 56.7106 55.8463C58.5933 55.8463 59.6668 54.3944 59.6668 52.9425V52.9253V52.9254Z" fill="white"/>
<path d="M32.8464 57.4595H35.0107V58.826C35.6969 57.8866 36.8231 57.1692 38.4243 57.1692C41.8027 57.1692 43.2279 59.9535 43.2279 62.2253C43.2279 64.8899 41.2748 67.1276 38.4419 67.1276C36.5591 67.1276 35.5386 66.1882 35.1515 65.5903V70.1169H32.8459V57.4609L32.8464 57.4595ZM40.9234 62.1397C40.9234 60.7902 39.9204 59.2529 37.9673 59.2529C37.1228 59.2529 36.4013 59.5774 35.8734 60.107C35.3631 60.6195 35.0464 61.3539 35.0464 62.1739C35.0464 62.9767 35.3631 63.6942 35.891 64.2066C36.4189 64.7191 37.1578 65.0436 37.9849 65.0436C39.7445 65.0436 40.9234 63.6942 40.9234 62.1568V62.1405V62.1397Z" fill="#FFA817"/>
<path d="M53.187 66.8372H50.882V65.4878C50.2662 66.581 48.9817 67.1276 47.6268 67.1276C44.5299 67.1276 42.7175 64.7875 42.7175 62.1398C42.7175 59.1848 44.917 57.1692 47.6268 57.1692C49.3863 57.1692 50.4598 58.0744 50.882 58.826V57.4591H53.187V66.8368V66.8372ZM45.022 62.1911C45.022 63.3526 45.8843 65.0436 47.9605 65.0436C49.245 65.0436 50.0896 64.3945 50.5296 63.5404C50.7583 63.1305 50.8639 62.6864 50.899 62.2252C50.9166 61.7811 50.8287 61.3199 50.6351 60.91C50.2304 60.0217 49.333 59.253 47.9429 59.253C46.0778 59.253 45.022 60.722 45.022 62.1739V62.1914V62.1911Z" fill="#FFA817"/>
<path d="M55.9842 66.4783L52.3418 57.4593H54.8053L57.1631 63.694L59.4858 57.4593H61.9492L56.8641 70.1171H54.4007L55.9847 66.478L55.9842 66.4783Z" fill="#FFA817"/>
<path d="M69.4413 51.5474C69.3311 51.4403 69.1505 51.4403 69.0402 51.5474L63.0979 57.3162C62.9876 57.4233 62.8972 57.5109 62.8972 57.5109C62.897 57.5109 62.897 57.6348 62.897 57.7863V64.4239C62.897 64.5754 63.0246 64.6993 63.1807 64.6993H70.018C70.174 64.6993 70.392 64.6117 70.5023 64.5046L76.4447 58.7358C76.555 58.6287 76.555 58.4534 76.4447 58.3463L69.441 51.5473L69.4413 51.5474Z" fill="#FF0005"/>
<path d="M63.8486 58.0168H64.4172V58.5463C64.6525 58.184 65.0545 57.9276 65.6115 57.9276C66.6852 57.9276 67.1903 58.7971 67.1903 59.5496C67.1903 60.408 66.5531 61.1382 65.6171 61.1382C64.9683 61.1382 64.5835 60.7925 64.4457 60.5473V62.1525H63.8486V58.0173V58.0168ZM66.5873 59.5269C66.5873 59.0309 66.2257 58.4679 65.4965 58.4679C65.1864 58.4679 64.9165 58.585 64.7214 58.78C64.5319 58.9695 64.4171 59.2371 64.4171 59.5381C64.4171 59.8391 64.5319 60.1011 64.7271 60.2906C64.9223 60.48 65.1979 60.5971 65.5021 60.5971C66.1338 60.5971 66.5873 60.1233 66.5873 59.5325V59.5269Z" fill="white"/>
<path d="M67.3684 56.9243H67.9655V61.0489H67.3684V56.924V56.9243Z" fill="white"/>
<path d="M71.1919 61.049H70.6291V60.5809C70.4799 60.8929 70.1297 61.1438 69.5727 61.1382C68.5679 61.1326 68.3096 60.4248 68.3096 59.7948V58.0166H68.9067V59.6609C68.9067 60.2071 69.1249 60.5973 69.7392 60.5973C70.3249 60.5917 70.5948 60.2294 70.5948 59.7111V58.0164H71.1919V61.0482V61.049Z" fill="white"/>
<path d="M72.9204 58.8081C72.9204 58.574 72.7712 58.3957 72.4668 58.4013C72.174 58.4013 72.0132 58.5907 72.019 58.7914C72.0305 59.0311 72.2544 59.1426 72.5874 59.2317C73.0639 59.3599 73.5864 59.4937 73.6036 60.1458C73.6151 60.7366 73.1099 61.138 72.4898 61.138C71.996 61.138 71.3817 60.8648 71.353 60.1737H71.9444C71.9674 60.5416 72.2717 60.6642 72.4956 60.6642C72.7827 60.6642 73.0065 60.4691 73.0065 60.2127C73.0008 59.9118 72.7655 59.8114 72.2085 59.6331C71.7722 59.5049 71.4276 59.3042 71.422 58.8471C71.422 58.2731 71.9044 57.9275 72.4726 57.9275C72.9034 57.9275 73.466 58.1336 73.5119 58.8081H72.9217H72.9204Z" fill="white"/>
</g>
<g clip-path="url(#clip1_197_50)">
<mask id="mask2_197_50" style="mask-type:luminance" maskUnits="userSpaceOnUse" x="81" y="45" width="26" height="25">
<path d="M107 45H81.9998V70H107V45Z" fill="white"/>
</mask>
<g mask="url(#mask2_197_50)">
<path d="M84.4382 45.4259H104.562C105.095 45.4259 105.607 45.638 105.985 46.0154C106.362 46.3928 106.574 46.9047 106.574 47.4384V67.5618C106.574 68.0955 106.362 68.6073 105.985 68.9847C105.607 69.3621 105.095 69.5741 104.562 69.5741H84.4379C83.9042 69.5741 83.3925 69.3621 83.0151 68.9848C82.6378 68.6075 82.4258 68.0957 82.4258 67.5621V47.4383C82.4258 47.174 82.4778 46.9123 82.579 46.6682C82.6801 46.424 82.8283 46.2022 83.0152 46.0153C83.2021 45.8285 83.4239 45.6802 83.6681 45.5791C83.9122 45.478 84.1739 45.4259 84.4382 45.4259Z" fill="#FDB913"/>
<path d="M104.562 45.4259C105.096 45.4261 105.607 45.6382 105.985 46.0156C106.362 46.393 106.574 46.9047 106.574 47.4384V67.5617C106.574 68.0954 106.362 68.6072 105.985 68.9846C105.607 69.3619 105.096 69.574 104.562 69.5741H84.4383C84.174 69.5741 83.9123 69.5221 83.6681 69.421C83.4239 69.3199 83.2021 69.1717 83.0152 68.9848C82.8283 68.7979 82.6801 68.5761 82.579 68.3319C82.4779 68.0877 82.4259 67.826 82.4259 67.5617V47.4384C82.4259 47.1741 82.4779 46.9124 82.579 46.6682C82.6801 46.424 82.8283 46.2022 83.0152 46.0153C83.2021 45.8284 83.4239 45.6802 83.6681 45.579C83.9123 45.4779 84.174 45.4259 84.4383 45.4259H104.562ZM104.562 45H84.4383C83.7918 45.0007 83.172 45.2578 82.7149 45.715C82.2578 46.1721 82.0007 46.7919 82 47.4384V67.5617C82.0007 68.2082 82.2578 68.828 82.715 69.2851C83.1721 69.7422 83.7918 69.9993 84.4383 70H104.562C105.208 69.9992 105.828 69.7421 106.285 69.285C106.742 68.8279 106.999 68.2081 107 67.5617V47.4384C106.999 46.792 106.742 46.1722 106.285 45.715C105.828 45.2579 105.208 45.0007 104.562 45Z" fill="white"/>
<path d="M95.9092 57.7607L95.9072 53.4372L97.0358 53.1694V53.7361C97.0358 53.7361 97.3281 52.9908 98.0065 52.8178C98.1079 52.7851 98.2156 52.7779 98.3204 52.7967V53.8998C98.1172 53.9025 97.9165 53.9443 97.7291 54.0229C97.3121 54.1876 97.1022 54.5469 97.1022 55.0955L97.1029 57.4828L95.9092 57.7607Z" fill="#231F20"/>
<path d="M89.9597 59.1666C89.9597 59.1666 89.7763 58.8915 89.7763 57.9187V55.7659L89.1956 55.9041V55.0173L89.7776 54.8798V53.9131L90.9776 53.6296V54.5964L91.8255 54.395V55.2808L90.9776 55.482C90.9776 55.482 90.9763 57.2458 90.9776 57.6741C90.9776 58.6708 91.2421 58.8622 91.2421 58.8622L89.9597 59.1666Z" fill="#231F20"/>
<path d="M91.9509 56.5945C91.9509 55.8259 92.0604 55.2651 92.2954 54.8348C92.575 54.3241 93.0334 53.9913 93.7014 53.8392C95.0178 53.5398 95.493 54.3191 95.4746 55.364C95.4676 55.7377 95.4693 55.9197 95.4693 55.9197L93.1499 56.4648V56.5023C93.1499 57.2323 93.303 57.5787 93.7656 57.4806C94.1653 57.3963 94.2765 57.1459 94.308 56.8364C94.3132 56.7864 94.3156 56.6595 94.3156 56.6595L95.4022 56.3991C95.4022 56.3991 95.4047 56.4881 95.4032 56.5879C95.3937 57.0028 95.2731 58.0319 93.7629 58.389C92.3324 58.7285 91.9509 57.8549 91.9509 56.5945ZM93.7496 54.6446C93.3652 54.7318 93.1637 55.1088 93.1549 55.7334L94.3217 55.4555C94.3237 55.4272 94.324 55.365 94.3237 55.2674C94.3217 54.7959 94.1759 54.547 93.7496 54.6446Z" fill="#231F20"/>
<path d="M102.382 54.0662C102.337 52.7494 102.679 51.7044 104.148 51.3716C105.084 51.1588 105.44 51.4024 105.62 51.6378C105.793 51.8625 105.86 52.1654 105.86 52.5898L105.861 52.6677L104.711 52.9408C104.711 52.9408 104.711 52.7859 104.711 52.7809C104.711 52.2776 104.572 52.0863 104.206 52.1778C103.771 52.287 103.596 52.6995 103.596 53.5198C103.596 53.811 103.597 53.8632 103.597 53.9025C103.597 54.7361 103.711 55.1177 104.212 55.0128C104.646 54.923 104.706 54.5414 104.713 54.2069C104.714 54.1544 104.716 53.9863 104.716 53.9863L105.864 53.7152C105.864 53.7152 105.865 53.7999 105.865 53.8942C105.862 54.9873 105.286 55.6762 104.206 55.9273C102.719 56.2759 102.428 55.4166 102.382 54.0662Z" fill="#231F20"/>
<path d="M98.4087 55.9097C98.4087 54.9081 98.9954 54.5913 99.8785 54.226C100.673 53.8975 100.69 53.7344 100.693 53.4489C100.698 53.2086 100.586 53.003 100.191 53.1039C100.059 53.1305 99.94 53.2008 99.8531 53.3034C99.7663 53.4061 99.7166 53.5351 99.7123 53.6695C99.7058 53.7433 99.7033 53.8174 99.7048 53.8914L98.5913 54.1544C98.5838 53.9325 98.6097 53.7107 98.6682 53.4965C98.8462 52.8976 99.3744 52.4946 100.286 52.2836C101.471 52.0106 101.866 52.5305 101.867 53.3392V55.2541C101.867 56.1802 102.039 56.3159 102.039 56.3159L100.946 56.5746C100.886 56.4483 100.837 56.3169 100.8 56.1819C100.8 56.1819 100.56 56.785 99.7346 56.979C98.8677 57.1834 98.4087 56.6462 98.4087 55.9097ZM100.686 54.542C100.501 54.6712 100.307 54.7851 100.104 54.8826C99.7397 55.0606 99.575 55.2802 99.575 55.6185C99.575 55.9114 99.7564 56.1038 100.086 56.0223C100.44 55.9331 100.686 55.603 100.686 55.1444V54.542Z" fill="#231F20"/>
<path d="M83.6855 62.1974C83.5607 62.1972 83.4383 62.1634 83.3311 62.0996C83.2239 62.0357 83.136 61.9441 83.0765 61.8345C83.017 61.7248 82.9881 61.6012 82.993 61.4765C82.9978 61.3518 83.0362 61.2308 83.104 61.1261L83.1118 61.1161L83.1248 61.1126L84.7571 60.7273V61.9669L84.7317 61.9727C84.3614 62.0618 83.9189 62.1633 83.8278 62.1826C83.781 62.1925 83.7333 62.1975 83.6855 62.1974Z" fill="#231F20"/>
<path d="M83.6855 63.7831C83.5018 63.7832 83.3256 63.7103 83.1957 63.5805C83.0657 63.4507 82.9926 63.2746 82.9924 63.091C82.9921 62.9571 83.0309 62.8261 83.104 62.7141L83.1118 62.7025L83.1248 62.6992L84.7571 62.314V63.5536L84.7317 63.5602C84.3614 63.649 83.9189 63.7516 83.8278 63.7698C83.7809 63.7788 83.7332 63.7833 83.6855 63.7831Z" fill="#231F20"/>
<path d="M83.6855 65.3719C83.5017 65.3718 83.3256 65.2988 83.1956 65.1689C83.0657 65.039 82.9926 64.8629 82.9924 64.6792C82.9919 64.5453 83.0307 64.4143 83.104 64.3023L83.1118 64.2898L84.7571 63.9021V65.1416L84.7317 65.1482C84.3406 65.2423 83.9064 65.3405 83.8278 65.3578C83.7809 65.3672 83.7333 65.3719 83.6855 65.3719Z" fill="#231F20"/>
<path d="M83.4929 60.6785L83.4924 53.7427L84.757 53.4439V60.3795L83.4929 60.6785Z" fill="#231F20"/>
<path d="M86.6424 60.0884C86.6424 59.8815 86.5602 59.683 86.4139 59.5367C86.2676 59.3904 86.0691 59.3082 85.8622 59.3082C85.6553 59.3082 85.4569 59.3904 85.3105 59.5367C85.1642 59.683 85.082 59.8815 85.082 60.0884L85.0833 66.5709C85.084 67.1307 85.3066 67.6674 85.7023 68.0633C86.098 68.4593 86.6346 68.6823 87.1944 68.6833C87.785 68.6833 89.4029 68.6805 89.4029 68.6805L89.4036 65.9761C89.404 64.4985 89.4043 62.9946 89.4043 62.9603C89.4045 62.7922 89.3632 62.6266 89.2841 62.4783C89.2049 62.33 89.0904 62.2035 88.9506 62.1101L86.9822 60.7732C86.9822 60.7732 86.9818 63.6756 86.9818 63.809C86.9818 63.8535 86.9641 63.8962 86.9326 63.9277C86.9012 63.9591 86.8585 63.9768 86.814 63.9768C86.7694 63.9768 86.7268 63.9591 86.6953 63.9277C86.6638 63.8962 86.6461 63.8535 86.6461 63.809C86.6461 63.7764 86.6424 60.4893 86.6424 60.0884Z" fill="#231F20"/>
<path d="M87.6963 55.2519C87.4571 55.3074 87.2327 55.4138 87.0385 55.564C86.8442 55.7142 86.6847 55.9045 86.5707 56.122V55.6346L85.4321 55.904L85.4334 59.0169C85.6331 58.9379 85.8508 58.9157 86.0624 58.9527C86.274 58.9897 86.4712 59.0844 86.6323 59.2265V57.2166C86.6323 56.7352 86.8718 56.3506 87.2141 56.2751C87.4716 56.2186 87.6867 56.3107 87.6867 56.7693L87.6875 59.7018L88.8868 59.4206V56.3184C88.8868 55.5663 88.5972 55.0406 87.6963 55.2519Z" fill="#231F20"/>
<path d="M105.121 50.8128C104.974 50.8129 104.831 50.7696 104.709 50.6882C104.587 50.6068 104.492 50.491 104.436 50.3556C104.38 50.2201 104.365 50.071 104.393 49.9272C104.422 49.7833 104.492 49.6512 104.596 49.5475C104.7 49.4437 104.832 49.3731 104.976 49.3445C105.12 49.3159 105.269 49.3306 105.404 49.3867C105.54 49.4428 105.656 49.5379 105.737 49.6599C105.818 49.7818 105.862 49.9252 105.862 50.0719C105.862 50.2683 105.783 50.4566 105.645 50.5955C105.506 50.7344 105.318 50.8125 105.121 50.8128ZM105.121 49.4235C104.993 49.4234 104.868 49.4614 104.761 49.5326C104.654 49.6039 104.571 49.7051 104.522 49.8235C104.473 49.942 104.46 50.0723 104.485 50.1981C104.51 50.3238 104.572 50.4393 104.662 50.53C104.753 50.6207 104.869 50.6825 104.994 50.7075C105.12 50.7326 105.25 50.7197 105.369 50.6707C105.487 50.6217 105.589 50.5386 105.66 50.432C105.731 50.3254 105.769 50.2001 105.769 50.0719C105.769 49.9 105.701 49.7352 105.579 49.6136C105.458 49.4921 105.293 49.4237 105.121 49.4235Z" fill="#231F20"/>
<path d="M104.851 49.6302H105.171C105.202 49.6268 105.233 49.6305 105.263 49.6411C105.293 49.6516 105.319 49.6687 105.341 49.6911C105.363 49.7134 105.38 49.7405 105.39 49.7702C105.401 49.7999 105.404 49.8315 105.4 49.8627C105.4 49.98 105.348 50.0703 105.249 50.0856V50.0873C105.339 50.0965 105.386 50.146 105.391 50.2733C105.393 50.3306 105.394 50.4018 105.396 50.4572C105.396 50.4727 105.4 50.4881 105.408 50.5017C105.415 50.5154 105.426 50.5269 105.439 50.5353H105.276C105.26 50.5114 105.252 50.4836 105.252 50.455C105.247 50.4009 105.248 50.3499 105.245 50.2842C105.243 50.1855 105.213 50.1423 105.114 50.1423H104.995V50.5353H104.851V49.6302ZM105.111 50.0333C105.131 50.0351 105.15 50.0325 105.169 50.0257C105.187 50.0189 105.204 50.0081 105.218 49.9941C105.232 49.9801 105.242 49.9631 105.249 49.9445C105.255 49.9259 105.258 49.9061 105.255 49.8865C105.255 49.79 105.214 49.7392 105.119 49.7392H104.995V50.0333H105.111Z" fill="#231F20"/>
</g>
</g>
<g clip-path="url(#clip2_197_50)">
<path d="M135.942 61.2092C134.654 61.2091 133.365 61.2088 132.076 61.2092C131.726 61.2094 131.665 61.2793 131.801 61.583C132.164 62.393 132.766 62.9241 133.65 63.1317C134.515 63.3348 135.314 63.227 136.039 62.6964C136.147 62.6176 136.261 62.5979 136.391 62.634C137.261 62.8763 138.133 63.1157 139.003 63.358C139.214 63.4167 139.424 63.4817 139.633 63.5451C139.804 63.5967 139.839 63.6944 139.739 63.8441C139.32 64.4695 138.866 65.0646 138.251 65.5173C136.665 66.6841 134.903 67.0467 132.973 66.6719C130.892 66.2679 129.392 65.0961 128.415 63.254C128.069 62.6002 127.897 61.8856 127.741 61.1558C127.495 59.9947 127.614 58.873 127.905 57.7571C128.166 56.7537 128.657 55.8589 129.357 55.081C130.165 54.1845 131.134 53.5399 132.296 53.1905C133.321 52.8821 134.363 52.8999 135.409 53.061C136.203 53.1832 136.936 53.4704 137.614 53.8916C138.688 54.5581 139.419 55.5044 139.881 56.6667C140.304 57.7311 140.456 58.8399 140.446 59.9773C140.443 60.255 140.399 60.5253 140.326 60.7912C140.237 61.1132 140.09 61.2112 139.752 61.2105C138.482 61.2078 137.212 61.2094 135.942 61.2092ZM134.033 57.9971C134.701 57.9971 135.37 57.9985 136.038 57.996C136.184 57.9954 136.365 58.0002 136.274 57.77C136.154 57.4686 135.991 57.1942 135.728 56.9839C135.2 56.5622 134.596 56.4353 133.933 56.4574C133.003 56.4884 132.352 56.9309 131.912 57.723C131.796 57.9308 131.843 58.0043 132.085 58.0008C132.734 57.9915 133.384 57.9977 134.033 57.9971Z" fill="#FF6400"/>
<path d="M125.89 54.8649C125.89 56.7899 125.889 58.7149 125.891 60.6398C125.893 62.0372 125.44 63.2809 124.587 64.3794C123.734 65.4785 122.629 66.2329 121.279 66.5981C120.359 66.8471 119.426 66.8783 118.478 66.6815C117.284 66.4337 116.256 65.8958 115.39 65.0588C114.479 64.1784 113.886 63.1164 113.611 61.8762C113.532 61.5198 113.503 61.1674 113.5 60.8067C113.499 60.5885 113.596 60.4977 113.811 60.498C115.263 60.5003 116.714 60.5001 118.165 60.4984C118.391 60.4981 118.509 60.5933 118.556 60.822C118.691 61.4878 119.285 61.8008 119.813 61.7399C120.386 61.674 120.85 61.1903 120.849 60.5461C120.842 56.5922 120.846 52.6382 120.847 48.6845C120.847 48.1872 120.855 48.1787 121.36 48.1786C122.735 48.1784 124.109 48.178 125.484 48.1787C125.873 48.1789 125.89 48.1944 125.89 48.5777C125.891 50.6735 125.89 52.7692 125.89 54.8649Z" fill="#FF6400"/>
<path d="M150.635 59.9668C150.667 58.2648 151.085 56.7798 152.082 55.4944C153.08 54.2065 154.384 53.3897 156.004 53.0853C157.357 52.8313 158.686 52.9031 159.969 53.4024C160.931 53.777 161.755 54.3671 162.449 55.1393C163.238 56.0157 163.756 57.0269 164.01 58.1648C164.217 59.094 164.264 60.0351 164.112 60.9851C163.765 63.1564 162.691 64.8529 160.76 65.9481C159.32 66.7651 157.762 67.0026 156.118 66.6871C155.106 66.4929 154.178 66.1222 153.362 65.5036C152.231 64.6465 151.452 63.5411 151.016 62.1874C150.772 61.4297 150.673 60.6584 150.635 59.9668ZM157.726 63.1157C158.493 63.0808 159.348 62.6251 159.829 61.6003C160.339 60.5126 160.333 59.3974 159.91 58.2868C159.702 57.7408 159.333 57.2924 158.822 57.0071C157.431 56.2305 155.555 56.64 154.891 58.3613C154.503 59.3673 154.523 60.3864 154.902 61.3887C155.307 62.4641 156.264 63.1148 157.726 63.1157Z" fill="#FF6400"/>
<path d="M165.83 59.859C165.83 57.8387 165.83 55.8184 165.83 53.7981C165.83 53.3062 165.861 53.2758 166.342 53.2758C167.317 53.2755 168.291 53.2754 169.265 53.2756C169.678 53.2756 169.715 53.3056 169.745 53.7187C169.757 53.8776 169.818 53.908 169.941 53.8183C170.507 53.4058 171.149 53.1662 171.831 53.0529C173.714 52.7403 175.615 53.2659 176.715 55.011C177.299 55.9387 177.583 56.9372 177.583 58.024C177.583 60.6988 177.584 63.3735 177.584 66.0483C177.584 66.4262 177.543 66.469 177.153 66.4697C176.131 66.4718 175.109 66.4724 174.087 66.4692C173.686 66.4681 173.626 66.4036 173.625 66.0018C173.624 63.5263 173.622 61.0507 173.626 58.5751C173.627 58.0934 173.5 57.6476 173.23 57.2607C172.818 56.6715 172.168 56.5923 171.536 56.6663C170.562 56.7801 170.072 57.3181 169.89 58.2839C169.816 58.6781 169.786 59.071 169.787 59.4706C169.79 61.6427 169.789 63.8148 169.788 65.9868C169.788 66.446 169.763 66.4702 169.303 66.4705C168.301 66.4709 167.298 66.4725 166.295 66.4695C165.891 66.4682 165.831 66.4052 165.831 66.0056C165.829 63.9566 165.83 61.9079 165.83 59.859Z" fill="#FF6400"/>
<path d="M142.906 59.9307C142.906 59.0868 142.906 58.2429 142.906 57.3992C142.905 56.9671 142.905 56.967 142.483 56.9655C142.244 56.9648 142.005 56.9619 141.767 56.9653C141.532 56.9685 141.415 56.8702 141.417 56.6254C141.421 55.6299 141.422 54.6344 141.417 53.6389C141.415 53.3683 141.537 53.2635 141.801 53.2738C142.059 53.2839 142.317 53.2651 142.574 53.2786C142.821 53.2915 142.912 53.1985 142.91 52.9497C142.9 51.9921 142.905 51.0345 142.906 50.0768C142.907 49.6446 142.924 49.627 143.357 49.6267C144.369 49.6258 145.381 49.6255 146.393 49.6268C146.782 49.6272 146.856 49.6912 146.855 50.0647C146.854 51.0504 146.851 52.0363 146.833 53.0219C146.829 53.2478 146.942 53.275 147.113 53.2751C147.705 53.2751 148.297 53.2747 148.889 53.2758C149.266 53.2767 149.326 53.332 149.327 53.6995C149.33 54.6477 149.329 55.5958 149.327 56.5441C149.327 56.9122 149.272 56.9631 148.887 56.9647C148.286 56.9672 147.685 56.9685 147.083 56.9647C146.888 56.9634 146.832 57.0299 146.834 57.2367C146.848 58.7342 146.845 60.2321 146.848 61.7298C146.848 61.8526 146.846 61.9758 146.856 62.098C146.91 62.7446 146.984 62.8566 147.755 62.9335C148.162 62.9741 148.568 62.851 148.969 62.7691C149.259 62.7098 149.332 62.7387 149.334 63.019C149.341 63.9766 149.336 64.9342 149.337 65.8918C149.337 66.0518 149.273 66.1532 149.118 66.2179C148.354 66.5357 147.557 66.6484 146.739 66.5767C146.064 66.5175 145.4 66.3985 144.801 66.046C143.903 65.5177 143.314 64.7693 143.07 63.7526C142.803 62.6391 142.945 61.5088 142.906 60.386C142.901 60.2342 142.906 60.0825 142.906 59.9307Z" fill="#FF6400"/>
</g>
<g clip-path="url(#clip3_197_50)">
<path d="M8.30579 93.7389L2.56014 83.8516C2.17763 83.1932 1.33664 82.9711 0.682239 83.3552C0.0265069 83.7392 -0.194736 84.5835 0.187774 85.2406L5.93342 95.1279C6.18932 95.5668 6.64913 95.8117 7.12094 95.8117C7.35551 95.8117 7.59408 95.7515 7.81132 95.623C8.46705 95.239 8.6883 94.3946 8.30579 93.7376V93.7389Z" fill="#F69220"/>
<path d="M21.5779 90.4365C21.5552 89.7353 21.3406 89.0274 20.9355 88.3142C20.3037 87.2063 19.5907 86.4489 18.6257 85.9913C17.8047 85.6019 16.8865 85.3837 15.9402 85.4841C16.272 84.8378 16.444 84.1286 16.5106 83.41C16.6066 82.3583 16.26 81.4336 15.623 80.3283C15.2138 79.6178 14.7113 79.0759 14.1183 78.7039C13.5265 78.3319 12.8774 78.1071 12.1724 78.0321C11.4673 77.9572 10.7343 78.0147 9.97195 78.2047C9.72805 78.265 9.46816 78.3412 9.2056 78.4282C9.10697 78.4603 9.00701 78.4965 8.89373 78.5366C8.43658 78.7039 7.2344 79.3743 6.82524 79.6124L4.87937 80.8341L4.83539 80.8596C4.10102 81.2811 3.84646 82.2191 4.26628 82.9564C4.54884 83.4528 5.06463 83.7298 5.59641 83.7298C5.85364 83.7298 6.11486 83.6643 6.35476 83.5264L6.38808 83.5064L9.60677 81.6611C9.90531 81.4871 10.2172 81.3801 10.5397 81.34C10.8636 81.2985 11.1755 81.3226 11.478 81.4109C11.7805 81.4979 12.0644 81.645 12.3297 81.8484C12.5935 82.0532 12.8135 82.3047 12.9867 82.6045C13.16 82.9042 13.2746 83.2227 13.3319 83.5586C13.3879 83.8944 13.3892 84.2156 13.3346 84.522C13.2799 84.8284 13.1693 85.1094 13.0014 85.365C12.8334 85.6193 12.6082 85.8293 12.3257 85.9953L10.3851 87.1581L9.55879 87.6385L9.02434 87.9476C8.32996 88.3504 8.09139 89.2415 8.49256 89.9387C8.76178 90.407 9.24958 90.668 9.75204 90.668C9.99861 90.668 10.2478 90.6051 10.4771 90.4726L11.5526 89.849L14.3062 88.3383C14.5914 88.1751 14.8859 88.0854 15.1885 88.068C15.4937 88.0506 15.7909 88.0961 16.0815 88.2018C16.372 88.3075 16.6479 88.4708 16.9091 88.6889C17.169 88.907 17.3849 89.1666 17.5568 89.4677C17.7288 89.7688 17.8354 90.0859 17.878 90.4177C17.9207 90.7496 17.9047 91.0707 17.8274 91.3772C17.7514 91.6849 17.6142 91.9673 17.4169 92.2282C17.2197 92.4892 16.9718 92.7046 16.6719 92.8772L11.8978 95.607L11.6633 95.7421L10.8023 96.2439L9.13229 97.1471C8.39793 97.5446 8.12337 98.4639 8.51921 99.2025C8.79243 99.711 9.31222 100 9.85067 100C10.0919 100 10.3385 99.9411 10.5664 99.818L14.6887 97.5887L17.9927 95.7729C18.735 95.3474 19.3788 94.8509 19.9252 94.2849C20.4717 93.7189 20.8902 93.1114 21.1794 92.4611C21.4686 91.8121 21.6019 91.1363 21.5792 90.4338L21.5779 90.4365Z" fill="#606060"/>
<path d="M67.9054 87.9141C68.4212 87.6733 69.1636 86.9493 69.1636 85.828C69.1636 84.0965 68.012 82.9898 66.0409 82.9898H63.1794C62.8901 82.9898 62.529 82.9898 62.2544 83.2668C61.9785 83.5438 61.9785 83.9051 61.9785 84.1955V91.8856C61.9785 92.176 61.9785 92.5386 62.2544 92.8143C62.5303 93.0913 62.8901 93.0913 63.1794 93.0913H66.2101C68.012 93.0913 69.3049 92.0703 69.3049 90.1822C69.3049 88.8347 68.5212 88.1965 67.9054 87.9128V87.9141ZM63.955 84.7508H65.8836C66.7179 84.7508 67.1831 85.2191 67.1831 85.9136C67.1831 86.6081 66.7166 87.0765 65.8836 87.0765H63.955V84.7495V84.7508ZM66.0115 91.3343H63.955V88.8508H66.0115C66.9018 88.8508 67.3257 89.4048 67.3257 90.0845C67.3257 90.7643 66.9018 91.333 66.0115 91.333V91.3343Z" fill="#606060"/>
<path d="M73.7763 85.6152C71.8691 85.6152 70.575 86.9841 70.575 89.3968C70.575 92.3834 72.2356 93.1783 73.9802 93.1783C74.7932 93.1783 75.4849 93.0083 75.9874 92.6671C76.4112 92.3834 76.7084 92.0636 76.7084 91.7171C76.7084 91.2915 76.3193 90.9436 75.9661 90.9436C75.7475 90.9436 75.5702 91.0145 75.281 91.2206C74.9212 91.4896 74.468 91.618 74.0095 91.618C72.942 91.618 72.3849 90.9302 72.3849 89.9721H75.9248C76.2006 89.9721 76.4965 89.9721 76.7298 89.738C76.9483 89.5185 76.9843 89.1987 76.9777 88.915C76.9137 87.0497 75.7622 85.6166 73.7763 85.6166V85.6152ZM72.3849 88.7076C72.3915 88.3878 72.4275 88.1751 72.5475 87.9061C72.7381 87.4659 73.1619 87.1474 73.7763 87.1474C74.3907 87.1474 74.8145 87.4672 75.0131 87.9061C75.1331 88.1751 75.1611 88.3878 75.1757 88.7076H72.3849Z" fill="#606060"/>
<path d="M81.1746 87.332C81.5211 87.332 81.6477 87.3106 81.797 87.233C82.0156 87.1193 82.1355 86.8998 82.1355 86.6228C82.1355 86.3458 82.0156 86.1264 81.797 86.0126C81.649 85.935 81.5211 85.9136 81.1746 85.9136H80.6228V84.9274C80.6228 84.4805 80.6015 84.3025 80.5029 84.1045C80.3682 83.8355 80.079 83.6642 79.7045 83.6642C79.33 83.6642 79.0408 83.8342 78.9062 84.1045C78.8075 84.3025 78.7862 84.4805 78.7862 84.9274V85.9136H78.6023C78.2558 85.9136 78.1292 85.935 77.9799 86.0126C77.7613 86.1264 77.6414 86.3458 77.6414 86.6228C77.6414 86.8998 77.7613 87.1193 77.9799 87.233C78.1278 87.3106 78.2558 87.332 78.6023 87.332H78.7862V90.9784C78.7862 92.0569 79.3873 93.0926 80.9134 93.0926H81.012C81.3652 93.0926 81.6051 93.0498 81.7677 92.9655C81.9862 92.8518 82.1355 92.6323 82.1355 92.3058C82.1355 91.9793 81.9942 91.7599 81.7677 91.6461C81.6117 91.5685 81.4491 91.5471 81.2159 91.5324C80.7494 91.5043 80.6228 91.2273 80.6228 90.8794V87.332H81.1746Z" fill="#606060"/>
<path d="M86.1194 87.332C86.4659 87.332 86.5925 87.3106 86.7418 87.233C86.9604 87.1193 87.0803 86.8998 87.0803 86.6228C87.0803 86.3458 86.9604 86.1264 86.7418 86.0126C86.5939 85.935 86.4659 85.9136 86.1194 85.9136H85.5676V84.9274C85.5676 84.4805 85.5463 84.3025 85.4477 84.1045C85.3131 83.8355 85.0238 83.6642 84.6493 83.6642C84.2748 83.6642 83.9856 83.8342 83.851 84.1045C83.7524 84.3025 83.731 84.4805 83.731 84.9274V85.9136H83.5471C83.2006 85.9136 83.074 85.935 82.9247 86.0126C82.7061 86.1264 82.5862 86.3458 82.5862 86.6228C82.5862 86.8998 82.7061 87.1193 82.9247 87.233C83.0726 87.3106 83.2006 87.332 83.5471 87.332H83.731V90.9784C83.731 92.0569 84.3321 93.0926 85.8582 93.0926H85.9568C86.31 93.0926 86.5499 93.0498 86.7125 92.9655C86.9311 92.8518 87.0803 92.6323 87.0803 92.3058C87.0803 91.9793 86.9391 91.7599 86.7125 91.6461C86.5566 91.5685 86.3939 91.5471 86.1607 91.5324C85.6942 91.5043 85.5676 91.2273 85.5676 90.8794V87.332H86.1194Z" fill="#606060"/>
<path d="M91.08 85.6152C89.1728 85.6152 87.8787 86.9841 87.8787 89.3968C87.8787 92.3834 89.5393 93.1783 91.2839 93.1783C92.0969 93.1783 92.7887 93.0083 93.2911 92.6671C93.7149 92.3834 94.0122 92.0636 94.0122 91.7171C94.0122 91.2915 93.623 90.9436 93.2698 90.9436C93.0512 90.9436 92.874 91.0145 92.5847 91.2206C92.2249 91.4896 91.7717 91.618 91.3133 91.618C90.2457 91.618 89.6886 90.9302 89.6886 89.9721H93.2285C93.5044 89.9721 93.8002 89.9721 94.0335 89.738C94.2521 89.5185 94.288 89.1987 94.2814 88.915C94.2174 87.0497 93.0659 85.6166 91.08 85.6166V85.6152ZM89.6886 88.7076C89.6953 88.3878 89.7312 88.1751 89.8512 87.9061C90.0418 87.4659 90.4656 87.1474 91.08 87.1474C91.6944 87.1474 92.1183 87.4672 92.3168 87.9061C92.4368 88.1751 92.4648 88.3878 92.4794 88.7076H89.6886Z" fill="#606060"/>
<path d="M100.533 85.9565C100.202 85.737 99.8337 85.6166 99.2619 85.6166C98.5342 85.6166 97.8625 85.9926 97.5093 86.4181C97.4667 86.1491 97.3827 85.9926 97.2334 85.8574C97.0921 85.7223 96.8949 85.6447 96.647 85.6447C96.3005 85.6447 95.9899 85.8146 95.8553 86.0702C95.742 86.283 95.7207 86.4248 95.7207 86.8998V91.887C95.7207 92.3339 95.742 92.5119 95.8406 92.7099C95.9753 92.9789 96.2645 93.1502 96.639 93.1502C97.0135 93.1502 97.3027 92.9802 97.4373 92.7099C97.536 92.5119 97.5573 92.3339 97.5573 91.887V88.638C97.5573 87.7014 98.165 87.2758 98.7795 87.2758C99.0274 87.2758 99.2593 87.3535 99.4792 87.4672C99.7271 87.5943 99.9243 87.6585 100.108 87.6585C100.335 87.6585 100.56 87.5662 100.723 87.403C100.885 87.2397 100.999 86.9989 100.999 86.7286C100.999 86.4087 100.808 86.1398 100.532 85.9551L100.533 85.9565Z" fill="#606060"/>
<path d="M36.8394 82.856C36.5809 82.856 36.3929 82.9082 36.2143 83.03C35.9638 83.1919 35.7772 83.497 35.6892 83.6656L33.2622 88.3075L30.8339 83.6656C30.7459 83.4983 30.5593 83.1919 30.3101 83.0313C30.1302 82.9082 29.9422 82.856 29.6837 82.856C29.4011 82.856 29.1612 82.9537 28.9693 83.1464C28.7054 83.4113 28.6521 83.7285 28.6521 84.1527V91.7518C28.6521 92.2041 28.6641 92.3848 28.7947 92.6484C28.9626 92.9601 29.3145 93.1542 29.713 93.1542C30.1115 93.1542 30.4634 92.9601 30.6313 92.6457C30.7619 92.3848 30.7726 92.2028 30.7726 91.7518V87.5381L32.252 90.4632C32.4865 90.9275 32.7264 91.1965 33.2622 91.1965C33.798 91.1965 34.0379 90.9275 34.2725 90.4632L35.7519 87.5381V91.7518C35.7519 92.2041 35.7639 92.3848 35.8945 92.6484C36.0624 92.9601 36.4143 93.1542 36.8128 93.1542C37.2113 93.1542 37.5631 92.9601 37.7324 92.6457C37.863 92.3848 37.8737 92.2028 37.8737 91.7518V84.1527C37.8737 83.7285 37.8203 83.4113 37.5565 83.1464C37.3645 82.9537 37.1233 82.856 36.8421 82.856H36.8394Z" fill="#F69220"/>
<path d="M44.8362 85.5456C44.4457 85.5456 44.1232 85.725 43.9739 86.026C43.866 86.2428 43.846 86.4382 43.846 86.8784V90.118C43.846 91.2728 42.9717 91.3638 42.7038 91.3638C42.4359 91.3638 41.5762 91.2741 41.5762 90.118V86.8784C41.5762 86.4382 41.5576 86.2441 41.4483 86.026C41.299 85.725 40.9765 85.5456 40.586 85.5456C40.1955 85.5456 39.8729 85.725 39.7236 86.026C39.6157 86.2428 39.5957 86.4382 39.5957 86.8784V90.3722C39.5957 91.333 39.8249 91.9726 40.3621 92.5119C40.7992 92.9508 41.415 93.1823 42.1427 93.1823C42.8224 93.1823 43.4808 92.924 43.9326 92.4838C43.9832 92.6537 44.0565 92.7956 44.1925 92.92C44.3524 93.0726 44.5723 93.1528 44.8282 93.1528C45.1987 93.1528 45.5346 92.9709 45.6825 92.6885C45.8078 92.453 45.8252 92.2938 45.8252 91.8268V86.8757C45.8252 86.4355 45.8065 86.2415 45.6972 86.0234C45.5479 85.7223 45.2254 85.543 44.8349 85.543L44.8362 85.5456Z" fill="#F69220"/>
<path d="M50.4619 87.3374C50.7644 87.3374 50.9817 87.4163 51.2922 87.6398C51.5628 87.8378 51.74 87.9087 51.9693 87.9087C52.1985 87.9087 52.4358 87.8057 52.5864 87.6451C52.7756 87.4471 52.8676 87.233 52.8676 86.9921C52.8676 86.4703 52.3651 86.1036 51.9426 85.8882C51.5001 85.6299 51.0617 85.5189 50.4739 85.5189C49.8515 85.5189 48.9585 85.654 48.2348 86.2976C47.4951 86.9547 47.1206 87.9797 47.1206 89.3445C47.1206 90.7094 47.4938 91.7371 48.2308 92.3981C48.9545 93.0471 49.8422 93.1836 50.4606 93.1836C51.0323 93.1836 51.4762 93.0752 51.944 92.8223C52.5664 92.4784 52.8689 92.1158 52.8689 91.7103C52.8689 91.4641 52.7743 91.2447 52.5877 91.0573C52.4318 90.8927 52.1892 90.7857 51.9693 90.7857C51.7214 90.7857 51.5255 90.8941 51.2909 91.0694C51.0017 91.2835 50.7764 91.3638 50.4606 91.3638C50.0514 91.3638 49.7422 91.2206 49.4903 90.9142C49.2211 90.5756 49.1011 90.0912 49.1011 89.3432C49.1011 88.5952 49.2211 88.1255 49.4903 87.787C49.7289 87.4953 50.0567 87.3441 50.4606 87.3374H50.4619Z" fill="#F69220"/>
<path d="M59.4676 86.1893C59.0304 85.7504 58.4147 85.5189 57.687 85.5189C57.0033 85.5189 56.4715 85.7209 55.9837 86.1719V84.1901C55.9837 83.7499 55.965 83.5559 55.8557 83.3377C55.7065 83.0367 55.3839 82.8574 54.9934 82.8574C54.6029 82.8574 54.2804 83.0367 54.1311 83.3377C54.0232 83.5545 54.0032 83.7499 54.0032 84.1901V91.8241C54.0032 92.2643 54.0218 92.4584 54.1311 92.6765C54.2804 92.9775 54.6029 93.1569 54.9934 93.1569C55.3839 93.1569 55.7065 92.9775 55.8557 92.6765C55.9637 92.4584 55.9837 92.2643 55.9837 91.8241V88.5845C55.9837 87.4297 56.858 87.3387 57.1259 87.3387C57.3938 87.3387 58.2534 87.4284 58.2534 88.5845V91.8241C58.2534 92.2643 58.2721 92.4584 58.3814 92.6765C58.5307 92.9775 58.8532 93.1569 59.2437 93.1569C59.6342 93.1569 59.9567 92.9775 60.106 92.6765C60.214 92.4597 60.234 92.2643 60.234 91.8241V88.3316C60.234 87.3708 60.0047 86.7312 59.4676 86.1906V86.1893Z" fill="#F69220"/>
</g>
<g clip-path="url(#clip4_197_50)">
<path d="M115.4 77.3161L110.709 93.8856H113.489L114.821 89.0124H118.643L120.033 93.8856H122.87L118.122 77.3161H115.4ZM117.949 86.3663H115.516L116.5 82.6763C116.558 82.3977 116.616 82.1894 116.674 81.9109C116.732 82.1894 116.789 82.3989 116.905 82.6774L117.948 86.3663H117.949ZM127.503 86.3663C126.229 85.739 126.113 85.4605 126.113 85.0427C126.113 84.4856 126.518 84.138 127.097 84.138C127.676 84.138 128.198 84.3475 128.719 84.6951L129.24 85.1129L129.935 82.4668L129.646 82.1883C128.883 81.6198 127.992 81.3522 127.097 81.4229C124.955 81.4229 123.449 83.0239 123.449 85.2522C123.449 87.271 124.955 88.3851 126.229 88.9422C127.503 89.4993 127.619 89.9171 127.619 90.404C127.619 91.3098 126.808 91.449 126.345 91.449C125.65 91.3788 124.955 91.1705 124.375 90.7527L123.855 90.404L123.16 93.1191L123.507 93.3286C124.375 93.8856 125.361 94.2333 126.345 94.1642C128.662 94.1642 130.283 92.562 130.283 90.1956C130.225 87.8983 128.662 86.9234 127.503 86.3663ZM134.394 78.847L131.73 79.8218V81.7014H130.34V84.4166H131.788V89.8469C131.73 91.0312 131.962 92.2144 132.541 93.1893C133.12 93.8856 133.873 94.3035 134.683 94.2333C135.263 94.2333 135.784 94.1631 136.305 93.9547L136.653 93.8155L136.537 91.1003L135.958 91.3086C135.668 91.3788 135.437 91.4479 135.147 91.4479C134.858 91.4479 134.394 91.4479 134.394 89.9171V84.4166H136.768V81.7014H134.394V78.847ZM143.196 81.5621L142.733 81.493C142.559 81.493 142.444 81.4229 142.269 81.4229C141.459 81.4229 140.648 81.8407 140.069 82.537V81.6323H137.579V82.3287C137.637 83.2333 137.637 84.3475 137.637 85.7402V93.9547H140.301V87.4804C140.301 87.2019 140.301 86.9234 140.359 86.6448C140.533 85.3914 141.228 84.5558 142.096 84.5558H142.559L143.139 84.6951L143.196 81.5621ZM148.06 81.4229C145.107 81.4229 143.023 84.0689 143.023 87.8982C143.023 91.5883 145.05 94.1642 147.945 94.1642C150.377 94.1642 153.042 92.1454 153.042 87.6888C152.983 83.9988 150.956 81.4229 148.06 81.4229ZM150.261 87.759C150.261 89.9171 149.277 91.449 148.003 91.449C146.729 91.449 145.745 89.9171 145.745 87.8281C145.745 86.4354 146.265 84.138 148.061 84.138C149.798 84.138 150.261 86.5056 150.261 87.759ZM161.728 78.6375C160.858 77.6626 159.527 77.1758 157.789 77.1758C156.689 77.1758 155.589 77.2448 154.547 77.4543L154.142 77.5936V93.8845H156.805V87.8292C157.095 87.8292 157.384 87.8982 157.616 87.8982C159.179 87.9684 160.743 87.3412 161.901 86.0187C162.653 85.0438 163.059 83.6511 163.059 82.3287C163.059 80.936 162.596 79.6135 161.728 78.6386V78.6375ZM160.395 82.3977C160.395 84.6951 158.716 85.0427 157.673 85.0427C157.384 85.0427 157.095 85.0427 156.805 84.9736V80.0302C157.152 79.96 157.5 79.96 157.847 79.96C159.006 80.0302 160.395 80.448 160.395 82.3977ZM171.166 90.6825V86.5758C171.166 83.3035 169.719 81.493 167.171 81.493C166.013 81.493 164.854 81.8407 163.87 82.537L163.523 82.8155L164.218 85.3914L164.797 84.9046C165.434 84.4166 166.187 84.138 166.939 84.2082C167.344 84.138 167.808 84.3475 168.155 84.6951C168.387 84.9736 168.503 85.3914 168.56 85.8092C166.475 85.8794 164.97 86.5056 164.043 87.6197C163.407 88.3851 163.059 89.4302 163.059 90.5432C163.059 92.6322 164.449 94.3035 166.129 94.3035H166.36C167.229 94.3035 168.155 93.9547 168.85 93.3286L168.908 94.0249H171.456L171.398 93.3286C171.241 92.4593 171.163 91.572 171.166 90.6825ZM166.708 91.5181C166.186 91.5883 165.723 91.1003 165.665 90.4741V90.1956C165.665 89.7778 165.781 89.4302 166.013 89.1517C166.302 88.8029 166.997 88.3851 168.561 88.3161V89.6385C168.561 89.7778 168.561 89.9171 168.503 90.1265C168.213 90.9621 167.518 91.5181 166.708 91.5181ZM178.521 81.7014L176.61 88.5946C176.537 88.7677 176.498 88.958 176.494 89.1517C176.436 89.0124 176.378 88.8029 176.321 88.6637L174.235 81.7716H171.34L174.988 92.7715C175.046 92.8417 175.046 92.9108 175.046 93.05C175.046 93.1202 174.988 93.1893 174.988 93.2595C174.699 94.0249 174.293 94.7213 173.715 95.2783C173.309 95.6961 172.904 95.9747 172.44 96.1139L171.977 96.3223L172.672 99.0374L173.135 98.9684C174.004 98.7589 174.757 98.272 175.452 97.5757C176.726 96.183 177.594 94.0249 178.752 90.404L181.358 81.6323L178.521 81.7014Z" fill="white"/>
<path d="M120.495 81.9108C122.233 79.8218 125.129 78.5684 128.314 78.5684C129.53 78.5684 130.746 78.7779 131.904 79.1255H132.02L134.047 78.3601L133.12 77.9423C131.209 77.1757 129.24 76.759 127.272 76.759C124.529 76.6895 121.823 77.5328 119.454 79.1957L119.222 79.3349L120.09 82.3286L120.496 81.9108H120.495Z" fill="#FF0000"/>
</g>
<defs>
<clipPath id="clip0_197_50">
<rect width="47" height="28" fill="white" transform="translate(30 45)"/>
</clipPath>
<clipPath id="clip1_197_50">
<rect width="25" height="25" fill="white" transform="translate(82 45)"/>
</clipPath>
<clipPath id="clip2_197_50">
<rect width="67" height="25" fill="white" transform="translate(112 45)"/>
</clipPath>
<clipPath id="clip3_197_50">
<rect width="101" height="22" fill="white" transform="translate(0 78)"/>
</clipPath>
<clipPath id="clip4_197_50">
<rect width="80" height="22" fill="white" transform="translate(106 78)"/>
</clipPath>
</defs>
</svg>
