<svg xmlns="http://www.w3.org/2000/svg" width="202" height="68" fill="none"><g clip-path="url(#a)"><path fill="#F69220" d="M7.401 14.308 2.281 5.32c-.34-.599-1.09-.8-1.673-.452a1.27 1.27 0 0 0-.44 1.714l5.12 8.989a1.22 1.22 0 0 0 1.057.621c.21 0 .422-.054.616-.171a1.27 1.27 0 0 0 .44-1.714v.001Z"/><path fill="#606060" d="M19.228 11.306c-.02-.637-.212-1.281-.573-1.93-.563-1.007-1.198-1.695-2.058-2.111-.731-.354-1.55-.552-2.393-.461.296-.588.449-1.232.508-1.886.086-.956-.223-1.796-.79-2.801C13.556 1.47 13.108.978 12.58.64a3.962 3.962 0 0 0-1.734-.61 5.505 5.505 0 0 0-1.961.156 9.105 9.105 0 0 0-.683.203c-.088.03-.177.062-.278.099-.407.152-1.479.761-1.843.978l-1.734 1.11-.04.024a1.415 1.415 0 0 0-.506 1.906c.251.451.711.703 1.185.703.23 0 .462-.06.676-.185l.03-.018L8.56 3.328c.266-.158.544-.255.832-.292a1.99 1.99 0 0 1 .836.065c.27.079.523.213.759.398.235.186.43.414.585.687.155.272.257.562.308.867.05.306.051.598.002.876a2.053 2.053 0 0 1-.297.767c-.15.23-.35.422-.602.572L9.254 8.326l-.736.436-.477.281a1.343 1.343 0 0 0-.473 1.81c.24.426.674.663 1.122.663.22 0 .442-.057.646-.177l.958-.567 2.454-1.373c.254-.149.517-.23.786-.246.272-.016.537.025.796.121a2.586 2.586 0 0 1 1.315 1.15c.153.275.248.563.286.865.038.302.024.594-.045.872-.068.28-.19.537-.366.774a2.2 2.2 0 0 1-.664.59l-4.254 2.481-.209.123-.767.456-1.488.822a1.396 1.396 0 0 0-.547 1.868c.244.462.707.725 1.187.725.215 0 .434-.053.638-.165l3.673-2.027 2.944-1.65a7.707 7.707 0 0 0 1.722-1.354 5.76 5.76 0 0 0 1.118-1.658c.257-.59.376-1.204.356-1.843l-.001.003ZM60.51 9.013c.46-.22 1.121-.877 1.121-1.897 0-1.574-1.026-2.58-2.783-2.58h-2.55c-.257 0-.579 0-.824.252s-.245.58-.245.844v6.991c0 .264 0 .594.245.845.246.251.567.251.825.251h2.7c1.606 0 2.758-.928 2.758-2.644 0-1.225-.698-1.805-1.247-2.063Zm-3.52-2.876h1.718c.744 0 1.158.426 1.158 1.057 0 .632-.416 1.057-1.158 1.057H56.99V6.136v.001Zm1.832 5.985H56.99V9.864h1.832c.794 0 1.171.504 1.171 1.122 0 .618-.377 1.135-1.17 1.135v.001ZM65.741 6.923c-1.7 0-2.852 1.244-2.852 3.438 0 2.715 1.48 3.438 3.034 3.438.724 0 1.34-.155 1.789-.465.377-.258.642-.549.642-.864 0-.387-.347-.703-.661-.703-.195 0-.353.064-.61.252-.322.244-.725.361-1.134.361-.951 0-1.448-.625-1.448-1.496h3.155c.246 0 .51 0 .717-.213.195-.2.227-.49.221-.748-.057-1.696-1.083-2.999-2.853-2.999v-.001Zm-1.24 2.811c.006-.29.038-.484.145-.728.17-.4.548-.69 1.095-.69.548 0 .925.29 1.103.69.106.244.131.438.144.728h-2.487ZM72.334 8.484c.309 0 .422-.02.555-.09.194-.104.301-.303.301-.555 0-.252-.107-.451-.301-.555-.132-.07-.246-.09-.555-.09h-.492v-.896c0-.407-.019-.568-.107-.748-.12-.245-.377-.4-.711-.4-.334 0-.591.154-.711.4-.088.18-.107.341-.107.748v.896h-.164c-.309 0-.422.02-.555.09-.195.104-.301.303-.301.555 0 .252.106.451.301.555.132.07.246.09.555.09h.164v3.315c0 .98.535 1.922 1.895 1.922h.088c.315 0 .529-.04.674-.116.194-.103.327-.303.327-.6 0-.296-.126-.496-.328-.6-.138-.07-.283-.09-.491-.103-.416-.025-.529-.277-.529-.593V8.484h.492ZM76.74 8.484c.309 0 .422-.02.555-.09.195-.104.302-.303.302-.555 0-.252-.107-.451-.302-.555-.132-.07-.246-.09-.555-.09h-.491v-.896c0-.407-.02-.568-.107-.748-.12-.245-.378-.4-.712-.4-.334 0-.591.154-.711.4-.088.18-.107.341-.107.748v.896h-.164c-.309 0-.421.02-.554.09-.195.104-.302.303-.302.555 0 .252.107.451.302.555.131.07.245.09.554.09h.164v3.315c0 .98.536 1.922 1.895 1.922h.088c.315 0 .529-.04.674-.116.194-.103.328-.303.328-.6 0-.296-.126-.496-.328-.6-.14-.07-.284-.09-.492-.103-.416-.025-.528-.277-.528-.593V8.484h.491ZM81.16 6.923c-1.699 0-2.852 1.244-2.852 3.438 0 2.715 1.48 3.438 3.034 3.438.725 0 1.341-.155 1.789-.465.377-.258.642-.549.642-.864 0-.387-.346-.703-.661-.703-.195 0-.353.064-.61.252-.321.244-.725.361-1.134.361-.95 0-1.447-.625-1.447-1.496h3.154c.246 0 .51 0 .717-.213.195-.2.227-.49.221-.748-.057-1.696-1.083-2.999-2.852-2.999v-.001Zm-1.24 2.811c.007-.29.039-.484.146-.728.17-.4.547-.69 1.095-.69.547 0 .925.29 1.102.69.107.244.131.438.145.728H79.92ZM89.584 7.233c-.295-.2-.623-.309-1.133-.309-.648 0-1.247.342-1.561.729-.038-.245-.113-.387-.246-.51a.724.724 0 0 0-.523-.193c-.308 0-.585.154-.705.387-.101.193-.12.322-.12.754v4.534c0 .406.019.568.107.748.12.244.377.4.711.4.334 0 .592-.155.712-.4.088-.18.107-.342.107-.748V9.67c0-.852.541-1.238 1.088-1.238.221 0 .428.07.624.174.22.115.397.174.56.174a.772.772 0 0 0 .548-.233.883.883 0 0 0 .246-.613c0-.29-.17-.535-.416-.703l.001.001Z"/><path fill="#F69220" d="M32.827 4.415a.909.909 0 0 0-.557.158c-.223.147-.39.424-.468.578L29.64 9.37l-2.164-4.22c-.078-.153-.245-.431-.467-.577a.908.908 0 0 0-.558-.16.857.857 0 0 0-.637.265c-.235.24-.282.529-.282.914v6.909c0 .41.01.575.127.815.15.283.463.46.818.46.355 0 .669-.177.818-.463.117-.237.126-.402.126-.812V8.67l1.319 2.66c.209.421.422.666.9.666.477 0 .691-.245.9-.667l1.318-2.659v3.83c0 .412.01.576.127.816.15.283.464.46.819.46.355 0 .668-.177.82-.463.115-.237.125-.402.125-.812V5.593c0-.385-.047-.674-.283-.914a.86.86 0 0 0-.636-.264h-.003ZM39.953 6.86c-.348 0-.635.163-.768.436-.096.197-.114.375-.114.775v2.945c0 1.05-.78 1.133-1.018 1.133-.239 0-1.005-.082-1.005-1.133V8.071c0-.4-.016-.576-.114-.775-.133-.273-.42-.436-.768-.436-.348 0-.635.163-.768.436-.097.197-.115.375-.115.775v3.176c0 .874.205 1.455.683 1.946.39.399.939.609 1.587.609.606 0 1.192-.235 1.595-.635a.791.791 0 0 0 .798.608c.33 0 .63-.165.761-.422.112-.214.127-.359.127-.783V8.069c0-.4-.016-.577-.114-.775-.133-.274-.42-.437-.768-.437l.001.003ZM44.966 8.489c.27 0 .463.071.74.274.241.18.4.245.603.245a.771.771 0 0 0 .55-.24.843.843 0 0 0 .25-.593c0-.475-.447-.808-.823-1.004-.395-.235-.785-.336-1.31-.336-.554 0-1.35.123-1.994.708-.66.598-.993 1.53-.993 2.77 0 1.241.332 2.175.99 2.776.644.59 1.435.714 1.986.714.51 0 .905-.098 1.322-.328.554-.313.824-.643.824-1.011a.828.828 0 0 0-.25-.594.79.79 0 0 0-.552-.247c-.22 0-.395.099-.604.258-.258.195-.459.268-.74.268-.365 0-.64-.13-.865-.409-.24-.308-.346-.748-.346-1.428 0-.68.107-1.107.346-1.415.213-.265.505-.402.865-.408h.001ZM52.991 7.445c-.39-.4-.938-.61-1.587-.61-.609 0-1.083.184-1.517.594V5.627c0-.4-.017-.576-.114-.775-.133-.273-.42-.436-.769-.436-.348 0-.635.163-.768.436-.096.198-.114.375-.114.775v6.94c0 .4.017.577.114.775.133.274.42.437.768.437.348 0 .636-.163.769-.437.096-.198.114-.374.114-.775V9.622c0-1.05.779-1.132 1.017-1.132.24 0 1.005.081 1.005 1.132v2.945c0 .4.017.577.114.775.133.274.42.437.769.437.348 0 .635-.163.768-.437.096-.197.114-.374.114-.775V9.392c0-.873-.204-1.455-.683-1.946v-.001Z"/></g><mask id="b" width="53" height="13" x="97" y="7" maskUnits="userSpaceOnUse" style="mask-type:luminance"><path fill="#fff" d="M149.126 7.06H97.533v12.697h51.593V7.061Z"/></mask><g mask="url(#b)"><path fill="#fff" d="M104.373 11.959v-.14c0-1.599-.719-2.363-1.849-2.363-1.131 0-1.867.817-1.867 2.346v.139c0 1.546.7 2.329 1.867 2.329s1.849-.817 1.849-2.311Zm-.7-4.849c2.19 0 3.967 1.599 3.967 4.71v.139c0 3.127-1.777 4.691-3.986 4.691-1.417 0-2.441-.642-2.908-1.546v4.379h-3.213V7.353h3.213v1.355c.539-.868 1.509-1.598 2.927-1.598ZM115.309 11.892v-.14c0-1.581-.681-2.345-1.759-2.345-1.131 0-1.795.781-1.795 2.363v.139c0 1.529.682 2.311 1.741 2.311 1.059 0 1.813-.781 1.813-2.329Zm-6.822.052v-.14c.001-3.093 1.832-4.743 3.932-4.743 1.418 0 2.263.59 2.801 1.511V7.304h3.213v9.088h-3.213v-1.46c-.485.921-1.472 1.668-2.819 1.668-2.082 0-3.913-1.512-3.913-4.657M124.86 12.202l1.796-4.849h3.07l-5.027 12.13h-3.07l1.562-3.962-3.752-8.168h3.482l1.939 4.849ZM129.891 16.442v-2.155l4.273-4.587h-3.752l-.018-2.347h7.522v2.294l-4.093 4.431h4.398v2.364h-8.33Z"/><path fill="#D0FA02" d="M139.737 15.222c.037-2.503 1.995-4.554 4.657-4.554 2.661 0 4.733 2.051 4.733 4.554s-2.015 4.535-4.733 4.535c-2.718 0-4.657-2.013-4.657-4.535Z"/></g><path fill="#872165" d="M185.106 18.108h3.578V7.493h-3.578v10.615ZM183.083 7.34c-3.307.115-4.987 1.68-4.987 4.792v5.976h3.614V13.24c0-1.871.235-2.673 2.33-2.75V7.379a4.66 4.66 0 0 0-.74-.057l-.217.02ZM156 8.22c0 1.221.506 4.104 5.113 4.448.398.019 1.427.095 1.427 1.126 0 .84-.849 1.356-2.276 1.356a11.619 11.619 0 0 1-4.011-.84v3.398c1.554.401 3.162.592 4.77.573 3.938 0 5.709-2.348 5.709-4.678 0-2.634-1.987-4.353-5.294-4.582-.451-.038-1.499-.095-1.499-1.107 0-1.203 1.499-1.203 2.077-1.203.994 0 2.277.306 3.198.611 0 0 .506.191.958.382l.036.02V4.4l-.054-.019c-1.084-.4-2.349-.783-4.68-.783-4.047 0-5.474 2.482-5.474 4.62Zm11.635-3.857v13.746h3.686v-4.257c1.066 1.699 1.608 4.257 1.608 4.257h4.426c-.433-1.928-2.348-5.46-2.348-5.46a17.753 17.753 0 0 0 2.601-5.155h-4.245a13.559 13.559 0 0 1-2.042 3.704V3.598l-3.686.764Zm22.566-.096v13.842h3.578V3.598l-3.578.668Zm5.222 0v13.842H199V3.598l-3.577.668Zm-8.528-1.527c-.976 0-1.771.84-1.771 1.871 0 1.031.795 1.871 1.771 1.871.976 0 1.771-.84 1.771-1.87-.019-1.032-.795-1.872-1.771-1.872Z"/><mask id="c" width="43" height="17" x="156" y="2" maskUnits="userSpaceOnUse" style="mask-type:luminance"><path fill="#fff" d="M185.106 18.108h3.578V7.493h-3.578v10.615ZM183.083 7.34c-3.307.115-4.987 1.68-4.987 4.792v5.976h3.614V13.24c0-1.871.235-2.673 2.33-2.75V7.379a4.66 4.66 0 0 0-.74-.057l-.217.02ZM156 8.22c0 1.221.506 4.104 5.113 4.448.398.019 1.427.095 1.427 1.126 0 .84-.849 1.356-2.276 1.356a11.619 11.619 0 0 1-4.011-.84v3.398c1.554.401 3.162.592 4.77.573 3.938 0 5.709-2.348 5.709-4.678 0-2.634-1.987-4.353-5.294-4.582-.451-.038-1.499-.095-1.499-1.107 0-1.203 1.499-1.203 2.077-1.203.994 0 2.277.306 3.198.611 0 0 .506.191.958.382l.036.02V4.4l-.054-.019c-1.084-.4-2.349-.783-4.68-.783-4.047 0-5.474 2.482-5.474 4.62Zm11.635-3.857v13.746h3.686v-4.257c1.066 1.699 1.608 4.257 1.608 4.257h4.426c-.433-1.928-2.348-5.46-2.348-5.46a17.753 17.753 0 0 0 2.601-5.155h-4.245a13.559 13.559 0 0 1-2.042 3.704V3.598l-3.686.764Zm22.566-.096v13.842h3.578V3.598l-3.578.668Zm5.222 0v13.842H199V3.598l-3.577.668Zm-8.528-1.527c-.976 0-1.771.84-1.771 1.871 0 1.031.795 1.871 1.771 1.871.976 0 1.771-.84 1.771-1.87-.019-1.032-.795-1.872-1.771-1.872Z"/></mask><g mask="url(#c)"><path fill="#872165" d="M199 2.74h-43v15.52h43V2.74Z"/></g><path fill="#83BA3B" d="M51.746 35.333c-.663-.662-1.667-.995-2.983-.995h-3.445L44.035 44.46h-4.514l.29-2.296h2.72l.322-2.58-2.718.006.291-2.286h2.801l.373-2.966h-5.689l-1.216 9.602H34.61l1.224-9.602H32.86l-1.217 9.602H29.61l1.226-9.602h-2.973L26.581 44.46h-4.547l.288-2.296h2.73l.322-2.565-2.727-.004.29-2.29h2.832l.37-2.968H8.413L7.404 42.36l-2.01-8.022H2.31L.65 47.428h2.946L4.6 39.186l1.95 8.242H17.11l1.284-10.125h1.65l-1.283 10.125h27.783l.806-6.391 1.303 6.391H51.6l-1.35-5.222.308-.097c.68-.212 1.212-.668 1.581-1.352.37-.69.557-1.575.557-2.64 0-1.238-.311-2.149-.952-2.785h.001Zm-37.2 9.127h-4.51l.291-2.296h2.829l.32-2.587h-2.801l.27-2.273h4.503l-.903 7.156Zm34.771-4.41c-.296.303-.726.45-1.313.45h-.583l.447-3.514h.428c.488 0 .844.114 1.09.346.191.182.42.543.42 1.224-.001.824-.267 1.267-.49 1.495h.001Z"/><g clip-path="url(#d)"><path fill="#fff" d="m66.99 31.706-3.987 13.363h2.363l1.132-3.93h3.248l1.182 3.93h2.412l-4.036-13.363H66.99Zm2.166 7.299H67.09l.836-2.977c.05-.224.099-.392.148-.617.05.225.098.394.197.618l.886 2.975Zm8.122 0c-1.083-.506-1.182-.731-1.182-1.068 0-.45.344-.73.837-.73.492 0 .935.17 1.378.45l.443.337.59-2.134-.245-.225a3.31 3.31 0 0 0-2.166-.617c-1.821 0-3.102 1.29-3.102 3.088 0 1.628 1.28 2.527 2.364 2.976 1.083.45 1.181.786 1.181 1.179 0 .73-.689.843-1.083.843-.59-.057-1.181-.225-1.674-.562l-.442-.281-.591 2.19.295.169c.738.449 1.576.73 2.412.674 1.97 0 3.348-1.293 3.348-3.201-.05-1.853-1.379-2.64-2.363-3.089Zm5.857-6.065-2.264.787v1.515h-1.182v2.19h1.231v4.38c-.05.955.147 1.909.64 2.695.492.562 1.132.899 1.82.842.493 0 .937-.056 1.38-.224l.295-.113-.099-2.19-.492.168c-.246.057-.443.113-.69.113-.245 0-.639 0-.639-1.235v-4.436h2.018v-2.19h-2.018V32.94Zm7.482 2.19-.394-.056c-.147 0-.246-.056-.394-.056-.688 0-1.378.337-1.87.898v-.73h-2.117v.562c.05.73.05 1.628.05 2.752v6.624h2.264v-5.22c0-.226 0-.45.049-.675.148-1.01.739-1.685 1.477-1.685h.394l.492.113.049-2.527Zm4.134-.112c-2.51 0-4.282 2.134-4.282 5.222 0 2.976 1.723 5.053 4.184 5.053 2.068 0 4.332-1.628 4.332-5.222-.05-2.976-1.772-5.053-4.234-5.053Zm1.871 5.11c0 1.74-.836 2.976-1.92 2.976-1.082 0-1.919-1.236-1.919-2.92 0-1.124.443-2.977 1.97-2.977 1.475 0 1.87 1.91 1.87 2.92Zm9.747-7.357c-.739-.786-1.871-1.179-3.348-1.179-.935 0-1.87.056-2.756.225l-.345.112v13.139h2.264v-4.884c.247 0 .493.056.689.056a4.656 4.656 0 0 0 3.643-1.516c.639-.786.984-1.91.984-2.976 0-1.123-.393-2.19-1.131-2.976Zm-1.133 3.033c0 1.853-1.427 2.133-2.314 2.133-.245 0-.491 0-.738-.056v-3.986c.296-.057.591-.057.886-.057.985.056 2.166.393 2.166 1.966Zm9.155 6.681v-3.312c0-2.639-1.23-4.099-3.395-4.099-.985 0-1.97.28-2.806.842l-.296.225.591 2.077.492-.392c.542-.394 1.182-.619 1.822-.562.344-.057.738.112 1.033.393.197.224.295.561.344.898-1.772.057-3.051.562-3.839 1.46-.541.618-.837 1.46-.837 2.358 0 1.685 1.182 3.033 2.609 3.033h.197c.738 0 1.526-.282 2.117-.786l.049.561h2.166l-.05-.561a11.29 11.29 0 0 1-.197-2.134Zm-3.789.674c-.444.057-.838-.337-.886-.841v-.225c0-.337.098-.618.295-.842.246-.281.836-.618 2.166-.674v1.067c0 .112 0 .224-.05.393-.246.674-.837 1.122-1.525 1.122Zm10.041-7.917-1.625 5.56c-.061.14-.095.293-.098.449-.049-.112-.099-.281-.147-.394L117 35.3h-2.461l3.101 8.871c.049.057.049.113.049.225 0 .056-.049.112-.049.169-.246.617-.591 1.179-1.082 1.628-.345.337-.69.562-1.084.674l-.393.168.59 2.19.394-.056c.738-.169 1.379-.562 1.969-1.123 1.083-1.123 1.821-2.864 2.806-5.784l2.215-7.074-2.412.055Z"/><path fill="red" d="M71.321 35.411c1.477-1.684 3.939-2.695 6.646-2.695a11.2 11.2 0 0 1 3.052.449h.098l1.723-.617-.788-.337c-1.624-.619-3.298-.955-4.971-.955-2.332-.056-4.631.624-6.645 1.965l-.197.113.738 2.414.345-.337Z"/></g><path fill="#1434CB" d="M152.822 34.452c-2.235 0-4.242 1.22-4.242 3.457 0 2.576 3.545 2.752 3.545 4.034 0 .54-.601 1.031-1.61 1.031-1.442 0-2.524-.679-2.524-.679l-.457 2.263s1.238.578 2.897.578c2.451 0 4.374-1.27 4.374-3.557 0-2.715-3.557-2.891-3.557-4.085 0-.427.492-.892 1.502-.892 1.141 0 2.079.49 2.079.49l.456-2.187c-.012 0-1.033-.453-2.463-.453Zm-20.477.163-.06.327s.937.176 1.79.54c1.094.416 1.166.654 1.358 1.396l2.007 8.082h2.692l4.122-10.345h-2.68l-2.656 7.04-1.081-5.971c-.096-.679-.601-1.069-1.226-1.069h-4.266Zm12.99 0-2.103 10.345h2.56l2.091-10.345h-2.548Zm14.252 0c-.612 0-.937.34-1.177.943l-3.749 9.402h2.679l.517-1.571h3.269l.312 1.571h2.367l-2.054-10.345h-2.164Zm.349 2.803.793 3.884h-2.127l1.334-3.883Z"/><g clip-path="url(#e)"><path fill="#00B1EA" d="M184.564 32.395c-8.434 0-15.275 4.298-15.275 9.597 0 5.3 6.841 10.014 15.275 10.014 8.434 0 15.276-4.711 15.276-10.014 0-5.302-6.835-9.596-15.276-9.596Z"/><path fill="#fff" d="M179.601 39.025s-.157.164-.061.287c.235.297.966.465 1.703.304.439-.098 1.005-.535 1.547-.962a6.237 6.237 0 0 1 1.781-1.106c.415-.15.868-.162 1.29-.035.428.157.826.386 1.176.675 1.023.756 5.142 4.284 5.854 4.9a39.913 39.913 0 0 1 6.771-2.1c-.303-1.81-1.426-3.538-3.115-4.9-2.373.98-5.466 1.565-8.302.207a7.956 7.956 0 0 0-3.061-.683c-2.248.053-3.225 1.008-4.254 2.02l-1.329 1.393Z"/><path fill="#fff" d="M192.703 43.473c-.05-.042-4.839-4.161-5.93-4.963a2.685 2.685 0 0 0-1.343-.627 1.947 1.947 0 0 0-.641.06 5.823 5.823 0 0 0-1.753 1.026c-.606.475-1.18.923-1.711 1.05-.642.13-1.31.032-1.885-.277a.834.834 0 0 1-.313-.35.554.554 0 0 1 .16-.616l1.326-1.4.466-.451c-.407.06-.809.15-1.204.266-.461.15-.94.236-1.425.258a13.743 13.743 0 0 1-1.426-.22 23.807 23.807 0 0 1-4.122-1.355c-1.882 1.376-3.107 3.063-3.471 4.956.271.07.976.228 1.162.27 4.254.931 5.58 1.886 5.822 2.1a1.41 1.41 0 0 1 1.134-.462 1.407 1.407 0 0 1 1.072.588c.288-.227.646-.35 1.015-.35.207.003.411.038.606.105.19.059.364.157.512.288.148.131.265.292.343.471.186-.081.388-.123.592-.122.245.002.488.055.712.154.31.142.562.383.714.684.152.3.196.643.124.972.055-.004.111-.004.167 0a1.71 1.71 0 0 1 .837.214c.255.142.468.346.618.594a1.63 1.63 0 0 1 .031 1.642c.44.264.949.398 1.464.384a.96.96 0 0 0 .688-.294c.043-.059.089-.125.046-.174l-1.2-1.31s-.2-.181-.132-.255c.068-.074.192.032.274.102a22.78 22.78 0 0 1 1.354 1.256s.061.105.357.154a1.271 1.271 0 0 0 .951-.217c.076-.064.146-.135.21-.21a.616.616 0 0 0-.035-.777l-1.429-1.561s-.203-.182-.132-.255c.071-.074.192.035.278.105.442.35 1.069.983 1.671 1.56a1.156 1.156 0 0 0 1.343-.045.946.946 0 0 0 .496-.861.988.988 0 0 0-.3-.574l-1.917-1.89s-.203-.168-.128-.255c.075-.088.192.031.274.101.61.504 2.259 1.988 2.259 1.988a1.182 1.182 0 0 0 1.297-.025.847.847 0 0 0 .428-.675.928.928 0 0 0-.306-.777Z"/><path fill="#fff" d="M183.417 45.867c-.225.03-.447.079-.663.147-.021 0 .018-.13.046-.2.029-.07.421-1.221-.534-1.624a1.14 1.14 0 0 0-1.329.196c-.039.042-.057.039-.061 0a1.038 1.038 0 0 0-.216-.594 1.072 1.072 0 0 0-.525-.365 1.45 1.45 0 0 0-.91.017 1.42 1.42 0 0 0-.715.554 1.013 1.013 0 0 0-.306-.596 1.048 1.048 0 0 0-1.7.396 1 1 0 0 0-.002.668c.076.216.224.401.42.525a1.053 1.053 0 0 0 1.278-.122v.035c-.07.317-.023.648.135.933.158.285.415.504.724.618a1.043 1.043 0 0 0 1.008-.154c.086-.056.097-.035.086.045-.036.235 0 .746.734 1.033a.945.945 0 0 0 1.09-.2c.093-.084.118-.07.121.06.013.252.101.495.252.7.152.203.361.359.602.447a1.323 1.323 0 0 0 1.41-.318 1.28 1.28 0 0 0 .26-1.397 1.301 1.301 0 0 0-.483-.57 1.33 1.33 0 0 0-.722-.217v-.017Z"/><path fill="#2D3277" d="M184.564 32C175.97 32 169 36.49 169 42v.58c0 5.846 6.093 10.578 15.564 10.578 9.532 0 15.564-4.733 15.564-10.578v-.584c0-5.506-6.969-9.996-15.564-9.996Zm14.862 8.89a36.08 36.08 0 0 0-6.538 2.1c-1.479-1.267-4.889-4.179-5.812-4.861a4.092 4.092 0 0 0-1.208-.7 2.052 2.052 0 0 0-.591-.092 2.537 2.537 0 0 0-.752.123 6.133 6.133 0 0 0-1.782 1.099l-.032.021c-.534.42-1.09.85-1.511.945-.182.04-.368.06-.555.06a1.446 1.446 0 0 1-1.052-.35c-.024-.035 0-.088.054-.161l1.297-1.376c1.019-1.001 1.977-1.943 4.19-1.995h.111a8.013 8.013 0 0 1 2.907.675 9.115 9.115 0 0 0 3.988.953 10.49 10.49 0 0 0 4.34-1.019c1.582 1.299 2.626 2.87 2.946 4.578Zm-14.862-8.302c4.561 0 8.645 1.285 11.402 3.307a9.764 9.764 0 0 1-3.812.847 8.552 8.552 0 0 1-3.71-.878 8.454 8.454 0 0 0-3.164-.735h-.124a5.526 5.526 0 0 0-3.606 1.26 7.292 7.292 0 0 0-1.803.322 5.001 5.001 0 0 1-1.269.242h-.481a25.106 25.106 0 0 1-4.547-1.236c2.73-1.922 6.699-3.125 11.114-3.125v-.004Zm-11.662 3.5c1.895.76 4.201 1.355 4.931 1.4.203 0 .421.038.638.038.485-.022.965-.11 1.425-.262.275-.074.581-.158.902-.217-.086.084-.171.165-.257.252l-1.322 1.4a.645.645 0 0 0-.178.7c.08.157.203.288.356.378.427.237.911.358 1.401.35.187.001.373-.018.556-.056.552-.119 1.133-.578 1.749-1.05a5.829 5.829 0 0 1 1.718-1.008c.157-.041.318-.062.481-.063a.627.627 0 0 1 .121 0c.483.08.933.29 1.3.609 1.069.798 5.88 4.918 5.923 4.96a.901.901 0 0 1 .285.7.751.751 0 0 1-.382.598c-.187.122-.406.19-.63.193-.197 0-.39-.055-.556-.158-.018 0-1.661-1.491-2.263-1.991a.514.514 0 0 0-.281-.151.179.179 0 0 0-.069.015.176.176 0 0 0-.056.041c-.096.116 0 .273.139.378l1.92 1.894a.894.894 0 0 1 .268.51.86.86 0 0 1-.453.78 1.244 1.244 0 0 1-.68.221.973.973 0 0 1-.546-.164l-.274-.266c-.502-.486-1.023-.99-1.404-1.302a.51.51 0 0 0-.285-.147.156.156 0 0 0-.121.052c-.043.05-.071.13.036.273a.844.844 0 0 0 .096.105l1.4 1.544a.52.52 0 0 1 .032.662l-.05.059c-.042.045-.089.087-.128.122a1.147 1.147 0 0 1-.684.214 1.02 1.02 0 0 1-.193 0 .478.478 0 0 1-.274-.112l-.018-.017a22.444 22.444 0 0 0-1.364-1.264.481.481 0 0 0-.271-.144.168.168 0 0 0-.125.056c-.114.123.057.312.132.379l1.194 1.295a.217.217 0 0 1-.047.077c-.043.056-.185.199-.623.255a1.138 1.138 0 0 1-.161 0 2.762 2.762 0 0 1-1.168-.35 1.732 1.732 0 0 0-.752-2.274 1.807 1.807 0 0 0-.855-.218h-.065a1.521 1.521 0 0 0-.188-.956 1.566 1.566 0 0 0-.731-.657 1.93 1.93 0 0 0-.745-.162c-.186 0-.371.034-.545.099a1.49 1.49 0 0 0-.869-.728 1.956 1.956 0 0 0-.642-.109 1.693 1.693 0 0 0-.997.315 1.508 1.508 0 0 0-.522-.409 1.535 1.535 0 0 0-1.72.283c-.356-.277-1.845-1.2-5.793-2.083a20.341 20.341 0 0 1-.888-.241c.378-1.74 1.504-3.328 3.172-4.634v-.014Zm7.319 10.094-.043-.038h-.043a.223.223 0 0 0-.121.049c-.17.128-.377.2-.592.206a.938.938 0 0 1-.327-.063 1.269 1.269 0 0 1-.679-.58 1.236 1.236 0 0 1-.12-.876.118.118 0 0 0-.004-.065.123.123 0 0 0-.035-.054l-.064-.053-.06.056a.963.963 0 0 1-1.564-.359.924.924 0 0 1 .386-1.096.963.963 0 0 1 1.174.116c.154.147.253.34.281.549l.036.252.143-.214a1.389 1.389 0 0 1 1.108-.595c.14.001.279.023.413.063a.956.956 0 0 1 .674.879c0 .118.099.125.114.125a.16.16 0 0 0 .11-.056.957.957 0 0 1 .713-.286c.181.002.359.041.523.115.895.378.489 1.491.485 1.505-.075.182-.082.266 0 .315h.061a.554.554 0 0 0 .171-.045 1.56 1.56 0 0 1 .477-.105c.323.003.632.13.86.355.229.225.359.528.362.845.007.317-.114.625-.338.854a1.229 1.229 0 0 1-1.723.037 1.185 1.185 0 0 1-.376-.839c0-.056 0-.203-.132-.203a.242.242 0 0 0-.149.074.866.866 0 0 1-.599.266 1.042 1.042 0 0 1-.392-.084c-.695-.276-.713-.745-.677-.934a.131.131 0 0 0-.053-.102v-.014Zm4.343 5.204c-8.267 0-14.965-4.2-14.965-9.408 0-.21 0-.416.035-.623l.859.2c4.03.882 5.345 1.795 5.587 1.967a1.472 1.472 0 0 0 .67 1.887 1.536 1.536 0 0 0 .991.157c.061.294.198.567.397.794.2.227.456.4.743.501a1.518 1.518 0 0 0 .894.06c.139.286.355.53.625.703.271.174.585.27.907.28.159 0 .316-.028.464-.084.112.267.29.503.518.686a1.802 1.802 0 0 0 1.657.316 1.79 1.79 0 0 0 .743-.446 3.37 3.37 0 0 0 1.507.442c.076.005.152.005.228 0a1.41 1.41 0 0 0 1.023-.49.672.672 0 0 0 .064-.102c.157.047.32.072.485.074.354-.01.695-.133.972-.35.294-.19.501-.486.578-.823.106.023.215.034.324.035a1.83 1.83 0 0 0 1.001-.312c.225-.127.409-.311.535-.534a1.38 1.38 0 0 0 .178-.729c.109.023.22.034.331.035.335-.002.662-.1.941-.283a1.335 1.335 0 0 0 .652-1.05 1.409 1.409 0 0 0-.207-.844 39.31 39.31 0 0 1 6.214-1.914c0 .154.018.311.018.468 0 5.191-6.702 9.401-14.969 9.401v-.014Z"/></g><defs><clipPath id="a"><path fill="#fff" d="M0 0h90v20H0z"/></clipPath><clipPath id="d"><path fill="#fff" d="M59 32h68v18H59z"/></clipPath><clipPath id="e"><path fill="#fff" d="M169 32h31v21h-31z"/></clipPath></defs></svg>