<svg width="202" height="94" viewBox="0 0 202 94" fill="none" xmlns="http://www.w3.org/2000/svg">
<g clip-path="url(#clip0_226_11)">
<path d="M7.40122 24.3081L2.28134 15.3196C1.94049 14.7211 1.19109 14.5192 0.607962 14.8683C0.0236466 15.2174 -0.1735 15.985 0.16735 16.5823L5.28723 25.5708C5.51526 25.9698 5.92499 26.1924 6.34542 26.1924C6.55444 26.1924 6.76703 26.1377 6.96061 26.0209C7.54492 25.6718 7.74207 24.9042 7.40122 24.3069V24.3081Z" fill="#F69220"/>
<path d="M19.2278 21.3059C19.2076 20.6685 19.0164 20.0249 18.6553 19.3766C18.0924 18.3693 17.457 17.6808 16.5972 17.2648C15.8656 16.9108 15.0473 16.7125 14.2041 16.8037C14.4998 16.2162 14.653 15.5714 14.7124 14.9182C14.7979 13.9621 14.4891 13.1215 13.9214 12.1167C13.5568 11.4707 13.1091 10.9781 12.5806 10.6399C12.0533 10.3017 11.4749 10.0973 10.8467 10.0292C10.2184 9.96108 9.56521 10.0134 8.88588 10.1861C8.66854 10.2409 8.43695 10.3102 8.20299 10.3893C8.11511 10.4185 8.02603 10.4513 7.92509 10.4878C7.51773 10.6399 6.44648 11.2493 6.08188 11.4659L4.34793 12.5765L4.30874 12.5996C3.65436 12.9828 3.42752 13.8355 3.80162 14.5058C4.0534 14.9571 4.51302 15.2089 4.98688 15.2089C5.21609 15.2089 5.44887 15.1493 5.66264 15.024L5.69233 15.0058L8.56047 13.3283C8.8265 13.1701 9.1044 13.0728 9.39181 13.0363C9.68041 12.9986 9.95831 13.0205 10.2279 13.1008C10.4975 13.1799 10.7505 13.3137 10.9868 13.4986C11.222 13.6847 11.4179 13.9134 11.5723 14.1859C11.7267 14.4584 11.8288 14.7479 11.8799 15.0532C11.9298 15.3586 11.931 15.6505 11.8823 15.9291C11.8336 16.2077 11.735 16.4631 11.5854 16.6955C11.4357 16.9266 11.235 17.1176 10.9832 17.2684L9.25405 18.3255L8.51771 18.7623L8.04147 19.0433C7.42272 19.4094 7.21013 20.2196 7.56761 20.8534C7.80751 21.2791 8.24218 21.5163 8.68992 21.5163C8.90963 21.5163 9.13172 21.4592 9.33599 21.3387L10.2944 20.7719L12.7481 19.3985C13.0022 19.2501 13.2647 19.1686 13.5343 19.1527C13.8062 19.1369 14.0711 19.1783 14.33 19.2744C14.5889 19.3705 14.8347 19.5189 15.0675 19.7172C15.2991 19.9155 15.4915 20.1515 15.6447 20.4252C15.7979 20.6989 15.8929 20.9872 15.9309 21.2889C15.9689 21.5905 15.9547 21.8825 15.8858 22.1611C15.8181 22.4409 15.6958 22.6975 15.52 22.9347C15.3442 23.172 15.1233 23.3678 14.8561 23.5247L10.602 26.0063L10.393 26.1292L9.62578 26.5854L8.13767 27.4065C7.48328 27.7678 7.23863 28.6035 7.59136 29.275C7.83482 29.7373 8.298 30 8.77781 30C8.99277 30 9.21248 29.9465 9.41556 29.8346L13.0889 27.8079L16.0331 26.1572C16.6946 25.7703 17.2682 25.319 17.7551 24.8045C18.2421 24.2899 18.615 23.7376 18.8727 23.1464C19.1304 22.5564 19.2492 21.9421 19.229 21.3035L19.2278 21.3059Z" fill="#606060"/>
<path d="M60.5099 19.0128C60.9695 18.7939 61.631 18.1358 61.631 17.1164C61.631 15.5422 60.6049 14.5362 58.8484 14.5362H56.2986C56.0409 14.5362 55.719 14.5362 55.4744 14.788C55.2285 15.0398 55.2285 15.3683 55.2285 15.6323V22.6233C55.2285 22.8873 55.2285 23.217 55.4744 23.4676C55.7202 23.7194 56.0409 23.7194 56.2986 23.7194H58.9993C60.6049 23.7194 61.7569 22.7912 61.7569 21.0748C61.7569 19.8498 61.0586 19.2695 60.5099 19.0116V19.0128ZM56.9898 16.1371H58.7083C59.4517 16.1371 59.8662 16.5629 59.8662 17.1942C59.8662 17.8256 59.4505 18.2513 58.7083 18.2513H56.9898V16.1359V16.1371ZM58.8223 22.1221H56.9898V19.8644H58.8223C59.6156 19.8644 59.9933 20.368 59.9933 20.986C59.9933 21.6039 59.6156 22.1209 58.8223 22.1209V22.1221Z" fill="#606060"/>
<path d="M65.7414 16.9229C64.0419 16.9229 62.8887 18.1674 62.8887 20.3607C62.8887 23.0759 64.3685 23.7984 65.9231 23.7984C66.6475 23.7984 67.2639 23.6439 67.7116 23.3337C68.0893 23.0759 68.3542 22.7851 68.3542 22.4701C68.3542 22.0832 68.0074 21.7669 67.6926 21.7669C67.4979 21.7669 67.3399 21.8314 67.0822 22.0187C66.7615 22.2633 66.3577 22.38 65.9492 22.38C64.9979 22.38 64.5015 21.7548 64.5015 20.8838H67.6558C67.9017 20.8838 68.1653 20.8838 68.3732 20.6709C68.5679 20.4714 68.6 20.1807 68.5941 19.9228C68.5371 18.227 67.5109 16.9242 65.7414 16.9242V16.9229ZM64.5015 19.7342C64.5074 19.4435 64.5395 19.2501 64.6464 19.0055C64.8162 18.6053 65.1939 18.3158 65.7414 18.3158C66.2889 18.3158 66.6665 18.6065 66.8435 19.0055C66.9504 19.2501 66.9753 19.4435 66.9884 19.7342H64.5015Z" fill="#606060"/>
<path d="M72.334 18.4837C72.6427 18.4837 72.7556 18.4642 72.8886 18.3937C73.0834 18.2903 73.1902 18.0907 73.1902 17.8389C73.1902 17.5871 73.0834 17.3876 72.8886 17.2842C72.7568 17.2137 72.6427 17.1942 72.334 17.1942H71.8423V16.2977C71.8423 15.8914 71.8233 15.7296 71.7354 15.5495C71.6154 15.305 71.3577 15.1493 71.024 15.1493C70.6903 15.1493 70.4326 15.3038 70.3126 15.5495C70.2247 15.7296 70.2057 15.8914 70.2057 16.2977V17.1942H70.0418C69.733 17.1942 69.6202 17.2137 69.4872 17.2842C69.2924 17.3876 69.1855 17.5871 69.1855 17.8389C69.1855 18.0907 69.2924 18.2903 69.4872 18.3937C69.619 18.4642 69.733 18.4837 70.0418 18.4837H70.2057V21.7986C70.2057 22.779 70.7413 23.7206 72.1012 23.7206H72.1891C72.5038 23.7206 72.7176 23.6816 72.8625 23.605C73.0572 23.5016 73.1902 23.3021 73.1902 23.0053C73.1902 22.7085 73.0644 22.509 72.8625 22.4056C72.7235 22.335 72.5786 22.3156 72.3708 22.3022C71.9551 22.2766 71.8423 22.0248 71.8423 21.7085V18.4837H72.334Z" fill="#606060"/>
<path d="M76.7402 18.4837C77.049 18.4837 77.1618 18.4642 77.2948 18.3937C77.4896 18.2903 77.5965 18.0907 77.5965 17.8389C77.5965 17.5871 77.4896 17.3876 77.2948 17.2842C77.163 17.2137 77.049 17.1942 76.7402 17.1942H76.2485V16.2977C76.2485 15.8914 76.2295 15.7296 76.1416 15.5495C76.0217 15.305 75.764 15.1493 75.4302 15.1493C75.0965 15.1493 74.8388 15.3038 74.7189 15.5495C74.631 15.7296 74.612 15.8914 74.612 16.2977V17.1942H74.4481C74.1393 17.1942 74.0265 17.2137 73.8935 17.2842C73.6987 17.3876 73.5918 17.5871 73.5918 17.8389C73.5918 18.0907 73.6987 18.2903 73.8935 18.3937C74.0253 18.4642 74.1393 18.4837 74.4481 18.4837H74.612V21.7986C74.612 22.779 75.1476 23.7206 76.5074 23.7206H76.5953C76.91 23.7206 77.1238 23.6816 77.2687 23.605C77.4635 23.5016 77.5965 23.3021 77.5965 23.0053C77.5965 22.7085 77.4706 22.509 77.2687 22.4056C77.1297 22.335 76.9849 22.3156 76.777 22.3022C76.3613 22.2766 76.2485 22.0248 76.2485 21.7085V18.4837H76.7402Z" fill="#606060"/>
<path d="M81.1606 16.9229C79.4611 16.9229 78.3079 18.1674 78.3079 20.3607C78.3079 23.0759 79.7877 23.7984 81.3423 23.7984C82.0667 23.7984 82.6831 23.6439 83.1308 23.3337C83.5085 23.0759 83.7733 22.7851 83.7733 22.4701C83.7733 22.0832 83.4266 21.7669 83.1118 21.7669C82.9171 21.7669 82.7591 21.8314 82.5014 22.0187C82.1807 22.2633 81.7769 22.38 81.3684 22.38C80.4171 22.38 79.9207 21.7548 79.9207 20.8838H83.075C83.3209 20.8838 83.5845 20.8838 83.7923 20.6709C83.9871 20.4714 84.0192 20.1807 84.0133 19.9228C83.9562 18.227 82.9301 16.9242 81.1606 16.9242V16.9229ZM79.9207 19.7342C79.9266 19.4435 79.9587 19.2501 80.0656 19.0055C80.2354 18.6053 80.6131 18.3158 81.1606 18.3158C81.7081 18.3158 82.0857 18.6065 82.2627 19.0055C82.3696 19.2501 82.3945 19.4435 82.4076 19.7342H79.9207Z" fill="#606060"/>
<path d="M89.5844 17.2331C89.2887 17.0336 88.9609 16.9242 88.4514 16.9242C87.803 16.9242 87.2044 17.266 86.8897 17.6528C86.8517 17.4083 86.7769 17.266 86.6439 17.1431C86.518 17.0203 86.3422 16.9497 86.1213 16.9497C85.8125 16.9497 85.5358 17.1042 85.4159 17.3365C85.3149 17.53 85.2959 17.6589 85.2959 18.0908V22.6245C85.2959 23.0308 85.3149 23.1926 85.4028 23.3727C85.5227 23.6172 85.7805 23.7729 86.1142 23.7729C86.4479 23.7729 86.7056 23.6184 86.8256 23.3727C86.9135 23.1926 86.9325 23.0308 86.9325 22.6245V19.671C86.9325 18.8194 87.474 18.4326 88.0215 18.4326C88.2424 18.4326 88.4491 18.5031 88.645 18.6065C88.8659 18.7221 89.0417 18.7805 89.2056 18.7805C89.4075 18.7805 89.6082 18.6966 89.7531 18.5482C89.898 18.3997 89.9989 18.1808 89.9989 17.9351C89.9989 17.6443 89.8291 17.3998 89.5832 17.2319L89.5844 17.2331Z" fill="#606060"/>
<path d="M32.8274 14.4146C32.597 14.4146 32.4295 14.462 32.2704 14.5727C32.0471 14.7199 31.8808 14.9973 31.8024 15.1505L29.6398 19.3705L27.4759 15.1505C27.3975 14.9985 27.2312 14.7199 27.0092 14.5739C26.8488 14.462 26.6814 14.4146 26.451 14.4146C26.1992 14.4146 25.9854 14.5034 25.8144 14.6786C25.5792 14.9194 25.5317 15.2077 25.5317 15.5933V22.5017C25.5317 22.9128 25.5424 23.0771 25.6588 23.3167C25.8085 23.6002 26.122 23.7765 26.4771 23.7765C26.8322 23.7765 27.1457 23.6002 27.2954 23.3143C27.4118 23.0771 27.4213 22.9116 27.4213 22.5017V18.671L28.7395 21.3302C28.9486 21.7523 29.1623 21.9968 29.6398 21.9968C30.1172 21.9968 30.331 21.7523 30.54 21.3302L31.8583 18.671V22.5017C31.8583 22.9128 31.8689 23.0771 31.9853 23.3167C32.135 23.6002 32.4485 23.7765 32.8036 23.7765C33.1587 23.7765 33.4722 23.6002 33.6231 23.3143C33.7395 23.0771 33.749 22.9116 33.749 22.5017V15.5933C33.749 15.2077 33.7015 14.9194 33.4663 14.6786C33.2953 14.5034 33.0803 14.4146 32.8297 14.4146H32.8274Z" fill="#F69220"/>
<path d="M39.9532 16.8597C39.6052 16.8597 39.3178 17.0227 39.1848 17.2964C39.0886 17.4935 39.0708 17.6711 39.0708 18.0713V21.0164C39.0708 22.0662 38.2917 22.1489 38.053 22.1489C37.8143 22.1489 37.0483 22.0674 37.0483 21.0164V18.0713C37.0483 17.6711 37.0316 17.4947 36.9343 17.2964C36.8012 17.0227 36.5138 16.8597 36.1659 16.8597C35.8179 16.8597 35.5305 17.0227 35.3975 17.2964C35.3013 17.4935 35.2834 17.6711 35.2834 18.0713V21.2475C35.2834 22.1209 35.4877 22.7024 35.9663 23.1927C36.3559 23.5917 36.9046 23.8021 37.553 23.8021C38.1587 23.8021 38.7454 23.5673 39.148 23.1671C39.1931 23.3216 39.2585 23.4505 39.3796 23.5637C39.5221 23.7024 39.7181 23.7753 39.9461 23.7753C40.2763 23.7753 40.5755 23.6099 40.7074 23.3532C40.819 23.1391 40.8344 22.9944 40.8344 22.5698V18.0689C40.8344 17.6687 40.8178 17.4923 40.7204 17.294C40.5874 17.0203 40.3 16.8573 39.952 16.8573L39.9532 16.8597Z" fill="#F69220"/>
<path d="M44.9662 18.4885C45.2358 18.4885 45.4293 18.5603 45.7061 18.7635C45.9472 18.9435 46.1051 19.008 46.3094 19.008C46.5137 19.008 46.7251 18.9143 46.8593 18.7683C47.0279 18.5883 47.1098 18.3937 47.1098 18.1747C47.1098 17.7003 46.6621 17.367 46.2856 17.1711C45.8913 16.9363 45.5006 16.8354 44.9769 16.8354C44.4222 16.8354 43.6265 16.9582 42.9816 17.5433C42.3225 18.1406 41.9888 19.0724 41.9888 20.3132C41.9888 21.554 42.3213 22.4883 42.9781 23.0892C43.623 23.6792 44.4139 23.8033 44.965 23.8033C45.4745 23.8033 45.87 23.7048 46.2868 23.4749C46.8414 23.1622 47.111 22.8326 47.111 22.464C47.111 22.2401 47.0267 22.0406 46.8604 21.8703C46.7215 21.7207 46.5053 21.6234 46.3094 21.6234C46.0885 21.6234 45.9139 21.7219 45.7049 21.8813C45.4472 22.0759 45.2464 22.1489 44.965 22.1489C44.6004 22.1489 44.3248 22.0187 44.1004 21.7402C43.8605 21.4324 43.7536 20.992 43.7536 20.312C43.7536 19.632 43.8605 19.205 44.1004 18.8973C44.313 18.6321 44.6051 18.4946 44.965 18.4885H44.9662Z" fill="#F69220"/>
<path d="M52.9911 17.4448C52.6016 17.0458 52.0529 16.8354 51.4044 16.8354C50.7952 16.8354 50.3213 17.019 49.8866 17.429V15.6274C49.8866 15.2272 49.87 15.0508 49.7726 14.8525C49.6396 14.5788 49.3522 14.4158 49.0042 14.4158C48.6563 14.4158 48.3689 14.5788 48.2358 14.8525C48.1396 15.0496 48.1218 15.2272 48.1218 15.6274V22.5674C48.1218 22.9676 48.1385 23.144 48.2358 23.3423C48.3689 23.616 48.6563 23.779 49.0042 23.779C49.3522 23.779 49.6396 23.616 49.7726 23.3423C49.8688 23.144 49.8866 22.9676 49.8866 22.5674V19.6223C49.8866 18.5725 50.6657 18.4898 50.9044 18.4898C51.1432 18.4898 51.9092 18.5713 51.9092 19.6223V22.5674C51.9092 22.9676 51.9258 23.144 52.0232 23.3423C52.1562 23.616 52.4436 23.779 52.7916 23.779C53.1396 23.779 53.427 23.616 53.56 23.3423C53.6562 23.1452 53.674 22.9676 53.674 22.5674V19.3924C53.674 18.519 53.4697 17.9375 52.9911 17.446V17.4448Z" fill="#F69220"/>
</g>
<mask id="mask0_226_11" style="mask-type:luminance" maskUnits="userSpaceOnUse" x="97" y="17" width="53" height="13">
<path d="M149.126 17.0605H97.533V29.757H149.126V17.0605Z" fill="white"/>
</mask>
<g mask="url(#mask0_226_11)">
<path d="M104.373 21.9583V21.8194C104.373 20.2204 103.654 19.4563 102.524 19.4563C101.393 19.4563 100.657 20.2729 100.657 21.8019V21.9409C100.657 23.4874 101.357 24.2698 102.524 24.2698C103.691 24.2698 104.373 23.4532 104.373 21.9583ZM103.673 17.11C105.863 17.11 107.64 18.7089 107.64 21.8194V21.9583C107.64 25.0863 105.863 26.6503 103.654 26.6503C102.237 26.6503 101.213 26.0077 100.746 25.1038V29.4827H97.533V17.353H100.746V18.7081C101.285 17.8399 102.255 17.11 103.673 17.11Z" fill="white"/>
<path d="M115.309 21.8914V21.7524C115.309 20.171 114.628 19.4069 113.55 19.4069C112.419 19.4069 111.755 20.1884 111.755 21.7699V21.9089C111.755 23.4379 112.437 24.2203 113.496 24.2203C114.555 24.2203 115.309 23.4388 115.309 21.8914ZM108.487 21.9439V21.8048C108.488 18.7111 110.319 17.0605 112.419 17.0605C113.837 17.0605 114.682 17.6514 115.22 18.572V17.3035H118.433V26.3919H115.22V24.932C114.735 25.8534 113.748 26.6 112.401 26.6C110.319 26.6 108.488 25.0885 108.488 21.943" fill="white"/>
<path d="M124.86 22.2016L126.656 17.3531H129.726L124.699 29.4829H121.629L123.191 25.5209L119.439 17.3531H122.921L124.86 22.2016Z" fill="white"/>
<path d="M129.891 26.4415V24.2874L134.164 19.6995H130.412L130.394 17.3531H137.916V19.6471L133.823 24.0784H138.221V26.4415H129.891Z" fill="white"/>
<path d="M139.737 25.2218C139.774 22.719 141.732 20.6681 144.394 20.6681C147.055 20.6681 149.127 22.719 149.127 25.2218C149.127 27.7247 147.112 29.7572 144.394 29.7572C141.676 29.7572 139.737 27.7438 139.737 25.2218Z" fill="#D0FA02"/>
</g>
<path d="M185.106 28.1081H188.684V17.493H185.106V28.1081ZM183.083 17.3403C179.776 17.4548 178.096 19.0204 178.096 22.1324V28.1081H181.71V23.2397C181.71 21.3687 181.945 20.5668 184.04 20.4905V17.3785C183.805 17.3403 183.553 17.3212 183.3 17.3212L183.083 17.3403ZM156 18.2185C156 19.4404 156.506 22.3233 161.113 22.6669C161.511 22.686 162.54 22.7624 162.54 23.7934C162.54 24.6334 161.691 25.1489 160.264 25.1489C158.891 25.1107 157.536 24.8243 156.253 24.3088V27.7072C157.807 28.1081 159.415 28.2991 161.023 28.28C164.961 28.28 166.732 25.9317 166.732 23.6024C166.732 20.9678 164.745 19.2495 161.438 19.0204C160.987 18.9822 159.939 18.9249 159.939 17.913C159.939 16.7103 161.438 16.7103 162.016 16.7103C163.01 16.7103 164.293 17.0157 165.214 17.3212C165.214 17.3212 165.72 17.5121 166.172 17.703L166.208 17.7221V14.4001L166.154 14.381C165.07 13.9801 163.805 13.5983 161.474 13.5983C157.427 13.5983 156 16.0802 156 18.2185ZM167.635 14.3619V28.1081H171.321V23.8506C172.387 25.5498 172.929 28.1081 172.929 28.1081H177.355C176.922 26.1799 175.007 22.6478 175.007 22.6478C176.145 21.1014 177.012 19.364 177.608 17.493H173.363C172.875 18.8295 172.188 20.0895 171.321 21.1969V13.5983L167.635 14.3619ZM190.201 14.2665V28.1081H193.779V13.5983L190.201 14.2665ZM195.423 14.2665V28.1081H199V13.5983L195.423 14.2665ZM186.895 12.7391C185.919 12.7391 185.124 13.5792 185.124 14.6101C185.124 15.6411 185.919 16.4812 186.895 16.4812C187.871 16.4812 188.666 15.6411 188.666 14.6101C188.647 13.5792 187.871 12.7391 186.895 12.7391Z" fill="#872165"/>
<mask id="mask1_226_11" style="mask-type:luminance" maskUnits="userSpaceOnUse" x="156" y="12" width="43" height="17">
<path d="M185.106 28.1081H188.684V17.493H185.106V28.1081ZM183.083 17.3403C179.776 17.4548 178.096 19.0204 178.096 22.1324V28.1081H181.71V23.2397C181.71 21.3687 181.945 20.5668 184.04 20.4905V17.3785C183.805 17.3403 183.553 17.3212 183.3 17.3212L183.083 17.3403ZM156 18.2185C156 19.4404 156.506 22.3233 161.113 22.6669C161.511 22.686 162.54 22.7624 162.54 23.7934C162.54 24.6334 161.691 25.1489 160.264 25.1489C158.891 25.1107 157.536 24.8243 156.253 24.3088V27.7072C157.807 28.1081 159.415 28.2991 161.023 28.28C164.961 28.28 166.732 25.9317 166.732 23.6024C166.732 20.9678 164.745 19.2495 161.438 19.0204C160.987 18.9822 159.939 18.9249 159.939 17.913C159.939 16.7103 161.438 16.7103 162.016 16.7103C163.01 16.7103 164.293 17.0157 165.214 17.3212C165.214 17.3212 165.72 17.5121 166.172 17.703L166.208 17.7221V14.4001L166.154 14.381C165.07 13.9801 163.805 13.5983 161.474 13.5983C157.427 13.5983 156 16.0802 156 18.2185ZM167.635 14.3619V28.1081H171.321V23.8506C172.387 25.5498 172.929 28.1081 172.929 28.1081H177.355C176.922 26.1799 175.007 22.6478 175.007 22.6478C176.145 21.1014 177.012 19.364 177.608 17.493H173.363C172.875 18.8295 172.188 20.0895 171.321 21.1969V13.5983L167.635 14.3619ZM190.201 14.2665V28.1081H193.779V13.5983L190.201 14.2665ZM195.423 14.2665V28.1081H199V13.5983L195.423 14.2665ZM186.895 12.7391C185.919 12.7391 185.124 13.5792 185.124 14.6101C185.124 15.6411 185.919 16.4812 186.895 16.4812C187.871 16.4812 188.666 15.6411 188.666 14.6101C188.647 13.5792 187.871 12.7391 186.895 12.7391Z" fill="white"/>
</mask>
<g mask="url(#mask1_226_11)">
<path d="M199 12.7391H156V28.2609H199V12.7391Z" fill="#872165"/>
</g>
<path d="M51.7463 40.3325C51.0831 39.6712 50.0793 39.3376 48.7634 39.3376H45.3175L44.0364 49.4602H39.5221L39.8122 47.1636H42.5316L42.8538 44.5842L40.136 44.5899L40.427 42.3035H43.228L43.6007 39.3382H37.9124L36.6962 48.9401H34.6087L35.8331 39.3377H32.8596L31.6434 48.9396H29.6099L30.8355 39.3377H27.8635L26.5809 49.4603H22.0341L22.3215 47.1637H25.0518L25.3744 44.5989L22.6468 44.5949L22.9362 42.304H25.7686L26.1389 39.3375H8.41306L7.40414 47.3589L5.39491 39.3375H2.30984L0.649414 52.4284H3.59569L4.60071 44.1858L6.55043 52.4284H17.1096L18.3935 42.3028H20.0449L18.7611 52.4284H46.5444L47.35 46.0367L48.6529 52.4284H51.6008L50.2505 47.2056L50.5594 47.1088C51.2398 46.8965 51.7705 46.4406 52.14 45.7571C52.5092 45.0672 52.6973 44.1816 52.6973 43.1178C52.6973 41.8793 52.386 40.968 51.7455 40.3318L51.7463 40.3325ZM14.5457 49.4602H10.0358L10.3271 47.1636H13.1559L13.4766 44.5768H10.675L10.9448 42.3041H15.4482L14.5449 49.4602L14.5457 49.4602ZM49.3174 45.0508C49.021 45.3524 48.5912 45.4993 48.0035 45.4993H47.4208L47.8678 41.9863H48.2964C48.7844 41.9863 49.1403 42.1001 49.3858 42.3323C49.5775 42.5145 49.8054 42.8748 49.8054 43.556C49.8047 44.3802 49.5395 44.823 49.3166 45.0507L49.3174 45.0508Z" fill="#83BA3B"/>
<g clip-path="url(#clip1_226_11)">
<path d="M66.9903 36.7056L63.0029 50.0688H65.3661L66.498 46.1386H69.7465L70.928 50.0688H73.34L69.3038 36.7056H66.9903ZM69.1565 44.0045H67.0888L67.9253 41.0285C67.9741 40.8039 68.0238 40.6358 68.0726 40.4112C68.1222 40.6358 68.1711 40.8048 68.2695 41.0294L69.1557 44.0045H69.1565ZM77.2778 44.0045C76.1947 43.4986 76.0962 43.274 76.0962 42.937C76.0962 42.4878 76.4404 42.2074 76.9327 42.2074C77.4251 42.2074 77.8685 42.3763 78.3112 42.6567L78.7539 42.9936L79.3447 40.8596L79.0989 40.6349C78.451 40.1765 77.6936 39.9606 76.9327 40.0176C75.1116 40.0176 73.8315 41.3089 73.8315 43.106C73.8315 44.7341 75.1116 45.6327 76.1947 46.0819C77.2778 46.5312 77.3762 46.8682 77.3762 47.2608C77.3762 47.9914 76.687 48.1037 76.2931 48.1037C75.7023 48.0471 75.1116 47.879 74.6192 47.5421L74.1766 47.2608L73.5858 49.4506L73.8812 49.6195C74.6192 50.0688 75.4566 50.3491 76.2931 50.2934C78.2624 50.2934 79.6409 49.0013 79.6409 47.0928C79.5912 45.24 78.2624 44.4538 77.2778 44.0045ZM83.1351 37.9402L80.8705 38.7264V40.2423H79.6889V42.432H80.9201V46.8116C80.8705 47.7667 81.0674 48.721 81.5597 49.5072C82.052 50.0688 82.6924 50.4058 83.3809 50.3491C83.8732 50.3491 84.3167 50.2925 84.7594 50.1245L85.0548 50.0122L84.9563 47.8224L84.464 47.9905C84.2182 48.0471 84.0213 48.1028 83.7748 48.1028C83.529 48.1028 83.1351 48.1028 83.1351 46.8682V42.432H85.1532V40.2423H83.1351V37.9402ZM90.6168 40.13L90.2229 40.0743C90.0756 40.0743 89.9772 40.0176 89.8291 40.0176C89.1406 40.0176 88.4506 40.3546 87.9591 40.9162V40.1866H85.8425V40.7482C85.8913 41.4778 85.8913 42.3763 85.8913 43.4995V50.1245H88.156V44.903C88.156 44.6784 88.156 44.4538 88.2048 44.2291C88.3529 43.2183 88.9437 42.5444 89.6818 42.5444H90.0756L90.5679 42.6567L90.6168 40.13ZM94.7515 40.0176C92.241 40.0176 90.4695 42.1517 90.4695 45.24C90.4695 48.216 92.1922 50.2934 94.653 50.2934C96.7207 50.2934 98.9854 48.6653 98.9854 45.0711C98.9358 42.0951 97.213 40.0176 94.7515 40.0176ZM96.6223 45.1277C96.6223 46.8682 95.7857 48.1037 94.7026 48.1037C93.6195 48.1037 92.783 46.8682 92.783 45.1834C92.783 44.0602 93.2257 42.2074 94.7522 42.2074C96.2284 42.2074 96.6223 44.1168 96.6223 45.1277ZM106.369 37.7713C105.63 36.985 104.498 36.5924 103.021 36.5924C102.086 36.5924 101.151 36.6481 100.265 36.817L99.9204 36.9293V50.0679H102.184V45.1843C102.431 45.1843 102.677 45.24 102.873 45.24C104.202 45.2966 105.531 44.7907 106.516 43.7242C107.155 42.9379 107.5 41.8147 107.5 40.7482C107.5 39.625 107.107 38.5584 106.369 37.7722V37.7713ZM105.236 40.8039C105.236 42.6567 103.809 42.937 102.922 42.937C102.677 42.937 102.431 42.937 102.184 42.8813V38.8945C102.48 38.8378 102.775 38.8378 103.07 38.8378C104.055 38.8945 105.236 39.2314 105.236 40.8039ZM114.391 47.4855V44.1734C114.391 41.5344 113.161 40.0743 110.996 40.0743C110.011 40.0743 109.026 40.3546 108.19 40.9162L107.894 41.1408L108.485 43.2183L108.977 42.8256C109.519 42.432 110.159 42.2074 110.799 42.264C111.143 42.2074 111.537 42.3763 111.832 42.6567C112.029 42.8813 112.127 43.2183 112.176 43.5552C110.404 43.6118 109.125 44.1168 108.337 45.0154C107.796 45.6327 107.5 46.4755 107.5 47.3732C107.5 49.0579 108.682 50.4058 110.109 50.4058H110.306C111.044 50.4058 111.832 50.1245 112.423 49.6195L112.472 50.1811H114.638L114.588 49.6195C114.455 48.9185 114.389 48.2029 114.391 47.4855ZM110.602 48.1594C110.158 48.216 109.764 47.8224 109.716 47.3174V47.0928C109.716 46.7559 109.814 46.4755 110.011 46.2509C110.257 45.9696 110.847 45.6327 112.177 45.577V46.6435C112.177 46.7559 112.177 46.8682 112.127 47.0371C111.881 47.711 111.29 48.1594 110.602 48.1594ZM120.643 40.2423L119.018 45.8016C118.957 45.9412 118.923 46.0947 118.92 46.2509C118.871 46.1386 118.821 45.9696 118.773 45.8573L117 40.2989H114.539L117.64 49.1703C117.689 49.2269 117.689 49.2826 117.689 49.3949C117.689 49.4515 117.64 49.5072 117.64 49.5638C117.394 50.1811 117.049 50.7427 116.558 51.192C116.213 51.5289 115.868 51.7536 115.474 51.8659L115.081 52.0339L115.671 54.2237L116.065 54.168C116.803 53.9991 117.444 53.6064 118.034 53.0448C119.117 51.9216 119.855 50.1811 120.84 47.2608L123.055 40.1866L120.643 40.2423Z" fill="white"/>
<path d="M71.3211 40.4112C72.798 38.7264 75.2596 37.7156 77.967 37.7156C79.0004 37.7156 80.0339 37.8845 81.0185 38.1648H81.117L82.8397 37.5475L82.052 37.2106C80.4278 36.5924 78.7539 36.2563 77.0808 36.2563C74.7493 36.2003 72.4496 36.8803 70.4357 38.2214L70.2388 38.3338L70.9769 40.7482L71.3219 40.4112H71.3211Z" fill="#FF0000"/>
</g>
<path d="M152.822 39.4521C150.587 39.4521 148.58 40.6713 148.58 42.9087C148.58 45.4854 152.125 45.6613 152.125 46.9434C152.125 47.4839 151.524 47.9741 150.515 47.9741C149.073 47.9741 147.991 47.2953 147.991 47.2953L147.534 49.5578C147.534 49.5578 148.772 50.136 150.431 50.136C152.882 50.136 154.805 48.8665 154.805 46.5789C154.805 43.8639 151.248 43.688 151.248 42.4939C151.248 42.0665 151.74 41.6015 152.75 41.6015C153.891 41.6015 154.829 42.0917 154.829 42.0917L155.285 39.9046C155.273 39.9046 154.252 39.4521 152.822 39.4521ZM132.345 39.6155L132.285 39.9423C132.285 39.9423 133.222 40.1183 134.075 40.4828C135.169 40.8976 135.241 41.1364 135.433 41.878L137.44 49.96H140.132L144.254 39.6155H141.574L138.918 46.6543L137.837 40.6839C137.741 40.0052 137.236 39.6155 136.611 39.6155H132.345ZM145.335 39.6155L143.232 49.96H145.792L147.883 39.6155H145.335ZM159.587 39.6155C158.975 39.6155 158.65 39.9549 158.41 40.5582L154.661 49.96H157.34L157.857 48.3889H161.126L161.438 49.96H163.805L161.751 39.6155H159.587ZM159.936 42.4185L160.729 46.3024H158.602L159.936 42.4185Z" fill="#1434CB"/>
<g clip-path="url(#clip2_226_11)">
<path d="M184.564 37.3955C176.13 37.3955 169.289 41.6935 169.289 46.9925C169.289 52.2915 176.13 57.006 184.564 57.006C192.998 57.006 199.84 52.295 199.84 46.9925C199.84 41.69 193.005 37.3955 184.564 37.3955Z" fill="#00B1EA"/>
<path d="M179.601 44.0245C179.601 44.0245 179.444 44.189 179.54 44.3115C179.775 44.609 180.506 44.777 181.243 44.616C181.682 44.518 182.248 44.0805 182.79 43.6535C183.315 43.188 183.918 42.814 184.571 42.5475C184.986 42.3982 185.439 42.3859 185.861 42.5125C186.289 42.6704 186.687 42.8989 187.037 43.188C188.06 43.944 192.179 47.472 192.891 48.088C195.079 47.1893 197.345 46.4865 199.662 45.988C199.359 44.1785 198.236 42.4495 196.547 41.088C194.174 42.068 191.081 42.6525 188.245 41.2945C187.282 40.8667 186.241 40.6345 185.184 40.612C182.936 40.6645 181.959 41.62 180.93 42.6315L179.601 44.0245Z" fill="white"/>
<path d="M192.703 48.473C192.653 48.431 187.864 44.3115 186.773 43.51C186.395 43.1802 185.929 42.9629 185.43 42.8835C185.214 42.8677 184.997 42.8878 184.789 42.943C184.147 43.1806 183.554 43.5278 183.036 43.9685C182.43 44.4445 181.856 44.8925 181.325 45.0185C180.683 45.149 180.015 45.051 179.44 44.742C179.304 44.6572 179.195 44.5357 179.127 44.392C179.088 44.2854 179.082 44.1697 179.111 44.0599C179.139 43.9501 179.201 43.8512 179.287 43.776L180.613 42.376L181.079 41.9245C180.672 41.9855 180.27 42.0744 179.875 42.1905C179.414 42.3403 178.935 42.4275 178.45 42.4495C177.971 42.401 177.495 42.3274 177.024 42.229C175.611 41.9035 174.23 41.4501 172.902 40.8745C171.02 42.25 169.795 43.937 169.431 45.8305C169.702 45.9005 170.407 46.058 170.593 46.1C174.847 47.031 176.173 47.9865 176.415 48.2C176.556 48.0439 176.732 47.9212 176.928 47.8412C177.124 47.7612 177.337 47.726 177.549 47.7381C177.761 47.7502 177.968 47.8094 178.154 47.9112C178.339 48.0131 178.499 48.1549 178.621 48.326C178.909 48.0992 179.267 47.9757 179.636 47.976C179.843 47.9788 180.047 48.0143 180.242 48.081C180.432 48.1397 180.606 48.238 180.754 48.369C180.902 48.5001 181.019 48.6609 181.097 48.8405C181.283 48.7586 181.485 48.7168 181.689 48.718C181.934 48.7205 182.177 48.7729 182.401 48.872C182.711 49.0137 182.963 49.2548 183.115 49.5556C183.267 49.8565 183.311 50.1992 183.239 50.5275C183.294 50.5238 183.35 50.5238 183.406 50.5275C183.699 50.5263 183.988 50.6002 184.243 50.7419C184.498 50.8837 184.711 51.0883 184.861 51.3357C185.011 51.5831 185.093 51.8647 185.098 52.1526C185.104 52.4405 185.033 52.7249 184.892 52.9775C185.332 53.2418 185.841 53.3755 186.356 53.3625C186.485 53.3622 186.613 53.336 186.731 53.2855C186.85 53.2349 186.956 53.1611 187.044 53.0685C187.087 53.009 187.133 52.9425 187.09 52.8935L185.89 51.5845C185.89 51.5845 185.69 51.4025 185.758 51.329C185.826 51.2555 185.95 51.3605 186.032 51.4305C186.641 51.9345 187.386 52.687 187.386 52.687C187.386 52.687 187.447 52.792 187.743 52.841C187.908 52.8694 188.077 52.8648 188.241 52.8275C188.404 52.7902 188.558 52.721 188.694 52.624C188.77 52.5597 188.84 52.4894 188.904 52.414C188.989 52.2997 189.031 52.1606 189.025 52.0194C189.018 51.8782 188.963 51.7433 188.869 51.637L187.44 50.076C187.44 50.076 187.237 49.894 187.308 49.8205C187.379 49.747 187.5 49.8555 187.586 49.9255C188.028 50.2755 188.655 50.909 189.257 51.4865C189.457 51.6197 189.695 51.687 189.936 51.6789C190.178 51.6707 190.41 51.5874 190.6 51.441C190.756 51.3567 190.885 51.2316 190.972 51.0795C191.06 50.9275 191.102 50.7545 191.096 50.58C191.064 50.3612 190.958 50.1592 190.796 50.006L188.879 48.116C188.879 48.116 188.676 47.948 188.751 47.8605C188.826 47.773 188.943 47.892 189.025 47.962C189.635 48.466 191.284 49.95 191.284 49.95C191.479 50.0731 191.706 50.1365 191.937 50.1322C192.168 50.1278 192.392 50.0559 192.581 49.9255C192.703 49.8552 192.805 49.7571 192.88 49.6394C192.954 49.5218 192.999 49.3882 193.009 49.25C193.022 49.1061 193.001 48.9612 192.948 48.8265C192.895 48.6918 192.811 48.5709 192.703 48.473Z" fill="white"/>
<path d="M183.417 50.867C183.192 50.8966 182.97 50.9458 182.754 51.014C182.733 51.014 182.772 50.8845 182.8 50.8145C182.829 50.7445 183.221 49.593 182.266 49.1905C182.053 49.0779 181.808 49.0362 181.568 49.0715C181.329 49.1068 181.107 49.2173 180.937 49.3865C180.898 49.4285 180.88 49.425 180.876 49.3865C180.868 49.1713 180.792 48.9638 180.66 48.7923C180.527 48.6207 180.344 48.4934 180.135 48.4275C179.838 48.335 179.518 48.3408 179.225 48.4438C178.931 48.5468 178.68 48.7415 178.51 48.998C178.479 48.7712 178.371 48.5613 178.204 48.4022C178.036 48.2431 177.819 48.144 177.587 48.121C177.355 48.0979 177.122 48.1522 176.926 48.2751C176.729 48.398 176.581 48.5823 176.504 48.7983C176.427 49.0144 176.426 49.2496 176.502 49.4659C176.578 49.6823 176.726 49.8673 176.922 49.991C177.118 50.1148 177.351 50.1701 177.583 50.1481C177.815 50.126 178.032 50.0279 178.2 49.8695C178.2 49.8695 178.2 49.8695 178.2 49.9045C178.13 50.2212 178.177 50.5523 178.335 50.8371C178.493 51.1219 178.75 51.3413 179.059 51.455C179.226 51.518 179.407 51.5369 179.584 51.5099C179.761 51.4828 179.928 51.4108 180.067 51.301C180.153 51.245 180.164 51.266 180.153 51.3465C180.117 51.581 180.153 52.092 180.887 52.379C181.066 52.4652 181.269 52.4923 181.466 52.4564C181.662 52.4204 181.841 52.3234 181.977 52.1795C182.07 52.0955 182.095 52.1095 182.098 52.239C182.111 52.4912 182.199 52.7343 182.35 52.9382C182.502 53.1421 182.711 53.2978 182.952 53.386C183.193 53.4743 183.455 53.4913 183.706 53.4348C183.956 53.3784 184.184 53.251 184.362 53.0685C184.54 52.886 184.659 52.6563 184.705 52.4078C184.751 52.1594 184.722 51.9031 184.622 51.6707C184.521 51.4383 184.353 51.24 184.139 51.1002C183.925 50.9605 183.674 50.8855 183.417 50.8845V50.867Z" fill="white"/>
<path d="M184.564 37C175.97 37 169 41.4905 169 46.9995V47.5805C169 53.4255 175.093 58.1575 184.564 58.1575C194.096 58.1575 200.128 53.4255 200.128 47.5805V46.996C200.128 41.4905 193.159 37 184.564 37ZM199.426 45.89C197.183 46.3812 194.993 47.0845 192.888 47.99C191.409 46.723 187.999 43.811 187.076 43.1285C186.718 42.8285 186.309 42.5917 185.868 42.4285C185.677 42.3695 185.477 42.3388 185.277 42.3375C185.021 42.3403 184.768 42.3816 184.525 42.46C183.871 42.7224 183.268 43.0942 182.743 43.559L182.711 43.58C182.177 44 181.621 44.4305 181.2 44.525C181.018 44.5652 180.832 44.5852 180.645 44.5845C180.454 44.5982 180.263 44.5743 180.083 44.5141C179.902 44.454 179.736 44.3589 179.593 44.2345C179.569 44.1995 179.593 44.147 179.647 44.0735L180.944 42.698C181.963 41.697 182.921 40.7555 185.134 40.703H185.245C186.249 40.7445 187.236 40.9737 188.152 41.3785C189.389 41.9938 190.753 42.3196 192.14 42.3305C193.644 42.3055 195.126 41.9579 196.48 41.312C198.062 42.6105 199.106 44.182 199.426 45.89ZM184.564 37.588C189.125 37.588 193.209 38.8725 195.966 40.8955C194.768 41.4311 193.47 41.7194 192.154 41.7425C190.865 41.7321 189.596 41.4316 188.444 40.864C187.449 40.4173 186.374 40.1676 185.28 40.129H185.156C183.838 40.1084 182.558 40.5559 181.55 41.389C180.937 41.4203 180.331 41.5285 179.747 41.711C179.336 41.846 178.91 41.9272 178.478 41.9525C178.314 41.9525 178.026 41.9525 177.997 41.9525C176.445 41.6838 174.922 41.2701 173.45 40.717C176.18 38.7955 180.149 37.5915 184.564 37.5915V37.588ZM172.902 41.088C174.797 41.8475 177.103 42.4425 177.833 42.488C178.036 42.488 178.254 42.5265 178.471 42.5265C178.956 42.504 179.436 42.4156 179.896 42.264C180.171 42.1905 180.477 42.1065 180.798 42.047C180.712 42.131 180.627 42.2115 180.541 42.299L179.219 43.699C179.123 43.7854 179.054 43.898 179.022 44.0225C178.991 44.1471 178.997 44.2781 179.041 44.399C179.121 44.5559 179.244 44.687 179.397 44.777C179.824 45.0137 180.308 45.1345 180.798 45.127C180.985 45.1282 181.171 45.1094 181.354 45.071C181.906 44.952 182.487 44.4935 183.103 44.021C183.612 43.5899 184.193 43.2489 184.821 43.013C184.978 42.9719 185.139 42.9507 185.302 42.95C185.342 42.9461 185.383 42.9461 185.423 42.95C185.906 43.0296 186.356 43.2406 186.723 43.559C187.792 44.357 192.603 48.4765 192.646 48.5185C192.741 48.6083 192.816 48.7172 192.866 48.838C192.915 48.9588 192.937 49.0886 192.931 49.2185C192.921 49.3412 192.882 49.4599 192.815 49.5642C192.749 49.6685 192.658 49.7553 192.549 49.817C192.362 49.9394 192.143 50.0062 191.919 50.0095C191.722 50.0101 191.529 49.9554 191.363 49.852C191.345 49.852 189.702 48.361 189.1 47.8605C189.025 47.7819 188.926 47.7291 188.819 47.71C188.795 47.7104 188.772 47.7156 188.75 47.7252C188.729 47.7348 188.71 47.7487 188.694 47.766C188.598 47.8815 188.694 48.039 188.833 48.144L190.753 50.0375C190.897 50.1746 190.991 50.3541 191.021 50.5485C191.027 50.7071 190.987 50.8641 190.907 51.0019C190.827 51.1398 190.71 51.253 190.568 51.329C190.369 51.4671 190.132 51.5438 189.888 51.5495C189.693 51.5503 189.503 51.4929 189.342 51.385L189.068 51.119C188.566 50.6325 188.045 50.1285 187.664 49.817C187.588 49.739 187.488 49.6875 187.379 49.67C187.356 49.6695 187.334 49.674 187.313 49.6831C187.292 49.6921 187.273 49.7056 187.258 49.7225C187.215 49.7715 187.187 49.852 187.294 49.9955C187.323 50.0331 187.355 50.0682 187.39 50.1005L188.79 51.644C188.872 51.7339 188.92 51.8487 188.926 51.9692C188.932 52.0896 188.895 52.2084 188.822 52.3055L188.772 52.365C188.73 52.4105 188.683 52.4525 188.644 52.4875C188.446 52.6296 188.205 52.7045 187.96 52.701C187.896 52.7071 187.831 52.7071 187.767 52.701C187.666 52.6935 187.57 52.6543 187.493 52.589L187.475 52.5715C187.4 52.4945 186.691 51.7875 186.111 51.308C186.039 51.2321 185.944 51.1817 185.84 51.1645C185.816 51.1644 185.793 51.1694 185.771 51.1791C185.75 51.1887 185.73 51.2029 185.715 51.2205C185.601 51.343 185.772 51.532 185.847 51.5985L187.041 52.8935C187.031 52.922 187.015 52.9482 186.994 52.9705C186.951 53.0265 186.809 53.17 186.371 53.226C186.317 53.2298 186.264 53.2298 186.21 53.226C185.799 53.1976 185.399 53.0779 185.042 52.876C185.168 52.6098 185.225 52.3165 185.206 52.0231C185.187 51.7298 185.093 51.4459 184.933 51.1975C184.773 50.9492 184.552 50.7445 184.29 50.6024C184.028 50.4602 183.734 50.3851 183.435 50.384H183.37C183.414 50.0538 183.348 49.7185 183.182 49.4279C183.017 49.1373 182.76 48.9068 182.451 48.7705C182.217 48.668 181.963 48.6133 181.706 48.6095C181.52 48.6094 181.335 48.6426 181.161 48.7075C180.981 48.3617 180.668 48.1 180.292 47.9795C180.086 47.9078 179.869 47.8711 179.65 47.871C179.292 47.8685 178.942 47.9789 178.653 48.186C178.512 48.0133 178.334 47.8736 178.131 47.7773C177.928 47.6811 177.706 47.6305 177.48 47.6295C177.081 47.6305 176.697 47.785 176.411 48.06C176.055 47.7835 174.566 46.8595 170.618 45.9775C170.432 45.9355 170.005 45.8165 169.73 45.736C170.108 43.9965 171.234 42.4075 172.902 41.102V41.088ZM180.221 51.182L180.178 51.1435H180.135C180.091 51.1474 180.048 51.1645 180.014 51.1925C179.844 51.3208 179.637 51.393 179.422 51.399C179.31 51.3976 179.199 51.3763 179.095 51.336C178.804 51.2299 178.563 51.0236 178.416 50.7557C178.269 50.4878 178.227 50.1765 178.296 49.88C178.301 49.8585 178.299 49.8364 178.292 49.8155C178.286 49.7947 178.273 49.776 178.257 49.761L178.193 49.7085L178.133 49.7645C177.979 49.9117 177.78 50.0037 177.567 50.0258C177.354 50.0478 177.139 49.9985 176.958 49.8859C176.777 49.7733 176.64 49.604 176.569 49.4054C176.499 49.2068 176.498 48.9905 176.568 48.7915C176.638 48.5926 176.774 48.4226 176.955 48.3092C177.135 48.1958 177.349 48.1455 177.563 48.1666C177.776 48.1876 177.975 48.2788 178.129 48.4252C178.283 48.5717 178.382 48.7649 178.41 48.9735L178.446 49.2255L178.589 49.012C178.713 48.8341 178.878 48.6875 179.07 48.5841C179.263 48.4807 179.477 48.4234 179.697 48.417C179.837 48.4183 179.976 48.4395 180.11 48.48C180.302 48.5391 180.47 48.6556 180.59 48.8131C180.711 48.9707 180.779 49.1614 180.784 49.3585C180.784 49.4775 180.883 49.4845 180.898 49.4845C180.919 49.4831 180.94 49.4773 180.959 49.4677C180.978 49.4581 180.994 49.4447 181.008 49.4285C181.1 49.3349 181.211 49.261 181.334 49.2116C181.456 49.1622 181.588 49.1383 181.721 49.1415C181.902 49.1436 182.08 49.183 182.244 49.257C183.139 49.635 182.733 50.748 182.729 50.762C182.654 50.944 182.647 51.028 182.729 51.077H182.765H182.79C182.849 51.0711 182.907 51.0557 182.961 51.0315C183.113 50.9718 183.274 50.9363 183.438 50.9265C183.761 50.9301 184.07 51.0578 184.298 51.2821C184.527 51.5065 184.657 51.8097 184.66 52.127C184.667 52.4445 184.546 52.7517 184.322 52.9811C184.099 53.2105 183.792 53.3433 183.468 53.3502C183.145 53.3572 182.832 53.2378 182.599 53.0182C182.365 52.7987 182.23 52.497 182.223 52.1795C182.223 52.1235 182.223 51.9765 182.091 51.9765C182.034 51.9828 181.981 52.0088 181.942 52.05C181.786 52.2131 181.571 52.3088 181.343 52.316C181.208 52.3136 181.075 52.2851 180.951 52.232C180.256 51.9555 180.238 51.4865 180.274 51.2975C180.273 51.2777 180.268 51.2584 180.259 51.2408C180.25 51.2233 180.237 51.208 180.221 51.196V51.182ZM184.564 56.3865C176.297 56.3865 169.599 52.1865 169.599 46.9785C169.599 46.7685 169.599 46.562 169.634 46.3555L170.493 46.555C174.523 47.437 175.838 48.3505 176.08 48.522C175.983 48.7473 175.944 48.9927 175.966 49.2365C175.988 49.4802 176.071 49.7148 176.208 49.9194C176.345 50.124 176.531 50.2923 176.75 50.4094C176.969 50.5264 177.213 50.5886 177.463 50.5905C177.556 50.5916 177.649 50.5834 177.741 50.566C177.802 50.8597 177.939 51.1331 178.138 51.3598C178.338 51.5866 178.594 51.7592 178.881 51.861C179.052 51.9271 179.235 51.9615 179.419 51.9625C179.539 51.9625 179.659 51.9484 179.775 51.9205C179.914 52.2072 180.13 52.4507 180.4 52.6243C180.671 52.7978 180.985 52.8946 181.307 52.904C181.466 52.9043 181.623 52.8759 181.771 52.82C181.883 53.0873 182.061 53.3231 182.289 53.5062C182.518 53.6892 182.788 53.8139 183.077 53.869C183.366 53.9242 183.665 53.9081 183.946 53.8221C184.227 53.7361 184.483 53.583 184.689 53.3765C185.148 53.6397 185.665 53.7909 186.196 53.8175C186.272 53.8232 186.348 53.8232 186.424 53.8175C186.62 53.8113 186.813 53.7645 186.989 53.68C187.165 53.5956 187.321 53.4754 187.447 53.3275C187.471 53.2957 187.493 53.2617 187.511 53.226C187.668 53.2734 187.831 53.2982 187.996 53.2995C188.35 53.2897 188.691 53.1668 188.968 52.9495C189.262 52.7592 189.469 52.4643 189.546 52.127C189.652 52.1498 189.761 52.1615 189.87 52.162C190.228 52.1577 190.576 52.0493 190.871 51.8505C191.096 51.7234 191.28 51.5386 191.406 51.316C191.532 51.0934 191.593 50.8413 191.584 50.587C191.693 50.6097 191.804 50.6215 191.915 50.622C192.25 50.6199 192.577 50.5213 192.856 50.3385C193.042 50.2273 193.198 50.074 193.312 49.8913C193.425 49.7086 193.492 49.5019 193.508 49.2885C193.53 48.9931 193.457 48.6983 193.301 48.445C195.314 47.6369 197.393 46.9964 199.515 46.5305C199.515 46.6845 199.533 46.842 199.533 46.9995C199.533 52.19 192.831 56.4005 184.564 56.4005V56.3865Z" fill="#2D3277"/>
</g>
<g clip-path="url(#clip3_226_11)">
<path d="M21.951 66.086H19.6279V68.9345H18.1597V70.9628H19.6279V77.4943H21.951V70.9628H23.4379V68.9345H21.951V66.086ZM29.9053 74.1448C29.9138 74.4681 29.8403 74.7882 29.6916 75.0753C29.5551 75.3296 29.3487 75.5394 29.0968 75.68C28.82 75.8283 28.5094 75.902 28.1956 75.894C27.6999 75.894 27.3405 75.742 27.1175 75.4381C26.8946 75.1342 26.7831 74.7031 26.7831 74.1448V68.9345H24.2927V74.4053C24.2927 75.4227 24.5435 76.2229 25.0453 76.8058C25.5471 77.3891 26.306 77.6806 27.322 77.6804C27.9289 77.6804 28.4431 77.5532 28.8645 77.2989C29.2856 77.0448 29.6325 76.6757 29.9053 76.1917V77.4943H32.3028V68.9345H29.9053V74.1448ZM40.6815 69.195C40.0654 68.8503 39.3709 68.6708 38.6651 68.674C37.9339 68.674 37.2988 68.86 36.7601 69.2322C36.3442 69.5221 35.9982 69.9013 35.7472 70.342V68.9345H33.3311V81.7737H35.7472V76.0816C35.9971 76.5245 36.3432 76.9056 36.7601 77.1966C37.2991 77.5688 37.9341 77.7548 38.6651 77.7548C39.3709 77.758 40.0654 77.5785 40.6815 77.2338C41.3071 76.8866 41.812 76.3718 42.1962 75.6894C42.5801 75.0072 42.7721 74.1822 42.7724 73.2144C42.7724 72.2345 42.5804 71.4064 42.1962 70.7302C41.8121 70.0542 41.3071 69.5425 40.6815 69.195ZM39.966 74.517C39.7676 74.8649 39.4743 75.1489 39.1204 75.3357C38.7621 75.5231 38.363 75.619 37.9588 75.6149C37.5919 75.613 37.2312 75.5204 36.9088 75.3451C36.5603 75.1582 36.2708 74.8779 36.0725 74.5356C35.8555 74.176 35.7471 73.7356 35.7472 73.2144C35.7472 72.6934 35.8556 72.253 36.0725 71.8932C36.2709 71.551 36.5605 71.2707 36.9088 71.0837C37.2312 70.9086 37.5919 70.8159 37.9588 70.814C38.363 70.8099 38.762 70.9057 39.1204 71.0931C39.4743 71.28 39.7676 71.564 39.966 71.9118C40.1765 72.2718 40.2819 72.706 40.282 73.2144C40.282 73.7232 40.1766 74.1574 39.966 74.517ZM49.7192 69.0276C49.1489 68.8168 48.4987 68.7113 47.7676 68.7112C46.9746 68.7112 46.2557 68.8197 45.6118 69.0368C45.0495 69.2197 44.5026 69.4468 43.9762 69.716L44.8683 71.3536C45.052 71.2336 45.2445 71.1278 45.4442 71.0373C46.0922 70.7425 46.7957 70.5902 47.5074 70.5906C47.745 70.5883 47.9818 70.6132 48.2136 70.665C48.4106 70.7086 48.5968 70.7909 48.7617 70.907C48.9122 71.013 49.031 71.1576 49.1056 71.3257C49.1846 71.5173 49.2226 71.7232 49.2172 71.9304V72.8422C48.8855 72.6627 48.5331 72.5251 48.1671 72.4329C47.6962 72.3145 47.2123 72.2582 46.727 72.2654C45.6611 72.2654 44.8371 72.5073 44.255 72.991C43.6725 73.475 43.3813 74.1324 43.3815 74.9636C43.3815 75.5468 43.5208 76.0399 43.7996 76.4429C44.0773 76.8453 44.4598 77.1639 44.9055 77.364C45.3719 77.5767 45.8798 77.6846 46.3922 77.6804C46.9041 77.682 47.4116 77.5873 47.8883 77.4013C48.3451 77.2296 48.749 76.9408 49.0595 76.5639C49.1169 76.4931 49.1697 76.4182 49.2172 76.3399V77.4943H51.5401V71.428C51.5401 70.845 51.3793 70.3519 51.0571 69.9486C50.7349 69.5457 50.289 69.2386 49.7192 69.0276ZM49.2172 74.0703C49.2172 74.4798 49.1241 74.8302 48.9384 75.1218C48.7608 75.4058 48.5105 75.6371 48.2136 75.7916C47.9032 75.9499 47.5584 76.0298 47.21 76.0242C46.9647 76.0272 46.7211 75.9797 46.4943 75.8847C46.2883 75.8003 46.1107 75.6582 45.9833 75.4753C45.8653 75.2862 45.8012 75.0683 45.7976 74.8452C45.7944 74.6221 45.8522 74.4025 45.9647 74.2099C46.094 74.029 46.2756 73.8925 46.4853 73.8192C46.7202 73.7261 47.0239 73.6796 47.3957 73.6796C47.8395 73.6776 48.2809 73.7403 48.7061 73.8657C48.881 73.9178 49.0518 73.9825 49.2172 74.0594V74.0703ZM58.392 68.9345L56.2796 74.2431L54.136 68.9345H51.4597L55.0095 76.6383L52.7728 81.7737H55.2435L60.9007 68.9345H58.392Z" fill="#233DB4"/>
<path d="M7.47498 63.2262C6.49334 63.2262 5.52131 63.4198 4.6144 63.7959C3.7075 64.172 2.88347 64.7233 2.18935 65.4183C1.49523 66.1132 0.944628 66.9383 0.568976 67.8463C0.193327 68.7544 -1.11319e-05 69.7276 4.80719e-10 70.7104C4.80715e-10 74.3537 5.80815 80.2968 7.18422 81.6544C7.26144 81.7309 7.36568 81.7738 7.47426 81.7738C7.58289 81.7738 7.68713 81.7309 7.76435 81.6544C9.14182 80.2968 14.9486 74.3537 14.9486 70.7104C14.9488 69.7276 14.7558 68.7544 14.3803 67.8463C14.0048 66.9383 13.4543 66.1132 12.7603 65.4181C12.0663 64.7231 11.2423 64.1718 10.3354 63.7957C9.42857 63.4196 8.45659 63.2261 7.47498 63.2262ZM7.47417 75.2614C6.57521 75.2613 5.69645 74.9944 4.94904 74.4944C4.20159 73.9943 3.61904 73.2836 3.27504 72.452C2.93104 71.6205 2.84104 70.7055 3.01642 69.8227C3.1918 68.9399 3.62469 68.1291 4.26034 67.4926C4.896 66.8562 5.70585 66.4228 6.5875 66.2472C7.4692 66.0716 8.38307 66.1617 9.21357 66.5061C10.0441 66.8505 10.754 67.4338 11.2534 68.1822C11.7528 68.9305 12.0194 69.8104 12.0194 70.7104C12.0181 71.917 11.5388 73.0738 10.6867 73.927C9.8346 74.7801 8.67922 75.2601 7.47417 75.2614ZM9.38415 70.7926C9.26138 70.6531 9.11832 70.5329 8.95981 70.4361C8.78531 70.332 8.6015 70.2444 8.41081 70.1743C8.20052 70.0986 8.00365 70.0284 7.82363 69.9732C7.66969 69.9308 7.52243 69.8671 7.38615 69.7838C7.33518 69.7565 7.29271 69.7156 7.26334 69.6658C7.23397 69.6159 7.21883 69.559 7.21955 69.5011C7.22028 69.4448 7.23663 69.3897 7.26673 69.342C7.2998 69.2884 7.34702 69.245 7.40328 69.2167C7.47883 69.1783 7.56282 69.1594 7.64759 69.1618C7.74542 69.1638 7.84166 69.1871 7.92959 69.2302C8.03388 69.2836 8.12814 69.3547 8.20816 69.4405C8.30752 69.5473 8.38994 69.6688 8.45248 69.8006L9.67379 69.1277C9.55011 68.9279 9.40191 68.7444 9.2326 68.5815C9.04775 68.4052 8.82855 68.269 8.58871 68.1815C8.44484 68.1272 8.29564 68.0885 8.14359 68.0659L8.25163 67.3452C7.99665 67.289 7.73634 67.2604 7.47521 67.26C7.31431 67.2608 7.15363 67.2722 6.99421 67.294L7.07171 68.0751C6.87786 68.1064 6.68881 68.1626 6.50929 68.2422C6.22828 68.3623 5.98207 68.5514 5.79346 68.7921C5.6247 69.0008 5.53243 69.2611 5.53202 69.5296C5.52588 69.7676 5.57856 70.0034 5.68543 70.216C5.78208 70.4032 5.91474 70.5695 6.07573 70.7052C6.22299 70.8366 6.38575 70.9492 6.56039 71.0409C6.70521 71.1173 6.85378 71.1862 7.00556 71.2475C7.21562 71.3291 7.39559 71.3992 7.54136 71.4541C7.66151 71.4992 7.77646 71.5571 7.88423 71.6267C7.92037 71.6519 7.95002 71.6854 7.97076 71.7243C7.9915 71.7631 8.00275 71.8064 8.00365 71.8505C8.00605 71.9144 7.98815 71.9776 7.9525 72.0307C7.91536 72.0843 7.86014 72.1226 7.79702 72.1386C7.70764 72.1634 7.6151 72.175 7.52238 72.1729C7.36799 72.1747 7.21476 72.1456 7.07171 72.0874C6.92716 72.0262 6.79594 71.9374 6.68533 71.8259C6.54611 71.6826 6.42 71.5271 6.30844 71.3612L5.19887 72.1729C5.32815 72.4072 5.50328 72.6129 5.71389 72.7778C5.95753 72.976 6.23122 73.1341 6.52456 73.2462C6.70123 73.317 6.88545 73.3671 7.07356 73.3958L7.00162 74.1222C7.15792 74.1441 7.31553 74.1555 7.47336 74.1563C7.72861 74.1554 7.98305 74.128 8.23265 74.0747L8.1304 73.3844C8.31353 73.3562 8.49405 73.3131 8.67018 73.2557C9.00911 73.1398 9.27421 72.9654 9.46372 72.7284C9.65594 72.4793 9.75562 72.1709 9.74572 71.8563L9.7497 71.8523C9.75236 71.6514 9.72164 71.4515 9.65874 71.2607C9.59634 71.0893 9.5033 70.9307 9.38415 70.7926Z" fill="#233DB4"/>
</g>
<g clip-path="url(#clip4_226_11)">
<path d="M135.316 77.1891C133.912 77.1891 132.876 76.5091 132.579 75.3013C132.302 76.5091 131.256 77.1891 129.861 77.1891C127.554 77.1891 126.416 75.687 126.416 73.6469V67.5572H128.662V73.7788C128.662 74.7634 129.01 75.4231 130.056 75.4231C131.051 75.4231 131.451 74.7634 131.471 73.7788V67.5572H133.707V73.7788C133.707 74.7634 134.117 75.4231 135.122 75.4231C136.167 75.4231 136.516 74.7634 136.516 73.7788V67.5572H138.762V73.6469C138.762 75.687 137.624 77.1891 135.316 77.1891Z" fill="white"/>
<path d="M106.585 69.9626C107.087 69.2623 107.354 68.4199 107.354 67.5572H100.115V69.2521H104.585L100.72 74.6314C100.217 75.3317 99.9507 76.1741 99.9507 77.0369H107.19V75.3419H102.719L106.585 69.9626Z" fill="white"/>
<path d="M168.939 70.8964V73.3323C168.939 73.5251 168.939 73.7179 168.939 73.9108C168.939 74.2965 169 74.6314 169.144 74.8852L169.154 74.9156C169.206 74.9968 169.257 75.078 169.329 75.1389C169.37 75.1795 169.411 75.2201 169.462 75.2505C169.482 75.2708 169.513 75.281 169.544 75.3013L169.554 75.3114L169.585 75.3317C169.862 75.4941 170.19 75.5449 170.508 75.5449C170.672 75.5449 170.836 75.5246 171 75.4941V77.1688C170.836 77.1891 170.672 77.1891 170.508 77.1891C168.734 77.1891 167.36 76.3162 166.909 74.9257L166.898 74.9055C166.827 74.6416 166.786 74.3675 166.765 74.0732C166.765 74.0224 166.755 73.9615 166.755 73.9108V73.9006C166.755 73.8397 166.755 73.7788 166.755 73.7179C166.755 73.0684 166.755 70.8964 166.755 70.8964H165.401V69.2521H166.755V67.5572H168.939V69.242H171V70.8964H168.939Z" fill="white"/>
<path d="M110.533 72.5C110.533 71.211 111.343 70.8964 112.091 70.8964C112.86 70.8964 113.67 71.211 113.67 72.5H110.533ZM114.921 70.2671C114.88 70.2265 114.839 70.1859 114.788 70.1453C114.583 69.9626 114.347 69.8104 114.091 69.6784C113.968 69.6175 113.845 69.5668 113.711 69.516C113.67 69.5059 113.629 69.4856 113.588 69.4754C113.137 69.3232 112.635 69.242 112.091 69.242C111.948 69.242 111.804 69.2521 111.671 69.2623C111.589 69.2724 111.517 69.2826 111.435 69.2826C111.127 69.3232 110.84 69.3841 110.574 69.4856C110.471 69.516 110.379 69.5566 110.276 69.5972C110.184 69.6378 110.092 69.6886 110 69.7292C109.733 69.8712 109.487 70.0438 109.282 70.2468C108.687 70.8152 108.338 71.6068 108.338 72.5507V73.2105V73.8702C108.338 73.9006 108.349 73.9209 108.349 73.9514C108.359 74.2254 108.39 74.4893 108.451 74.7329V74.7532C108.851 76.2452 110.266 77.1789 112.112 77.1789C113.629 77.1789 114.86 76.5395 115.465 75.4738V75.4637C115.557 75.3013 115.629 75.1389 115.69 74.9663H113.404C113.219 75.2302 112.953 75.3926 112.666 75.4637C112.491 75.5144 112.296 75.5246 112.112 75.5246C111.794 75.5246 111.456 75.4738 111.189 75.3114L111.158 75.2911C110.933 75.1693 110.779 74.9663 110.676 74.7227C110.656 74.6618 110.625 74.5908 110.615 74.5299C110.604 74.4893 110.594 74.4386 110.584 74.3878C110.553 74.2559 110.543 74.0935 110.543 73.9311V73.8905H115.875V73.8702V73.2105V72.5507C115.865 71.6271 115.516 70.8456 114.921 70.2671Z" fill="white"/>
<path d="M145.181 74.5807C145.17 74.6822 145.14 74.7735 145.088 74.8547C144.883 75.1896 144.35 75.555 143.52 75.555C142.945 75.555 142.443 75.2302 142.443 74.6314C142.443 74.0326 142.904 73.657 143.714 73.657H145.181V74.1442C145.191 74.2863 145.201 74.4284 145.181 74.5807ZM147.334 72.4391C147.334 72.3173 147.324 72.2057 147.313 72.0839C147.303 72.0027 147.293 71.9215 147.283 71.8403C147.272 71.7997 147.262 71.7591 147.262 71.7185C147.262 71.6779 147.242 71.6373 147.242 71.6068V71.5865C146.852 70.125 145.468 69.2014 143.653 69.2014C142.689 69.2014 141.848 69.4551 141.212 69.922C141.007 70.0742 140.823 70.2468 140.659 70.4396L142.31 71.485C142.494 71.1501 142.781 70.9674 143.109 70.8862C143.15 70.8761 143.202 70.8659 143.243 70.8558C143.376 70.8355 143.509 70.8253 143.653 70.8253C143.807 70.8253 143.971 70.8355 144.125 70.8761C144.166 70.8862 144.196 70.8964 144.237 70.9065C144.35 70.937 144.453 70.9877 144.555 71.0486L144.586 71.0689L144.596 71.0791C144.617 71.0892 144.637 71.1095 144.658 71.1197C144.801 71.211 144.904 71.3328 144.976 71.4749C144.996 71.5053 145.006 71.5256 145.017 71.5561C145.027 71.5865 145.037 71.6068 145.047 71.6373C145.068 71.6982 145.099 71.7591 145.109 71.8301C145.119 71.8707 145.129 71.9215 145.14 71.9621C145.15 71.9925 145.15 72.0331 145.16 72.0636V72.0737C145.17 72.1448 145.181 72.2057 145.181 72.2869C145.181 72.3275 145.181 72.3681 145.181 72.4087V72.4492H143.161C141.602 72.4492 140.29 73.1191 140.29 74.7735C140.29 76.3365 141.664 77.1891 143.068 77.1891C143.837 77.1891 144.658 76.9658 145.181 76.4076V77.047H147.334V72.571C147.344 72.5203 147.344 72.4797 147.334 72.4391Z" fill="white"/>
<path d="M93.665 72.5C93.665 71.211 94.4751 70.8964 95.2236 70.8964C95.9927 70.8964 96.8027 71.211 96.8027 72.5H93.665ZM98.0537 70.2671C98.0127 70.2265 97.9717 70.1859 97.9204 70.1453C97.7153 69.9626 97.4795 69.8104 97.2231 69.6784C97.1001 69.6175 96.9771 69.5668 96.8437 69.516C96.8027 69.5059 96.7617 69.4856 96.7207 69.4754C96.2695 69.3232 95.7671 69.242 95.2236 69.242C95.0801 69.242 94.9365 69.2521 94.8032 69.2623C94.7212 69.2724 94.6494 69.2826 94.5674 69.2826C94.2598 69.3232 93.9727 69.3841 93.7061 69.4856C93.6035 69.516 93.5112 69.5566 93.4087 69.5972C93.3164 69.6378 93.2241 69.6886 93.1318 69.7292C92.8652 69.8712 92.6191 70.0438 92.4141 70.2468C91.8193 70.8152 91.4707 71.6068 91.4707 72.5507V73.2105V73.8702C91.4707 73.9006 91.481 73.9209 91.481 73.9514C91.4912 74.2254 91.522 74.4893 91.5835 74.7329V74.7532C91.9834 76.2452 93.3984 77.1789 95.2441 77.1789C96.7617 77.1789 97.9922 76.5395 98.5972 75.4738V75.4637C98.6177 75.4231 98.6484 75.3723 98.6689 75.3317C98.7305 75.2099 98.7817 75.0881 98.8228 74.9663H96.5361C96.3516 75.2302 96.085 75.3926 95.7979 75.4637C95.6235 75.5144 95.4287 75.5246 95.2441 75.5246C94.9263 75.5246 94.5879 75.4738 94.3213 75.3114L94.2905 75.2911C94.0649 75.1693 93.9111 74.9663 93.8086 74.7227C93.7881 74.6618 93.7573 74.5908 93.7368 74.5299C93.7266 74.4893 93.7163 74.4386 93.7061 74.3878C93.6753 74.2559 93.665 74.0935 93.665 73.9311V73.8905H98.9971V73.8702V73.2105V72.5507C98.9971 71.6271 98.6484 70.8456 98.0537 70.2671Z" fill="white"/>
<path d="M119.433 72.5C119.433 71.211 120.243 70.8964 120.992 70.8964C121.761 70.8964 122.571 71.211 122.571 72.5H119.433ZM123.822 70.2671C123.781 70.2265 123.74 70.1859 123.688 70.1453C123.483 69.9626 123.248 69.8104 122.991 69.6784C122.868 69.6175 122.745 69.5668 122.612 69.516C122.571 69.5059 122.53 69.4856 122.489 69.4754C122.038 69.3232 121.535 69.242 120.992 69.242C120.848 69.242 120.705 69.2521 120.571 69.2623C120.489 69.2724 120.417 69.2826 120.335 69.2826C120.028 69.3232 119.741 69.3841 119.474 69.4856C119.372 69.516 119.279 69.5566 119.177 69.5972C119.084 69.6378 118.992 69.6886 118.9 69.7292C118.633 69.8712 118.397 70.0438 118.182 70.2468C117.587 70.8152 117.239 71.6068 117.239 72.5507V73.2105V73.8702C117.239 73.9006 117.249 73.9209 117.249 73.9514C117.259 74.2254 117.29 74.4893 117.352 74.7329V74.7532C117.751 76.2452 119.167 77.1789 121.012 77.1789C122.53 77.1789 123.76 76.5395 124.365 75.4738V75.4637C124.458 75.3013 124.529 75.1389 124.591 74.9663H122.294C122.109 75.2302 121.843 75.3926 121.556 75.4637C121.381 75.5144 121.187 75.5246 121.002 75.5246C120.684 75.5246 120.346 75.4738 120.079 75.3114L120.048 75.2911C119.823 75.1693 119.669 74.9663 119.566 74.7227C119.546 74.6618 119.515 74.5908 119.495 74.5299C119.484 74.4893 119.474 74.4386 119.464 74.3878C119.433 74.2559 119.423 74.0935 119.423 73.9311V73.8905H124.755V73.8702V73.2105V72.5507C124.765 71.6271 124.417 70.8456 123.822 70.2671Z" fill="white"/>
<path d="M159.064 72.5C159.064 71.211 159.875 70.8964 160.623 70.8964C161.392 70.8964 162.202 71.211 162.202 72.5H159.064ZM163.453 70.2671C163.412 70.2265 163.371 70.1859 163.32 70.1453C163.115 69.9626 162.879 69.8104 162.623 69.6784C162.5 69.6175 162.376 69.5668 162.243 69.516C162.202 69.5059 162.161 69.4856 162.12 69.4754C161.669 69.3232 161.167 69.242 160.623 69.242C160.479 69.242 160.336 69.2521 160.203 69.2623C160.121 69.2724 160.049 69.2826 159.967 69.2826C159.659 69.3232 159.372 69.3841 159.105 69.4856C159.003 69.516 158.911 69.5566 158.808 69.5972C158.716 69.6378 158.624 69.6886 158.531 69.7292C158.265 69.8712 158.019 70.0438 157.813 70.2468C157.219 70.8152 156.87 71.6068 156.87 72.5507V73.2105V73.8702C156.87 73.9006 156.88 73.9209 156.88 73.9514C156.891 74.2254 156.921 74.4893 156.983 74.7329V74.7532C157.383 76.2452 158.798 77.1789 160.644 77.1789C162.161 77.1789 163.392 76.5395 163.997 75.4738V75.4637C164.089 75.3013 164.161 75.1389 164.222 74.9663H161.936C161.751 75.2302 161.484 75.3926 161.197 75.4637C161.023 75.5144 160.828 75.5246 160.644 75.5246C160.326 75.5246 159.987 75.4738 159.721 75.3114L159.69 75.2911C159.464 75.1693 159.311 74.9663 159.208 74.7227C159.187 74.6618 159.157 74.5908 159.146 74.5299C159.136 74.4893 159.126 74.4386 159.116 74.3878C159.085 74.2559 159.075 74.0935 159.075 73.9311V73.8905H164.407V73.8702V73.2105V72.5507C164.396 71.6271 164.048 70.8456 163.453 70.2671Z" fill="white"/>
<path d="M150.062 77.0369H151.312V67.5572H149.128V76.1234C149.128 76.6309 149.539 77.0369 150.062 77.0369Z" fill="white"/>
<path d="M153.855 77.0369H155.106V67.5572H152.922V76.1234C152.922 76.6309 153.343 77.0369 153.855 77.0369Z" fill="white"/>
<path d="M73.188 74.7837C73.188 75.4535 73.7314 75.9915 74.4082 75.9915H84.1494V73.586H74.4082C73.7314 73.5759 73.188 74.1138 73.188 74.7837Z" fill="#03C5D3"/>
<path d="M84.1392 68.7548H74.3979C73.7212 68.7548 73.1777 69.2927 73.1777 69.9626C73.1777 70.6325 73.7212 71.1704 74.3979 71.1704H84.1392V68.7548Z" fill="#03C5D3"/>
<path d="M70.0811 67.9225C69.9067 68.2372 69.8247 68.5924 69.8247 68.9477C69.8145 69.8611 70.3887 70.5513 71.1475 71.0182C71.7114 71.3835 72.2549 71.8098 72.2549 72.5C72.2549 73.1902 71.7114 73.6165 71.1475 73.9818C70.3989 74.4487 69.8247 75.1389 69.8247 76.0524C69.8247 76.4076 69.9067 76.7628 70.0811 77.0775C70.6245 78.0924 71.7627 78.3868 72.8394 78.3868H85.3491V82H72.6445C72.4702 82 72.2959 82 72.1113 82C70.6143 82.0102 69.0454 81.6752 67.8457 80.7415C67.1587 80.2137 66.6255 79.5134 66.3281 78.6912C65.6309 76.8339 66.0513 75.0171 67.4971 73.6672C67.6406 73.5251 67.7944 73.3932 67.9277 73.2409C68.0713 73.0785 68.2046 72.8958 68.2661 72.6827C68.2866 72.6218 68.2969 72.5812 68.2969 72.5C68.2969 72.4188 68.2866 72.3782 68.2661 72.3173C68.2046 72.1042 68.0713 71.9215 67.9277 71.7591C67.7944 71.6068 67.6406 71.4749 67.4971 71.3328C66.0513 69.9829 65.6309 68.156 66.3281 66.3088C66.6357 65.4968 67.1587 64.7863 67.856 64.2586C69.0557 63.3349 70.6245 62.9899 72.1216 63C72.2959 63 72.4702 63 72.6548 63H85.3594V66.6133H72.8496C71.7627 66.6133 70.6245 66.9076 70.0811 67.9225Z" fill="#03C5D3"/>
</g>
<defs>
<clipPath id="clip0_226_11">
<rect width="90" height="20" fill="white" transform="translate(0 10)"/>
</clipPath>
<clipPath id="clip1_226_11">
<rect width="68" height="18" fill="white" transform="translate(59 37)"/>
</clipPath>
<clipPath id="clip2_226_11">
<rect width="31" height="21" fill="white" transform="translate(169 37)"/>
</clipPath>
<clipPath id="clip3_226_11">
<rect width="61" height="19" fill="white" transform="translate(0 63)"/>
</clipPath>
<clipPath id="clip4_226_11">
<rect width="105" height="19" fill="white" transform="translate(66 63)"/>
</clipPath>
</defs>
</svg>
