<svg xmlns="http://www.w3.org/2000/svg" width="202" height="94" fill="none"><g clip-path="url(#a)"><path fill="#F69220" d="m7.4 24.3-5.12-8.98a1.2 1.2 0 0 0-1.67-.45 1.27 1.27 0 0 0-.44 1.71l5.12 9c.23.39.63.61 1.06.61.2 0 .42-.05.61-.17.58-.35.78-1.12.44-1.71Z"/><path fill="#606060" d="M19.23 21.3a4.22 4.22 0 0 0-.57-1.92c-.57-1.01-1.2-1.7-2.06-2.12a4.4 4.4 0 0 0-2.4-.46c.3-.58.45-1.23.51-1.88a4.7 4.7 0 0 0-.79-2.8 3.96 3.96 0 0 0-3.07-2.09 5.5 5.5 0 0 0-2.65.36l-.27.1c-.41.15-1.48.76-1.85.98l-1.73 1.1-.04.03a1.41 1.41 0 0 0-.5 1.9 1.36 1.36 0 0 0 1.85.52l.03-.01 2.87-1.68a2.15 2.15 0 0 1 1.67-.23 2.26 2.26 0 0 1 1.34 1.09 2.63 2.63 0 0 1 .31 1.74c-.05.28-.15.53-.3.77-.14.23-.35.42-.6.57l-1.73 1.06-.73.43-.48.28a1.34 1.34 0 0 0-.47 1.81 1.29 1.29 0 0 0 1.77.49l.95-.57 2.46-1.37c.25-.15.51-.23.78-.25.28-.01.54.03.8.12a2.59 2.59 0 0 1 1.6 2.01c.04.31.02.6-.04.88a2.13 2.13 0 0 1-1.03 1.36l-4.26 2.49-.2.12-.77.46-1.5.82a1.4 1.4 0 0 0-.54 1.86 1.34 1.34 0 0 0 1.83.56l3.67-2.02 2.94-1.65a7.71 7.71 0 0 0 1.73-1.36c.48-.51.85-1.06 1.11-1.65.26-.6.38-1.2.36-1.85ZM60.51 19.01a2.12 2.12 0 0 0 1.12-1.9c0-1.57-1.03-2.57-2.78-2.57H56.3c-.26 0-.58 0-.83.25-.24.25-.24.58-.24.84v7c0 .26 0 .59.24.84.25.25.57.25.83.25H59c1.6 0 2.76-.93 2.76-2.65 0-1.22-.7-1.8-1.25-2.06Zm-3.52-2.87h1.72c.74 0 1.16.42 1.16 1.05 0 .64-.42 1.06-1.16 1.06h-1.72v-2.11Zm1.83 5.98H57v-2.26h1.83c.8 0 1.17.5 1.17 1.13 0 .61-.37 1.13-1.17 1.13ZM65.74 16.92c-1.7 0-2.85 1.25-2.85 3.44 0 2.72 1.48 3.44 3.03 3.44.73 0 1.34-.16 1.8-.47.37-.25.63-.54.63-.86 0-.39-.34-.7-.66-.7-.2 0-.35.06-.6.25-.33.24-.73.36-1.14.36-.95 0-1.45-.63-1.45-1.5h3.16c.24 0 .5 0 .71-.2.2-.2.23-.5.22-.76-.05-1.7-1.08-3-2.85-3Zm-1.24 2.81c0-.29.04-.48.15-.72.17-.4.54-.7 1.1-.7.54 0 .92.3 1.1.7.1.24.13.43.14.72H64.5ZM72.33 18.48c.31 0 .43-.02.56-.09.2-.1.3-.3.3-.55 0-.25-.1-.45-.3-.56-.13-.07-.25-.09-.56-.09h-.49v-.9c0-.4-.02-.56-.1-.74-.12-.25-.38-.4-.72-.4-.33 0-.59.15-.7.4-.1.18-.11.34-.11.75v.9h-.17c-.3 0-.42.01-.55.08-.2.1-.3.3-.3.56 0 .25.1.45.3.55.13.07.24.1.55.1h.17v3.3c0 .99.53 1.93 1.9 1.93h.08c.31 0 .53-.04.67-.11.2-.1.33-.3.33-.6s-.13-.5-.33-.6a1.2 1.2 0 0 0-.49-.1c-.41-.03-.53-.29-.53-.6v-3.23h.5ZM76.74 18.48c.3 0 .42-.02.55-.09.2-.1.3-.3.3-.55 0-.25-.1-.45-.3-.56-.13-.07-.24-.09-.55-.09h-.5v-.9c0-.4-.01-.56-.1-.74-.12-.25-.38-.4-.71-.4-.33 0-.6.15-.71.4-.09.18-.1.34-.1.75v.9h-.17c-.31 0-.42.01-.56.08-.2.1-.3.3-.3.56 0 .25.1.45.3.55.14.07.25.1.56.1h.16v3.3c0 .99.54 1.93 1.9 1.93h.09c.31 0 .52-.04.67-.11.2-.1.33-.3.33-.6s-.13-.5-.33-.6a1.2 1.2 0 0 0-.5-.1c-.4-.03-.52-.29-.52-.6v-3.23h.49ZM81.16 16.92c-1.7 0-2.85 1.25-2.85 3.44 0 2.72 1.48 3.44 3.03 3.44.73 0 1.34-.16 1.8-.47.37-.25.63-.54.63-.86 0-.39-.34-.7-.66-.7-.2 0-.35.06-.6.25-.33.24-.73.36-1.14.36-.95 0-1.45-.63-1.45-1.5h3.16c.24 0 .5 0 .71-.2.2-.2.23-.5.22-.76-.05-1.7-1.08-3-2.85-3Zm-1.24 2.81c0-.29.04-.48.15-.72.17-.4.54-.7 1.1-.7.54 0 .92.3 1.1.7.1.24.12.43.14.72h-2.49ZM89.58 17.23c-.3-.2-.62-.3-1.13-.3a2.1 2.1 0 0 0-1.56.72.8.8 0 0 0-.25-.5.72.72 0 0 0-.52-.2c-.3 0-.58.15-.7.39-.1.19-.12.32-.12.75v4.53c0 .41.01.57.1.75.12.25.38.4.71.4.34 0 .6-.15.72-.4.08-.18.1-.34.1-.75v-2.95c0-.85.54-1.24 1.1-1.24.21 0 .42.07.61.18.23.11.4.17.57.17.2 0 .4-.08.54-.23a.88.88 0 0 0 .25-.61c0-.3-.17-.54-.42-.7Z"/><path fill="#F69220" d="M32.83 14.41a.9.9 0 0 0-.56.16 1.6 1.6 0 0 0-.47.58l-2.16 4.22-2.16-4.22a1.6 1.6 0 0 0-.47-.58.9.9 0 0 0-.56-.16.86.86 0 0 0-.64.27c-.23.24-.28.53-.28.91v6.91c0 .41.01.58.13.82a.9.9 0 0 0 .82.46.9.9 0 0 0 .82-.47c.11-.23.12-.4.12-.8v-3.84l1.32 2.66c.2.42.42.67.9.67.48 0 .7-.25.9-.67l1.32-2.66v3.83c0 .41 0 .58.13.82a.9.9 0 0 0 .81.46c.36 0 .67-.18.82-.47.12-.23.13-.4.13-.8v-6.92c0-.38-.05-.67-.28-.91a.86.86 0 0 0-.64-.27ZM39.95 16.86c-.34 0-.63.16-.77.44-.1.2-.1.37-.1.77v2.95c0 1.05-.79 1.13-1.03 1.13s-1-.08-1-1.13v-2.95c0-.4-.02-.58-.12-.77-.13-.28-.42-.44-.76-.44-.35 0-.64.16-.77.44-.1.2-.12.37-.12.77v3.18c0 .87.2 1.45.69 1.94.39.4.93.61 1.58.61.6 0 1.2-.23 1.6-.63a.8.8 0 0 0 .8.6c.33 0 .63-.16.76-.42.1-.21.12-.36.12-.78v-4.5c0-.4-.01-.58-.11-.78-.13-.27-.42-.43-.77-.43ZM44.97 18.49c.27 0 .46.07.74.27.24.18.4.25.6.25a.84.84 0 0 0 .8-.83c0-.48-.45-.81-.82-1-.4-.24-.79-.34-1.31-.34-.56 0-1.35.12-2 .7-.66.6-1 1.53-1 2.77s.34 2.18 1 2.78a2.9 2.9 0 0 0 1.99.71c.5 0 .9-.1 1.32-.33.55-.3.82-.64.82-1a.83.83 0 0 0-.25-.6.79.79 0 0 0-.55-.25c-.22 0-.4.1-.6.26-.26.2-.46.27-.74.27-.37 0-.65-.13-.87-.41-.24-.3-.35-.75-.35-1.43 0-.68.11-1.1.35-1.41.21-.27.5-.4.87-.41ZM53 17.44c-.4-.4-.95-.6-1.6-.6-.6 0-1.08.18-1.51.59v-1.8c0-.4-.02-.58-.12-.78-.13-.27-.42-.43-.77-.43-.34 0-.63.16-.76.43-.1.2-.12.38-.12.78v6.94c0 .4.02.57.12.77.13.28.42.44.76.44.35 0 .64-.16.77-.44.1-.2.12-.37.12-.77v-2.95c0-1.05.78-1.13 1.01-1.13.24 0 1 .08 1 1.13v2.95c0 .4.03.57.12.77.14.28.42.44.77.44.35 0 .64-.16.77-.44.1-.2.11-.37.11-.77v-3.18c0-.87-.2-1.45-.68-1.94Z"/></g><mask id="b" width="53" height="13" x="97" y="17" maskUnits="userSpaceOnUse" style="mask-type:luminance"><path fill="#fff" d="M149.13 17.06h-51.6v12.7h51.6v-12.7Z"/></mask><g mask="url(#b)"><path fill="#fff" d="M104.37 21.96v-.14c0-1.6-.72-2.36-1.85-2.36-1.13 0-1.86.81-1.86 2.34v.14c0 1.55.7 2.33 1.86 2.33 1.17 0 1.85-.82 1.85-2.31Zm-.7-4.85c2.2 0 3.97 1.6 3.97 4.7v.15c0 3.13-1.78 4.69-3.99 4.69-1.41 0-2.44-.64-2.9-1.55v4.38h-3.22V17.35h3.22v1.36c.53-.87 1.5-1.6 2.92-1.6ZM115.3 21.9v-.15c0-1.58-.67-2.34-1.75-2.34-1.13 0-1.8.78-1.8 2.36v.14c0 1.53.69 2.31 1.75 2.31s1.8-.78 1.8-2.33Zm-6.81.04v-.14c0-3.09 1.83-4.74 3.93-4.74 1.42 0 2.26.6 2.8 1.51V17.3h3.21v9.1h-3.21v-1.47a3.12 3.12 0 0 1-2.82 1.67c-2.08 0-3.91-1.51-3.91-4.66M124.86 22.2l1.8-4.85h3.07l-5.03 12.13h-3.07l1.56-3.96-3.75-8.17h3.48l1.94 4.85ZM129.9 26.44V24.3l4.26-4.59h-3.75l-.02-2.35h7.53v2.3l-4.1 4.43h4.4v2.36h-8.33Z"/><path fill="#D0FA02" d="M139.74 25.22c.03-2.5 2-4.55 4.65-4.55a4.62 4.62 0 0 1 4.74 4.55c0 2.5-2.02 4.54-4.74 4.54a4.5 4.5 0 0 1-4.65-4.54Z"/></g><path fill="#872165" d="M185.1 28.1h3.58V17.5h-3.57v10.6Zm-2.02-10.76c-3.3.11-4.98 1.68-4.98 4.8v5.97h3.61v-4.87c0-1.87.23-2.67 2.33-2.75v-3.11a4.66 4.66 0 0 0-.74-.06l-.22.02Zm-27.08.88c0 1.22.5 4.1 5.11 4.45.4.02 1.43.1 1.43 1.12 0 .84-.85 1.36-2.28 1.36a11.62 11.62 0 0 1-4-.84v3.4c1.55.4 3.16.59 4.76.57 3.94 0 5.71-2.35 5.71-4.68 0-2.63-1.98-4.35-5.3-4.58-.44-.04-1.5-.1-1.5-1.1 0-1.21 1.5-1.21 2.09-1.21a11.32 11.32 0 0 1 4.15 1l.04.01V14.4l-.06-.02c-1.08-.4-2.34-.78-4.68-.78-4.04 0-5.47 2.48-5.47 4.62Zm11.63-3.86v13.75h3.7v-4.26c1.06 1.7 1.6 4.26 1.6 4.26h4.42c-.43-1.93-2.34-5.46-2.34-5.46 1.14-1.55 2-3.29 2.6-5.16h-4.25a13.56 13.56 0 0 1-2.04 3.7v-7.6l-3.69.77Zm22.57-.1v13.85h3.58V13.6l-3.58.67Zm5.22 0v13.85H199V13.6l-3.58.67Zm-8.52-1.52c-.98 0-1.78.84-1.78 1.87 0 1.03.8 1.87 1.78 1.87.97 0 1.77-.84 1.77-1.87-.02-1.03-.8-1.87-1.77-1.87Z"/><mask id="c" width="43" height="17" x="156" y="12" maskUnits="userSpaceOnUse" style="mask-type:luminance"><path fill="#fff" d="M185.1 28.1h3.58V17.5h-3.57v10.6Zm-2.02-10.76c-3.3.11-4.98 1.68-4.98 4.8v5.97h3.61v-4.87c0-1.87.23-2.67 2.33-2.75v-3.11a4.66 4.66 0 0 0-.74-.06l-.22.02Zm-27.08.88c0 1.22.5 4.1 5.11 4.45.4.02 1.43.1 1.43 1.12 0 .84-.85 1.36-2.28 1.36a11.62 11.62 0 0 1-4-.84v3.4c1.55.4 3.16.59 4.76.57 3.94 0 5.71-2.35 5.71-4.68 0-2.63-1.98-4.35-5.3-4.58-.44-.04-1.5-.1-1.5-1.1 0-1.21 1.5-1.21 2.09-1.21a11.32 11.32 0 0 1 4.15 1l.04.01V14.4l-.06-.02c-1.08-.4-2.34-.78-4.68-.78-4.04 0-5.47 2.48-5.47 4.62Zm11.63-3.86v13.75h3.7v-4.26c1.06 1.7 1.6 4.26 1.6 4.26h4.42c-.43-1.93-2.34-5.46-2.34-5.46 1.14-1.55 2-3.29 2.6-5.16h-4.25a13.56 13.56 0 0 1-2.04 3.7v-7.6l-3.69.77Zm22.57-.1v13.85h3.58V13.6l-3.58.67Zm5.22 0v13.85H199V13.6l-3.58.67Zm-8.52-1.52c-.98 0-1.78.84-1.78 1.87 0 1.03.8 1.87 1.78 1.87.97 0 1.77-.84 1.77-1.87-.02-1.03-.8-1.87-1.77-1.87Z"/></mask><g mask="url(#c)"><path fill="#872165" d="M199 12.74h-43v15.52h43V12.74Z"/></g><path fill="#83BA3B" d="M51.75 40.33c-.67-.66-1.67-1-2.99-1h-3.44l-1.28 10.13h-4.52l.3-2.3h2.71l.32-2.58-2.71.01.29-2.29h2.8l.37-2.96h-5.69l-1.21 9.6h-2.1l1.23-9.6h-2.97l-1.22 9.6h-2.03l1.23-9.6h-2.98l-1.28 10.12h-4.55l.3-2.3h2.72l.32-2.56h-2.72l.29-2.3h2.83l.37-2.96H8.4l-1 8.02-2.02-8.02H2.31L.65 52.43H3.6l1-8.24 1.95 8.24h10.56l1.28-10.13h1.65l-1.28 10.13h27.78l.81-6.4 1.3 6.4h2.95l-1.35-5.22.3-.1a2.68 2.68 0 0 0 1.59-1.35c.37-.7.56-1.58.56-2.64 0-1.24-.31-2.15-.95-2.79Zm-37.2 9.13h-4.51l.29-2.3h2.83l.32-2.58h-2.8l.26-2.28h4.5l-.9 7.16Zm34.77-4.4c-.3.3-.73.44-1.32.44h-.58l.45-3.51h.43c.48 0 .84.11 1.09.34.19.18.42.54.42 1.23 0 .82-.27 1.26-.5 1.5Z"/><g clip-path="url(#d)"><path fill="#fff" d="M66.99 36.7 63 50.08h2.37l1.13-3.93h3.25l1.18 3.93h2.41L69.3 36.7H67Zm2.17 7.3h-2.07l.84-2.97c.04-.23.1-.4.14-.62.05.23.1.4.2.62l.89 2.97Zm8.12 0c-1.09-.5-1.18-.73-1.18-1.06 0-.45.34-.73.83-.73.5 0 .94.17 1.38.45l.44.33.6-2.13-.25-.23a3.31 3.31 0 0 0-2.17-.61c-1.82 0-3.1 1.29-3.1 3.09 0 1.62 1.28 2.52 2.36 2.97 1.09.45 1.19.79 1.19 1.18 0 .73-.7.84-1.09.84a3.55 3.55 0 0 1-1.67-.56l-.44-.28-.6 2.2.3.16c.74.45 1.58.73 2.41.67 1.97 0 3.35-1.29 3.35-3.2-.05-1.85-1.38-2.64-2.36-3.09Zm5.86-6.06-2.27.79v1.51h-1.18v2.2h1.23v4.37c-.05.96.15 1.91.64 2.7.5.56 1.13.9 1.82.84.5 0 .94-.06 1.38-.23l.3-.1-.1-2.2-.5.17c-.24.06-.44.11-.69.11-.24 0-.63 0-.63-1.23v-4.44h2.01v-2.19h-2.01v-2.3Zm7.48 2.19-.4-.06c-.14 0-.24-.05-.4-.05-.68 0-1.37.33-1.86.9v-.73h-2.12v.56c.05.73.05 1.63.05 2.75v6.62h2.27V44.9c0-.22 0-.45.04-.67.15-1.01.74-1.69 1.48-1.69h.4l.49.12.05-2.53Zm4.13-.11c-2.5 0-4.28 2.13-4.28 5.22 0 2.98 1.72 5.05 4.18 5.05 2.07 0 4.34-1.62 4.34-5.22-.05-2.97-1.78-5.05-4.24-5.05Zm1.87 5.1c0 1.75-.83 2.98-1.92 2.98-1.08 0-1.92-1.23-1.92-2.92 0-1.12.45-2.97 1.97-2.97 1.48 0 1.87 1.9 1.87 2.92Zm9.75-7.35c-.74-.79-1.87-1.18-3.35-1.18-.93 0-1.87.06-2.75.23l-.35.1v13.15h2.26v-4.89c.25 0 .5.06.7.06a4.66 4.66 0 0 0 3.64-1.52c.64-.78.98-1.9.98-2.97 0-1.13-.4-2.2-1.13-2.98Zm-1.13 3.03c0 1.86-1.43 2.14-2.32 2.14-.24 0-.49 0-.74-.06V38.9c.3-.05.6-.05.89-.05.99.05 2.17.4 2.17 1.96Zm9.15 6.69v-3.32c0-2.64-1.23-4.1-3.4-4.1-.98 0-1.96.28-2.8.85l-.3.22.6 2.08.49-.4c.54-.39 1.18-.61 1.82-.56.34-.05.74.12 1.03.4.2.22.3.56.35.9-1.78.05-3.06.56-3.84 1.46a3.57 3.57 0 0 0-.84 2.35c0 1.69 1.18 3.04 2.6 3.04h.2c.74 0 1.53-.29 2.12-.79l.05.56h2.17l-.05-.56c-.14-.7-.2-1.42-.2-2.13Zm-3.79.67c-.44.06-.84-.34-.88-.84v-.23c0-.33.1-.61.3-.84.24-.28.83-.62 2.16-.67v1.06c0 .12 0 .23-.05.4a1.64 1.64 0 0 1-1.53 1.12Zm10.04-7.92-1.62 5.56c-.06.14-.1.3-.1.45l-.15-.4L117 40.3h-2.46l3.1 8.87c.05.06.05.11.05.22 0 .06-.05.12-.05.17-.25.62-.6 1.18-1.08 1.63-.35.34-.7.56-1.09.68l-.39.16.6 2.2.38-.06a4.2 4.2 0 0 0 1.97-1.13c1.09-1.12 1.83-2.86 2.81-5.78l2.22-7.07-2.42.05Z"/><path fill="red" d="M71.32 40.41c1.48-1.68 3.94-2.7 6.65-2.7 1.03 0 2.06.17 3.05.45h.1l1.72-.61-.79-.34c-1.62-.62-3.3-.95-4.97-.95-2.33-.06-4.63.62-6.64 1.96l-.2.11.74 2.42.34-.34Z"/></g><path fill="#1434CB" d="M152.82 39.45c-2.23 0-4.24 1.22-4.24 3.46 0 2.58 3.54 2.75 3.54 4.03 0 .54-.6 1.03-1.6 1.03-1.45 0-2.53-.67-2.53-.67l-.46 2.26s1.24.58 2.9.58c2.45 0 4.38-1.27 4.38-3.56 0-2.72-3.56-2.9-3.56-4.09 0-.42.49-.89 1.5-.89 1.14 0 2.08.5 2.08.5l.45-2.2s-1.03-.45-2.46-.45Zm-20.47.17-.06.32s.93.18 1.78.54c1.1.42 1.17.66 1.36 1.4l2.01 8.08h2.7l4.11-10.34h-2.68l-2.65 7.03-1.08-5.97c-.1-.67-.6-1.06-1.23-1.06h-4.27Zm12.99 0-2.1 10.34h2.55l2.1-10.34h-2.55Zm14.25 0c-.62 0-.94.33-1.18.94l-3.75 9.4h2.68l.52-1.57h3.27l.3 1.57h2.38l-2.06-10.34h-2.16Zm.35 2.8.79 3.88h-2.13l1.34-3.88Z"/><g clip-path="url(#e)"><path fill="#00B1EA" d="M184.56 37.4c-8.43 0-15.27 4.3-15.27 9.6s6.84 10 15.27 10c8.44 0 15.28-4.7 15.28-10 0-5.31-6.84-9.6-15.28-9.6Z"/><path fill="#fff" d="M179.6 44.02s-.16.17-.06.3c.24.29.97.46 1.7.3.44-.1 1-.54 1.55-.97a6.24 6.24 0 0 1 1.78-1.1c.42-.15.87-.16 1.3-.04.42.16.82.39 1.17.68 1.02.75 5.14 4.28 5.85 4.9 2.19-.9 4.46-1.6 6.77-2.1a8.22 8.22 0 0 0-3.11-4.9c-2.38.98-5.47 1.56-8.3.2-.97-.42-2-.66-3.07-.68-2.24.05-3.22 1.01-4.25 2.02l-1.33 1.4Z"/><path fill="#fff" d="M192.7 48.47c-.05-.04-4.84-4.16-5.93-4.96a2.68 2.68 0 0 0-1.34-.63c-.22-.01-.43 0-.64.06-.64.24-1.24.59-1.75 1.03-.61.47-1.18.92-1.72 1.05a2.8 2.8 0 0 1-1.88-.28.83.83 0 0 1-.31-.35.55.55 0 0 1 .16-.61l1.32-1.4.47-.46a9 9 0 0 0-1.2.27 5.4 5.4 0 0 1-1.43.26c-.48-.05-.95-.12-1.43-.22a23.8 23.8 0 0 1-4.12-1.36c-1.88 1.38-3.1 3.07-3.47 4.96l1.16.27c4.26.93 5.58 1.89 5.82 2.1a1.4 1.4 0 0 1 1.14-.46 1.43 1.43 0 0 1 1.07.59c.29-.23.65-.35 1.02-.35.2 0 .4.03.6.1a1.4 1.4 0 0 1 .86.76c.18-.08.39-.12.59-.12.24 0 .49.05.71.15.31.14.56.38.72.69.15.3.2.64.12.97h.17a1.71 1.71 0 0 1 1.45.8 1.63 1.63 0 0 1 .03 1.65c.44.26.95.4 1.47.38a.96.96 0 0 0 .68-.3c.05-.05.1-.12.05-.17l-1.2-1.3s-.2-.19-.13-.26.19.03.27.1c.61.5 1.36 1.26 1.36 1.26s.06.1.35.15a1.27 1.27 0 0 0 .95-.22c.08-.06.15-.13.21-.2a.62.62 0 0 0-.03-.78l-1.43-1.56s-.2-.19-.13-.26.19.04.28.1c.44.36 1.06.99 1.67 1.57a1.16 1.16 0 0 0 1.34-.05.95.95 0 0 0 .5-.86.99.99 0 0 0-.3-.57l-1.92-1.9s-.2-.16-.13-.25c.08-.09.2.03.28.1.6.5 2.25 1.99 2.25 1.99a1.18 1.18 0 0 0 1.3-.02.87.87 0 0 0 .43-.68.93.93 0 0 0-.3-.78Z"/><path fill="#fff" d="M183.42 50.87c-.23.03-.45.08-.67.14-.02 0 .02-.13.05-.2.03-.07.42-1.22-.53-1.62a1.14 1.14 0 0 0-1.33.2c-.04.04-.06.03-.06 0a1.04 1.04 0 0 0-.75-.96 1.45 1.45 0 0 0-1.62.57 1.01 1.01 0 0 0-.3-.6 1.05 1.05 0 0 0-1.7.4 1 1 0 0 0 .41 1.2 1.05 1.05 0 0 0 1.28-.13v.03a1.37 1.37 0 0 0 .86 1.55 1.04 1.04 0 0 0 1-.15c.1-.05.1-.03.1.05-.04.23 0 .74.73 1.03a.94.94 0 0 0 1.09-.2c.09-.08.12-.07.12.06a1.29 1.29 0 0 0 .85 1.15 1.34 1.34 0 0 0 1.41-.32 1.28 1.28 0 0 0-.22-1.97 1.33 1.33 0 0 0-.72-.22v-.01Z"/><path fill="#2D3277" d="M184.56 37C175.97 37 169 41.49 169 47v.58c0 5.85 6.1 10.58 15.56 10.58 9.54 0 15.57-4.73 15.57-10.58V47c0-5.51-6.97-10-15.57-10Zm14.87 8.89c-2.25.5-4.44 1.2-6.54 2.1a207.62 207.62 0 0 0-5.81-4.86 4.1 4.1 0 0 0-1.21-.7c-.2-.06-.4-.1-.6-.1-.25.01-.5.05-.75.13-.65.26-1.25.63-1.78 1.1l-.03.02c-.53.42-1.09.85-1.51.95a2.53 2.53 0 0 1-1.12-.02 1.43 1.43 0 0 1-.49-.28c-.02-.03 0-.08.06-.16l1.3-1.37c1.01-1 1.97-1.94 4.18-2h.12c1 .04 1.99.27 2.9.68 1.24.61 2.6.94 3.99.95a10.5 10.5 0 0 0 4.34-1.02 7.93 7.93 0 0 1 2.95 4.58Zm-14.87-8.3c4.56 0 8.65 1.28 11.4 3.3a8.55 8.55 0 0 1-7.52-.03c-1-.44-2.07-.7-3.16-.73h-.12a5.53 5.53 0 0 0-3.61 1.26 7.3 7.3 0 0 0-1.8.32 5 5 0 0 1-1.27.24H178a25.1 25.1 0 0 1-4.55-1.23c2.73-1.92 6.7-3.13 11.11-3.13Zm-11.66 3.5c1.9.76 4.2 1.35 4.93 1.4.2 0 .42.04.64.04.49-.03.97-.11 1.43-.27.27-.07.58-.15.9-.21l-.26.25-1.32 1.4c-.1.09-.17.2-.2.32a.64.64 0 0 0 .02.38c.08.16.2.29.36.38a2.8 2.8 0 0 0 1.95.3c.56-.13 1.14-.59 1.75-1.06.51-.43 1.1-.77 1.72-1a1.93 1.93 0 0 1 .6-.07c.49.08.94.3 1.3.6 1.07.8 5.88 4.93 5.93 4.97a.9.9 0 0 1 .29.7.75.75 0 0 1-.4.6c-.18.12-.4.19-.62.19-.2 0-.4-.05-.56-.16-.02 0-1.66-1.49-2.26-1.99a.51.51 0 0 0-.28-.15c-.03 0-.05 0-.07.02a.18.18 0 0 0-.06.04c-.1.11 0 .27.14.37l1.92 1.9a.9.9 0 0 1 .27.5.84.84 0 0 1-.45.79c-.2.14-.44.21-.68.22a.97.97 0 0 1-.55-.16l-.27-.27c-.5-.49-1.03-1-1.4-1.3a.51.51 0 0 0-.3-.15.16.16 0 0 0-.11.05c-.04.05-.07.13.03.28l.1.1 1.4 1.54a.52.52 0 0 1 .03.67l-.05.05-.13.13c-.2.14-.43.21-.68.21h-.2c-.1 0-.19-.05-.27-.11l-.02-.02c-.07-.08-.78-.78-1.36-1.26a.48.48 0 0 0-.27-.15.17.17 0 0 0-.13.06c-.1.12.06.31.14.38l1.2 1.3a.22.22 0 0 1-.06.07c-.04.06-.18.2-.62.26h-.16a2.76 2.76 0 0 1-1.17-.35 1.73 1.73 0 0 0-.75-2.28 1.8 1.8 0 0 0-.85-.22h-.07a1.57 1.57 0 0 0-.92-1.61c-.23-.1-.49-.16-.74-.16-.19 0-.38.03-.55.1a1.5 1.5 0 0 0-.87-.73c-.2-.07-.42-.1-.64-.1-.36-.01-.7.1-1 .3a1.5 1.5 0 0 0-1.17-.55c-.4 0-.78.15-1.07.43-.35-.28-1.84-1.2-5.8-2.08l-.88-.24a8.25 8.25 0 0 1 3.17-4.64v-.01Zm7.32 10.1-.04-.05h-.05a.22.22 0 0 0-.12.05.94.94 0 0 1-.92.14 1.24 1.24 0 0 1-.8-1.46v-.05a.12.12 0 0 0-.03-.06l-.07-.05-.06.05a.96.96 0 0 1-1.56-.35.92.92 0 0 1 .39-1.1.96.96 0 0 1 1.17.12c.15.14.25.33.28.54l.04.26.14-.22a1.39 1.39 0 0 1 1.1-.6c.15 0 .29.03.42.07a.96.96 0 0 1 .67.88c0 .12.1.12.12.12a.16.16 0 0 0 .1-.05.96.96 0 0 1 .72-.29c.18 0 .36.04.52.12.9.38.5 1.49.49 1.5-.08.18-.08.27 0 .32h.06c.06 0 .12-.02.17-.05.15-.06.31-.1.48-.1.32 0 .63.13.86.35a1.2 1.2 0 0 1 .02 1.7 1.23 1.23 0 0 1-2.1-.8c0-.06 0-.2-.13-.2a.24.24 0 0 0-.15.07.87.87 0 0 1-.6.27c-.13 0-.27-.03-.39-.09-.7-.27-.71-.74-.68-.93l-.01-.06a.13.13 0 0 0-.04-.04v-.02Zm4.34 5.2c-8.26 0-14.96-4.2-14.96-9.41 0-.21 0-.42.03-.62l.86.2c4.03.88 5.35 1.79 5.59 1.96a1.47 1.47 0 0 0 .67 1.89 1.54 1.54 0 0 0 1 .16 1.74 1.74 0 0 0 1.13 1.3 1.52 1.52 0 0 0 .9.05 1.74 1.74 0 0 0 1.53.98c.16 0 .31-.02.46-.08a1.75 1.75 0 0 0 1.3 1.05 1.81 1.81 0 0 0 1.62-.5 3.37 3.37 0 0 0 1.73.45 1.41 1.41 0 0 0 1.03-.5.67.67 0 0 0 .06-.1c.16.05.32.08.49.08.35-.01.7-.13.97-.35.3-.2.5-.49.58-.82a1.83 1.83 0 0 0 1.33-.28 1.41 1.41 0 0 0 .7-1.26 1.66 1.66 0 0 0 1.28-.25 1.36 1.36 0 0 0 .65-1.05 1.4 1.4 0 0 0-.2-.84c2-.81 4.08-1.45 6.2-1.92l.02.47c0 5.19-6.7 9.4-14.97 9.4v-.01Z"/></g><g fill="#233DB4" clip-path="url(#f)"><path d="M21.95 66.09h-2.32v2.84h-1.47v2.03h1.47v6.53h2.32v-6.53h1.49v-2.03h-1.49V66.1Zm7.96 8.05c0 .33-.07.65-.22.94-.13.25-.34.46-.6.6-.27.15-.58.22-.9.21-.49 0-.85-.15-1.07-.45-.23-.3-.34-.74-.34-1.3v-5.2H24.3v5.47c0 1.01.25 1.81.76 2.4.5.58 1.26.87 2.27.87.6 0 1.12-.13 1.54-.38.43-.26.77-.62 1.05-1.1v1.3h2.4v-8.57h-2.4v5.21Zm10.77-4.95a4.1 4.1 0 0 0-2.01-.52 3.27 3.27 0 0 0-2.92 1.67v-1.4h-2.42v12.83h2.42v-5.69c.25.44.6.83 1.01 1.12.54.37 1.17.55 1.9.55a3.9 3.9 0 0 0 3.53-2.07c.39-.67.58-1.5.58-2.47 0-.98-.19-1.8-.57-2.48a3.92 3.92 0 0 0-1.52-1.54Zm-.71 5.33c-.2.34-.5.63-.85.82-.36.18-.76.28-1.16.27a2.22 2.22 0 0 1-1.89-1.07c-.21-.36-.32-.8-.32-1.33 0-.52.1-.96.32-1.32a2.22 2.22 0 0 1 1.89-1.08c.4 0 .8.1 1.16.28.35.19.65.47.85.82.2.36.31.8.31 1.3 0 .51-.1.95-.31 1.3Zm9.75-5.5a6.72 6.72 0 0 0-4.1 0c-.57.2-1.12.43-1.64.7l.89 1.63a4.98 4.98 0 0 1 3.35-.69c.2.05.38.13.54.25.15.1.27.25.35.42.07.19.11.4.1.6v.91a4.53 4.53 0 0 0-1.04-.4 5.57 5.57 0 0 0-1.44-.17c-1.07 0-1.9.24-2.47.72a2.43 2.43 0 0 0-.88 1.97 2.54 2.54 0 0 0 1.53 2.4c.46.22.97.32 1.48.32s1.02-.1 1.5-.28a2.79 2.79 0 0 0 1.33-1.06v1.15h2.32v-6.06a2.3 2.3 0 0 0-.48-1.48 3 3 0 0 0-1.34-.92Zm-.5 5.05a1.88 1.88 0 0 1-1 1.72 2.13 2.13 0 0 1-1.73.1c-.2-.09-.38-.23-.5-.41a1.23 1.23 0 0 1-.03-1.27c.13-.18.32-.32.53-.4.23-.08.53-.13.9-.13a4.56 4.56 0 0 1 1.83.38v.01Zm9.17-5.14-2.11 5.31-2.14-5.3h-2.68l3.55 7.7-2.24 5.13h2.47l5.66-12.84h-2.5ZM7.47 63.23A7.47 7.47 0 0 0 0 70.7c0 3.64 5.8 9.59 7.18 10.94a.41.41 0 0 0 .58 0c1.38-1.35 7.19-7.3 7.19-10.94a7.5 7.5 0 0 0-7.48-7.48Zm0 12.03a4.54 4.54 0 1 1 0-9.08 4.54 4.54 0 0 1 0 9.08Zm1.91-4.47a1.85 1.85 0 0 0-.42-.35c-.17-.1-.36-.2-.55-.27l-.59-.2a1.7 1.7 0 0 1-.43-.19.32.32 0 0 1-.12-.44c.03-.05.08-.1.13-.12a.5.5 0 0 1 .25-.06c.1 0 .2.03.28.07.1.05.2.12.28.21.1.1.18.23.24.36l1.22-.67c-.12-.2-.27-.39-.44-.55-.18-.17-.4-.31-.64-.4-.15-.05-.3-.1-.45-.11l.11-.72A3.63 3.63 0 0 0 7 67.29l.08.79c-.2.03-.38.08-.56.16-.28.12-.53.31-.72.55-.17.21-.26.47-.26.74a1.45 1.45 0 0 0 .55 1.18c.14.13.3.24.48.33.15.08.3.15.45.2l.53.21c.12.05.24.1.34.18a.28.28 0 0 1 .12.22.3.3 0 0 1-.05.18c-.03.05-.09.1-.15.1a1.16 1.16 0 0 1-1.11-.31c-.14-.14-.27-.3-.38-.46l-1.11.81c.13.24.3.44.51.6a2.96 2.96 0 0 0 1.36.63l-.07.72a3.53 3.53 0 0 0 1.23-.05l-.1-.69c.18-.02.36-.07.54-.12.34-.12.6-.3.8-.53.19-.25.29-.56.28-.87 0-.2-.03-.4-.1-.6a1.5 1.5 0 0 0-.27-.47Z"/></g><g clip-path="url(#g)"><path fill="#fff" d="M135.32 77.19c-1.4 0-2.44-.68-2.74-1.89-.28 1.2-1.32 1.89-2.72 1.89-2.3 0-3.44-1.5-3.44-3.54v-6.1h2.24v6.23c0 .98.35 1.64 1.4 1.64 1 0 1.4-.66 1.41-1.64v-6.22h2.24v6.22c0 .98.4 1.64 1.41 1.64 1.05 0 1.4-.66 1.4-1.64v-6.22h2.24v6.09c0 2.04-1.14 3.54-3.44 3.54ZM106.58 69.96c.5-.7.77-1.54.77-2.4h-7.23v1.7h4.46l-3.86 5.37c-.5.7-.77 1.54-.77 2.4h7.24v-1.69h-4.47l3.86-5.38ZM168.94 70.9V73.9c0 .39.06.72.2.98l.01.03c.06.08.1.16.18.22l.13.11.08.05.01.01.03.02c.28.16.61.21.93.21.16 0 .33-.02.49-.05v1.68c-.16.02-.33.02-.5.02-1.77 0-3.14-.87-3.6-2.26v-.02a4.38 4.38 0 0 1-.14-.84V70.9h-1.36v-1.65h1.35v-1.7h2.19v1.7H171v1.65h-2.06ZM110.53 72.5c0-1.29.81-1.6 1.56-1.6.77 0 1.58.31 1.58 1.6h-3.14Zm4.4-2.23-.14-.12a3.34 3.34 0 0 0-1.08-.63l-.12-.04a4.67 4.67 0 0 0-1.92-.22l-.23.02c-.31.04-.6.1-.87.2l-.3.12-.27.13a3.06 3.06 0 0 0-1.66 2.82V73.95c.02.28.05.54.11.78v.02c.4 1.5 1.82 2.43 3.66 2.43 1.52 0 2.75-.64 3.36-1.7v-.02c.09-.16.16-.32.22-.5h-2.29c-.18.27-.45.43-.73.5-.18.05-.37.06-.56.06a1.8 1.8 0 0 1-.92-.2l-.03-.03a1.1 1.1 0 0 1-.48-.57c-.02-.06-.06-.13-.07-.19a2.23 2.23 0 0 1-.07-.6v-.04h5.33v-1.34a3.16 3.16 0 0 0-.95-2.28ZM145.18 74.58c-.01.1-.04.2-.1.27-.2.34-.73.7-1.56.7-.58 0-1.08-.32-1.08-.92 0-.6.46-.97 1.27-.97h1.47v.48c.01.15.02.29 0 .44Zm2.15-2.14c0-.12 0-.23-.02-.36l-.03-.24a.47.47 0 0 1-.02-.12l-.02-.11v-.02c-.39-1.47-1.77-2.39-3.59-2.39-.96 0-1.8.26-2.44.72-.2.15-.39.33-.55.52l1.65 1.05c.18-.34.47-.52.8-.6l.13-.03a2.68 2.68 0 0 1 .88.02c.05 0 .08.02.12.03.11.03.21.08.31.14l.04.02.07.05c.14.1.24.21.32.35l.04.09c0 .03.02.05.03.08.02.06.05.12.06.19l.03.13.02.1v.01l.02.22v.16h-2.02c-1.56 0-2.87.67-2.87 2.32 0 1.57 1.37 2.42 2.78 2.42a2.9 2.9 0 0 0 2.11-.78v.64h2.15v-4.48a.3.3 0 0 0 0-.13ZM93.67 72.5c0-1.29.8-1.6 1.55-1.6.77 0 1.58.31 1.58 1.6h-3.13Zm4.38-2.23-.13-.12a3.33 3.33 0 0 0-1.08-.63l-.12-.04a4.67 4.67 0 0 0-1.92-.22l-.23.02c-.31.04-.6.1-.86.2l-.3.12-.28.13a3.07 3.07 0 0 0-1.66 2.82v1.32l.01.08c.01.28.04.54.1.78v.02c.4 1.5 1.82 2.43 3.66 2.43 1.52 0 2.75-.64 3.36-1.7v-.02l.07-.13.15-.36h-2.28c-.19.26-.46.42-.74.5-.18.04-.37.05-.56.05a1.8 1.8 0 0 1-.92-.2l-.03-.03a1.1 1.1 0 0 1-.48-.57l-.07-.19a3.26 3.26 0 0 1-.07-.6v-.04H99v-1.34c0-.92-.35-1.7-.95-2.28ZM119.43 72.5c0-1.29.81-1.6 1.56-1.6.77 0 1.58.31 1.58 1.6h-3.14Zm4.4-2.23a3.31 3.31 0 0 0-1.21-.75l-.13-.04a4.68 4.68 0 0 0-1.92-.22l-.23.02c-.31.04-.6.1-.87.2l-.3.12-.27.13a3.1 3.1 0 0 0-1.66 2.82V73.95c.02.28.05.54.11.78v.02c.4 1.5 1.82 2.43 3.66 2.43 1.52 0 2.75-.64 3.35-1.7v-.02c.1-.16.17-.32.23-.5h-2.3c-.18.27-.45.43-.73.5-.18.05-.37.06-.56.06a1.8 1.8 0 0 1-.92-.2l-.03-.03a1.1 1.1 0 0 1-.48-.57l-.07-.19a2.23 2.23 0 0 1-.08-.6v-.04h5.33v-1.34c.02-.92-.33-1.7-.93-2.28ZM159.06 72.5c0-1.29.81-1.6 1.56-1.6.77 0 1.58.31 1.58 1.6h-3.14Zm4.4-2.23a3.34 3.34 0 0 0-1.21-.75l-.13-.04a4.67 4.67 0 0 0-1.92-.22l-.23.02c-.31.04-.6.1-.87.2l-.3.12-.27.13a3.1 3.1 0 0 0-1.66 2.82v1.32l.01.08c.01.28.04.54.1.78v.02c.4 1.5 1.82 2.43 3.66 2.43 1.52 0 2.75-.64 3.36-1.7v-.02c.09-.16.16-.32.22-.5h-2.28c-.19.27-.46.43-.74.5-.18.05-.37.06-.56.06a1.8 1.8 0 0 1-.92-.2l-.03-.03a1.1 1.1 0 0 1-.48-.57l-.06-.19a3.33 3.33 0 0 1-.08-.6v-.04h5.34v-1.34a3.16 3.16 0 0 0-.96-2.28ZM150.06 77.04h1.25v-9.48h-2.18v8.56c0 .51.4.92.93.92ZM153.85 77.04h1.26v-9.48h-2.19v8.56c0 .51.42.92.94.92Z"/><path fill="#03C5D3" d="M73.19 74.78c0 .67.54 1.21 1.22 1.21h9.74v-2.4H74.4a1.2 1.2 0 0 0-1.22 1.2ZM84.14 68.75H74.4a1.21 1.21 0 1 0 0 2.42h9.74v-2.42Z"/><path fill="#03C5D3" d="M70.08 67.92c-.17.32-.26.67-.26 1.03 0 .91.57 1.6 1.33 2.07.56.36 1.1.79 1.1 1.48s-.54 1.12-1.1 1.48c-.75.47-1.33 1.16-1.33 2.07 0 .36.09.71.26 1.03.54 1.01 1.68 1.3 2.76 1.3h12.5V82H72.12a6.85 6.85 0 0 1-4.26-1.26 4.53 4.53 0 0 1-1.52-2.05 4.44 4.44 0 0 1 1.17-5.02c.14-.14.3-.28.43-.43.14-.16.27-.34.34-.56.02-.06.03-.1.03-.18a.49.49 0 0 0-.03-.18c-.07-.22-.2-.4-.34-.56l-.43-.43a4.44 4.44 0 0 1-1.17-5.02 4.6 4.6 0 0 1 1.53-2.05A6.91 6.91 0 0 1 72.12 63H85.35v3.61h-12.5c-1.09 0-2.23.3-2.77 1.31Z"/></g><defs><clipPath id="a"><path fill="#fff" d="M0 10h90v20H0z"/></clipPath><clipPath id="d"><path fill="#fff" d="M59 37h68v18H59z"/></clipPath><clipPath id="e"><path fill="#fff" d="M169 37h31v21h-31z"/></clipPath><clipPath id="f"><path fill="#fff" d="M0 63h61v19H0z"/></clipPath><clipPath id="g"><path fill="#fff" d="M66 63h105v19H66z"/></clipPath></defs></svg>