<svg width="202" height="110" viewBox="0 0 202 110" fill="none" xmlns="http://www.w3.org/2000/svg">
<path d="M26.678 13.1332C23.8142 13.1332 21.243 14.6911 21.243 17.5499C21.243 20.8424 25.785 21.0672 25.785 22.7054C25.785 23.396 25.0152 24.0224 23.7219 24.0224C21.8742 24.0224 20.4885 23.1551 20.4885 23.1551L19.9035 26.0461C19.9035 26.0461 21.4893 26.7849 23.6141 26.7849C26.755 26.7849 29.2185 25.1627 29.2185 22.2397C29.2185 18.7706 24.6611 18.5457 24.6611 17.0199C24.6611 16.4739 25.2923 15.8796 26.5857 15.8796C28.0483 15.8796 29.2493 16.506 29.2493 16.506L29.8344 13.7114C29.819 13.7114 28.5102 13.1332 26.678 13.1332ZM0.441974 13.342L0.36499 13.7596C0.36499 13.7596 1.56594 13.9845 2.65911 14.4502C4.06021 14.9802 4.15259 15.2854 4.39894 16.233L6.9702 26.56H10.4191L15.7002 13.342H12.2667L8.864 22.336L7.47829 14.7072C7.35511 13.8399 6.70845 13.342 5.90782 13.342H0.441974ZM17.0859 13.342L14.3914 26.56H17.6709L20.35 13.342H17.0859ZM35.3464 13.342C34.5612 13.342 34.1455 13.7757 33.8375 14.5466L29.0337 26.56H32.4672L33.1293 24.5524H37.3172L37.7175 26.56H40.7507L38.1178 13.342H35.3464ZM35.7929 16.9236L36.8091 21.8863H34.0839L35.7929 16.9236Z" fill="#1434CB"/>
<path d="M75.1063 28.1081H78.6836V17.493H75.1063V28.1081ZM73.0828 17.3403C69.7765 17.4548 68.0962 19.0204 68.0962 22.1324V28.1081H71.7097V23.2397C71.7097 21.3687 71.9445 20.5668 74.0403 20.4905V17.3785C73.8055 17.3403 73.5525 17.3212 73.2996 17.3212L73.0828 17.3403ZM46 18.2185C46 19.4404 46.5059 22.3233 51.113 22.6669C51.5105 22.686 52.5403 22.7624 52.5403 23.7934C52.5403 24.6334 51.6912 25.1489 50.2639 25.1489C48.8908 25.1107 47.5357 24.8243 46.2529 24.3088V27.7072C47.8067 28.1081 49.4147 28.2991 51.0227 28.28C54.9613 28.28 56.7319 25.9317 56.7319 23.6024C56.7319 20.9678 54.7445 19.2495 51.4382 19.0204C50.9866 18.9822 49.9387 18.9249 49.9387 17.913C49.9387 16.7103 51.4382 16.7103 52.0164 16.7103C53.0101 16.7103 54.2929 17.0157 55.2143 17.3212C55.2143 17.3212 55.7202 17.5121 56.1718 17.703L56.208 17.7221V14.4001L56.1538 14.381C55.0697 13.9801 53.805 13.5983 51.4744 13.5983C47.4273 13.5983 46 16.0802 46 18.2185ZM57.6353 14.3619V28.1081H61.321V23.8506C62.387 25.5498 62.929 28.1081 62.929 28.1081H67.3555C66.9218 26.1799 65.0067 22.6478 65.0067 22.6478C66.145 21.1014 67.0122 19.364 67.6084 17.493H63.3626C62.8748 18.8295 62.1882 20.0895 61.321 21.1969V13.5983L57.6353 14.3619ZM80.2013 14.2665V28.1081H83.7786V13.5983L80.2013 14.2665ZM85.4227 14.2665V28.1081H89V13.5983L85.4227 14.2665ZM76.895 12.7391C75.9193 12.7391 75.1244 13.5792 75.1244 14.6101C75.1244 15.6411 75.9193 16.4812 76.895 16.4812C77.8706 16.4812 78.6655 15.6411 78.6655 14.6101C78.6475 13.5792 77.8706 12.7391 76.895 12.7391Z" fill="#872165"/>
<mask id="mask0_218_8" style="mask-type:luminance" maskUnits="userSpaceOnUse" x="46" y="12" width="43" height="17">
<path d="M75.1063 28.1081H78.6836V17.493H75.1063V28.1081ZM73.0828 17.3403C69.7765 17.4548 68.0962 19.0204 68.0962 22.1324V28.1081H71.7097V23.2397C71.7097 21.3687 71.9445 20.5668 74.0403 20.4905V17.3785C73.8055 17.3403 73.5525 17.3212 73.2996 17.3212L73.0828 17.3403ZM46 18.2185C46 19.4404 46.5059 22.3233 51.113 22.6669C51.5105 22.686 52.5403 22.7624 52.5403 23.7934C52.5403 24.6334 51.6912 25.1489 50.2639 25.1489C48.8908 25.1107 47.5357 24.8243 46.2529 24.3088V27.7072C47.8067 28.1081 49.4147 28.2991 51.0227 28.28C54.9613 28.28 56.7319 25.9317 56.7319 23.6024C56.7319 20.9678 54.7445 19.2495 51.4382 19.0204C50.9866 18.9822 49.9387 18.9249 49.9387 17.913C49.9387 16.7103 51.4382 16.7103 52.0164 16.7103C53.0101 16.7103 54.2929 17.0157 55.2143 17.3212C55.2143 17.3212 55.7202 17.5121 56.1718 17.703L56.208 17.7221V14.4001L56.1538 14.381C55.0697 13.9801 53.805 13.5983 51.4744 13.5983C47.4273 13.5983 46 16.0802 46 18.2185ZM57.6353 14.3619V28.1081H61.321V23.8506C62.387 25.5498 62.929 28.1081 62.929 28.1081H67.3555C66.9218 26.1799 65.0067 22.6478 65.0067 22.6478C66.145 21.1014 67.0122 19.364 67.6084 17.493H63.3626C62.8748 18.8295 62.1882 20.0895 61.321 21.1969V13.5983L57.6353 14.3619ZM80.2013 14.2665V28.1081H83.7786V13.5983L80.2013 14.2665ZM85.4227 14.2665V28.1081H89V13.5983L85.4227 14.2665ZM76.895 12.7391C75.9193 12.7391 75.1244 13.5792 75.1244 14.6101C75.1244 15.6411 75.9193 16.4812 76.895 16.4812C77.8706 16.4812 78.6655 15.6411 78.6655 14.6101C78.6475 13.5792 77.8706 12.7391 76.895 12.7391Z" fill="white"/>
</mask>
<g mask="url(#mask0_218_8)">
<path d="M89 12.7391H46V28.2609H89V12.7391Z" fill="#872165"/>
</g>
<path fill-rule="evenodd" clip-rule="evenodd" d="M126.218 14.3082C126.218 14.5022 126.178 14.6943 126.102 14.8735C126.026 15.0526 125.914 15.2153 125.774 15.3523C125.633 15.4893 125.467 15.5978 125.283 15.6718C125.1 15.7458 124.903 15.7837 124.705 15.7834C124.507 15.783 124.31 15.7445 124.127 15.67C123.944 15.5954 123.777 15.4863 123.637 15.3489C123.497 15.2115 123.386 15.0484 123.311 14.869C123.235 14.6897 123.196 14.4975 123.197 14.3034C123.197 14.1094 123.236 13.9174 123.312 13.7382C123.389 13.5591 123.5 13.3964 123.641 13.2594C123.781 13.1224 123.948 13.0138 124.131 12.9398C124.314 12.8659 124.511 12.828 124.709 12.8283C124.908 12.8281 125.104 12.8663 125.288 12.9406C125.471 13.015 125.638 13.1241 125.778 13.2616C125.918 13.3991 126.029 13.5624 126.105 13.742C126.18 13.9216 126.219 14.114 126.218 14.3082ZM111.375 19.5129C112.119 18.637 112.706 17.6462 113.123 16.5832L113.118 16.5788H116.74C116.244 18.0565 115.492 19.4401 114.518 20.6697C114.518 20.6697 116.162 23.4802 116.536 25.0071H112.745C112.47 23.8217 112.008 22.6854 111.375 21.6389V25.0114H108.21V14.1129L111.375 13.5003V19.5129ZM117.171 20.2739C117.171 17.8037 118.609 16.5578 121.444 16.4683V16.464C121.714 16.4515 121.987 16.4683 122.258 16.5066V18.9687C120.462 19.028 120.262 19.666 120.262 21.146V25.0114H117.171V20.2739ZM102.9 17.7821H102.906H102.901C105.745 17.965 107.441 19.3257 107.441 21.4221C107.441 23.272 105.928 25.1344 102.545 25.1344C101.169 25.1559 99.7949 25.003 98.4585 24.6797V21.9879C99.5534 22.4126 100.719 22.6346 101.897 22.6426C103.123 22.6426 103.854 22.2473 103.854 21.571C103.854 20.7602 102.974 20.7047 102.635 20.6826H102.628C98.6669 20.4189 98.2407 18.131 98.2407 17.157C98.2407 15.4689 99.4671 13.5003 102.923 13.5003C104.293 13.462 105.654 13.6745 106.941 14.1254L106.989 14.1378V16.7449L106.954 16.7363C106.579 16.5832 106.14 16.43 106.14 16.43C105.251 16.1549 104.329 15.9948 103.397 15.9538C102.91 15.9538 101.619 15.9537 101.619 16.9105C101.619 17.6974 102.51 17.7568 102.9 17.7821ZM126.24 25.0114H123.175V16.5918H126.24V25.0114ZM132.018 25.0114V14.0363L135.087 13.5003V25.0114H132.018ZM130.605 13.5003L127.54 14.0363V25.0114H130.605V13.5003ZM99.7626 29.0597H99.7886V35.3106H101.615V27.418H100.049L97.9148 28.3877L98.2231 29.7738L99.7626 29.0597ZM107.38 31.5131V32.738H104.128V31.5127L107.38 31.5131ZM107.254 28.6854H109.497V35.3144H111.397V28.6854H113.684V27.1289H107.254V28.6854ZM117.262 35.3144L117.149 34.7195H117.11C116.714 35.1914 116.092 35.447 115.371 35.447C114.141 35.447 113.41 34.5706 113.41 33.6268C113.41 32.0832 114.827 31.3432 116.975 31.3557V31.2709C116.975 30.956 116.801 30.5051 115.87 30.5051C115.249 30.5051 114.592 30.7138 114.192 30.956L113.845 29.7656C114.266 29.5359 115.097 29.2425 116.206 29.2425C118.232 29.2425 118.875 30.4075 118.875 31.8065V33.8733C118.875 34.4428 118.901 34.9914 118.962 35.3187H117.262V35.3144ZM117.04 32.5082C116.049 32.4953 115.275 32.725 115.275 33.4439C115.275 33.9159 115.597 34.1494 116.019 34.1494C116.492 34.1494 116.875 33.8479 117.001 33.4693C117.027 33.3712 117.04 33.2611 117.04 33.1544V32.5082ZM120.323 29.3784C120.344 29.9226 120.371 30.5903 120.371 31.3686L120.375 31.3643V37.7172H122.262V34.7664H122.288C122.562 35.1531 123.131 35.4465 123.866 35.4465C125.218 35.4465 126.623 34.4261 126.623 32.266C126.623 30.3735 125.431 29.2425 124.101 29.2425C123.218 29.2425 122.522 29.5699 122.075 30.2036H122.049L121.962 29.3784H120.323ZM122.297 33.1501C122.269 33.023 122.256 32.8933 122.258 32.7633V31.9511C122.258 31.841 122.27 31.7213 122.297 31.6237C122.423 31.0752 122.892 30.6884 123.427 30.6884C124.27 30.6884 124.705 31.4026 124.705 32.3507C124.705 33.3587 124.218 34.026 123.401 34.026C122.853 34.026 122.423 33.6478 122.297 33.1501ZM128.035 27.5414H126.918V26.7675H130.117V27.5414H128.979V30.8411H128.035V27.5414ZM134.116 29.2382L134.117 29.2851V29.2889L134.178 30.8497H135.1L134.87 26.7761H133.639L133.196 28.1282C133.061 28.5829 132.917 29.119 132.8 29.5909H132.783C132.685 29.1005 132.567 28.614 132.43 28.1326L132.022 26.7718H130.766L130.5 30.8454H131.37L131.444 29.2975C131.462 28.9922 131.476 28.6437 131.489 28.2958C131.498 28.0627 131.508 27.8296 131.518 27.6094H131.531C131.631 28.1407 131.774 28.7237 131.909 29.1999L132.353 30.7775H133.087L133.596 29.187C133.757 28.7107 133.931 28.1282 134.061 27.6094H134.079C134.079 28.1862 134.099 28.7586 134.116 29.2382Z" fill="#852268"/>
<mask id="mask1_218_8" style="mask-type:luminance" maskUnits="userSpaceOnUse" x="147" y="17" width="53" height="13">
<path d="M199.126 17.0605H147.533V29.757H199.126V17.0605Z" fill="white"/>
</mask>
<g mask="url(#mask1_218_8)">
<path d="M154.373 21.9583V21.8194C154.373 20.2204 153.654 19.4563 152.524 19.4563C151.393 19.4563 150.657 20.2729 150.657 21.8019V21.9409C150.657 23.4874 151.357 24.2698 152.524 24.2698C153.691 24.2698 154.373 23.4532 154.373 21.9583ZM153.673 17.11C155.863 17.11 157.64 18.7089 157.64 21.8194V21.9583C157.64 25.0863 155.863 26.6503 153.654 26.6503C152.237 26.6503 151.213 26.0077 150.746 25.1038V29.4827H147.533V17.353H150.746V18.7081C151.285 17.8399 152.255 17.11 153.673 17.11Z" fill="white"/>
<path d="M165.309 21.8914V21.7524C165.309 20.171 164.628 19.4069 163.55 19.4069C162.419 19.4069 161.755 20.1884 161.755 21.7699V21.9089C161.755 23.4379 162.437 24.2203 163.496 24.2203C164.555 24.2203 165.309 23.4388 165.309 21.8914ZM158.487 21.9439V21.8048C158.488 18.7111 160.319 17.0605 162.419 17.0605C163.837 17.0605 164.682 17.6514 165.22 18.572V17.3035H168.433V26.3919H165.22V24.932C164.735 25.8534 163.748 26.6 162.401 26.6C160.319 26.6 158.488 25.0885 158.488 21.943" fill="white"/>
<path d="M174.86 22.2016L176.656 17.3531H179.726L174.699 29.4829H171.629L173.191 25.5209L169.439 17.3531H172.921L174.86 22.2016Z" fill="white"/>
<path d="M179.891 26.4415V24.2874L184.164 19.6995H180.412L180.394 17.3531H187.916V19.6471L183.823 24.0784H188.221V26.4415H179.891Z" fill="white"/>
<path d="M189.737 25.2218C189.774 22.719 191.732 20.6681 194.394 20.6681C197.055 20.6681 199.127 22.719 199.127 25.2218C199.127 27.7247 197.112 29.7572 194.394 29.7572C191.676 29.7572 189.737 27.7438 189.737 25.2218Z" fill="#D0FA02"/>
</g>
<mask id="mask2_218_8" style="mask-type:luminance" maskUnits="userSpaceOnUse" x="1" y="44" width="21" height="21">
<path d="M21.6562 44.1905H1.5V64.8747H21.6562V44.1905Z" fill="white"/>
</mask>
<g mask="url(#mask2_218_8)">
<path d="M21.3547 57.0344C20.0085 62.5749 14.5396 65.9467 9.13928 64.5651C3.74124 63.1838 0.455112 57.5719 1.80186 52.0319C3.14743 46.4908 8.61641 43.1187 14.015 44.5C19.4149 45.8812 22.701 51.4937 21.3547 57.0344Z" fill="#F7931A"/>
<path d="M16.0226 53.0591C16.2232 51.6828 15.202 50.943 13.8056 50.4495L14.2586 48.5852L13.1526 48.3024L12.7116 50.1176C12.4208 50.0432 12.1222 49.9731 11.8254 49.9036L12.2696 48.0764L11.1643 47.7936L10.711 49.6573C10.4704 49.6011 10.2341 49.5455 10.0048 49.487L10.0061 49.4811L8.48081 49.0903L8.18659 50.3024C8.18659 50.3024 9.00721 50.4954 8.98988 50.5073C9.43779 50.622 9.5188 50.9263 9.50532 51.1674L8.98932 53.2913C9.02018 53.2993 9.06018 53.3109 9.10427 53.3291C9.06742 53.3197 9.02812 53.3095 8.98736 53.2994L8.26413 56.2747C8.2094 56.4144 8.07044 56.6239 7.7573 56.5443C7.76839 56.5608 6.95342 56.3385 6.95342 56.3385L6.4043 57.6376L7.84362 58.0057C8.11139 58.0747 8.3738 58.1467 8.63217 58.2145L8.1745 60.1002L9.27925 60.383L9.73252 58.5173C10.0343 58.6014 10.3272 58.679 10.6139 58.7521L10.1622 60.6089L11.2683 60.8917L11.7259 59.0095C13.612 59.3758 15.0301 59.2281 15.627 57.4777C16.108 56.0685 15.603 55.2556 14.6108 54.7255C15.3335 54.5545 15.8775 54.0666 16.0226 53.0591ZM13.4956 56.6951C13.1538 58.1044 10.8413 57.3426 10.0915 57.1516L10.6989 54.6533C11.4486 54.8453 13.8528 55.2254 13.4956 56.6951ZM13.8376 53.0387C13.5258 54.3206 11.6011 53.6694 10.9768 53.5096L11.5274 51.2439C12.1518 51.4036 14.1624 51.7017 13.8376 53.0387Z" fill="white"/>
</g>
<g clip-path="url(#clip0_218_8)">
<path d="M36.9977 40L36.823 40.5695V57.0964L36.9977 57.2637L44.9953 52.729L36.9977 40Z" fill="#343434"/>
<path d="M36.9976 40L29 52.729L36.9976 57.2637V49.2421V40Z" fill="#8C8C8C"/>
<path d="M36.9976 58.7162L36.8992 58.8313V64.7186L36.9976 64.9944L45 54.1838L36.9976 58.7162Z" fill="#3C3C3B"/>
<path d="M36.9976 64.9943V58.7162L29 54.1838L36.9976 64.9943Z" fill="#8C8C8C"/>
<path d="M36.9976 57.2637L44.9951 52.7291L36.9976 49.2421V57.2637Z" fill="#141414"/>
<path d="M29 52.7291L36.9975 57.2637V49.2421L29 52.7291Z" fill="#393939"/>
</g>
<g clip-path="url(#clip1_218_8)">
<path d="M53.7359 59.7382C53.8747 59.5996 54.0656 59.5188 54.268 59.5188H72.624C72.9595 59.5188 73.1272 59.923 72.8901 60.1598L69.264 63.7806C69.1252 63.9192 68.9343 64 68.7319 64H50.3759C50.0404 64 49.8727 63.5958 50.1098 63.359L53.7359 59.7382Z" fill="url(#paint0_linear_218_8)"/>
<path d="M53.7362 46.2194C53.8808 46.0808 54.0716 46 54.2682 46H72.6243C72.9597 46 73.1274 46.4042 72.8903 46.641L69.2642 50.2618C69.1254 50.4004 68.9346 50.4812 68.7321 50.4812H50.3761C50.0407 50.4812 49.873 50.077 50.1101 49.8402L53.7362 46.2194Z" fill="url(#paint1_linear_218_8)"/>
<path d="M69.264 52.9355C69.1252 52.7969 68.9343 52.7161 68.7319 52.7161H50.3759C50.0404 52.7161 49.8727 53.1203 50.1098 53.3571L53.7359 56.9779C53.8747 57.1164 54.0656 57.1973 54.268 57.1973H72.624C72.9595 57.1973 73.1272 56.7931 72.8901 56.5563L69.264 52.9355Z" fill="url(#paint2_linear_218_8)"/>
</g>
<path d="M90.5374 65.8984C97.4092 65.8984 102.975 60.7846 102.975 54.479C102.975 48.1734 97.4092 43.0596 90.5374 43.0596C83.6657 43.0596 78.0996 48.1734 78.0996 54.479C78.0996 60.7846 83.6704 65.8984 90.5374 65.8984Z" fill="#FF060A"/>
<path d="M97.5331 52.4289C96.8469 51.8444 95.8938 50.9541 95.1218 50.324L95.0741 50.2966C94.9979 50.2418 94.9121 50.1961 94.8215 50.1642C92.9535 49.8446 84.2613 48.3515 84.0945 48.3698C84.0469 48.3743 83.9992 48.3926 83.9611 48.4154L83.9182 48.4474C83.8658 48.4976 83.8229 48.557 83.7991 48.6255L83.7896 48.6529V48.8035V48.8264C84.7665 51.3285 88.6312 59.5198 89.3937 61.4466C89.4414 61.579 89.5272 61.8256 89.6892 61.8393H89.7273C89.8131 61.8393 90.1848 61.3872 90.1848 61.3872C90.1848 61.3872 96.823 53.9996 97.495 53.2142C97.5807 53.1183 97.657 53.0133 97.7237 52.9037C97.7428 52.817 97.7332 52.7302 97.6999 52.6481C97.6665 52.5659 97.6046 52.4882 97.5331 52.4289ZM91.8813 53.2918L94.7119 51.1367L96.3751 52.543L91.8813 53.2918ZM90.7805 53.1503L85.9054 49.4793L93.797 50.8171L90.7805 53.1503ZM91.2189 54.1091L96.2083 53.3695L90.5041 59.6842L91.2189 54.1091ZM85.243 49.8491L90.3754 53.8443L89.632 59.6887L85.243 49.8491Z" fill="white"/>
<g clip-path="url(#clip2_218_8)">
<g filter="url(#filter0_d_218_8)">
<path d="M119.5 64.5625C125.454 64.5625 130.281 59.7356 130.281 53.7812C130.281 47.8269 125.454 43 119.5 43C113.546 43 108.719 47.8269 108.719 53.7812C108.719 59.7356 113.546 64.5625 119.5 64.5625Z" fill="black"/>
</g>
<path d="M119.5 64.5625C125.454 64.5625 130.281 59.7356 130.281 53.7812C130.281 47.8269 125.454 43 119.5 43C113.546 43 108.719 47.8269 108.719 53.7812C108.719 59.7356 113.546 64.5625 119.5 64.5625Z" fill="#23292F"/>
<path style="mix-blend-mode:soft-light" d="M119.5 64.5625C125.454 64.5625 130.281 59.7356 130.281 53.7812C130.281 47.8269 125.454 43 119.5 43C113.546 43 108.719 47.8269 108.719 53.7812C108.719 59.7356 113.546 64.5625 119.5 64.5625Z" fill="url(#paint3_linear_218_8)"/>
<path d="M119.5 64.2031C125.256 64.2031 129.922 59.5371 129.922 53.7812C129.922 48.0254 125.256 43.3594 119.5 43.3594C113.744 43.3594 109.078 48.0254 109.078 53.7812C109.078 59.5371 113.744 64.2031 119.5 64.2031Z" stroke="black" stroke-opacity="0.097"/>
<path d="M124.074 48.75H125.943L122.052 52.6035C120.642 53.9983 118.358 53.9983 116.948 52.6035L113.054 48.75H114.926L117.883 51.6761C118.775 52.5605 120.223 52.5605 121.115 51.6761L124.074 48.75Z" fill="white"/>
<path d="M114.904 59.4639H113.031L116.948 55.5877C118.358 54.1929 120.642 54.1929 122.052 55.5877L125.969 59.4639H124.096L121.117 56.5125C120.225 55.6281 118.777 55.6281 117.885 56.5125L114.904 59.4639Z" fill="white"/>
</g>
<mask id="mask3_218_8" style="mask-type:luminance" maskUnits="userSpaceOnUse" x="137" y="43" width="22" height="22">
<path d="M158.5 43.7227H137.5V64.7911H158.5V43.7227Z" fill="white"/>
</mask>
<g mask="url(#mask3_218_8)">
<path d="M148 63.6509C153.172 63.6509 157.364 59.4451 157.364 54.2569C157.364 49.0687 153.172 44.8628 148 44.8628C142.829 44.8628 138.637 49.0687 138.637 54.2569C138.637 59.4451 142.829 63.6509 148 63.6509Z" fill="white"/>
<path d="M148 43.7227C145.923 43.7227 143.893 44.3405 142.167 45.4981C140.44 46.6556 139.094 48.3008 138.299 50.2257C137.505 52.1505 137.297 54.2686 137.702 56.312C138.107 58.3554 139.107 60.2325 140.575 61.7057C142.044 63.1789 143.915 64.1822 145.952 64.5887C147.988 64.9951 150.1 64.7866 152.018 63.9893C153.937 63.192 155.577 61.8417 156.73 60.1094C157.884 58.377 158.5 56.3404 158.5 54.2569C158.504 52.8776 158.237 51.5109 157.715 50.235C157.192 48.9591 156.424 47.799 155.455 46.8208C154.486 45.8426 153.334 45.0655 152.065 44.534C150.797 44.0024 149.436 43.7267 148.061 43.7227H148ZM148.178 54.614L147.085 58.3125H152.932C152.971 58.3111 153.01 58.3174 153.046 58.331C153.082 58.3446 153.115 58.3653 153.144 58.3919C153.172 58.4184 153.195 58.4503 153.211 58.4857C153.227 58.521 153.236 58.5593 153.237 58.5981V58.695L152.729 60.455C152.706 60.5383 152.656 60.6113 152.587 60.6623C152.518 60.7133 152.433 60.7391 152.347 60.7356H143.398L144.898 55.6088L143.22 56.1189L143.602 54.9456L145.28 54.4355L147.39 47.2426C147.413 47.1599 147.463 47.0873 147.532 47.0364C147.601 46.9856 147.686 46.9594 147.771 46.962H150.034C150.073 46.9607 150.111 46.967 150.148 46.9806C150.184 46.9942 150.217 47.0149 150.245 47.0414C150.274 47.068 150.297 47.0998 150.313 47.1352C150.329 47.1706 150.338 47.2089 150.339 47.2477V47.3446L148.559 53.4152L150.237 52.905L149.881 54.1294L148.178 54.614Z" fill="#345D9D"/>
</g>
<g clip-path="url(#clip3_218_8)">
<g filter="url(#filter1_d_218_8)">
<path d="M178 66.375C184.731 66.375 190.188 60.9185 190.188 54.1875C190.188 47.4565 184.731 42 178 42C171.269 42 165.812 47.4565 165.812 54.1875C165.812 60.9185 171.269 66.375 178 66.375Z" fill="black"/>
</g>
<path d="M178 66.375C184.731 66.375 190.188 60.9185 190.188 54.1875C190.188 47.4565 184.731 42 178 42C171.269 42 165.812 47.4565 165.812 54.1875C165.812 60.9185 171.269 66.375 178 66.375Z" fill="#C3A634"/>
<path style="mix-blend-mode:soft-light" d="M178 66.375C184.731 66.375 190.188 60.9185 190.188 54.1875C190.188 47.4565 184.731 42 178 42C171.269 42 165.812 47.4565 165.812 54.1875C165.812 60.9185 171.269 66.375 178 66.375Z" fill="url(#paint4_linear_218_8)"/>
<path d="M178 65.9688C184.507 65.9688 189.781 60.6941 189.781 54.1875C189.781 47.6809 184.507 42.4062 178 42.4062C171.493 42.4062 166.219 47.6809 166.219 54.1875C166.219 60.6941 171.493 65.9688 178 65.9688Z" stroke="black" stroke-opacity="0.097"/>
<g filter="url(#filter2_d_218_8)">
<path d="M175.764 53.0586H179.269V54.9158H175.764V58.8304H177.975C178.85 58.8304 179.566 58.712 180.123 58.4753C180.68 58.2386 181.118 57.9109 181.435 57.4921C181.753 57.0734 181.968 56.5818 182.082 56.0173C182.196 55.4529 182.253 54.843 182.253 54.1875C182.253 53.532 182.196 52.9221 182.082 52.3577C181.968 51.7932 181.753 51.3016 181.435 50.8829C181.118 50.4641 180.68 50.1364 180.123 49.8997C179.566 49.663 178.85 49.5446 177.975 49.5446H175.764V53.0586ZM173.517 54.9158H172.312V53.0586H173.517V47.6875H178.838C179.82 47.6875 180.671 47.8574 181.39 48.1973C182.109 48.5372 182.696 49.0015 183.152 49.5902C183.607 50.1789 183.946 50.8677 184.167 51.6567C184.389 52.4457 184.5 53.2893 184.5 54.1875C184.5 55.0857 184.389 55.9293 184.167 56.7183C183.946 57.5073 183.607 58.1961 183.152 58.7848C182.696 59.3735 182.109 59.8378 181.39 60.1777C180.671 60.5176 179.82 60.6875 178.838 60.6875H173.517V54.9158Z" fill="black"/>
</g>
<path d="M175.764 53.0586H179.269V54.9158H175.764V58.8304H177.975C178.85 58.8304 179.566 58.712 180.123 58.4753C180.68 58.2386 181.118 57.9109 181.435 57.4921C181.753 57.0734 181.968 56.5818 182.082 56.0173C182.196 55.4529 182.253 54.843 182.253 54.1875C182.253 53.532 182.196 52.9221 182.082 52.3577C181.968 51.7932 181.753 51.3016 181.435 50.8829C181.118 50.4641 180.68 50.1364 180.123 49.8997C179.566 49.663 178.85 49.5446 177.975 49.5446H175.764V53.0586ZM173.517 54.9158H172.312V53.0586H173.517V47.6875H178.838C179.82 47.6875 180.671 47.8574 181.39 48.1973C182.109 48.5372 182.696 49.0015 183.152 49.5902C183.607 50.1789 183.946 50.8677 184.167 51.6567C184.389 52.4457 184.5 53.2893 184.5 54.1875C184.5 55.0857 184.389 55.9293 184.167 56.7183C183.946 57.5073 183.607 58.1961 183.152 58.7848C182.696 59.3735 182.109 59.8378 181.39 60.1777C180.671 60.5176 179.82 60.6875 178.838 60.6875H173.517V54.9158Z" fill="white"/>
</g>
<path d="M12 98C18.0751 98 23 93.0751 23 87C23 80.9249 18.0751 76 12 76C5.92487 76 1 80.9249 1 87C1 93.0751 5.92487 98 12 98Z" fill="#0AC18E"/>
<path d="M15.4311 83.3063C14.8783 82.0528 13.608 81.7848 12.0529 82.0444L11.5532 80.1068L10.375 80.4112L10.8664 82.3431C10.5565 82.4213 10.2382 82.4883 9.92274 82.5777L9.43137 80.6568L8.2532 80.9612L8.75295 82.8987C8.49889 82.9713 6.37427 83.5157 6.37427 83.5157L6.69813 84.7777C6.69813 84.7777 7.56361 84.5348 7.55523 84.5543C8.03544 84.4287 8.26158 84.6688 8.36767 84.8949L9.74127 90.2051C9.75802 90.3586 9.7301 90.6211 9.40066 90.7104C9.42021 90.7216 8.54356 90.931 8.54356 90.931L8.67198 92.4023C8.67198 92.4023 10.7771 91.8634 11.0535 91.7936L11.5588 93.7535L12.737 93.4492L12.2316 91.4754C12.5555 91.4 12.871 91.3218 13.1781 91.2409L13.6806 93.2035L14.8588 92.8992L14.3535 90.9421C16.1682 90.501 17.4496 89.3563 17.1872 87.6058C17.0197 86.5505 15.8667 85.685 14.909 85.5873C15.4981 85.0652 15.7969 84.303 15.4311 83.3063ZM14.8644 87.9269C15.0989 89.6607 12.6895 89.8728 11.8938 90.0822L11.2014 87.4886C11.9999 87.2792 14.4679 86.3997 14.8644 87.9269ZM13.4126 84.3952C13.6611 85.9363 11.6007 86.115 10.9362 86.2853L10.3052 83.9317C10.9725 83.767 12.9073 82.9685 13.4126 84.3952Z" fill="white"/>
<g clip-path="url(#clip4_218_8)">
<path d="M48.9997 86.499C48.9997 92.2972 44.2992 96.9979 38.5 96.9979C32.7008 96.9979 28.0002 92.2972 28.0002 86.499C28.0002 80.7007 32.7009 76 38.5 76C44.2991 76 48.9997 80.7003 48.9997 86.499Z" fill="white"/>
<path d="M38.4999 76C32.7027 76 27.9938 80.7074 28.0012 86.4986C28.0027 87.6573 28.1875 88.7718 28.5343 89.8144H31.6757V80.9824L38.4999 87.8058L45.3237 80.9824V89.8145H48.4658C48.8131 88.772 48.9969 87.6575 48.999 86.4988C49.0089 80.7015 44.2976 76.0014 38.4999 76.0014V76Z" fill="#F26822"/>
<path d="M36.9307 89.3744L33.9525 86.3965V91.954H31.6756L29.5271 91.9544C31.37 94.9777 34.7007 97 38.5 97C42.2994 97 45.6302 94.9772 47.4734 91.954H43.0468V86.3965L40.0686 89.3744L38.4997 90.9431L36.9308 89.3744H36.9307Z" fill="#4D4D4D"/>
</g>
<g clip-path="url(#clip5_218_8)">
<path d="M79.0314 81.2517V83.3897L78.1195 83.8497C77.4269 84.2 77.0143 84.9278 77.0729 85.6958C77.0931 85.9625 77.1037 86.2324 77.1037 86.5022C77.1024 90.4498 74.8657 94.0631 71.3141 95.8553C67.7626 97.6475 63.4961 97.3158 60.2705 94.9966L62.1431 94.0515L62.2491 93.9958C64.9365 95.4881 68.2212 95.4579 70.8802 93.9165C73.5392 92.3751 75.174 89.5535 75.1759 86.5022C75.1758 86.1244 75.151 85.747 75.1017 85.3723L60.5143 92.7336L57.4966 94.2563L53.9688 96.0362V93.8929L57.521 92.1004L59.2472 91.2277L79.0314 81.2517ZM61.6834 77.146C65.235 75.3526 69.5022 75.6835 72.7286 78.0026L72.471 78.1329L70.7436 79.0044C68.0569 77.5184 64.7766 77.5521 62.1215 79.0929C59.4665 80.6338 57.8336 83.4515 57.8295 86.4991C57.8297 86.8745 57.8545 87.2495 57.9037 87.6217L72.4763 80.2709L75.494 78.7482L79.0314 76.9609V79.1053L75.4633 80.9062L73.737 81.7767L58.3745 89.5287L57.5188 89.9603L56.6504 90.3992L53.9688 91.7528V89.6074L54.8796 89.1475C55.5728 88.7977 55.9859 88.0697 55.9272 87.3014C55.9067 87.0361 55.8965 86.7697 55.8965 86.5022C55.8961 82.5541 58.1318 78.9394 61.6834 77.146Z" fill="white"/>
</g>
<path fill-rule="evenodd" clip-rule="evenodd" d="M89.5095 78.1805L85.4872 86.8943C85.4719 86.9267 85.4671 86.9634 85.4734 86.9988C85.4797 87.0343 85.4969 87.0667 85.5223 87.0914L96.3854 97.8275C96.4163 97.858 96.4574 97.875 96.5001 97.875C96.5429 97.875 96.584 97.858 96.6148 97.8275L107.478 87.0921C107.503 87.0674 107.521 87.0349 107.527 86.9995C107.533 86.964 107.528 86.9274 107.513 86.895L103.491 78.1812C103.478 78.152 103.457 78.1272 103.431 78.1098C103.404 78.0925 103.374 78.0833 103.343 78.0834H89.6589C89.6276 78.083 89.5968 78.0919 89.5703 78.1092C89.5438 78.1264 89.5226 78.1512 89.5095 78.1805Z" fill="#50AF95"/>
<path fill-rule="evenodd" clip-rule="evenodd" d="M97.8464 87.6753C97.7712 87.6809 97.3827 87.7041 96.516 87.7041C95.8266 87.7041 95.3371 87.6835 95.1654 87.6753C92.5013 87.5582 90.5128 87.0949 90.5128 86.5402C90.5128 85.9855 92.5013 85.5228 95.1654 85.4038V87.2139C95.3396 87.2264 95.8385 87.2558 96.5279 87.2558C97.3551 87.2558 97.7694 87.2214 97.8439 87.2145V85.4051C100.502 85.5234 102.487 85.9867 102.487 86.5402C102.487 87.0937 100.503 87.557 97.8439 87.6747L97.8464 87.6753ZM97.8464 85.2179V83.5982H101.557V81.1282H91.4553V83.5982H95.1648V85.2173C92.1497 85.3556 89.8823 85.9523 89.8823 86.6673C89.8823 87.3823 92.1497 87.9783 95.1648 88.1173V93.3077H97.8458V88.1155C100.854 87.9771 103.118 87.381 103.118 86.6667C103.118 85.9523 100.856 85.3562 97.8458 85.2173L97.8464 85.2179Z" fill="white"/>
<g clip-path="url(#clip6_218_8)">
<path d="M123.988 75.285L119.004 92.6077H121.958L123.372 87.5129H127.433L128.91 92.6077H131.925L126.88 75.285H123.988ZM126.696 84.7466H124.111L125.157 80.8888C125.218 80.5976 125.28 80.3798 125.341 80.0886C125.403 80.3798 125.464 80.5988 125.587 80.89L126.695 84.7466H126.696ZM136.847 84.7466C135.493 84.0908 135.37 83.7996 135.37 83.3628C135.37 82.7804 135.801 82.417 136.416 82.417C137.031 82.417 137.586 82.636 138.139 82.9994L138.692 83.4362L139.431 80.6698L139.124 80.3786C138.314 79.7843 137.367 79.5045 136.416 79.5784C134.139 79.5784 132.539 81.2522 132.539 83.5818C132.539 85.6924 134.139 86.8572 135.493 87.4396C136.847 88.022 136.97 88.4588 136.97 88.9678C136.97 89.9147 136.109 90.0603 135.616 90.0603C134.878 89.9869 134.139 89.7691 133.524 89.3323L132.971 88.9678L132.232 91.8063L132.601 92.0253C133.524 92.6077 134.571 92.9711 135.616 92.8989C138.078 92.8989 139.801 91.2239 139.801 88.7499C139.739 86.3482 138.078 85.329 136.847 84.7466ZM144.169 76.8855L141.338 77.9046V79.8696H139.861V82.7082H141.4V88.3854C141.338 89.6235 141.584 90.8605 142.2 91.8797C142.815 92.6077 143.616 93.0445 144.476 92.9711C145.092 92.9711 145.646 92.8977 146.199 92.6799L146.568 92.5343L146.445 89.6958L145.83 89.9136C145.523 89.9869 145.277 90.0592 144.968 90.0592C144.661 90.0592 144.169 90.0592 144.169 88.4588V82.7082H146.692V79.8696H144.169V76.8855ZM153.521 79.724L153.029 79.6518C152.845 79.6518 152.721 79.5784 152.536 79.5784C151.676 79.5784 150.813 80.0152 150.199 80.7432V79.7974H147.553V80.5254C147.614 81.4712 147.614 82.636 147.614 84.092V92.6799H150.445V85.9114C150.445 85.6202 150.445 85.329 150.506 85.0378C150.691 83.7274 151.43 82.8538 152.352 82.8538H152.845L153.46 82.9994L153.521 79.724ZM158.689 79.5784C155.551 79.5784 153.337 82.3448 153.337 86.3482C153.337 90.2059 155.49 92.8989 158.566 92.8989C161.151 92.8989 163.982 90.7883 163.982 86.1292C163.92 82.2714 161.766 79.5784 158.689 79.5784ZM161.028 86.2026C161.028 88.4588 159.982 90.0603 158.628 90.0603C157.274 90.0603 156.229 88.4588 156.229 86.2748C156.229 84.8188 156.782 82.417 158.69 82.417C160.536 82.417 161.028 84.8922 161.028 86.2026ZM173.211 76.6665C172.287 75.6473 170.872 75.1383 169.026 75.1383C167.857 75.1383 166.688 75.2105 165.581 75.4295L165.15 75.5751V92.6065H167.98V86.2759C168.289 86.2759 168.596 86.3482 168.842 86.3482C170.503 86.4215 172.164 85.7658 173.395 84.3832C174.194 83.364 174.626 81.908 174.626 80.5254C174.626 79.0694 174.133 77.6868 173.211 76.6676V76.6665ZM171.795 80.5976C171.795 82.9994 170.011 83.3628 168.903 83.3628C168.596 83.3628 168.289 83.3628 167.98 83.2906V78.1225C168.35 78.0491 168.719 78.0491 169.088 78.0491C170.319 78.1225 171.795 78.5592 171.795 80.5976ZM183.239 89.259V84.9656C183.239 81.5446 181.701 79.6518 178.994 79.6518C177.764 79.6518 176.533 80.0152 175.487 80.7432L175.118 81.0344L175.856 83.7274L176.472 83.2184C177.148 82.7082 177.949 82.417 178.748 82.4904C179.179 82.417 179.671 82.636 180.04 82.9994C180.286 83.2906 180.409 83.7274 180.47 84.1642C178.255 84.2376 176.656 84.8922 175.671 86.057C174.995 86.8572 174.626 87.9497 174.626 89.1134C174.626 91.2973 176.103 93.0445 177.887 93.0445H178.133C179.055 93.0445 180.04 92.6799 180.779 92.0253L180.84 92.7533H183.547L183.485 92.0253C183.318 91.1165 183.236 90.1889 183.239 89.259ZM178.502 90.1325C177.948 90.2059 177.455 89.6958 177.394 89.0411V88.7499C177.394 88.3132 177.517 87.9497 177.764 87.6585C178.071 87.294 178.809 86.8572 180.471 86.785V88.1676C180.471 88.3132 180.471 88.4588 180.409 88.6777C180.101 89.5513 179.363 90.1325 178.502 90.1325ZM191.053 79.8696L189.023 87.0762C188.946 87.2571 188.904 87.456 188.9 87.6585C188.839 87.5129 188.777 87.294 188.716 87.1484L186.5 79.943H183.424L187.3 91.4429C187.362 91.5163 187.362 91.5885 187.362 91.7341C187.362 91.8075 187.3 91.8797 187.3 91.9531C186.993 92.7533 186.561 93.4813 185.947 94.0637C185.516 94.5005 185.085 94.7917 184.593 94.9373L184.101 95.1551L184.839 97.9937L185.332 97.9215C186.254 97.7025 187.055 97.1935 187.793 96.4655C189.146 95.0095 190.069 92.7533 191.299 88.9678L194.068 79.7974L191.053 79.8696Z" fill="white"/>
<path d="M129.401 80.0886C131.248 77.9046 134.325 76.5942 137.709 76.5942C139.001 76.5942 140.293 76.8132 141.523 77.1766H141.646L143.8 76.3764L142.815 75.9396C140.785 75.1383 138.692 74.7026 136.601 74.7026C133.687 74.63 130.812 75.5116 128.295 77.25L128.049 77.3956L128.971 80.5254L129.402 80.0886H129.401Z" fill="#FF0000"/>
</g>
<defs>
<filter id="filter0_d_218_8" x="107.719" y="42.5" width="23.5625" height="23.5625" filterUnits="userSpaceOnUse" color-interpolation-filters="sRGB">
<feFlood flood-opacity="0" result="BackgroundImageFix"/>
<feColorMatrix in="SourceAlpha" type="matrix" values="0 0 0 0 0 0 0 0 0 0 0 0 0 0 0 0 0 0 127 0" result="hardAlpha"/>
<feOffset dy="0.5"/>
<feGaussianBlur stdDeviation="0.5"/>
<feComposite in2="hardAlpha" operator="out"/>
<feColorMatrix type="matrix" values="0 0 0 0 0 0 0 0 0 0 0 0 0 0 0 0 0 0 0.199474 0"/>
<feBlend mode="normal" in2="BackgroundImageFix" result="effect1_dropShadow_218_8"/>
<feBlend mode="normal" in="SourceGraphic" in2="effect1_dropShadow_218_8" result="shape"/>
</filter>
<filter id="filter1_d_218_8" x="164.812" y="41.5" width="26.375" height="26.375" filterUnits="userSpaceOnUse" color-interpolation-filters="sRGB">
<feFlood flood-opacity="0" result="BackgroundImageFix"/>
<feColorMatrix in="SourceAlpha" type="matrix" values="0 0 0 0 0 0 0 0 0 0 0 0 0 0 0 0 0 0 127 0" result="hardAlpha"/>
<feOffset dy="0.5"/>
<feGaussianBlur stdDeviation="0.5"/>
<feComposite in2="hardAlpha" operator="out"/>
<feColorMatrix type="matrix" values="0 0 0 0 0 0 0 0 0 0 0 0 0 0 0 0 0 0 0.199474 0"/>
<feBlend mode="normal" in2="BackgroundImageFix" result="effect1_dropShadow_218_8"/>
<feBlend mode="normal" in="SourceGraphic" in2="effect1_dropShadow_218_8" result="shape"/>
</filter>
<filter id="filter2_d_218_8" x="171.312" y="47.1875" width="14.1875" height="15" filterUnits="userSpaceOnUse" color-interpolation-filters="sRGB">
<feFlood flood-opacity="0" result="BackgroundImageFix"/>
<feColorMatrix in="SourceAlpha" type="matrix" values="0 0 0 0 0 0 0 0 0 0 0 0 0 0 0 0 0 0 127 0" result="hardAlpha"/>
<feOffset dy="0.5"/>
<feGaussianBlur stdDeviation="0.5"/>
<feColorMatrix type="matrix" values="0 0 0 0 0 0 0 0 0 0 0 0 0 0 0 0 0 0 0.204257 0"/>
<feBlend mode="normal" in2="BackgroundImageFix" result="effect1_dropShadow_218_8"/>
<feBlend mode="normal" in="SourceGraphic" in2="effect1_dropShadow_218_8" result="shape"/>
</filter>
<linearGradient id="paint0_linear_218_8" x1="70.8705" y1="43.837" x2="58.1959" y2="68.1496" gradientUnits="userSpaceOnUse">
<stop stop-color="#00FFA3"/>
<stop offset="1" stop-color="#DC1FFF"/>
</linearGradient>
<linearGradient id="paint1_linear_218_8" x1="65.3159" y1="40.9412" x2="52.6413" y2="65.2538" gradientUnits="userSpaceOnUse">
<stop stop-color="#00FFA3"/>
<stop offset="1" stop-color="#DC1FFF"/>
</linearGradient>
<linearGradient id="paint2_linear_218_8" x1="68.0754" y1="42.3799" x2="55.4008" y2="66.6925" gradientUnits="userSpaceOnUse">
<stop stop-color="#00FFA3"/>
<stop offset="1" stop-color="#DC1FFF"/>
</linearGradient>
<linearGradient id="paint3_linear_218_8" x1="1186.84" y1="43" x2="1186.84" y2="2199.25" gradientUnits="userSpaceOnUse">
<stop stop-color="white" stop-opacity="0.5"/>
<stop offset="1" stop-opacity="0.5"/>
</linearGradient>
<linearGradient id="paint4_linear_218_8" x1="1384.56" y1="42" x2="1384.56" y2="2479.5" gradientUnits="userSpaceOnUse">
<stop stop-color="white" stop-opacity="0.5"/>
<stop offset="1" stop-opacity="0.5"/>
</linearGradient>
<clipPath id="clip0_218_8">
<rect width="16" height="25" fill="white" transform="translate(29 43)"/>
</clipPath>
<clipPath id="clip1_218_8">
<rect width="23" height="21" fill="white" transform="translate(50 43)"/>
</clipPath>
<clipPath id="clip2_218_8">
<rect width="23" height="24" fill="white" transform="translate(108 43)"/>
</clipPath>
<clipPath id="clip3_218_8">
<rect width="26" height="28" fill="white" transform="translate(165 43)"/>
</clipPath>
<clipPath id="clip4_218_8">
<rect width="21" height="21" fill="white" transform="translate(28 76)"/>
</clipPath>
<clipPath id="clip5_218_8">
<rect width="25" height="21" fill="white" transform="translate(54 76)"/>
</clipPath>
<clipPath id="clip6_218_8">
<rect width="85" height="23" fill="white" transform="translate(114 76)"/>
</clipPath>
</defs>
</svg>
