<svg xmlns="http://www.w3.org/2000/svg" width="202" height="110" fill="none"><path fill="#1434CB" d="M26.68 13.13c-2.87 0-5.44 1.56-5.44 4.42 0 3.3 4.55 3.52 4.55 5.16 0 .69-.77 1.31-2.07 1.31-1.85 0-3.23-.86-3.23-.86l-.59 2.89s1.59.73 3.71.73c3.14 0 5.6-1.62 5.6-4.54 0-3.47-4.55-3.7-4.55-5.22 0-.55.63-1.14 1.93-1.14 1.46 0 2.66.63 2.66.63l.58-2.8c-.01 0-1.32-.58-3.15-.58Zm-26.24.21-.08.42s1.2.22 2.3.69c1.4.53 1.5.84 1.74 1.78l2.57 10.33h3.45l5.28-13.22h-3.43l-3.4 9-1.4-7.63a1.52 1.52 0 0 0-1.56-1.37H.44Zm16.65 0-2.7 13.22h3.28l2.68-13.22h-3.26Zm18.26 0c-.79 0-1.2.44-1.51 1.2l-4.8 12.02h3.43l.66-2h4.19l.4 2h3.03l-2.63-13.22h-2.77Zm.44 3.58 1.02 4.97h-2.73l1.71-4.97Z"/><path fill="#872165" d="M75.1 28.1h3.58V17.5h-3.57v10.6Zm-2.02-10.76c-3.3.11-4.98 1.68-4.98 4.8v5.97h3.61v-4.87c0-1.87.23-2.67 2.33-2.75v-3.11a4.67 4.67 0 0 0-.74-.06l-.22.02ZM46 18.22c0 1.22.5 4.1 5.11 4.45.4.02 1.43.1 1.43 1.12 0 .84-.85 1.36-2.28 1.36a11.62 11.62 0 0 1-4-.84v3.4c1.55.4 3.15.59 4.76.57 3.94 0 5.71-2.35 5.71-4.68 0-2.63-1.99-4.35-5.3-4.58-.44-.04-1.5-.1-1.5-1.1 0-1.21 1.5-1.21 2.09-1.21a11.32 11.32 0 0 1 4.15 1l.04.01V14.4l-.06-.02c-1.08-.4-2.34-.78-4.68-.78-4.04 0-5.47 2.48-5.47 4.62Zm11.64-3.86v13.75h3.68v-4.26c1.07 1.7 1.6 4.26 1.6 4.26h4.44c-.44-1.93-2.35-5.46-2.35-5.46 1.13-1.55 2-3.29 2.6-5.16h-4.25a13.55 13.55 0 0 1-2.04 3.7v-7.6l-3.68.77Zm22.56-.1v13.85h3.58V13.6l-3.58.67Zm5.22 0v13.85H89V13.6l-3.58.67Zm-8.53-1.52c-.97 0-1.77.84-1.77 1.87 0 1.03.8 1.87 1.77 1.87.98 0 1.78-.84 1.78-1.87-.02-1.03-.8-1.87-1.78-1.87Z"/><mask id="a" width="43" height="17" x="46" y="12" maskUnits="userSpaceOnUse" style="mask-type:luminance"><path fill="#fff" d="M75.1 28.1h3.58V17.5h-3.57v10.6Zm-2.02-10.76c-3.3.11-4.98 1.68-4.98 4.8v5.97h3.61v-4.87c0-1.87.23-2.67 2.33-2.75v-3.11a4.67 4.67 0 0 0-.74-.06l-.22.02ZM46 18.22c0 1.22.5 4.1 5.11 4.45.4.02 1.43.1 1.43 1.12 0 .84-.85 1.36-2.28 1.36a11.62 11.62 0 0 1-4-.84v3.4c1.55.4 3.15.59 4.76.57 3.94 0 5.71-2.35 5.71-4.68 0-2.63-1.99-4.35-5.3-4.58-.44-.04-1.5-.1-1.5-1.1 0-1.21 1.5-1.21 2.09-1.21a11.32 11.32 0 0 1 4.15 1l.04.01V14.4l-.06-.02c-1.08-.4-2.34-.78-4.68-.78-4.04 0-5.47 2.48-5.47 4.62Zm11.64-3.86v13.75h3.68v-4.26c1.07 1.7 1.6 4.26 1.6 4.26h4.44c-.44-1.93-2.35-5.46-2.35-5.46 1.13-1.55 2-3.29 2.6-5.16h-4.25a13.55 13.55 0 0 1-2.04 3.7v-7.6l-3.68.77Zm22.56-.1v13.85h3.58V13.6l-3.58.67Zm5.22 0v13.85H89V13.6l-3.58.67Zm-8.53-1.52c-.97 0-1.77.84-1.77 1.87 0 1.03.8 1.87 1.77 1.87.98 0 1.78-.84 1.78-1.87-.02-1.03-.8-1.87-1.78-1.87Z"/></mask><g mask="url(#a)"><path fill="#872165" d="M89 12.74H46v15.52h43V12.74Z"/></g><path fill="#852268" fill-rule="evenodd" d="M126.22 14.3a1.45 1.45 0 0 1-.45 1.05 1.51 1.51 0 0 1-1.06.43 1.54 1.54 0 0 1-1.07-.43 1.46 1.46 0 0 1 .5-2.41 1.54 1.54 0 0 1 1.97.8c.07.18.1.37.1.57Zm-14.84 5.21c.74-.87 1.33-1.86 1.74-2.93h3.62a13.52 13.52 0 0 1-2.22 4.09s1.64 2.81 2.02 4.34h-3.8a11.55 11.55 0 0 0-1.36-3.37V25h-3.17v-10.9l3.17-.61v6.01Zm5.8.76c0-2.47 1.43-3.71 4.26-3.8.27-.02.55 0 .82.04v2.46c-1.8.06-2 .7-2 2.18V25h-3.09v-4.74Zm-14.28-2.49c2.84.18 4.54 1.55 4.54 3.64 0 1.85-1.51 3.71-4.9 3.71a16.3 16.3 0 0 1-4.08-.45v-2.7a9.7 9.7 0 0 0 3.44.66c1.22 0 1.95-.4 1.95-1.07 0-.81-.88-.87-1.21-.89h-.01c-3.96-.26-4.39-2.55-4.39-3.52 0-1.7 1.23-3.66 4.68-3.66a11.2 11.2 0 0 1 4.02.63h.05v2.61h-.04c-.37-.16-.81-.31-.81-.31a10.9 10.9 0 0 0-2.74-.48c-.49 0-1.78 0-1.78.96 0 .79.89.85 1.28.87Zm23.34 7.23h-3.06V16.6h3.06v8.42Zm5.78 0V14.04l3.07-.54v11.51h-3.07ZM130.6 13.5l-3.06.54V25h3.06V13.5ZM99.76 29.06h.03v6.25h1.82v-7.9h-1.56l-2.14.98.31 1.38 1.54-.71Zm7.62 2.45v1.23h-3.25V31.5h3.25Zm-.13-2.82h2.25v6.62h1.9V28.7h2.28v-1.56h-6.43v1.56Zm10.01 6.62-.11-.6h-.04c-.4.48-1.02.74-1.74.74-1.23 0-1.96-.88-1.96-1.82 0-1.55 1.42-2.29 3.56-2.27v-.09c0-.31-.17-.76-1.1-.76-.62 0-1.28.2-1.68.45l-.34-1.2a5.1 5.1 0 0 1 2.36-.52c2.02 0 2.67 1.17 2.67 2.57v2.06c0 .57.02 1.12.08 1.45h-1.7Zm-.22-2.8c-1-.01-1.77.22-1.77.93 0 .48.33.7.75.7.47 0 .86-.3.98-.67.03-.1.04-.2.04-.32v-.64Zm3.28-3.13c.02.54.05 1.21.05 1.99v6.35h1.9v-2.95h.02c.27.38.84.68 1.58.68 1.35 0 2.75-1.02 2.75-3.18 0-1.9-1.19-3.03-2.52-3.03-.88 0-1.58.33-2.02.96h-.03l-.09-.82h-1.64Zm1.98 3.77a1.68 1.68 0 0 1-.04-.39v-.8c0-.12.01-.24.04-.34.12-.54.6-.93 1.13-.93.84 0 1.27.71 1.27 1.66 0 1-.48 1.68-1.3 1.68-.55 0-.98-.38-1.1-.88Zm5.73-5.6h-1.11v-.78h3.2v.77h-1.14v3.3h-.94v-3.3Zm6.09 1.69v.05l.06 1.56h.92l-.23-4.07h-1.23l-.44 1.35a35 35 0 0 0-.4 1.46h-.02c-.1-.49-.21-.98-.35-1.46l-.4-1.36h-1.26l-.27 4.08h.87l.07-1.55a48.48 48.48 0 0 0 .08-1.7h.01c.1.54.24 1.12.38 1.6l.44 1.58h.74l.5-1.6c.17-.47.34-1.05.47-1.57h.02c0 .58.02 1.15.04 1.63Z" clip-rule="evenodd"/><mask id="b" width="53" height="13" x="147" y="17" maskUnits="userSpaceOnUse" style="mask-type:luminance"><path fill="#fff" d="M199.13 17.06h-51.6v12.7h51.6v-12.7Z"/></mask><g mask="url(#b)"><path fill="#fff" d="M154.37 21.96v-.14c0-1.6-.72-2.36-1.85-2.36-1.13 0-1.86.81-1.86 2.34v.14c0 1.55.7 2.33 1.86 2.33 1.17 0 1.85-.82 1.85-2.31Zm-.7-4.85c2.2 0 3.97 1.6 3.97 4.7v.15c0 3.13-1.78 4.69-3.99 4.69-1.41 0-2.44-.64-2.9-1.55v4.38h-3.22V17.35h3.22v1.36c.53-.87 1.5-1.6 2.92-1.6ZM165.3 21.9v-.15c0-1.58-.67-2.34-1.75-2.34-1.13 0-1.8.78-1.8 2.36v.14c0 1.53.69 2.31 1.75 2.31s1.8-.78 1.8-2.33Zm-6.81.04v-.14c0-3.09 1.83-4.74 3.93-4.74 1.42 0 2.26.6 2.8 1.51V17.3h3.21v9.1h-3.21v-1.47a3.12 3.12 0 0 1-2.82 1.67c-2.08 0-3.91-1.51-3.91-4.66M174.86 22.2l1.8-4.85h3.07l-5.03 12.13h-3.07l1.56-3.96-3.75-8.17h3.48l1.94 4.85ZM179.9 26.44V24.3l4.26-4.59h-3.75l-.02-2.35h7.53v2.3l-4.1 4.43h4.4v2.36h-8.33Z"/><path fill="#D0FA02" d="M189.74 25.22c.03-2.5 2-4.55 4.65-4.55a4.62 4.62 0 0 1 4.74 4.55c0 2.5-2.02 4.54-4.74 4.54a4.5 4.5 0 0 1-4.65-4.54Z"/></g><mask id="c" width="21" height="21" x="1" y="44" maskUnits="userSpaceOnUse" style="mask-type:luminance"><path fill="#fff" d="M21.66 44.19H1.5v20.68h20.16V44.2Z"/></mask><g mask="url(#c)"><path fill="#F7931A" d="M21.35 57.03a10.06 10.06 0 0 1-12.21 7.54c-5.4-1.39-8.68-7-7.34-12.54a10.06 10.06 0 0 1 12.21-7.53c5.4 1.38 8.7 7 7.34 12.53Z"/><path fill="#fff" d="M16.02 53.06c.2-1.38-.82-2.12-2.21-2.61l.45-1.86-1.1-.29-.45 1.82-.88-.22.44-1.82-1.1-.29-.46 1.87a36 36 0 0 1-.7-.17l-1.53-.4-.3 1.21.81.2c.45.12.53.43.52.67l-.52 2.12c.03 0 .07.02.11.04L9 53.3l-.73 2.97c-.05.14-.19.35-.5.27 0 .02-.8-.2-.8-.2l-.56 1.3 1.44.37.8.2-.47 1.89 1.1.28.46-1.86.88.23-.45 1.86 1.1.28.47-1.88c1.88.37 3.3.22 3.9-1.53.48-1.41-.03-2.22-1.02-2.75.72-.18 1.27-.66 1.41-1.67ZM13.5 56.7c-.35 1.4-2.66.64-3.4.45l.6-2.5c.75.2 3.15.58 2.8 2.05Zm.34-3.66c-.31 1.28-2.24.63-2.86.47l.55-2.27c.62.16 2.63.46 2.3 1.8Z"/></g><g clip-path="url(#d)"><path fill="#343434" d="m37 40-.18.57V57.1l.18.16 8-4.53L37 40Z"/><path fill="#8C8C8C" d="m37 40-8 12.73 8 4.53V40Z"/><path fill="#3C3C3B" d="m37 58.72-.1.11v5.89l.1.27 8-10.8-8 4.53Z"/><path fill="#8C8C8C" d="M37 65v-6.28l-8-4.54L37 65Z"/><path fill="#141414" d="m37 57.26 8-4.53-8-3.49v8.02Z"/><path fill="#393939" d="m29 52.73 8 4.53v-8.02l-8 3.49Z"/></g><g clip-path="url(#e)"><path fill="url(#f)" d="M53.74 59.74a.75.75 0 0 1 .53-.22h18.35c.34 0 .5.4.27.64l-3.63 3.62a.75.75 0 0 1-.53.22H50.38c-.34 0-.5-.4-.27-.64l3.63-3.62Z"/><path fill="url(#g)" d="M53.74 46.22a.77.77 0 0 1 .53-.22h18.35c.34 0 .5.4.27.64l-3.63 3.62a.75.75 0 0 1-.53.22H50.38c-.34 0-.5-.4-.27-.64l3.63-3.62Z"/><path fill="url(#h)" d="M69.26 52.94a.75.75 0 0 0-.53-.22H50.38c-.34 0-.5.4-.27.64l3.63 3.62c.13.14.33.22.53.22h18.35c.34 0 .5-.4.27-.64l-3.63-3.62Z"/></g><path fill="#FF060A" d="M90.54 65.9c6.87 0 12.43-5.12 12.43-11.42s-5.56-11.42-12.43-11.42S78.1 48.17 78.1 54.48c0 6.3 5.57 11.42 12.44 11.42Z"/><path fill="#fff" d="M97.53 52.43c-.68-.59-1.64-1.48-2.4-2.1l-.06-.03c-.07-.06-.16-.1-.25-.14-1.87-.32-10.56-1.8-10.73-1.79-.04 0-.1.02-.13.05l-.04.03a.46.46 0 0 0-.12.18l-.01.02v.18c.98 2.5 4.84 10.69 5.6 12.62.05.13.14.38.3.39h.04c.08 0 .45-.45.45-.45S96.82 54 97.5 53.2c.1-.1.17-.2.23-.3a.43.43 0 0 0-.02-.26.58.58 0 0 0-.17-.22Zm-5.65.86 2.83-2.15 1.67 1.4-4.5.75Zm-1.1-.14-4.87-3.67 7.89 1.34-3.02 2.33Zm.44.96 4.99-.74-5.7 6.31.7-5.57Zm-5.98-4.26 5.14 4-.75 5.84-4.39-9.84Z"/><g clip-path="url(#i)"><g filter="url(#j)"><path fill="#000" d="M119.5 64.56a10.78 10.78 0 1 0 0-21.56 10.78 10.78 0 0 0 0 21.56Z"/></g><path fill="#23292F" d="M119.5 64.56a10.78 10.78 0 1 0 0-21.56 10.78 10.78 0 0 0 0 21.56Z"/><path fill="url(#k)" d="M119.5 64.56a10.78 10.78 0 1 0 0-21.56 10.78 10.78 0 0 0 0 21.56Z" style="mix-blend-mode:soft-light"/><path stroke="#000" stroke-opacity=".1" d="M119.5 64.2a10.42 10.42 0 1 0 0-20.84 10.42 10.42 0 0 0 0 20.84Z"/><path fill="#fff" d="M124.07 48.75h1.87l-3.89 3.85a3.64 3.64 0 0 1-5.1 0l-3.9-3.85h1.88l2.95 2.93c.9.88 2.34.88 3.23 0l2.96-2.93ZM114.9 59.46h-1.87l3.92-3.87a3.64 3.64 0 0 1 5.1 0l3.92 3.87h-1.87l-2.98-2.95a2.3 2.3 0 0 0-3.23 0l-2.99 2.95Z"/></g><mask id="l" width="22" height="22" x="137" y="43" maskUnits="userSpaceOnUse" style="mask-type:luminance"><path fill="#fff" d="M158.5 43.72h-21V64.8h21V43.72Z"/></mask><g mask="url(#l)"><path fill="#fff" d="M148 63.65c5.17 0 9.36-4.2 9.36-9.4 0-5.18-4.19-9.39-9.36-9.39a9.38 9.38 0 0 0-9.36 9.4c0 5.19 4.19 9.4 9.36 9.4Z"/><path fill="#345D9D" d="M148 43.72a10.47 10.47 0 0 0-9.7 6.5 10.57 10.57 0 0 0 2.27 11.49 10.5 10.5 0 0 0 17.93-7.45 10.54 10.54 0 0 0-6.44-9.73c-1.26-.53-2.62-.8-4-.8H148Zm.18 10.9-1.1 3.7h5.85a.3.3 0 0 1 .3.28v.1l-.5 1.75a.38.38 0 0 1-.38.28h-8.95l1.5-5.12-1.68.5.38-1.16 1.68-.51 2.11-7.2a.38.38 0 0 1 .38-.28h2.26a.3.3 0 0 1 .22.08.29.29 0 0 1 .09.2v.1l-1.78 6.08 1.68-.52-.36 1.23-1.7.48Z"/></g><g clip-path="url(#m)"><g filter="url(#n)"><path fill="#000" d="M178 66.38A12.19 12.19 0 1 0 178 42a12.19 12.19 0 0 0 0 24.38Z"/></g><path fill="#C3A634" d="M178 66.38A12.19 12.19 0 1 0 178 42a12.19 12.19 0 0 0 0 24.38Z"/><path fill="url(#o)" d="M178 66.38A12.19 12.19 0 1 0 178 42a12.19 12.19 0 0 0 0 24.38Z" style="mix-blend-mode:soft-light"/><path stroke="#000" stroke-opacity=".1" d="M178 65.97a11.78 11.78 0 1 0 0-23.56 11.78 11.78 0 0 0 0 23.56Z"/><g filter="url(#p)"><path fill="#000" d="M175.76 53.06h3.5v1.86h-3.5v3.91h2.22c.87 0 1.59-.12 2.14-.35a3.14 3.14 0 0 0 1.96-2.46 9.24 9.24 0 0 0 0-3.66 3.14 3.14 0 0 0-1.96-2.46 5.54 5.54 0 0 0-2.15-.36h-2.2v3.52Zm-2.24 1.86h-1.2v-1.86h1.2v-5.37h5.32c.98 0 1.83.17 2.55.5.72.35 1.3.81 1.76 1.4.46.59.8 1.28 1.02 2.07.22.79.33 1.63.33 2.53 0 .9-.11 1.74-.33 2.53a5.97 5.97 0 0 1-1.02 2.06 4.76 4.76 0 0 1-1.76 1.4c-.72.34-1.57.5-2.55.5h-5.32v-5.76Z"/></g><path fill="#fff" d="M175.76 53.06h3.5v1.86h-3.5v3.91h2.22c.87 0 1.59-.12 2.14-.35a3.14 3.14 0 0 0 1.96-2.46 9.24 9.24 0 0 0 0-3.66 3.14 3.14 0 0 0-1.96-2.46 5.54 5.54 0 0 0-2.15-.36h-2.2v3.52Zm-2.24 1.86h-1.2v-1.86h1.2v-5.37h5.32c.98 0 1.83.17 2.55.5.72.35 1.3.81 1.76 1.4.46.59.8 1.28 1.02 2.07.22.79.33 1.63.33 2.53 0 .9-.11 1.74-.33 2.53a5.97 5.97 0 0 1-1.02 2.06 4.76 4.76 0 0 1-1.76 1.4c-.72.34-1.57.5-2.55.5h-5.32v-5.76Z"/></g><path fill="#0AC18E" d="M12 98a11 11 0 1 0 0-22 11 11 0 0 0 0 22Z"/><path fill="#fff" d="M15.43 83.3c-.55-1.25-1.82-1.52-3.38-1.26l-.5-1.93-1.18.3.5 1.93-.95.24-.49-1.92-1.18.3.5 1.94-2.38.62.33 1.26s.86-.25.86-.23c.48-.12.7.12.8.34l1.38 5.32c.02.15-.01.41-.34.5.02.01-.86.22-.86.22l.13 1.47s2.1-.54 2.38-.6l.5 1.95 1.19-.3-.5-1.97.94-.24.5 1.96 1.18-.3-.5-1.96c1.8-.44 3.09-1.58 2.83-3.33-.17-1.06-1.32-1.92-2.28-2.02.59-.52.89-1.29.52-2.28Zm-.57 4.63c.24 1.73-2.17 1.94-2.97 2.15l-.69-2.6c.8-.2 3.27-1.08 3.66.45Zm-1.45-3.53c.25 1.54-1.8 1.71-2.47 1.89l-.63-2.36c.66-.16 2.6-.96 3.1.47Z"/><g clip-path="url(#q)"><path fill="#fff" d="M49 86.5a10.5 10.5 0 1 1-21 0 10.5 10.5 0 0 1 21 0Z"/><path fill="#F26822" d="M38.5 76a10.5 10.5 0 0 0-9.97 13.81h3.15v-8.83l6.82 6.83 6.82-6.83v8.83h3.15a10.53 10.53 0 0 0-9.97-13.8V76Z"/><path fill="#4D4D4D" d="m36.93 89.37-2.98-2.97v5.55h-4.42a10.5 10.5 0 0 0 17.94 0h-4.42V86.4l-2.98 2.97-1.57 1.57-1.57-1.57Z"/></g><g clip-path="url(#r)"><path fill="#fff" d="M79.03 81.25v2.14l-.91.46a1.9 1.9 0 0 0-1.05 1.85 10.49 10.49 0 0 1-5.76 10.16A10.69 10.69 0 0 1 60.27 95l1.87-.95.1-.05a8.75 8.75 0 0 0 8.64-.08 8.58 8.58 0 0 0 4.22-8.55l-14.59 7.36-3.01 1.53-3.53 1.78v-2.15l3.55-1.79 1.73-.87 19.78-9.98Zm-17.35-4.1a10.69 10.69 0 0 1 11.05.85l-.26.13-1.73.87a8.75 8.75 0 0 0-8.62.1 8.58 8.58 0 0 0-4.22 8.52l14.58-7.35 3.01-1.52 3.54-1.79v2.15l-3.57 1.8-1.72.87-15.37 7.75-.85.43-.87.44-2.68 1.35v-2.14l.91-.46a1.9 1.9 0 0 0 1.05-1.85 10.49 10.49 0 0 1 5.76-10.16Z"/></g><path fill="#50AF95" fill-rule="evenodd" d="m89.51 78.18-4.02 8.71a.17.17 0 0 0 .03.2L96.4 97.83a.16.16 0 0 0 .22 0l10.87-10.74a.17.17 0 0 0 .03-.2l-4.02-8.7a.16.16 0 0 0-.15-.1H89.66c-.03 0-.06 0-.09.02a.17.17 0 0 0-.06.07Z" clip-rule="evenodd"/><path fill="#fff" fill-rule="evenodd" d="M97.85 87.68c-.08 0-.47.02-1.33.02-.7 0-1.18-.02-1.35-.02-2.67-.12-4.66-.59-4.66-1.14 0-.55 2-1.02 4.66-1.14v1.81a20.12 20.12 0 0 0 2.67 0v-1.8c2.66.11 4.65.58 4.65 1.13 0 .55-1.99 1.02-4.65 1.13Zm0-2.46V83.6h3.7v-2.47h-10.1v2.47h3.71v1.62c-3.01.14-5.28.73-5.28 1.45 0 .71 2.27 1.3 5.28 1.45v5.19h2.69v-5.2c3-.13 5.27-.73 5.27-1.44 0-.72-2.26-1.31-5.27-1.45Z" clip-rule="evenodd"/><g clip-path="url(#s)"><path fill="#fff" d="M123.99 75.28 119 92.61h2.96l1.41-5.1h4.06l1.48 5.1h3.02l-5.05-17.33h-2.9Zm2.7 9.47h-2.58l1.05-3.86.18-.8c.06.29.12.5.25.8l1.1 3.86Zm10.16 0c-1.36-.66-1.48-.95-1.48-1.39 0-.58.43-.94 1.05-.94.61 0 1.17.22 1.72.58l.55.44.74-2.77-.3-.3a4.03 4.03 0 0 0-2.71-.8c-2.28 0-3.88 1.68-3.88 4.01 0 2.11 1.6 3.28 2.95 3.86 1.36.58 1.48 1.02 1.48 1.53 0 .94-.86 1.09-1.35 1.09a4.34 4.34 0 0 1-2.1-.73l-.55-.36-.74 2.84.37.22c.92.58 1.97.94 3.02.87 2.46 0 4.18-1.68 4.18-4.15-.06-2.4-1.72-3.42-2.95-4Zm7.32-7.86-2.83 1.01v1.97h-1.48v2.84h1.54v5.68a6.17 6.17 0 0 0 .8 3.49c.62.73 1.42 1.16 2.28 1.1.61 0 1.17-.08 1.72-.3l.37-.15-.13-2.83-.61.21c-.3.08-.55.15-.86.15-.3 0-.8 0-.8-1.6V82.7h2.52v-2.84h-2.52v-2.98Zm9.35 2.83-.5-.07c-.18 0-.3-.07-.48-.07-.86 0-1.73.44-2.34 1.16v-.94h-2.65v.73c.06.94.06 2.1.06 3.56v8.59h2.83v-6.77c0-.29 0-.58.07-.87.18-1.31.92-2.19 1.84-2.19h.5l.61.15.06-3.28Zm5.17-.14c-3.14 0-5.35 2.76-5.35 6.77 0 3.86 2.15 6.55 5.23 6.55 2.58 0 5.41-2.11 5.41-6.77-.06-3.86-2.21-6.55-5.3-6.55Zm2.34 6.62c0 2.26-1.05 3.86-2.4 3.86-1.36 0-2.4-1.6-2.4-3.79 0-1.45.55-3.85 2.46-3.85 1.85 0 2.34 2.47 2.34 3.78Zm12.18-9.53c-.92-1.02-2.34-1.53-4.18-1.53-1.17 0-2.34.07-3.45.29l-.43.15V92.6h2.83v-6.33c.3 0 .62.07.86.07a5.72 5.72 0 0 0 4.56-1.97 6.43 6.43 0 0 0 1.23-3.85c0-1.46-.5-2.84-1.42-3.86Zm-1.42 3.93c0 2.4-1.78 2.76-2.89 2.76-.3 0-.61 0-.92-.07v-5.17c.37-.07.74-.07 1.1-.07 1.24.07 2.71.5 2.71 2.55Zm11.45 8.66v-4.3c0-3.42-1.54-5.3-4.25-5.3-1.23 0-2.46.36-3.5 1.08l-.37.3.74 2.69.61-.51c.68-.51 1.48-.8 2.28-.73.43-.07.92.15 1.29.5.25.3.37.74.43 1.17-2.22.08-3.81.73-4.8 1.9-.67.8-1.04 1.89-1.04 3.05 0 2.19 1.47 3.93 3.26 3.93h.24c.93 0 1.91-.36 2.65-1.01l.06.72h2.7l-.05-.72c-.17-.91-.25-1.84-.25-2.77Zm-4.74.87c-.55.08-1.04-.43-1.1-1.09v-.29c0-.44.12-.8.36-1.1.31-.36 1.05-.8 2.71-.87v1.39c0 .14 0 .29-.06.5-.3.88-1.05 1.46-1.9 1.46Zm12.55-10.26-2.03 7.2c-.07.19-.12.39-.12.59l-.18-.51-2.22-7.2h-3.08l3.88 11.5c.06.07.06.14.06.28 0 .08-.06.15-.06.22-.3.8-.74 1.53-1.35 2.11-.43.44-.86.73-1.36.88l-.49.22.74 2.83.5-.07a5.22 5.22 0 0 0 2.45-1.45c1.36-1.46 2.28-3.72 3.5-7.5l2.78-9.17-3.02.07Z"/><path fill="red" d="M129.4 80.09c1.85-2.19 4.92-3.5 8.3-3.5 1.3 0 2.6.22 3.82.59h.13l2.15-.8-.99-.44a16.92 16.92 0 0 0-6.2-1.24c-2.92-.07-5.8.81-8.32 2.55l-.24.15.92 3.13.43-.44Z"/></g><defs><clipPath id="d"><path fill="#fff" d="M29 43h16v25H29z"/></clipPath><clipPath id="e"><path fill="#fff" d="M50 43h23v21H50z"/></clipPath><clipPath id="i"><path fill="#fff" d="M108 43h23v24h-23z"/></clipPath><clipPath id="m"><path fill="#fff" d="M165 43h26v28h-26z"/></clipPath><clipPath id="q"><path fill="#fff" d="M28 76h21v21H28z"/></clipPath><clipPath id="r"><path fill="#fff" d="M54 76h25v21H54z"/></clipPath><clipPath id="s"><path fill="#fff" d="M114 76h85v23h-85z"/></clipPath><linearGradient id="f" x1="70.87" x2="58.2" y1="43.84" y2="68.15" gradientUnits="userSpaceOnUse"><stop stop-color="#00FFA3"/><stop offset="1" stop-color="#DC1FFF"/></linearGradient><linearGradient id="g" x1="65.32" x2="52.64" y1="40.94" y2="65.25" gradientUnits="userSpaceOnUse"><stop stop-color="#00FFA3"/><stop offset="1" stop-color="#DC1FFF"/></linearGradient><linearGradient id="h" x1="68.08" x2="55.4" y1="42.38" y2="66.69" gradientUnits="userSpaceOnUse"><stop stop-color="#00FFA3"/><stop offset="1" stop-color="#DC1FFF"/></linearGradient><linearGradient id="k" x1="1186.84" x2="1186.84" y1="43" y2="2199.25" gradientUnits="userSpaceOnUse"><stop stop-color="#fff" stop-opacity=".5"/><stop offset="1" stop-opacity=".5"/></linearGradient><linearGradient id="o" x1="1384.56" x2="1384.56" y1="42" y2="2479.5" gradientUnits="userSpaceOnUse"><stop stop-color="#fff" stop-opacity=".5"/><stop offset="1" stop-opacity=".5"/></linearGradient><filter id="j" width="23.56" height="23.56" x="107.72" y="42.5" color-interpolation-filters="sRGB" filterUnits="userSpaceOnUse"><feFlood flood-opacity="0" result="BackgroundImageFix"/><feColorMatrix in="SourceAlpha" result="hardAlpha" values="0 0 0 0 0 0 0 0 0 0 0 0 0 0 0 0 0 0 127 0"/><feOffset dy=".5"/><feGaussianBlur stdDeviation=".5"/><feComposite in2="hardAlpha" operator="out"/><feColorMatrix values="0 0 0 0 0 0 0 0 0 0 0 0 0 0 0 0 0 0 0.199474 0"/><feBlend in2="BackgroundImageFix" result="effect1_dropShadow_218_8"/><feBlend in="SourceGraphic" in2="effect1_dropShadow_218_8" result="shape"/></filter><filter id="n" width="26.38" height="26.38" x="164.81" y="41.5" color-interpolation-filters="sRGB" filterUnits="userSpaceOnUse"><feFlood flood-opacity="0" result="BackgroundImageFix"/><feColorMatrix in="SourceAlpha" result="hardAlpha" values="0 0 0 0 0 0 0 0 0 0 0 0 0 0 0 0 0 0 127 0"/><feOffset dy=".5"/><feGaussianBlur stdDeviation=".5"/><feComposite in2="hardAlpha" operator="out"/><feColorMatrix values="0 0 0 0 0 0 0 0 0 0 0 0 0 0 0 0 0 0 0.199474 0"/><feBlend in2="BackgroundImageFix" result="effect1_dropShadow_218_8"/><feBlend in="SourceGraphic" in2="effect1_dropShadow_218_8" result="shape"/></filter><filter id="p" width="14.19" height="15" x="171.31" y="47.19" color-interpolation-filters="sRGB" filterUnits="userSpaceOnUse"><feFlood flood-opacity="0" result="BackgroundImageFix"/><feColorMatrix in="SourceAlpha" result="hardAlpha" values="0 0 0 0 0 0 0 0 0 0 0 0 0 0 0 0 0 0 127 0"/><feOffset dy=".5"/><feGaussianBlur stdDeviation=".5"/><feColorMatrix values="0 0 0 0 0 0 0 0 0 0 0 0 0 0 0 0 0 0 0.204257 0"/><feBlend in2="BackgroundImageFix" result="effect1_dropShadow_218_8"/><feBlend in="SourceGraphic" in2="effect1_dropShadow_218_8" result="shape"/></filter></defs></svg>