<svg xmlns="http://www.w3.org/2000/svg" width="202" height="68" fill="none"><path fill="#1434CB" d="M25.377 2.96c-2.724 0-5.17 1.47-5.17 4.17 0 3.11 4.32 3.322 4.32 4.87 0 .652-.732 1.243-1.962 1.243-1.758 0-3.076-.819-3.076-.819l-.556 2.73s1.508.698 3.53.698c2.987 0 5.33-1.532 5.33-4.292 0-3.277-4.335-3.489-4.335-4.93 0-.516.6-1.077 1.83-1.077 1.392 0 2.535.592 2.535.592l.556-2.64c-.015 0-1.26-.546-3.002-.546ZM.42 3.155l-.073.395s1.143.212 2.182.652c1.333.5 1.421.789 1.655 1.684L6.63 15.64h3.28l5.024-12.484h-3.266l-3.236 8.495-1.319-7.205c-.117-.82-.732-1.29-1.493-1.29H.42Zm15.832 0L13.69 15.64h3.12l2.548-12.484h-3.105Zm17.37 0c-.747 0-1.142.41-1.435 1.138l-4.57 11.346h3.266l.63-1.896h3.984l.38 1.896h2.886L36.258 3.156h-2.636Zm.425 3.383.967 4.687H32.42l1.626-4.687Z"/><path fill="#872165" d="M68.368 14.521h2.995V5.423h-2.995v9.098Zm-1.694-9.23c-2.768.099-4.175 1.44-4.175 4.108v5.122h3.025v-4.173c0-1.603.197-2.29 1.952-2.356V5.324a3.82 3.82 0 0 0-.62-.049l-.182.017ZM44 6.045c0 1.048.423 3.519 4.28 3.813.333.017 1.196.082 1.196.966 0 .72-.711 1.162-1.906 1.162a9.531 9.531 0 0 1-3.358-.72v2.913c1.3.343 2.647.507 3.993.49 3.297 0 4.78-2.012 4.78-4.009 0-2.258-1.664-3.73-4.432-3.927-.378-.033-1.255-.082-1.255-.95 0-1.03 1.255-1.03 1.739-1.03.832 0 1.906.261 2.677.523 0 0 .424.164.802.328l.03.016V2.77l-.045-.016c-.908-.344-1.966-.67-3.918-.67-3.388 0-4.583 2.127-4.583 3.96Zm9.741-3.305V14.52h3.086v-3.65c.892 1.457 1.346 3.65 1.346 3.65h3.706c-.363-1.653-1.966-4.68-1.966-4.68a15.362 15.362 0 0 0 2.178-4.418h-3.555a11.696 11.696 0 0 1-1.71 3.174V2.084l-3.085.655Zm18.893-.082V14.52h2.995V2.084l-2.995.573Zm4.371 0V14.52H80V2.084l-2.995.573Zm-7.14-1.31c-.816 0-1.482.72-1.482 1.604 0 .884.666 1.604 1.483 1.604.816 0 1.482-.72 1.482-1.603-.015-.884-.666-1.604-1.483-1.604Z"/><mask id="a" width="36" height="14" x="44" y="1" maskUnits="userSpaceOnUse" style="mask-type:luminance"><path fill="#fff" d="M68.368 14.521h2.995V5.423h-2.995v9.098Zm-1.694-9.23c-2.768.099-4.175 1.44-4.175 4.108v5.122h3.025v-4.173c0-1.603.197-2.29 1.952-2.356V5.324a3.82 3.82 0 0 0-.62-.049l-.182.017ZM44 6.045c0 1.048.423 3.519 4.28 3.813.333.017 1.196.082 1.196.966 0 .72-.711 1.162-1.906 1.162a9.531 9.531 0 0 1-3.358-.72v2.913c1.3.343 2.647.507 3.993.49 3.297 0 4.78-2.012 4.78-4.009 0-2.258-1.664-3.73-4.432-3.927-.378-.033-1.255-.082-1.255-.95 0-1.03 1.255-1.03 1.739-1.03.832 0 1.906.261 2.677.523 0 0 .424.164.802.328l.03.016V2.77l-.045-.016c-.908-.344-1.966-.67-3.918-.67-3.388 0-4.583 2.127-4.583 3.96Zm9.741-3.305V14.52h3.086v-3.65c.892 1.457 1.346 3.65 1.346 3.65h3.706c-.363-1.653-1.966-4.68-1.966-4.68a15.362 15.362 0 0 0 2.178-4.418h-3.555a11.696 11.696 0 0 1-1.71 3.174V2.084l-3.085.655Zm18.893-.082V14.52h2.995V2.084l-2.995.573Zm4.371 0V14.52H80V2.084l-2.995.573Zm-7.14-1.31c-.816 0-1.482.72-1.482 1.604 0 .884.666 1.604 1.483 1.604.816 0 1.482-.72 1.482-1.603-.015-.884-.666-1.604-1.483-1.604Z"/></mask><g mask="url(#a)"><path fill="#872165" d="M80 1.348H44v13.304h36V1.348Z"/></g><g clip-path="url(#b)"><path fill="#852268" fill-rule="evenodd" d="M104.412 2.923a.959.959 0 0 1-.309.709 1.042 1.042 0 0 1-.341.217 1.095 1.095 0 0 1-1.145-.22.997.997 0 0 1-.227-.325.959.959 0 0 1 .001-.767 1.011 1.011 0 0 1 .57-.542 1.091 1.091 0 0 1 1.145.218.96.96 0 0 1 .306.71ZM94.087 6.455a7.014 7.014 0 0 0 1.216-1.988l-.004-.003h2.52a9.112 9.112 0 0 1-1.546 2.776s1.144 1.907 1.404 2.943H95.04a7.743 7.743 0 0 0-.953-2.285v2.288h-2.202V2.791l2.202-.416v4.08Zm4.031.517c0-1.677 1.001-2.522 2.973-2.583v-.003a3.12 3.12 0 0 1 .566.03v1.67c-1.249.04-1.388.473-1.388 1.477v2.623h-2.15V6.972ZM88.191 5.28h.004-.003c1.978.124 3.158 1.047 3.158 2.47 0 1.255-1.053 2.519-3.406 2.519-.957.014-1.913-.09-2.843-.309V8.135a6.893 6.893 0 0 0 2.392.444c.853 0 1.362-.268 1.362-.727 0-.55-.612-.588-.849-.603h-.004c-2.756-.179-3.052-1.731-3.052-2.392 0-1.146.853-2.482 3.257-2.482a7.97 7.97 0 0 1 2.795.424l.033.009v1.769l-.024-.006c-.26-.104-.566-.208-.566-.208a7.763 7.763 0 0 0-1.908-.323c-.339 0-1.237 0-1.237.65 0 .533.62.574.891.59Zm16.237 4.905h-2.133V4.473h2.133v5.713Zm4.019 0V2.74l2.135-.364v7.811h-2.135Zm-.983-7.81-2.132.363v7.447h2.132v-7.81ZM86.009 12.932h.018v4.242h1.27V11.82h-1.089l-1.485.658.215.94 1.07-.484Zm5.298 1.665v.831h-2.262v-.831h2.262Zm-.087-1.919h1.56v4.499h1.322v-4.499h1.591v-1.056H91.22v1.056Zm6.962 4.499-.078-.404h-.028c-.275.32-.708.494-1.21.494-.855 0-1.364-.595-1.364-1.236 0-1.047.986-1.55 2.48-1.54v-.058c0-.214-.12-.52-.768-.52-.432 0-.89.142-1.167.306l-.242-.808c.293-.155.87-.355 1.642-.355 1.41 0 1.857.79 1.857 1.74V16.2c0 .386.018.758.06.98h-1.182v-.002Zm-.154-1.905c-.69-.008-1.228.148-1.228.635 0 .32.224.48.517.48.33 0 .596-.206.683-.462a.818.818 0 0 0 .028-.214v-.439Zm2.283-2.123c.015.369.034.822.034 1.35l.003-.003v4.311h1.312v-2.002h.018c.191.262.587.461 1.098.461.941 0 1.918-.692 1.918-2.158 0-1.284-.829-2.052-1.754-2.052-.614 0-1.099.223-1.41.653h-.018l-.061-.56h-1.14Zm1.374 2.559a1.106 1.106 0 0 1-.028-.262v-.552c0-.074.009-.155.028-.222a.814.814 0 0 1 .786-.634c.586 0 .889.484.889 1.128 0 .684-.339 1.136-.907 1.136a.786.786 0 0 1-.768-.594Zm3.991-3.806h-.777v-.525h2.226v.525h-.792v2.24h-.657v-2.24Zm4.23 1.152.001.031v.003l.043 1.059h.641l-.16-2.764h-.856l-.309.917c-.093.309-.193.673-.275.993h-.012c-.068-.333-.15-.663-.245-.99l-.284-.923h-.874l-.185 2.764h.605l.052-1.05c.012-.207.022-.444.031-.68l.02-.466h.009c.07.36.17.756.263 1.08l.309 1.07h.511l.354-1.08c.112-.322.233-.718.323-1.07h.013c0 .392.014.78.025 1.106Z" clip-rule="evenodd"/></g><mask id="c" width="53" height="13" x="117" y="4" maskUnits="userSpaceOnUse" style="mask-type:luminance"><path fill="#fff" d="M169.127 4.06h-51.594v12.697h51.594V4.061Z"/></mask><g mask="url(#c)"><path fill="#fff" d="M124.373 8.958V8.82c0-1.598-.718-2.363-1.849-2.363s-1.867.817-1.867 2.346v.139c0 1.546.7 2.329 1.867 2.329s1.849-.817 1.849-2.312Zm-.7-4.848c2.19 0 3.967 1.599 3.967 4.71v.138c0 3.128-1.777 4.692-3.985 4.692-1.418 0-2.441-.642-2.908-1.546v4.379h-3.214V4.353h3.214v1.355c.538-.868 1.508-1.598 2.926-1.598ZM135.31 8.891v-.139c0-1.581-.682-2.345-1.76-2.345-1.13 0-1.795.781-1.795 2.363v.139c0 1.529.682 2.311 1.741 2.311 1.06 0 1.814-.781 1.814-2.329Zm-6.823.053v-.14c.001-3.093 1.832-4.743 3.933-4.743 1.418 0 2.262.59 2.8 1.511V4.304h3.214v9.088h-3.214v-1.46c-.485.921-1.472 1.668-2.818 1.668-2.083 0-3.914-1.511-3.914-4.657M144.861 9.202l1.795-4.849h3.07l-5.027 12.13h-3.07l1.563-3.962-3.753-8.168h3.483l1.939 4.849ZM149.892 13.441v-2.154l4.272-4.587h-3.751l-.018-2.347h7.521v2.294l-4.093 4.431h4.398v2.364h-8.329Z"/><path fill="#D0FA02" d="M159.737 12.222c.038-2.503 1.996-4.554 4.657-4.554s4.733 2.051 4.733 4.554-2.015 4.535-4.733 4.535c-2.718 0-4.657-2.013-4.657-4.535Z"/></g><mask id="d" width="19" height="20" x="177" y="1" maskUnits="userSpaceOnUse" style="mask-type:luminance"><path fill="#fff" d="M195.852 1.105h-18.477V20.31h18.477V1.105Z"/></mask><g mask="url(#d)"><path fill="#F7931A" d="M195.575 13.03c-1.234 5.144-6.247 8.274-11.197 6.991-4.949-1.282-7.961-6.492-6.726-11.636 1.233-5.144 6.246-8.275 11.195-6.992 4.95 1.282 7.962 6.493 6.728 11.637Z"/><path fill="#fff" d="M190.687 9.34c.184-1.279-.752-1.966-2.032-2.424l.415-1.73-1.013-.263-.405 1.685c-.266-.069-.54-.134-.812-.199l.407-1.696-1.013-.263-.416 1.73c-.22-.051-.437-.103-.647-.157l.001-.006-1.398-.363-.27 1.126s.753.179.737.19c.41.106.485.389.472.613l-.473 1.972a.848.848 0 0 1 .106.035l-.108-.028-.663 2.763c-.05.13-.177.324-.464.25.01.015-.737-.191-.737-.191l-.503 1.206 1.319.342c.245.064.486.13.723.194l-.42 1.75 1.013.263.415-1.732c.277.078.546.15.808.217l-.414 1.725 1.014.262.42-1.748c1.729.34 3.029.204 3.576-1.422.441-1.308-.022-2.063-.932-2.555.663-.159 1.161-.612 1.294-1.547Zm-2.316 3.375c-.313 1.308-2.433.6-3.12.424l.556-2.32c.688.178 2.891.531 2.564 1.896Zm.314-3.395c-.286 1.19-2.051.586-2.623.437l.505-2.103c.572.148 2.415.425 2.118 1.666Z"/></g><g clip-path="url(#e)"><path fill="#343434" d="m7.997 28-.174.57v16.526l.174.168 7.998-4.535L7.997 28Z"/><path fill="#8C8C8C" d="M7.998 28 0 40.729l7.998 4.535V28Z"/><path fill="#3C3C3B" d="m7.997 46.716-.098.115v5.888l.098.275L16 42.184l-8.003 4.532Z"/><path fill="#8C8C8C" d="M7.998 52.994v-6.278L0 42.184l7.998 10.81Z"/><path fill="#141414" d="m7.998 45.264 7.997-4.535-7.997-3.487v8.022Z"/><path fill="#393939" d="m0 40.73 7.997 4.534v-8.022L0 40.73Z"/></g><g clip-path="url(#f)"><path fill="url(#g)" d="M24.736 47.738a.753.753 0 0 1 .532-.22h18.356c.336 0 .503.405.266.642l-3.626 3.62a.753.753 0 0 1-.532.22H21.376a.375.375 0 0 1-.266-.641l3.626-3.62Z"/><path fill="url(#h)" d="M24.736 34.22a.774.774 0 0 1 .532-.22h18.356c.336 0 .503.404.266.641l-3.626 3.62a.753.753 0 0 1-.532.22H21.376a.375.375 0 0 1-.266-.64l3.626-3.622Z"/><path fill="url(#i)" d="M40.264 40.935a.753.753 0 0 0-.532-.219H21.376a.375.375 0 0 0-.266.641l3.626 3.62c.139.14.33.22.532.22h18.356a.375.375 0 0 0 .266-.64l-3.626-3.622Z"/></g><path fill="#FF060A" d="M61.537 53.898c6.872 0 12.438-5.113 12.438-11.419s-5.566-11.42-12.438-11.42c-6.871 0-12.437 5.114-12.437 11.42s5.57 11.42 12.437 11.42Z"/><path fill="#fff" d="M68.533 40.429c-.686-.585-1.64-1.475-2.411-2.105l-.048-.027a1.014 1.014 0 0 0-.252-.133c-1.869-.32-10.56-1.813-10.728-1.794a.33.33 0 0 0-.133.045l-.043.032a.457.457 0 0 0-.119.178l-.01.028v.173c.977 2.502 4.842 10.694 5.605 12.62.047.133.133.38.295.393h.038c.086 0 .458-.452.458-.452s6.638-7.387 7.31-8.173c.086-.096.162-.2.229-.31a.428.428 0 0 0-.024-.256.581.581 0 0 0-.167-.22Zm-5.652.863 2.83-2.155 1.664 1.406-4.494.749Zm-1.1-.142-4.876-3.67 7.892 1.337-3.016 2.333Zm.438.96 4.99-.74-5.705 6.314.715-5.575Zm-5.976-4.26 5.132 3.994-.743 5.845-4.389-9.84Z"/><g clip-path="url(#j)"><g filter="url(#k)"><path fill="#000" d="M90.5 52.563c5.954 0 10.781-4.827 10.781-10.782C101.281 35.827 96.454 31 90.5 31c-5.954 0-10.781 4.827-10.781 10.781 0 5.955 4.827 10.782 10.781 10.782Z"/></g><path fill="#23292F" d="M90.5 52.563c5.954 0 10.781-4.827 10.781-10.782C101.281 35.827 96.454 31 90.5 31c-5.954 0-10.781 4.827-10.781 10.781 0 5.955 4.827 10.782 10.781 10.782Z"/><path fill="url(#l)" d="M90.5 52.563c5.954 0 10.781-4.827 10.781-10.782C101.281 35.827 96.454 31 90.5 31c-5.954 0-10.781 4.827-10.781 10.781 0 5.955 4.827 10.782 10.781 10.782Z" style="mix-blend-mode:soft-light"/><path stroke="#000" stroke-opacity=".097" d="M90.5 52.203c5.756 0 10.422-4.666 10.422-10.422S96.256 31.36 90.5 31.36s-10.422 4.666-10.422 10.422S84.744 52.203 90.5 52.203Z"/><path fill="#fff" d="M95.074 36.75h1.87l-3.892 3.853a3.636 3.636 0 0 1-5.104 0l-3.894-3.853h1.873l2.956 2.926a2.3 2.3 0 0 0 3.232 0l2.959-2.926ZM85.904 47.464H84.03l3.917-3.876a3.636 3.636 0 0 1 5.104 0l3.917 3.876h-1.873l-2.979-2.951a2.3 2.3 0 0 0-3.232 0l-2.981 2.95Z"/></g><mask id="m" width="22" height="22" x="108" y="31" maskUnits="userSpaceOnUse" style="mask-type:luminance"><path fill="#fff" d="M129.5 31.723h-21V52.79h21V31.723Z"/></mask><g mask="url(#m)"><path fill="#fff" d="M119 51.65c5.172 0 9.364-4.205 9.364-9.393 0-5.188-4.192-9.394-9.364-9.394-5.171 0-9.363 4.206-9.363 9.394s4.192 9.394 9.363 9.394Z"/><path fill="#345D9D" d="M119 31.723c-2.077 0-4.107.617-5.833 1.775a10.528 10.528 0 0 0-3.868 4.728 10.573 10.573 0 0 0-.597 6.086 10.546 10.546 0 0 0 2.873 5.394 10.494 10.494 0 0 0 5.377 2.883c2.036.406 4.148.197 6.066-.6a10.5 10.5 0 0 0 4.712-3.88 10.557 10.557 0 0 0 1.77-5.852 10.522 10.522 0 0 0-3.045-7.436 10.461 10.461 0 0 0-7.394-3.098H119Zm.178 10.891-1.093 3.698h5.847a.292.292 0 0 1 .279.174.291.291 0 0 1 .026.112v.097l-.508 1.76a.377.377 0 0 1-.382.28h-8.949l1.5-5.126-1.678.51.382-1.173 1.678-.51 2.11-7.193a.383.383 0 0 1 .381-.281h2.263a.295.295 0 0 1 .305.286v.097l-1.78 6.07 1.678-.51-.356 1.224-1.703.485Z"/></g><g clip-path="url(#n)"><path fill="#fff" d="M157 41.499c0 5.798-4.701 10.499-10.5 10.499s-10.5-4.7-10.5-10.499C136 35.701 140.701 31 146.5 31S157 35.7 157 41.499Z"/><path fill="#F26822" d="M146.5 31c-5.798 0-10.506 4.707-10.499 10.499.001 1.158.186 2.273.533 3.315h3.141v-8.832l6.825 6.824 6.823-6.824v8.833h3.143c.347-1.043.531-2.157.533-3.316C157.009 35.702 152.297 31 146.5 31V31Z"/><path fill="#4D4D4D" d="m144.93 44.374-2.978-2.977v5.557H137.527a10.5 10.5 0 0 0 17.946 0h-4.426v-5.557l-2.979 2.977-1.569 1.57-1.568-1.57h-.001Z"/></g><path fill="#50AF95" fill-rule="evenodd" d="m167.509 33.18-4.022 8.714a.178.178 0 0 0-.014.105.178.178 0 0 0 .049.092l10.863 10.736a.164.164 0 0 0 .23 0l10.863-10.735a.172.172 0 0 0 .035-.197l-4.022-8.714a.161.161 0 0 0-.148-.098h-13.684a.161.161 0 0 0-.15.098Z" clip-rule="evenodd"/><path fill="#fff" fill-rule="evenodd" d="M175.846 42.675c-.075.006-.463.03-1.33.03-.689 0-1.179-.022-1.351-.03-2.664-.117-4.652-.58-4.652-1.135s1.988-1.017 4.652-1.136v1.81c.175.012.673.042 1.363.042.827 0 1.241-.035 1.316-.041v-1.81c2.658.118 4.643.582 4.643 1.135 0 .554-1.984 1.017-4.643 1.135h.002Zm0-2.457v-1.62h3.711v-2.47h-10.102v2.47h3.71v1.62c-3.015.138-5.283.734-5.283 1.45 0 .714 2.268 1.31 5.283 1.45v5.19h2.681v-5.193c3.008-.138 5.272-.734 5.272-1.448 0-.715-2.262-1.31-5.272-1.45Z" clip-rule="evenodd"/><defs><clipPath id="b"><path fill="#fff" d="M85 0h26v19H85z"/></clipPath><clipPath id="e"><path fill="#fff" d="M0 31h16v25H0z"/></clipPath><clipPath id="f"><path fill="#fff" d="M21 31h23v21H21z"/></clipPath><clipPath id="j"><path fill="#fff" d="M79 31h23v24H79z"/></clipPath><clipPath id="n"><path fill="#fff" d="M136 31h21v21h-21z"/></clipPath><linearGradient id="g" x1="41.871" x2="29.196" y1="31.837" y2="56.15" gradientUnits="userSpaceOnUse"><stop stop-color="#00FFA3"/><stop offset="1" stop-color="#DC1FFF"/></linearGradient><linearGradient id="h" x1="36.316" x2="23.641" y1="28.941" y2="53.254" gradientUnits="userSpaceOnUse"><stop stop-color="#00FFA3"/><stop offset="1" stop-color="#DC1FFF"/></linearGradient><linearGradient id="i" x1="39.076" x2="26.401" y1="30.38" y2="54.693" gradientUnits="userSpaceOnUse"><stop stop-color="#00FFA3"/><stop offset="1" stop-color="#DC1FFF"/></linearGradient><linearGradient id="l" x1="1157.84" x2="1157.84" y1="31" y2="2187.25" gradientUnits="userSpaceOnUse"><stop stop-color="#fff" stop-opacity=".5"/><stop offset="1" stop-opacity=".5"/></linearGradient><filter id="k" width="23.563" height="23.563" x="78.719" y="30.5" color-interpolation-filters="sRGB" filterUnits="userSpaceOnUse"><feFlood flood-opacity="0" result="BackgroundImageFix"/><feColorMatrix in="SourceAlpha" result="hardAlpha" values="0 0 0 0 0 0 0 0 0 0 0 0 0 0 0 0 0 0 127 0"/><feOffset dy=".5"/><feGaussianBlur stdDeviation=".5"/><feComposite in2="hardAlpha" operator="out"/><feColorMatrix values="0 0 0 0 0 0 0 0 0 0 0 0 0 0 0 0 0 0 0.199474 0"/><feBlend in2="BackgroundImageFix" result="effect1_dropShadow_431_769"/><feBlend in="SourceGraphic" in2="effect1_dropShadow_431_769" result="shape"/></filter></defs></svg>