<svg xmlns="http://www.w3.org/2000/svg" width="192" height="110" fill="none"><path fill="#1434CB" d="M24.73 12.86c-2.66 0-5.04 1.42-5.04 4.03 0 3.01 4.2 3.21 4.2 4.71 0 .63-.7 1.2-1.9 1.2-1.72 0-3-.79-3-.79l-.54 2.64s1.47.68 3.44.68c2.9 0 5.2-1.49 5.2-4.15 0-3.17-4.23-3.38-4.23-4.77 0-.5.58-1.04 1.78-1.04a6 6 0 0 1 2.47.57l.54-2.55c-.01 0-1.23-.53-2.92-.53Zm-24.32.2-.07.37s1.11.2 2.12.63c1.3.49 1.39.77 1.62 1.63l2.38 9.43h3.2l4.9-12.07h-3.2l-3.14 8.21-1.29-6.96a1.4 1.4 0 0 0-1.45-1.25H.4Zm15.43 0-2.5 12.06h3.04l2.48-12.07h-3.02Zm16.92 0c-.73 0-1.11.39-1.4 1.1l-4.45 10.96h3.18l.62-1.83h3.88l.37 1.83h2.8l-2.43-12.07h-2.57Zm.41 3.26.95 4.53h-2.53l1.58-4.53Z"/><path fill="#FFB600" d="M71.78 22a8.58 8.58 0 0 1-8.5 8.66 8.6 8.6 0 0 1-8.5-8.66 8.57 8.57 0 0 1 8.45-8.66c4.77 0 8.55 3.9 8.55 8.66Z"/><path fill="#F7981D" d="M63.27 13.34a8.6 8.6 0 0 1 8.5 8.66 8.58 8.58 0 0 1-8.5 8.66 8.6 8.6 0 0 1-8.5-8.66"/><path fill="#FF8500" d="M63.27 13.34a8.6 8.6 0 0 1 8.5 8.66 8.58 8.58 0 0 1-8.5 8.66"/><path fill="#FF5050" d="M51.85 13.34A8.59 8.59 0 0 0 43.44 22a8.58 8.58 0 0 0 8.5 8.66c2.2 0 4.18-.87 5.71-2.24.32-.28.59-.6.86-.92h-1.76c-.22-.27-.45-.6-.63-.87h3.02c.18-.28.36-.6.5-.92h-4.01c-.14-.27-.27-.6-.36-.91h4.68c.27-.87.45-1.8.45-2.75 0-.65-.1-1.24-.18-1.84H55c.04-.32.13-.6.22-.91h4.68a5.53 5.53 0 0 0-.36-.92h-3.96c.14-.32.32-.6.5-.92h3.01c-.18-.32-.4-.64-.67-.91h-1.67c.27-.32.54-.6.86-.87a8.21 8.21 0 0 0-5.72-2.25c0-.1 0-.1-.04-.1Z"/><path fill="#E52836" d="M43.44 22a8.58 8.58 0 0 0 8.5 8.66c2.2 0 4.18-.87 5.71-2.24.32-.28.59-.6.86-.92h-1.76c-.22-.27-.45-.6-.63-.87h3.02c.18-.28.36-.6.5-.92h-4.01c-.14-.27-.27-.6-.36-.91h4.68c.27-.88.45-1.8.45-2.75 0-.65-.1-1.24-.18-1.84H55c.04-.32.13-.6.22-.91h4.68a5.53 5.53 0 0 0-.36-.92h-3.96c.14-.32.32-.6.5-.92h3.01c-.18-.32-.4-.64-.67-.91h-1.67c.27-.32.54-.6.86-.88a8.21 8.21 0 0 0-5.72-2.24h-.04"/><path fill="#CB2026" d="M51.94 30.66c2.2 0 4.18-.87 5.71-2.24.32-.28.59-.6.86-.92h-1.76c-.22-.27-.45-.6-.63-.87h3.02c.18-.28.36-.6.5-.92h-4.01c-.14-.27-.27-.6-.36-.91h4.68c.27-.88.45-1.8.45-2.75 0-.65-.1-1.24-.18-1.84H55c.04-.32.13-.6.22-.91h4.68a5.53 5.53 0 0 0-.36-.92h-3.96c.14-.32.32-.6.5-.92h3.01c-.18-.32-.4-.64-.67-.91h-1.67c.27-.32.54-.6.86-.88a8.21 8.21 0 0 0-5.71-2.24h-.05"/><path fill="#fff" d="m54.95 24.2.14-.78c-.05 0-.14.05-.23.05-.31 0-.36-.19-.31-.28l.27-1.6h.5l.13-.87H55l.09-.55h-.9s-.54 3.02-.54 3.39c0 .55.31.78.72.78.27 0 .5-.1.58-.14Zm.32-1.47c0 1.29.85 1.6 1.57 1.6.68 0 .95-.13.95-.13l.18-.87s-.5.23-.95.23c-.99 0-.8-.73-.8-.73h1.84s.13-.6.13-.83c0-.6-.31-1.33-1.3-1.33-.95-.1-1.62.92-1.62 2.06Zm1.57-1.33c.5 0 .4.6.4.65h-.98c0-.05.09-.65.58-.65Zm5.71 2.8.18-1s-.45.22-.76.22c-.63 0-.9-.5-.9-1.05 0-1.1.54-1.7 1.17-1.7.45 0 .8.28.8.28l.14-.97s-.54-.23-1.03-.23c-1.03 0-2.07.92-2.07 2.66 0 1.15.54 1.93 1.62 1.93.36 0 .85-.14.85-.14Zm-12.54-3.62c-.63 0-1.08.18-1.08.18l-.14.78s.4-.18 1-.18c.3 0 .58.04.58.32 0 .18-.05.23-.05.23h-.4c-.77 0-1.62.32-1.62 1.37 0 .83.54 1.01.85 1.01.63 0 .9-.41.95-.41l-.05.37h.81l.36-2.52c0-1.1-.9-1.15-1.21-1.15Zm.18 2.06c0 .14-.1.87-.63.87-.27 0-.36-.23-.36-.36 0-.23.13-.55.8-.55.14.04.19.04.19.04Zm1.88 1.65c.23 0 1.35.05 1.35-1.19 0-1.15-1.08-.92-1.08-1.37 0-.23.18-.33.5-.33.13 0 .63.05.63.05l.13-.82s-.31-.1-.85-.1c-.68 0-1.35.28-1.35 1.2 0 1.05 1.12.96 1.12 1.37 0 .28-.31.32-.54.32-.4 0-.8-.14-.8-.14l-.14.83c.05.09.27.18 1.03.18Zm17.95-4.44-.18 1.23s-.36-.45-.85-.45c-.81 0-1.53 1-1.53 2.2 0 .73.36 1.5 1.12 1.5.54 0 .86-.36.86-.36l-.05.32h.9l.68-4.4-.95-.04Zm-.4 2.43c0 .5-.23 1.14-.72 1.14-.32 0-.5-.27-.5-.73 0-.74.32-1.2.72-1.2.32 0 .5.24.5.79ZM45.1 24.25l.54-3.3.1 3.3h.62l1.17-3.3-.5 3.3h.95l.72-4.4h-1.48l-.9 2.7-.05-2.7h-1.3l-.72 4.4h.85Zm13.95 0c.27-1.52.31-2.75.94-2.52.1-.6.23-.83.32-1.06h-.18c-.4 0-.72.55-.72.55l.09-.5h-.86l-.58 3.57h.99v-.04Zm5.57-3.67c-.63 0-1.08.18-1.08.18l-.13.78s.4-.18.99-.18c.31 0 .58.04.58.32 0 .18-.04.23-.04.23h-.4c-.77 0-1.63.32-1.63 1.37 0 .83.54 1.01.86 1.01.63 0 .9-.41.94-.41l-.04.37h.8l.37-2.52c.04-1.1-.9-1.15-1.22-1.15Zm.23 2.06c0 .14-.1.87-.63.87-.27 0-.36-.23-.36-.36 0-.23.13-.55.8-.55.14.04.14.04.19.04Zm1.75 1.6c.27-1.5.32-2.74.95-2.51.09-.6.22-.83.31-1.06h-.18c-.4 0-.72.55-.72.55l.1-.5h-.86l-.59 3.57h1v-.04Z"/><path fill="#DCE5E5" d="M53.56 23.56c0 .55.31.78.72.78.31 0 .58-.1.67-.14l.14-.78c-.05 0-.14.05-.23.05-.31 0-.36-.19-.31-.28l.27-1.6h.5l.13-.87H55l.09-.55m.63 2.56c0 1.29.4 1.6 1.12 1.6.68 0 .95-.13.95-.13l.18-.87s-.5.23-.95.23c-.99 0-.8-.73-.8-.73h1.84s.13-.6.13-.83c0-.6-.31-1.33-1.3-1.33-.95-.1-1.17.92-1.17 2.06Zm1.12-1.33c.5 0 .59.6.59.65h-1.17c0-.05.09-.65.58-.65Zm5.71 2.8.18-1s-.45.22-.76.22c-.63 0-.9-.5-.9-1.05 0-1.1.54-1.7 1.17-1.7.45 0 .8.28.8.28l.14-.97s-.54-.23-1.03-.23c-1.03 0-1.62.92-1.62 2.66 0 1.15.09 1.93 1.17 1.93.36 0 .85-.14.85-.14ZM48.8 21.59s.4-.19 1-.19c.3 0 .58.05.58.33 0 .18-.05.22-.05.22h-.4c-.77 0-1.62.33-1.62 1.38 0 .82.54 1 .85 1 .63 0 .9-.4.95-.4l-.05.36h.81l.36-2.52c0-1.05-.9-1.1-1.26-1.1m.68 1.97c0 .14-.54.87-1.08.87-.27 0-.36-.23-.36-.36 0-.23.13-.55.8-.55.14.04.64.04.64.04Zm.45 1.56s.27.1 1.03.1c.22 0 1.35.04 1.35-1.2 0-1.15-1.08-.92-1.08-1.37 0-.23.18-.33.5-.33.13 0 .62.05.62.05l.14-.82s-.32-.1-.86-.1c-.67 0-.9.28-.9 1.2 0 1.05.68.96.68 1.37 0 .28-.32.32-.54.32m17.81-2.34s-.36-.45-.85-.45c-.81 0-1.08 1-1.08 2.2 0 .73-.1 1.5.67 1.5.54 0 .86-.36.86-.36l-.05.32h.9l.68-4.4m-1.17 2.39c0 .5-.4 1.14-.9 1.14-.32 0-.5-.27-.5-.73 0-.74.32-1.2.72-1.2.32 0 .68.24.68.79Zm-24.7 1.97.54-3.3.1 3.3h.62l1.17-3.3-.5 3.3h.95l.72-4.4h-1.12l-1.26 2.7-.05-2.7h-.5l-1.52 4.4h.85Zm13 0h.95c.27-1.52.31-2.75.94-2.52.1-.6.23-.83.32-1.06h-.18c-.4 0-.72.55-.72.55l.09-.5m3.9.87s.41-.19 1-.19c.31 0 .58.05.58.33 0 .18-.04.22-.04.22h-.4c-.77 0-1.63.33-1.63 1.38 0 .82.54 1 .86 1 .63 0 .9-.4.94-.4l-.04.36h.8l.37-2.52c0-1.05-.9-1.1-1.26-1.1m.67 1.97c0 .14-.54.87-1.08.87-.27 0-.36-.23-.36-.36 0-.23.14-.55.81-.55.18.04.63.04.63.04Zm.4 1.6h.95c.27-1.5.32-2.74.95-2.51.09-.6.22-.83.31-1.06h-.18c-.4 0-.72.55-.72.55l.1-.5"/><path fill="#872165" d="M106.78 28.97h3.66V17.85h-3.66v11.12Zm-2.07-11.28c-3.38.12-5.1 1.76-5.1 5.02v6.26h3.7v-5.1c0-1.96.24-2.8 2.38-2.88v-3.26c-.24-.04-.5-.06-.76-.06l-.22.02ZM77 18.61c0 1.28.52 4.3 5.23 4.66.4.02 1.46.1 1.46 1.18 0 .88-.87 1.42-2.33 1.42-1.4-.04-2.79-.34-4.1-.88v3.56c1.59.42 3.23.62 4.88.6 4.03 0 5.84-2.46 5.84-4.9 0-2.76-2.03-4.56-5.42-4.8-.46-.04-1.53-.1-1.53-1.16 0-1.26 1.53-1.26 2.13-1.26a11.35 11.35 0 0 1 4.25 1.04l.04.02v-3.48l-.06-.02a12.2 12.2 0 0 0-4.79-.82c-4.14 0-5.6 2.6-5.6 4.84Zm11.9-4.04v14.4h3.78v-4.46a16.66 16.66 0 0 1 1.64 4.46h4.53c-.44-2.02-2.4-5.72-2.4-5.72a18.77 18.77 0 0 0 2.66-5.4h-4.34a14.3 14.3 0 0 1-2.1 3.88v-7.96l-3.76.8Zm23.1-.1v14.5h3.66v-15.2l-3.66.7Zm5.34 0v14.5H121v-15.2l-3.66.7Zm-8.73-1.6c-1 0-1.8.88-1.8 1.96s.8 1.96 1.8 1.96 1.81-.88 1.81-1.96c-.01-1.08-.8-1.96-1.8-1.96Z"/><mask id="a" width="44" height="18" x="77" y="12" maskUnits="userSpaceOnUse" style="mask-type:luminance"><path fill="#fff" d="M106.78 28.97h3.66V17.85h-3.66v11.12Zm-2.07-11.28c-3.38.12-5.1 1.76-5.1 5.02v6.26h3.7v-5.1c0-1.96.24-2.8 2.38-2.88v-3.26c-.24-.04-.5-.06-.76-.06l-.22.02ZM77 18.61c0 1.28.52 4.3 5.23 4.66.4.02 1.46.1 1.46 1.18 0 .88-.87 1.42-2.33 1.42-1.4-.04-2.79-.34-4.1-.88v3.56c1.59.42 3.23.62 4.88.6 4.03 0 5.84-2.46 5.84-4.9 0-2.76-2.03-4.56-5.42-4.8-.46-.04-1.53-.1-1.53-1.16 0-1.26 1.53-1.26 2.13-1.26a11.35 11.35 0 0 1 4.25 1.04l.04.02v-3.48l-.06-.02a12.2 12.2 0 0 0-4.79-.82c-4.14 0-5.6 2.6-5.6 4.84Zm11.9-4.04v14.4h3.78v-4.46a16.66 16.66 0 0 1 1.64 4.46h4.53c-.44-2.02-2.4-5.72-2.4-5.72a18.77 18.77 0 0 0 2.66-5.4h-4.34a14.3 14.3 0 0 1-2.1 3.88v-7.96l-3.76.8Zm23.1-.1v14.5h3.66v-15.2l-3.66.7Zm5.34 0v14.5H121v-15.2l-3.66.7Zm-8.73-1.6c-1 0-1.8.88-1.8 1.96s.8 1.96 1.8 1.96 1.81-.88 1.81-1.96c-.01-1.08-.8-1.96-1.8-1.96Z"/></mask><g mask="url(#a)"><path fill="#872165" d="M121 12.87H77v16.26h44V12.87Z"/></g><g clip-path="url(#b)"><mask id="c" width="23" height="22" x="125" y="10" maskUnits="userSpaceOnUse" style="mask-type:luminance"><path fill="#fff" d="M148 10h-22v22h22V10Z"/></mask><g mask="url(#c)"><path fill="#FDB913" d="M128.15 10.37h17.7a1.77 1.77 0 0 1 1.78 1.78v17.7a1.77 1.77 0 0 1-1.78 1.78h-17.7a1.77 1.77 0 0 1-1.78-1.78v-17.7a1.77 1.77 0 0 1 1.78-1.78Z"/><path fill="#fff" d="M145.85 10.37a1.77 1.77 0 0 1 1.78 1.78v17.7a1.77 1.77 0 0 1-1.78 1.78h-17.7a1.77 1.77 0 0 1-1.78-1.78v-17.7a1.77 1.77 0 0 1 1.78-1.78h17.7Zm0-.37h-17.7a2.15 2.15 0 0 0-2.15 2.15v17.7a2.15 2.15 0 0 0 2.15 2.15h17.7a2.15 2.15 0 0 0 2.15-2.15v-17.7a2.15 2.15 0 0 0-2.15-2.15Z"/><path fill="#231F20" d="M138.24 21.23v-3.8l1-.24v.5s.25-.66.85-.81a.57.57 0 0 1 .27-.02v.97c-.18 0-.35.04-.52.11-.37.15-.55.46-.55.94v2.1l-1.05.25ZM133 22.47s-.16-.25-.16-1.1v-1.9l-.5.13v-.78l.5-.13v-.85l1.06-.25v.85l.75-.17v.78l-.75.17v1.93c0 .88.23 1.05.23 1.05l-1.13.27ZM134.76 20.2c0-.67.1-1.17.3-1.55.25-.44.65-.74 1.24-.87 1.16-.26 1.57.42 1.56 1.34v.49l-2.05.48v.03c0 .64.14.95.54.86.36-.07.45-.3.48-.56v-.16l.96-.23v.17c0 .36-.11 1.27-1.44 1.58-1.26.3-1.6-.47-1.6-1.58Zm1.58-1.71c-.34.07-.52.4-.52.96l1.02-.25v-.16c0-.42-.13-.64-.5-.55ZM143.94 17.98c-.04-1.16.26-2.08 1.55-2.37.82-.19 1.14.02 1.3.23.15.2.2.47.2.84v.07l-1 .24v-.14c0-.45-.13-.61-.45-.53-.38.1-.54.46-.54 1.18v.33c0 .74.1 1.07.55.98.38-.08.43-.41.44-.7v-.2l1.01-.24v.16c0 .96-.5 1.57-1.46 1.79-1.3.3-1.56-.45-1.6-1.64ZM140.44 19.6c0-.88.52-1.16 1.3-1.48.7-.29.7-.43.71-.69 0-.2-.1-.39-.44-.3a.52.52 0 0 0-.42.5l-.01.2-.98.23c0-.2.02-.4.07-.58.16-.53.62-.88 1.42-1.07 1.04-.24 1.4.22 1.4.93v1.68c0 .82.14.94.14.94l-.96.23c-.05-.12-.1-.23-.13-.35 0 0-.2.53-.93.7-.77.18-1.17-.3-1.17-.94Zm2-1.2c-.16.11-.33.21-.5.3-.33.15-.47.35-.47.64 0 .26.16.43.45.36.3-.08.52-.37.52-.77v-.53ZM127.48 25.13a.61.61 0 0 1-.5-.94l.01-.01 1.44-.34v1.1h-.03a47.5 47.5 0 0 1-.92.2ZM127.48 26.53a.61.61 0 0 1-.6-.61.6.6 0 0 1 .1-.33v-.01h.01l1.44-.34v1.09h-.03a40.45 40.45 0 0 1-.92.2ZM127.48 27.93a.6.6 0 0 1-.5-.94v-.01l1.45-.35v1.1h-.03a52.94 52.94 0 0 1-.92.2ZM127.31 23.8v-6.1l1.12-.27v6.1l-1.12.27ZM130.09 23.28a.69.69 0 0 0-1.38 0v5.7a1.86 1.86 0 0 0 1.86 1.86h1.94V25.8a.9.9 0 0 0-.4-.75l-1.73-1.18v2.67c0 .04-.01.08-.04.1a.15.15 0 0 1-.2 0 .15.15 0 0 1-.05-.1v-3.27ZM131.01 19.02a1.5 1.5 0 0 0-.99.77v-.43l-1 .24v2.73a1.03 1.03 0 0 1 1.06.19v-1.77c0-.42.2-.76.5-.83.23-.05.42.03.42.44v2.58l1.06-.25v-2.73c0-.66-.25-1.12-1.05-.94ZM146.35 15.12a.65.65 0 1 1 0-1.3.65.65 0 0 1 0 1.3Zm0-1.23a.57.57 0 0 0-.56.68.57.57 0 0 0 .78.42.57.57 0 0 0 .18-.93.57.57 0 0 0-.4-.17Z"/><path fill="#231F20" d="M146.1 14.07h.29a.18.18 0 0 1 .15.06.18.18 0 0 1 .05.15c0 .1-.04.18-.13.2.08 0 .12.05.12.16v.16l.02.04.03.03h-.15a.14.14 0 0 1-.02-.07v-.15c0-.09-.03-.12-.12-.12h-.1v.34h-.13v-.8Zm.24.36h.05a.12.12 0 0 0 .07-.08v-.05c0-.08-.03-.13-.12-.13h-.1v.26h.1Z"/></g></g><path fill="#fff" d="m167.83 15.46-5.87-2.94-5.86 2.94v1.72h11.73v-1.72ZM159.11 18.3c.18 0 .32-.16.32-.35 0-.2-.14-.36-.32-.36h-1.86c-.17 0-.31.16-.31.36 0 .2.14.36.31.36h.1v5.13h-.1c-.17 0-.31.16-.31.36 0 .2.14.36.31.36h1.86c.18 0 .32-.16.32-.36 0-.2-.14-.36-.32-.36h-.1V18.3h.1ZM162.9 18.3c.17 0 .3-.16.3-.35 0-.2-.13-.36-.3-.36h-1.87c-.17 0-.31.16-.31.36 0 .2.14.36.31.36h.1v5.13h-.1c-.17 0-.31.16-.31.36 0 .2.14.36.31.36h1.86c.18 0 .32-.16.32-.36 0-.2-.14-.36-.32-.36h-.1V18.3h.1ZM166.74 18.3c.17 0 .31-.16.31-.35 0-.2-.14-.36-.31-.36h-1.87c-.17 0-.31.16-.31.36 0 .2.14.36.31.36h.1v5.13h-.1c-.17 0-.31.16-.31.36 0 .2.14.36.31.36h1.87c.17 0 .31-.16.31-.36 0-.2-.14-.36-.31-.36h-.11V18.3h.1ZM156.4 25.46h11.13c.16 0 .3-.15.3-.34v-.2c0-.2-.14-.35-.3-.35H156.4c-.17 0-.3.15-.3.34v.2c0 .2.13.35.3.35ZM168.31 25.87h-12.7c-.16 0-.3.15-.3.34v.31c0 .19.14.34.3.34h12.7c.16 0 .3-.15.3-.34v-.3c0-.2-.14-.35-.3-.35ZM173.56 17.66a.89.89 0 0 0-.47-.35c.16-.1.28-.21.35-.36a1.04 1.04 0 0 0-.01-.98.85.85 0 0 0-.37-.36 1.4 1.4 0 0 0-.62-.12h-1.28v3.88h1.3c.21 0 .4-.02.54-.07a.92.92 0 0 0 .62-.55c.07-.16.1-.33.1-.5 0-.23-.05-.43-.16-.6Zm-1.95-1.7h.68c.25 0 .42.01.52.05.1.04.18.1.23.2.05.1.08.2.08.34s-.03.25-.09.34a.47.47 0 0 1-.25.19c-.1.03-.24.04-.43.04h-.74v-1.17Zm1.58 2.61c-.04.1-.1.17-.17.22a.63.63 0 0 1-.26.1 2 2 0 0 1-.3.02h-.85v-1.33h.79c.21 0 .38.02.5.06.1.05.2.12.26.23.07.1.1.23.1.38 0 .12-.02.23-.07.32ZM176.3 19.02c-.01-.11-.02-.4-.02-.83v-.64c0-.21 0-.35-.02-.44a.76.76 0 0 0-.13-.32.64.64 0 0 0-.29-.21c-.13-.06-.3-.09-.51-.09-.21 0-.4.03-.56.1a.81.81 0 0 0-.37.28c-.08.13-.15.29-.18.49l.4.06c.05-.2.12-.34.21-.42.1-.07.24-.11.44-.11s.37.05.47.16c.08.08.12.21.12.4v.13c-.16.07-.41.12-.75.17-.16.02-.29.05-.37.07-.1.04-.2.09-.3.16a.74.74 0 0 0-.21.27.87.87 0 0 0-.08.38c0 .23.07.42.22.58.14.15.35.22.62.22.16 0 .31-.03.46-.1.14-.05.3-.16.45-.3 0 .12.04.24.07.33h.44a1.2 1.2 0 0 1-.1-.34Zm-.44-.89c0 .21-.02.37-.07.48a.7.7 0 0 1-.27.33.8.8 0 0 1-.43.12c-.16 0-.29-.04-.37-.13a.44.44 0 0 1-.13-.32c0-.08.02-.15.06-.22.04-.07.1-.12.17-.16.07-.03.19-.07.36-.1.3-.04.53-.1.68-.17v.17ZM178.46 17.23c.03.1.05.24.05.43v1.7h.42v-1.72c0-.21-.01-.37-.03-.46a.96.96 0 0 0-.13-.35.68.68 0 0 0-.28-.24.9.9 0 0 0-.4-.1c-.34 0-.6.16-.79.47v-.4h-.37v2.8h.42v-1.52c0-.36.06-.6.2-.74.12-.12.27-.19.45-.19.11 0 .2.03.3.09.07.06.13.13.16.23ZM181.6 19.37l-1.03-1.77.94-1.04h-.54l-.99 1.14v-2.2h-.41v3.87h.41v-1.12l.3-.32.81 1.44h.51ZM170.93 22.12h1.12v3.41h.44v-3.41h1.13v-.46h-2.7v.46ZM174.48 22.76c-.08.07-.16.2-.26.4v-.43h-.38v2.8h.42v-1.46c0-.2.02-.4.07-.56.03-.1.08-.2.15-.26.08-.06.16-.1.25-.1.1 0 .2.04.3.11l.15-.44a.74.74 0 0 0-.43-.15c-.1 0-.19.03-.27.1ZM177.44 25.2c-.02-.12-.03-.4-.03-.85v-.63c0-.21 0-.36-.02-.44a.76.76 0 0 0-.13-.32.64.64 0 0 0-.29-.22c-.13-.05-.3-.08-.5-.08-.22 0-.4.03-.56.1a.81.81 0 0 0-.37.28c-.09.13-.15.29-.19.49l.41.06c.05-.2.12-.34.2-.42.1-.08.25-.11.44-.11.21 0 .37.05.48.16.08.08.12.21.12.4v.13c-.17.07-.42.12-.75.17-.17.02-.29.04-.37.07-.11.04-.21.09-.3.15a.74.74 0 0 0-.22.28.87.87 0 0 0-.08.38c0 .23.08.42.22.57.15.15.35.23.63.23.16 0 .31-.03.45-.1.15-.05.3-.16.45-.31.02.13.04.25.08.34h.43a1.2 1.2 0 0 1-.1-.34Zm-.44-.9c0 .2-.02.37-.07.47a.7.7 0 0 1-.27.33.8.8 0 0 1-.43.12c-.16 0-.29-.04-.37-.12a.43.43 0 0 1-.13-.32c0-.08.02-.16.06-.23.04-.07.1-.12.16-.15.08-.04.2-.07.37-.1.3-.05.53-.1.68-.18v.18ZM179.91 23a.68.68 0 0 0-.28-.24.9.9 0 0 0-.4-.1c-.35 0-.6.16-.79.47v-.4h-.37v2.8h.42v-1.52c0-.36.06-.6.19-.73s.28-.2.46-.2c.1 0 .2.03.29.09.08.06.14.13.17.23s.05.24.05.43v1.7h.41v-1.72c0-.22 0-.37-.02-.46a.96.96 0 0 0-.13-.35ZM182.2 24.05a5.1 5.1 0 0 0-.62-.22l-.37-.12a.37.37 0 0 1-.16-.12.3.3 0 0 1-.05-.17c0-.1.05-.18.13-.25.08-.08.22-.11.4-.11.17 0 .3.03.38.12.1.08.15.2.16.34l.41-.07a1.1 1.1 0 0 0-.14-.43.74.74 0 0 0-.33-.26 1.23 1.23 0 0 0-.86-.04.9.9 0 0 0-.27.14.78.78 0 0 0-.28.61c0 .14.03.27.1.38.06.11.15.2.26.27.12.06.33.14.64.23.23.06.37.12.42.16a.3.3 0 0 1 .13.25c0 .12-.05.22-.14.31-.1.1-.23.14-.43.14a.62.62 0 0 1-.44-.15.71.71 0 0 1-.2-.44l-.4.08c.04.3.15.52.31.67.17.15.41.23.73.23.2 0 .37-.04.52-.12a.8.8 0 0 0 .35-.32.9.9 0 0 0 .12-.45c0-.16-.03-.3-.1-.4a.64.64 0 0 0-.27-.26ZM183.67 22.12c.05-.06.14-.1.27-.1l.25.03.06-.41a1.88 1.88 0 0 0-.4-.05.7.7 0 0 0-.42.12.6.6 0 0 0-.21.3c-.03.1-.05.23-.05.42v.3h-.37v.37h.37v2.43h.42V23.1h.48v-.38h-.48v-.26c0-.16.03-.28.08-.34ZM186.51 24.12c0-.46-.1-.82-.31-1.07a.98.98 0 0 0-.8-.39c-.34 0-.62.13-.83.4-.22.25-.32.62-.32 1.1 0 .45.1.8.31 1.06.21.25.5.38.86.38.29 0 .52-.08.7-.24.19-.16.31-.38.38-.67l-.43-.06a.88.88 0 0 1-.26.44c-.11.1-.24.14-.4.14a.64.64 0 0 1-.5-.25c-.14-.16-.22-.4-.24-.7h1.84v-.14Zm-1.8-.26a.95.95 0 0 1 .21-.58c.13-.15.3-.22.48-.22.21 0 .39.09.52.27.08.12.14.3.16.53h-1.38ZM187.66 22.76c-.08.07-.17.2-.26.4v-.43h-.38v2.8h.41v-1.46c0-.2.03-.4.07-.56.04-.1.09-.2.16-.26s.16-.1.25-.1c.1 0 .2.04.3.11l.15-.44a.74.74 0 0 0-.43-.15c-.1 0-.19.03-.27.1Z"/><mask id="d" width="83" height="15" x="0" y="45" maskUnits="userSpaceOnUse" style="mask-type:luminance"><path fill="#fff" d="M83 45H0v14.6h83V45Z"/></mask><g fill="#fff" mask="url(#d)"><path d="M32.74 45h1.58l3.16 7.4 3.07-7.4h1.59v11.35h-1.67v-7.08h-.05L38 55.2h-1.05l-2.52-5.93h-.03v7.08h-1.66V45ZM46.07 48.25h-1.56v8.07h1.56v-8.07ZM48.39 45h6.22v1.61h-4.55v3.36h4.55v1.51h-4.55v4.87h-1.67V45ZM57.82 48.25h-1.57v8.07h1.57v-8.07ZM59.98 48.25h1.56v.86h.03c.52-.65 1.2-.96 2.03-.96.65 0 1.25.23 1.77.7s.8 1.17.83 2.11v5.36h-1.56v-4.79c0-.57-.16-.99-.44-1.3a1.42 1.42 0 0 0-1.12-.44c-.45 0-.84.16-1.12.44-.29.29-.45.73-.45 1.3v4.82h-1.56l.03-8.1ZM69.85 48.25h-1.56v8.07h1.56v-8.07ZM72.2 45.03h1.55v3.22h1.15v1.25h-1.15v4.71c0 .42.19.6.55.6h.6v1.54h-.8c-.55 0-1.02-.18-1.36-.52-.37-.34-.55-.83-.55-1.46V49.5h-.78v-1.25h.78v-3.22ZM75.94 48.25h1.67l1.85 5.65h.02l1.85-5.65H83l-3.36 9.77c-.2.6-.52 1.01-.89 1.24-.39.24-.83.34-1.3.34h-.52v-1.53h.47a.95.95 0 0 0 .94-.7l.41-1.36-2.8-7.76ZM45.29 46.93a.96.96 0 1 0 0-1.93.96.96 0 0 0 0 1.93ZM57.04 46.93a.96.96 0 1 0 0-1.93.96.96 0 0 0 0 1.93ZM69.07 46.93a.96.96 0 1 0 0-1.93.96.96 0 0 0 0 1.93ZM11.93 49.2a.47.47 0 1 0 0-.95.47.47 0 0 0 0 .94ZM10.76 48.25a.52.52 0 1 0 0-1.04.52.52 0 0 0 0 1.04ZM9.4 47.4a.55.55 0 1 0 0-1.1.55.55 0 0 0 0 1.1ZM7.81 46.8a.55.55 0 1 0 0-1.1.55.55 0 0 0 0 1.1ZM6.07 46.72a.65.65 0 1 0 0-1.3.65.65 0 0 0 0 1.3ZM4.17 47.19a.73.73 0 1 0 0-1.46.73.73 0 0 0 0 1.46ZM2.34 48.54a.8.8 0 1 0 0-1.61.8.8 0 0 0 0 1.61ZM1.04 50.41a.86.86 0 1 0 0-1.71.86.86 0 0 0 0 1.71ZM.94 53.1a.94.94 0 1 0 0-1.88.94.94 0 0 0 0 1.88ZM2.42 55.52a1.07 1.07 0 1 0 0-2.14 1.07 1.07 0 0 0 0 2.14ZM13.8 51.87a.94.94 0 1 0 0-1.87.94.94 0 0 0 0 1.87ZM15.83 49.84a.99.99 0 1 0 0-1.98.99.99 0 0 0 0 1.98ZM11.46 53.98a1.04 1.04 0 1 0 0-2.08 1.04 1.04 0 0 0 0 2.08ZM8.8 55.83a1.25 1.25 0 1 0 0-2.5 1.25 1.25 0 0 0 0 2.5ZM5.5 56.8a1.43 1.43 0 1 0 0-2.87 1.43 1.43 0 0 0 0 2.86ZM18.57 48.36a1.2 1.2 0 1 0 0-2.4 1.2 1.2 0 0 0 0 2.4ZM21.88 47.6a1.3 1.3 0 1 0 0-2.6 1.3 1.3 0 0 0 0 2.6ZM24.82 48.3a1.07 1.07 0 1 0 0-2.13 1.07 1.07 0 0 0 0 2.14ZM26.3 50.65a.94.94 0 1 0 0-1.88.94.94 0 0 0 0 1.88ZM26.25 53.1a.8.8 0 1 0 0-1.62.8.8 0 0 0 0 1.62ZM24.9 54.84a.73.73 0 1 0 0-1.46.73.73 0 0 0 0 1.46ZM23.18 56.01a.73.73 0 1 0 0-1.46.73.73 0 0 0 0 1.46ZM21.25 56.32a.65.65 0 1 0 0-1.3.65.65 0 0 0 0 1.3ZM19.43 56.09a.55.55 0 1 0 0-1.1.55.55 0 0 0 0 1.1ZM17.92 55.41a.52.52 0 1 0 0-1.04.52.52 0 0 0 0 1.04ZM16.54 54.58a.47.47 0 1 0 0-.94.47.47 0 0 0 0 .94Z"/></g><g clip-path="url(#e)"><path fill="#0A0B09" d="M125.97 45H92.03A4 4 0 0 0 88 48.98v15.04A4 4 0 0 0 92.03 68h33.94a4 4 0 0 0 4.03-3.98V48.98a4 4 0 0 0-4.03-3.98Z"/><path fill="#fff" d="M126.07 58.47a1 1 0 1 0 0 1.98 1 1 0 0 0 1-.99 1 1 0 0 0-1-.99Zm-3.27-.76c0-.75-.64-1.36-1.44-1.36-.79 0-1.43.61-1.43 1.36 0 .75.64 1.35 1.43 1.35.8 0 1.44-.6 1.44-1.35Zm0-2.63h1.6v5.26h-1.6v-.33a2.8 2.8 0 0 1-4.36-2.3 2.79 2.79 0 0 1 4.37-2.3v-.33Zm-12.68.68v-.68h-1.62v5.26h1.62v-2.46c0-.83.9-1.27 1.53-1.27h.02v-1.53c-.64 0-1.23.27-1.55.68Zm-4.04 1.95c0-.75-.65-1.36-1.44-1.36-.8 0-1.44.61-1.44 1.36 0 .75.65 1.35 1.44 1.35.8 0 1.44-.6 1.44-1.35Zm0-2.63h1.59v5.26h-1.59v-.33a2.79 2.79 0 0 1-4.36-2.3 2.79 2.79 0 0 1 4.36-2.3v-.33Zm9.54-.15c-.63 0-1.23.2-1.63.74v-.6h-1.58v5.27h1.6v-2.76c0-.8.54-1.2 1.19-1.2.7 0 1.1.42 1.1 1.18v2.78h1.58V57c0-1.22-.98-2.06-2.26-2.06Zm-16.21 5.41h1.66v-7.61H99.4v7.61Zm-7.29 0h1.76v-7.61h-1.76v7.61Zm6.14-7.61c0 1.65-.64 3.18-1.8 4.32l2.44 3.3h-2.17l-2.64-3.58.68-.51a4.37 4.37 0 0 0 1.78-3.53h1.71Z"/></g><mask id="f" width="43" height="12" x="137" y="50" maskUnits="userSpaceOnUse" style="mask-type:luminance"><path fill="#fff" d="M179.46 50.78h-42.38v10.38h42.38V50.78Z"/></mask><g mask="url(#f)"><path fill="#fff" d="M142.7 54.78v-.11c0-1.3-.6-1.93-1.52-1.93-.93 0-1.53.67-1.53 1.92v.11c0 1.27.57 1.9 1.53 1.9.96 0 1.52-.66 1.52-1.89Zm-.58-3.96c1.8 0 3.26 1.3 3.26 3.85v.11c0 2.56-1.46 3.84-3.27 3.84-1.17 0-2-.52-2.39-1.26v3.58h-2.64v-9.92h2.64v1.1a2.74 2.74 0 0 1 2.4-1.3ZM151.68 54.73v-.11c0-1.3-.56-1.92-1.44-1.92-.93 0-1.48.64-1.48 1.93v.11c0 1.25.56 1.9 1.43 1.9.87 0 1.5-.64 1.5-1.91Zm-5.6.04v-.11c0-2.53 1.5-3.88 3.23-3.88 1.16 0 1.86.48 2.3 1.23v-1.03h2.64v7.43h-2.64v-1.2c-.4.76-1.21 1.37-2.32 1.37-1.7 0-3.21-1.23-3.21-3.8M159.53 54.98l1.47-3.96h2.53l-4.13 9.92h-2.53l1.29-3.24-3.09-6.68h2.87l1.59 3.96ZM163.66 58.45V56.7l3.51-3.75h-3.08l-.02-1.92h6.18v1.87l-3.36 3.63h3.61v1.93h-6.84Z"/><path fill="#D0FA02" d="M171.75 57.45a3.76 3.76 0 0 1 3.82-3.72 3.8 3.8 0 0 1 3.9 3.72 3.75 3.75 0 0 1-3.9 3.71 3.69 3.69 0 0 1-3.82-3.7Z"/></g><path fill="#83BA3B" d="M45.04 78.17c-.58-.58-1.45-.87-2.6-.87h-3l-1.11 8.85H34.4l.25-2h2.37l.28-2.26h-2.37l.26-2h2.43l.33-2.6H33l-1.06 8.4h-1.82l1.07-8.4H28.6l-1.06 8.4h-1.77l1.07-8.4h-2.59l-1.11 8.86h-3.96l.25-2h2.37l.29-2.25H19.7l.25-2h2.47l.32-2.6H7.32l-.88 7.01L4.7 77.3H2L.57 88.75h2.56L4 81.54l1.7 7.21h9.2l1.1-8.86h1.45l-1.12 8.86H40.5l.7-5.6 1.14 5.6h2.56l-1.17-4.57.27-.08c.59-.2 1.05-.59 1.37-1.19.32-.6.49-1.38.49-2.3 0-1.1-.27-1.89-.83-2.44Zm-32.38 7.98H8.73l.26-2h2.46l.28-2.27H9.29l.24-1.99h3.92l-.8 6.26h.01Zm30.26-3.86c-.25.27-.63.4-1.14.4h-.5l.38-3.08h.38c.42 0 .73.1.94.3.17.17.37.48.37 1.08 0 .72-.23 1.1-.43 1.3Z"/><path fill="#fff" d="M55.7 79.2c.12-.05.25-.09.37-.11.11-.58.4-1.09.82-1.45.42-.37.94-.57 1.48-.57s1.07.2 1.49.57c.41.37.7.88.81 1.45.32.05.62.2.85.45 0-.2 0-.42-.02-.64a3.48 3.48 0 0 0-1.03-2.24c-.6-.58-1.38-.9-2.18-.87-.8.02-1.56.36-2.14.97a3.5 3.5 0 0 0-.93 2.3v.48c.15-.12.31-.24.49-.33Z"/><path fill="#fff" d="M60.22 79.45h-3.78c-.2 0-.4.05-.56.16-.18.06-.34.18-.46.33-.26.38-.4.84-.37 1.32v3.17c-.02.48.11.95.37 1.34.14.14.29.25.46.34.17.1.37.15.56.15h3.78c.96 0 1.47-.58 1.47-1.74V81.2c0-1.16-.48-1.7-1.47-1.74Zm45.55 1.53v3.73a1.5 1.5 0 0 0 .42 1.07c.16.15.34.26.53.33.2.08.4.1.61.1h2.24v-.68h-2.21a.78.78 0 0 1-.36-.07.85.85 0 0 1-.3-.23c-.16-.2-.25-.47-.25-.74v-3.36c0-.12.01-.25.06-.36a.84.84 0 0 1 .2-.3c.08-.1.18-.17.28-.22.11-.04.23-.07.34-.06h2.21v-.7h-2.2c-.38 0-.75.11-1.06.33-.17.12-.31.3-.4.5-.1.2-.13.44-.11.66Zm10.33-.15a1.64 1.64 0 0 0-.43-1.07.69.69 0 0 0-.4-.28 1.78 1.78 0 0 0-.53-.02h-3.55v.7h3.4c.72 0 .83.42.83.7v.85h-2.81c-.97 0-1.42.61-1.42 1.93v.98c0 .42.15.82.43 1.13.12.15.27.27.44.36.17.08.36.13.55.12h2.13c.17 0 .35-.04.5-.12.17-.08.31-.2.43-.33a1.62 1.62 0 0 0 .43-1.07v-3.88Zm-.68 3.82c0 .14-.05.27-.11.4-.05.1-.1.18-.18.26a.7.7 0 0 1-.25.16c-.16.06-.34.08-.51.06h-1.42c-.25.02-.5-.03-.74-.15a.96.96 0 0 1-.34-.7v-1.29c0-.36.14-.94 1.05-.94h2.53l-.03 2.2Zm4.08-4.46h.32v-.74h-.4a1.4 1.4 0 0 0-1.08.4c-.2.21-.28.61-.28 1.2v5.15h.65v-5.13a.85.85 0 0 1 .2-.64.74.74 0 0 1 .28-.2c.1-.04.2-.05.31-.04Zm6.5-3.24h-.65v2.5h-2.64c-1.02 0-1.5.5-1.5 1.53v3.66a1.6 1.6 0 0 0 .34 1.1 1.31 1.31 0 0 0 1.02.49h2.07c.19 0 .37-.04.54-.12.16-.09.31-.21.43-.37.27-.33.42-.77.4-1.22v-7.57Zm-.65 7.54c0 .14-.01.27-.05.4a.98.98 0 0 1-.2.33.88.88 0 0 1-.3.23.8.8 0 0 1-.36.08h-1.84c-.1 0-.2-.02-.3-.07a.7.7 0 0 1-.24-.2 1 1 0 0 1-.2-.65v-3.45c0-.64.31-.97.88-.97h2.61v4.3Zm-57.47-2.9c0-.27-.11-.4-.34-.4h-1.2a.43.43 0 0 0-.24.09.5.5 0 0 0-.2.4V84c0 .34.17.5.48.5h1.1l.16-.05a.4.4 0 0 0 .13-.11.3.3 0 0 0 .09-.12c.02-.05.03-.1.02-.16V81.6Zm-3.6-.33c0-.5.14-.97.42-1.35.14-.13.29-.25.46-.33.17-.1.37-.15.56-.16h2.22c.96 0 1.47.58 1.47 1.74v3.52c0 .2-.03.4-.11.57-.08.18-.2.34-.34.46-.28.3-.64.47-1.02.5h-2.1v2.53h-1.56v-7.48Zm7.94 2.93c0 .05.01.1.03.14.02.04.05.08.09.1.08.06.18.1.28.1h1.2c.25 0 .39-.13.42-.34v-.5c0-.27-.14-.39-.43-.39h-1.19a.43.43 0 0 0-.31.1c-.07.1-.1.23-.09.36v.43Zm2.02-2.63c0-.24-.14-.36-.43-.36H70.7v-1.72h3.52c1.02.04 1.53.55 1.56 1.6v3.57c0 .41-.13.82-.4 1.13-.13.15-.29.27-.46.35-.18.08-.37.11-.56.1h-2.13c-1.02 0-1.56-.52-1.56-1.52v-1.38c0-1.07.51-1.58 1.5-1.62h2.08v-.15Zm5.87 5.5c.12 0 .23-.06.32-.15a.4.4 0 0 0 .11-.27v-.4h-1.99c-.21 0-.42-.03-.62-.1-.19-.08-.35-.2-.49-.36a2.35 2.35 0 0 1-.34-.59 2.17 2.17 0 0 1-.1-.67v-5.07h1.55v4.52c0 .37.14.55.43.55h1.1c.07 0 .13-.01.19-.04a.48.48 0 0 0 .16-.1.43.43 0 0 0 .14-.28v-4.65h1.53v7.46c.02.48-.12.95-.4 1.34a1.2 1.2 0 0 1-1.05.52h-3.63v-1.71h3.1Zm3.18-2.54h2.75c.26 0 .4-.12.4-.33v-.16c0-.05 0-.1-.03-.15a.3.3 0 0 0-.09-.12.26.26 0 0 0-.13-.06h-1.37c-.39 0-.76-.16-1.05-.46a1.4 1.4 0 0 1-.45-.98v-1.28c.03-1 .51-1.5 1.5-1.53h3.21v1.71h-2.72c-.32 0-.49.1-.49.3v.16c0 .22.18.34.49.34h1.36a1.22 1.22 0 0 1 .94.46c.25.27.39.65.4 1.03v1.26c-.04.39-.2.76-.46 1.04-.12.14-.27.27-.43.36-.2.07-.41.1-.62.1h-3.2v-1.69Zm7.4-.33c0 .05.02.1.04.14.02.04.05.08.08.1.09.06.19.1.29.1h1.19c.25 0 .4-.13.42-.34v-.5c0-.27-.14-.39-.42-.39h-1.2a.43.43 0 0 0-.3.1c-.08.1-.1.23-.1.36v.43Zm2.02-2.63c0-.24-.14-.36-.42-.36h-3.12v-1.72h3.52c1.02.04 1.53.55 1.56 1.6v3.57c0 .41-.14.82-.4 1.13-.13.15-.29.27-.47.35a1.2 1.2 0 0 1-.55.1H90.7c-1.02 0-1.56-.52-1.56-1.52v-1.38c0-1.07.51-1.58 1.5-1.62h2.07v-.15Zm2.79-3.05c0-.21.03-.42.12-.62.08-.19.2-.35.36-.48.34-.3.76-.44 1.19-.43h1v1.65h-.6a.42.42 0 0 0-.2.02.45.45 0 0 0-.16.1.48.48 0 0 0-.12.16.52.52 0 0 0-.03.2v.37h1.1v1.71h-1.1v5.07H95.5v-7.75Zm7.03 3.02v-.03c0-.04 0-.09-.02-.13a.21.21 0 0 0-.09-.08.44.44 0 0 0-.25-.1h-1.08a.42.42 0 0 0-.34.13.37.37 0 0 0-.13.13.4.4 0 0 0-.05.17v.7l1.96-.79Zm-1.9 2.41v.1a.43.43 0 0 0 .12.33c.05.1.1.15.2.15h3.17v1.71h-3.37c-.24.01-.48-.02-.71-.09a1.46 1.46 0 0 1-.85-.89c-.07-.25-.1-.52-.09-.79v-3.42c.03-1.04.51-1.56 1.5-1.59h2.1c.97.03 1.45.55 1.48 1.65v1.35l-3.55 1.5Z"/><mask id="g" width="18" height="20" x="134" y="74" maskUnits="userSpaceOnUse" style="mask-type:luminance"><path fill="#fff" d="M151.95 74.1H134.3v19.02h17.64V74.1Z"/></mask><g mask="url(#g)"><path fill="#F7931A" d="M151.69 85.91c-1.18 5.1-5.97 8.2-10.7 6.93-4.72-1.27-7.6-6.43-6.41-11.53 1.17-5.1 5.96-8.2 10.68-6.93 4.73 1.27 7.6 6.43 6.43 11.53Z"/><path fill="#fff" d="M147.02 82.25c.17-1.26-.72-1.94-1.94-2.4l.4-1.71-.97-.26-.39 1.67-.77-.2.39-1.68-.97-.26-.4 1.71-.62-.15-1.33-.37-.26 1.12s.72.18.7.19c.4.1.47.38.46.6l-.45 1.96a.7.7 0 0 1 .1.03l-.1-.02-.64 2.73c-.05.13-.17.32-.44.25 0 .02-.7-.19-.7-.19l-.49 1.2 1.26.34.7.19-.4 1.73.96.26.4-1.71.77.21-.4 1.71.97.26.4-1.73c1.65.34 2.9.2 3.41-1.41.42-1.3-.02-2.04-.89-2.53.64-.16 1.11-.6 1.24-1.54Zm-2.21 3.35c-.3 1.3-2.32.6-2.98.42l.53-2.3c.66.18 2.76.53 2.45 1.88Zm.3-3.36c-.28 1.17-1.96.58-2.5.43l.48-2.09c.54.15 2.3.43 2.02 1.66Z"/></g><mask id="h" width="19" height="20" x="160" y="73" maskUnits="userSpaceOnUse" style="mask-type:luminance"><path fill="#fff" d="M178.69 73.64H160.3v18.64h18.38V73.64Z"/></mask><g mask="url(#h)"><path fill="#fff" d="M169.5 91.27c4.53 0 8.2-3.72 8.2-8.31a8.25 8.25 0 0 0-8.2-8.31 8.25 8.25 0 0 0-8.2 8.3 8.25 8.25 0 0 0 8.2 8.32Z"/><path fill="#345D9D" d="M169.5 73.64a9.1 9.1 0 0 0-5.1 1.57 9.44 9.44 0 0 0-1.4 14.34 9.15 9.15 0 0 0 10.02 2.02 9.21 9.21 0 0 0 4.12-3.43 9.41 9.41 0 0 0-4.08-13.78 9.05 9.05 0 0 0-3.5-.72h-.06Zm.16 9.63-.96 3.28h5.12a.25.25 0 0 1 .18.07.26.26 0 0 1 .08.18v.08l-.44 1.56a.33.33 0 0 1-.33.25h-7.84l1.32-4.54-1.47.46.33-1.04 1.47-.45 1.85-6.37a.34.34 0 0 1 .33-.25h1.98a.25.25 0 0 1 .19.08.26.26 0 0 1 .08.18v.08l-1.56 5.37 1.47-.45-.31 1.09-1.5.42Z"/></g><defs><clipPath id="b"><path fill="#fff" d="M126 10h22v22h-22z"/></clipPath><clipPath id="e"><path fill="#fff" d="M88 45h42v23H88z"/></clipPath></defs></svg>