<svg width="192" height="110" viewBox="0 0 192 110" fill="none" xmlns="http://www.w3.org/2000/svg">
<path d="M24.7261 12.8608C22.0718 12.8608 19.6887 14.2832 19.6887 16.8934C19.6887 19.8996 23.8984 20.1049 23.8984 21.6006C23.8984 22.2312 23.1849 22.8031 21.9862 22.8031C20.2738 22.8031 18.9895 22.0112 18.9895 22.0112L18.4472 24.6507C18.4472 24.6507 19.917 25.3253 21.8863 25.3253C24.7974 25.3253 27.0807 23.8442 27.0807 21.1753C27.0807 18.0079 22.8567 17.8026 22.8567 16.4095C22.8567 15.9109 23.4418 15.3683 24.6405 15.3683C25.9961 15.3683 27.1092 15.9402 27.1092 15.9402L27.6515 13.3887C27.6372 13.3887 26.4242 12.8608 24.7261 12.8608ZM0.40973 13.0514L0.338379 13.4327C0.338379 13.4327 1.45145 13.638 2.46463 14.0632C3.76322 14.5472 3.84884 14.8258 4.07716 15.691L6.46028 25.12H9.65679L14.5515 13.0514H11.3692L8.21551 21.2633L6.93119 14.2979C6.81703 13.506 6.21768 13.0514 5.47564 13.0514H0.40973ZM15.8358 13.0514L13.3385 25.12H16.378L18.861 13.0514H15.8358ZM32.7602 13.0514C32.0324 13.0514 31.6471 13.4473 31.3617 14.1512L26.9094 25.12H30.0917L30.7053 23.287H34.5868L34.9578 25.12H37.769L35.3288 13.0514H32.7602ZM33.174 16.3215L34.1158 20.8527H31.59L33.174 16.3215Z" fill="#1434CB"/>
<path d="M71.775 22.0001C71.775 26.7667 67.9969 30.6626 63.2743 30.6626C58.5966 30.6626 54.7734 26.7667 54.7734 22.0001C54.7734 17.2334 58.5516 13.3376 63.2293 13.3376C67.9969 13.3376 71.775 17.2334 71.775 22.0001Z" fill="#FFB600"/>
<path d="M63.2743 13.3376C67.952 13.3376 71.775 17.2334 71.775 22.0001C71.775 26.7667 67.9969 30.6626 63.2743 30.6626C58.5966 30.6626 54.7734 26.7667 54.7734 22.0001" fill="#F7981D"/>
<path d="M63.2744 13.3376C67.9521 13.3376 71.7752 17.2334 71.7752 22.0001C71.7752 26.7667 67.997 30.6626 63.2744 30.6626" fill="#FF8500"/>
<path d="M51.8498 13.3376C47.2171 13.3834 43.439 17.2334 43.439 22.0001C43.439 26.7667 47.2171 30.6626 51.9398 30.6626C54.1436 30.6626 56.1227 29.7917 57.6519 28.4167C57.9668 28.1417 58.2366 27.8209 58.5065 27.5001H56.7524C56.5275 27.2251 56.3026 26.9042 56.1227 26.6292H59.1362C59.3161 26.3542 59.496 26.0334 59.631 25.7125H55.6279C55.493 25.4375 55.3581 25.1167 55.2681 24.7959H59.9458C60.2157 23.9251 60.3956 23.0084 60.3956 22.0459C60.3956 21.4042 60.3056 20.8084 60.2157 20.2125H54.9982C55.0433 19.8917 55.1332 19.6167 55.2232 19.2959H59.9008C59.8108 18.9751 59.6759 18.6542 59.541 18.3792H55.5829C55.7179 18.0584 55.8978 17.7834 56.0777 17.4625H59.0912C58.9113 17.1417 58.6864 16.8209 58.4166 16.5459H56.7524C57.0223 16.2251 57.2921 15.9501 57.607 15.6751C56.1227 14.2542 54.0987 13.4292 51.8947 13.4292C51.8947 13.3376 51.8948 13.3376 51.8498 13.3376Z" fill="#FF5050"/>
<path d="M43.439 22C43.439 26.7667 47.2171 30.6625 51.9398 30.6625C54.1436 30.6625 56.1227 29.7917 57.6519 28.4167C57.9668 28.1417 58.2366 27.8209 58.5065 27.5H56.7524C56.5275 27.225 56.3026 26.9042 56.1227 26.6292H59.1362C59.3161 26.3542 59.496 26.0333 59.631 25.7125H55.6279C55.493 25.4375 55.3581 25.1167 55.2681 24.7959H59.9458C60.2157 23.925 60.3956 23.0083 60.3956 22.0459C60.3956 21.4042 60.3056 20.8083 60.2157 20.2125H54.9982C55.0433 19.8917 55.1332 19.6167 55.2232 19.2959H59.9008C59.8108 18.975 59.6759 18.6542 59.541 18.3792H55.5829C55.7179 18.0583 55.8978 17.7833 56.0777 17.4625H59.0912C58.9113 17.1417 58.6864 16.8209 58.4166 16.5459H56.7524C57.0223 16.225 57.2921 15.95 57.607 15.675C56.1227 14.2542 54.0987 13.4292 51.8947 13.4292H51.8498" fill="#E52836"/>
<path d="M51.9401 30.6625C54.1439 30.6625 56.123 29.7917 57.6522 28.4167C57.9671 28.1417 58.2369 27.8209 58.5068 27.5H56.7526C56.5278 27.225 56.3029 26.9042 56.123 26.6292H59.1365C59.3164 26.3542 59.4963 26.0333 59.6312 25.7125H55.6282C55.4933 25.4375 55.3584 25.1167 55.2684 24.7959H59.9461C60.216 23.925 60.3959 23.0083 60.3959 22.0459C60.3959 21.4042 60.3059 20.8083 60.216 20.2125H54.9985C55.0435 19.8917 55.1334 19.6167 55.2234 19.2959H59.9011C59.8111 18.975 59.6762 18.6542 59.5413 18.3792H55.5832C55.7182 18.0583 55.8981 17.7833 56.078 17.4625H59.0915C58.9116 17.1417 58.6867 16.8209 58.4168 16.5459H56.7526C57.0225 16.225 57.2924 15.95 57.6072 15.675C56.123 14.2542 54.099 13.4292 51.895 13.4292H51.8501" fill="#CB2026"/>
<path d="M54.9533 24.2001L55.0882 23.4209C55.0432 23.4209 54.9533 23.4667 54.8633 23.4667C54.5484 23.4667 54.5035 23.2834 54.5484 23.1917L54.8183 21.5875H55.3131L55.448 20.7167H54.9982L55.0882 20.1667H54.1886C54.1886 20.1667 53.6489 23.1917 53.6489 23.5584C53.6489 24.1084 53.9638 24.3375 54.3685 24.3375C54.6384 24.3375 54.8633 24.2459 54.9533 24.2001ZM55.2681 22.7334C55.2681 24.0167 56.1227 24.3375 56.8423 24.3375C57.517 24.3375 57.7868 24.2001 57.7868 24.2001L57.9667 23.3292C57.9667 23.3292 57.472 23.5584 57.0222 23.5584C56.0327 23.5584 56.2126 22.8251 56.2126 22.8251H58.0567C58.0567 22.8251 58.1917 22.2292 58.1917 22.0001C58.1917 21.4042 57.8768 20.6709 56.8873 20.6709C55.9428 20.5792 55.2681 21.5875 55.2681 22.7334ZM56.8423 21.4042C57.3371 21.4042 57.2471 22.0001 57.2471 22.0459H56.2576C56.2576 22.0001 56.3475 21.4042 56.8423 21.4042ZM62.5545 24.2001L62.7344 23.1917C62.7344 23.1917 62.2846 23.4209 61.9698 23.4209C61.3401 23.4209 61.0702 22.9167 61.0702 22.3667C61.0702 21.2667 61.61 20.6709 62.2397 20.6709C62.6894 20.6709 63.0493 20.9459 63.0493 20.9459L63.1842 19.9834C63.1842 19.9834 62.6444 19.7542 62.1497 19.7542C61.1152 19.7542 60.0807 20.6709 60.0807 22.4125C60.0807 23.5584 60.6205 24.3375 61.6999 24.3375C62.0598 24.3375 62.5545 24.2001 62.5545 24.2001ZM50.0057 20.5792C49.376 20.5792 48.9262 20.7625 48.9262 20.7625L48.7913 21.5417C48.7913 21.5417 49.1961 21.3584 49.7808 21.3584C50.0957 21.3584 50.3655 21.4042 50.3655 21.6792C50.3655 21.8625 50.3205 21.9084 50.3205 21.9084H49.9158C49.1511 21.9084 48.2965 22.2292 48.2965 23.2834C48.2965 24.1084 48.8363 24.2917 49.1511 24.2917C49.7808 24.2917 50.0507 23.8792 50.0957 23.8792L50.0507 24.2459H50.8603L51.2201 21.7251C51.2201 20.6251 50.3205 20.5792 50.0057 20.5792ZM50.1856 22.6417C50.1856 22.7792 50.0957 23.5125 49.5559 23.5125C49.286 23.5125 49.1961 23.2834 49.1961 23.1459C49.1961 22.9167 49.331 22.5959 50.0057 22.5959C50.1406 22.6417 50.1856 22.6417 50.1856 22.6417ZM52.0747 24.2917C52.2996 24.2917 53.424 24.3375 53.424 23.1001C53.424 21.9542 52.3446 22.1834 52.3446 21.7251C52.3446 21.4959 52.5245 21.4042 52.8393 21.4042C52.9743 21.4042 53.469 21.4501 53.469 21.4501L53.6039 20.6251C53.6039 20.6251 53.2891 20.5334 52.7493 20.5334C52.0747 20.5334 51.4 20.8084 51.4 21.7251C51.4 22.7792 52.5245 22.6875 52.5245 23.1001C52.5245 23.3751 52.2096 23.4209 51.9847 23.4209C51.5799 23.4209 51.1751 23.2834 51.1751 23.2834L51.0402 24.1084C51.0852 24.2001 51.31 24.2917 52.0747 24.2917ZM70.0208 19.8459L69.8409 21.0834C69.8409 21.0834 69.4811 20.6251 68.9863 20.6251C68.1767 20.6251 67.4571 21.6334 67.4571 22.8251C67.4571 23.5584 67.8169 24.3375 68.5815 24.3375C69.1212 24.3375 69.4361 23.9709 69.4361 23.9709L69.3911 24.2917H70.2907L70.9654 19.8917L70.0208 19.8459ZM69.616 22.2751C69.616 22.7792 69.3911 23.4209 68.8964 23.4209C68.5815 23.4209 68.4016 23.1459 68.4016 22.6875C68.4016 21.9542 68.7165 21.4959 69.1212 21.4959C69.4361 21.4959 69.616 21.7251 69.616 22.2751ZM45.1031 24.2459L45.6428 20.9459L45.7328 24.2459H46.3625L47.5319 20.9459L47.0372 24.2459H47.9817L48.7013 19.8459H47.2171L46.3175 22.5501L46.2725 19.8459H44.9682L44.2485 24.2459H45.1031ZM59.0462 24.2459C59.3161 22.7334 59.3611 21.4959 59.9908 21.7251C60.0807 21.1292 60.2156 20.9001 60.3056 20.6709H60.1257C59.7209 20.6709 59.406 21.2209 59.406 21.2209L59.496 20.7167H58.6414L58.0567 24.2917H59.0462V24.2459ZM64.6235 20.5792C63.9938 20.5792 63.544 20.7625 63.544 20.7625L63.4091 21.5417C63.4091 21.5417 63.8139 21.3584 64.3986 21.3584C64.7134 21.3584 64.9833 21.4042 64.9833 21.6792C64.9833 21.8625 64.9383 21.9084 64.9383 21.9084H64.5335C63.7689 21.9084 62.9143 22.2292 62.9143 23.2834C62.9143 24.1084 63.454 24.2917 63.7689 24.2917C64.3986 24.2917 64.6685 23.8792 64.7134 23.8792L64.6685 24.2459H65.4781L65.8379 21.7251C65.8828 20.6251 64.9383 20.5792 64.6235 20.5792ZM64.8484 22.6417C64.8484 22.7792 64.7584 23.5125 64.2187 23.5125C63.9488 23.5125 63.8589 23.2834 63.8589 23.1459C63.8589 22.9167 63.9938 22.5959 64.6685 22.5959C64.8034 22.6417 64.8034 22.6417 64.8484 22.6417ZM66.6025 24.2459C66.8723 22.7334 66.9174 21.4959 67.547 21.7251C67.637 21.1292 67.7719 20.9001 67.8619 20.6709H67.6819C67.2772 20.6709 66.9623 21.2209 66.9623 21.2209L67.0523 20.7167H66.1977L65.613 24.2917H66.6025V24.2459Z" fill="white"/>
<path d="M53.5589 23.5584C53.5589 24.1084 53.8738 24.3375 54.2786 24.3375C54.5935 24.3375 54.8633 24.2459 54.9533 24.2001L55.0882 23.4209C55.0432 23.4209 54.9533 23.4667 54.8633 23.4667C54.5484 23.4667 54.5035 23.2834 54.5484 23.1917L54.8183 21.5875H55.3131L55.448 20.7167H54.9982L55.0882 20.1667M55.7179 22.7334C55.7179 24.0167 56.1227 24.3375 56.8423 24.3375C57.517 24.3375 57.7868 24.2001 57.7868 24.2001L57.9667 23.3292C57.9667 23.3292 57.472 23.5584 57.0222 23.5584C56.0327 23.5584 56.2126 22.8251 56.2126 22.8251H58.0567C58.0567 22.8251 58.1917 22.2292 58.1917 22.0001C58.1917 21.4042 57.8768 20.6709 56.8873 20.6709C55.9428 20.5792 55.7179 21.5875 55.7179 22.7334ZM56.8423 21.4042C57.3371 21.4042 57.427 22.0001 57.427 22.0459H56.2576C56.2576 22.0001 56.3475 21.4042 56.8423 21.4042ZM62.5545 24.2001L62.7344 23.1917C62.7344 23.1917 62.2846 23.4209 61.9698 23.4209C61.3401 23.4209 61.0702 22.9167 61.0702 22.3667C61.0702 21.2667 61.61 20.6709 62.2397 20.6709C62.6894 20.6709 63.0493 20.9459 63.0493 20.9459L63.1842 19.9834C63.1842 19.9834 62.6444 19.7542 62.1497 19.7542C61.1152 19.7542 60.5305 20.6709 60.5305 22.4125C60.5305 23.5584 60.6205 24.3375 61.6999 24.3375C62.0598 24.3375 62.5545 24.2001 62.5545 24.2001ZM48.7913 21.5875C48.7913 21.5875 49.1961 21.4042 49.7808 21.4042C50.0957 21.4042 50.3655 21.4501 50.3655 21.7251C50.3655 21.9084 50.3205 21.9542 50.3205 21.9542H49.9158C49.1511 21.9542 48.2965 22.2751 48.2965 23.3292C48.2965 24.1542 48.8363 24.3375 49.1511 24.3375C49.7808 24.3375 50.0507 23.9251 50.0957 23.9251L50.0507 24.2917H50.8603L51.2201 21.7709C51.2201 20.7167 50.3205 20.6709 49.9607 20.6709M50.6354 22.6417C50.6354 22.7792 50.0957 23.5125 49.5559 23.5125C49.286 23.5125 49.1961 23.2834 49.1961 23.1459C49.1961 22.9167 49.331 22.5959 50.0057 22.5959C50.1406 22.6417 50.6354 22.6417 50.6354 22.6417ZM51.0852 24.2001C51.0852 24.2001 51.3551 24.2917 52.1196 24.2917C52.3446 24.2917 53.469 24.3375 53.469 23.1001C53.469 21.9542 52.3895 22.1834 52.3895 21.7251C52.3895 21.4959 52.5694 21.4042 52.8843 21.4042C53.0192 21.4042 53.514 21.4501 53.514 21.4501L53.6489 20.6251C53.6489 20.6251 53.3341 20.5334 52.7943 20.5334C52.1196 20.5334 51.8948 20.8084 51.8948 21.7251C51.8948 22.7792 52.5694 22.6875 52.5694 23.1001C52.5694 23.3751 52.2546 23.4209 52.0297 23.4209M69.8409 21.0834C69.8409 21.0834 69.4811 20.6251 68.9863 20.6251C68.1767 20.6251 67.9069 21.6334 67.9069 22.8251C67.9069 23.5584 67.8169 24.3375 68.5815 24.3375C69.1212 24.3375 69.4361 23.9709 69.4361 23.9709L69.3911 24.2917H70.2907L70.9654 19.8917M69.7959 22.2751C69.7959 22.7792 69.3911 23.4209 68.8964 23.4209C68.5815 23.4209 68.4016 23.1459 68.4016 22.6875C68.4016 21.9542 68.7165 21.4959 69.1212 21.4959C69.4361 21.4959 69.7959 21.7251 69.7959 22.2751ZM45.1031 24.2459L45.6428 20.9459L45.7328 24.2459H46.3625L47.5319 20.9459L47.0372 24.2459H47.9817L48.7013 19.8459H47.5769L46.3175 22.5501L46.2725 19.8459H45.7778L44.2485 24.2459H45.1031ZM58.1017 24.2459H59.0462C59.3161 22.7334 59.3611 21.4959 59.9908 21.7251C60.0807 21.1292 60.2156 20.9001 60.3056 20.6709H60.1257C59.7209 20.6709 59.406 21.2209 59.406 21.2209L59.496 20.7167M63.4091 21.5875C63.4091 21.5875 63.8139 21.4042 64.3986 21.4042C64.7134 21.4042 64.9833 21.4501 64.9833 21.7251C64.9833 21.9084 64.9383 21.9542 64.9383 21.9542H64.5335C63.7689 21.9542 62.9143 22.2751 62.9143 23.3292C62.9143 24.1542 63.454 24.3375 63.7689 24.3375C64.3986 24.3375 64.6685 23.9251 64.7134 23.9251L64.6685 24.2917H65.4781L65.8379 21.7709C65.8379 20.7167 64.9383 20.6709 64.5785 20.6709M65.2531 22.6417C65.2531 22.7792 64.7134 23.5125 64.1737 23.5125C63.9038 23.5125 63.8139 23.2834 63.8139 23.1459C63.8139 22.9167 63.9488 22.5959 64.6235 22.5959C64.8034 22.6417 65.2531 22.6417 65.2531 22.6417ZM65.658 24.2459H66.6025C66.8723 22.7334 66.9174 21.4959 67.547 21.7251C67.637 21.1292 67.7719 20.9001 67.8619 20.6709H67.6819C67.2772 20.6709 66.9623 21.2209 66.9623 21.2209L67.0523 20.7167" fill="#DCE5E5"/>
<path d="M106.783 28.9704H110.444V17.8498H106.783V28.9704ZM104.713 17.6898C101.329 17.8098 99.6101 19.4499 99.6101 22.7101V28.9704H103.308V23.8702C103.308 21.9101 103.548 21.07 105.692 20.99V17.7298C105.452 17.6898 105.193 17.6698 104.934 17.6698L104.713 17.6898ZM77 18.6099C77 19.8899 77.5176 22.9101 82.2319 23.2701C82.6387 23.2901 83.6924 23.3701 83.6924 24.4502C83.6924 25.3302 82.8235 25.8703 81.363 25.8703C79.958 25.8303 78.5714 25.5302 77.2588 24.9902V28.5504C78.8487 28.9704 80.4941 29.1704 82.1395 29.1504C86.1697 29.1504 87.9815 26.6903 87.9815 24.2502C87.9815 21.49 85.9479 19.6899 82.5647 19.4499C82.1025 19.4099 81.0303 19.3499 81.0303 18.2899C81.0303 17.0298 82.5647 17.0298 83.1563 17.0298C84.1731 17.0298 85.4857 17.3498 86.4286 17.6698C86.4286 17.6698 86.9462 17.8698 87.4084 18.0698L87.4454 18.0898V14.6097L87.3899 14.5897C86.2807 14.1696 84.9866 13.7696 82.6017 13.7696C78.4605 13.7696 77 16.3698 77 18.6099ZM88.9059 14.5697V28.9704H92.6773V24.5102C93.7681 26.2903 94.3227 28.9704 94.3227 28.9704H98.8521C98.4084 26.9503 96.4487 23.2501 96.4487 23.2501C97.6134 21.63 98.5008 19.8099 99.1109 17.8498H94.7664C94.2672 19.2499 93.5647 20.57 92.6773 21.73V13.7696L88.9059 14.5697ZM111.997 14.4697V28.9704H115.657V13.7696L111.997 14.4697ZM117.339 14.4697V28.9704H121V13.7696L117.339 14.4697ZM108.613 12.8696C107.615 12.8696 106.802 13.7496 106.802 14.8297C106.802 15.9097 107.615 16.7898 108.613 16.7898C109.612 16.7898 110.425 15.9097 110.425 14.8297C110.407 13.7496 109.612 12.8696 108.613 12.8696Z" fill="#872165"/>
<mask id="mask0_266_2" style="mask-type:luminance" maskUnits="userSpaceOnUse" x="77" y="12" width="44" height="18">
<path d="M106.783 28.9704H110.444V17.8498H106.783V28.9704ZM104.713 17.6898C101.329 17.8098 99.6101 19.4499 99.6101 22.7101V28.9704H103.308V23.8702C103.308 21.9101 103.548 21.07 105.692 20.99V17.7298C105.452 17.6898 105.193 17.6698 104.934 17.6698L104.713 17.6898ZM77 18.6099C77 19.8899 77.5176 22.9101 82.2319 23.2701C82.6387 23.2901 83.6924 23.3701 83.6924 24.4502C83.6924 25.3302 82.8235 25.8703 81.363 25.8703C79.958 25.8303 78.5714 25.5302 77.2588 24.9902V28.5504C78.8487 28.9704 80.4941 29.1704 82.1395 29.1504C86.1697 29.1504 87.9815 26.6903 87.9815 24.2502C87.9815 21.49 85.9479 19.6899 82.5647 19.4499C82.1025 19.4099 81.0303 19.3499 81.0303 18.2899C81.0303 17.0298 82.5647 17.0298 83.1563 17.0298C84.1731 17.0298 85.4857 17.3498 86.4286 17.6698C86.4286 17.6698 86.9462 17.8698 87.4084 18.0698L87.4454 18.0898V14.6097L87.3899 14.5897C86.2807 14.1696 84.9866 13.7696 82.6017 13.7696C78.4605 13.7696 77 16.3698 77 18.6099ZM88.9059 14.5697V28.9704H92.6773V24.5102C93.7681 26.2903 94.3227 28.9704 94.3227 28.9704H98.8521C98.4084 26.9503 96.4487 23.2501 96.4487 23.2501C97.6134 21.63 98.5008 19.8099 99.1109 17.8498H94.7664C94.2672 19.2499 93.5647 20.57 92.6773 21.73V13.7696L88.9059 14.5697ZM111.997 14.4697V28.9704H115.657V13.7696L111.997 14.4697ZM117.339 14.4697V28.9704H121V13.7696L117.339 14.4697ZM108.613 12.8696C107.615 12.8696 106.802 13.7496 106.802 14.8297C106.802 15.9097 107.615 16.7898 108.613 16.7898C109.612 16.7898 110.425 15.9097 110.425 14.8297C110.407 13.7496 109.612 12.8696 108.613 12.8696Z" fill="white"/>
</mask>
<g mask="url(#mask0_266_2)">
<path d="M121 12.8696H77V29.1304H121V12.8696Z" fill="#872165"/>
</g>
<g clip-path="url(#clip0_266_2)">
<mask id="mask1_266_2" style="mask-type:luminance" maskUnits="userSpaceOnUse" x="125" y="10" width="23" height="22">
<path d="M148 10H126V32H148V10Z" fill="white"/>
</mask>
<g mask="url(#mask1_266_2)">
<path d="M128.146 10.3748H145.854C146.324 10.3748 146.774 10.5614 147.107 10.8935C147.439 11.2257 147.625 11.6761 147.625 12.1458V29.8543C147.625 30.324 147.439 30.7744 147.107 31.1065C146.774 31.4386 146.324 31.6252 145.854 31.6252H128.145C127.676 31.6252 127.225 31.4387 126.893 31.1066C126.561 30.7746 126.375 30.3242 126.375 29.8546V12.1457C126.375 11.9131 126.421 11.6829 126.51 11.468C126.599 11.2532 126.729 11.0579 126.893 10.8935C127.058 10.7291 127.253 10.5986 127.468 10.5096C127.683 10.4206 127.913 10.3748 128.146 10.3748Z" fill="#FDB913"/>
<path d="M145.855 10.3748C146.324 10.3749 146.775 10.5616 147.107 10.8937C147.439 11.2258 147.625 11.6762 147.625 12.1458V29.8543C147.625 30.3239 147.439 30.7743 147.107 31.1064C146.775 31.4385 146.324 31.6251 145.855 31.6252H128.146C127.913 31.6252 127.683 31.5795 127.468 31.4905C127.253 31.4015 127.058 31.2711 126.893 31.1066C126.729 30.9422 126.598 30.747 126.509 30.5321C126.421 30.3172 126.375 30.0869 126.375 29.8543V12.1458C126.375 11.9132 126.421 11.6829 126.51 11.468C126.598 11.2532 126.729 11.0579 126.893 10.8935C127.058 10.729 127.253 10.5985 127.468 10.5096C127.683 10.4206 127.913 10.3748 128.146 10.3748H145.855ZM145.855 10H128.146C127.577 10.0006 127.031 10.2269 126.629 10.6292C126.227 11.0315 126.001 11.5769 126 12.1458V29.8543C126.001 30.4232 126.227 30.9686 126.629 31.3709C127.031 31.7731 127.577 31.9994 128.146 32H145.855C146.423 31.9993 146.969 31.7731 147.371 31.3708C147.773 30.9685 147.999 30.4232 148 29.8543V12.1458C147.999 11.5769 147.773 11.0315 147.371 10.6292C146.969 10.2269 146.423 10.0006 145.855 10Z" fill="white"/>
<path d="M138.24 21.2294L138.238 17.4247L139.231 17.189V17.6878C139.231 17.6878 139.489 17.0319 140.086 16.8796C140.175 16.8509 140.27 16.8445 140.362 16.8611V17.8318C140.183 17.8342 140.006 17.8709 139.842 17.9401C139.475 18.0851 139.29 18.4013 139.29 18.884L139.29 20.9849L138.24 21.2294Z" fill="#231F20"/>
<path d="M133.005 22.4666C133.005 22.4666 132.843 22.2245 132.843 21.3685V19.474L132.332 19.5956V18.8152L132.844 18.6942V17.8435L133.9 17.5941V18.4448L134.647 18.2676V19.0471L133.9 19.2242C133.9 19.2242 133.899 20.7763 133.9 21.1532C133.9 22.0303 134.133 22.1987 134.133 22.1987L133.005 22.4666Z" fill="#231F20"/>
<path d="M134.757 20.2032C134.757 19.5268 134.853 19.0333 135.06 18.6546C135.306 18.2052 135.709 17.9123 136.297 17.7785C137.456 17.5151 137.874 18.2008 137.858 19.1203C137.851 19.4491 137.853 19.6093 137.853 19.6093L135.812 20.089V20.122C135.812 20.7644 135.947 21.0693 136.354 20.9829C136.705 20.9087 136.803 20.6884 136.831 20.416C136.836 20.3721 136.838 20.2604 136.838 20.2604L137.794 20.0312C137.794 20.0312 137.796 20.1095 137.795 20.1974C137.786 20.5624 137.68 21.4681 136.351 21.7823C135.093 22.0811 134.757 21.3123 134.757 20.2032ZM136.34 18.4872C136.001 18.564 135.824 18.8957 135.816 19.4454L136.843 19.2008C136.845 19.176 136.845 19.1212 136.845 19.0353C136.843 18.6204 136.715 18.4014 136.34 18.4872Z" fill="#231F20"/>
<path d="M143.936 17.9782C143.897 16.8195 144.197 15.8999 145.49 15.607C146.314 15.4198 146.627 15.6341 146.785 15.8413C146.938 16.039 146.997 16.3056 146.997 16.679L146.998 16.7476L145.986 16.9879C145.986 16.9879 145.985 16.8516 145.985 16.8472C145.986 16.4043 145.863 16.2359 145.541 16.3164C145.159 16.4125 145.004 16.7756 145.004 17.4974C145.004 17.7537 145.005 17.7996 145.005 17.8342C145.005 18.5678 145.106 18.9036 145.547 18.8113C145.929 18.7323 145.981 18.3965 145.987 18.1021C145.988 18.0559 145.99 17.9079 145.99 17.9079L147 17.6693C147 17.6693 147.001 17.7439 147.001 17.8269C146.999 18.7888 146.492 19.395 145.542 19.6161C144.233 19.9228 143.977 19.1666 143.936 17.9782Z" fill="#231F20"/>
<path d="M140.44 19.6005C140.44 18.7191 140.956 18.4404 141.733 18.1189C142.432 17.8298 142.447 17.6862 142.45 17.435C142.454 17.2236 142.356 17.0427 142.008 17.1314C141.892 17.1548 141.787 17.2167 141.711 17.307C141.634 17.3974 141.591 17.5109 141.587 17.6292C141.581 17.6941 141.579 17.7593 141.58 17.8245L140.6 18.0559C140.594 17.8606 140.617 17.6654 140.668 17.4769C140.825 16.9499 141.29 16.5953 142.092 16.4096C143.134 16.1694 143.482 16.6269 143.483 17.3385V19.0236C143.483 19.8386 143.634 19.958 143.634 19.958L142.673 20.1856C142.619 20.0745 142.576 19.9589 142.544 19.8401C142.544 19.8401 142.333 20.3708 141.607 20.5415C140.844 20.7214 140.44 20.2486 140.44 19.6005ZM142.443 18.397C142.281 18.5106 142.11 18.6109 141.932 18.6967C141.611 18.8533 141.466 19.0466 141.466 19.3443C141.466 19.602 141.626 19.7713 141.916 19.6996C142.227 19.6211 142.443 19.3306 142.443 18.927V18.397Z" fill="#231F20"/>
<path d="M127.483 25.1337C127.373 25.1336 127.266 25.1038 127.171 25.0476C127.077 24.9914 127 24.9108 126.947 24.8144C126.895 24.7179 126.869 24.609 126.874 24.4993C126.878 24.3896 126.912 24.2831 126.972 24.191L126.978 24.1821L126.99 24.1791L128.426 23.84V24.9308L128.404 24.936C128.078 25.0144 127.689 25.1037 127.608 25.1207C127.567 25.1294 127.525 25.1338 127.483 25.1337Z" fill="#231F20"/>
<path d="M127.483 26.5291C127.322 26.5292 127.167 26.465 127.052 26.3508C126.938 26.2366 126.873 26.0817 126.873 25.92C126.873 25.8023 126.907 25.687 126.972 25.5884L126.978 25.5782L126.99 25.5753L128.426 25.2363V26.3271L128.404 26.333C128.078 26.4111 127.689 26.5014 127.608 26.5174C127.567 26.5254 127.525 26.5293 127.483 26.5291Z" fill="#231F20"/>
<path d="M127.483 27.9273C127.321 27.9272 127.166 27.8629 127.052 27.7486C126.938 27.6343 126.873 27.4793 126.873 27.3177C126.873 27.1999 126.907 27.0846 126.972 26.986L126.978 26.975L128.426 26.6338V27.7246L128.404 27.7305C128.06 27.8133 127.678 27.8996 127.608 27.9149C127.567 27.9231 127.525 27.9273 127.483 27.9273Z" fill="#231F20"/>
<path d="M127.314 23.7971L127.313 17.6936L128.426 17.4306V23.534L127.314 23.7971Z" fill="#231F20"/>
<path d="M130.086 23.2778C130.086 23.0957 130.013 22.9211 129.884 22.7923C129.756 22.6636 129.581 22.5912 129.399 22.5912C129.217 22.5912 129.042 22.6636 128.913 22.7923C128.785 22.9211 128.712 23.0957 128.712 23.2778L128.714 28.9824C128.714 29.475 128.91 29.9473 129.258 30.2957C129.606 30.6442 130.079 30.8404 130.571 30.8413C131.091 30.8413 132.515 30.8388 132.515 30.8388L132.515 28.459C132.516 27.1587 132.516 25.8352 132.516 25.8051C132.516 25.6571 132.48 25.5114 132.41 25.3809C132.341 25.2504 132.24 25.1391 132.117 25.0569L130.385 23.8805C130.385 23.8805 130.384 26.4345 130.384 26.5519C130.384 26.5911 130.369 26.6286 130.341 26.6563C130.313 26.684 130.276 26.6996 130.236 26.6996C130.197 26.6996 130.16 26.684 130.132 26.6563C130.104 26.6286 130.089 26.5911 130.089 26.5519C130.089 26.5232 130.086 23.6306 130.086 23.2778Z" fill="#231F20"/>
<path d="M131.013 19.0216C130.802 19.0705 130.605 19.1642 130.434 19.2963C130.263 19.4285 130.122 19.596 130.022 19.7874V19.3584L129.02 19.5955L129.021 22.3349C129.197 22.2654 129.389 22.2458 129.575 22.2784C129.761 22.3109 129.935 22.3943 130.076 22.5193V20.7506C130.076 20.3269 130.287 19.9885 130.588 19.9221C130.815 19.8724 131.004 19.9534 131.004 20.357L131.005 22.9375L132.06 22.6901V19.9602C132.06 19.2984 131.806 18.8357 131.013 19.0216Z" fill="#231F20"/>
<path d="M146.347 15.1153C146.217 15.1154 146.091 15.0772 145.984 15.0056C145.877 14.934 145.793 14.8321 145.743 14.7129C145.694 14.5937 145.681 14.4625 145.706 14.3359C145.731 14.2093 145.793 14.093 145.885 14.0018C145.976 13.9105 146.092 13.8483 146.219 13.8231C146.345 13.798 146.476 13.8109 146.596 13.8603C146.715 13.9097 146.817 13.9934 146.888 14.1007C146.96 14.208 146.998 14.3342 146.998 14.4633C146.998 14.6361 146.929 14.8018 146.807 14.924C146.685 15.0463 146.519 15.115 146.347 15.1153ZM146.347 13.8927C146.234 13.8926 146.123 13.9261 146.03 13.9887C145.936 14.0514 145.863 14.1405 145.819 14.2447C145.776 14.3489 145.765 14.4636 145.787 14.5743C145.809 14.685 145.863 14.7866 145.943 14.8664C146.023 14.9462 146.124 15.0006 146.235 15.0226C146.346 15.0447 146.46 15.0334 146.565 14.9902C146.669 14.9471 146.758 14.874 146.821 14.7802C146.883 14.6864 146.917 14.5761 146.917 14.4633C146.917 14.312 146.857 14.167 146.75 14.06C146.643 13.953 146.498 13.8929 146.347 13.8927Z" fill="#231F20"/>
<path d="M146.109 14.0745H146.39C146.418 14.0716 146.445 14.0749 146.471 14.0842C146.497 14.0934 146.521 14.1085 146.54 14.1281C146.56 14.1478 146.575 14.1716 146.584 14.1977C146.592 14.2239 146.595 14.2517 146.592 14.2792C146.592 14.3824 146.546 14.4618 146.459 14.4753V14.4769C146.538 14.4849 146.58 14.5285 146.584 14.6405C146.586 14.691 146.586 14.7536 146.589 14.8023C146.589 14.816 146.592 14.8295 146.599 14.8415C146.605 14.8535 146.615 14.8637 146.626 14.8711H146.483C146.469 14.85 146.462 14.8255 146.461 14.8004C146.457 14.7528 146.458 14.7079 146.456 14.6501C146.454 14.5632 146.427 14.5252 146.34 14.5252H146.236V14.8711H146.109V14.0745ZM146.338 14.4293C146.355 14.4308 146.372 14.4286 146.389 14.4226C146.405 14.4167 146.42 14.4072 146.432 14.3948C146.444 14.3824 146.453 14.3675 146.459 14.3512C146.465 14.3348 146.467 14.3174 146.465 14.3001C146.465 14.2152 146.428 14.1705 146.344 14.1705H146.236V14.4293H146.338Z" fill="#231F20"/>
</g>
</g>
<path d="M167.83 15.4639L161.963 12.52L156.096 15.4639V17.1754H167.83V15.4639Z" fill="white"/>
<path d="M159.112 18.305C159.286 18.305 159.428 18.1442 159.428 17.9456C159.428 17.7469 159.286 17.5862 159.112 17.5862H157.252C157.078 17.5862 156.937 17.7469 156.937 17.9456C156.937 18.1442 157.078 18.305 157.252 18.305H157.357V23.4397H157.252C157.078 23.4397 156.937 23.6005 156.937 23.7992C156.937 23.9978 157.078 24.1587 157.252 24.1587H159.112C159.286 24.1587 159.428 23.9978 159.428 23.7992C159.428 23.6005 159.286 23.4397 159.112 23.4397H159.007V18.305H159.112Z" fill="white"/>
<path d="M162.894 18.305C163.068 18.305 163.209 18.1442 163.209 17.9456C163.209 17.7469 163.068 17.5862 162.894 17.5862H161.033C160.859 17.5862 160.718 17.7469 160.718 17.9456C160.718 18.1442 160.859 18.305 161.033 18.305H161.138V23.4397H161.033C160.859 23.4397 160.718 23.6005 160.718 23.7992C160.718 23.9978 160.859 24.1587 161.033 24.1587H162.894C163.068 24.1587 163.209 23.9978 163.209 23.7992C163.209 23.6005 163.068 23.4397 162.894 23.4397H162.789V18.305H162.894Z" fill="white"/>
<path d="M166.735 18.305C166.909 18.305 167.05 18.1442 167.05 17.9456C167.05 17.7469 166.909 17.5862 166.735 17.5862H164.874C164.7 17.5862 164.559 17.7469 164.559 17.9456C164.559 18.1442 164.7 18.305 164.874 18.305H164.979V23.4397H164.874C164.7 23.4397 164.559 23.6005 164.559 23.7992C164.559 23.9978 164.7 24.1587 164.874 24.1587H166.735C166.909 24.1587 167.05 23.9978 167.05 23.7992C167.05 23.6005 166.909 23.4397 166.735 23.4397H166.63V18.305H166.735Z" fill="white"/>
<path d="M156.396 25.4594H167.53C167.695 25.4594 167.83 25.3053 167.83 25.1172V24.9117C167.83 24.7234 167.695 24.5694 167.53 24.5694H156.396C156.231 24.5694 156.096 24.7234 156.096 24.9117V25.1172C156.096 25.3053 156.231 25.4594 156.396 25.4594Z" fill="white"/>
<path d="M168.31 25.8702H155.616C155.451 25.8702 155.316 26.0243 155.316 26.2124V26.5205C155.316 26.7089 155.451 26.863 155.616 26.863H168.31C168.475 26.863 168.61 26.7089 168.61 26.5205V26.2124C168.61 26.0243 168.475 25.8702 168.31 25.8702Z" fill="white"/>
<path d="M173.562 17.6581C173.451 17.4903 173.292 17.3738 173.088 17.3054C173.247 17.2164 173.367 17.1002 173.445 16.9528C173.523 16.8056 173.562 16.6481 173.562 16.4838C173.562 16.3059 173.52 16.1381 173.43 15.9738C173.34 15.8096 173.217 15.6898 173.061 15.611C172.905 15.5322 172.695 15.4946 172.437 15.4946H171.164V19.3662H172.458C172.674 19.3662 172.854 19.3456 173.004 19.3011C173.154 19.2565 173.277 19.1951 173.376 19.1095C173.475 19.0272 173.559 18.9075 173.625 18.7501C173.694 18.5927 173.727 18.4248 173.727 18.2434C173.727 18.0174 173.673 17.8224 173.562 17.6581ZM171.611 15.9534H172.292C172.536 15.9534 172.71 15.9705 172.809 16.008C172.908 16.0457 172.986 16.1108 173.04 16.2101C173.094 16.3059 173.121 16.4188 173.121 16.5489C173.121 16.6858 173.091 16.7988 173.034 16.8878C172.977 16.9768 172.89 17.042 172.776 17.0795C172.689 17.1103 172.544 17.1241 172.346 17.1241H171.611V15.9534ZM173.193 18.5719C173.148 18.6678 173.091 18.7398 173.022 18.7877C172.953 18.8391 172.866 18.8734 172.764 18.8937C172.704 18.9041 172.602 18.9109 172.458 18.9109H171.611V17.5792H172.397C172.614 17.5792 172.779 17.5999 172.893 17.6443C173.007 17.6888 173.097 17.7641 173.163 17.8703C173.226 17.9763 173.259 18.103 173.259 18.2468C173.259 18.3701 173.238 18.4761 173.193 18.5719Z" fill="white"/>
<path d="M176.305 19.0239C176.287 18.9075 176.278 18.6268 176.278 18.1853V17.5519C176.278 17.3397 176.272 17.1959 176.257 17.1137C176.233 16.9803 176.191 16.8741 176.128 16.7885C176.068 16.703 175.972 16.631 175.84 16.5762C175.71 16.5181 175.539 16.4906 175.329 16.4906C175.116 16.4906 174.93 16.5249 174.771 16.59C174.609 16.6585 174.486 16.751 174.402 16.8741C174.318 16.9974 174.255 17.1584 174.219 17.3566L174.627 17.4219C174.672 17.2199 174.741 17.083 174.834 17.0042C174.927 16.9255 175.074 16.8878 175.269 16.8878C175.479 16.8878 175.638 16.9427 175.743 17.0488C175.822 17.1309 175.861 17.2644 175.861 17.4595C175.861 17.4766 175.861 17.5176 175.858 17.5828C175.698 17.6478 175.449 17.7027 175.113 17.7469C174.948 17.771 174.825 17.795 174.744 17.8189C174.633 17.8565 174.534 17.9079 174.444 17.9763C174.354 18.0448 174.282 18.1373 174.228 18.2502C174.174 18.3631 174.147 18.4899 174.147 18.6268C174.147 18.863 174.222 19.0547 174.366 19.2051C174.513 19.3559 174.72 19.4313 174.99 19.4313C175.152 19.4313 175.305 19.4004 175.449 19.3389C175.593 19.2773 175.743 19.1711 175.897 19.0205C175.909 19.1541 175.936 19.2703 175.975 19.3594H176.41C176.359 19.2533 176.323 19.1402 176.305 19.0239ZM175.861 18.1339C175.861 18.3426 175.84 18.5035 175.794 18.6098C175.734 18.7501 175.644 18.8595 175.518 18.9383C175.392 19.0171 175.248 19.058 175.089 19.058C174.927 19.058 174.804 19.0171 174.72 18.9315C174.636 18.8459 174.594 18.7398 174.594 18.6131C174.594 18.5309 174.612 18.4556 174.651 18.3872C174.69 18.3187 174.744 18.2673 174.816 18.233C174.888 18.1956 175.008 18.1646 175.179 18.1373C175.482 18.0894 175.71 18.0313 175.861 17.9591V18.1339Z" fill="white"/>
<path d="M178.462 17.2268C178.495 17.3226 178.51 17.4662 178.51 17.6614V19.3662H178.927V17.6443C178.927 17.4252 178.918 17.2711 178.903 17.1823C178.879 17.0453 178.837 16.9289 178.774 16.8296C178.711 16.7303 178.618 16.6517 178.495 16.59C178.372 16.5284 178.234 16.4977 178.087 16.4977C177.745 16.4977 177.484 16.6517 177.304 16.9598V16.5627H176.929V19.3662H177.349V17.836C177.349 17.4766 177.412 17.2335 177.541 17.1034C177.67 16.9768 177.823 16.9118 178 16.9118C178.111 16.9118 178.207 16.9392 178.291 16.9974C178.372 17.0556 178.429 17.1309 178.462 17.2268Z" fill="white"/>
<path d="M181.604 19.3662L180.572 17.6033L181.511 16.5627H180.971L179.984 17.7027V15.4946H179.566V19.3662H179.984V18.2538L180.278 17.932L181.091 19.3662H181.604Z" fill="white"/>
<path d="M170.927 22.1184H172.046V25.5347H172.493V22.1184H173.616V21.6631H170.927V22.1184Z" fill="white"/>
<path d="M174.483 22.7619C174.402 22.827 174.315 22.957 174.219 23.1556V22.7312H173.844V25.5347H174.258V24.0661C174.258 23.8641 174.282 23.6793 174.327 23.5116C174.36 23.402 174.411 23.313 174.483 23.2516C174.555 23.1898 174.639 23.1589 174.729 23.1589C174.831 23.1589 174.933 23.1933 175.035 23.2617L175.179 22.8201C175.032 22.7172 174.891 22.6663 174.75 22.6663C174.654 22.6663 174.564 22.6969 174.483 22.7619Z" fill="white"/>
<path d="M177.439 25.1924C177.421 25.076 177.412 24.7954 177.412 24.3537V23.7204C177.412 23.5082 177.406 23.3644 177.391 23.2823C177.367 23.1488 177.325 23.0426 177.262 22.957C177.202 22.8715 177.106 22.7998 176.974 22.7448C176.845 22.6866 176.674 22.6593 176.464 22.6593C176.251 22.6593 176.065 22.6934 175.905 22.7585C175.743 22.827 175.62 22.9195 175.536 23.0426C175.452 23.1659 175.389 23.3269 175.353 23.5253L175.761 23.5905C175.806 23.3883 175.875 23.2516 175.968 23.1727C176.062 23.0941 176.209 23.0564 176.404 23.0564C176.614 23.0564 176.773 23.1111 176.878 23.2173C176.956 23.2994 176.995 23.4329 176.995 23.628C176.995 23.645 176.995 23.6861 176.992 23.7513C176.833 23.8162 176.584 23.871 176.248 23.9155C176.083 23.9395 175.96 23.9635 175.879 23.9874C175.767 24.0251 175.668 24.0765 175.578 24.1448C175.488 24.2134 175.416 24.3058 175.362 24.4188C175.308 24.5318 175.281 24.6583 175.281 24.7954C175.281 25.0315 175.356 25.2232 175.5 25.3737C175.647 25.5245 175.855 25.5997 176.125 25.5997C176.287 25.5997 176.44 25.5689 176.584 25.5073C176.728 25.4457 176.878 25.3396 177.031 25.189C177.046 25.3191 177.073 25.4354 177.109 25.5279H177.544C177.493 25.4218 177.457 25.3087 177.439 25.1924ZM176.998 24.299C176.998 24.5076 176.977 24.6686 176.932 24.7748C176.872 24.915 176.782 25.0247 176.656 25.1033C176.53 25.1822 176.386 25.2232 176.227 25.2232C176.065 25.2232 175.942 25.1822 175.858 25.0966C175.773 25.0109 175.731 24.9049 175.731 24.7783C175.731 24.6961 175.749 24.6207 175.789 24.5522C175.827 24.4837 175.881 24.4325 175.954 24.3982C176.025 24.3606 176.146 24.3297 176.317 24.3024C176.62 24.2545 176.848 24.1962 176.998 24.1244V24.299Z" fill="white"/>
<path d="M179.912 22.9981C179.849 22.8988 179.756 22.8201 179.633 22.7585C179.51 22.6969 179.372 22.6663 179.225 22.6663C178.882 22.6663 178.621 22.8201 178.441 23.1283V22.7312H178.066V25.5381H178.486V24.0079C178.486 23.6486 178.549 23.4055 178.678 23.2755C178.807 23.1488 178.96 23.0837 179.137 23.0837C179.248 23.0837 179.344 23.1111 179.429 23.1693C179.51 23.2275 179.567 23.3028 179.6 23.3987C179.633 23.4945 179.648 23.6383 179.648 23.8334V25.5381H180.065V23.8128C180.065 23.5937 180.056 23.4397 180.041 23.3508C180.017 23.2138 179.975 23.0974 179.912 22.9981Z" fill="white"/>
<path d="M182.201 24.0525C182.084 23.9978 181.877 23.9222 181.583 23.8334C181.379 23.7718 181.256 23.7307 181.214 23.7137C181.142 23.6793 181.088 23.6383 181.055 23.5869C181.022 23.5356 181.004 23.4807 181.004 23.4192C181.004 23.3234 181.046 23.2377 181.127 23.1659C181.211 23.0941 181.346 23.0564 181.538 23.0564C181.7 23.0564 181.823 23.0941 181.913 23.1762C182.003 23.2584 182.057 23.3711 182.075 23.5151L182.483 23.4501C182.456 23.2687 182.409 23.1247 182.339 23.0152C182.267 22.9091 182.162 22.8236 182.015 22.7585C181.871 22.6934 181.7 22.6627 181.508 22.6627C181.379 22.6627 181.259 22.6833 181.148 22.7209C181.037 22.7619 180.95 22.8066 180.884 22.8613C180.797 22.9331 180.731 23.0222 180.68 23.1283C180.629 23.2344 180.605 23.3473 180.605 23.474C180.605 23.6109 180.635 23.7376 180.695 23.8505C180.755 23.9635 180.845 24.0525 180.962 24.1175C181.082 24.1826 181.292 24.2579 181.598 24.3468C181.826 24.412 181.967 24.4666 182.024 24.5076C182.105 24.5694 182.147 24.655 182.147 24.7612C182.147 24.8808 182.102 24.9836 182.009 25.0726C181.916 25.1615 181.775 25.2061 181.583 25.2061C181.391 25.2061 181.244 25.1548 181.139 25.0555C181.034 24.9528 180.971 24.809 180.947 24.6207L180.536 24.696C180.581 24.9937 180.689 25.2197 180.854 25.3737C181.019 25.5245 181.265 25.5997 181.583 25.5997C181.775 25.5997 181.949 25.5587 182.102 25.4833C182.255 25.408 182.373 25.2986 182.453 25.1582C182.532 25.0178 182.574 24.8672 182.574 24.7098C182.574 24.5454 182.541 24.412 182.474 24.3024C182.409 24.193 182.318 24.1107 182.201 24.0525Z" fill="white"/>
<path d="M183.672 22.1184C183.723 22.0569 183.813 22.0259 183.939 22.0259C184.017 22.0259 184.098 22.0363 184.185 22.0534L184.248 21.6392C184.104 21.6083 183.975 21.5912 183.858 21.5912C183.675 21.5912 183.534 21.6322 183.432 21.7078C183.33 21.7863 183.258 21.8857 183.219 22.0088C183.189 22.1012 183.174 22.2417 183.174 22.4297V22.7277H182.804V23.0975H183.171V25.5313H183.594V23.0975H184.074V22.7244H183.594V22.4641C183.594 22.2965 183.621 22.1801 183.672 22.1184Z" fill="white"/>
<path d="M186.511 24.1244C186.511 23.6623 186.406 23.3028 186.199 23.0462C185.992 22.7893 185.725 22.6627 185.394 22.6627C185.055 22.6627 184.779 22.7928 184.566 23.0529C184.353 23.313 184.248 23.6793 184.248 24.1517C184.248 24.6104 184.353 24.9631 184.563 25.2163C184.773 25.4697 185.058 25.5963 185.418 25.5963C185.707 25.5963 185.941 25.5176 186.124 25.3601C186.307 25.2027 186.433 24.9801 186.502 24.6927L186.073 24.6309C186.01 24.8294 185.923 24.9768 185.806 25.0691C185.698 25.1615 185.568 25.2061 185.415 25.2061C185.211 25.2061 185.04 25.1239 184.902 24.9596C184.767 24.7954 184.689 24.559 184.674 24.2512H186.508C186.511 24.1962 186.511 24.1517 186.511 24.1244ZM184.704 23.8608C184.719 23.6177 184.791 23.4225 184.92 23.2755C185.052 23.1283 185.211 23.0564 185.403 23.0564C185.613 23.0564 185.788 23.1488 185.92 23.3301C186.004 23.4466 186.058 23.6245 186.076 23.8608H184.704Z" fill="white"/>
<path d="M187.66 22.7619C187.579 22.827 187.492 22.957 187.396 23.1556V22.7312H187.021V25.5347H187.435V24.0661C187.435 23.8641 187.459 23.6793 187.504 23.5116C187.537 23.402 187.588 23.313 187.66 23.2516C187.732 23.1898 187.816 23.1589 187.906 23.1589C188.008 23.1589 188.11 23.1933 188.212 23.2617L188.356 22.8201C188.209 22.7172 188.068 22.6663 187.927 22.6663C187.831 22.6663 187.741 22.6969 187.66 22.7619Z" fill="white"/>
<mask id="mask2_266_2" style="mask-type:luminance" maskUnits="userSpaceOnUse" x="0" y="45" width="83" height="15">
<path d="M83 45H0V59.6031H83V45Z" fill="white"/>
</mask>
<g mask="url(#mask2_266_2)">
<path d="M32.7356 45H34.3243L37.4755 52.3927L40.5486 45H42.1373V56.3493H40.4705V49.269H40.4184L37.9963 55.204H36.9547L34.4285 49.269H34.4024V56.3493H32.7356V45Z" fill="white"/>
<path d="M46.0711 48.2538H44.5085V56.3233H46.0711V48.2538Z" fill="white"/>
<path d="M48.3887 45H54.6131V46.6139H50.0555V49.9718H54.6131V51.4816H50.0555V56.3493H48.3887V45Z" fill="white"/>
<path d="M57.816 48.2538H56.2534V56.3233H57.816V48.2538Z" fill="white"/>
<path d="M59.9777 48.2538H61.5403V49.1128H61.5663C62.0871 48.4621 62.7643 48.1497 63.5976 48.1497C64.2488 48.1497 64.8477 48.384 65.3687 48.8525C65.8895 49.321 66.1759 50.0239 66.202 50.961V56.3233H64.6394V51.5336C64.6394 50.961 64.4831 50.5445 64.1967 50.2321C63.9102 49.9198 63.5456 49.7896 63.0768 49.7896C62.6341 49.7896 62.2434 49.9458 61.9569 50.2321C61.6705 50.5184 61.5142 50.961 61.5142 51.5336V56.3493H59.9517L59.9777 48.2538Z" fill="white"/>
<path d="M69.8482 48.2538H68.2856V56.3233H69.8482V48.2538Z" fill="white"/>
<path d="M72.1921 45.0261H73.7548V48.2538H74.9006V49.5033H73.7548V54.2148C73.7548 54.6313 73.9371 54.8135 74.3017 54.8135H74.9006V56.3493H74.0933C73.5464 56.3493 73.0776 56.1671 72.7391 55.8287C72.3745 55.4903 72.1921 54.9957 72.1921 54.371V49.5033H71.4109V48.2538H72.1921V45.0261Z" fill="white"/>
<path d="M75.9424 48.2538H77.6091L79.4582 53.9025H79.4842L81.3333 48.2538H83.0001L79.6406 58.0153C79.4321 58.6139 79.1196 59.0305 78.755 59.2647C78.3644 59.499 77.9216 59.6031 77.4529 59.6031H76.9319V58.0673H77.4008C77.6091 58.0673 77.7914 58.0153 77.9737 57.8851C78.156 57.755 78.2602 57.5988 78.3384 57.3644L78.755 56.0109L75.9424 48.2538Z" fill="white"/>
<path d="M45.2893 46.9263C45.8216 46.9263 46.2529 46.495 46.2529 45.9631C46.2529 45.4312 45.8216 45 45.2893 45C44.7572 45 44.3257 45.4312 44.3257 45.9631C44.3257 46.495 44.7572 46.9263 45.2893 46.9263Z" fill="white"/>
<path d="M57.0352 46.9263C57.5673 46.9263 57.9987 46.495 57.9987 45.9631C57.9987 45.4312 57.5673 45 57.0352 45C56.5029 45 56.0715 45.4312 56.0715 45.9631C56.0715 46.495 56.5029 46.9263 57.0352 46.9263Z" fill="white"/>
<path d="M69.0669 46.9263C69.599 46.9263 70.0304 46.495 70.0304 45.9631C70.0304 45.4312 69.599 45 69.0669 45C68.5347 45 68.1033 45.4312 68.1033 45.9631C68.1033 46.495 68.5347 46.9263 69.0669 46.9263Z" fill="white"/>
<path d="M11.9281 49.1909C12.1869 49.1909 12.3968 48.9812 12.3968 48.7224C12.3968 48.4636 12.1869 48.2538 11.9281 48.2538C11.6691 48.2538 11.4592 48.4636 11.4592 48.7224C11.4592 48.9812 11.6691 49.1909 11.9281 49.1909Z" fill="white"/>
<path d="M10.7563 48.2538C11.0439 48.2538 11.2771 48.0207 11.2771 47.7332C11.2771 47.4457 11.0439 47.2126 10.7563 47.2126C10.4686 47.2126 10.2354 47.4457 10.2354 47.7332C10.2354 48.0207 10.4686 48.2538 10.7563 48.2538Z" fill="white"/>
<path d="M9.4016 47.3949C9.70362 47.3949 9.94857 47.1501 9.94857 46.8482C9.94857 46.5463 9.70362 46.3016 9.4016 46.3016C9.09959 46.3016 8.85474 46.5463 8.85474 46.8482C8.85474 47.1501 9.09959 47.3949 9.4016 47.3949Z" fill="white"/>
<path d="M7.81284 46.7961C8.11486 46.7961 8.35971 46.5513 8.35971 46.2494C8.35971 45.9475 8.11486 45.7028 7.81284 45.7028C7.51072 45.7028 7.26587 45.9475 7.26587 46.2494C7.26587 46.5513 7.51072 46.7961 7.81284 46.7961Z" fill="white"/>
<path d="M6.06807 46.718C6.42763 46.718 6.71917 46.4266 6.71917 46.0672C6.71917 45.7078 6.42763 45.4165 6.06807 45.4165C5.70849 45.4165 5.41699 45.7078 5.41699 46.0672C5.41699 46.4266 5.70849 46.718 6.06807 46.718Z" fill="white"/>
<path d="M4.16695 47.1866C4.56969 47.1866 4.89617 46.8603 4.89617 46.4577C4.89617 46.0552 4.56969 45.7289 4.16695 45.7289C3.76422 45.7289 3.43774 46.0552 3.43774 46.4577C3.43774 46.8603 3.76422 47.1866 4.16695 47.1866Z" fill="white"/>
<path d="M2.34396 48.5401C2.78984 48.5401 3.1513 48.1788 3.1513 47.7332C3.1513 47.2875 2.78984 46.9262 2.34396 46.9262C1.89808 46.9262 1.53662 47.2875 1.53662 47.7332C1.53662 48.1788 1.89808 48.5401 2.34396 48.5401Z" fill="white"/>
<path d="M1.04181 50.4143C1.51645 50.4143 1.90123 50.0297 1.90123 49.5553C1.90123 49.0809 1.51645 48.6963 1.04181 48.6963C0.567151 48.6963 0.182373 49.0809 0.182373 49.5553C0.182373 50.0297 0.567151 50.4143 1.04181 50.4143Z" fill="white"/>
<path d="M0.937557 53.0954C1.45535 53.0954 1.87512 52.6759 1.87512 52.1583C1.87512 51.6408 1.45535 51.2212 0.937557 51.2212C0.419762 51.2212 0 51.6408 0 52.1583C0 52.6759 0.419762 53.0954 0.937557 53.0954Z" fill="white"/>
<path d="M2.42178 55.5163C3.01149 55.5163 3.48955 55.0385 3.48955 54.449C3.48955 53.8596 3.01149 53.3818 2.42178 53.3818C1.83206 53.3818 1.354 53.8596 1.354 54.449C1.354 55.0385 1.83206 55.5163 2.42178 55.5163Z" fill="white"/>
<path d="M13.8031 51.872C14.3208 51.872 14.7406 51.4524 14.7406 50.935C14.7406 50.4174 14.3208 49.9979 13.8031 49.9979C13.2853 49.9979 12.8655 50.4174 12.8655 50.935C12.8655 51.4524 13.2853 51.872 13.8031 51.872Z" fill="white"/>
<path d="M15.8344 49.8417C16.381 49.8417 16.8241 49.3988 16.8241 48.8525C16.8241 48.3062 16.381 47.8634 15.8344 47.8634C15.2878 47.8634 14.8447 48.3062 14.8447 48.8525C14.8447 49.3988 15.2878 49.8417 15.8344 49.8417Z" fill="white"/>
<path d="M11.4592 53.9805C12.0345 53.9805 12.501 53.5144 12.501 52.9392C12.501 52.3642 12.0345 51.898 11.4592 51.898C10.8839 51.898 10.4175 52.3642 10.4175 52.9392C10.4175 53.5144 10.8839 53.9805 11.4592 53.9805Z" fill="white"/>
<path d="M8.80257 55.8286C9.49293 55.8286 10.0527 55.2693 10.0527 54.5792C10.0527 53.8892 9.49293 53.3298 8.80257 53.3298C8.11212 53.3298 7.55249 53.8892 7.55249 54.5792C7.55249 55.2693 8.11212 55.8286 8.80257 55.8286Z" fill="white"/>
<path d="M5.49536 56.7918C6.28643 56.7918 6.92771 56.1508 6.92771 55.3601C6.92771 54.5694 6.28643 53.9285 5.49536 53.9285C4.70428 53.9285 4.06299 54.5694 4.06299 55.3601C4.06299 56.1508 4.70428 56.7918 5.49536 56.7918Z" fill="white"/>
<path d="M18.5689 48.3579C19.2305 48.3579 19.7669 47.8218 19.7669 47.1605C19.7669 46.4992 19.2305 45.9631 18.5689 45.9631C17.9072 45.9631 17.3708 46.4992 17.3708 47.1605C17.3708 47.8218 17.9072 48.3579 18.5689 48.3579Z" fill="white"/>
<path d="M21.8764 47.603C22.5955 47.603 23.1785 47.0203 23.1785 46.3015C23.1785 45.5827 22.5955 45 21.8764 45C21.1572 45 20.5742 45.5827 20.5742 46.3015C20.5742 47.0203 21.1572 47.603 21.8764 47.603Z" fill="white"/>
<path d="M24.8188 48.3058C25.4085 48.3058 25.8865 47.828 25.8865 47.2386C25.8865 46.6492 25.4085 46.1714 24.8188 46.1714C24.2291 46.1714 23.751 46.6492 23.751 47.2386C23.751 47.828 24.2291 48.3058 24.8188 48.3058Z" fill="white"/>
<path d="M26.3036 50.6486C26.8214 50.6486 27.2411 50.229 27.2411 49.7115C27.2411 49.194 26.8214 48.7744 26.3036 48.7744C25.7857 48.7744 25.366 49.194 25.366 49.7115C25.366 50.229 25.7857 50.6486 26.3036 50.6486Z" fill="white"/>
<path d="M26.2515 53.0955C26.6973 53.0955 27.0588 52.7342 27.0588 52.2885C27.0588 51.8429 26.6973 51.4816 26.2515 51.4816C25.8056 51.4816 25.4441 51.8429 25.4441 52.2885C25.4441 52.7342 25.8056 53.0955 26.2515 53.0955Z" fill="white"/>
<path d="M24.8977 54.8395C25.3004 54.8395 25.6269 54.5132 25.6269 54.1107C25.6269 53.7081 25.3004 53.3818 24.8977 53.3818C24.495 53.3818 24.1685 53.7081 24.1685 54.1107C24.1685 54.5132 24.495 54.8395 24.8977 54.8395Z" fill="white"/>
<path d="M23.1785 56.0108C23.5811 56.0108 23.9076 55.6845 23.9076 55.282C23.9076 54.8795 23.5811 54.5531 23.1785 54.5531C22.7757 54.5531 22.4492 54.8795 22.4492 55.282C22.4492 55.6845 22.7757 56.0108 23.1785 56.0108Z" fill="white"/>
<path d="M21.2511 56.3232C21.6107 56.3232 21.9023 56.0319 21.9023 55.6725C21.9023 55.313 21.6107 55.0216 21.2511 55.0216C20.8915 55.0216 20.6001 55.313 20.6001 55.6725C20.6001 56.0319 20.8915 56.3232 21.2511 56.3232Z" fill="white"/>
<path d="M19.4288 56.0889C19.7308 56.0889 19.9757 55.8442 19.9757 55.5423C19.9757 55.2405 19.7308 54.9957 19.4288 54.9957C19.1267 54.9957 18.8818 55.2405 18.8818 55.5423C18.8818 55.8442 19.1267 56.0889 19.4288 56.0889Z" fill="white"/>
<path d="M17.9178 55.4121C18.2055 55.4121 18.4386 55.179 18.4386 54.8915C18.4386 54.604 18.2055 54.3709 17.9178 54.3709C17.6301 54.3709 17.397 54.604 17.397 54.8915C17.397 55.179 17.6301 55.4121 17.9178 55.4121Z" fill="white"/>
<path d="M16.5373 54.5792C16.7963 54.5792 17.0062 54.3694 17.0062 54.1107C17.0062 53.8519 16.7963 53.6422 16.5373 53.6422C16.2785 53.6422 16.0686 53.8519 16.0686 54.1107C16.0686 54.3694 16.2785 54.5792 16.5373 54.5792Z" fill="white"/>
</g>
<g clip-path="url(#clip1_266_2)">
<path d="M125.967 45H92.0329C89.8056 45 88 46.7798 88 48.9753V64.0247C88 66.2202 89.8056 68 92.0329 68H125.967C128.194 68 130 66.2202 130 64.0247V48.9753C130 46.7798 128.194 45 125.967 45Z" fill="#0A0B09"/>
<path d="M126.074 58.4746C125.524 58.4746 125.079 58.9176 125.079 59.4642C125.079 60.0107 125.524 60.4539 126.074 60.4539C126.623 60.4539 127.069 60.0107 127.069 59.4642C127.069 58.9176 126.623 58.4746 126.074 58.4746ZM122.801 57.7095C122.801 56.9612 122.157 56.3547 121.364 56.3547C120.571 56.3547 119.928 56.9612 119.928 57.7095C119.928 58.4578 120.571 59.0644 121.364 59.0644C122.158 59.0644 122.801 58.4578 122.801 57.7095ZM122.806 55.0762H124.391V60.3425H122.806V60.0059C122.358 60.3097 121.817 60.4883 121.234 60.4883C119.691 60.4883 118.441 59.2442 118.441 57.7094C118.441 56.1747 119.691 54.9307 121.234 54.9307C121.817 54.9307 122.358 55.1092 122.806 55.4131V55.0762ZM110.12 55.7622V55.0763H108.497V60.3425H110.124V57.8838C110.124 57.0542 111.028 56.6084 111.655 56.6084C111.661 56.6084 111.667 56.609 111.674 56.6091V55.0767C111.03 55.0767 110.438 55.3508 110.12 55.7622ZM106.077 57.7095C106.077 56.9612 105.434 56.3547 104.641 56.3547C103.847 56.3547 103.204 56.9612 103.204 57.7095C103.204 58.4578 103.847 59.0645 104.641 59.0645C105.434 59.0645 106.077 58.4578 106.077 57.7095ZM106.082 55.0763H107.668V60.3425H106.082V60.0059C105.635 60.3097 105.094 60.4883 104.511 60.4883C102.968 60.4883 101.717 59.2442 101.717 57.7095C101.717 56.1747 102.968 54.9307 104.511 54.9307C105.094 54.9307 105.635 55.1093 106.082 55.4131V55.0763ZM115.624 54.9346C114.991 54.9346 114.391 55.1302 113.991 55.6696V55.0766H112.412V60.3426H114.01V57.5751C114.01 56.7743 114.55 56.3821 115.2 56.3821C115.897 56.3821 116.297 56.7961 116.297 57.5642V60.3426H117.881V56.9937C117.881 55.7681 116.901 54.9346 115.624 54.9346ZM99.4081 60.3426H101.067V52.7295H99.4081V60.3426ZM92.1196 60.3446H93.8765V52.728H92.1196V60.3446ZM98.2647 52.728C98.2647 54.377 97.6187 55.9109 96.4675 57.051L98.896 60.3449H96.726L94.0867 56.7652L94.7679 56.2578C95.8975 55.4161 96.5454 54.1296 96.5454 52.728L98.2647 52.728Z" fill="white"/>
</g>
<mask id="mask3_266_2" style="mask-type:luminance" maskUnits="userSpaceOnUse" x="137" y="50" width="43" height="12">
<path d="M179.461 50.7768H137.081V61.1649H179.461V50.7768Z" fill="white"/>
</mask>
<g mask="url(#mask3_266_2)">
<path d="M142.699 54.7841V54.6704C142.699 53.3622 142.109 52.737 141.18 52.737C140.251 52.737 139.647 53.4051 139.647 54.6561V54.7698C139.647 56.0351 140.222 56.6753 141.18 56.6753C142.139 56.6753 142.699 56.0072 142.699 54.7841ZM142.124 50.8173C143.923 50.8173 145.383 52.1254 145.383 54.6704V54.7841C145.383 57.3433 143.923 58.623 142.109 58.623C140.944 58.623 140.104 58.0972 139.72 57.3577V60.9404H137.081V51.0161H139.72V52.1248C140.162 51.4145 140.959 50.8173 142.124 50.8173Z" fill="white"/>
<path d="M151.683 54.7293V54.6156C151.683 53.3217 151.123 52.6966 150.238 52.6966C149.309 52.6966 148.763 53.336 148.763 54.6299V54.7437C148.763 55.9946 149.323 56.6348 150.193 56.6348C151.063 56.6348 151.683 55.9954 151.683 54.7293ZM146.079 54.7723V54.6585C146.079 52.1272 147.583 50.7768 149.309 50.7768C150.473 50.7768 151.167 51.2603 151.609 52.0135V50.9756H154.249V58.4116H151.609V57.2171C151.211 57.9709 150.4 58.5818 149.294 58.5818C147.583 58.5818 146.079 57.3451 146.079 54.7716" fill="white"/>
<path d="M159.528 54.9831L161.003 51.0162H163.525L159.395 60.9405H156.874L158.157 57.6989L155.075 51.0162H157.935L159.528 54.9831Z" fill="white"/>
<path d="M163.661 58.4521V56.6897L167.17 52.936H164.089L164.074 51.0162H170.252V52.893L166.89 56.5187H170.503V58.4521H163.661Z" fill="white"/>
<path d="M171.748 57.4542C171.779 55.4064 173.387 53.7284 175.573 53.7284C177.759 53.7284 179.461 55.4064 179.461 57.4542C179.461 59.502 177.806 61.165 175.573 61.165C173.341 61.165 171.748 59.5176 171.748 57.4542Z" fill="#D0FA02"/>
</g>
<path d="M45.0384 78.166C44.4612 77.5873 43.5875 77.2954 42.4422 77.2954H39.443L38.3279 86.1527H34.3988L34.6514 84.1432H37.0182L37.2986 81.8861L34.9332 81.8911L35.1864 79.8906H37.6244L37.9487 77.2959H32.9978L31.9392 85.6976H30.1224L31.188 77.2955H28.6L27.5415 85.6972H25.7715L26.8382 77.2955H24.2515L23.1352 86.1528H19.1778L19.428 84.1432H21.8043L22.0851 81.899L19.711 81.8956L19.9629 79.891H22.4282L22.7505 77.2953H7.32243L6.4443 84.314L4.69552 77.2953H2.01037L0.565186 88.7498H3.12954L4.00427 81.5375L5.70126 88.7498H14.8917L16.0091 79.8899H17.4464L16.329 88.7498H40.5108L41.2119 83.1571L42.346 88.7498H44.9117L43.7365 84.1799L44.0054 84.0952C44.5976 83.9095 45.0595 83.5106 45.3811 82.9124C45.7024 82.3088 45.8661 81.5339 45.8661 80.6031C45.8661 79.5194 45.5952 78.722 45.0377 78.1653L45.0384 78.166ZM12.6601 86.1527H8.73479L8.98836 84.1432H11.4505L11.7296 81.8797H9.29116L9.52602 79.8911H13.4456L12.6594 86.1527L12.6601 86.1527ZM42.9244 82.2944C42.6664 82.5584 42.2923 82.6869 41.7808 82.6869H41.2736L41.6626 79.613H42.0357C42.4604 79.613 42.7702 79.7126 42.9839 79.9158C43.1507 80.0752 43.3491 80.3904 43.3491 80.9865C43.3485 81.7077 43.1177 82.0951 42.9237 82.2944L42.9244 82.2944Z" fill="#83BA3B"/>
<path d="M55.7055 79.2086C55.824 79.1543 55.948 79.1139 56.0737 79.0873C56.1844 78.5146 56.4734 78.0022 56.8911 77.6381C57.3123 77.2703 57.8349 77.0704 58.3731 77.0712C58.9138 77.0712 59.4375 77.2713 59.856 77.639C60.2746 78.0058 60.5629 78.5175 60.6725 79.0873C60.9941 79.1376 61.2923 79.2983 61.524 79.5448C61.5286 79.3307 61.5189 79.1165 61.4953 78.9039C61.4306 78.0385 61.063 77.2343 60.4695 76.6601C59.8695 76.0793 59.0921 75.7681 58.2923 75.7885C57.4925 75.8062 56.7283 76.1548 56.1528 76.7646C55.5841 77.3676 55.2508 78.1893 55.2231 79.0567V79.5448C55.3731 79.4156 55.5348 79.3022 55.7055 79.2086Z" fill="white"/>
<path d="M60.2174 79.4531H56.4432C56.2447 79.4491 56.048 79.5024 55.8755 79.6059C55.6995 79.6739 55.5432 79.7893 55.421 79.9411C55.157 80.3187 55.0258 80.784 55.0528 81.2553V84.4308C55.0321 84.9109 55.1615 85.3841 55.421 85.7745C55.5558 85.9106 55.7085 86.024 55.8755 86.1097C56.0525 86.2034 56.2456 86.2556 56.4432 86.2635H60.2174C61.183 86.2635 61.694 85.6829 61.694 84.5225V81.1941C61.694 80.0338 61.2108 79.4836 60.2174 79.4531ZM105.769 80.9812V84.7068C105.765 84.9082 105.801 85.1082 105.875 85.2928C105.948 85.4773 106.058 85.6421 106.195 85.7755C106.349 85.9259 106.529 86.0412 106.724 86.1147C106.919 86.1881 107.125 86.2183 107.331 86.2034H109.572V85.531H107.358C107.236 85.5355 107.114 85.5104 107.001 85.4576C106.889 85.4048 106.788 85.3256 106.706 85.2254C106.54 85.0251 106.449 84.7636 106.45 84.4929V81.134C106.444 81.008 106.464 80.8821 106.508 80.7656C106.552 80.6492 106.62 80.5453 106.706 80.4616C106.787 80.371 106.885 80.2998 106.992 80.2526C107.1 80.2054 107.215 80.1833 107.331 80.1876H109.544V79.4846H107.331C106.958 79.4886 106.594 79.6049 106.28 79.8198C106.105 79.944 105.965 80.1182 105.875 80.3236C105.785 80.5287 105.749 80.7554 105.769 80.9812ZM116.1 80.8294C116.097 80.629 116.058 80.4313 115.985 80.2477C115.911 80.064 115.806 79.8982 115.674 79.7597C115.575 79.62 115.434 79.5227 115.277 79.4846C115.099 79.4474 114.918 79.4375 114.738 79.4551H111.19V80.157H114.595C115.305 80.157 115.419 80.5839 115.419 80.8589V81.7137H112.609C111.644 81.7137 111.19 82.3249 111.19 83.6381V84.6151C111.19 85.0371 111.343 85.4433 111.616 85.745C111.739 85.9003 111.892 86.0245 112.064 86.1089C112.235 86.1933 112.421 86.2359 112.609 86.234H114.738C114.914 86.2297 115.087 86.187 115.248 86.1083C115.409 86.0295 115.554 85.9164 115.674 85.7755C115.807 85.6384 115.914 85.4729 115.987 85.2892C116.06 85.1055 116.098 84.9073 116.1 84.7068V80.8294ZM115.419 84.6457C115.413 84.7868 115.374 84.9238 115.305 85.043C115.265 85.1431 115.207 85.2328 115.134 85.3064C115.061 85.38 114.974 85.4357 114.88 85.4699C114.716 85.5291 114.541 85.5488 114.369 85.531H112.95C112.696 85.5512 112.441 85.4989 112.211 85.3792C112.104 85.2902 112.017 85.1751 111.956 85.043C111.908 84.9275 111.879 84.8032 111.871 84.6763V83.3946C111.871 83.0269 112.013 82.4472 112.922 82.4472H115.447L115.419 84.6457ZM119.505 80.1866H119.817V79.4531H119.42C119.225 79.4357 119.029 79.4619 118.844 79.5302C118.658 79.5985 118.487 79.7074 118.342 79.8504C118.143 80.0643 118.058 80.4616 118.058 81.0413V86.2024H118.711V81.0719C118.698 80.9546 118.71 80.8356 118.745 80.7239C118.78 80.6123 118.838 80.5108 118.914 80.4271C118.99 80.3421 119.083 80.2765 119.185 80.2349C119.287 80.1934 119.396 80.1769 119.505 80.1866ZM126.005 76.9489H125.352V79.4531H122.712C121.691 79.4531 121.209 79.9411 121.209 80.9792V84.6447C121.194 84.8438 121.217 85.044 121.275 85.233C121.334 85.4221 121.427 85.596 121.549 85.744C121.68 85.8968 121.839 86.0188 122.014 86.1027C122.19 86.1866 122.379 86.2306 122.57 86.232H124.642C124.827 86.2359 125.011 86.1935 125.178 86.1088C125.345 86.024 125.492 85.8997 125.607 85.744C125.883 85.4088 126.027 84.9701 126.005 84.5215V76.9489ZM125.352 84.4909C125.358 84.626 125.339 84.7612 125.295 84.8875C125.251 85.0139 125.183 85.1286 125.096 85.2244C125.013 85.3227 124.912 85.4007 124.8 85.4533C124.687 85.506 124.566 85.5321 124.444 85.53H122.599C122.496 85.5327 122.394 85.5093 122.3 85.4616C122.207 85.4139 122.125 85.3432 122.06 85.255C121.924 85.0756 121.853 84.8474 121.861 84.6142V81.1636C121.861 80.5218 122.173 80.1856 122.741 80.1856H125.352V84.4909ZM67.8808 81.5915C67.8808 81.3164 67.7668 81.1941 67.5395 81.1941H66.3485C66.2593 81.1936 66.1719 81.2218 66.0972 81.2752C66.0225 81.3287 65.9637 81.405 65.9281 81.4948C65.9056 81.5542 65.8943 81.6179 65.8949 81.6822V84.0039C65.8949 84.3391 66.0656 84.4919 66.3772 84.4919H67.4838C67.5381 84.4891 67.5912 84.4742 67.64 84.4481C67.6888 84.422 67.7323 84.3853 67.7677 84.3401C67.8069 84.3089 67.8381 84.2671 67.8581 84.2187C67.8781 84.1703 67.8862 84.117 67.8817 84.064V81.5915H67.8808ZM64.2764 81.2553C64.2723 80.7668 64.4227 80.2918 64.7021 79.9115C64.8368 79.7755 64.9895 79.6621 65.1557 79.5763C65.3331 79.4824 65.5265 79.43 65.7234 79.4225H67.9374C68.9021 79.4225 69.4132 80.0032 69.4132 81.1636V84.6753C69.4168 84.8753 69.3776 85.0735 69.2986 85.2538C69.2197 85.4341 69.1032 85.5916 68.9587 85.7134C68.6848 86.009 68.3211 86.1831 67.9374 86.2024H65.8365V88.7371H64.2755L64.2764 81.2553ZM72.2227 84.1873C72.2203 84.2355 72.2295 84.2835 72.2496 84.3265C72.2696 84.3694 72.2997 84.4058 72.3368 84.4318C72.4204 84.4939 72.5196 84.526 72.6206 84.5235H73.8125C74.0676 84.5235 74.2095 84.4012 74.2383 84.1883V83.6993C74.2383 83.4232 74.0964 83.302 73.8125 83.302H72.6197C72.5092 83.2905 72.3986 83.3231 72.308 83.3936C72.2388 83.4999 72.2084 83.6307 72.2227 83.7604V84.1873ZM74.2383 81.5609C74.2383 81.3174 74.0964 81.1951 73.8125 81.1951H70.6904V79.4846H74.2095C75.2308 79.5152 75.7419 80.0347 75.7706 81.0719V84.6457C75.7778 85.0627 75.6359 85.4679 75.3736 85.7755C75.2431 85.9278 75.0842 86.0476 74.9079 86.1266C74.7316 86.2057 74.5418 86.2423 74.3514 86.234H72.2227C71.2015 86.234 70.6616 85.7144 70.6616 84.7058V83.3335C70.6616 82.2648 71.1736 81.7462 72.1661 81.7147H74.2383V81.5609ZM80.1125 87.0582C80.2307 87.053 80.3425 86.9983 80.4251 86.9053C80.4604 86.8708 80.4888 86.8284 80.5083 86.781C80.5278 86.7336 80.538 86.6823 80.5382 86.6303V86.233H78.5514C78.3402 86.2391 78.1295 86.2081 77.9272 86.1413C77.7425 86.0626 77.5772 85.9373 77.4448 85.7755C77.3056 85.6017 77.1908 85.406 77.1044 85.1948C77.0318 84.9799 76.9935 84.7527 76.9912 84.5235V79.4541H78.5514V83.9733C78.5514 84.3401 78.6933 84.5235 78.9781 84.5235H80.0846C80.1477 84.5238 80.2103 84.5105 80.2687 84.4843C80.3271 84.4581 80.3803 84.4194 80.4251 84.3706C80.5033 84.3028 80.5542 84.2041 80.567 84.0956V79.4541H82.0993V86.9053C82.1164 87.3884 81.9753 87.8646 81.7023 88.2491C81.5765 88.4177 81.4167 88.5528 81.2352 88.6435C81.0519 88.7336 80.8521 88.7761 80.6514 88.7677H77.0191V87.0582H80.1125ZM83.2912 84.5235H86.0442C86.2993 84.5235 86.4412 84.4012 86.4412 84.1873V84.0345C86.4432 83.9818 86.4337 83.9294 86.4133 83.8816C86.3946 83.8312 86.3635 83.7874 86.3236 83.7551C86.2837 83.7228 86.2364 83.7031 86.187 83.6983H84.8244C84.4328 83.7041 84.0551 83.5396 83.7735 83.2408C83.6384 83.1226 83.5278 82.974 83.4493 82.8051C83.3708 82.6368 83.3267 82.4517 83.3199 82.2628V80.9812C83.3478 79.9726 83.831 79.4846 84.8244 79.4531H88.031V81.1636H85.3068C84.9942 81.1636 84.8244 81.2553 84.8244 81.4692V81.622C84.8244 81.8359 84.9951 81.9572 85.3068 81.9572H86.6684C86.8463 81.9552 87.0223 81.9957 87.1849 82.0755C87.3466 82.1544 87.4903 82.2707 87.6052 82.4156C87.8567 82.6947 87.9996 83.0663 88.0022 83.4538V84.7058C87.9735 85.1002 87.8118 85.4689 87.5487 85.745C87.4282 85.8943 87.2839 86.0183 87.1229 86.1107C86.9217 86.1827 86.7097 86.2142 86.4987 86.2024H83.2921L83.2912 84.5235ZM90.6986 84.1873C90.6961 84.2355 90.7053 84.2836 90.7254 84.3266C90.7454 84.3695 90.7756 84.4059 90.8127 84.4318C90.8964 84.4939 90.9955 84.526 91.0965 84.5235H92.2884C92.5435 84.5235 92.6854 84.4012 92.7142 84.1883V83.6993C92.7142 83.4232 92.5723 83.302 92.2884 83.302H91.0965C90.9857 83.2902 90.8747 83.3228 90.784 83.3936C90.7147 83.4998 90.6842 83.6307 90.6986 83.7604V84.1873ZM92.7142 81.5609C92.7142 81.3174 92.5723 81.1951 92.2884 81.1951H89.1663V79.4846H92.6854C93.7076 79.5152 94.2178 80.0347 94.2465 81.0719V84.6457C94.2537 85.0627 94.1118 85.4679 93.8495 85.7755C93.7198 85.929 93.5611 86.0495 93.3846 86.1287C93.208 86.2079 93.0179 86.2438 92.8274 86.234H90.6986C89.6774 86.234 89.1376 85.7144 89.1376 84.7058V83.3335C89.1376 82.2648 89.6495 81.7462 90.642 81.7147H92.7142V81.5609ZM95.495 78.5076C95.4906 78.2956 95.532 78.0855 95.6159 77.8944C95.6997 77.7033 95.8236 77.5368 95.9773 77.4084C96.3173 77.118 96.7387 76.9667 97.1692 76.9805H98.1627V78.6289H97.5671C97.5028 78.6194 97.4373 78.625 97.375 78.6454C97.3128 78.6658 97.2552 78.7005 97.2061 78.7472C97.158 78.7933 97.1197 78.8503 97.0937 78.9143C97.0678 78.9784 97.055 79.0478 97.0561 79.1179V79.4846H98.1627V81.1941H97.0561V86.2626H95.495V78.5076ZM102.534 81.5303V81.5007C102.536 81.4566 102.527 81.4128 102.506 81.3746C102.486 81.3364 102.456 81.3056 102.42 81.2858C102.345 81.2283 102.256 81.1964 102.165 81.1941H101.087C101.026 81.1882 100.964 81.196 100.905 81.217C100.847 81.238 100.792 81.2718 100.746 81.3164C100.697 81.3478 100.655 81.3921 100.625 81.4455C100.595 81.4988 100.578 81.5595 100.575 81.622V82.324L102.534 81.5303ZM100.633 83.9428V84.0345C100.627 84.0961 100.634 84.1583 100.654 84.2164C100.674 84.2745 100.705 84.3269 100.746 84.3697C100.802 84.4623 100.859 84.5235 100.944 84.5235H104.124V86.233H100.746C100.506 86.2426 100.267 86.2117 100.036 86.1413C99.8459 86.0714 99.6715 85.9571 99.5252 85.8061C99.3739 85.6544 99.257 85.466 99.1839 85.256C99.1192 84.9977 99.0908 84.73 99.0995 84.4623V81.0413C99.1282 80.0032 99.6105 79.4836 100.604 79.4541H102.704C103.67 79.4836 104.152 80.0032 104.18 81.1025V82.4462L100.633 83.9428Z" fill="white"/>
<mask id="mask4_266_2" style="mask-type:luminance" maskUnits="userSpaceOnUse" x="134" y="74" width="18" height="20">
<path d="M151.949 74.0952H134.312V93.1247H151.949V74.0952Z" fill="white"/>
</mask>
<g mask="url(#mask4_266_2)">
<path d="M151.685 85.9117C150.507 91.0089 145.722 94.1109 140.997 92.8399C136.274 91.5691 133.398 86.4061 134.577 81.3093C135.754 76.2115 140.539 73.1092 145.263 74.38C149.988 75.6507 152.863 80.8142 151.685 85.9117Z" fill="#F7931A"/>
<path d="M147.02 82.2544C147.195 80.9882 146.302 80.3075 145.08 79.8535L145.476 78.1383L144.509 77.8782L144.123 79.5482C143.868 79.4797 143.607 79.4152 143.347 79.3513L143.736 77.6702L142.769 77.4101L142.372 79.1247C142.162 79.073 141.955 79.0219 141.754 78.968L141.755 78.9626L140.421 78.6031L140.163 79.7182C140.163 79.7182 140.881 79.8958 140.866 79.9067C141.258 80.0122 141.329 80.2921 141.317 80.5139L140.866 82.468C140.893 82.4753 140.928 82.486 140.966 82.5028C140.934 82.4941 140.9 82.4847 140.864 82.4755L140.231 85.2127C140.183 85.3412 140.062 85.534 139.788 85.4608C139.797 85.4759 139.084 85.2714 139.084 85.2714L138.604 86.4665L139.863 86.8053C140.097 86.8687 140.327 86.935 140.553 86.9973L140.153 88.7322L141.119 88.9923L141.516 87.2759C141.78 87.3532 142.036 87.4246 142.287 87.4919L141.892 89.2002L142.86 89.4603L143.26 87.7287C144.91 88.0657 146.151 87.9298 146.674 86.3195C147.094 85.023 146.653 84.2751 145.784 83.7874C146.417 83.6301 146.893 83.1812 147.02 82.2544ZM144.809 85.5994C144.51 86.896 142.486 86.1951 141.83 86.0194L142.362 83.721C143.017 83.8977 145.121 84.2473 144.809 85.5994ZM145.108 82.2356C144.835 83.4149 143.151 82.8158 142.605 82.6688L143.087 80.5843C143.633 80.7313 145.392 81.0055 145.108 82.2356Z" fill="white"/>
</g>
<mask id="mask5_266_2" style="mask-type:luminance" maskUnits="userSpaceOnUse" x="160" y="73" width="19" height="20">
<path d="M178.688 73.6393H160.312V92.2767H178.688V73.6393Z" fill="white"/>
</mask>
<g mask="url(#mask5_266_2)">
<path d="M169.5 91.2681C174.025 91.2681 177.693 87.5476 177.693 82.958C177.693 78.3685 174.025 74.6479 169.5 74.6479C164.975 74.6479 161.307 78.3685 161.307 82.958C161.307 87.5476 164.975 91.2681 169.5 91.2681Z" fill="white"/>
<path d="M169.5 73.6393C167.683 73.6393 165.907 74.1858 164.396 75.2098C162.885 76.2338 161.707 77.6891 161.012 79.3919C160.316 81.0947 160.135 82.9683 160.489 84.776C160.844 86.5836 161.719 88.2441 163.003 89.5473C164.288 90.8506 165.925 91.7381 167.708 92.0977C169.49 92.4572 171.337 92.2727 173.016 91.5674C174.695 90.8621 176.13 89.6677 177.139 88.1352C178.149 86.6028 178.688 84.8011 178.688 82.958C178.691 81.7379 178.458 80.5289 178 79.4002C177.543 78.2715 176.871 77.2452 176.023 76.3799C175.175 75.5146 174.167 74.8272 173.057 74.3569C171.947 73.8867 170.756 73.6429 169.553 73.6393H169.5ZM169.656 83.2739L168.699 86.5456H173.816C173.85 86.5444 173.883 86.55 173.915 86.562C173.947 86.5741 173.976 86.5924 174.001 86.6159C174.026 86.6393 174.046 86.6675 174.06 86.6989C174.074 86.7301 174.081 86.764 174.083 86.7983V86.8841L173.638 88.4409C173.618 88.5146 173.574 88.5793 173.514 88.6243C173.453 88.6695 173.379 88.6923 173.304 88.6892H165.474L166.786 84.1539L165.318 84.6052L165.651 83.5672L167.12 83.116L168.966 76.7531C168.986 76.6799 169.03 76.6157 169.091 76.5707C169.151 76.5257 169.225 76.5025 169.3 76.5049H171.28C171.314 76.5037 171.347 76.5092 171.379 76.5213C171.411 76.5334 171.44 76.5516 171.465 76.5751C171.49 76.5986 171.51 76.6268 171.524 76.6581C171.538 76.6894 171.545 76.7232 171.547 76.7576V76.8433L169.989 82.2134L171.458 81.7621L171.146 82.8452L169.656 83.2739Z" fill="#345D9D"/>
</g>
<defs>
<clipPath id="clip0_266_2">
<rect width="22" height="22" fill="white" transform="translate(126 10)"/>
</clipPath>
<clipPath id="clip1_266_2">
<rect width="42" height="23" fill="white" transform="translate(88 45)"/>
</clipPath>
</defs>
</svg>
