<svg xmlns="http://www.w3.org/2000/svg" width="202" height="68" fill="none"><path fill="#1434CB" d="M24.726 2.86c-2.654 0-5.037 1.423-5.037 4.033 0 3.007 4.21 3.212 4.21 4.708 0 .63-.714 1.202-1.913 1.202-1.712 0-2.997-.792-2.997-.792l-.542 2.64s1.47.674 3.44.674c2.91 0 5.194-1.48 5.194-4.15 0-3.167-4.224-3.372-4.224-4.765 0-.499.585-1.042 1.784-1.042 1.355 0 2.468.572 2.468.572l.542-2.551c-.014 0-1.227-.528-2.925-.528ZM.41 3.052l-.072.382s1.113.205 2.127.63c1.298.484 1.384.763 1.612 1.628l2.383 9.43h3.197l4.895-12.07h-3.183l-3.153 8.212L6.93 4.298c-.114-.792-.713-1.247-1.455-1.247H.41Zm15.426 0-2.498 12.07h3.04l2.483-12.07h-3.025Zm16.924 0c-.728 0-1.113.396-1.398 1.1l-4.453 10.97h3.183l.613-1.834h3.882l.37 1.833h2.812l-2.44-12.069H32.76Zm.414 3.27.942 4.532H31.59l1.584-4.531Z"/><path fill="#FFB600" d="M67.806 10.364c0 4.116-3.257 7.481-7.328 7.481-4.033 0-7.329-3.365-7.329-7.481 0-4.117 3.257-7.482 7.29-7.482 4.11 0 7.367 3.365 7.367 7.482Z"/><path fill="#F7981D" d="M60.478 2.882c4.032 0 7.328 3.365 7.328 7.482 0 4.116-3.257 7.481-7.328 7.481-4.033 0-7.329-3.365-7.329-7.481"/><path fill="#FF8500" d="M60.478 2.882c4.032 0 7.328 3.365 7.328 7.482 0 4.116-3.257 7.481-7.328 7.481"/><path fill="#FF5050" d="M50.63 2.882c-3.995.04-7.252 3.365-7.252 7.482 0 4.116 3.257 7.481 7.329 7.481 1.9 0 3.606-.752 4.924-1.94.271-.237.504-.514.737-.791h-1.513a9.117 9.117 0 0 1-.542-.752h2.597a5.11 5.11 0 0 0 .427-.792h-3.45a4.772 4.772 0 0 1-.311-.792h4.032c.233-.752.388-1.543.388-2.375 0-.554-.077-1.068-.155-1.583h-4.498c.04-.277.117-.515.194-.792h4.033a4.774 4.774 0 0 0-.31-.791h-3.413c.117-.277.272-.515.427-.792h2.598a3.758 3.758 0 0 0-.582-.792h-1.434c.232-.277.465-.514.736-.752-1.28-1.227-3.024-1.94-4.924-1.94 0-.079 0-.079-.039-.079Z"/><path fill="#E52836" d="M43.378 10.364c0 4.116 3.257 7.48 7.329 7.48 1.9 0 3.606-.751 4.924-1.939.271-.237.504-.514.737-.791h-1.513a9.117 9.117 0 0 1-.542-.753h2.597c.156-.237.31-.514.427-.791h-3.45a4.773 4.773 0 0 1-.311-.792h4.032c.233-.752.388-1.544.388-2.375 0-.554-.077-1.069-.155-1.583h-4.498c.04-.277.117-.515.194-.792h4.033a4.772 4.772 0 0 0-.31-.791h-3.413c.117-.278.272-.515.427-.792h2.598a3.756 3.756 0 0 0-.582-.792h-1.434c.232-.277.465-.514.736-.752-1.28-1.227-3.024-1.94-4.924-1.94h-.039"/><path fill="#CB2026" d="M50.707 17.845c1.9 0 3.606-.752 4.924-1.94.272-.237.504-.514.737-.791h-1.512a9.14 9.14 0 0 1-.543-.753h2.598c.155-.237.31-.514.426-.791h-3.45a4.782 4.782 0 0 1-.31-.792h4.032c.232-.752.387-1.544.387-2.375 0-.554-.077-1.069-.155-1.583h-4.497c.038-.277.116-.515.193-.792h4.033a4.763 4.763 0 0 0-.31-.791h-3.412c.116-.278.271-.515.426-.792h2.598a3.76 3.76 0 0 0-.582-.792h-1.434c.232-.277.465-.514.736-.752-1.28-1.227-3.024-1.94-4.924-1.94h-.039"/><path fill="#fff" d="m53.305 12.264.116-.673c-.039 0-.116.04-.194.04-.271 0-.31-.159-.271-.238l.232-1.386h.427l.116-.752h-.388l.078-.475h-.776s-.465 2.613-.465 2.93c0 .474.272.672.62.672.233 0 .427-.079.505-.118Zm.271-1.267c0 1.108.737 1.385 1.357 1.385.582 0 .814-.118.814-.118l.156-.752s-.427.197-.815.197c-.853 0-.698-.633-.698-.633h1.59s.116-.514.116-.712c0-.515-.271-1.148-1.124-1.148-.814-.08-1.396.791-1.396 1.781Zm1.357-1.148c.427 0 .35.515.35.554h-.854c0-.04.078-.554.504-.554Zm4.924 2.415.156-.871s-.388.198-.66.198c-.543 0-.775-.436-.775-.91 0-.95.465-1.465 1.008-1.465.388 0 .698.237.698.237l.116-.831s-.465-.198-.892-.198c-.891 0-1.783.792-1.783 2.296 0 .99.465 1.662 1.396 1.662.31 0 .736-.118.736-.118ZM49.04 9.137c-.542 0-.93.158-.93.158l-.116.673s.349-.158.853-.158c.271 0 .504.04.504.277 0 .158-.04.197-.04.197h-.348c-.66 0-1.396.278-1.396 1.188 0 .713.465.87.737.87.543 0 .775-.355.814-.355l-.039.316h.698l.31-2.177c0-.95-.775-.99-1.047-.99Zm.156 1.78c0 .12-.078.753-.543.753-.233 0-.31-.198-.31-.317 0-.198.116-.475.697-.475.117.04.156.04.156.04Zm1.628 1.426c.194 0 1.163.04 1.163-1.03 0-.989-.93-.791-.93-1.187 0-.198.155-.277.426-.277.117 0 .543.04.543.04l.116-.713s-.271-.079-.736-.079c-.582 0-1.163.238-1.163 1.03 0 .91.969.83.969 1.187 0 .237-.272.277-.465.277-.35 0-.698-.119-.698-.119l-.117.713c.04.079.233.158.892.158Zm15.47-3.84-.154 1.069s-.31-.396-.737-.396c-.698 0-1.318.871-1.318 1.9 0 .633.31 1.306.97 1.306.464 0 .736-.316.736-.316l-.039.277h.775l.582-3.8-.814-.04Zm-.348 2.098c0 .436-.194.99-.62.99-.272 0-.427-.238-.427-.634 0-.633.272-1.029.62-1.029.272 0 .427.198.427.673Zm-21.132 1.702.465-2.85.078 2.85h.543l1.008-2.85-.427 2.85h.815l.62-3.8h-1.28l-.775 2.336-.039-2.336h-1.124l-.62 3.8h.736Zm12.02 0c.233-1.306.272-2.375.814-2.177.078-.514.194-.712.272-.91h-.155c-.35 0-.62.475-.62.475l.077-.436h-.737l-.504 3.088h.853v-.04Zm4.808-3.166c-.543 0-.93.158-.93.158l-.117.673s.35-.158.853-.158c.272 0 .504.04.504.277 0 .158-.038.197-.038.197h-.35c-.659 0-1.395.278-1.395 1.188 0 .713.465.87.736.87.543 0 .776-.355.815-.355l-.04.316h.699l.31-2.177c.039-.95-.776-.99-1.047-.99Zm.194 1.78c0 .12-.078.753-.543.753-.233 0-.31-.198-.31-.317 0-.198.116-.475.698-.475.116.04.116.04.155.04Zm1.512 1.386c.233-1.306.271-2.375.814-2.177.078-.514.194-.712.272-.91h-.155c-.35 0-.62.475-.62.475l.077-.436h-.737l-.504 3.088h.853v-.04Z"/><path fill="#DCE5E5" d="M52.103 11.71c0 .474.271.672.62.672.271 0 .504-.079.582-.118l.116-.673c-.039 0-.116.04-.194.04-.271 0-.31-.159-.271-.238l.232-1.386h.427l.116-.752h-.388l.078-.475m.543 2.217c0 1.108.349 1.385.97 1.385.58 0 .813-.118.813-.118l.156-.752s-.427.197-.815.197c-.853 0-.698-.633-.698-.633h1.59s.116-.514.116-.712c0-.515-.271-1.148-1.124-1.148-.814-.08-1.008.791-1.008 1.781Zm.97-1.148c.426 0 .503.515.503.554H54.43c0-.04.078-.554.504-.554Zm4.923 2.415.156-.871s-.388.198-.66.198c-.543 0-.775-.436-.775-.91 0-.95.465-1.465 1.008-1.465.388 0 .698.237.698.237l.116-.831s-.465-.198-.892-.198c-.891 0-1.395.792-1.395 2.296 0 .99.077 1.662 1.008 1.662.31 0 .736-.118.736-.118Zm-11.864-2.257s.349-.158.853-.158c.271 0 .504.04.504.277 0 .159-.04.198-.04.198h-.348c-.66 0-1.396.277-1.396 1.188 0 .712.465.87.737.87.543 0 .775-.356.814-.356l-.039.317h.698l.31-2.177c0-.91-.775-.95-1.085-.95m.581 1.702c0 .119-.465.752-.93.752-.233 0-.31-.198-.31-.317 0-.198.116-.475.697-.475.117.04.543.04.543.04Zm.388 1.346s.233.079.892.079c.194 0 1.163.04 1.163-1.03 0-.989-.93-.791-.93-1.187 0-.198.155-.277.426-.277.116 0 .543.04.543.04l.116-.713s-.271-.079-.736-.079c-.582 0-.776.238-.776 1.03 0 .91.582.83.582 1.187 0 .237-.272.277-.466.277M66.14 9.572s-.31-.396-.737-.396c-.698 0-.93.871-.93 1.9 0 .633-.078 1.306.581 1.306.465 0 .737-.316.737-.316l-.039.277h.775l.582-3.8M66.1 10.6c0 .436-.349.99-.775.99-.272 0-.427-.238-.427-.634 0-.633.272-1.029.62-1.029.272 0 .582.198.582.673Zm-21.287 1.702.465-2.85.078 2.85h.543l1.008-2.85-.427 2.85h.815l.62-3.8h-.97L45.86 10.84l-.039-2.336h-.426l-1.319 3.8h.737Zm11.206 0h.814c.233-1.306.272-2.375.814-2.177.078-.514.194-.712.272-.91h-.155c-.35 0-.62.475-.62.475l.077-.436m3.373.752s.35-.158.853-.158c.272 0 .504.04.504.277 0 .159-.038.198-.038.198h-.35c-.659 0-1.395.277-1.395 1.188 0 .712.465.87.736.87.543 0 .776-.356.815-.356l-.04.317h.699l.31-2.177c0-.91-.776-.95-1.086-.95m.582 1.702c0 .119-.465.752-.93.752-.233 0-.31-.198-.31-.317 0-.198.115-.475.697-.475.155.04.543.04.543.04Zm.349 1.385h.814c.233-1.306.271-2.375.814-2.177.078-.514.194-.712.272-.91h-.155c-.35 0-.62.475-.62.475l.077-.436"/><path fill="#872165" d="M100.753 18.067h3.41V7.476h-3.41v10.591Zm-1.93-10.743c-3.152.114-4.754 1.676-4.754 4.78v5.963h3.445V13.21c0-1.867.224-2.667 2.222-2.743V7.362a4.258 4.258 0 0 0-.706-.057l-.207.019ZM73 8.2c0 1.219.482 4.095 4.875 4.438.38.02 1.361.095 1.361 1.124 0 .838-.81 1.352-2.17 1.352a10.656 10.656 0 0 1-3.825-.838v3.391c1.482.4 3.015.59 4.548.571 3.755 0 5.444-2.342 5.444-4.666 0-2.63-1.895-4.343-5.048-4.572-.43-.038-1.43-.095-1.43-1.105 0-1.2 1.43-1.2 1.982-1.2.947 0 2.17.305 3.049.61 0 0 .482.19.913.38l.034.02V4.39l-.052-.019c-1.033-.4-2.239-.78-4.461-.78C74.36 3.59 73 6.065 73 8.2Zm11.094-3.848v13.715h3.514V13.82c1.017 1.695 1.534 4.248 1.534 4.248h4.22c-.413-1.924-2.24-5.448-2.24-5.448 1.086-1.543 1.913-3.276 2.481-5.143h-4.048a13.711 13.711 0 0 1-1.947 3.696V3.59l-3.514.762Zm21.517-.095v13.81h3.41V3.59l-3.41.667Zm4.978 0v13.81H114V3.59l-3.411.667Zm-8.131-1.524c-.93 0-1.688.838-1.688 1.867 0 1.028.758 1.866 1.688 1.866.93 0 1.688-.838 1.688-1.866-.017-1.029-.758-1.867-1.688-1.867Z"/><mask id="a" width="41" height="17" x="73" y="2" maskUnits="userSpaceOnUse" style="mask-type:luminance"><path fill="#fff" d="M100.753 18.067h3.41V7.476h-3.41v10.591Zm-1.93-10.743c-3.152.114-4.754 1.676-4.754 4.78v5.963h3.445V13.21c0-1.867.224-2.667 2.222-2.743V7.362a4.258 4.258 0 0 0-.706-.057l-.207.019ZM73 8.2c0 1.219.482 4.095 4.875 4.438.38.02 1.361.095 1.361 1.124 0 .838-.81 1.352-2.17 1.352a10.656 10.656 0 0 1-3.825-.838v3.391c1.482.4 3.015.59 4.548.571 3.755 0 5.444-2.342 5.444-4.666 0-2.63-1.895-4.343-5.048-4.572-.43-.038-1.43-.095-1.43-1.105 0-1.2 1.43-1.2 1.982-1.2.947 0 2.17.305 3.049.61 0 0 .482.19.913.38l.034.02V4.39l-.052-.019c-1.033-.4-2.239-.78-4.461-.78C74.36 3.59 73 6.065 73 8.2Zm11.094-3.848v13.715h3.514V13.82c1.017 1.695 1.534 4.248 1.534 4.248h4.22c-.413-1.924-2.24-5.448-2.24-5.448 1.086-1.543 1.913-3.276 2.481-5.143h-4.048a13.711 13.711 0 0 1-1.947 3.696V3.59l-3.514.762Zm21.517-.095v13.81h3.41V3.59l-3.41.667Zm4.978 0v13.81H114V3.59l-3.411.667Zm-8.131-1.524c-.93 0-1.688.838-1.688 1.867 0 1.028.758 1.866 1.688 1.866.93 0 1.688-.838 1.688-1.866-.017-1.029-.758-1.867-1.688-1.867Z"/></mask><g mask="url(#a)"><path fill="#872165" d="M114 2.733H73v15.486h41V2.733Z"/></g><g clip-path="url(#b)"><mask id="c" width="20" height="19" x="118" y="0" maskUnits="userSpaceOnUse" style="mask-type:luminance"><path fill="#fff" d="M138 0h-19v19h19V0Z"/></mask><g mask="url(#c)"><path fill="#FDB913" d="M120.853.324h15.294a1.526 1.526 0 0 1 1.529 1.53v15.293a1.529 1.529 0 0 1-1.529 1.53h-15.294a1.527 1.527 0 0 1-1.529-1.53V1.853a1.526 1.526 0 0 1 1.529-1.53Z"/><path fill="#fff" d="M136.147.324a1.527 1.527 0 0 1 1.529 1.53v15.293a1.529 1.529 0 0 1-1.529 1.53h-15.294a1.525 1.525 0 0 1-1.413-.945 1.526 1.526 0 0 1-.116-.585V1.853a1.527 1.527 0 0 1 1.529-1.53h15.294Zm0-.324h-15.294A1.857 1.857 0 0 0 119 1.853v15.294A1.858 1.858 0 0 0 120.853 19h15.294A1.858 1.858 0 0 0 138 17.147V1.853A1.854 1.854 0 0 0 136.147 0Z"/><path fill="#231F20" d="m129.571 9.698-.002-3.286.858-.203v.43s.222-.566.738-.697a.492.492 0 0 1 .238-.017v.839a1.2 1.2 0 0 0-.449.093c-.317.126-.476.399-.476.816v1.814l-.907.211ZM125.05 10.767s-.14-.21-.14-.949V8.182l-.441.105v-.674l.442-.104v-.735l.912-.216v.735l.645-.153v.673l-.645.153v1.666c0 .758.201.903.201.903l-.974.232ZM126.563 8.812c0-.584.083-1.01.262-1.338.212-.388.56-.64 1.068-.756 1.001-.228 1.362.365 1.348 1.159-.006.284-.004.422-.004.422l-1.763.414v.029c0 .555.116.818.468.743.304-.064.388-.254.412-.49.004-.037.006-.134.006-.134l.826-.198s.002.068 0 .144c-.007.315-.098 1.097-1.246 1.369-1.087.258-1.377-.406-1.377-1.364Zm1.367-1.482c-.292.066-.446.353-.452.827l.887-.21.001-.144c-.001-.358-.112-.547-.436-.473ZM134.49 6.89c-.034-1 .226-1.795 1.342-2.048.712-.161.982.024 1.119.203.131.17.182.4.182.723l.001.06-.873.207-.001-.122c.001-.382-.106-.528-.384-.458-.33.083-.463.397-.463 1.02l.001.29c0 .634.086.924.467.845.33-.069.375-.359.381-.613l.002-.167.872-.207.001.137c-.002.83-.44 1.354-1.26 1.545-1.13.265-1.352-.388-1.387-1.415ZM131.471 8.291c0-.76.446-1.002 1.117-1.28.603-.249.616-.373.619-.59.003-.182-.081-.339-.382-.262a.455.455 0 0 0-.364.43 1.898 1.898 0 0 0-.005.169l-.847.2a1.721 1.721 0 0 1 .059-.5c.135-.456.537-.762 1.23-.922.9-.208 1.2.187 1.201.802v1.455c0 .704.131.807.131.807l-.831.197a1.768 1.768 0 0 1-.111-.299s-.182.459-.81.606c-.658.155-1.007-.253-1.007-.813Zm1.73-1.04c-.14.1-.288.186-.442.26-.277.135-.402.302-.402.559 0 .223.138.369.389.307.269-.068.455-.319.455-.667v-.458ZM120.281 13.07a.525.525 0 0 1-.526-.548.517.517 0 0 1 .084-.266l.006-.008.01-.002 1.24-.293v.942l-.019.004c-.281.068-.618.145-.687.16a.521.521 0 0 1-.108.011ZM120.281 14.275a.524.524 0 0 1-.527-.526.52.52 0 0 1 .085-.286l.006-.01.01-.002 1.24-.292v.942l-.019.005c-.281.067-.618.145-.687.16a.556.556 0 0 1-.108.01ZM120.281 15.483a.525.525 0 0 1-.527-.527.52.52 0 0 1 .085-.286l.006-.01 1.25-.294v.942l-.019.005a47.45 47.45 0 0 1-.687.159.557.557 0 0 1-.108.01ZM120.135 11.916l-.001-5.272.961-.227v5.271l-.96.228ZM122.528 11.467a.593.593 0 1 0-1.185 0l.001 4.927a1.604 1.604 0 0 0 1.604 1.605l1.678-.002.001-2.055V13.65a.768.768 0 0 0-.344-.646l-1.496-1.016-.001 2.307a.127.127 0 0 1-.217.09.128.128 0 0 1-.038-.09l-.003-2.828Z"/><path fill="#231F20" d="M123.329 7.791a1.298 1.298 0 0 0-.855.662v-.37l-.866.204.001 2.366a.887.887 0 0 1 .912.16V9.284c0-.366.182-.659.442-.716.195-.043.359.027.359.376v2.228l.912-.213V8.602c0-.572-.22-.971-.905-.81ZM136.572 4.418a.56.56 0 0 1-.521-.348.558.558 0 0 1 .122-.614.563.563 0 1 1 .399.962Zm0-1.056a.492.492 0 1 0-.001.984.492.492 0 0 0 .001-.984Z"/><path fill="#231F20" d="M136.367 3.519h.242a.154.154 0 0 1 .13.046c.017.017.03.038.038.06.007.023.01.047.007.07 0 .09-.04.158-.115.17v.001c.069.007.105.045.108.142l.004.14c0 .011.003.023.009.033.006.01.014.02.024.026h-.124a.111.111 0 0 1-.019-.061c-.004-.041-.003-.08-.005-.13-.001-.075-.024-.108-.1-.108h-.09v.299h-.109v-.688Zm.197.306a.101.101 0 0 0 .105-.067c.005-.014.007-.03.005-.044 0-.074-.032-.112-.104-.112h-.094v.223h.088Z"/></g></g><path fill="#fff" d="m157.049 5.122-5.558-2.76-5.558 2.76v1.604h11.116V5.122ZM148.791 7.785c.165 0 .298-.151.298-.337 0-.186-.133-.337-.298-.337h-1.763c-.165 0-.299.15-.299.337 0 .186.134.337.299.337h.099v4.813h-.099c-.165 0-.299.15-.299.337 0 .186.134.336.299.336h1.763c.165 0 .298-.15.298-.336 0-.187-.133-.337-.298-.337h-.1V7.785h.1ZM152.373 7.785c.165 0 .298-.151.298-.337 0-.186-.133-.337-.298-.337h-1.763c-.165 0-.298.15-.298.337 0 .186.133.337.298.337h.1v4.813h-.1c-.165 0-.298.15-.298.337 0 .186.133.336.298.336h1.763c.165 0 .298-.15.298-.336 0-.187-.133-.337-.298-.337h-.1V7.785h.1ZM156.012 7.785c.165 0 .298-.151.298-.337 0-.186-.133-.337-.298-.337h-1.763c-.165 0-.298.15-.298.337 0 .186.133.337.298.337h.1v4.813h-.1c-.165 0-.298.15-.298.337 0 .186.133.336.298.336h1.763c.165 0 .298-.15.298-.336 0-.187-.133-.337-.298-.337h-.1V7.785h.1ZM146.218 14.49h10.547c.156 0 .284-.144.284-.32v-.193c0-.176-.128-.32-.284-.32h-10.547c-.157 0-.285.144-.285.32v.193c0 .176.128.32.285.32ZM157.504 14.876h-12.025c-.157 0-.285.144-.285.32v.29c0 .176.128.32.285.32h12.025c.157 0 .285-.144.285-.32v-.29c0-.176-.128-.32-.285-.32ZM162.48 7.178a.84.84 0 0 0-.45-.33.821.821 0 0 0 .339-.33.92.92 0 0 0 .111-.44.96.96 0 0 0-.126-.478.8.8 0 0 0-.349-.34c-.148-.074-.347-.11-.592-.11h-1.205v3.63h1.225c.205 0 .376-.02.518-.062a.93.93 0 0 0 .352-.18.855.855 0 0 0 .236-.336c.066-.148.097-.305.097-.475a.949.949 0 0 0-.156-.549Zm-1.848-1.598h.645c.23 0 .395.016.489.052a.402.402 0 0 1 .219.189c.051.09.077.196.077.318a.575.575 0 0 1-.083.317.445.445 0 0 1-.244.18 1.376 1.376 0 0 1-.407.042h-.696V5.58Zm1.498 2.455a.502.502 0 0 1-.162.202.609.609 0 0 1-.245.1c-.056.01-.153.016-.29.016h-.801V7.104h.744c.205 0 .362.02.47.061a.51.51 0 0 1 .255.212c.06.1.091.218.091.353a.69.69 0 0 1-.062.305ZM165.078 8.458c-.017-.109-.026-.372-.026-.786V7.08c0-.2-.005-.334-.019-.411a.712.712 0 0 0-.123-.305.608.608 0 0 0-.273-.199 1.204 1.204 0 0 0-.483-.08c-.202 0-.378.032-.529.093a.765.765 0 0 0-.349.266c-.08.116-.14.267-.174.453l.387.06c.042-.189.108-.317.196-.39.088-.074.227-.11.412-.11.199 0 .35.052.449.151.074.077.111.202.111.385 0 .016 0 .055-.003.116-.15.06-.386.112-.705.153a2.73 2.73 0 0 0-.349.068 1.006 1.006 0 0 0-.285.148.691.691 0 0 0-.204.256.806.806 0 0 0-.077.353.75.75 0 0 0 .207.542c.14.142.336.212.592.212.153 0 .298-.029.435-.086a1.42 1.42 0 0 0 .423-.299c.012.125.037.234.074.318h.413a1.092 1.092 0 0 1-.1-.315Zm-.421-.834c0 .196-.02.347-.062.446a.655.655 0 0 1-.262.308.76.76 0 0 1-.406.112c-.154 0-.27-.038-.35-.118a.405.405 0 0 1-.119-.299c0-.077.017-.147.054-.211a.346.346 0 0 1 .156-.145 1.24 1.24 0 0 1 .344-.09c.287-.044.503-.099.645-.167v.164ZM167.122 6.774c.031.09.046.224.046.407V8.78h.395V7.165c0-.205-.009-.35-.023-.433a.889.889 0 0 0-.122-.33.642.642 0 0 0-.265-.225.861.861 0 0 0-.386-.086c-.324 0-.572.144-.742.433V6.15h-.356V8.78h.398V7.345c0-.337.06-.565.182-.687a.608.608 0 0 1 .435-.18.47.47 0 0 1 .276.08.428.428 0 0 1 .162.216ZM170.099 8.78l-.978-1.653.889-.975h-.511l-.936 1.068V5.15h-.395v3.63h.395V7.736l.279-.302.77 1.344h.487ZM159.983 11.36h1.061v3.201h.423V11.36h1.064v-.427h-2.548v.427ZM163.352 11.962c-.077.061-.159.183-.25.37v-.399h-.355v2.628h.392v-1.376c0-.19.023-.363.065-.52a.509.509 0 0 1 .148-.244.354.354 0 0 1 .233-.086.52.52 0 0 1 .29.096l.137-.414a.714.714 0 0 0-.407-.144.398.398 0 0 0-.253.09ZM166.153 14.24c-.017-.109-.026-.372-.026-.786v-.593c0-.2-.006-.334-.02-.41a.7.7 0 0 0-.122-.306.61.61 0 0 0-.273-.199 1.204 1.204 0 0 0-.483-.08c-.202 0-.378.032-.529.093a.773.773 0 0 0-.35.266 1.17 1.17 0 0 0-.173.453l.387.061c.042-.19.108-.318.196-.392.088-.073.227-.109.412-.109.199 0 .35.052.449.151.074.077.111.202.111.385 0 .016 0 .055-.003.116-.15.06-.386.112-.705.154a2.762 2.762 0 0 0-.35.067.988.988 0 0 0-.284.148.704.704 0 0 0-.205.256.806.806 0 0 0-.076.353.75.75 0 0 0 .207.542c.14.142.336.212.592.212.153 0 .298-.029.435-.086.136-.058.278-.158.423-.299.014.122.04.231.074.318h.412a1.124 1.124 0 0 1-.099-.314Zm-.418-.837c0 .196-.02.346-.063.446a.657.657 0 0 1-.261.308.76.76 0 0 1-.407.112c-.153 0-.27-.038-.349-.118a.406.406 0 0 1-.12-.299c0-.077.017-.147.054-.212a.344.344 0 0 1 .157-.144c.068-.035.181-.064.343-.09.288-.045.504-.1.646-.167v.164ZM168.495 12.184a.644.644 0 0 0-.264-.225.869.869 0 0 0-.387-.086c-.324 0-.571.144-.742.433v-.372h-.355v2.63h.398V13.13c0-.337.059-.564.182-.686a.603.603 0 0 1 .435-.18.439.439 0 0 1 .438.295c.031.09.045.225.045.408v1.598h.395v-1.618a2.8 2.8 0 0 0-.023-.433.872.872 0 0 0-.122-.33ZM170.664 13.172a4.879 4.879 0 0 0-.585-.205 5.558 5.558 0 0 1-.35-.113.358.358 0 0 1-.151-.118.284.284 0 0 1-.048-.158c0-.09.04-.17.116-.237.08-.067.208-.103.39-.103.153 0 .27.036.355.113a.491.491 0 0 1 .154.317l.387-.06a1.041 1.041 0 0 0-.137-.408.696.696 0 0 0-.307-.24 1.175 1.175 0 0 0-.48-.09c-.123 0-.236.019-.342.054a.859.859 0 0 0-.25.132.729.729 0 0 0-.264.574c0 .128.028.247.085.353.057.106.142.189.253.25.114.06.313.132.603.215.216.061.35.112.404.15a.286.286 0 0 1 .116.238.384.384 0 0 1-.131.292c-.088.083-.221.125-.403.125-.182 0-.322-.048-.421-.14a.661.661 0 0 1-.182-.408l-.39.07c.043.28.145.491.302.635.156.142.389.212.691.212.182 0 .346-.038.492-.109a.767.767 0 0 0 .332-.304.85.85 0 0 0 .114-.42.713.713 0 0 0-.094-.383.607.607 0 0 0-.259-.234ZM172.057 11.36c.049-.059.134-.087.254-.087.073 0 .15.01.233.025l.059-.388a1.793 1.793 0 0 0-.369-.045.67.67 0 0 0-.404.11.563.563 0 0 0-.202.281 1.375 1.375 0 0 0-.042.395v.28h-.35v.346h.347v2.281h.401v-2.281h.454v-.35h-.454v-.244c0-.157.025-.266.073-.324ZM174.747 13.24c0-.434-.1-.77-.296-1.011a.934.934 0 0 0-.762-.36.969.969 0 0 0-.784.366c-.202.244-.302.587-.302 1.03 0 .43.1.76.299.998.199.237.469.356.81.356.273 0 .495-.074.668-.221.174-.148.293-.357.358-.626l-.406-.058c-.06.186-.142.324-.253.41a.553.553 0 0 1-.37.13.613.613 0 0 1-.486-.232c-.128-.154-.202-.375-.216-.664h1.737c.003-.051.003-.093.003-.119Zm-1.712-.248c.015-.228.083-.41.205-.548a.59.59 0 0 1 .458-.206c.199 0 .364.087.489.257.079.11.131.276.148.497h-1.3ZM175.836 11.962c-.077.061-.159.183-.25.37v-.399h-.356v2.628h.393v-1.376c0-.19.022-.363.065-.52a.501.501 0 0 1 .148-.244.354.354 0 0 1 .233-.086c.097 0 .193.032.29.096l.136-.414a.71.71 0 0 0-.406-.144.396.396 0 0 0-.253.09Z"/><mask id="d" width="15" height="16" x="185" y="0" maskUnits="userSpaceOnUse" style="mask-type:luminance"><path fill="#fff" d="M199.34.857h-14.278V15.75h14.278V.857Z"/></mask><g mask="url(#d)"><path fill="#F7931A" d="M199.126 10.105c-.953 3.989-4.827 6.417-8.652 5.422-3.824-.995-6.152-5.035-5.198-9.024.953-3.99 4.827-6.418 8.651-5.423 3.825.995 6.153 5.035 5.199 9.025Z"/><path fill="#fff" d="M195.349 7.243c.142-.991-.581-1.524-1.57-1.88l.321-1.342-.784-.203-.312 1.307a30.17 30.17 0 0 0-.628-.154l.315-1.316-.783-.204-.321 1.342c-.17-.04-.338-.08-.5-.122l.001-.005-1.081-.28-.208.872s.581.139.569.147c.317.083.374.302.365.476l-.366 1.529a.604.604 0 0 1 .082.027l-.083-.021-.512 2.142c-.039.1-.137.251-.359.194.008.012-.57-.148-.57-.148l-.389.935 1.02.265c.19.05.375.102.558.15l-.324 1.358.783.204.321-1.344c.214.061.421.117.624.17l-.32 1.336.784.204.324-1.355c1.336.264 2.34.157 2.763-1.103.341-1.015-.017-1.6-.72-1.982.512-.123.898-.474 1-1.2Zm-1.79 2.617c-.242 1.015-1.88.467-2.411.33l.43-1.8c.531.139 2.234.412 1.981 1.47Zm.243-2.632c-.221.923-1.585.454-2.027.339l.39-1.631c.443.115 1.867.33 1.637 1.292Z"/></g><mask id="e" width="77" height="14" x="0" y="30" maskUnits="userSpaceOnUse" style="mask-type:luminance"><path fill="#fff" d="M77 30H0v13.547h77V30Z"/></mask><g fill="#fff" mask="url(#e)"><path d="M30.37 30h1.473l2.924 6.858L37.617 30h1.475v10.529h-1.547V33.96h-.048l-2.247 5.506h-.967L31.94 33.96h-.024v6.569h-1.547V30ZM42.74 33.019h-1.449v7.486h1.45v-7.486ZM44.89 30h5.775v1.497h-4.228v3.115h4.228v1.401h-4.228v4.516h-1.546V30ZM53.637 33.019h-1.45v7.486h1.45v-7.486ZM55.642 33.019h1.45v.797h.024c.483-.604 1.111-.894 1.884-.894.604 0 1.16.217 1.643.652.483.435.749 1.087.773 1.956v4.975h-1.45V36.06c0-.53-.144-.917-.41-1.207-.266-.29-.604-.41-1.04-.41-.41 0-.772.144-1.038.41s-.41.676-.41 1.207v4.468h-1.45l.024-7.51ZM64.799 33.019h-1.45v7.486h1.45v-7.486ZM66.974 30.024h1.45v2.995h1.062v1.159h-1.063v4.37c0 .387.17.556.508.556h.555v1.425h-.749c-.507 0-.942-.17-1.256-.483-.338-.314-.507-.773-.507-1.352v-4.516h-.725v-1.16h.725v-2.994ZM70.452 33.019H72l1.715 5.24h.024l1.716-5.24H77l-3.117 9.055c-.193.556-.483.942-.821 1.16a2.315 2.315 0 0 1-1.208.313h-.484v-1.424h.435a.87.87 0 0 0 .532-.17.886.886 0 0 0 .338-.482l.387-1.256-2.61-7.196ZM42.016 31.787a.894.894 0 1 0 0-1.787.894.894 0 0 0 0 1.787ZM52.912 31.787a.894.894 0 1 0 0-1.787.894.894 0 0 0 0 1.787ZM64.074 31.787a.894.894 0 1 0 0-1.787.894.894 0 0 0 0 1.787ZM11.066 33.888a.435.435 0 1 0 0-.87.435.435 0 0 0 0 .87ZM9.979 33.019a.483.483 0 1 0 0-.967.483.483 0 0 0 0 .967ZM8.722 32.222a.507.507 0 1 0 0-1.015.507.507 0 0 0 0 1.015ZM7.248 31.666a.507.507 0 1 0 0-1.014.507.507 0 0 0 0 1.014ZM5.63 31.594a.604.604 0 1 0 0-1.208.604.604 0 0 0 0 1.208ZM3.866 32.029a.676.676 0 1 0 0-1.353.676.676 0 0 0 0 1.353ZM2.175 33.284a.749.749 0 1 0 0-1.497.749.749 0 0 0 0 1.497ZM.966 35.023a.797.797 0 1 0 0-1.594.797.797 0 0 0 0 1.594ZM.87 37.51a.87.87 0 1 0 0-1.739.87.87 0 0 0 0 1.74ZM2.247 39.756a.99.99 0 1 0 0-1.98.99.99 0 0 0 0 1.98ZM12.805 36.375a.87.87 0 1 0 0-1.739.87.87 0 0 0 0 1.74ZM14.69 34.492a.918.918 0 1 0 0-1.836.918.918 0 0 0 0 1.836ZM10.631 38.331a.966.966 0 1 0 0-1.932.966.966 0 0 0 0 1.932ZM8.166 40.046a1.16 1.16 0 1 0 0-2.32 1.16 1.16 0 0 0 0 2.32ZM5.098 40.94a1.328 1.328 0 1 0 0-2.657 1.328 1.328 0 0 0 0 2.656ZM17.227 33.115a1.111 1.111 0 1 0 0-2.222 1.111 1.111 0 0 0 0 2.222ZM20.295 32.415a1.208 1.208 0 1 0 0-2.416 1.208 1.208 0 0 0 0 2.416ZM23.025 33.067a.99.99 0 1 0 0-1.98.99.99 0 0 0 0 1.98ZM24.402 35.24a.87.87 0 1 0 0-1.739.87.87 0 0 0 0 1.74ZM24.354 37.51a.749.749 0 1 0 0-1.497.749.749 0 0 0 0 1.497ZM23.098 39.128a.676.676 0 1 0 0-1.352.676.676 0 0 0 0 1.352ZM21.503 40.215a.676.676 0 1 0 0-1.353.676.676 0 0 0 0 1.353ZM19.715 40.505a.604.604 0 1 0 0-1.208.604.604 0 0 0 0 1.208ZM18.024 40.287a.507.507 0 1 0 0-1.014.507.507 0 0 0 0 1.014ZM16.622 39.66a.483.483 0 1 0 0-.967.483.483 0 0 0 0 .967ZM15.342 38.887a.435.435 0 1 0 0-.87.435.435 0 0 0 0 .87Z"/></g><mask id="f" width="46" height="13" x="84" y="31" maskUnits="userSpaceOnUse" style="mask-type:luminance"><path fill="#fff" d="M129.361 31.904H84.216v11.13h45.145v-11.13Z"/></mask><g mask="url(#f)"><path fill="#fff" d="M90.2 36.197v-.122c0-1.401-.627-2.071-1.617-2.071s-1.633.716-1.633 2.056v.122c0 1.356.612 2.042 1.633 2.042s1.618-.716 1.618-2.027Zm-.612-4.25c1.917 0 3.472 1.402 3.472 4.128v.122c0 2.742-1.555 4.113-3.487 4.113-1.241 0-2.136-.563-2.545-1.355v3.838h-2.812V32.16h2.812v1.188c.471-.761 1.32-1.4 2.56-1.4ZM99.77 36.139v-.122c0-1.387-.596-2.056-1.539-2.056-.99 0-1.57.685-1.57 2.071v.122c0 1.34.596 2.026 1.523 2.026.927 0 1.587-.685 1.587-2.041Zm-5.969.046v-.122c0-2.712 1.603-4.16 3.44-4.16 1.242 0 1.98.519 2.451 1.326v-1.112h2.812v7.967h-2.812v-1.28c-.424.808-1.288 1.462-2.466 1.462-1.822 0-3.424-1.325-3.424-4.082M108.128 36.41l1.571-4.25h2.686l-4.398 10.633H105.3l1.368-3.473-3.284-7.16h3.047l1.697 4.25ZM112.53 40.127V38.24l3.739-4.022h-3.283l-.016-2.057h6.581v2.011l-3.581 3.885h3.849v2.071h-7.289Z"/><path fill="#D0FA02" d="M121.144 39.058c.033-2.194 1.747-3.992 4.075-3.992 2.329 0 4.142 1.798 4.142 3.992s-1.763 3.976-4.142 3.976c-2.378 0-4.075-1.765-4.075-3.976Z"/></g><path fill="#83BA3B" d="M178.164 32.955c-.541-.54-1.359-.813-2.431-.813h-2.808l-1.044 8.267h-3.678l.237-1.875h2.215l.263-2.107-2.215.005.237-1.867h2.283l.303-2.422h-4.635l-.99 7.841H164.2l.997-7.842h-2.423l-.991 7.842h-1.657l.999-7.842h-2.421l-1.046 8.267h-3.704l.234-1.875h2.224l.263-2.095-2.222-.003.236-1.871h2.308l.301-2.423h-14.443l-.822 6.551-1.637-6.55h-2.514l-1.353 10.69h2.401l.819-6.731 1.588 6.731h8.604l1.046-8.27h1.346l-1.046 8.27h22.638l.656-5.22 1.062 5.22h2.402l-1.1-4.265.251-.08c.555-.172.987-.545 1.288-1.103.301-.563.454-1.287.454-2.155 0-1.012-.253-1.756-.775-2.276h.001Zm-30.312 7.454h-3.675l.238-1.875h2.305l.261-2.113h-2.283l.22-1.856h3.669l-.736 5.844h.001Zm28.332-3.6c-.241.245-.591.365-1.07.365h-.475l.364-2.869h.349c.398 0 .688.093.888.283.156.149.342.443.342 1 0 .672-.217 1.034-.398 1.22Z"/><g clip-path="url(#g)"><mask id="h" width="15" height="16" x="186" y="30" maskUnits="userSpaceOnUse" style="mask-type:luminance"><path fill="#fff" d="M200.938 30.5h-14.876v14.586h14.876V30.5Z"/></mask><g mask="url(#h)"><path fill="#fff" d="M193.5 44.297c3.663 0 6.633-2.912 6.633-6.504 0-3.592-2.97-6.503-6.633-6.503s-6.632 2.911-6.632 6.503 2.969 6.504 6.632 6.504Z"/><path fill="#345D9D" d="M193.5 30.5a7.543 7.543 0 0 0-4.132 1.23 7.327 7.327 0 0 0-2.739 3.272 7.16 7.16 0 0 0-.424 4.214 7.252 7.252 0 0 0 2.036 3.734 7.483 7.483 0 0 0 3.808 1.996 7.575 7.575 0 0 0 4.297-.415 7.408 7.408 0 0 0 3.338-2.686 7.195 7.195 0 0 0 .697-6.836 7.27 7.27 0 0 0-1.6-2.364 7.436 7.436 0 0 0-2.401-1.583 7.546 7.546 0 0 0-2.837-.562h-.043Zm.126 7.54-.774 2.561h4.142a.212.212 0 0 1 .197.12.21.21 0 0 1 .019.078v.067l-.36 1.218a.272.272 0 0 1-.271.194h-6.339l1.063-3.549-1.189.353.271-.812 1.188-.353 1.495-4.98a.274.274 0 0 1 .27-.194h1.603a.212.212 0 0 1 .197.12c.012.024.018.05.019.078v.067l-1.261 4.203 1.189-.354-.252.848-1.207.336Z"/></g></g><defs><clipPath id="b"><path fill="#fff" d="M119 0h19v19h-19z"/></clipPath><clipPath id="g"><path fill="#fff" d="M185 30h17v15h-17z"/></clipPath></defs></svg>