<svg xmlns="http://www.w3.org/2000/svg" width="202" height="68" fill="none"><path fill="#fff" d="M3.777 4.612.141 16.582h2.155l1.032-3.52h2.963l1.078 3.52h2.2L5.887 4.613h-2.11Zm1.976 6.538H3.867l.763-2.665c.045-.202.09-.352.135-.553.045.2.09.352.18.553l.807 2.665h.001Zm7.407 0c-.988-.453-1.077-.654-1.077-.956 0-.402.314-.653.763-.653s.853.15 1.257.402l.404.302.539-1.912-.225-.201a3.058 3.058 0 0 0-1.975-.553c-1.661 0-2.829 1.157-2.829 2.766 0 1.459 1.168 2.264 2.155 2.666.988.403 1.078.705 1.078 1.056 0 .655-.629.755-.988.755-.539-.05-1.077-.2-1.526-.503l-.404-.252-.539 1.962.27.151c.673.403 1.436.654 2.2.604 1.795 0 3.053-1.158 3.053-2.867-.046-1.66-1.258-2.364-2.156-2.767Zm5.343-5.432-2.066.704V7.78H15.36v1.962h1.124v3.923c-.046.856.134 1.71.583 2.415.449.503 1.033.805 1.66.754.45 0 .854-.05 1.258-.201l.27-.101-.09-1.962-.45.15c-.223.052-.403.101-.628.101-.224 0-.583 0-.583-1.105V9.742h1.84V7.78h-1.84V5.718Zm6.824 1.962-.36-.05c-.134 0-.224-.051-.359-.051-.628 0-1.257.302-1.706.805V7.73h-1.93v.503c.045.654.045 1.459.045 2.465v5.935h2.065v-4.678c0-.2 0-.402.045-.603.135-.906.674-1.51 1.347-1.51h.359l.45.101.044-2.263Zm3.77-.101c-2.289 0-3.905 1.912-3.905 4.678 0 2.666 1.572 4.527 3.816 4.527 1.886 0 3.951-1.459 3.951-4.678-.045-2.666-1.616-4.527-3.861-4.527Zm1.707 4.577c0 1.56-.763 2.666-1.75 2.666-.989 0-1.752-1.106-1.752-2.616 0-1.006.404-2.665 1.797-2.665 1.346 0 1.705 1.71 1.705 2.615Zm8.89-6.59c-.675-.704-1.707-1.055-3.054-1.055-.853 0-1.706.05-2.514.201l-.314.1v11.77h2.065v-4.375c.225 0 .45.05.629.05a4.284 4.284 0 0 0 3.322-1.358c.583-.704.898-1.71.898-2.666 0-1.006-.36-1.961-1.033-2.665v-.001ZM38.66 8.284c0 1.66-1.301 1.911-2.11 1.911-.224 0-.448 0-.673-.05V6.573c.27-.05.539-.05.808-.05.898.05 1.975.352 1.975 1.76Zm8.35 5.986v-2.967c0-2.364-1.121-3.672-3.096-3.672-.898 0-1.797.25-2.56.754l-.269.201.539 1.861.449-.352c.493-.352 1.078-.553 1.661-.503.314-.05.673.1.943.352.18.201.269.503.314.805-1.617.05-2.784.503-3.502 1.308-.494.553-.763 1.308-.763 2.112 0 1.51 1.078 2.716 2.38 2.716h.179c.673 0 1.392-.251 1.93-.704l.045.503h1.976l-.045-.503a9.86 9.86 0 0 1-.18-1.911Zm-3.456.603c-.404.051-.763-.302-.808-.754v-.201c0-.302.09-.553.27-.754.224-.252.763-.554 1.975-.604v.955c0 .101 0 .202-.045.353-.225.604-.764 1.005-1.392 1.005Zm9.158-7.092-1.481 4.98a1.04 1.04 0 0 0-.09.403c-.044-.101-.09-.252-.134-.353L49.39 7.831h-2.244l2.828 7.947c.045.05.045.1.045.201 0 .05-.045.1-.045.151-.224.553-.54 1.056-.987 1.459-.315.302-.63.503-.988.604l-.36.15.54 1.962.359-.05c.673-.152 1.257-.503 1.796-1.006.987-1.007 1.66-2.566 2.558-5.182l2.02-6.337-2.2.05Z"/><path fill="red" d="M7.727 7.932c1.347-1.51 3.593-2.415 6.062-2.415.943 0 1.885.151 2.783.402h.09l1.571-.553-.718-.302c-1.482-.553-3.008-.854-4.534-.854-2.127-.05-4.224.559-6.061 1.76l-.18.1.673 2.163.315-.301Z"/><path fill="#FF6400" d="M83.706 13.98h-4.085c-.368 0-.433.074-.29.4.383.87 1.02 1.439 1.953 1.662.914.218 1.758.102 2.524-.467a.402.402 0 0 1 .371-.067c.92.26 1.84.517 2.76.776.223.063.444.133.666.201.18.056.217.16.111.32-.442.672-.922 1.31-1.572 1.796-1.675 1.252-3.536 1.64-5.575 1.239-2.198-.434-3.782-1.69-4.814-3.667-.366-.701-.548-1.468-.712-2.251-.26-1.246-.134-2.449.173-3.646a6.851 6.851 0 0 1 1.534-2.871c.853-.962 1.877-1.653 3.104-2.028 1.083-.331 2.184-.312 3.289-.139.838.131 1.613.44 2.329.891 1.134.715 1.906 1.73 2.395 2.977.447 1.142.607 2.332.596 3.552-.003.298-.05.588-.127.873-.093.345-.249.45-.606.45-1.341-.003-2.683-.002-4.024-.002Zm-2.017-3.447c.706 0 1.412.002 2.118 0 .154-.001.345.004.249-.243-.126-.324-.299-.618-.576-.844-.558-.452-1.196-.588-1.896-.564-.983.033-1.67.508-2.136 1.357-.122.223-.072.302.184.298.685-.01 1.371-.003 2.057-.004ZM73.088 7.173c0 2.065-.002 4.13 0 6.196.002 1.499-.476 2.833-1.377 4.011-.901 1.18-2.068 1.989-3.494 2.38a6.19 6.19 0 0 1-2.959.09 6.459 6.459 0 0 1-3.262-1.74 6.68 6.68 0 0 1-1.88-3.415A5.518 5.518 0 0 1 60 13.548c-.002-.235.102-.332.329-.332 1.533.003 3.066.003 4.599 0 .239 0 .363.103.412.348.143.714.77 1.05 1.328.985.605-.071 1.096-.59 1.095-1.281-.008-4.242-.003-8.483-.003-12.725 0-.533.01-.543.543-.543h4.356c.411 0 .428.017.429.428v6.745ZM99.226 12.646c.034-1.825.476-3.418 1.529-4.797 1.054-1.382 2.431-2.258 4.143-2.585 1.429-.272 2.833-.195 4.188.34 1.017.402 1.886 1.035 2.62 1.864a7.122 7.122 0 0 1 1.649 3.245 8.1 8.1 0 0 1 .107 3.026c-.367 2.33-1.5 4.15-3.54 5.324-1.521.877-3.168 1.131-4.904.793-1.068-.208-2.049-.606-2.911-1.27-1.195-.92-2.018-2.105-2.478-3.557-.258-.813-.362-1.64-.403-2.383Zm7.491 3.379c.81-.038 1.713-.527 2.221-1.626.539-1.167.532-2.363.086-3.555a2.596 2.596 0 0 0-1.15-1.373c-1.469-.833-3.45-.393-4.152 1.453-.41 1.08-.388 2.173.011 3.248.429 1.154 1.439 1.852 2.984 1.853ZM115.277 12.53V6.03c0-.528.032-.56.541-.56h3.087c.437 0 .476.031.508.475.012.17.077.203.207.106.597-.442 1.275-.7 1.996-.82 1.989-.336 3.998.228 5.159 2.1.617.995.917 2.066.917 3.232l.001 8.609c0 .405-.043.45-.456.452-1.079.002-2.159.003-3.238 0-.423-.002-.487-.071-.488-.502-.001-2.656-.003-5.312.002-7.967a2.429 2.429 0 0 0-.419-1.41c-.435-.633-1.121-.718-1.79-.638-1.029.122-1.546.699-1.738 1.735-.078.423-.11.845-.11 1.273.004 2.33.003 4.66.002 6.99 0 .493-.027.52-.512.52-1.059 0-2.119.002-3.178-.002-.426 0-.49-.069-.49-.497l-.001-6.594ZM91.061 12.608V9.892c0-.463 0-.464-.447-.465-.252 0-.504-.004-.756 0-.248.003-.37-.102-.37-.365.005-1.068.006-2.136 0-3.204-.001-.29.128-.403.407-.391.272.01.545-.01.816.005.26.013.357-.086.355-.353-.01-1.028-.005-2.055-.004-3.082 0-.464.019-.483.476-.483h3.207c.41 0 .489.07.488.47a186.395 186.395 0 0 1-.023 3.172c-.004.243.115.272.296.272h1.876c.398.002.462.06.463.455.002 1.017.002 2.034 0 3.052-.001.395-.058.45-.465.451-.635.003-1.27.004-1.906 0-.206-.001-.265.07-.263.292.015 1.606.011 3.213.014 4.82 0 .132-.001.264.01.395.056.694.134.814.949.896.43.044.86-.088 1.283-.176.306-.064.383-.033.385.268.007 1.027.002 2.055.003 3.082 0 .171-.067.28-.232.35a5.189 5.189 0 0 1-2.513.385c-.712-.064-1.414-.191-2.047-.57-.948-.566-1.57-1.37-1.828-2.46-.282-1.195-.132-2.407-.173-3.612-.005-.162 0-.325 0-.488Z"/><g clip-path="url(#a)"><mask id="b" width="25" height="16" x="170" y="4" maskUnits="userSpaceOnUse" style="mask-type:luminance"><path fill="#fff" d="M194.907 4.583h-24.195v14.673h24.195V4.583Z"/></mask><g mask="url(#b)"><path fill="#FF5F00" d="M186.355 6.293h-7.087v11.25h7.087V6.294Z"/><path fill="#EB001B" d="M179.998 11.92a6.963 6.963 0 0 1 .739-3.127 7.18 7.18 0 0 1 2.072-2.497 7.479 7.479 0 0 0-3.763-1.489 7.547 7.547 0 0 0-4.003.679 7.292 7.292 0 0 0-3.023 2.64 7.004 7.004 0 0 0-1.121 3.795c0 1.342.388 2.657 1.121 3.795a7.293 7.293 0 0 0 3.023 2.64 7.549 7.549 0 0 0 4.003.678 7.479 7.479 0 0 0 3.763-1.488 7.183 7.183 0 0 1-2.073-2.498 6.967 6.967 0 0 1-.738-3.128Z"/><path fill="#F79E1B" d="M194.017 16.353v-.23h.103v-.048h-.244v.047h.096v.231h.045Zm.473 0v-.278h-.074l-.086.199-.085-.2h-.074v.28h.053v-.212l.08.181h.055l.08-.18v.21h.051ZM194.721 11.92a7.005 7.005 0 0 1-1.122 3.795 7.288 7.288 0 0 1-3.022 2.64 7.553 7.553 0 0 1-4.004.678 7.476 7.476 0 0 1-3.763-1.49 7.2 7.2 0 0 0 2.072-2.497c.487-.975.74-2.044.74-3.127a6.991 6.991 0 0 0-.74-3.127 7.198 7.198 0 0 0-2.072-2.498 7.476 7.476 0 0 1 3.763-1.49 7.553 7.553 0 0 1 4.004.679 7.288 7.288 0 0 1 3.022 2.639 7.006 7.006 0 0 1 1.122 3.796v.002Z"/></g><mask id="c" width="39" height="13" x="132" y="5" maskUnits="userSpaceOnUse" style="mask-type:luminance"><path fill="#fff" d="M170.151 5.447h-37.458v12.106h37.458V5.447Z"/></mask><g mask="url(#c)"><path fill="#fff" d="m146.915 5.661-4.904 11.709h-3.2l-2.413-9.343c-.146-.576-.273-.787-.719-1.03-.728-.394-1.929-.765-2.986-.995l.073-.34h5.15c.656 0 1.247.436 1.396 1.193l1.274 6.774 3.15-7.969 3.179.001Zm12.536 7.886c.013-3.09-4.27-3.26-4.24-4.641.009-.42.409-.867 1.283-.98.434-.058 1.629-.101 2.985.523l.532-2.483a8.13 8.13 0 0 0-2.831-.519c-2.992 0-5.097 1.592-5.115 3.87-.02 1.686 1.502 2.627 2.649 3.187 1.18.574 1.576.942 1.572 1.455-.009.786-.941 1.133-1.813 1.146-1.522.023-2.404-.412-3.108-.74l-.549 2.565c.708.325 2.013.609 3.367.623 3.18 0 5.26-1.572 5.269-4.006h-.001Zm7.901 3.822h2.8l-2.445-11.708h-2.584a1.375 1.375 0 0 0-1.287.86l-4.542 10.848h3.178l.631-1.748h3.883l.366 1.748Zm-3.377-4.148 1.593-4.396.917 4.396h-2.51Zm-12.735-7.56-2.503 11.709h-3.027l2.504-11.709h3.026Z"/></g></g><g clip-path="url(#d)"><path fill="#FEFEFE" fill-rule="evenodd" d="M21.845 46.506a37.018 37.018 0 0 1-4.706 3.03 67.212 67.212 0 0 1-11.046 4.746c-1.26.418-2.745.66-4 .101-.8-.372-1.395-1.001-1.656-1.75a11.6 11.6 0 0 1-.425-1.774c-.97-4.65-.551-10.071.541-14.71.272-1.152.912-2.703 2.337-3.117a4.861 4.861 0 0 1 2.163-.06c.223.042.44.1.653.17 4.602 1.408 8.916 3.428 12.783 5.988 1.113.748 2.333 1.524 3.354 2.358.718.502 1.226 1.19 1.45 1.961.044.22.056.442.034.662a3.048 3.048 0 0 1-.45 1.33 3.586 3.586 0 0 1-1.032 1.065Z" clip-rule="evenodd"/><path fill="#FFB700" fill-rule="evenodd" d="M1.346 52.375c.34.88 1.36 2.151 4.393 1.141 4.387-1.46 10.94-4.132 15.502-7.653a2.69 2.69 0 0 0 .787-.806c.194-.313.31-.657.34-1.01.107-1.207-.99-1.93-4.474-4.272-3.783-2.516-8.012-4.496-12.527-5.865a3.95 3.95 0 0 0-2.173-.103c-.89.258-1.44 1.384-1.705 2.498-.25 1.063-1.876 7.988-.535 14.403.094.562.225 1.118.392 1.667Z" clip-rule="evenodd"/><path fill="#FFDF77" fill-rule="evenodd" d="M1.934 35.051a7.8 7.8 0 0 0-.35 1.783v-.02a10.52 10.52 0 0 1 3.952-.17c5.74.605 11.633 3.377 14.829 5.041l.86.44c-.257-.21-.522-.413-.794-.609l-.062-.044-.031-.022-.194-.138-.032-.024-.067-.046-.033-.024-.035-.024-.066-.048-.036-.025-.07-.05-.036-.024-.073-.05-.037-.026-.074-.05-.038-.027-.037-.026-.04-.026-.038-.026-.039-.027-.078-.053-.04-.027-.04-.027-.04-.028-.04-.028-.083-.057-.04-.028-.042-.028-.037-.024-.006-.004-.042-.029-.043-.03-.042-.028-.008-.005-.037-.024-.042-.03-.044-.03-.02-.013-.024-.016-.044-.03-.046-.03-.035-.024-.009-.008-.046-.03-.046-.03-.046-.03h-.004l-.043-.03-.046-.031-.048-.032-.018-.012-.029-.02-.048-.031-.048-.032-.034-.023-.015-.01-.048-.032-.049-.033-.049-.033c-3.783-2.516-8.012-4.496-12.528-5.865a3.952 3.952 0 0 0-2.173-.103l-.037.011h-.008l-.035.013h-.006l-.034.012H3.07l-.034.015-.007.003-.033.016-.008.002-.03.014-.006.003-.032.017-.008.005-.033.017-.006.004-.029.017-.006.004-.032.02-.007.005-.032.02-.032.023-.004.004-.03.023-.007.005-.029.022-.03.024-.007.006-.03.026-.004.003-.027.024-.005.005-.028.027-.007.006-.027.028-.005.004-.025.026-.006.006-.028.029-.007.008-.024.028-.024.028-.008.009-.025.029-.007.01-.026.031-.379.609h-.002Zm.057-.046-.005.006-.026.035-.003.005-.026.035-.024.035-.004.005-.026.038-.004.005-.019.031-.006.009-.023.035-.005.009-.021.035v.008l-.02.034-.005.008-.021.035-.006.01-.021.04-.02.036-.007.011-.02.04-.004.007.316-.512Z" clip-rule="evenodd"/><path fill="#FFCE00" fill-rule="evenodd" d="M1.585 36.813a10.519 10.519 0 0 1 3.955-.17c5.738.606 11.632 3.377 14.827 5.042-2.674 6.62-14.402 11.358-14.402 11.358-1.403-1.203-2.756-2.319-4.06-10.605a22.953 22.953 0 0 1-.32-5.625Z" clip-rule="evenodd"/><path fill="#fff" d="M28.887 34.261a32.583 32.583 0 0 1 3.81-.124 4.73 4.73 0 0 1 2.411.637c.241.213.419.473.518.758.099.284.116.585.05.877.036.99-.36 1.955-1.11 2.708-.714.601-1.654.965-2.652 1.026a12.21 12.21 0 0 1-2.838.024c-.231.781-.464 1.56-.644 2.351-.05.231-.159.507-.465.563-.359.02-.72.024-1.08.012-.218.026-.44.012-.651-.04-.193-.097-.072-.312-.066-.463.261-1.104.526-2.207.794-3.31.062-.324.154-.642.273-.952 1.021-.017 2.045-.007 3.067-.008a.92.92 0 0 1 .447.114c-.065.249-.104.502-.117.757.508-.27.99-.576 1.44-.914.534-.373 1.042-.77 1.524-1.192-.687-.738-1.392-1.46-2.089-2.189-.198.244-.089.649-.428.8a8.28 8.28 0 0 1-1.488.028c-.588.03-1.177.013-1.76-.052-.018-.396.08-.79.282-1.147.16-.22.504-.222.772-.264Zm8.257 2.587a5.779 5.779 0 0 1 3.017.031c.248.08.469.21.644.38.175.17.298.375.358.596.229.776-.102 1.554-.23 2.322-.131.795-.31 1.587-.466 2.38a.652.652 0 0 1-.156.397.833.833 0 0 1-.387.255c-.97.208-1.97.283-2.967.221-.364.044-.735.001-1.072-.123a1.996 1.996 0 0 1-.845-.58 1.52 1.52 0 0 1-.169-1.78c.067-.285.216-.552.433-.776a2.05 2.05 0 0 1 .814-.504 10.42 10.42 0 0 1 2.5-.264c.21-.024.463.014.639-.114.146-.296.172-.625.074-.935-.157-.34-.649-.382-1.018-.364-.77.03-1.53.166-2.25.402a1.194 1.194 0 0 1 .03-1.047c.264-.274.64-.45 1.05-.497Zm-.494 4.224a1.03 1.03 0 0 0-.037.822c.19.169.43.291.693.356.264.065.542.07.808.014.263-.033.65-.084.663-.371.123-.457.18-.926.169-1.394a7.663 7.663 0 0 0-1.73.06.86.86 0 0 0-.363.192c-.099.09-.17.2-.203.32Zm7.49-4.164a8.643 8.643 0 0 1 3.906-.034c.253.016.499.088.71.21a.591.591 0 0 1 .04.517c-.44 2.06-.827 4.128-1.305 6.18-.05.316-.178.618-.376.887a2.426 2.426 0 0 1-.772.672 6.322 6.322 0 0 1-2.606.34 3.585 3.585 0 0 1-1.207-.129 3.262 3.262 0 0 1-1.056-.516c-.155-.308.085-.62.21-.901a3 3 0 0 1 .56.063c.925.22 1.894.268 2.841.139.505-.105.602-.6.646-.974a5.335 5.335 0 0 1-2.677-.196 2.107 2.107 0 0 1-.84-.619 1.694 1.694 0 0 1-.372-.894 6.801 6.801 0 0 1 .663-3.385c.143-.313.363-.596.644-.83.281-.236.618-.416.987-.531h.004Zm1.344 1.018a2.148 2.148 0 0 0-.705.25c-.214.122-.397.279-.54.462-.201.326-.336.68-.397 1.045-.194.638-.25 1.3-.166 1.956a.668.668 0 0 0 .247.33c.118.086.265.14.42.155a3.969 3.969 0 0 0 1.576-.072c.172-.03.178-.201.215-.317.226-1.072.427-2.147.65-3.22a.623.623 0 0 0-.009-.433 2.19 2.19 0 0 0-1.294-.157h.003Zm6.904-1.236a4.118 4.118 0 0 1 2.31.287c.342.173.628.416.833.707.205.29.323.62.342.96a6.818 6.818 0 0 1-.36 2.303 3.372 3.372 0 0 1-1.077 1.709 4.08 4.08 0 0 1-1.794.755 4.405 4.405 0 0 1-1.994-.13 2.225 2.225 0 0 1-.885-.524 1.791 1.791 0 0 1-.487-.82 4.828 4.828 0 0 1 .323-3.142 3.104 3.104 0 0 1 1.053-1.382c.491-.37 1.09-.62 1.733-.723h.003Zm.017 1.42a1.673 1.673 0 0 0-.65.337 1.358 1.358 0 0 0-.395.556 5.98 5.98 0 0 0-.429 2.117.846.846 0 0 0 .07.415.972.972 0 0 0 .266.352c.19.1.401.165.622.19.22.026.445.012.659-.042.2-.037.388-.115.546-.228a1.13 1.13 0 0 0 .363-.418c.386-.73.587-1.521.589-2.323a.81.81 0 0 0-.068-.47.959.959 0 0 0-.33-.382 1.686 1.686 0 0 0-1.243-.103v-.002ZM5.377 40.534c.233-.617.478-1.232.714-1.848h5.656c.97-.027 1.92.235 2.688.742.564.406.94.972 1.06 1.595.15.659.116 1.338-.097 1.984a4.16 4.16 0 0 1-1.133 1.732c-1.018.877-2.371 1.411-3.811 1.503-1.208.06-2.42.052-3.627-.025-.348 1.204-.63 2.423-.957 3.634-.91-.034-1.822-.081-2.733-.095.443-1.903.958-3.793 1.404-5.696 1.507-.016 3.014 0 4.52-.007.006.398 0 .795 0 1.192 1.267-.919 2.498-1.873 3.756-2.8-.932-1.006-1.884-2-2.805-3.013a17.9 17.9 0 0 0-.347 1.093c-1.43.017-2.86 0-4.29.01l.002-.002Zm28.755 3.786a4.289 4.289 0 0 1 2.65-.142c.08.333.01.68-.194.971-.434.182-.975.042-1.393.26-.33.249-.259.673-.321 1.012.457.047.923.005 1.376.09.06.172.074.353.042.53-.032.178-.11.347-.227.495-.398.216-.912.114-1.359.153a1.044 1.044 0 0 0-.234.482c-.342 1.632-.663 3.267-1.007 4.9-.066.585-.368 1.133-.854 1.55a3.482 3.482 0 0 1-2.024.383c-.282-.03-.643-.005-.822-.232-.04-.308.02-.619.173-.9.395-.016.789-.05 1.18-.1.403-.119.484-.522.556-.833.265-1.404.56-2.805.853-4.205.088-.321.137-.649.15-.979-.376-.12-.856-.016-1.146-.297a.703.703 0 0 1-.131-.433.716.716 0 0 1 .165-.425c.325-.289.838-.041 1.233-.152.282-.137.288-.454.351-.692.025-.288.126-.567.295-.816.17-.25.404-.463.684-.622l.004.002Zm20.712.589c.078-.27.083-.644.423-.775.49-.045.99-.02 1.485-.024.119.488.059.996-.17 1.455a4.505 4.505 0 0 1-1.514.035c-.36-.08-.264-.464-.227-.695l.003.004Zm-27.65-.502a14.905 14.905 0 0 1 3.716-.005c.154.02.306.053.456.093.088.328.05.672-.105.98-.122.213-.425.236-.663.243-.822.014-1.643-.014-2.464.01a1.157 1.157 0 0 0-.558.098.96.96 0 0 0-.409.34 6.553 6.553 0 0 0-.418 1.771c1.118 0 2.235-.003 3.353 0 .183-.008.49.03.464.241a2.328 2.328 0 0 1-.159.801.535.535 0 0 1-.246.227.661.661 0 0 1-.356.057c-.974.005-1.948-.009-2.923 0a.533.533 0 0 0-.183.014.486.486 0 0 0-.161.075.408.408 0 0 0-.114.123.349.349 0 0 0-.049.152 6.872 6.872 0 0 0-.214 1.716c.03.306.42.397.72.408.944.018 1.89-.014 2.835.018.212.006.177.227.215.356.052.345-.058.84-.542.895-1.382.125-2.85.328-4.181-.136a1.779 1.779 0 0 1-.712-.564 1.432 1.432 0 0 1-.283-.795 3.57 3.57 0 0 1 .142-1.367c.24-1.18.482-2.36.74-3.538.09-.549.341-1.07.73-1.513a2.568 2.568 0 0 1 1.365-.702l.003.002Zm23.642 1.005a3.68 3.68 0 0 1 1.77-.272c.018.428-.166.841-.14 1.27.396.008.793.055 1.179.138.235.093.194.354.152.533-.072.242-.178.589-.545.58-.377.073-1.02-.12-1.141.321-.227.949-.397 1.907-.591 2.86a5.314 5.314 0 0 0-.139 1.006c.4.09.82.11 1.23.057a.693.693 0 0 1 .064.762.83.83 0 0 1-.292.306c-.126.08-.273.13-.427.147-.664-.004-1.402.107-1.969-.253a1.218 1.218 0 0 1-.409-.539 1.05 1.05 0 0 1-.032-.642c.195-1.316.548-2.611.729-3.93-.427-.097-.953-.011-1.28-.31a.69.69 0 0 1 .098-.87c.412-.233.943-.037 1.385-.183.29-.268.105-.698.356-.983l.002.002Zm-11.941 1.033a3.848 3.848 0 0 1 2.213.217c.401.25.72.583.93.968.208.385.3.809.264 1.232.022.47-.027.94-.145 1.4-.776.08-1.556.104-2.337.074-.748.013-1.497-.028-2.244.012a.938.938 0 0 0-.08.718c.071.24.236.452.467.6.402.127.833.173 1.26.137.775-.061 1.544-.18 2.296-.357 0 .41.126.965-.35 1.225a7.893 7.893 0 0 1-1.65.49 3.919 3.919 0 0 1-2.512-.254 2.275 2.275 0 0 1-.853-.618 1.845 1.845 0 0 1-.419-.887c-.158-1.277.133-2.565.837-3.698.244-.352.583-.65.987-.869a3.384 3.384 0 0 1 1.34-.39h-.005Zm-.444 1.582c-.37.309-.596.723-.634 1.163.913.009 1.83.041 2.743-.019a.953.953 0 0 0 .065-.54 1.023 1.023 0 0 0-.245-.502 1.345 1.345 0 0 0-.423-.28 1.56 1.56 0 0 0-1.046-.055c-.17.05-.326.13-.46.233Zm5.474-.556a3.232 3.232 0 0 1 1.249-.842 3.747 3.747 0 0 1 1.565-.237c.606.007 1.201.136 1.737.38.397.217.112.66.06.97-.028.297-.457.202-.69.202-.554.023-1.05-.357-1.6-.198-.23.047-.442.14-.621.27-.18.131-.32.297-.41.483a5.48 5.48 0 0 0-.53 2.59.565.565 0 0 0 .119.393c.089.116.22.204.373.25.819.228 1.657-.06 2.462-.192.084.382.027.778-.165 1.13-.12.109-.265.196-.425.256a1.51 1.51 0 0 1-.507.094c-.434.033-.868.087-1.303.124a2.624 2.624 0 0 1-1.434-.4 2.04 2.04 0 0 1-.855-1.064 5.33 5.33 0 0 1 .053-2.09 5.146 5.146 0 0 1 .92-2.122l.002.003Zm22.417-1.028a4.957 4.957 0 0 1 2.163.152c.388.16.72.406.96.713.24.306.381.662.407 1.031a6.374 6.374 0 0 1-.477 2.662c-.185.595-.583 1.127-1.139 1.519a4.26 4.26 0 0 1-1.65.608c-.597.09-1.211.06-1.793-.088a2.518 2.518 0 0 1-.882-.434 2.093 2.093 0 0 1-.592-.708c-.422-.773-.182-1.642-.017-2.441.126-.906.612-1.748 1.376-2.384a3.525 3.525 0 0 1 1.64-.634l.004.003v.001Zm.187 1.343a1.737 1.737 0 0 0-.71.324 1.405 1.405 0 0 0-.442.575 6.439 6.439 0 0 0-.47 2.06.79.79 0 0 0 .039.413c.05.134.134.256.248.357a1.814 1.814 0 0 0 1.697.09c.192-.098.358-.229.487-.386.128-.157.215-.335.256-.523.26-.675.393-1.381.397-2.092a.746.746 0 0 0-.1-.37.883.883 0 0 0-.278-.294 1.738 1.738 0 0 0-1.127-.157l.003.003Zm-11.925-1.239c.5-.128 1.028-.15 1.539-.063.284.036.172.332.17.498-.338 1.779-.739 3.547-1.088 5.322-.054.279-.066.7-.48.753a3.42 3.42 0 0 1-1.31-.056.726.726 0 0 1-.044-.552c.31-1.545.613-3.09.911-4.635.067-.43.166-.854.3-1.273l.002.006Zm2.497.02a.79.79 0 0 1 .463-.113 4.531 4.531 0 0 1 1.096.048c.193.029.153.248.194.372.073 1.064.116 2.13.177 3.196.003.617.074 1.234.212 1.84.426-.453.742-.974.93-1.533.605-1.283 1.176-2.579 1.83-3.845a4.86 4.86 0 0 1 1.636-.047c.271.058.133.335.057.486-.947 1.77-1.857 3.558-2.813 5.326a1.991 1.991 0 0 1-1.09.783 2.36 2.36 0 0 1-1.422-.019 1.171 1.171 0 0 1-.51-.382.93.93 0 0 1-.189-.557c-.218-1.66-.407-3.32-.59-4.981a1.436 1.436 0 0 1 .024-.578l-.005.004Z"/></g><mask id="e" width="20" height="20" x="78" y="33" maskUnits="userSpaceOnUse" style="mask-type:luminance"><path fill="#fff" d="M97.754 33.095H78.437V52.88h19.317V33.095Z"/></mask><g mask="url(#e)"><path fill="#F7931A" d="M97.465 45.38c-1.29 5.3-6.531 8.526-11.707 7.204-5.173-1.321-8.322-6.69-7.031-11.988 1.29-5.3 6.53-8.526 11.704-7.205 5.175 1.321 8.324 6.69 7.034 11.99Z"/><path fill="#fff" d="M92.355 41.578c.192-1.316-.786-2.024-2.124-2.496l.434-1.783-1.06-.27-.423 1.736a42.915 42.915 0 0 0-.85-.205l.427-1.748-1.06-.27-.434 1.782c-.23-.053-.457-.107-.677-.163l.001-.005-1.461-.374-.282 1.16s.786.184.77.195c.429.11.506.401.493.632l-.494 2.031c.03.008.068.02.11.037-.035-.01-.073-.02-.112-.029l-.693 2.846c-.052.134-.186.334-.486.258.011.016-.77-.197-.77-.197l-.526 1.243 1.379.352c.257.066.508.135.756.2l-.439 1.803 1.059.27.434-1.784c.29.08.57.155.845.225l-.433 1.776 1.06.27.439-1.8c1.807.35 3.166.209 3.738-1.465.461-1.348-.023-2.126-.974-2.633.693-.163 1.214-.63 1.353-1.594Zm-2.422 3.478c-.327 1.348-2.543.62-3.262.437l.582-2.39c.719.184 3.023.547 2.68 1.953Zm.328-3.497c-.298 1.226-2.143.603-2.741.45l.527-2.167c.599.153 2.526.438 2.214 1.717Z"/></g><mask id="f" width="22" height="21" x="106" y="33" maskUnits="userSpaceOnUse" style="mask-type:luminance"><path fill="#fff" d="M127.5 33.691h-21v20.153h21V33.69Z"/></mask><g mask="url(#f)"><path fill="#fff" d="M117 52.753c5.172 0 9.364-4.023 9.364-8.986 0-4.962-4.192-8.985-9.364-8.985-5.171 0-9.363 4.023-9.363 8.986 0 4.962 4.192 8.985 9.363 8.985Z"/><path fill="#345D9D" d="M117 33.691c-2.077 0-4.107.591-5.833 1.698a10.18 10.18 0 0 0-3.868 4.522 9.705 9.705 0 0 0-.597 5.822 9.958 9.958 0 0 0 2.873 5.16 10.648 10.648 0 0 0 5.377 2.757 10.91 10.91 0 0 0 6.066-.573 10.413 10.413 0 0 0 4.712-3.712 9.788 9.788 0 0 0 1.77-5.598 9.703 9.703 0 0 0-.785-3.847 10.043 10.043 0 0 0-2.26-3.265 10.499 10.499 0 0 0-3.39-2.188 10.846 10.846 0 0 0-4.004-.776H117Zm.178 10.418-1.093 3.538h5.847a.307.307 0 0 1 .212.076.287.287 0 0 1 .067.09c.016.033.025.07.026.107v.093l-.508 1.683a.369.369 0 0 1-.142.198.39.39 0 0 1-.24.07h-8.949l1.5-4.903-1.678.487.382-1.122 1.678-.488 2.11-6.88a.368.368 0 0 1 .142-.197.396.396 0 0 1 .239-.071h2.263a.294.294 0 0 1 .279.166.27.27 0 0 1 .026.107v.093l-1.78 5.806 1.678-.488-.356 1.172-1.703.463Z"/></g><path fill="#50AF95" fill-rule="evenodd" d="m139.289 35.365-3.862 8.212a.162.162 0 0 0 .034.186L145.89 53.88a.157.157 0 0 0 .22 0l10.429-10.117a.16.16 0 0 0 .033-.186l-3.861-8.211a.163.163 0 0 0-.058-.067.152.152 0 0 0-.084-.025h-13.137a.156.156 0 0 0-.143.091Z" clip-rule="evenodd"/><path fill="#fff" fill-rule="evenodd" d="M147.293 44.313c-.073.005-.446.027-1.278.027-.662 0-1.131-.02-1.296-.027-2.558-.11-4.467-.547-4.467-1.07s1.909-.959 4.467-1.07v1.705c.167.012.646.04 1.308.04.794 0 1.192-.033 1.263-.04v-1.705c2.552.112 4.457.549 4.457 1.07 0 .522-1.904.958-4.457 1.07h.003Zm0-2.316v-1.526h3.561v-2.328h-9.697v2.328h3.561v1.526c-2.894.13-5.071.692-5.071 1.366 0 .674 2.177 1.236 5.071 1.367v4.89h2.574v-4.892c2.888-.13 5.061-.692 5.061-1.366 0-.673-2.171-1.235-5.061-1.366l.001.001Z" clip-rule="evenodd"/><g clip-path="url(#g)"><g filter="url(#h)"><path fill="#000" d="M173 53.778c5.178 0 9.375-4.4 9.375-9.826 0-5.427-4.197-9.827-9.375-9.827s-9.375 4.4-9.375 9.827 4.197 9.826 9.375 9.826Z"/></g><path fill="#23292F" d="M173 53.778c5.178 0 9.375-4.4 9.375-9.826 0-5.427-4.197-9.827-9.375-9.827s-9.375 4.4-9.375 9.827 4.197 9.826 9.375 9.826Z"/><path fill="url(#i)" d="M173 53.778c5.178 0 9.375-4.4 9.375-9.826 0-5.427-4.197-9.827-9.375-9.827s-9.375 4.4-9.375 9.827 4.197 9.826 9.375 9.826Z" style="mix-blend-mode:soft-light"/><path stroke="#000" stroke-opacity=".097" d="M173 53.45c5.005 0 9.062-4.252 9.062-9.498 0-5.247-4.057-9.5-9.062-9.5-5.005 0-9.062 4.253-9.062 9.5 0 5.246 4.057 9.499 9.062 9.499Z"/><path fill="#fff" d="M176.977 39.366h1.626l-3.384 3.512a3.059 3.059 0 0 1-4.438 0l-3.386-3.512h1.628l2.571 2.667a1.935 1.935 0 0 0 2.81 0l2.573-2.667ZM169.003 49.131h-1.628l3.406-3.533a3.059 3.059 0 0 1 4.438 0l3.406 3.533h-1.628l-2.591-2.69a1.935 1.935 0 0 0-2.81 0l-2.593 2.69Z"/></g><defs><clipPath id="a"><path fill="#fff" d="M132.693 0h63v23h-63z"/></clipPath><clipPath id="d"><path fill="#fff" d="M0 33h72v23H0z"/></clipPath><clipPath id="g"><path fill="#fff" d="M163 33h20v23h-20z"/></clipPath><linearGradient id="i" x1="1101.13" x2="1101.13" y1="34.125" y2="1999.46" gradientUnits="userSpaceOnUse"><stop stop-color="#fff" stop-opacity=".5"/><stop offset="1" stop-opacity=".5"/></linearGradient><filter id="h" width="20.75" height="21.653" x="162.625" y="33.625" color-interpolation-filters="sRGB" filterUnits="userSpaceOnUse"><feFlood flood-opacity="0" result="BackgroundImageFix"/><feColorMatrix in="SourceAlpha" result="hardAlpha" values="0 0 0 0 0 0 0 0 0 0 0 0 0 0 0 0 0 0 127 0"/><feOffset dy=".5"/><feGaussianBlur stdDeviation=".5"/><feComposite in2="hardAlpha" operator="out"/><feColorMatrix values="0 0 0 0 0 0 0 0 0 0 0 0 0 0 0 0 0 0 0.199474 0"/><feBlend in2="BackgroundImageFix" result="effect1_dropShadow_453_2"/><feBlend in="SourceGraphic" in2="effect1_dropShadow_453_2" result="shape"/></filter></defs></svg>