<svg width="202" height="108" viewBox="0 0 202 108" fill="none" xmlns="http://www.w3.org/2000/svg">
<path d="M8.10766 12.4094L4.06165 26.7194H6.45952L7.6081 22.5107H10.9044L12.1033 26.7194H14.5507L10.4552 12.4094H8.10766ZM10.3057 20.2254H8.20757L9.05641 17.0386C9.10597 16.798 9.15633 16.6181 9.20588 16.3776C9.25624 16.6181 9.30579 16.799 9.4057 17.0396L10.3049 20.2254H10.3057ZM18.5464 20.2254C17.4474 19.6837 17.3475 19.4432 17.3475 19.0823C17.3475 18.6012 17.6967 18.301 18.1963 18.301C18.6959 18.301 19.1459 18.4819 19.5951 18.7821L20.0443 19.143L20.6437 16.8577L20.3944 16.6171C19.7369 16.1262 18.9683 15.8951 18.1963 15.9561C16.3483 15.9561 15.0495 17.3388 15.0495 19.2632C15.0495 21.0068 16.3483 21.969 17.4474 22.4501C18.5464 22.9312 18.6463 23.292 18.6463 23.7125C18.6463 24.4948 17.9469 24.6151 17.5473 24.6151C16.9478 24.5544 16.3483 24.3745 15.8488 24.0137L15.3996 23.7125L14.8001 26.0574L15.0999 26.2383C15.8488 26.7194 16.6984 27.0196 17.5473 26.96C19.5455 26.96 20.9443 25.5763 20.9443 23.5326C20.8939 21.5485 19.5455 20.7066 18.5464 20.2254ZM24.4899 13.7315L22.192 14.5734V16.1967H20.993V18.5416H22.2423V23.2314C22.192 24.2542 22.3918 25.2761 22.8913 26.118C23.3909 26.7194 24.0407 27.0803 24.7393 27.0196C25.2389 27.0196 25.6889 26.959 26.1381 26.7791L26.4378 26.6588L26.3379 24.3139L25.8383 24.4938C25.5889 24.5544 25.3891 24.6141 25.1389 24.6141C24.8896 24.6141 24.4899 24.6141 24.4899 23.292V18.5416H26.5377V16.1967H24.4899V13.7315ZM32.0816 16.0764L31.6819 16.0167C31.5325 16.0167 31.4326 15.9561 31.2823 15.9561C30.5837 15.9561 29.8835 16.3169 29.3848 16.9183V16.137H27.2371V16.7384C27.2866 17.5197 27.2866 18.4819 27.2866 19.6847V26.7791H29.5846V21.1877C29.5846 20.9471 29.5846 20.7066 29.6342 20.466C29.7844 19.3835 30.3839 18.6618 31.1328 18.6618H31.5325L32.032 18.7821L32.0816 16.0764ZM36.2771 15.9561C33.7297 15.9561 31.9321 18.2414 31.9321 21.5485C31.9321 24.7353 33.6802 26.96 36.1772 26.96C38.2753 26.96 40.5732 25.2164 40.5732 21.3676C40.5229 18.1807 38.7748 15.9561 36.2771 15.9561ZM38.1754 21.4282C38.1754 23.292 37.3265 24.6151 36.2275 24.6151C35.1285 24.6151 34.2796 23.292 34.2796 21.4879C34.2796 20.2851 34.7288 18.301 36.2779 18.301C37.7757 18.301 38.1754 20.3457 38.1754 21.4282ZM48.065 13.5506C47.3153 12.7086 46.1667 12.2881 44.668 12.2881C43.7193 12.2881 42.7705 12.3478 41.8713 12.5287L41.522 12.649V26.7185H43.8192V21.4888C44.0694 21.4888 44.3187 21.5485 44.5186 21.5485C45.867 21.6091 47.2154 21.0674 48.2145 19.9252C48.8635 19.0833 49.2136 17.8805 49.2136 16.7384C49.2136 15.5356 48.8139 14.3935 48.065 13.5515V13.5506ZM46.9156 16.798C46.9156 18.7821 45.4673 19.0823 44.5681 19.0823C44.3187 19.0823 44.0694 19.0823 43.8192 19.0227V14.7533C44.1189 14.6927 44.4186 14.6927 44.7184 14.6927C45.7175 14.7533 46.9156 15.1142 46.9156 16.798ZM56.2058 23.9531V20.4063C56.2058 17.5803 54.9573 16.0167 52.76 16.0167C51.7609 16.0167 50.7618 16.3169 49.913 16.9183L49.6132 17.1589L50.2127 19.3835L50.7123 18.963C51.2614 18.5416 51.9112 18.301 52.5602 18.3616C52.9095 18.301 53.3092 18.4819 53.6089 18.7821C53.8087 19.0227 53.9086 19.3835 53.9582 19.7443C52.1598 19.805 50.8617 20.3457 50.0624 21.3079C49.5133 21.969 49.2136 22.8715 49.2136 23.8328C49.2136 25.6369 50.4125 27.0803 51.8608 27.0803H52.0607C52.8096 27.0803 53.6089 26.7791 54.2084 26.2383L54.2579 26.8397H56.456L56.4056 26.2383C56.2701 25.4876 56.2031 24.7213 56.2058 23.9531ZM52.3604 24.6747C51.9104 24.7353 51.5107 24.3139 51.4612 23.7731V23.5326C51.4612 23.1717 51.5611 22.8715 51.7609 22.631C52.0103 22.3298 52.6098 21.969 53.959 21.9093V23.0515C53.959 23.1717 53.959 23.292 53.9086 23.4729C53.6584 24.1946 53.059 24.6747 52.3604 24.6747ZM62.549 16.1967L60.9008 22.1499C60.8384 22.2994 60.8043 22.4637 60.8009 22.631C60.7513 22.5107 60.701 22.3298 60.6514 22.2095L58.853 16.2573H56.356L59.5021 25.7572C59.5524 25.8178 59.5524 25.8775 59.5524 25.9978C59.5524 26.0584 59.5021 26.118 59.5021 26.1787C59.2527 26.8397 58.9026 27.4411 58.4038 27.9222C58.0537 28.283 57.7044 28.5236 57.3048 28.6438L56.9052 28.8238L57.5046 31.1687L57.9043 31.109C58.6532 30.9281 59.303 30.5077 59.9025 29.9063C61.0007 28.7035 61.7497 26.8397 62.7488 23.7125L64.9964 16.137L62.549 16.1967Z" fill="white"/>
<path d="M12.5023 16.3775C14.0009 14.5734 16.4987 13.4909 19.2459 13.4909C20.2946 13.4909 21.3432 13.6718 22.3423 13.972H22.4423L24.1903 13.311L23.391 12.9501C21.7429 12.2881 20.0444 11.9283 18.3467 11.9283C15.9809 11.8683 13.6474 12.5965 11.6039 14.0326L11.4041 14.1529L12.153 16.7384L12.5031 16.3775H12.5023Z" fill="#FF0000"/>
<g clip-path="url(#clip0_139_16)">
<path d="M111.906 28.813H116.565V15.8192H111.906V28.813ZM109.271 15.6322C104.965 15.7724 102.776 17.6888 102.776 21.4982V28.813H107.482V22.8536C107.482 20.5633 107.788 19.5818 110.518 19.4883V15.679C110.212 15.6322 109.882 15.6089 109.553 15.6089L109.271 15.6322ZM74 16.7073C74 18.203 74.6588 21.7319 80.6588 22.1525C81.1765 22.1759 82.5176 22.2694 82.5176 23.5314C82.5176 24.5597 81.4118 25.1907 79.5529 25.1907C77.7647 25.1439 76 24.7934 74.3294 24.1624V28.3223C76.3529 28.813 78.4471 29.0467 80.5412 29.0234C85.6706 29.0234 87.9765 26.1488 87.9765 23.2977C87.9765 20.0726 85.3882 17.9692 81.0824 17.6888C80.4941 17.6421 79.1294 17.572 79.1294 16.3333C79.1294 14.861 81.0824 14.861 81.8353 14.861C83.1294 14.861 84.8 15.2349 86 15.6089C86 15.6089 86.6588 15.8426 87.2471 16.0763L87.2941 16.0996V12.0332L87.2235 12.0098C85.8118 11.5191 84.1647 11.0517 81.1294 11.0517C75.8588 11.0517 74 14.0898 74 16.7073ZM89.1529 11.9865V28.813H93.9529V23.6015C95.3412 25.6814 96.0471 28.813 96.0471 28.813H101.812C101.247 26.4526 98.7529 22.1292 98.7529 22.1292C100.235 20.2362 101.365 18.1095 102.141 15.8192H96.6118C95.9765 17.4551 95.0824 18.9975 93.9529 20.353V11.0517L89.1529 11.9865ZM118.541 11.8696V28.813H123.2V11.0517L118.541 11.8696ZM125.341 11.8696V28.813H130V11.0517L125.341 11.8696ZM114.235 10C112.965 10 111.929 11.0283 111.929 12.2903C111.929 13.5523 112.965 14.5806 114.235 14.5806C115.506 14.5806 116.541 13.5523 116.541 12.2903C116.518 11.0283 115.506 10 114.235 10Z" fill="#872165"/>
<mask id="mask0_139_16" style="mask-type:luminance" maskUnits="userSpaceOnUse" x="74" y="10" width="56" height="20">
<path d="M111.906 28.813H116.565V15.8192H111.906V28.813ZM109.271 15.6322C104.965 15.7724 102.776 17.6888 102.776 21.4982V28.813H107.482V22.8536C107.482 20.5633 107.788 19.5818 110.518 19.4883V15.679C110.212 15.6322 109.882 15.6089 109.553 15.6089L109.271 15.6322ZM74 16.7073C74 18.203 74.6588 21.7319 80.6588 22.1525C81.1765 22.1759 82.5176 22.2694 82.5176 23.5314C82.5176 24.5597 81.4118 25.1907 79.5529 25.1907C77.7647 25.1439 76 24.7934 74.3294 24.1624V28.3223C76.3529 28.813 78.4471 29.0467 80.5412 29.0234C85.6706 29.0234 87.9765 26.1488 87.9765 23.2977C87.9765 20.0726 85.3882 17.9692 81.0824 17.6888C80.4941 17.6421 79.1294 17.572 79.1294 16.3333C79.1294 14.861 81.0824 14.861 81.8353 14.861C83.1294 14.861 84.8 15.2349 86 15.6089C86 15.6089 86.6588 15.8426 87.2471 16.0763L87.2941 16.0996V12.0332L87.2235 12.0098C85.8118 11.5191 84.1647 11.0517 81.1294 11.0517C75.8588 11.0517 74 14.0898 74 16.7073ZM89.1529 11.9865V28.813H93.9529V23.6015C95.3412 25.6814 96.0471 28.813 96.0471 28.813H101.812C101.247 26.4526 98.7529 22.1292 98.7529 22.1292C100.235 20.2362 101.365 18.1095 102.141 15.8192H96.6118C95.9765 17.4551 95.0824 18.9975 93.9529 20.353V11.0517L89.1529 11.9865ZM118.541 11.8696V28.813H123.2V11.0517L118.541 11.8696ZM125.341 11.8696V28.813H130V11.0517L125.341 11.8696ZM114.235 10C112.965 10 111.929 11.0283 111.929 12.2903C111.929 13.5523 112.965 14.5806 114.235 14.5806C115.506 14.5806 116.541 13.5523 116.541 12.2903C116.518 11.0283 115.506 10 114.235 10Z" fill="white"/>
</mask>
<g mask="url(#mask0_139_16)">
<path d="M130 10H74V29H130V10Z" fill="#872165"/>
</g>
</g>
<mask id="mask1_139_16" style="mask-type:luminance" maskUnits="userSpaceOnUse" x="137" y="13" width="60" height="16">
<path d="M196.859 13.5706H137.895V28.3832H196.859V13.5706Z" fill="white"/>
</mask>
<g mask="url(#mask1_139_16)">
<path d="M145.711 19.2847V19.1226C145.711 17.2572 144.891 16.3657 143.598 16.3657C142.306 16.3657 141.465 17.3184 141.465 19.1022V19.2644C141.465 21.0686 142.265 21.9814 143.598 21.9814C144.932 21.9814 145.711 21.0288 145.711 19.2847ZM144.911 13.6283C147.414 13.6283 149.446 15.4937 149.446 19.1226V19.2847C149.446 22.934 147.414 24.7587 144.891 24.7587C143.27 24.7587 142.101 24.009 141.567 22.9544V28.0632H137.895V13.9119H141.567V15.4928C142.182 14.4799 143.291 13.6283 144.911 13.6283Z" fill="white"/>
<path d="M158.211 19.2066V19.0445C158.211 17.1995 157.431 16.308 156.2 16.308C154.908 16.308 154.148 17.2198 154.148 19.0648V19.2271C154.148 21.0109 154.927 21.9237 156.138 21.9237C157.349 21.9237 158.211 21.0119 158.211 19.2066ZM150.414 19.2678V19.1056C150.415 15.4962 152.507 13.5706 154.908 13.5706C156.528 13.5706 157.493 14.26 158.108 15.334V13.8541H161.781V24.4572H158.108V22.754C157.554 23.8289 156.426 24.7 154.887 24.7C152.507 24.7 150.415 22.9365 150.415 19.2668" fill="white"/>
<path d="M169.126 19.5685L171.178 13.912H174.686L168.941 28.0634H165.433L167.219 23.4411L162.93 13.912H166.91L169.126 19.5685Z" fill="white"/>
<path d="M174.876 24.5151V22.002L179.759 16.6494H175.471L175.451 13.912H184.047V16.5882L179.369 21.7582H184.396V24.5151H174.876Z" fill="white"/>
<path d="M186.127 23.0921C186.17 20.1721 188.408 17.7794 191.45 17.7794C194.491 17.7794 196.859 20.1721 196.859 23.0921C196.859 26.0121 194.556 28.3835 191.45 28.3835C188.343 28.3835 186.127 26.0344 186.127 23.0921Z" fill="#D0FA02"/>
</g>
<path d="M11.1638 43.4271C10.5545 43.0695 9.87788 42.9795 9.08945 42.9795C7.85375 42.9795 6.68879 43.4017 5.63907 44.4215L5.79881 43.4306C5.80776 43.375 5.80463 43.3181 5.78963 43.2639C5.77463 43.2097 5.74813 43.1594 5.71197 43.1166C5.67581 43.0738 5.63086 43.0394 5.58024 43.016C5.52962 42.9925 5.47455 42.9805 5.41886 42.9807H2.86644C2.7761 42.9806 2.68862 43.0127 2.61935 43.0714C2.55008 43.13 2.50345 43.2115 2.48763 43.3014L0.00595724 57.527C-0.0039052 57.5829 -0.00149909 57.6403 0.0130057 57.6952C0.0275104 57.7501 0.0537592 57.801 0.0898959 57.8445C0.126033 57.888 0.171175 57.9229 0.222129 57.9467C0.273083 57.9706 0.328605 57.9829 0.384769 57.9827H2.93262C3.0228 57.9828 3.11015 57.9509 3.17939 57.8924C3.24864 57.834 3.29538 57.7529 3.31143 57.6632L4.16148 52.8078C4.42847 53.1366 4.86661 53.3996 5.32187 53.6038C5.77713 53.8091 6.2632 53.9118 6.77893 53.9118C7.83435 53.9118 8.78823 53.6811 9.64169 53.222C10.4879 52.7669 11.2152 52.1154 11.764 51.3209C12.3265 50.5134 12.7178 49.5986 12.9392 48.5731C13.043 48.0806 13.0944 47.6111 13.0944 47.1658C13.0944 46.3214 12.9243 45.5762 12.5855 44.9325C12.2632 44.3039 11.7699 43.7816 11.1638 43.4271ZM9.98057 48.4139C9.87488 48.9015 9.66712 49.3605 9.37128 49.7601C9.07462 50.1593 8.7095 50.473 8.27021 50.7061C7.83321 50.9368 7.35855 51.0521 6.84853 51.0521C6.41837 51.0521 6.05553 50.9621 5.75659 50.7799C5.46554 50.6069 5.23108 50.3514 5.08226 50.0451C4.92877 49.7262 4.85139 49.3753 4.85634 49.0207C4.85634 48.8038 4.87574 48.6008 4.91682 48.4139C5.00924 47.9687 5.20777 47.5395 5.51242 47.1254C5.81706 46.7124 6.18789 46.3768 6.62603 46.1195C7.03711 45.8691 7.50731 45.7352 7.98724 45.7319C8.66614 45.7319 9.18073 45.913 9.53216 46.2764C9.88244 46.6409 10.0582 47.1208 10.0582 47.7183C10.0582 47.9433 10.0331 48.174 9.98057 48.4139ZM38.6573 42.9784H36.1015C36.0342 42.9785 35.9681 42.9965 35.9099 43.0305C35.8516 43.0645 35.8032 43.1133 35.7694 43.1722L32.0498 49.684L30.9373 43.2979C30.9217 43.2078 30.8752 43.1261 30.8059 43.0672C30.7366 43.0083 30.649 42.9761 30.5585 42.9761H28.2765C28.2204 42.9761 28.165 42.9885 28.1141 43.0124C28.0633 43.0364 28.0182 43.0713 27.9821 43.1147C27.946 43.1581 27.9197 43.209 27.9052 43.2638C27.8906 43.3185 27.888 43.3759 27.8977 43.4317L29.6788 53.6522C29.6941 53.7419 29.678 53.8341 29.6331 53.9129L27.6432 57.399C27.6096 57.4581 27.592 57.5251 27.592 57.5933C27.5921 57.6614 27.6099 57.7284 27.6437 57.7874C27.6774 57.8464 27.7259 57.8954 27.7843 57.9295C27.8427 57.9636 27.909 57.9815 27.9764 57.9815H30.5322C30.6692 57.9815 30.7958 57.9077 30.8643 57.7877L38.9905 43.5586C39.0242 43.4996 39.0419 43.4327 39.0418 43.3645C39.0418 43.2964 39.024 43.2295 38.9902 43.1705C38.9564 43.1116 38.9078 43.0627 38.8494 43.0287C38.7909 42.9948 38.7247 42.977 38.6573 42.9772V42.9784ZM26.5285 42.9945H24.4222C24.2853 42.9945 24.1586 43.0672 24.0902 43.1872L23.4329 44.3292C22.8294 43.3798 21.9131 42.9888 20.6957 42.9888C19.6015 42.9888 18.6042 43.1353 17.6914 43.5955C16.7786 44.0558 16.0187 44.6972 15.414 45.5208C14.5693 46.6739 14.0997 48.0637 14.0699 49.4983C14.0699 50.3715 14.2673 51.1467 14.6644 51.8227C15.0513 52.489 15.6122 53.0346 16.2857 53.3996C16.9703 53.7757 17.7234 53.9626 18.546 53.9626C19.0857 53.9626 19.9632 53.8391 20.4458 53.6442C21.0129 53.4135 21.2822 53.3696 21.7751 52.9463L22.1801 53.7491C22.2125 53.8128 22.2615 53.8661 22.3219 53.9034C22.3823 53.9406 22.4517 53.9603 22.5224 53.9602H24.3286C24.7588 53.9602 25.125 53.6488 25.2004 53.222L26.9061 43.449C26.9158 43.3932 26.9132 43.3358 26.8987 43.2811C26.8841 43.2263 26.8578 43.1754 26.8217 43.132C26.7856 43.0886 26.7406 43.0537 26.6897 43.0297C26.6389 43.0058 26.5834 42.9934 26.5273 42.9934L26.5285 42.9945ZM22.2338 48.4243C22.1315 48.9063 21.922 49.3584 21.621 49.7463C21.3107 50.1535 20.9364 50.4788 20.4949 50.7222C20.0782 50.9596 19.6085 51.0854 19.1302 51.0879C18.7309 51.0879 18.3772 51.0014 18.0737 50.8283C17.7763 50.6623 17.5318 50.4143 17.3685 50.1131C17.1984 49.7884 17.1131 49.425 17.1209 49.0576C17.1209 48.8707 17.1438 48.6596 17.1905 48.4255C17.2955 47.9156 17.5055 47.4565 17.8204 47.0504C18.1364 46.6432 18.5107 46.326 18.942 46.1011C19.3744 45.8761 19.8091 45.7631 20.2496 45.7631C20.6558 45.7631 21.014 45.8554 21.3244 46.0399C21.6336 46.2245 21.8721 46.4748 22.0409 46.7909C22.2087 47.1081 22.292 47.4623 22.292 47.8545C22.2943 48.046 22.2748 48.2373 22.2338 48.4243ZM77.0782 42.9841H74.5337C74.4427 42.9836 74.3544 43.0158 74.2846 43.075C74.2148 43.1341 74.168 43.2164 74.1526 43.3071L73.1908 48.8211C72.9717 50.0762 72.0623 50.8433 71.0571 50.8514C70.9003 50.8531 70.7436 50.8435 70.5882 50.8226C69.7872 50.713 69.2452 50.0658 69.3867 49.2607L70.3611 43.6694C70.3758 43.5852 70.372 43.4988 70.3501 43.4163C70.3282 43.3337 70.2886 43.257 70.2343 43.1916C70.1799 43.1262 70.112 43.0736 70.0353 43.0375C69.9587 43.0015 69.8751 42.9829 69.7906 42.983H67.6387C67.5027 42.9831 67.3711 43.0316 67.267 43.12C67.1629 43.2083 67.0929 43.331 67.0693 43.4663L65.8325 50.5607C65.5312 52.2887 67.7151 53.8749 69.4529 53.8749C71.8957 53.8749 72.505 52.7629 72.505 52.7629L72.3909 53.4181C72.3811 53.4742 72.3835 53.5318 72.3981 53.5868C72.4127 53.6419 72.439 53.693 72.4752 53.7367C72.5114 53.7804 72.5567 53.8155 72.6077 53.8395C72.6588 53.8636 72.7145 53.8761 72.7709 53.876H75.3165C75.4073 53.8763 75.4953 53.844 75.5649 53.7848C75.6344 53.7257 75.681 53.6436 75.6964 53.553L77.4593 43.441C77.4689 43.3849 77.4663 43.3275 77.4517 43.2725C77.437 43.2176 77.4107 43.1666 77.3745 43.1231C77.3383 43.0796 77.2931 43.0446 77.2421 43.0206C77.1911 42.9966 77.1344 42.9841 77.0782 42.9841ZM77.7251 53.876H80.2707C80.3615 53.8763 80.4496 53.844 80.5191 53.7848C80.5887 53.7257 80.6353 53.6436 80.6506 53.553L81.6125 48.039C81.8316 46.784 82.7409 46.018 83.7462 46.0088C83.9139 46.0088 84.0702 46.018 84.2151 46.0376C85.0161 46.1472 85.5581 46.7943 85.4177 47.5995L84.4422 53.1908C84.4275 53.275 84.4312 53.3614 84.4532 53.4439C84.4751 53.5265 84.5146 53.6032 84.569 53.6686C84.6234 53.734 84.6913 53.7866 84.7679 53.8227C84.8446 53.8587 84.9281 53.8773 85.0127 53.8772H87.1657C87.3017 53.8771 87.4333 53.8286 87.5374 53.7402C87.6415 53.6518 87.7115 53.5292 87.7351 53.3938L88.9719 46.2995C89.2731 44.5714 87.0893 42.9853 85.3527 42.9853C82.9087 42.9853 82.2994 44.0973 82.2994 44.0973L82.4135 43.4421C82.4233 43.386 82.4209 43.3284 82.4063 43.2733C82.3917 43.2183 82.3654 43.1671 82.3292 43.1235C82.293 43.0798 82.2477 43.0447 82.1967 43.0207C82.1456 42.9966 82.0899 42.9841 82.0335 42.9841H79.4891C79.398 42.9836 79.3097 43.0158 79.2399 43.075C79.1702 43.1341 79.1234 43.2164 79.108 43.3071L77.3452 53.4192C77.3355 53.4752 77.3381 53.5327 77.3527 53.5876C77.3674 53.6425 77.3937 53.6935 77.4299 53.7371C77.4661 53.7806 77.5113 53.8156 77.5623 53.8396C77.6133 53.8636 77.6689 53.876 77.7251 53.876ZM65.311 42.9772H63.5254C62.5464 42.9774 61.5987 43.3262 60.8488 43.9624C60.0989 44.5987 59.5947 45.4816 59.4246 46.4564L59.1873 47.8176H57.3891C57.2984 47.8176 57.2107 47.85 57.1413 47.9091C57.072 47.9682 57.0256 48.0502 57.0103 48.1405L56.6315 50.3138C56.6218 50.3697 56.6244 50.4271 56.6389 50.4818C56.6535 50.5366 56.6798 50.5875 56.7159 50.6309C56.752 50.6743 56.797 50.7092 56.8479 50.7332C56.8987 50.7571 56.9542 50.7695 57.0103 50.7695H58.6738L58.0497 54.2682C58.0103 54.4932 57.8938 54.697 57.7206 54.8438C57.5475 54.9906 57.3287 55.0711 57.1027 55.0711H56.11C56.0195 55.0711 55.9319 55.1034 55.8626 55.1623C55.7933 55.2211 55.7468 55.3028 55.7312 55.393L55.3581 57.527C55.3483 57.5829 55.3507 57.6403 55.3651 57.6951C55.3795 57.7499 55.4057 57.8009 55.4417 57.8444C55.4776 57.8879 55.5226 57.923 55.5734 57.9471C55.6242 57.9712 55.6796 57.9837 55.7358 57.9839H57.2054C58.1954 57.9845 59.154 57.6323 59.9128 56.9893C60.6715 56.3463 61.1818 55.4535 61.354 54.4678L61.9987 50.773L64.0902 50.7695C64.1806 50.7694 64.268 50.7369 64.3369 50.6777C64.4059 50.6186 64.4519 50.5367 64.4667 50.4465L64.8466 48.2744C64.8565 48.2184 64.8541 48.1609 64.8395 48.1059C64.825 48.051 64.7986 48 64.7623 47.9565C64.7261 47.913 64.6808 47.8781 64.6297 47.8543C64.5786 47.8305 64.5229 47.8183 64.4667 47.8187L62.5122 47.8222L62.6696 46.9247C62.714 46.6724 62.8444 46.4438 63.0383 46.2787C63.2322 46.1137 63.4773 46.0226 63.7307 46.0215L64.9151 46.0192C65.0052 46.0191 65.0924 45.9869 65.1612 45.9283C65.2301 45.8696 65.2763 45.7882 65.2916 45.6985L65.6898 43.434C65.6999 43.3781 65.6976 43.3207 65.6833 43.2658C65.6689 43.2109 65.6428 43.1598 65.6068 43.1162C65.5708 43.0727 65.5257 43.0376 65.4748 43.0136C65.4239 42.9896 65.3672 42.9772 65.311 42.9772ZM52.9061 52.013H42.3884V55.0088H47.0779C47.2969 55.0088 47.4738 55.1876 47.4738 55.408V57.5997C47.4738 57.8212 47.6507 58 47.8686 58H50.6344C50.8512 58 51.0291 57.8212 51.0291 57.6009V55.4056C51.0291 55.1865 51.206 55.0065 51.4239 55.0065H52.9072C53.1252 55.0065 53.302 54.8277 53.302 54.6074V52.4133C53.3017 52.3073 53.2599 52.2056 53.1857 52.1306C53.1115 52.0556 53.011 52.0133 52.9061 52.013ZM52.2512 41.4084L49.7467 39.9468C49.5652 39.8412 49.3497 39.8127 49.1475 39.8676C48.9453 39.9225 48.773 40.0564 48.6684 40.2398L43.6537 49.0207C43.5844 49.142 43.548 49.2797 43.548 49.4198C43.5479 49.5599 43.5844 49.6975 43.6536 49.8188C43.7229 49.9402 43.8225 50.0409 43.9425 50.111C44.0625 50.1811 44.1986 50.218 44.3372 50.2181H49.1944C49.3332 50.2182 49.4695 50.1814 49.5897 50.1114C49.7099 50.0413 49.8097 49.9404 49.879 49.819L53.0202 44.3165C53.6021 43.2979 53.2587 41.9967 52.2512 41.4084ZM50.2544 42.7234L50.7758 43.0268L49.8893 44.5784L49.369 44.2738L50.2544 42.7234ZM49.0313 42.4685C49.0835 42.377 49.1696 42.3101 49.2706 42.2827C49.3715 42.2552 49.4792 42.2694 49.5698 42.322L49.741 42.4224L48.8544 43.9739L48.3421 43.6751L49.0313 42.4685ZM50.5111 45.8704C50.4852 45.9157 50.4506 45.9555 50.4094 45.9874C50.3682 46.0192 50.3212 46.0426 50.2711 46.0561C50.221 46.0696 50.1687 46.073 50.1173 46.066C50.0659 46.0591 50.0163 46.042 49.9714 46.0157L48.0888 44.9175C48.0439 44.8912 48.0046 44.8563 47.973 44.8146C47.9415 44.773 47.9184 44.7255 47.9051 44.6748C47.8917 44.6241 47.8884 44.5713 47.8952 44.5193C47.9021 44.4673 47.919 44.4172 47.945 44.3719L48.0466 44.1942L50.6138 45.6927L50.5111 45.8704ZM51.5974 43.967L50.9082 45.1736L50.4027 44.8783L51.2893 43.3268L51.4536 43.4213C51.4986 43.4475 51.538 43.4824 51.5696 43.524C51.6013 43.5657 51.6244 43.6132 51.6378 43.6639C51.6511 43.7146 51.6544 43.7675 51.6475 43.8195C51.6406 43.8715 51.6235 43.9217 51.5974 43.967ZM38.5158 49.4914L44.6224 38.7979C44.7261 38.6164 44.8641 38.4572 45.0286 38.3296C45.193 38.2021 45.3808 38.1085 45.5811 38.0543C45.7813 38.0001 45.9902 37.9863 46.1957 38.0137C46.4013 38.0412 46.5994 38.1093 46.7789 38.2142L47.1292 38.4184C47.2196 38.4714 47.2854 38.5585 47.3124 38.6606C47.3393 38.7626 47.3252 38.8713 47.273 38.9629L39.982 51.7293C39.9295 51.8206 39.8434 51.8872 39.7424 51.9144C39.6415 51.9417 39.534 51.9274 39.4434 51.8746L39.0943 51.6716C38.7317 51.46 38.4671 51.1114 38.3586 50.7026C38.2501 50.2937 38.3067 49.8581 38.5158 49.4914Z" fill="#F39001"/>
<path d="M98.9731 46.1487C99.1323 46.0776 99.2986 46.0245 99.4674 45.9896C99.6159 45.2379 100.004 44.5653 100.564 44.0875C101.13 43.6047 101.831 43.3424 102.553 43.3434C103.279 43.3434 103.982 43.6061 104.544 44.0887C105.105 44.5701 105.492 45.2417 105.639 45.9896C106.071 46.0556 106.471 46.2665 106.782 46.59C106.788 46.309 106.775 46.0279 106.744 45.7489C106.657 44.613 106.163 43.5575 105.367 42.8038C104.562 42.0415 103.518 41.6331 102.445 41.66C101.372 41.6831 100.346 42.1407 99.5735 42.941C98.8102 43.7325 98.3629 44.811 98.3258 45.9495V46.59C98.5271 46.4205 98.7441 46.2717 98.9731 46.1487Z" fill="white"/>
<path d="M105.029 46.4697H99.9631C99.6967 46.4645 99.4327 46.5344 99.2013 46.6702C98.965 46.7595 98.7552 46.9109 98.5913 47.1102C98.2369 47.6058 98.0609 48.2165 98.0971 48.835V53.0029C98.0693 53.6331 98.2429 54.2542 98.5913 54.7666C98.7721 54.9451 98.977 55.094 99.2013 55.2065C99.4387 55.3295 99.6979 55.398 99.9631 55.4084H105.029C106.324 55.4084 107.01 54.6462 107.01 53.1232V48.7548C107.01 47.2318 106.362 46.5098 105.029 46.4697ZM166.164 48.4753V53.3652C166.159 53.6295 166.207 53.892 166.306 54.1342C166.404 54.3765 166.551 54.5927 166.736 54.7679C166.942 54.9653 167.183 55.1166 167.445 55.213C167.707 55.3094 167.983 55.349 168.259 55.3295H171.268V54.447H168.297C168.132 54.4528 167.969 54.42 167.818 54.3507C167.666 54.2813 167.531 54.1773 167.422 54.0458C167.199 53.7829 167.076 53.4398 167.078 53.0844V48.6759C167.07 48.5105 167.096 48.3452 167.156 48.1924C167.215 48.0396 167.306 47.9032 167.422 47.7934C167.53 47.6744 167.661 47.581 167.805 47.5191C167.949 47.4571 168.104 47.4281 168.259 47.4337H171.23V46.5111H168.259C167.759 46.5162 167.271 46.6689 166.849 46.951C166.615 47.1139 166.427 47.3426 166.305 47.6122C166.185 47.8814 166.136 48.179 166.164 48.4753ZM180.028 48.276C180.024 48.0131 179.972 47.7536 179.874 47.5125C179.776 47.2715 179.634 47.0538 179.457 46.8721C179.324 46.6887 179.136 46.561 178.924 46.5111C178.686 46.4623 178.442 46.4492 178.201 46.4722H173.439V47.3936H178.009C178.962 47.3936 179.115 47.9538 179.115 48.3149V49.4367H175.344C174.048 49.4367 173.439 50.239 173.439 51.9626V53.2449C173.439 53.7987 173.644 54.3318 174.011 54.7278C174.177 54.9317 174.382 55.0946 174.612 55.2054C174.842 55.3162 175.092 55.3722 175.344 55.3696H178.201C178.437 55.364 178.67 55.3079 178.885 55.2046C179.101 55.1013 179.295 54.9528 179.457 54.7679C179.636 54.5879 179.779 54.3707 179.877 54.1296C179.975 53.8884 180.027 53.6284 180.028 53.3652V48.276ZM179.115 53.285C179.107 53.4702 179.054 53.6499 178.962 53.8065C178.909 53.9378 178.831 54.0556 178.732 54.1521C178.634 54.2487 178.518 54.3218 178.391 54.3667C178.171 54.4444 177.937 54.4703 177.705 54.447H175.801C175.46 54.4735 175.119 54.4048 174.81 54.2477C174.666 54.1308 174.549 53.9798 174.468 53.8065C174.402 53.6548 174.364 53.4917 174.353 53.3251V51.6429C174.353 51.1603 174.543 50.3994 175.763 50.3994H179.152L179.115 53.285ZM184.598 47.4324H185.018V46.4697H184.485C184.223 46.4468 183.96 46.4813 183.711 46.5709C183.462 46.6605 183.233 46.8035 183.037 46.9911C182.771 47.2719 182.656 47.7934 182.656 48.5542V55.3282H183.533V48.5944C183.516 48.4404 183.531 48.2842 183.578 48.1376C183.626 47.9911 183.703 47.8579 183.805 47.7481C183.908 47.6365 184.032 47.5504 184.169 47.4958C184.306 47.4413 184.453 47.4196 184.598 47.4324ZM193.322 43.183H192.446V46.4697H188.903C187.532 46.4697 186.885 47.1102 186.885 48.4727V53.2837C186.865 53.5449 186.896 53.8077 186.974 54.0558C187.053 54.304 187.178 54.5322 187.342 54.7265C187.518 54.927 187.731 55.0872 187.966 55.1973C188.202 55.3074 188.456 55.3651 188.713 55.367H191.494C191.742 55.3722 191.988 55.3165 192.212 55.2052C192.436 55.0939 192.634 54.9309 192.788 54.7265C193.158 54.2865 193.351 53.7107 193.322 53.1219V43.183ZM192.446 53.0818C192.455 53.2592 192.429 53.4365 192.369 53.6024C192.31 53.7682 192.219 53.9188 192.102 54.0445C191.991 54.1735 191.855 54.2759 191.705 54.345C191.554 54.4141 191.391 54.4484 191.227 54.4457H188.751C188.613 54.4492 188.476 54.4184 188.35 54.3558C188.225 54.2932 188.115 54.2004 188.028 54.0847C187.845 53.8493 187.75 53.5498 187.76 53.2436V48.7147C187.76 47.8723 188.18 47.4311 188.942 47.4311H192.446V53.0818ZM115.314 49.2763C115.314 48.9153 115.161 48.7548 114.856 48.7548H113.257C113.137 48.7541 113.02 48.791 112.92 48.8612C112.82 48.9314 112.741 49.0316 112.693 49.1495C112.663 49.2273 112.648 49.311 112.648 49.3953V52.4426C112.648 52.8826 112.877 53.0831 113.296 53.0831H114.781C114.854 53.0795 114.925 53.0599 114.99 53.0257C115.056 52.9914 115.114 52.9432 115.162 52.8839C115.214 52.843 115.256 52.788 115.283 52.7245C115.31 52.661 115.321 52.591 115.315 52.5215V49.2763H115.314ZM110.476 48.835C110.471 48.1939 110.673 47.5705 111.047 47.0714C111.228 46.8928 111.433 46.744 111.656 46.6314C111.894 46.5081 112.154 46.4393 112.418 46.4295H115.39C116.684 46.4295 117.37 47.1917 117.37 48.7147V53.3238C117.375 53.5863 117.322 53.8464 117.216 54.0831C117.111 54.3198 116.954 54.5264 116.76 54.6864C116.393 55.0743 115.905 55.3028 115.39 55.3282H112.57V58.6549H110.475L110.476 48.835ZM121.141 52.6833C121.138 52.7465 121.15 52.8096 121.177 52.866C121.204 52.9224 121.244 52.9701 121.294 53.0042C121.406 53.0858 121.539 53.1278 121.675 53.1245H123.275C123.617 53.1245 123.807 52.9641 123.846 52.6846V52.0428C123.846 51.6805 123.656 51.5213 123.275 51.5213H121.674C121.525 51.5063 121.377 51.549 121.255 51.6416C121.163 51.7811 121.122 51.9528 121.141 52.123V52.6833ZM123.846 49.2362C123.846 48.9165 123.656 48.7561 123.275 48.7561H119.084V46.5111H123.807C125.178 46.5512 125.864 47.2331 125.903 48.5944V53.285C125.912 53.8323 125.722 54.3642 125.37 54.7679C125.195 54.9678 124.981 55.1249 124.745 55.2287C124.508 55.3325 124.253 55.3806 123.998 55.3696H121.141C119.77 55.3696 119.046 54.6876 119.046 53.3639V51.5627C119.046 50.1601 119.733 49.4794 121.065 49.438H123.846V49.2362ZM131.73 56.4513C131.888 56.4446 132.039 56.3728 132.149 56.2508C132.197 56.2054 132.235 56.1498 132.261 56.0876C132.287 56.0254 132.301 55.958 132.301 55.8897V55.3683H129.635C129.351 55.3763 129.068 55.3356 128.797 55.2479C128.549 55.1446 128.327 54.9802 128.15 54.7679C127.963 54.5398 127.809 54.2829 127.693 54.0057C127.595 53.7235 127.544 53.4255 127.541 53.1245V46.471H129.635V52.4025C129.635 52.8839 129.825 53.1245 130.207 53.1245H131.692C131.777 53.125 131.861 53.1075 131.94 53.0731C132.018 53.0387 132.089 52.988 132.149 52.924C132.254 52.8349 132.323 52.7054 132.34 52.5629V46.471H134.396V56.2508C134.419 56.8848 134.23 57.5098 133.864 58.0144C133.695 58.2357 133.48 58.413 133.237 58.532C132.991 58.6503 132.722 58.7061 132.453 58.6951H127.578V56.4513H131.73ZM135.996 53.1245H139.691C140.033 53.1245 140.224 52.9641 140.224 52.6833V52.4827C140.226 52.4136 140.214 52.3448 140.186 52.2822C140.161 52.216 140.119 52.1585 140.066 52.1161C140.012 52.0736 139.949 52.0478 139.882 52.0415H138.054C137.528 52.0491 137.021 51.8333 136.643 51.4411C136.462 51.2859 136.314 51.0909 136.208 50.8691C136.103 50.6483 136.044 50.4054 136.035 50.1575V48.4753C136.072 47.1516 136.72 46.5111 138.054 46.4697H142.357V48.7147H138.701C138.282 48.7147 138.054 48.835 138.054 49.1158V49.3164C138.054 49.5972 138.283 49.7563 138.701 49.7563H140.529C140.767 49.7537 141.004 49.8068 141.222 49.9116C141.439 50.0151 141.632 50.1678 141.786 50.358C142.123 50.7242 142.315 51.2121 142.319 51.7206V53.3639C142.28 53.8815 142.063 54.3654 141.71 54.7278C141.548 54.9238 141.355 55.0865 141.139 55.2078C140.869 55.3023 140.584 55.3437 140.301 55.3282H135.997L135.996 53.1245ZM145.938 52.6833C145.934 52.7466 145.947 52.8097 145.973 52.8661C146 52.9225 146.041 52.9702 146.091 53.0042C146.203 53.0858 146.336 53.1278 146.472 53.1245H148.071C148.414 53.1245 148.604 52.9641 148.643 52.6846V52.0428C148.643 51.6805 148.452 51.5213 148.071 51.5213H146.472C146.323 51.5059 146.174 51.5486 146.052 51.6416C145.959 51.781 145.918 51.9528 145.938 52.123V52.6833ZM148.643 49.2362C148.643 48.9165 148.452 48.7561 148.071 48.7561H143.881V46.5111H148.604C149.976 46.5512 150.661 47.2331 150.699 48.5944V53.285C150.709 53.8323 150.518 54.3642 150.166 54.7679C149.992 54.9693 149.779 55.1275 149.542 55.2314C149.305 55.3353 149.05 55.3825 148.795 55.3696H145.938C144.567 55.3696 143.842 54.6876 143.842 53.3639V51.5627C143.842 50.1601 144.53 49.4794 145.862 49.438H148.643V49.2362ZM152.375 45.2287C152.369 44.9505 152.424 44.6747 152.537 44.4239C152.649 44.1731 152.816 43.9545 153.022 43.786C153.478 43.4049 154.044 43.2063 154.622 43.2244H155.955V45.3879H155.156C155.069 45.3754 154.981 45.3828 154.898 45.4096C154.814 45.4363 154.737 45.4819 154.671 45.5432C154.607 45.6036 154.555 45.6785 154.52 45.7626C154.486 45.8466 154.468 45.9378 154.47 46.0297V46.5111H155.955V48.7548H154.47V55.4071H152.375V45.2287ZM161.822 49.196V49.1572C161.825 49.0993 161.812 49.0418 161.785 48.9916C161.758 48.9415 161.717 48.901 161.669 48.8751C161.568 48.7996 161.449 48.7577 161.327 48.7548H159.88C159.798 48.7471 159.714 48.7573 159.636 48.7849C159.557 48.8124 159.484 48.8568 159.422 48.9153C159.356 48.9564 159.3 49.0147 159.26 49.0847C159.22 49.1547 159.197 49.2344 159.193 49.3164V50.2377L161.822 49.196ZM159.27 52.3624V52.4827C159.263 52.5636 159.272 52.6453 159.299 52.7215C159.325 52.7977 159.367 52.8665 159.422 52.9227C159.498 53.0443 159.574 53.1245 159.688 53.1245H163.956V55.3683H159.422C159.101 55.3809 158.779 55.3403 158.47 55.2479C158.214 55.1562 157.98 55.0061 157.784 54.808C157.581 54.6089 157.424 54.3617 157.326 54.086C157.239 53.7469 157.201 53.3957 157.212 53.0443V48.5542C157.251 47.1917 157.898 46.5098 159.232 46.471H162.05C163.346 46.5098 163.993 47.1917 164.031 48.6345V50.3981L159.27 52.3624Z" fill="white"/>
<path d="M50.7751 79.0001C50.7751 83.7667 46.997 87.6626 42.2744 87.6626C37.5967 87.6626 33.7736 83.7667 33.7736 79.0001C33.7736 74.2334 37.5517 70.3376 42.2294 70.3376C46.997 70.3376 50.7751 74.2334 50.7751 79.0001Z" fill="#FFB600"/>
<path d="M42.2744 70.3376C46.9521 70.3376 50.7751 74.2334 50.7751 79.0001C50.7751 83.7667 46.997 87.6626 42.2744 87.6626C37.5967 87.6626 33.7736 83.7667 33.7736 79.0001" fill="#F7981D"/>
<path d="M42.2744 70.3376C46.9521 70.3376 50.7752 74.2334 50.7752 79.0001C50.7752 83.7667 46.997 87.6626 42.2744 87.6626" fill="#FF8500"/>
<path d="M30.8499 70.3376C26.2172 70.3834 22.4391 74.2334 22.4391 79.0001C22.4391 83.7667 26.2172 87.6626 30.9399 87.6626C33.1438 87.6626 35.1228 86.7917 36.652 85.4167C36.9669 85.1417 37.2368 84.8209 37.5066 84.5001H35.7525C35.5276 84.2251 35.3028 83.9042 35.1228 83.6292H38.1363C38.3162 83.3542 38.4961 83.0334 38.6311 82.7125H34.6281C34.4932 82.4375 34.3582 82.1167 34.2682 81.7959H38.9459C39.2158 80.9251 39.3957 80.0084 39.3957 79.0459C39.3957 78.4042 39.3057 77.8084 39.2158 77.2125H33.9984C34.0434 76.8917 34.1333 76.6167 34.2233 76.2959H38.9009C38.811 75.9751 38.6761 75.6542 38.5411 75.3792H34.583C34.718 75.0584 34.8979 74.7834 35.0778 74.4625H38.0913C37.9114 74.1417 37.6865 73.8209 37.4167 73.5459H35.7525C36.0224 73.2251 36.2922 72.9501 36.6071 72.6751C35.1228 71.2542 33.0988 70.4292 30.8949 70.4292C30.8949 70.3376 30.8949 70.3376 30.8499 70.3376Z" fill="#FF5050"/>
<path d="M22.4391 79C22.4391 83.7667 26.2172 87.6625 30.9399 87.6625C33.1438 87.6625 35.1228 86.7917 36.652 85.4167C36.9669 85.1417 37.2368 84.8209 37.5066 84.5H35.7525C35.5276 84.225 35.3028 83.9042 35.1228 83.6292H38.1363C38.3162 83.3542 38.4961 83.0333 38.6311 82.7125H34.6281C34.4932 82.4375 34.3582 82.1167 34.2682 81.7959H38.9459C39.2158 80.925 39.3957 80.0083 39.3957 79.0459C39.3957 78.4042 39.3057 77.8083 39.2158 77.2125H33.9984C34.0434 76.8917 34.1333 76.6167 34.2233 76.2959H38.9009C38.811 75.975 38.6761 75.6542 38.5411 75.3792H34.583C34.718 75.0583 34.8979 74.7833 35.0778 74.4625H38.0913C37.9114 74.1417 37.6865 73.8209 37.4167 73.5459H35.7525C36.0224 73.225 36.2922 72.95 36.6071 72.675C35.1228 71.2542 33.0988 70.4292 30.8949 70.4292H30.8499" fill="#E52836"/>
<path d="M30.9401 87.6625C33.1439 87.6625 35.123 86.7917 36.6522 85.4167C36.9671 85.1417 37.2369 84.8209 37.5068 84.5H35.7526C35.5278 84.225 35.3029 83.9042 35.123 83.6292H38.1365C38.3164 83.3542 38.4963 83.0333 38.6312 82.7125H34.6282C34.4933 82.4375 34.3584 82.1167 34.2684 81.7959H38.9461C39.216 80.925 39.3959 80.0083 39.3959 79.0459C39.3959 78.4042 39.3059 77.8083 39.216 77.2125H33.9985C34.0435 76.8917 34.1334 76.6167 34.2234 76.2959H38.9011C38.8111 75.975 38.6762 75.6542 38.5413 75.3792H34.5832C34.7182 75.0583 34.8981 74.7833 35.078 74.4625H38.0915C37.9116 74.1417 37.6867 73.8209 37.4168 73.5459H35.7526C36.0225 73.225 36.2924 72.95 36.6072 72.675C35.123 71.2542 33.099 70.4292 30.895 70.4292H30.8501" fill="#CB2026"/>
<path d="M33.9534 81.2001L34.0883 80.4209C34.0433 80.4209 33.9534 80.4667 33.8634 80.4667C33.5486 80.4667 33.5036 80.2834 33.5486 80.1917L33.8184 78.5875H34.3132L34.4481 77.7167H33.9983L34.0883 77.1667H33.1887C33.1887 77.1667 32.649 80.1917 32.649 80.5584C32.649 81.1084 32.9639 81.3375 33.3687 81.3375C33.6385 81.3375 33.8634 81.2459 33.9534 81.2001ZM34.2682 79.7334C34.2682 81.0167 35.1228 81.3375 35.8425 81.3375C36.5171 81.3375 36.787 81.2001 36.787 81.2001L36.9669 80.3292C36.9669 80.3292 36.4721 80.5584 36.0224 80.5584C35.0329 80.5584 35.2128 79.8251 35.2128 79.8251H37.0568C37.0568 79.8251 37.1918 79.2292 37.1918 79.0001C37.1918 78.4042 36.8769 77.6709 35.8874 77.6709C34.9429 77.5792 34.2682 78.5875 34.2682 79.7334ZM35.8425 78.4042C36.3372 78.4042 36.2472 79.0001 36.2472 79.0459H35.2577C35.2577 79.0001 35.3477 78.4042 35.8425 78.4042ZM41.5546 81.2001L41.7345 80.1917C41.7345 80.1917 41.2847 80.4209 40.9699 80.4209C40.3402 80.4209 40.0704 79.9167 40.0704 79.3667C40.0704 78.2667 40.6101 77.6709 41.2398 77.6709C41.6896 77.6709 42.0494 77.9459 42.0494 77.9459L42.1843 76.9834C42.1843 76.9834 41.6446 76.7542 41.1498 76.7542C40.1153 76.7542 39.0809 77.6709 39.0809 79.4125C39.0809 80.5584 39.6206 81.3375 40.7001 81.3375C41.0599 81.3375 41.5546 81.2001 41.5546 81.2001ZM29.0058 77.5792C28.3761 77.5792 27.9263 77.7625 27.9263 77.7625L27.7914 78.5417C27.7914 78.5417 28.1962 78.3584 28.7809 78.3584C29.0958 78.3584 29.3657 78.4042 29.3657 78.6792C29.3657 78.8625 29.3207 78.9084 29.3207 78.9084H28.9159C28.1512 78.9084 27.2967 79.2292 27.2967 80.2834C27.2967 81.1084 27.8364 81.2917 28.1512 81.2917C28.7809 81.2917 29.0508 80.8792 29.0958 80.8792L29.0508 81.2459H29.8604L30.2202 78.7251C30.2202 77.6251 29.3207 77.5792 29.0058 77.5792ZM29.1858 79.6417C29.1858 79.7792 29.0958 80.5125 28.556 80.5125C28.2862 80.5125 28.1962 80.2834 28.1962 80.1459C28.1962 79.9167 28.3311 79.5959 29.0058 79.5959C29.1407 79.6417 29.1858 79.6417 29.1858 79.6417ZM31.0748 81.2917C31.2997 81.2917 32.4242 81.3375 32.4242 80.1001C32.4242 78.9542 31.3447 79.1834 31.3447 78.7251C31.3447 78.4959 31.5246 78.4042 31.8394 78.4042C31.9744 78.4042 32.4691 78.4501 32.4691 78.4501L32.6041 77.6251C32.6041 77.6251 32.2892 77.5334 31.7495 77.5334C31.0748 77.5334 30.4001 77.8084 30.4001 78.7251C30.4001 79.7792 31.5246 79.6875 31.5246 80.1001C31.5246 80.3751 31.2097 80.4209 30.9849 80.4209C30.58 80.4209 30.1753 80.2834 30.1753 80.2834L30.0403 81.1084C30.0853 81.2001 30.3102 81.2917 31.0748 81.2917ZM49.0209 76.8459L48.841 78.0834C48.841 78.0834 48.4812 77.6251 47.9865 77.6251C47.1769 77.6251 46.4572 78.6334 46.4572 79.8251C46.4572 80.5584 46.817 81.3375 47.5816 81.3375C48.1214 81.3375 48.4362 80.9709 48.4362 80.9709L48.3912 81.2917H49.2908L49.9655 76.8917L49.0209 76.8459ZM48.6161 79.2751C48.6161 79.7792 48.3912 80.4209 47.8965 80.4209C47.5816 80.4209 47.4017 80.1459 47.4017 79.6875C47.4017 78.9542 47.7166 78.4959 48.1214 78.4959C48.4362 78.4959 48.6161 78.7251 48.6161 79.2751ZM24.1032 81.2459L24.643 77.9459L24.7329 81.2459H25.3626L26.532 77.9459L26.0373 81.2459H26.9818L27.7015 76.8459H26.2172L25.3176 79.5501L25.2727 76.8459H23.9683L23.2487 81.2459H24.1032ZM38.0463 81.2459C38.3162 79.7334 38.3612 78.4959 38.9909 78.7251C39.0809 78.1292 39.2158 77.9001 39.3057 77.6709H39.1258C38.721 77.6709 38.4062 78.2209 38.4062 78.2209L38.4961 77.7167H37.6416L37.0568 81.2917H38.0463V81.2459ZM43.6236 77.5792C42.9939 77.5792 42.5441 77.7625 42.5441 77.7625L42.4092 78.5417C42.4092 78.5417 42.814 78.3584 43.3987 78.3584C43.7135 78.3584 43.9834 78.4042 43.9834 78.6792C43.9834 78.8625 43.9385 78.9084 43.9385 78.9084H43.5336C42.769 78.9084 41.9144 79.2292 41.9144 80.2834C41.9144 81.1084 42.4542 81.2917 42.769 81.2917C43.3987 81.2917 43.6686 80.8792 43.7135 80.8792L43.6686 81.2459H44.4782L44.838 78.7251C44.883 77.6251 43.9385 77.5792 43.6236 77.5792ZM43.8485 79.6417C43.8485 79.7792 43.7585 80.5125 43.2188 80.5125C42.9489 80.5125 42.859 80.2834 42.859 80.1459C42.859 79.9167 42.9939 79.5959 43.6686 79.5959C43.8035 79.6417 43.8035 79.6417 43.8485 79.6417ZM45.6026 81.2459C45.8725 79.7334 45.9175 78.4959 46.5472 78.7251C46.6371 78.1292 46.772 77.9001 46.862 77.6709H46.6821C46.2773 77.6709 45.9624 78.2209 45.9624 78.2209L46.0524 77.7167H45.1978L44.6131 81.2917H45.6026V81.2459Z" fill="white"/>
<path d="M32.5591 80.5584C32.5591 81.1084 32.8739 81.3375 33.2787 81.3375C33.5936 81.3375 33.8634 81.2459 33.9534 81.2001L34.0883 80.4209C34.0433 80.4209 33.9534 80.4667 33.8634 80.4667C33.5486 80.4667 33.5036 80.2834 33.5486 80.1917L33.8184 78.5875H34.3132L34.4481 77.7167H33.9983L34.0883 77.1667M34.718 79.7334C34.718 81.0167 35.1228 81.3375 35.8425 81.3375C36.5171 81.3375 36.787 81.2001 36.787 81.2001L36.9669 80.3292C36.9669 80.3292 36.4721 80.5584 36.0224 80.5584C35.0329 80.5584 35.2128 79.8251 35.2128 79.8251H37.0568C37.0568 79.8251 37.1918 79.2292 37.1918 79.0001C37.1918 78.4042 36.8769 77.6709 35.8874 77.6709C34.9429 77.5792 34.718 78.5875 34.718 79.7334ZM35.8425 78.4042C36.3372 78.4042 36.4271 79.0001 36.4271 79.0459H35.2577C35.2577 79.0001 35.3477 78.4042 35.8425 78.4042ZM41.5546 81.2001L41.7345 80.1917C41.7345 80.1917 41.2847 80.4209 40.9699 80.4209C40.3402 80.4209 40.0704 79.9167 40.0704 79.3667C40.0704 78.2667 40.6101 77.6709 41.2398 77.6709C41.6896 77.6709 42.0494 77.9459 42.0494 77.9459L42.1843 76.9834C42.1843 76.9834 41.6446 76.7542 41.1498 76.7542C40.1153 76.7542 39.5306 77.6709 39.5306 79.4125C39.5306 80.5584 39.6206 81.3375 40.7001 81.3375C41.0599 81.3375 41.5546 81.2001 41.5546 81.2001ZM27.7914 78.5875C27.7914 78.5875 28.1962 78.4042 28.7809 78.4042C29.0958 78.4042 29.3657 78.4501 29.3657 78.7251C29.3657 78.9084 29.3207 78.9542 29.3207 78.9542H28.9159C28.1512 78.9542 27.2967 79.2751 27.2967 80.3292C27.2967 81.1542 27.8364 81.3375 28.1512 81.3375C28.7809 81.3375 29.0508 80.9251 29.0958 80.9251L29.0508 81.2917H29.8604L30.2202 78.7709C30.2202 77.7167 29.3207 77.6709 28.9608 77.6709M29.6355 79.6417C29.6355 79.7792 29.0958 80.5125 28.556 80.5125C28.2862 80.5125 28.1962 80.2834 28.1962 80.1459C28.1962 79.9167 28.3311 79.5959 29.0058 79.5959C29.1407 79.6417 29.6355 79.6417 29.6355 79.6417ZM30.0853 81.2001C30.0853 81.2001 30.3552 81.2917 31.1198 81.2917C31.3447 81.2917 32.4691 81.3375 32.4691 80.1001C32.4691 78.9542 31.3896 79.1834 31.3896 78.7251C31.3896 78.4959 31.5695 78.4042 31.8844 78.4042C32.0193 78.4042 32.5141 78.4501 32.5141 78.4501L32.649 77.6251C32.649 77.6251 32.3342 77.5334 31.7945 77.5334C31.1198 77.5334 30.8949 77.8084 30.8949 78.7251C30.8949 79.7792 31.5695 79.6875 31.5695 80.1001C31.5695 80.3751 31.2547 80.4209 31.0298 80.4209M48.841 78.0834C48.841 78.0834 48.4812 77.6251 47.9865 77.6251C47.1769 77.6251 46.907 78.6334 46.907 79.8251C46.907 80.5584 46.817 81.3375 47.5816 81.3375C48.1214 81.3375 48.4362 80.9709 48.4362 80.9709L48.3912 81.2917H49.2908L49.9655 76.8917M48.7961 79.2751C48.7961 79.7792 48.3912 80.4209 47.8965 80.4209C47.5816 80.4209 47.4017 80.1459 47.4017 79.6875C47.4017 78.9542 47.7166 78.4959 48.1214 78.4959C48.4362 78.4959 48.7961 78.7251 48.7961 79.2751ZM24.1032 81.2459L24.643 77.9459L24.7329 81.2459H25.3626L26.532 77.9459L26.0373 81.2459H26.9818L27.7015 76.8459H26.577L25.3176 79.5501L25.2727 76.8459H24.7779L23.2487 81.2459H24.1032ZM37.1018 81.2459H38.0463C38.3162 79.7334 38.3612 78.4959 38.9909 78.7251C39.0809 78.1292 39.2158 77.9001 39.3057 77.6709H39.1258C38.721 77.6709 38.4062 78.2209 38.4062 78.2209L38.4961 77.7167M42.4092 78.5875C42.4092 78.5875 42.814 78.4042 43.3987 78.4042C43.7135 78.4042 43.9834 78.4501 43.9834 78.7251C43.9834 78.9084 43.9385 78.9542 43.9385 78.9542H43.5336C42.769 78.9542 41.9144 79.2751 41.9144 80.3292C41.9144 81.1542 42.4542 81.3375 42.769 81.3375C43.3987 81.3375 43.6686 80.9251 43.7135 80.9251L43.6686 81.2917H44.4782L44.838 78.7709C44.838 77.7167 43.9385 77.6709 43.5786 77.6709M44.2533 79.6417C44.2533 79.7792 43.7135 80.5125 43.1738 80.5125C42.9039 80.5125 42.814 80.2834 42.814 80.1459C42.814 79.9167 42.9489 79.5959 43.6236 79.5959C43.8035 79.6417 44.2533 79.6417 44.2533 79.6417ZM44.6581 81.2459H45.6026C45.8725 79.7334 45.9175 78.4959 46.5472 78.7251C46.6371 78.1292 46.772 77.9001 46.862 77.6709H46.6821C46.2773 77.6709 45.9624 78.2209 45.9624 78.2209L46.0524 77.7167" fill="#DCE5E5"/>
<path d="M86.5821 70.5419C83.2992 70.5419 80.3516 72.303 80.3516 75.5347C80.3516 79.2566 85.5584 79.5108 85.5584 81.3627C85.5584 82.1434 84.6759 82.8514 83.1933 82.8514C81.0753 82.8514 79.4868 81.871 79.4868 81.871L78.8161 85.139C78.8161 85.139 80.634 85.9742 83.0697 85.9742C86.6703 85.9742 89.4943 84.1405 89.4943 80.8362C89.4943 76.9145 84.2699 76.6604 84.2699 74.9356C84.2699 74.3183 84.9936 73.6465 86.4762 73.6465C88.1529 73.6465 89.5296 74.3546 89.5296 74.3546L90.2003 71.1955C90.1827 71.1955 88.6824 70.5419 86.5821 70.5419ZM56.5066 70.778L56.4183 71.25C56.4183 71.25 57.795 71.5042 59.0482 72.0307C60.6543 72.6298 60.7602 72.9748 61.0426 74.046L63.9902 85.72H67.9437L73.9977 70.778H70.0617L66.1611 80.9451L64.5726 72.3212C64.4314 71.3408 63.6901 70.778 62.7723 70.778H56.5066ZM75.5862 70.778L72.4974 85.72H76.2569L79.3279 70.778H75.5862ZM96.519 70.778C95.6188 70.778 95.1423 71.2682 94.7893 72.1396L89.2825 85.72H93.2184L93.9774 83.4506H98.7782L99.2371 85.72H102.714L99.696 70.778H96.519ZM97.0308 74.8267L98.1957 80.4367H95.0717L97.0308 74.8267Z" fill="#1434CB"/>
<mask id="mask2_139_16" style="mask-type:luminance" maskUnits="userSpaceOnUse" x="109" y="67" width="22" height="22">
<path d="M130.5 67.7227H109.5V88.7911H130.5V67.7227Z" fill="white"/>
</mask>
<g mask="url(#mask2_139_16)">
<path d="M120 87.6509C125.172 87.6509 129.364 83.4451 129.364 78.2569C129.364 73.0687 125.172 68.8628 120 68.8628C114.829 68.8628 110.637 73.0687 110.637 78.2569C110.637 83.4451 114.829 87.6509 120 87.6509Z" fill="white"/>
<path d="M120 67.7227C117.923 67.7227 115.893 68.3405 114.167 69.4981C112.44 70.6556 111.094 72.3008 110.299 74.2257C109.505 76.1505 109.297 78.2686 109.702 80.312C110.107 82.3554 111.107 84.2325 112.575 85.7057C114.044 87.1789 115.915 88.1822 117.952 88.5887C119.988 88.9951 122.1 88.7866 124.018 87.9893C125.937 87.192 127.577 85.8417 128.73 84.1094C129.884 82.377 130.5 80.3404 130.5 78.2569C130.504 76.8776 130.237 75.5109 129.715 74.235C129.192 72.9591 128.424 71.799 127.455 70.8208C126.486 69.8426 125.334 69.0655 124.065 68.534C122.797 68.0024 121.436 67.7267 120.061 67.7227H120ZM120.178 78.614L119.085 82.3125H124.932C124.971 82.3111 125.01 82.3174 125.046 82.331C125.082 82.3446 125.115 82.3653 125.144 82.3919C125.172 82.4184 125.195 82.4503 125.211 82.4857C125.227 82.521 125.236 82.5593 125.237 82.5981V82.695L124.729 84.455C124.706 84.5383 124.656 84.6113 124.587 84.6623C124.518 84.7133 124.433 84.7391 124.347 84.7356H115.398L116.898 79.6088L115.22 80.1189L115.602 78.9456L117.28 78.4355L119.39 71.2426C119.413 71.1599 119.463 71.0873 119.532 71.0364C119.601 70.9856 119.686 70.9594 119.771 70.962H122.034C122.073 70.9607 122.111 70.967 122.148 70.9806C122.184 70.9942 122.217 71.0149 122.245 71.0414C122.274 71.068 122.297 71.0998 122.313 71.1352C122.329 71.1706 122.338 71.2089 122.339 71.2477V71.3446L120.559 77.4152L122.237 76.905L121.881 78.1294L120.178 78.614Z" fill="#345D9D"/>
</g>
<path fill-rule="evenodd" clip-rule="evenodd" d="M142.509 69.1805L138.487 77.8943C138.472 77.9267 138.467 77.9634 138.473 77.9988C138.48 78.0343 138.497 78.0667 138.522 78.0914L149.385 88.8275C149.416 88.858 149.457 88.875 149.5 88.875C149.543 88.875 149.584 88.858 149.615 88.8275L160.478 78.0921C160.503 78.0674 160.52 78.0349 160.527 77.9995C160.533 77.964 160.528 77.9274 160.513 77.895L156.491 69.1812C156.478 69.152 156.457 69.1272 156.431 69.1098C156.404 69.0925 156.374 69.0833 156.342 69.0834H142.659C142.627 69.083 142.597 69.0919 142.57 69.1092C142.544 69.1264 142.523 69.1512 142.509 69.1805Z" fill="#50AF95"/>
<path fill-rule="evenodd" clip-rule="evenodd" d="M150.847 78.6753C150.771 78.6809 150.383 78.7041 149.516 78.7041C148.827 78.7041 148.337 78.6835 148.166 78.6753C145.501 78.5582 143.513 78.0949 143.513 77.5402C143.513 76.9855 145.501 76.5228 148.166 76.4038V78.2139C148.34 78.2264 148.839 78.2558 149.528 78.2558C150.355 78.2558 150.769 78.2214 150.844 78.2145V76.4051C153.503 76.5234 155.487 76.9867 155.487 77.5402C155.487 78.0937 153.503 78.557 150.844 78.6747L150.847 78.6753ZM150.847 76.2179V74.5982H154.557V72.1282H144.455V74.5982H148.165V76.2173C145.15 76.3556 142.882 76.9523 142.882 77.6673C142.882 78.3823 145.15 78.9783 148.165 79.1173V84.3077H150.846V79.1155C153.854 78.9771 156.118 78.381 156.118 77.6667C156.118 76.9523 153.856 76.3562 150.846 76.2173L150.847 76.2179Z" fill="white"/>
<mask id="mask3_139_16" style="mask-type:luminance" maskUnits="userSpaceOnUse" x="168" y="68" width="21" height="21">
<path d="M188.656 68.1905H168.5V88.8747H188.656V68.1905Z" fill="white"/>
</mask>
<g mask="url(#mask3_139_16)">
<path d="M188.355 81.0344C187.009 86.5749 181.54 89.9467 176.139 88.5651C170.741 87.1838 167.455 81.5719 168.802 76.0319C170.147 70.4908 175.616 67.1187 181.015 68.5C186.415 69.8812 189.701 75.4937 188.355 81.0344Z" fill="#F7931A"/>
<path d="M183.023 77.0591C183.223 75.6828 182.202 74.943 180.806 74.4495L181.259 72.5852L180.153 72.3024L179.712 74.1176C179.421 74.0432 179.122 73.9731 178.825 73.9036L179.27 72.0764L178.164 71.7936L177.711 73.6573C177.47 73.6011 177.234 73.5455 177.005 73.487L177.006 73.4811L175.481 73.0903L175.187 74.3024C175.187 74.3024 176.007 74.4954 175.99 74.5073C176.438 74.622 176.519 74.9263 176.505 75.1674L175.989 77.2913C176.02 77.2993 176.06 77.3109 176.104 77.3291C176.067 77.3197 176.028 77.3095 175.987 77.2994L175.264 80.2747C175.209 80.4144 175.07 80.6239 174.757 80.5443C174.768 80.5608 173.953 80.3385 173.953 80.3385L173.404 81.6376L174.844 82.0057C175.111 82.0747 175.374 82.1467 175.632 82.2145L175.175 84.1002L176.279 84.383L176.733 82.5173C177.034 82.6014 177.327 82.679 177.614 82.7521L177.162 84.6089L178.268 84.8917L178.726 83.0095C180.612 83.3758 182.03 83.2281 182.627 81.4777C183.108 80.0685 182.603 79.2556 181.611 78.7255C182.333 78.5545 182.877 78.0666 183.023 77.0591ZM180.496 80.6951C180.154 82.1044 177.841 81.3426 177.092 81.1516L177.699 78.6533C178.449 78.8453 180.853 79.2254 180.496 80.6951ZM180.838 77.0387C180.526 78.3206 178.601 77.6694 177.977 77.5096L178.527 75.2439C179.152 75.4036 181.162 75.7017 180.838 77.0387Z" fill="white"/>
</g>
<defs>
<clipPath id="clip0_139_16">
<rect width="56" height="19" fill="white" transform="translate(74 10)"/>
</clipPath>
</defs>
</svg>
