<svg xmlns="http://www.w3.org/2000/svg" width="202" height="108" fill="none"><path fill="#fff" d="M8.1 12.4 4.07 26.73h2.4l1.15-4.2h3.3l1.2 4.2h2.44l-4.1-14.31H8.12Zm2.2 7.83H8.2l.86-3.2.15-.65c.05.24.1.42.2.66l.9 3.19Zm8.25 0c-1.1-.55-1.2-.79-1.2-1.15 0-.48.35-.78.85-.78s.95.18 1.4.48l.44.36.6-2.28-.25-.24a3.23 3.23 0 0 0-2.2-.66c-1.84 0-3.14 1.38-3.14 3.3 0 1.75 1.3 2.7 2.4 3.19 1.1.48 1.2.84 1.2 1.26 0 .78-.7.9-1.1.9-.6-.06-1.2-.24-1.7-.6l-.45-.3-.6 2.35.3.18c.75.48 1.6.78 2.45.72 2 0 3.4-1.38 3.4-3.43-.06-1.98-1.4-2.82-2.4-3.3Zm5.94-6.5-2.3.84v1.63H21v2.34h1.25v4.7a5.17 5.17 0 0 0 .65 2.88c.5.6 1.15.96 1.85.9.5 0 .95-.06 1.4-.24l.3-.12-.1-2.35-.5.18c-.25.06-.45.12-.7.12-.25 0-.65 0-.65-1.32v-4.75h2.05V16.2h-2.05v-2.47Zm7.6 2.35-.4-.06c-.16 0-.26-.06-.4-.06-.7 0-1.4.36-1.9.96v-.78h-2.15v.6c.05.78.05 1.74.05 2.94v7.1h2.3v-5.6c0-.23 0-.47.04-.71.15-1.09.75-1.8 1.5-1.8h.4l.5.11.05-2.7Zm4.19-.12c-2.55 0-4.35 2.28-4.35 5.59 0 3.19 1.75 5.41 4.25 5.41 2.1 0 4.4-1.74 4.4-5.6-.06-3.18-1.8-5.4-4.3-5.4Zm1.9 5.47c0 1.86-.85 3.19-1.95 3.19s-1.95-1.33-1.95-3.13c0-1.2.45-3.19 2-3.19 1.5 0 1.9 2.05 1.9 3.13Zm9.88-7.88c-.74-.84-1.9-1.26-3.4-1.26-.94 0-1.89.06-2.79.24l-.35.12v14.07h2.3v-5.23c.25 0 .5.06.7.06a4.6 4.6 0 0 0 3.7-1.62c.64-.85 1-2.05 1-3.2 0-1.2-.4-2.34-1.16-3.18Zm-1.14 3.25c0 1.98-1.45 2.28-2.35 2.28-.25 0-.5 0-.75-.06v-4.27c.3-.06.6-.06.9-.06 1 .06 2.2.42 2.2 2.1Zm9.29 7.15v-3.54c0-2.83-1.25-4.4-3.45-4.4-1 0-2 .3-2.85.9l-.3.25.6 2.22.5-.42c.55-.42 1.2-.66 1.85-.6.35-.06.75.12 1.05.42.2.24.3.6.35.96-1.8.07-3.1.6-3.9 1.57a3.95 3.95 0 0 0-.85 2.52c0 1.8 1.2 3.25 2.65 3.25h.2c.75 0 1.55-.3 2.15-.84l.05.6h2.2l-.05-.6c-.14-.75-.2-1.52-.2-2.29Zm-3.85.72c-.45.07-.85-.36-.9-.9v-.24c0-.36.1-.66.3-.9.25-.3.85-.66 2.2-.72v1.14c0 .12 0 .24-.05.42-.25.72-.85 1.2-1.55 1.2Zm10.19-8.47-1.65 5.95c-.06.15-.1.31-.1.48l-.15-.42-1.8-5.95h-2.5l3.15 9.5c.05.06.05.12.05.24 0 .06-.05.12-.05.18-.25.66-.6 1.26-1.1 1.74-.35.36-.7.6-1.1.72l-.4.18.6 2.35.4-.06c.75-.18 1.4-.6 2-1.2 1.1-1.2 1.85-3.07 2.85-6.2L65 16.14l-2.45.06Z"/><path fill="red" d="M12.5 16.38c1.5-1.8 4-2.89 6.75-2.89 1.04 0 2.1.18 3.1.48h.1l1.74-.66-.8-.36a13.53 13.53 0 0 0-5.04-1.02 11.2 11.2 0 0 0-6.75 2.1l-.2.12.75 2.59.35-.36Z"/><g clip-path="url(#a)"><path fill="#872165" d="M111.9 28.81h4.66v-13h-4.65v13Zm-2.63-13.18c-4.3.14-6.5 2.06-6.5 5.87v7.31h4.71v-5.96c0-2.29.3-3.27 3.04-3.36v-3.81c-.3-.05-.64-.07-.97-.07l-.28.02ZM74 16.71c0 1.5.66 5.02 6.66 5.44.52.03 1.86.12 1.86 1.38 0 1.03-1.1 1.66-2.97 1.66-1.79-.05-3.55-.4-5.22-1.03v4.16c2.02.5 4.12.73 6.21.7 5.13 0 7.44-2.87 7.44-5.72 0-3.23-2.6-5.33-6.9-5.61-.59-.05-1.95-.12-1.95-1.36 0-1.47 1.95-1.47 2.7-1.47a15.58 15.58 0 0 1 5.42 1.22l.04.02v-4.07l-.07-.02c-1.4-.5-3.06-.96-6.1-.96-5.26 0-7.12 3.04-7.12 5.66Zm15.15-4.72V28.8h4.8v-5.2c1.4 2.07 2.1 5.2 2.1 5.2h5.76c-.56-2.36-3.06-6.68-3.06-6.68a21.26 21.26 0 0 0 3.4-6.31H96.6a16.31 16.31 0 0 1-2.66 4.53v-9.3l-4.8.94Zm29.4-.12v16.94h4.65V11.05l-4.66.82Zm6.8 0v16.94H130V11.05l-4.66.82ZM114.23 10a2.3 2.3 0 0 0-2.31 2.29 2.3 2.3 0 0 0 4.61 0 2.32 2.32 0 0 0-2.3-2.29Z"/><mask id="b" width="56" height="20" x="74" y="10" maskUnits="userSpaceOnUse" style="mask-type:luminance"><path fill="#fff" d="M111.9 28.81h4.66v-13h-4.65v13Zm-2.63-13.18c-4.3.14-6.5 2.06-6.5 5.87v7.31h4.71v-5.96c0-2.29.3-3.27 3.04-3.36v-3.81c-.3-.05-.64-.07-.97-.07l-.28.02ZM74 16.71c0 1.5.66 5.02 6.66 5.44.52.03 1.86.12 1.86 1.38 0 1.03-1.1 1.66-2.97 1.66-1.79-.05-3.55-.4-5.22-1.03v4.16c2.02.5 4.12.73 6.21.7 5.13 0 7.44-2.87 7.44-5.72 0-3.23-2.6-5.33-6.9-5.61-.59-.05-1.95-.12-1.95-1.36 0-1.47 1.95-1.47 2.7-1.47a15.58 15.58 0 0 1 5.42 1.22l.04.02v-4.07l-.07-.02c-1.4-.5-3.06-.96-6.1-.96-5.26 0-7.12 3.04-7.12 5.66Zm15.15-4.72V28.8h4.8v-5.2c1.4 2.07 2.1 5.2 2.1 5.2h5.76c-.56-2.36-3.06-6.68-3.06-6.68a21.26 21.26 0 0 0 3.4-6.31H96.6a16.31 16.31 0 0 1-2.66 4.53v-9.3l-4.8.94Zm29.4-.12v16.94h4.65V11.05l-4.66.82Zm6.8 0v16.94H130V11.05l-4.66.82ZM114.23 10a2.3 2.3 0 0 0-2.31 2.29 2.3 2.3 0 0 0 4.61 0 2.32 2.32 0 0 0-2.3-2.29Z"/></mask><g mask="url(#b)"><path fill="#872165" d="M130 10H74v19h56V10Z"/></g></g><mask id="c" width="60" height="16" x="137" y="13" maskUnits="userSpaceOnUse" style="mask-type:luminance"><path fill="#fff" d="M196.86 13.57h-58.97v14.81h58.97v-14.8Z"/></mask><g mask="url(#c)"><path fill="#fff" d="M145.71 19.28v-.16c0-1.86-.82-2.75-2.11-2.75-1.3 0-2.13.95-2.13 2.73v.16c0 1.8.8 2.72 2.13 2.72 1.33 0 2.11-.95 2.11-2.7Zm-.8-5.65c2.5 0 4.54 1.86 4.54 5.5v.15c0 3.65-2.04 5.48-4.56 5.48-1.62 0-2.79-.75-3.32-1.8v5.1h-3.67V13.91h3.67v1.58a3.8 3.8 0 0 1 3.34-1.86ZM158.21 19.2v-.16c0-1.84-.78-2.73-2.01-2.73-1.3 0-2.05.91-2.05 2.75v.17c0 1.78.78 2.7 1.99 2.7 1.2 0 2.07-.92 2.07-2.72Zm-7.8.07v-.16c0-3.61 2.1-5.54 4.5-5.54 1.62 0 2.58.69 3.2 1.76v-1.48h3.67v10.6h-3.67v-1.7a3.56 3.56 0 0 1-3.22 1.95c-2.38 0-4.47-1.76-4.47-5.43M169.13 19.57l2.05-5.66h3.5l-5.74 14.15h-3.5l1.78-4.62-4.29-9.53h3.98l2.22 5.66ZM174.88 24.52V22l4.88-5.35h-4.29l-.02-2.74h8.6v2.68l-4.68 5.17h5.03v2.76h-9.52Z"/><path fill="#D0FA02" d="M186.13 23.1a5.29 5.29 0 0 1 5.32-5.32c3.04 0 5.4 2.4 5.4 5.31 0 2.92-2.3 5.3-5.4 5.3a5.2 5.2 0 0 1-5.32-5.3Z"/></g><path fill="#F39001" d="M11.16 43.43a3.94 3.94 0 0 0-2.07-.45c-1.24 0-2.4.42-3.45 1.44l.16-.99a.4.4 0 0 0-.22-.41.38.38 0 0 0-.16-.04H2.87a.39.39 0 0 0-.38.32L0 57.53a.4.4 0 0 0 .21.42c.05.02.1.03.16.03h2.55c.1 0 .18-.03.25-.09a.39.39 0 0 0 .13-.23l.85-4.85c.27.33.7.59 1.16.8.46.2.94.3 1.46.3a5.95 5.95 0 0 0 4.98-2.59 7.53 7.53 0 0 0 1.33-4.15c0-.85-.17-1.6-.5-2.24a3.7 3.7 0 0 0-1.43-1.5ZM9.98 48.4c-.1.5-.31.95-.6 1.35-.3.4-.67.71-1.11.95a3 3 0 0 1-1.42.34c-.43 0-.8-.09-1.1-.27-.28-.17-.52-.43-.67-.73a2.29 2.29 0 0 1-.22-1.03 3.3 3.3 0 0 1 .66-1.9c.3-.4.67-.74 1.1-1 .42-.25.89-.38 1.37-.39.68 0 1.2.18 1.54.55a2 2 0 0 1 .53 1.44c0 .22-.03.45-.08.7Zm28.68-5.43H36.1a.38.38 0 0 0-.33.2l-3.72 6.5-1.11-6.38a.38.38 0 0 0-.38-.32h-2.28a.38.38 0 0 0-.37.28.4.4 0 0 0-.01.17l1.78 10.22a.4.4 0 0 1-.05.26l-1.99 3.49a.4.4 0 0 0 .14.53c.06.03.13.05.2.05h2.55c.14 0 .27-.07.33-.2L39 43.57a.39.39 0 0 0-.14-.53.38.38 0 0 0-.2-.05Zm-12.13.01h-2.1a.38.38 0 0 0-.34.2l-.66 1.14c-.6-.95-1.52-1.34-2.73-1.34-1.1 0-2.1.15-3 .6a6.31 6.31 0 0 0-2.29 1.93 6.98 6.98 0 0 0-1.34 3.98c0 .87.2 1.65.6 2.32.38.67.94 1.21 1.62 1.58.68.38 1.43.56 2.26.56.54 0 1.41-.12 1.9-.32.56-.23.83-.27 1.33-.7l.4.8a.39.39 0 0 0 .34.22h1.8c.44 0 .8-.31.88-.74l1.7-9.77a.4.4 0 0 0-.21-.42.38.38 0 0 0-.16-.04Zm-4.3 5.43c-.1.49-.3.94-.6 1.33-.32.4-.7.73-1.14.97-.41.24-.88.37-1.36.37-.4 0-.75-.09-1.06-.26a1.8 1.8 0 0 1-.7-.72 2.18 2.18 0 0 1-.25-1.05 3.3 3.3 0 0 1 .7-2c.32-.42.7-.73 1.12-.96a2.8 2.8 0 0 1 1.31-.34c.4 0 .76.1 1.07.28.31.18.55.43.72.75a2.52 2.52 0 0 1 .2 1.63Zm54.85-5.44h-2.55c-.09 0-.18.04-.25.1a.39.39 0 0 0-.13.23l-.96 5.51c-.22 1.26-1.13 2.02-2.13 2.03-.16 0-.32 0-.47-.03-.8-.1-1.34-.75-1.2-1.56l.97-5.6a.6.6 0 0 0-.32-.62.57.57 0 0 0-.25-.06h-2.15a.57.57 0 0 0-.57.49l-1.24 7.1c-.3 1.72 1.89 3.3 3.62 3.3 2.45 0 3.05-1.1 3.05-1.1l-.1.65a.4.4 0 0 0 .2.42c.06.02.11.04.17.04h2.55c.09 0 .18-.04.24-.1a.39.39 0 0 0 .14-.23l1.76-10.1a.4.4 0 0 0-.09-.33.39.39 0 0 0-.3-.14Zm.65 10.9h2.54c.1 0 .18-.04.25-.1a.39.39 0 0 0 .13-.23l.96-5.51c.22-1.26 1.13-2.02 2.14-2.03.16 0 .32 0 .47.03.8.1 1.34.75 1.2 1.56l-.98 5.6a.59.59 0 0 0 .33.62c.07.04.16.06.24.06h2.16a.57.57 0 0 0 .57-.49l1.23-7.09c.3-1.73-1.88-3.31-3.62-3.31-2.44 0-3.05 1.1-3.05 1.1l.11-.65a.4.4 0 0 0-.21-.42.38.38 0 0 0-.17-.04H79.5a.38.38 0 0 0-.38.33l-1.76 10.1a.4.4 0 0 0 .21.43c.05.02.1.04.17.04ZM65.3 42.98h-1.78a4.14 4.14 0 0 0-4.1 3.48l-.24 1.36h-1.8a.38.38 0 0 0-.38.32l-.38 2.17a.4.4 0 0 0 .22.42c.05.03.1.04.16.04h1.66l-.62 3.5a.97.97 0 0 1-.95.8h-.99a.38.38 0 0 0-.38.32l-.37 2.14a.4.4 0 0 0 .21.42c.05.02.11.03.17.03h1.47a4.18 4.18 0 0 0 4.14-3.51l.65-3.7h2.09c.1 0 .18-.03.25-.1a.39.39 0 0 0 .13-.22l.38-2.18a.4.4 0 0 0-.22-.42.38.38 0 0 0-.16-.03H62.5l.16-.9c.04-.25.17-.48.37-.64.2-.17.44-.26.7-.26h1.18a.38.38 0 0 0 .37-.32l.4-2.27a.4.4 0 0 0-.22-.42.39.39 0 0 0-.16-.03ZM52.91 52H42.39v3h4.69c.22 0 .4.18.4.4v2.19c0 .22.17.4.39.4h2.76a.4.4 0 0 0 .4-.4v-2.2c0-.21.18-.4.4-.4h1.48a.4.4 0 0 0 .4-.4v-2.19a.4.4 0 0 0-.12-.28.4.4 0 0 0-.28-.12Zm-.66-10.6-2.5-1.46a.78.78 0 0 0-1.08.29l-5.02 8.78a.8.8 0 0 0 .3 1.1c.11.06.25.1.39.1h4.85a.78.78 0 0 0 .69-.4l3.14-5.5a2.14 2.14 0 0 0-.77-2.91Zm-2 1.31.53.3-.9 1.56-.51-.3.88-1.56Zm-1.22-.25a.4.4 0 0 1 .54-.15l.17.1-.89 1.55-.5-.3.68-1.2Zm1.48 3.4a.4.4 0 0 1-.4.2.4.4 0 0 1-.14-.05l-1.88-1.1a.4.4 0 0 1-.2-.4l.05-.15.1-.18 2.57 1.5-.1.18Zm1.09-1.9-.7 1.2-.5-.3.89-1.54.16.1a.4.4 0 0 1 .2.39.4.4 0 0 1-.05.15Zm-13.08 5.52 6.1-10.7a1.6 1.6 0 0 1 1.58-.78c.2.03.4.1.58.2l.35.2a.4.4 0 0 1 .14.55l-7.29 12.77a.4.4 0 0 1-.54.14l-.35-.2a1.6 1.6 0 0 1-.57-2.18Z"/><path fill="#fff" d="M98.97 46.15c.16-.07.33-.13.5-.16.15-.75.53-1.42 1.1-1.9a3.06 3.06 0 0 1 3.97 0c.56.48.95 1.15 1.1 1.9a2 2 0 0 1 1.14.6c0-.28 0-.56-.04-.84a4.53 4.53 0 0 0-1.37-2.95 4.1 4.1 0 0 0-5.8.14 4.55 4.55 0 0 0-1.24 3.01v.64c.2-.17.41-.32.64-.44Z"/><path fill="#fff" d="M105.03 46.47h-5.07c-.26 0-.53.06-.76.2-.23.09-.44.24-.6.44a2.7 2.7 0 0 0-.5 1.73V53c-.03.63.14 1.25.5 1.77.17.18.38.32.6.44.24.12.5.19.76.2h5.07c1.3 0 1.98-.76 1.98-2.29v-4.37c0-1.52-.65-2.24-1.98-2.28Zm61.13 2v4.9a1.94 1.94 0 0 0 .58 1.4 2.05 2.05 0 0 0 1.52.56h3v-.88h-2.96a1.12 1.12 0 0 1-.88-.4c-.22-.27-.34-.61-.34-.97v-4.4a1.17 1.17 0 0 1 .34-.89c.11-.12.24-.2.39-.27.14-.06.3-.1.45-.09h2.97v-.92h-2.97c-.5 0-.99.16-1.41.44-.23.16-.42.4-.54.66-.13.27-.17.57-.15.87Zm13.87-.2a2.11 2.11 0 0 0-.57-1.4.92.92 0 0 0-.54-.36 2.45 2.45 0 0 0-.72-.04h-4.76v.92H178c.95 0 1.1.56 1.1.92v1.13h-3.77c-1.3 0-1.9.8-1.9 2.52v1.28c0 .56.2 1.1.57 1.49.17.2.37.36.6.48.23.1.48.16.73.16h2.86a1.79 1.79 0 0 0 1.26-.6 2.05 2.05 0 0 0 .57-1.4v-5.1Zm-.91 5.01c-.01.19-.07.37-.16.53a1 1 0 0 1-.23.34c-.1.1-.21.17-.34.22-.22.07-.45.1-.68.08h-1.9c-.35.02-.7-.05-1-.2a1.25 1.25 0 0 1-.46-.92v-1.69c0-.48.2-1.24 1.41-1.24h3.4l-.04 2.88Zm5.48-5.85h.42v-.96h-.53a1.81 1.81 0 0 0-1.45.52c-.27.28-.38.8-.38 1.56v6.78h.87v-6.74c-.01-.15 0-.3.05-.45a1.05 1.05 0 0 1 .59-.64.94.94 0 0 1 .43-.07Zm8.72-4.25h-.87v3.29h-3.55c-1.37 0-2.02.64-2.02 2v4.81a2.06 2.06 0 0 0 .46 1.45c.18.2.4.36.63.47.23.1.49.17.74.17h2.78c.25 0 .5-.05.72-.16.23-.12.42-.28.58-.48.37-.44.56-1.02.53-1.6v-9.95Zm-.87 9.9a1.33 1.33 0 0 1-.74 1.27c-.16.06-.32.1-.48.1h-2.48a.85.85 0 0 1-.4-.1.92.92 0 0 1-.32-.27 1.3 1.3 0 0 1-.27-.84v-4.53c0-.84.42-1.28 1.18-1.28h3.5v5.65Zm-77.14-3.8c0-.36-.15-.53-.45-.53h-1.6a.58.58 0 0 0-.34.11.65.65 0 0 0-.27.54v3.04c0 .44.23.64.65.64h1.48a.5.5 0 0 0 .21-.05.54.54 0 0 0 .17-.15.4.4 0 0 0 .12-.16.43.43 0 0 0 .03-.2v-3.24Zm-4.83-.45c0-.64.2-1.26.57-1.76.18-.18.38-.33.6-.44.24-.12.5-.2.77-.2h2.97c1.3 0 1.98.76 1.98 2.28v4.61c0 .27-.05.53-.15.76-.1.24-.27.45-.46.6-.37.4-.86.62-1.37.65h-2.82v3.32h-2.1v-9.81Zm10.66 3.85c0 .07.01.13.04.19.02.05.06.1.11.13.12.09.25.13.38.12h1.6c.35 0 .54-.16.58-.44v-.64c0-.36-.2-.52-.57-.52h-1.6a.6.6 0 0 0-.43.12.73.73 0 0 0-.1.48v.56Zm2.7-3.44c0-.32-.18-.48-.56-.48h-4.2V46.5h4.73c1.37.04 2.05.72 2.1 2.08v4.7a2.2 2.2 0 0 1-.54 1.48c-.18.2-.39.35-.63.46-.23.1-.49.15-.74.14h-2.86c-1.37 0-2.1-.68-2.1-2v-1.8c0-1.41.7-2.1 2.02-2.13h2.79v-.2Zm7.89 7.21a.6.6 0 0 0 .42-.2c.05-.04.09-.1.11-.16a.51.51 0 0 0 .04-.2v-.52h-2.67a2.5 2.5 0 0 1-.83-.12c-.25-.1-.47-.27-.65-.48a3.07 3.07 0 0 1-.46-.76c-.1-.29-.15-.58-.15-.89v-6.65h2.1v5.93c0 .48.19.72.57.72h1.48a.61.61 0 0 0 .46-.2c.1-.09.17-.21.19-.36v-6.09h2.06v9.78c.02.63-.17 1.26-.54 1.76a1.65 1.65 0 0 1-1.41.68h-4.87v-2.24h4.15Zm4.27-3.33h3.7c.33 0 .52-.16.52-.44v-.2a.46.46 0 0 0-.03-.2.39.39 0 0 0-.12-.16.35.35 0 0 0-.19-.08h-1.83c-.52 0-1.03-.2-1.4-.6a1.74 1.74 0 0 1-.62-1.28v-1.68c.04-1.33.69-1.97 2.02-2.01h4.3v2.24h-3.65c-.42 0-.65.13-.65.4v.2c0 .29.23.45.65.45h1.83c.24 0 .47.05.7.15.2.1.4.26.56.45.33.36.53.85.53 1.36v1.64c-.04.52-.26 1-.61 1.37-.16.2-.36.36-.57.48-.27.1-.56.13-.84.12H136v-2.2Zm9.94-.44c0 .07 0 .13.03.19.03.05.07.1.12.13.11.09.25.13.38.12h1.6c.34 0 .53-.16.57-.44v-.64c0-.36-.19-.52-.57-.52h-1.6a.6.6 0 0 0-.42.12.72.72 0 0 0-.11.48v.56Zm2.7-3.44c0-.32-.19-.48-.57-.48h-4.19V46.5h4.72c1.38.04 2.06.72 2.1 2.08v4.7a2.2 2.2 0 0 1-.53 1.48c-.18.2-.4.36-.63.46-.23.1-.49.15-.75.14h-2.85c-1.37 0-2.1-.68-2.1-2v-1.8c0-1.41.69-2.1 2.02-2.13h2.78v-.2Zm3.74-4.01c-.01-.28.04-.56.16-.8.1-.26.28-.48.48-.64a2.38 2.38 0 0 1 1.6-.57h1.34v2.17h-.8a.6.6 0 0 0-.64.37.68.68 0 0 0-.05.27v.48h1.49v2.24h-1.49v6.66h-2.1V45.23Zm9.44 3.97v-.04a.32.32 0 0 0-.03-.17.29.29 0 0 0-.12-.11.6.6 0 0 0-.34-.13h-1.45a.57.57 0 0 0-.46.17.48.48 0 0 0-.16.16.52.52 0 0 0-.07.24v.92l2.63-1.04Zm-2.55 3.16v.12a.57.57 0 0 0 .15.44c.08.12.15.2.27.2h4.27v2.25h-4.54c-.32.01-.64-.03-.95-.12a1.9 1.9 0 0 1-1.14-1.16 3.73 3.73 0 0 1-.12-1.05v-4.49c.04-1.36.69-2.04 2.02-2.08h2.82c1.3.04 1.94.72 1.98 2.16v1.77l-4.76 1.96Z"/><path fill="#FFB600" d="M50.78 79a8.58 8.58 0 0 1-8.5 8.66 8.6 8.6 0 0 1-8.5-8.66 8.57 8.57 0 0 1 8.45-8.66c4.77 0 8.55 3.9 8.55 8.66Z"/><path fill="#F7981D" d="M42.27 70.34a8.6 8.6 0 0 1 8.5 8.66 8.58 8.58 0 0 1-8.5 8.66 8.6 8.6 0 0 1-8.5-8.66"/><path fill="#FF8500" d="M42.27 70.34a8.6 8.6 0 0 1 8.5 8.66 8.58 8.58 0 0 1-8.5 8.66"/><path fill="#FF5050" d="M30.85 70.34A8.59 8.59 0 0 0 22.44 79a8.58 8.58 0 0 0 8.5 8.66 8.51 8.51 0 0 0 6.57-3.16h-1.76c-.22-.27-.45-.6-.63-.87h3.02c.18-.28.36-.6.5-.92h-4.01c-.14-.27-.27-.6-.36-.91h4.68c.27-.87.45-1.8.45-2.75 0-.65-.1-1.24-.18-1.84H34c.04-.32.13-.6.22-.91h4.68a5.51 5.51 0 0 0-.36-.92h-3.96c.14-.32.32-.6.5-.92h3.01c-.18-.32-.4-.64-.67-.91h-1.67c.27-.32.54-.6.86-.87a8.21 8.21 0 0 0-5.72-2.25c0-.1 0-.1-.04-.1Z"/><path fill="#E52836" d="M22.44 79a8.58 8.58 0 0 0 8.5 8.66 8.51 8.51 0 0 0 6.57-3.16h-1.76c-.22-.28-.45-.6-.63-.87h3.02c.18-.28.36-.6.5-.92h-4.01c-.14-.27-.27-.6-.36-.91h4.68c.27-.88.45-1.8.45-2.75 0-.65-.1-1.24-.18-1.84H34c.04-.32.13-.6.22-.91h4.68a5.51 5.51 0 0 0-.36-.92h-3.96c.14-.32.32-.6.5-.92h3.01c-.18-.32-.4-.64-.67-.91h-1.67c.27-.33.54-.6.86-.88a8.21 8.21 0 0 0-5.72-2.24h-.04"/><path fill="#CB2026" d="M30.94 87.66c2.2 0 4.18-.87 5.71-2.24.32-.28.59-.6.86-.92h-1.76c-.22-.28-.45-.6-.63-.87h3.02c.18-.28.36-.6.5-.92h-4.01c-.14-.27-.27-.6-.36-.91h4.68c.27-.88.45-1.8.45-2.75 0-.65-.1-1.24-.18-1.84H34c.04-.32.13-.6.22-.91h4.68a5.53 5.53 0 0 0-.36-.92h-3.96c.14-.32.32-.6.5-.92h3.01c-.18-.32-.4-.64-.67-.91h-1.67c.27-.33.54-.6.86-.88a8.21 8.21 0 0 0-5.71-2.24h-.05"/><path fill="#fff" d="m33.95 81.2.14-.78c-.05 0-.14.05-.23.05-.31 0-.36-.19-.31-.28l.27-1.6h.5l.13-.87H34l.09-.55h-.9s-.54 3.02-.54 3.39c0 .55.31.78.72.78.27 0 .5-.1.58-.14Zm.32-1.47c0 1.29.85 1.6 1.57 1.6.68 0 .95-.13.95-.13l.18-.87s-.5.23-.95.23c-.99 0-.8-.73-.8-.73h1.84s.13-.6.13-.83c0-.6-.31-1.33-1.3-1.33-.95-.1-1.62.92-1.62 2.06Zm1.57-1.33c.5 0 .4.6.4.65h-.98c0-.05.09-.65.58-.65Zm5.71 2.8.18-1s-.45.22-.76.22c-.63 0-.9-.5-.9-1.05 0-1.1.54-1.7 1.17-1.7.45 0 .8.28.8.28l.14-.97s-.54-.23-1.03-.23c-1.03 0-2.07.92-2.07 2.66 0 1.15.54 1.93 1.62 1.93.36 0 .85-.14.85-.14Zm-12.54-3.62c-.63 0-1.08.18-1.08.18l-.14.78s.4-.18 1-.18c.3 0 .58.04.58.32 0 .18-.05.23-.05.23h-.4c-.77 0-1.62.32-1.62 1.37 0 .83.54 1.01.85 1.01.63 0 .9-.41.95-.41l-.05.37h.81l.36-2.52c0-1.1-.9-1.15-1.21-1.15Zm.18 2.06c0 .14-.1.87-.63.87-.27 0-.36-.23-.36-.36 0-.23.13-.55.8-.55.14.04.19.04.19.04Zm1.88 1.65c.23 0 1.35.05 1.35-1.19 0-1.15-1.08-.92-1.08-1.37 0-.23.18-.33.5-.33.13 0 .63.05.63.05l.13-.82s-.31-.1-.85-.1c-.68 0-1.35.28-1.35 1.2 0 1.05 1.12.96 1.12 1.37 0 .28-.31.32-.54.32-.4 0-.8-.14-.8-.14l-.14.83c.05.09.27.18 1.03.18Zm17.95-4.44-.18 1.23s-.36-.45-.85-.45c-.81 0-1.53 1-1.53 2.2 0 .73.36 1.5 1.12 1.5.54 0 .86-.36.86-.36l-.05.32h.9l.68-4.4-.95-.04Zm-.4 2.43c0 .5-.23 1.14-.72 1.14-.32 0-.5-.27-.5-.73 0-.74.32-1.2.72-1.2.32 0 .5.24.5.79ZM24.1 81.25l.54-3.3.1 3.3h.62l1.17-3.3-.5 3.3h.95l.72-4.4h-1.48l-.9 2.7-.05-2.7h-1.3l-.72 4.4h.85Zm13.95 0c.27-1.52.31-2.75.94-2.52.1-.6.23-.83.32-1.06h-.18c-.4 0-.72.55-.72.55l.09-.5h-.86l-.58 3.57h.99v-.04Zm5.57-3.67c-.63 0-1.08.18-1.08.18l-.13.78s.4-.18.99-.18c.31 0 .58.04.58.32 0 .18-.04.23-.04.23h-.4c-.77 0-1.63.32-1.63 1.37 0 .83.54 1.01.86 1.01.63 0 .9-.41.94-.41l-.04.37h.8l.37-2.52c.04-1.1-.9-1.15-1.22-1.15Zm.23 2.06c0 .14-.1.87-.63.87-.27 0-.36-.23-.36-.36 0-.23.13-.55.8-.55.14.04.14.04.19.04Zm1.75 1.6c.27-1.5.32-2.74.95-2.51.09-.6.22-.83.31-1.06h-.18c-.4 0-.72.55-.72.55l.1-.5h-.86l-.59 3.57h1v-.04Z"/><path fill="#DCE5E5" d="M32.56 80.56c0 .55.31.78.72.78.31 0 .58-.1.67-.14l.14-.78c-.05 0-.14.05-.23.05-.31 0-.36-.19-.31-.28l.27-1.6h.5l.13-.87H34l.09-.55m.63 2.56c0 1.29.4 1.6 1.12 1.6.68 0 .95-.13.95-.13l.18-.87s-.5.23-.95.23c-.99 0-.8-.73-.8-.73h1.84s.13-.6.13-.83c0-.6-.31-1.33-1.3-1.33-.95-.1-1.17.92-1.17 2.06Zm1.12-1.33c.5 0 .59.6.59.65h-1.17c0-.05.09-.65.58-.65Zm5.71 2.8.18-1s-.45.22-.76.22c-.63 0-.9-.5-.9-1.05 0-1.1.54-1.7 1.17-1.7.45 0 .8.28.8.28l.14-.97s-.54-.23-1.03-.23c-1.03 0-1.62.92-1.62 2.66 0 1.15.1 1.93 1.17 1.93.36 0 .85-.14.85-.14ZM27.8 78.59s.4-.19 1-.19c.3 0 .58.05.58.33 0 .18-.05.22-.05.22h-.4c-.77 0-1.62.33-1.62 1.38 0 .82.54 1 .85 1 .63 0 .9-.4.95-.4l-.05.36h.81l.36-2.52c0-1.05-.9-1.1-1.26-1.1m.68 1.97c0 .14-.54.87-1.08.87-.27 0-.36-.23-.36-.36 0-.23.13-.55.8-.55.14.04.64.04.64.04Zm.45 1.56s.27.1 1.03.1c.22 0 1.35.04 1.35-1.2 0-1.15-1.08-.92-1.08-1.37 0-.23.18-.33.5-.33.13 0 .62.05.62.05l.14-.82s-.32-.1-.86-.1c-.67 0-.9.28-.9 1.2 0 1.05.68.96.68 1.37 0 .28-.32.32-.54.32m17.81-2.34s-.36-.45-.85-.45c-.81 0-1.08 1-1.08 2.2 0 .73-.1 1.5.67 1.5.54 0 .86-.36.86-.36l-.05.32h.9l.68-4.4m-1.17 2.39c0 .5-.4 1.14-.9 1.14-.32 0-.5-.27-.5-.73 0-.74.32-1.2.72-1.2.32 0 .68.24.68.79Zm-24.7 1.97.54-3.3.1 3.3h.62l1.17-3.3-.5 3.3h.95l.72-4.4h-1.12l-1.26 2.7-.05-2.7h-.5l-1.52 4.4h.85Zm13 0h.95c.27-1.52.31-2.75.94-2.52.1-.6.23-.83.32-1.06h-.18c-.4 0-.72.55-.72.55l.09-.5m3.9.87s.41-.19 1-.19c.31 0 .58.05.58.33 0 .18-.04.22-.04.22h-.4c-.77 0-1.63.33-1.63 1.38 0 .82.54 1 .86 1 .63 0 .9-.4.94-.4l-.04.36h.8l.37-2.52c0-1.05-.9-1.1-1.26-1.1m.67 1.97c0 .14-.54.87-1.08.87-.27 0-.36-.23-.36-.36 0-.23.14-.55.81-.55.18.04.63.04.63.04Zm.4 1.6h.95c.27-1.5.32-2.74.95-2.51.09-.6.22-.83.31-1.06h-.18c-.4 0-.72.55-.72.55l.1-.5"/><path fill="#1434CB" d="M86.58 70.54c-3.28 0-6.23 1.76-6.23 5 0 3.72 5.2 3.97 5.2 5.82 0 .78-.87 1.5-2.36 1.5-2.11 0-3.7-.99-3.7-.99l-.67 3.27s1.81.83 4.25.83c3.6 0 6.42-1.83 6.42-5.13 0-3.93-5.22-4.18-5.22-5.9 0-.62.72-1.3 2.2-1.3 1.68 0 3.06.71 3.06.71l.67-3.15c-.02 0-1.52-.66-3.62-.66Zm-30.07.24-.1.47s1.39.25 2.64.78c1.6.6 1.71.94 2 2.02l2.94 11.67h3.95L74 70.78h-3.94l-3.9 10.17-1.59-8.63a1.73 1.73 0 0 0-1.8-1.54h-6.26Zm19.08 0-3.1 14.94h3.77l3.07-14.94h-3.74Zm20.93 0c-.9 0-1.38.49-1.73 1.36l-5.5 13.58h3.93l.76-2.27h4.8l.46 2.27h3.47L99.7 70.78h-3.18Zm.51 4.05 1.17 5.6h-3.13l1.96-5.6Z"/><mask id="d" width="22" height="22" x="109" y="67" maskUnits="userSpaceOnUse" style="mask-type:luminance"><path fill="#fff" d="M130.5 67.72h-21V88.8h21V67.72Z"/></mask><g mask="url(#d)"><path fill="#fff" d="M120 87.65c5.17 0 9.36-4.2 9.36-9.4 0-5.18-4.19-9.39-9.36-9.39a9.38 9.38 0 0 0-9.36 9.4c0 5.19 4.19 9.4 9.36 9.4Z"/><path fill="#345D9D" d="M120 67.72a10.47 10.47 0 0 0-9.7 6.5 10.57 10.57 0 0 0 2.28 11.49 10.5 10.5 0 0 0 17.92-7.45 10.54 10.54 0 0 0-6.44-9.73c-1.26-.53-2.62-.8-4-.8H120Zm.18 10.9-1.1 3.7h5.85a.3.3 0 0 1 .3.28v.1l-.5 1.75a.38.38 0 0 1-.38.28h-8.95l1.5-5.12-1.68.5.38-1.16 1.68-.51 2.11-7.2a.38.38 0 0 1 .38-.28h2.26a.3.3 0 0 1 .22.08.29.29 0 0 1 .09.2v.1l-1.78 6.08 1.68-.52-.36 1.23-1.7.48Z"/></g><path fill="#50AF95" fill-rule="evenodd" d="m142.5 69.18-4.01 8.71a.18.18 0 0 0-.02.1l.05.1 10.86 10.74a.16.16 0 0 0 .24 0l10.86-10.74a.18.18 0 0 0 .05-.1c0-.03 0-.06-.02-.1l-4.02-8.7a.16.16 0 0 0-.15-.1h-13.68c-.03 0-.06 0-.09.02a.18.18 0 0 0-.06.07Z" clip-rule="evenodd"/><path fill="#fff" fill-rule="evenodd" d="M150.85 78.68c-.08 0-.47.02-1.33.02-.7 0-1.18-.02-1.35-.02-2.67-.12-4.66-.59-4.66-1.14 0-.55 2-1.02 4.66-1.14v1.81a20.1 20.1 0 0 0 2.67 0v-1.8c2.66.11 4.65.58 4.65 1.13 0 .55-1.99 1.02-4.65 1.13Zm0-2.46V74.6h3.7v-2.47h-10.1v2.47h3.72v1.62c-3.02.14-5.29.73-5.29 1.45 0 .71 2.27 1.3 5.28 1.45v5.19h2.69v-5.2c3-.13 5.27-.73 5.27-1.44 0-.72-2.26-1.31-5.27-1.45Z" clip-rule="evenodd"/><mask id="e" width="21" height="21" x="168" y="68" maskUnits="userSpaceOnUse" style="mask-type:luminance"><path fill="#fff" d="M188.66 68.19H168.5v20.68h20.16V68.2Z"/></mask><g mask="url(#e)"><path fill="#F7931A" d="M188.35 81.03a10.06 10.06 0 0 1-12.21 7.54c-5.4-1.39-8.68-7-7.34-12.54a10.06 10.06 0 0 1 12.21-7.53c5.4 1.38 8.7 7 7.34 12.53Z"/><path fill="#fff" d="M183.02 77.06c.2-1.38-.82-2.12-2.21-2.61l.45-1.86-1.1-.29-.45 1.82-.89-.22.45-1.82-1.1-.29-.46 1.87-.7-.17-1.53-.4-.3 1.21.81.2c.45.12.53.43.51.67l-.51 2.12c.03 0 .07.02.11.04l-.11-.03-.73 2.97c-.05.14-.19.35-.5.27 0 .02-.8-.2-.8-.2l-.56 1.3 1.44.37.8.2-.46 1.89 1.1.28.45-1.86.88.23-.45 1.86 1.1.28.47-1.88c1.88.37 3.3.22 3.9-1.53.48-1.41-.03-2.22-1.02-2.75.72-.18 1.27-.66 1.41-1.67Zm-2.52 3.64c-.35 1.4-2.66.64-3.4.45l.6-2.5c.75.2 3.15.58 2.8 2.05Zm.34-3.66c-.31 1.28-2.24.63-2.86.47l.55-2.27c.62.16 2.63.46 2.3 1.8Z"/></g><defs><clipPath id="a"><path fill="#fff" d="M74 10h56v19H74z"/></clipPath></defs></svg>