<svg xmlns="http://www.w3.org/2000/svg" width="202" height="68" fill="none"><path fill="#fff" d="M3.232 1.886.05 13.085h1.886L2.84 9.79h2.594l.943 3.294h1.926L5.08 1.885H3.232Zm1.73 6.116H3.31l.668-2.494c.039-.188.079-.329.118-.517.04.188.078.33.157.518l.707 2.493Zm6.484 0c-.864-.424-.943-.612-.943-.894 0-.377.275-.612.668-.612s.747.142 1.1.377l.354.282.472-1.788-.196-.188a2.553 2.553 0 0 0-1.73-.518c-1.454 0-2.476 1.082-2.476 2.588 0 1.365 1.022 2.118 1.887 2.494.864.377.943.66.943.989 0 .612-.55.706-.865.706-.472-.048-.943-.189-1.336-.47l-.354-.236-.471 1.835.235.141c.59.377 1.258.612 1.926.565 1.573 0 2.673-1.083 2.673-2.682-.04-1.553-1.1-2.212-1.887-2.589Zm4.677-5.082-1.808.66v1.27h-.943v1.835h.983v3.67c-.04.8.117 1.6.51 2.259.393.47.905.753 1.455.706.393 0 .747-.048 1.1-.189l.236-.094-.079-1.835-.393.14c-.196.048-.353.095-.55.095-.196 0-.51 0-.51-1.035V6.685h1.61V4.849h-1.61V2.92Zm5.974 1.835-.314-.046c-.118 0-.197-.048-.315-.048-.55 0-1.1.283-1.493.753v-.611h-1.69v.47c.039.612.039 1.365.039 2.306v5.552h1.808V8.755c0-.188 0-.376.04-.564.117-.847.59-1.412 1.178-1.412h.315l.393.094.04-2.118Zm3.301-.094c-2.004 0-3.419 1.789-3.419 4.377 0 2.494 1.376 4.235 3.34 4.235 1.652 0 3.46-1.365 3.46-4.377-.04-2.494-1.415-4.235-3.38-4.235Zm1.494 4.283c0 1.458-.668 2.494-1.533 2.494-.864 0-1.532-1.036-1.532-2.448 0-.94.353-2.494 1.572-2.494 1.179 0 1.493 1.6 1.493 2.448Zm7.782-6.165c-.59-.66-1.494-.988-2.673-.988-.746 0-1.493.046-2.2.188l-.275.094v11.01h1.807V8.992c.197 0 .393.047.55.047 1.062.047 2.123-.377 2.909-1.27.51-.66.786-1.6.786-2.495 0-.94-.315-1.835-.904-2.494ZM33.77 5.32c0 1.553-1.14 1.788-1.848 1.788-.196 0-.392 0-.589-.047V3.72c.236-.048.472-.048.708-.048.786.048 1.729.33 1.729 1.648Zm7.31 5.6V8.144c0-2.212-.982-3.435-2.711-3.435-.787 0-1.573.235-2.24.705l-.236.189.471 1.74.393-.329c.432-.33.944-.518 1.454-.47.275-.048.59.094.826.329.157.188.235.47.274.753-1.415.047-2.436.47-3.065 1.224-.432.517-.668 1.223-.668 1.976 0 1.412.943 2.541 2.083 2.541h.157a2.59 2.59 0 0 0 1.69-.659l.04.47h1.729l-.04-.47a9.845 9.845 0 0 1-.157-1.788Zm-3.026.565c-.354.047-.668-.283-.707-.706v-.188c0-.283.078-.518.235-.706.197-.236.668-.518 1.73-.565v.894c0 .094 0 .188-.04.33-.196.565-.668.94-1.218.94Zm8.017-6.636-1.296 4.66c-.05.117-.076.245-.08.376-.038-.094-.078-.236-.117-.33l-1.415-4.658h-1.965l2.476 7.435c.04.047.04.094.04.188 0 .047-.04.094-.04.142-.196.517-.472.987-.864 1.364-.276.282-.55.47-.865.565l-.315.14.472 1.836.315-.047c.589-.142 1.1-.47 1.572-.941.864-.942 1.453-2.4 2.24-4.848l1.768-5.928-1.926.046Z"/><path fill="red" d="M6.69 4.991c1.18-1.412 3.145-2.259 5.307-2.259.825 0 1.65.142 2.436.376h.079l1.375-.517-.629-.282c-1.296-.518-2.633-.8-3.969-.8-1.861-.047-3.698.523-5.306 1.647l-.157.094.59 2.023.275-.282Z"/><g clip-path="url(#a)"><path fill="#872165" d="M84.814 15.843h3.91V4.9h-3.91v10.943Zm-2.212-11.1c-3.614.118-5.45 1.732-5.45 4.94v6.16h3.95v-5.019c0-1.929.256-2.755 2.547-2.834V4.782a5.405 5.405 0 0 0-.81-.059l-.237.02ZM53 5.648c0 1.26.553 4.231 5.589 4.586.434.02 1.56.098 1.56 1.16 0 .867-.928 1.398-2.489 1.398-1.5-.04-2.981-.334-4.383-.866v3.503c1.698.414 3.455.61 5.213.59 4.305 0 6.24-2.42 6.24-4.821 0-2.716-2.172-4.487-5.786-4.723-.494-.04-1.639-.099-1.639-1.142 0-1.24 1.64-1.24 2.271-1.24 1.086 0 2.488.315 3.495.63 0 0 .553.197 1.047.394l.04.02V1.712l-.06-.02c-1.185-.413-2.567-.806-5.114-.806C54.56.886 53 3.444 53 5.648Zm12.718-3.975v14.17h4.028v-4.39c1.165 1.752 1.758 4.39 1.758 4.39h4.838c-.474-1.988-2.567-5.629-2.567-5.629A17.927 17.927 0 0 0 76.618 4.9h-4.64a13.75 13.75 0 0 1-2.232 3.818V.886l-4.028.787Zm24.665-.099v14.269h3.91V.886l-3.91.688Zm5.707 0v14.269H100V.886l-3.91.688ZM86.769 0a1.935 1.935 0 0 0-1.935 1.929 1.935 1.935 0 0 0 3.87 0C88.684.866 87.835 0 86.77 0Z"/><mask id="b" width="47" height="17" x="53" y="0" maskUnits="userSpaceOnUse" style="mask-type:luminance"><path fill="#fff" d="M84.814 15.843h3.91V4.9h-3.91v10.943Zm-2.212-11.1c-3.614.118-5.45 1.732-5.45 4.94v6.16h3.95v-5.019c0-1.929.256-2.755 2.547-2.834V4.782a5.405 5.405 0 0 0-.81-.059l-.237.02ZM53 5.648c0 1.26.553 4.231 5.589 4.586.434.02 1.56.098 1.56 1.16 0 .867-.928 1.398-2.489 1.398-1.5-.04-2.981-.334-4.383-.866v3.503c1.698.414 3.455.61 5.213.59 4.305 0 6.24-2.42 6.24-4.821 0-2.716-2.172-4.487-5.786-4.723-.494-.04-1.639-.099-1.639-1.142 0-1.24 1.64-1.24 2.271-1.24 1.086 0 2.488.315 3.495.63 0 0 .553.197 1.047.394l.04.02V1.712l-.06-.02c-1.185-.413-2.567-.806-5.114-.806C54.56.886 53 3.444 53 5.648Zm12.718-3.975v14.17h4.028v-4.39c1.165 1.752 1.758 4.39 1.758 4.39h4.838c-.474-1.988-2.567-5.629-2.567-5.629A17.927 17.927 0 0 0 76.618 4.9h-4.64a13.75 13.75 0 0 1-2.232 3.818V.886l-4.028.787Zm24.665-.099v14.269h3.91V.886l-3.91.688Zm5.707 0v14.269H100V.886l-3.91.688ZM86.769 0a1.935 1.935 0 0 0-1.935 1.929 1.935 1.935 0 0 0 3.87 0C88.684.866 87.835 0 86.77 0Z"/></mask><g mask="url(#b)"><path fill="#872165" d="M100 0H53v16h47V0Z"/></g></g><mask id="c" width="52" height="13" x="107" y="3" maskUnits="userSpaceOnUse" style="mask-type:luminance"><path fill="#fff" d="M158.16 3.06h-50.672v12.697h50.672V3.061Z"/></mask><g mask="url(#c)"><path fill="#fff" d="M114.205 7.958V7.82c0-1.598-.705-2.363-1.816-2.363-1.11 0-1.833.817-1.833 2.346v.139c0 1.547.687 2.329 1.833 2.329s1.816-.817 1.816-2.312Zm-.687-4.848c2.151 0 3.896 1.599 3.896 4.71v.138c0 3.128-1.745 4.692-3.914 4.692-1.393 0-2.398-.642-2.856-1.546v4.379h-3.156V3.353h3.156v1.355c.528-.868 1.481-1.598 2.874-1.598ZM124.947 7.891v-.138c0-1.582-.67-2.346-1.728-2.346-1.111 0-1.764.781-1.764 2.363v.139c0 1.529.67 2.311 1.71 2.311 1.041 0 1.782-.781 1.782-2.329Zm-6.701.053v-.14c.001-3.093 1.799-4.743 3.862-4.743 1.393 0 2.222.59 2.751 1.511V3.304h3.156v9.088h-3.156v-1.46a3.063 3.063 0 0 1-2.769 1.668c-2.045 0-3.843-1.511-3.843-4.657M134.327 8.202l1.763-4.849h3.015l-4.937 12.13h-3.015l1.535-3.962-3.686-8.168h3.421l1.904 4.849ZM139.268 12.441v-2.154l4.197-4.587h-3.685l-.018-2.347h7.388v2.294l-4.02 4.431h4.319v2.364h-8.181Z"/><path fill="#D0FA02" d="M148.938 11.222c.037-2.503 1.96-4.554 4.574-4.554 2.613 0 4.648 2.051 4.648 4.554s-1.979 4.535-4.648 4.535c-2.67 0-4.574-2.013-4.574-4.535Z"/></g><g clip-path="url(#d)"><path fill="#FFB600" d="M190.798 8c0 4.237-3.387 7.7-7.621 7.7-4.194 0-7.622-3.463-7.622-7.7s3.388-7.7 7.581-7.7c4.275 0 7.662 3.463 7.662 7.7Z"/><path fill="#F7981D" d="M183.177.3c4.194 0 7.621 3.463 7.621 7.7s-3.387 7.7-7.621 7.7c-4.194 0-7.622-3.463-7.622-7.7"/><path fill="#FF8500" d="M183.177.3c4.194 0 7.621 3.463 7.621 7.7s-3.387 7.7-7.621 7.7"/><path fill="#FF5050" d="M172.934.3c-4.153.04-7.54 3.463-7.54 7.7s3.387 7.7 7.621 7.7c1.976 0 3.75-.774 5.121-1.996.282-.245.524-.53.766-.815h-1.572a9.231 9.231 0 0 1-.565-.774h2.702c.161-.245.323-.53.444-.815h-3.589a4.912 4.912 0 0 1-.323-.815h4.194c.242-.774.403-1.589.403-2.444 0-.57-.081-1.1-.161-1.63h-4.678c.04-.285.121-.53.202-.815h4.193a4.827 4.827 0 0 0-.322-.814h-3.549c.121-.286.283-.53.444-.815h2.702a3.895 3.895 0 0 0-.605-.815h-1.492c.242-.285.484-.53.766-.774-1.331-1.263-3.145-1.996-5.121-1.996 0-.082 0-.082-.041-.082Z"/><path fill="#E52836" d="M165.394 8c0 4.237 3.387 7.7 7.621 7.7 1.976 0 3.75-.774 5.121-1.996.282-.245.524-.53.766-.815h-1.572a9.246 9.246 0 0 1-.565-.774h2.702c.161-.245.323-.53.444-.815h-3.589a4.919 4.919 0 0 1-.323-.815h4.194c.242-.774.403-1.589.403-2.444 0-.57-.081-1.1-.161-1.63h-4.678c.04-.285.121-.53.202-.815h4.193a4.825 4.825 0 0 0-.322-.815h-3.549c.121-.285.283-.53.444-.814h2.702a3.894 3.894 0 0 0-.605-.815h-1.492c.242-.285.484-.53.766-.774-1.331-1.263-3.145-1.997-5.121-1.997h-.041"/><path fill="#CB2026" d="M173.015 15.7c1.976 0 3.75-.774 5.121-1.996.283-.245.525-.53.767-.815h-1.573a9.477 9.477 0 0 1-.565-.774h2.702c.161-.245.323-.53.444-.815h-3.589a4.919 4.919 0 0 1-.323-.815h4.194c.242-.774.403-1.589.403-2.444 0-.57-.08-1.1-.161-1.63h-4.678c.041-.285.121-.53.202-.815h4.194a4.913 4.913 0 0 0-.323-.815h-3.548c.121-.285.282-.53.443-.814h2.702a3.859 3.859 0 0 0-.605-.815h-1.492c.242-.285.484-.53.766-.774-1.331-1.263-3.145-1.997-5.121-1.997h-.04"/><path fill="#fff" d="m175.717 9.956.121-.693c-.041 0-.121.04-.202.04-.282 0-.323-.162-.282-.244l.242-1.426h.443l.121-.774h-.403l.081-.489h-.807s-.484 2.69-.484 3.015c0 .49.283.693.645.693.242 0 .444-.082.525-.122Zm.282-1.304c0 1.14.766 1.426 1.411 1.426.605 0 .847-.122.847-.122l.161-.775s-.443.204-.846.204c-.887 0-.726-.652-.726-.652h1.653s.121-.53.121-.733c0-.53-.282-1.182-1.169-1.182-.847-.081-1.452.815-1.452 1.834Zm1.411-1.182c.444 0 .363.53.363.57h-.887c0-.04.081-.57.524-.57Zm5.122 2.486.161-.897s-.403.204-.686.204c-.564 0-.806-.448-.806-.937 0-.978.484-1.508 1.048-1.508.404 0 .726.245.726.245l.121-.856s-.484-.203-.927-.203c-.928 0-1.855.814-1.855 2.363 0 1.018.484 1.71 1.451 1.71.323 0 .767-.121.767-.121Zm-11.251-3.219c-.565 0-.968.163-.968.163l-.121.693s.363-.163.887-.163c.283 0 .525.04.525.285 0 .163-.041.204-.041.204h-.363c-.685 0-1.451.285-1.451 1.222 0 .733.484.896.766.896.564 0 .806-.367.847-.367l-.041.326h.726l.323-2.24c0-.978-.807-1.019-1.089-1.019Zm.161 1.833c0 .123-.08.774-.564.774-.242 0-.323-.203-.323-.326 0-.203.121-.488.726-.488a.63.63 0 0 0 .161.04Zm1.694 1.467c.202 0 1.21.04 1.21-1.06 0-1.018-.968-.814-.968-1.221 0-.204.161-.286.443-.286.121 0 .565.041.565.041l.121-.733s-.282-.082-.766-.082c-.605 0-1.21.245-1.21 1.06 0 .937 1.008.855 1.008 1.222 0 .244-.282.285-.484.285-.363 0-.726-.122-.726-.122l-.121.733c.041.082.242.163.928.163Zm16.09-3.952-.162 1.1s-.322-.407-.766-.407c-.726 0-1.371.896-1.371 1.955 0 .652.323 1.345 1.008 1.345.484 0 .766-.326.766-.326l-.04.285h.806l.605-3.911-.846-.04Zm-.363 2.16c0 .448-.202 1.018-.646 1.018-.282 0-.443-.245-.443-.652 0-.652.282-1.06.645-1.06.282 0 .444.205.444.693Zm-21.977 1.751.483-2.933.081 2.933h.565l1.048-2.933-.443 2.933h.846l.646-3.91h-1.331l-.807 2.403-.04-2.404h-1.169l-.646 3.911h.767Zm12.5 0c.242-1.344.283-2.444.847-2.24.081-.53.202-.734.282-.938h-.161c-.363 0-.645.49-.645.49l.081-.449h-.767l-.524 3.178h.887v-.04Zm5.001-3.259c-.565 0-.968.163-.968.163l-.121.693s.363-.163.887-.163c.282 0 .524.04.524.285 0 .163-.04.204-.04.204h-.363c-.686 0-1.452.285-1.452 1.222 0 .733.484.896.766.896.565 0 .807-.367.847-.367l-.04.326h.726l.322-2.24c.041-.978-.806-1.019-1.088-1.019Zm.201 1.833c0 .123-.08.774-.564.774-.242 0-.323-.203-.323-.326 0-.203.121-.488.726-.488.121.04.121.04.161.04Zm1.573 1.426c.242-1.344.282-2.444.847-2.24.08-.53.201-.734.282-.938h-.161c-.363 0-.646.49-.646.49l.081-.449h-.766l-.524 3.178h.887v-.04Z"/><path fill="#DCE5E5" d="M174.467 9.385c0 .49.282.693.645.693.282 0 .524-.082.605-.122l.121-.693c-.041 0-.121.04-.202.04-.282 0-.323-.162-.282-.244l.242-1.426h.443l.121-.774h-.403l.081-.489m.564 2.282c0 1.14.363 1.426 1.008 1.426.605 0 .847-.122.847-.122l.161-.775s-.443.204-.846.204c-.887 0-.726-.652-.726-.652h1.653s.121-.53.121-.733c0-.53-.282-1.182-1.169-1.182-.847-.081-1.049.815-1.049 1.834Zm1.008-1.182c.444 0 .525.53.525.57h-1.049c0-.04.081-.57.524-.57Zm5.122 2.486.161-.897s-.403.204-.686.204c-.564 0-.806-.448-.806-.937 0-.978.484-1.508 1.048-1.508.404 0 .726.245.726.245l.121-.856s-.484-.203-.927-.203c-.928 0-1.452.814-1.452 2.363 0 1.018.081 1.71 1.048 1.71.323 0 .767-.121.767-.121Zm-12.34-2.323s.363-.163.887-.163c.283 0 .525.041.525.286 0 .163-.041.203-.041.203h-.363c-.685 0-1.451.285-1.451 1.222 0 .734.484.897.766.897.564 0 .806-.367.847-.367l-.041.326h.726l.323-2.24c0-.938-.807-.979-1.129-.979m.605 1.752c0 .123-.484.774-.968.774-.242 0-.323-.203-.323-.326 0-.203.121-.488.726-.488.121.04.565.04.565.04Zm.403 1.386s.242.081.927.081c.202 0 1.21.04 1.21-1.06 0-1.018-.968-.814-.968-1.221 0-.204.161-.286.444-.286.121 0 .564.041.564.041l.121-.733s-.282-.082-.766-.082c-.605 0-.806.245-.806 1.06 0 .937.604.855.604 1.222 0 .244-.282.285-.483.285m15.968-2.078s-.322-.407-.766-.407c-.726 0-.968.896-.968 1.955 0 .652-.08 1.345.605 1.345.484 0 .766-.326.766-.326l-.04.285h.806l.605-3.911m-1.048 2.118c0 .449-.363 1.019-.807 1.019-.282 0-.443-.245-.443-.652 0-.652.282-1.06.645-1.06.282 0 .605.205.605.693Zm-22.138 1.752.483-2.933.081 2.933h.565l1.048-2.933-.443 2.933h.846l.646-3.91h-1.009l-1.129 2.403-.04-2.404h-.444l-1.371 3.911h.767Zm11.653 0h.847c.242-1.344.283-2.444.847-2.24.081-.53.202-.734.282-.938h-.161c-.363 0-.645.49-.645.49l.081-.449m3.508.774s.363-.163.887-.163c.282 0 .524.041.524.286 0 .163-.04.203-.04.203h-.363c-.686 0-1.452.285-1.452 1.222 0 .734.484.897.766.897.565 0 .807-.367.847-.367l-.04.326h.726l.322-2.24c0-.938-.806-.979-1.129-.979m.605 1.752c0 .123-.484.774-.968.774-.242 0-.322-.203-.322-.326 0-.203.121-.488.726-.488.161.04.564.04.564.04Zm.363 1.426h.847c.242-1.344.282-2.444.847-2.24.08-.53.201-.734.282-.938h-.161c-.363 0-.646.49-.646.49l.081-.449"/></g><path fill="#fff" d="M1.144 34.597c.133-.058.271-.101.412-.13a2.694 2.694 0 0 1 .914-1.54 2.586 2.586 0 0 1 3.316.001c.468.39.79.934.913 1.54.36.053.694.224.953.486a4.902 4.902 0 0 0-.032-.681 3.623 3.623 0 0 0-1.148-2.384 3.47 3.47 0 0 0-2.435-.926c-.894.018-1.749.389-2.393 1.037a3.63 3.63 0 0 0-1.04 2.435v.519a3.16 3.16 0 0 1 .54-.357Z"/><path fill="#fff" d="M6.19 34.856H1.97a1.238 1.238 0 0 0-.636.163 1.214 1.214 0 0 0-.508.356 2.14 2.14 0 0 0-.412 1.396v3.374c-.023.51.122 1.013.412 1.428a2 2 0 0 0 .508.356c.198.1.414.155.635.164h4.222c1.08 0 1.651-.617 1.651-1.85v-3.537c0-1.233-.54-1.817-1.651-1.85Zm50.947 1.624v3.959c-.005.214.035.426.118.622.082.196.204.371.358.513.172.16.373.282.591.36.218.078.449.11.679.095h2.507v-.715h-2.476a.904.904 0 0 1-.4-.078.938.938 0 0 1-.33-.246 1.176 1.176 0 0 1-.286-.779v-3.569a.925.925 0 0 1 .065-.391.89.89 0 0 1 .222-.323c.09-.096.2-.172.32-.222a.9.9 0 0 1 .378-.07h2.475v-.746h-2.475a2.198 2.198 0 0 0-1.175.356 1.31 1.31 0 0 0-.454.535c-.1.218-.14.46-.117.7Zm11.553-.161a1.666 1.666 0 0 0-.128-.618 1.61 1.61 0 0 0-.348-.519.77.77 0 0 0-.444-.292 2.098 2.098 0 0 0-.602-.032h-3.969v.746h3.809c.793 0 .92.454.92.746v.908h-3.141c-1.08 0-1.588.65-1.588 2.045v1.038c0 .448.171.88.477 1.2.138.166.309.298.5.387.192.09.4.135.61.133h2.382c.196-.004.39-.05.57-.133.18-.084.342-.204.476-.354.15-.146.268-.322.35-.517.082-.195.125-.405.126-.618v-4.12Zm-.761 4.055a.887.887 0 0 1-.128.422.821.821 0 0 1-.19.28.779.779 0 0 1-.285.173 1.357 1.357 0 0 1-.571.065h-1.588a1.592 1.592 0 0 1-.825-.161 1.013 1.013 0 0 1-.286-.357 1.15 1.15 0 0 1-.095-.39v-1.362c0-.39.159-1.006 1.175-1.006h2.824l-.031 2.336Zm4.57-4.738h.35v-.78h-.445a1.554 1.554 0 0 0-.644.082 1.601 1.601 0 0 0-.562.34c-.222.228-.318.65-.318 1.266v5.484h.73v-5.452a.866.866 0 0 1 .228-.685.804.804 0 0 1 .661-.256Zm7.27-3.44h-.73v2.66h-2.953c-1.142 0-1.682.519-1.682 1.622v3.895c-.016.211.01.424.075.625.065.2.17.385.306.543.147.162.324.292.52.38.197.09.408.136.622.138h2.318c.207.004.412-.04.599-.13a1.35 1.35 0 0 0 .48-.389c.308-.356.469-.822.445-1.298v-8.046Zm-.73 8.013a1.066 1.066 0 0 1-.618 1.023.939.939 0 0 1-.398.081h-2.064a.723.723 0 0 1-.334-.073.756.756 0 0 1-.268-.219 1.034 1.034 0 0 1-.223-.68v-3.667c0-.682.35-1.04.984-1.04h2.92v4.575ZM14.76 37.13c0-.293-.127-.423-.381-.423h-1.332c-.1 0-.198.03-.281.086a.526.526 0 0 0-.19.234.522.522 0 0 0-.037.199v2.467c0 .356.191.518.54.518h1.237a.431.431 0 0 0 .318-.161.336.336 0 0 0 .127-.293v-2.627Zm-4.03-.358a2.303 2.303 0 0 1 .475-1.428c.151-.144.322-.265.508-.356.198-.1.414-.155.634-.163h2.477c1.079 0 1.65.617 1.65 1.85v3.731c.004.213-.04.423-.128.615a1.347 1.347 0 0 1-.38.488 1.71 1.71 0 0 1-1.142.52h-2.35v2.693H10.73l.001-7.95Zm8.886 3.115a.299.299 0 0 0 .03.148.285.285 0 0 0 .098.112c.094.066.205.1.317.098h1.334c.285 0 .444-.13.476-.356v-.52c0-.293-.159-.422-.476-.422H20.06a.503.503 0 0 0-.348.097.573.573 0 0 0-.096.39v.453Zm2.255-2.79c0-.259-.159-.389-.476-.389h-3.492V34.89h3.936c1.142.032 1.713.584 1.745 1.686v3.798a1.75 1.75 0 0 1-.444 1.2c-.145.162-.323.29-.52.373-.198.084-.41.123-.623.114h-2.38c-1.143 0-1.746-.552-1.746-1.623v-1.459c0-1.135.572-1.686 1.682-1.72h2.318v-.163Zm6.57 5.84a.507.507 0 0 0 .35-.161.396.396 0 0 0 .126-.293v-.422h-2.222a2.137 2.137 0 0 1-.699-.097 1.413 1.413 0 0 1-.539-.389 2.475 2.475 0 0 1-.38-.617 2.202 2.202 0 0 1-.127-.713v-5.386h1.745v4.801c0 .39.158.585.477.585h1.237a.516.516 0 0 0 .381-.163.45.45 0 0 0 .159-.292v-4.931h1.714v7.917a2.25 2.25 0 0 1-.444 1.427 1.408 1.408 0 0 1-1.175.551h-4.063v-1.816h3.46Zm3.555-2.692h3.079c.285 0 .444-.13.444-.358v-.162a.361.361 0 0 0-.031-.162.314.314 0 0 0-.1-.135.295.295 0 0 0-.154-.06h-1.523a1.623 1.623 0 0 1-1.176-.486 1.429 1.429 0 0 1-.507-1.04v-1.36c.031-1.073.571-1.591 1.682-1.625h3.587v1.818H34.25c-.35 0-.54.097-.54.325v.162c0 .227.191.356.54.356h1.523a1.356 1.356 0 0 1 1.048.487c.28.297.44.692.444 1.103v1.33c-.032.42-.213.811-.508 1.105a1.68 1.68 0 0 1-.476.388c-.225.077-.462.11-.698.098h-3.586l-.001-1.784Zm8.284-.358a.298.298 0 0 0 .128.26c.093.066.204.1.317.098h1.333c.286 0 .444-.13.477-.356v-.52c0-.293-.16-.422-.477-.422h-1.333a.501.501 0 0 0-.35.097.572.572 0 0 0-.095.39v.453Zm2.255-2.79c0-.259-.16-.389-.477-.389h-3.491V34.89h3.935c1.144.032 1.714.584 1.746 1.686v3.798c.008.443-.15.873-.444 1.2a1.467 1.467 0 0 1-.52.375c-.197.084-.41.123-.623.112h-2.38c-1.143 0-1.747-.552-1.747-1.623v-1.459c0-1.135.573-1.686 1.683-1.72h2.318v-.163Zm3.11-3.244a1.478 1.478 0 0 1 .135-.652c.094-.203.232-.38.404-.516.38-.309.852-.47 1.333-.455h1.111v1.752h-.666a.492.492 0 0 0-.404.125.51.51 0 0 0-.167.394v.39h1.237v1.816h-1.237v5.386h-1.746v-8.24Zm7.873 3.212v-.032a.249.249 0 0 0-.032-.134.236.236 0 0 0-.096-.094.504.504 0 0 0-.285-.098H51.9a.494.494 0 0 0-.382.13.391.391 0 0 0-.135.137.413.413 0 0 0-.056.188v.746l2.192-.843Zm-2.127 2.563v.097a.452.452 0 0 0 .126.356c.064.099.127.164.222.164h3.556v1.816h-3.778a2.51 2.51 0 0 1-.793-.097 1.543 1.543 0 0 1-.572-.357c-.169-.16-.3-.36-.381-.584a2.917 2.917 0 0 1-.095-.843v-3.635c.032-1.103.572-1.655 1.683-1.686h2.348c1.08.03 1.62.583 1.65 1.75v1.429l-3.966 1.59Z"/><path fill="#1434CB" d="M111.075 30.032c-2.584 0-4.905 1.355-4.905 3.84 0 2.864 4.099 3.06 4.099 4.484 0 .6-.695 1.145-1.862 1.145-1.667 0-2.918-.754-2.918-.754l-.528 2.514s1.432.642 3.349.642c2.834 0 5.058-1.41 5.058-3.952 0-3.017-4.113-3.212-4.113-4.539 0-.475.57-.992 1.737-.992 1.32 0 2.403.545 2.403.545l.528-2.43c-.013 0-1.195-.503-2.848-.503Zm-23.676.182-.07.363s1.084.195 2.07.6c1.265.461 1.348.727 1.57 1.55l2.32 8.98h3.113l4.766-11.493H98.07l-3.071 7.82-1.25-6.633c-.112-.754-.695-1.187-1.418-1.187H87.4Zm15.02 0-2.432 11.494h2.96l2.417-11.494h-2.945Zm16.479 0c-.709 0-1.084.377-1.362 1.047l-4.335 10.447h3.098l.598-1.746h3.779l.361 1.746h2.738l-2.376-11.494h-2.501Zm.403 3.114.917 4.316h-2.46l1.543-4.316Z"/><mask id="e" width="17" height="18" x="130" y="29" maskUnits="userSpaceOnUse" style="mask-type:luminance"><path fill="#fff" d="M146.812 29.763h-16.624v16.302h16.624V29.763Z"/></mask><g mask="url(#e)"><path fill="#fff" d="M138.5 45.182c4.094 0 7.413-3.254 7.413-7.268 0-4.015-3.319-7.269-7.413-7.269s-7.413 3.254-7.413 7.269c0 4.014 3.319 7.268 7.413 7.268Z"/><path fill="#345D9D" d="M138.5 29.763a8.43 8.43 0 0 0-4.618 1.373 8.187 8.187 0 0 0-3.062 3.659 8.003 8.003 0 0 0-.473 4.709 8.109 8.109 0 0 0 2.275 4.173 8.368 8.368 0 0 0 4.256 2.231 8.466 8.466 0 0 0 4.803-.464 8.284 8.284 0 0 0 3.731-3.002 8.04 8.04 0 0 0 1.4-4.528 7.985 7.985 0 0 0-.621-3.112 8.129 8.129 0 0 0-1.789-2.642 8.29 8.29 0 0 0-2.684-1.77 8.427 8.427 0 0 0-3.17-.627h-.048Zm.141 8.427-.866 2.862h4.63a.239.239 0 0 1 .167.061c.023.02.041.045.053.073a.22.22 0 0 1 .021.087v.075l-.402 1.361a.3.3 0 0 1-.302.217h-7.085l1.187-3.966-1.328.394.302-.907 1.328-.395 1.671-5.566a.306.306 0 0 1 .302-.217h1.791a.237.237 0 0 1 .221.134.22.22 0 0 1 .021.087v.075l-1.409 4.697 1.328-.394-.282.947-1.348.375Z"/></g><path fill="#50AF95" fill-rule="evenodd" d="m157.408 29.884-3.218 7.164a.141.141 0 0 0-.011.086c.005.029.018.056.039.076l8.69 8.826a.13.13 0 0 0 .092.04.13.13 0 0 0 .092-.04l8.69-8.826a.137.137 0 0 0 .039-.076.14.14 0 0 0-.011-.086l-3.217-7.163a.142.142 0 0 0-.049-.059.123.123 0 0 0-.07-.022h-10.947a.125.125 0 0 0-.071.021.132.132 0 0 0-.048.06Z" clip-rule="evenodd"/><path fill="#fff" fill-rule="evenodd" d="M164.077 37.69a16.1 16.1 0 0 1-1.064.023c-.552 0-.943-.017-1.081-.023-2.131-.096-3.722-.477-3.722-.933 0-.456 1.591-.837 3.722-.935v1.488c.14.01.539.035 1.09.035.662 0 .993-.028 1.053-.034v-1.488c2.127.098 3.714.478 3.714.934 0 .455-1.587.835-3.714.932h.002Zm0-2.02v-1.332h2.968v-2.03h-8.081v2.03h2.968v1.33c-2.412.115-4.226.605-4.226 1.193 0 .588 1.814 1.078 4.226 1.192v4.267h2.145v-4.268c2.406-.114 4.217-.604 4.217-1.191 0-.588-1.809-1.078-4.217-1.192Z" clip-rule="evenodd"/><mask id="f" width="18" height="18" x="179" y="28" maskUnits="userSpaceOnUse" style="mask-type:luminance"><path fill="#fff" d="M196.047 28.974H179.25v16.923h16.797V28.974Z"/></mask><g mask="url(#f)"><path fill="#F7931A" d="M195.796 39.483c-1.122 4.533-5.68 7.292-10.18 6.161-4.498-1.13-7.237-5.722-6.114-10.254 1.121-4.534 5.678-7.293 10.177-6.163 4.5 1.13 7.238 5.722 6.117 10.256Z"/><path fill="#fff" d="M191.352 36.23c.167-1.126-.684-1.731-1.847-2.135l.377-1.525-.922-.232-.367 1.486c-.242-.061-.491-.119-.738-.176l.37-1.495-.921-.231-.378 1.525a29.409 29.409 0 0 1-.589-.14l.001-.004-1.271-.32-.245.992s.684.158.67.167c.373.094.44.343.429.54l-.43 1.738a.745.745 0 0 1 .096.031l-.098-.024-.602 2.434c-.046.114-.162.286-.423.22.01.014-.669-.168-.669-.168l-.458 1.063 1.199.301c.223.057.442.116.657.171l-.381 1.543.921.231.377-1.526c.252.069.496.132.735.192l-.376 1.52.921.23.382-1.54c1.571.3 2.753.18 3.25-1.253.401-1.153-.019-1.818-.846-2.251.602-.14 1.055-.54 1.176-1.364Zm-2.106 2.975c-.285 1.153-2.212.53-2.836.373l.506-2.044c.624.158 2.628.469 2.33 1.671Zm.285-2.991c-.26 1.048-1.863.516-2.384.385l.459-1.854c.52.13 2.196.375 1.925 1.469Z"/></g><defs><clipPath id="a"><path fill="#fff" d="M53 0h47v16H53z"/></clipPath><clipPath id="d"><path fill="#fff" d="M165 0h26v16h-26z"/></clipPath></defs></svg>