<svg xmlns="http://www.w3.org/2000/svg" width="202" height="110" fill="none"><path fill="#1434CB" d="M30.58 13.54c-3.28 0-6.23 1.76-6.23 5 0 3.72 5.2 3.97 5.2 5.82 0 .78-.87 1.5-2.36 1.5-2.11 0-3.7-.99-3.7-.99l-.67 3.27s1.81.83 4.25.83c3.6 0 6.42-1.83 6.42-5.13 0-3.93-5.22-4.18-5.22-5.9 0-.62.72-1.3 2.2-1.3 1.68 0 3.06.71 3.06.71l.67-3.15c-.02 0-1.52-.66-3.62-.66Zm-30.07.24-.1.47s1.39.25 2.64.78c1.6.6 1.71.94 2 2.02l2.94 11.67h3.95L18 13.78h-3.94l-3.9 10.17-1.59-8.63a1.73 1.73 0 0 0-1.8-1.54H.51Zm19.08 0-3.1 14.94h3.77l3.07-14.94h-3.74Zm20.93 0c-.9 0-1.38.49-1.73 1.36l-5.5 13.58h3.93l.76-2.27h4.8l.46 2.27h3.47L43.7 13.78h-3.18Zm.51 4.05 1.17 5.6h-3.13l1.96-5.6Z"/><path fill="#FFB600" d="M80.78 22a8.58 8.58 0 0 1-8.5 8.66 8.6 8.6 0 0 1-8.5-8.66 8.57 8.57 0 0 1 8.45-8.66c4.77 0 8.55 3.9 8.55 8.66Z"/><path fill="#F7981D" d="M72.27 13.34a8.6 8.6 0 0 1 8.5 8.66 8.58 8.58 0 0 1-8.5 8.66 8.6 8.6 0 0 1-8.5-8.66"/><path fill="#FF8500" d="M72.27 13.34a8.6 8.6 0 0 1 8.5 8.66 8.58 8.58 0 0 1-8.5 8.66"/><path fill="#FF5050" d="M60.85 13.34A8.59 8.59 0 0 0 52.44 22a8.58 8.58 0 0 0 8.5 8.66c2.2 0 4.18-.87 5.71-2.24.32-.28.59-.6.86-.92h-1.76c-.22-.27-.45-.6-.63-.87h3.02c.18-.28.36-.6.5-.92h-4.01c-.14-.27-.27-.6-.36-.91h4.68c.27-.87.45-1.8.45-2.75 0-.65-.1-1.24-.18-1.84H64c.04-.32.13-.6.22-.91h4.68a5.53 5.53 0 0 0-.36-.92h-3.96c.14-.32.32-.6.5-.92h3.01c-.18-.32-.4-.64-.67-.91h-1.67c.27-.32.54-.6.86-.87a8.21 8.21 0 0 0-5.72-2.25c0-.1 0-.1-.04-.1Z"/><path fill="#E52836" d="M52.44 22a8.58 8.58 0 0 0 8.5 8.66c2.2 0 4.18-.87 5.71-2.24.32-.28.59-.6.86-.92h-1.76c-.22-.27-.45-.6-.63-.87h3.02c.18-.28.36-.6.5-.92h-4.01c-.14-.27-.27-.6-.36-.91h4.68c.27-.88.45-1.8.45-2.75 0-.65-.1-1.24-.18-1.84H64c.04-.32.13-.6.22-.91h4.68a5.53 5.53 0 0 0-.36-.92h-3.96c.14-.32.32-.6.5-.92h3.01c-.18-.32-.4-.64-.67-.91h-1.67c.27-.32.54-.6.86-.88a8.21 8.21 0 0 0-5.72-2.24h-.04"/><path fill="#CB2026" d="M60.94 30.66c2.2 0 4.18-.87 5.71-2.24.32-.28.59-.6.86-.92h-1.76c-.22-.27-.45-.6-.63-.87h3.02c.18-.28.36-.6.5-.92h-4.01c-.14-.27-.27-.6-.36-.91h4.68c.27-.88.45-1.8.45-2.75 0-.65-.1-1.24-.18-1.84H64c.04-.32.13-.6.22-.91h4.68a5.53 5.53 0 0 0-.36-.92h-3.96c.14-.32.32-.6.5-.92h3.01c-.18-.32-.4-.64-.67-.91h-1.67c.27-.32.54-.6.86-.88a8.21 8.21 0 0 0-5.71-2.24h-.05"/><path fill="#fff" d="m63.95 24.2.14-.78c-.05 0-.14.05-.23.05-.31 0-.36-.19-.31-.28l.27-1.6h.5l.13-.87H64l.09-.55h-.9s-.54 3.02-.54 3.39c0 .55.31.78.72.78.27 0 .5-.1.58-.14Zm.32-1.47c0 1.29.85 1.6 1.57 1.6.68 0 .95-.13.95-.13l.18-.87s-.5.23-.95.23c-.99 0-.8-.73-.8-.73h1.84s.13-.6.13-.83c0-.6-.31-1.33-1.3-1.33-.95-.1-1.62.92-1.62 2.06Zm1.57-1.33c.5 0 .4.6.4.65h-.98c0-.05.09-.65.58-.65Zm5.71 2.8.18-1s-.45.22-.76.22c-.63 0-.9-.5-.9-1.05 0-1.1.54-1.7 1.17-1.7.45 0 .8.28.8.28l.14-.97s-.54-.23-1.03-.23c-1.03 0-2.07.92-2.07 2.66 0 1.15.54 1.93 1.62 1.93.36 0 .85-.14.85-.14Zm-12.54-3.62c-.63 0-1.08.18-1.08.18l-.14.78s.4-.18 1-.18c.3 0 .58.04.58.32 0 .18-.05.23-.05.23h-.4c-.77 0-1.62.32-1.62 1.37 0 .83.54 1.01.85 1.01.63 0 .9-.41.95-.41l-.05.37h.81l.36-2.52c0-1.1-.9-1.15-1.21-1.15Zm.18 2.06c0 .14-.1.87-.63.87-.27 0-.36-.23-.36-.36 0-.23.13-.55.8-.55.14.04.19.04.19.04Zm1.88 1.65c.23 0 1.35.05 1.35-1.19 0-1.15-1.08-.92-1.08-1.37 0-.23.18-.33.5-.33.13 0 .63.05.63.05l.13-.82s-.31-.1-.85-.1c-.68 0-1.35.28-1.35 1.2 0 1.05 1.12.96 1.12 1.37 0 .28-.31.32-.54.32-.4 0-.8-.14-.8-.14l-.14.83c.05.09.27.18 1.03.18Zm17.95-4.44-.18 1.23s-.36-.45-.85-.45c-.81 0-1.53 1-1.53 2.2 0 .73.36 1.5 1.12 1.5.54 0 .86-.36.86-.36l-.05.32h.9l.68-4.4-.95-.04Zm-.4 2.43c0 .5-.23 1.14-.72 1.14-.32 0-.5-.27-.5-.73 0-.74.32-1.2.72-1.2.32 0 .5.24.5.79ZM54.1 24.25l.54-3.3.1 3.3h.62l1.17-3.3-.5 3.3h.95l.72-4.4h-1.48l-.9 2.7-.05-2.7h-1.3l-.72 4.4h.85Zm13.95 0c.27-1.52.31-2.75.94-2.52.1-.6.23-.83.32-1.06h-.18c-.4 0-.72.55-.72.55l.09-.5h-.86l-.58 3.57h.99v-.04Zm5.57-3.67c-.63 0-1.08.18-1.08.18l-.13.78s.4-.18.99-.18c.31 0 .58.04.58.32 0 .18-.04.23-.04.23h-.4c-.77 0-1.63.32-1.63 1.37 0 .83.54 1.01.86 1.01.63 0 .9-.41.94-.41l-.04.37h.8l.37-2.52c.04-1.1-.9-1.15-1.22-1.15Zm.23 2.06c0 .14-.1.87-.63.87-.27 0-.36-.23-.36-.36 0-.23.13-.55.8-.55.14.04.14.04.19.04Zm1.75 1.6c.27-1.5.32-2.74.95-2.51.09-.6.22-.83.31-1.06h-.18c-.4 0-.72.55-.72.55l.1-.5h-.86l-.59 3.57h1v-.04Z"/><path fill="#DCE5E5" d="M62.56 23.56c0 .55.31.78.72.78.31 0 .58-.1.67-.14l.14-.78c-.05 0-.14.05-.23.05-.31 0-.36-.19-.31-.28l.27-1.6h.5l.13-.87H64l.09-.55m.63 2.56c0 1.29.4 1.6 1.12 1.6.68 0 .95-.13.95-.13l.18-.87s-.5.23-.95.23c-.99 0-.8-.73-.8-.73h1.84s.13-.6.13-.83c0-.6-.31-1.33-1.3-1.33-.95-.1-1.17.92-1.17 2.06Zm1.12-1.33c.5 0 .59.6.59.65h-1.17c0-.05.09-.65.58-.65Zm5.71 2.8.18-1s-.45.22-.76.22c-.63 0-.9-.5-.9-1.05 0-1.1.54-1.7 1.17-1.7.45 0 .8.28.8.28l.14-.97s-.54-.23-1.03-.23c-1.03 0-1.62.92-1.62 2.66 0 1.15.1 1.93 1.17 1.93.36 0 .85-.14.85-.14ZM57.8 21.59s.4-.19 1-.19c.3 0 .58.05.58.33 0 .18-.05.22-.05.22h-.4c-.77 0-1.62.33-1.62 1.38 0 .82.54 1 .85 1 .63 0 .9-.4.95-.4l-.05.36h.81l.36-2.52c0-1.05-.9-1.1-1.26-1.1m.68 1.97c0 .14-.54.87-1.08.87-.27 0-.36-.23-.36-.36 0-.23.13-.55.8-.55.14.04.64.04.64.04Zm.45 1.56s.27.1 1.03.1c.22 0 1.35.04 1.35-1.2 0-1.15-1.08-.92-1.08-1.37 0-.23.18-.33.5-.33.13 0 .62.05.62.05l.14-.82s-.32-.1-.86-.1c-.67 0-.9.28-.9 1.2 0 1.05.68.96.68 1.37 0 .28-.32.32-.54.32m17.81-2.34s-.36-.45-.85-.45c-.81 0-1.08 1-1.08 2.2 0 .73-.1 1.5.67 1.5.54 0 .86-.36.86-.36l-.05.32h.9l.68-4.4m-1.17 2.39c0 .5-.4 1.14-.9 1.14-.32 0-.5-.27-.5-.73 0-.74.32-1.2.72-1.2.32 0 .68.24.68.79Zm-24.7 1.97.54-3.3.1 3.3h.62l1.17-3.3-.5 3.3h.95l.72-4.4h-1.12l-1.26 2.7-.05-2.7h-.5l-1.52 4.4h.85Zm13 0h.95c.27-1.52.31-2.75.94-2.52.1-.6.23-.83.32-1.06h-.18c-.4 0-.72.55-.72.55l.09-.5m3.9.87s.41-.19 1-.19c.31 0 .58.05.58.33 0 .18-.04.22-.04.22h-.4c-.77 0-1.63.33-1.63 1.38 0 .82.54 1 .86 1 .63 0 .9-.4.94-.4l-.04.36h.8l.37-2.52c0-1.05-.9-1.1-1.26-1.1m.67 1.97c0 .14-.54.87-1.08.87-.27 0-.36-.23-.36-.36 0-.23.14-.55.81-.55.18.04.63.04.63.04Zm.4 1.6h.95c.27-1.5.32-2.74.95-2.51.09-.6.22-.83.31-1.06h-.18c-.4 0-.72.55-.72.55l.1-.5"/><path fill="#83BA3B" d="M146.37 16.89c-.77-.77-1.94-1.16-3.48-1.16h-4.02l-1.5 11.8h-5.26l.34-2.67h3.17l.38-3.01h-3.18l.34-2.66h3.27l.44-3.46h-6.64l-1.42 11.2h-2.43l1.43-11.2h-3.47l-1.42 11.2h-2.38l1.43-11.2h-3.46l-1.5 11.8h-5.3l.33-2.67h3.19l.37-3h-3.18l.34-2.67h3.3l.44-3.46H95.81l-1.18 9.36-2.35-9.36h-3.6L86.76 31h3.43l1.18-9.62L93.64 31h12.32l1.5-11.81h1.93L107.89 31h32.41l.94-7.46 1.52 7.46h3.44l-1.57-6.1.36-.1c.79-.25 1.4-.79 1.84-1.58.43-.8.65-1.84.65-3.08 0-1.45-.36-2.51-1.11-3.25Zm-43.4 10.65h-5.26l.34-2.68h3.3l.37-3.02h-3.27l.32-2.65h5.25l-1.05 8.35Zm40.57-5.15c-.35.35-.85.53-1.54.53h-.68l.53-4.1h.5c.56 0 .98.13 1.27.4.22.21.49.63.49 1.43 0 .96-.31 1.48-.57 1.74Z"/><path fill="#872165" d="M185.81 29.83h3.91V18.21h-3.9v11.62Zm-2.2-11.8c-3.62.13-5.46 1.85-5.46 5.26v6.54h3.95V24.5c0-2.05.26-2.93 2.55-3.01v-3.4a5.1 5.1 0 0 0-.81-.07l-.24.02ZM154 19c0 1.34.55 4.5 5.59 4.87.43.02 1.56.1 1.56 1.24 0 .92-.93 1.48-2.49 1.48-1.5-.04-2.98-.35-4.38-.92v3.72c1.7.44 3.45.65 5.21.63 4.3 0 6.24-2.57 6.24-5.12 0-2.89-2.17-4.77-5.79-5.02-.49-.04-1.63-.1-1.63-1.21 0-1.32 1.63-1.32 2.27-1.32a12.36 12.36 0 0 1 4.54 1.09l.04.02v-3.64l-.06-.02a13.29 13.29 0 0 0-5.12-.86c-4.42 0-5.98 2.72-5.98 5.06Zm12.72-4.22v15.05h4.03v-4.66c1.16 1.86 1.75 4.66 1.75 4.66h4.84c-.47-2.1-2.56-5.98-2.56-5.98 1.24-1.7 2.19-3.6 2.84-5.64h-4.64a14.84 14.84 0 0 1-2.23 4.05v-8.32l-4.03.84Zm24.66-.1v15.15h3.91V13.94l-3.9.73Zm5.71 0v15.15H201V13.94l-3.91.73ZM187.77 13c-1.07 0-1.94.92-1.94 2.05s.87 2.05 1.94 2.05c1.06 0 1.93-.92 1.93-2.05-.02-1.13-.86-2.05-1.93-2.05Z"/><mask id="a" width="47" height="18" x="154" y="13" maskUnits="userSpaceOnUse" style="mask-type:luminance"><path fill="#fff" d="M185.81 29.83h3.91V18.21h-3.9v11.62Zm-2.2-11.8c-3.62.13-5.46 1.85-5.46 5.26v6.54h3.95V24.5c0-2.05.26-2.93 2.55-3.01v-3.4a5.1 5.1 0 0 0-.81-.07l-.24.02ZM154 19c0 1.34.55 4.5 5.59 4.87.43.02 1.56.1 1.56 1.24 0 .92-.93 1.48-2.49 1.48-1.5-.04-2.98-.35-4.38-.92v3.72c1.7.44 3.45.65 5.21.63 4.3 0 6.24-2.57 6.24-5.12 0-2.89-2.17-4.77-5.79-5.02-.49-.04-1.63-.1-1.63-1.21 0-1.32 1.63-1.32 2.27-1.32a12.36 12.36 0 0 1 4.54 1.09l.04.02v-3.64l-.06-.02a13.29 13.29 0 0 0-5.12-.86c-4.42 0-5.98 2.72-5.98 5.06Zm12.72-4.22v15.05h4.03v-4.66c1.16 1.86 1.75 4.66 1.75 4.66h4.84c-.47-2.1-2.56-5.98-2.56-5.98 1.24-1.7 2.19-3.6 2.84-5.64h-4.64a14.84 14.84 0 0 1-2.23 4.05v-8.32l-4.03.84Zm24.66-.1v15.15h3.91V13.94l-3.9.73Zm5.71 0v15.15H201V13.94l-3.91.73ZM187.77 13c-1.07 0-1.94.92-1.94 2.05s.87 2.05 1.94 2.05c1.06 0 1.93-.92 1.93-2.05-.02-1.13-.86-2.05-1.93-2.05Z"/></mask><g mask="url(#a)"><path fill="#872165" d="M201 13h-47v17h47V13Z"/></g><g clip-path="url(#b)"><path fill="#008CFF" d="M16.85 58.05a4.06 4.06 0 0 0-2.37-.62c-.66 0-1.7-.49-1.7-1.9 0-.49.16-.98.5-1.35.32-.37.76-.55 1.2-.55a5.27 5.27 0 0 0 2.37-.61 4.72 4.72 0 0 0 1.6-1.78c.38-.74.55-1.54.55-2.4 0-.85-.22-1.65-.55-2.39a4.72 4.72 0 0 0-1.6-1.78 3.84 3.84 0 0 0-2.15-.6 4.4 4.4 0 0 0-2.14.6 4.72 4.72 0 0 0-1.6 1.78 5.86 5.86 0 0 0-.6 2.4c0 .92.27 1.77.65 2.57.33.68.5 1.9-.6 2.64a1.67 1.67 0 0 1-2.37-.68 6.02 6.02 0 0 0-1.65-1.96 3.84 3.84 0 0 0-2.15-.61 4.4 4.4 0 0 0-2.15.61A4.72 4.72 0 0 0 .5 53.2a5.06 5.06 0 0 0-.55 2.4c0 .85.23 1.65.56 2.38.38.74.93 1.35 1.6 1.78.65.43 1.37.62 2.14.62a4.4 4.4 0 0 0 2.15-.62 4.96 4.96 0 0 0 1.65-1.96c.33-.61 1.21-1.41 2.31-.74.39.25.66.68.77 1.17.11.49.06.98-.16 1.47-.39.8-.66 1.66-.66 2.58 0 .86.22 1.65.55 2.39.38.74.94 1.35 1.6 1.78.66.43 1.37.61 2.14.61a4.4 4.4 0 0 0 2.15-.61 4.72 4.72 0 0 0 1.6-1.78c.38-.74.55-1.53.55-2.4a5.8 5.8 0 0 0-.55-2.38 3.18 3.18 0 0 0-1.49-1.84Z"/></g><mask id="c" width="21" height="21" x="25" y="46" maskUnits="userSpaceOnUse" style="mask-type:luminance"><path fill="#fff" d="M45.66 46.19H25.5v20.68h20.16V46.2Z"/></mask><g mask="url(#c)"><path fill="#F7931A" d="M45.35 59.03a10.06 10.06 0 0 1-12.21 7.54c-5.4-1.39-8.68-7-7.34-12.54a10.06 10.06 0 0 1 12.21-7.53c5.4 1.38 8.7 7 7.34 12.53Z"/><path fill="#fff" d="M40.02 55.06c.2-1.38-.82-2.12-2.21-2.61l.45-1.86-1.1-.29-.45 1.82-.88-.22.44-1.82-1.1-.29-.46 1.87a36 36 0 0 1-.7-.17l-1.53-.4-.3 1.21.81.2c.45.12.53.43.52.67l-.52 2.12c.03 0 .07.02.11.04L33 55.3l-.73 2.97c-.05.14-.19.35-.5.27 0 .02-.8-.2-.8-.2l-.56 1.3 1.44.37.8.2-.47 1.89 1.1.28.46-1.86.88.23-.45 1.86 1.1.28.47-1.88c1.88.37 3.3.22 3.9-1.53.48-1.41-.03-2.22-1.02-2.75.72-.18 1.27-.66 1.41-1.67ZM37.5 58.7c-.35 1.4-2.66.64-3.4.45l.6-2.5c.75.2 3.15.58 2.8 2.05Zm.34-3.66c-.31 1.28-2.24.63-2.86.47l.55-2.27c.62.16 2.63.46 2.3 1.8Z"/></g><g clip-path="url(#d)"><path fill="#343434" d="m61 42-.18.57V59.1l.18.16 8-4.53L61 42Z"/><path fill="#8C8C8C" d="m61 42-8 12.73 8 4.53V42Z"/><path fill="#3C3C3B" d="m61 60.72-.1.11v5.89l.1.27 8-10.8-8 4.53Z"/><path fill="#8C8C8C" d="M61 67v-6.28l-8-4.54L61 67Z"/><path fill="#141414" d="m61 59.26 8-4.53-8-3.49v8.02Z"/><path fill="#393939" d="m53 54.73 8 4.53v-8.02l-8 3.49Z"/></g><mask id="e" width="22" height="22" x="75" y="45" maskUnits="userSpaceOnUse" style="mask-type:luminance"><path fill="#fff" d="M96.5 45.72h-21V66.8h21V45.72Z"/></mask><g mask="url(#e)"><path fill="#fff" d="M86 65.65c5.17 0 9.36-4.2 9.36-9.4 0-5.18-4.19-9.39-9.36-9.39a9.38 9.38 0 0 0-9.36 9.4c0 5.19 4.19 9.4 9.36 9.4Z"/><path fill="#345D9D" d="M86 45.72a10.48 10.48 0 0 0-9.7 6.5 10.56 10.56 0 0 0 7.65 14.37 10.47 10.47 0 0 0 10.78-4.48 10.56 10.56 0 0 0-8.67-16.39H86Zm.18 10.9-1.1 3.7h5.85a.3.3 0 0 1 .3.28v.1l-.5 1.75a.38.38 0 0 1-.38.29H81.4l1.5-5.13-1.68.5.38-1.16 1.68-.51 2.11-7.2a.39.39 0 0 1 .38-.28h2.26a.3.3 0 0 1 .3.29v.1l-1.77 6.07 1.68-.52-.36 1.23-1.7.48Z"/></g><path fill="#50AF95" fill-rule="evenodd" d="m108.5 47.18-4.01 8.71a.18.18 0 0 0-.02.1l.05.1 10.87 10.74a.16.16 0 0 0 .22 0l10.87-10.74a.17.17 0 0 0 .03-.2l-4.02-8.7a.16.16 0 0 0-.15-.1h-13.68a.16.16 0 0 0-.15.09Z" clip-rule="evenodd"/><path fill="#fff" fill-rule="evenodd" d="M116.85 56.68c-.08 0-.47.02-1.33.02-.7 0-1.18-.02-1.35-.02-2.67-.12-4.66-.59-4.66-1.14 0-.55 2-1.02 4.66-1.14v1.81a20.14 20.14 0 0 0 2.67 0v-1.8c2.66.11 4.65.58 4.65 1.13 0 .55-1.99 1.02-4.65 1.13Zm0-2.46V52.6h3.7v-2.47h-10.1v2.47h3.72v1.62c-3.02.14-5.29.73-5.29 1.45 0 .71 2.27 1.3 5.29 1.45v5.19h2.68v-5.2c3-.13 5.27-.73 5.27-1.44 0-.72-2.26-1.31-5.27-1.45Z" clip-rule="evenodd"/><path fill="#FF060A" d="M145.54 67.9c6.87 0 12.44-5.12 12.44-11.42s-5.57-11.42-12.44-11.42c-6.87 0-12.44 5.11-12.44 11.42 0 6.3 5.57 11.42 12.44 11.42Z"/><path fill="#fff" d="M152.53 54.43c-.68-.59-1.64-1.48-2.4-2.1l-.06-.03c-.07-.06-.16-.1-.25-.14-1.87-.32-10.56-1.8-10.72-1.79-.05 0-.1.02-.14.05l-.04.03a.46.46 0 0 0-.12.18l-.01.02v.18c.98 2.5 4.84 10.69 5.6 12.62.05.13.14.38.3.39h.04c.08 0 .46-.45.46-.45s6.63-7.39 7.3-8.18c.1-.1.17-.2.23-.3a.43.43 0 0 0-.02-.26.57.57 0 0 0-.17-.22Zm-5.65.86 2.83-2.15 1.66 1.4-4.49.75Zm-1.1-.14-4.88-3.67 7.9 1.34-3.02 2.33Zm.44.96 4.99-.74-5.7 6.31.7-5.57Zm-5.98-4.26 5.13 4-.74 5.84-4.39-9.84Z"/><g clip-path="url(#f)"><g filter="url(#g)"><path fill="#000" d="M176 68.38A12.19 12.19 0 1 0 176 44a12.19 12.19 0 0 0 0 24.38Z"/></g><path fill="#C3A634" d="M176 68.38A12.19 12.19 0 1 0 176 44a12.19 12.19 0 0 0 0 24.38Z"/><path fill="url(#h)" d="M176 68.38A12.19 12.19 0 1 0 176 44a12.19 12.19 0 0 0 0 24.38Z" style="mix-blend-mode:soft-light"/><path stroke="#000" stroke-opacity=".1" d="M176 67.97a11.78 11.78 0 1 0 0-23.56 11.78 11.78 0 0 0 0 23.56Z"/><g filter="url(#i)"><path fill="#000" d="M173.76 55.06h3.5v1.86h-3.5v3.91h2.22c.87 0 1.59-.12 2.14-.35a3.14 3.14 0 0 0 1.96-2.46 9.24 9.24 0 0 0 0-3.66 3.14 3.14 0 0 0-1.96-2.46 5.54 5.54 0 0 0-2.15-.36h-2.2v3.52Zm-2.24 1.86h-1.2v-1.86h1.2v-5.37h5.32c.98 0 1.83.17 2.55.5.72.35 1.3.81 1.76 1.4.46.59.8 1.28 1.02 2.07.22.79.33 1.63.33 2.53 0 .9-.11 1.74-.33 2.53a5.97 5.97 0 0 1-1.02 2.06 4.76 4.76 0 0 1-1.76 1.4c-.72.34-1.57.5-2.55.5h-5.32v-5.76Z"/></g><path fill="#fff" d="M173.76 55.06h3.5v1.86h-3.5v3.91h2.22c.87 0 1.59-.12 2.14-.35a3.14 3.14 0 0 0 1.96-2.46 9.24 9.24 0 0 0 0-3.66 3.14 3.14 0 0 0-1.96-2.46 5.54 5.54 0 0 0-2.15-.36h-2.2v3.52Zm-2.24 1.86h-1.2v-1.86h1.2v-5.37h5.32c.98 0 1.83.17 2.55.5.72.35 1.3.81 1.76 1.4.46.59.8 1.28 1.02 2.07.22.79.33 1.63.33 2.53 0 .9-.11 1.74-.33 2.53a5.97 5.97 0 0 1-1.02 2.06 4.76 4.76 0 0 1-1.76 1.4c-.72.34-1.57.5-2.55.5h-5.32v-5.76Z"/></g><mask id="j" width="60" height="16" x="2" y="78" maskUnits="userSpaceOnUse" style="mask-type:luminance"><path fill="#fff" d="M61.86 78.57H2.89v14.81h58.97v-14.8Z"/></mask><g mask="url(#j)"><path fill="#fff" d="M10.71 84.28v-.16c0-1.86-.82-2.75-2.11-2.75-1.3 0-2.13.95-2.13 2.73v.16c0 1.8.8 2.72 2.13 2.72 1.33 0 2.11-.95 2.11-2.7Zm-.8-5.65c2.5 0 4.54 1.86 4.54 5.5v.15c0 3.65-2.04 5.48-4.56 5.48-1.62 0-2.79-.75-3.32-1.8v5.1H2.89V78.91h3.68v1.58a3.8 3.8 0 0 1 3.34-1.86ZM23.21 84.2v-.16c0-1.84-.78-2.73-2.01-2.73-1.3 0-2.05.91-2.05 2.75v.17c0 1.78.78 2.7 1.99 2.7 1.2 0 2.07-.92 2.07-2.72Zm-7.8.07v-.16c0-3.61 2.1-5.54 4.5-5.54 1.62 0 2.58.69 3.2 1.76v-1.48h3.67v10.6h-3.67v-1.7a3.56 3.56 0 0 1-3.22 1.95c-2.38 0-4.48-1.76-4.48-5.43M34.13 84.57l2.05-5.66h3.5l-5.74 14.15h-3.5l1.78-4.62-4.29-9.53h3.98l2.22 5.66ZM39.88 89.52V87l4.88-5.35h-4.29l-.02-2.74h8.6v2.68l-4.68 5.17h5.03v2.76h-9.52Z"/><path fill="#D0FA02" d="M51.13 88.1a5.29 5.29 0 0 1 5.32-5.32c3.04 0 5.4 2.4 5.4 5.31 0 2.92-2.3 5.3-5.4 5.3a5.2 5.2 0 0 1-5.32-5.3Z"/></g><g clip-path="url(#k)"><path fill="#fff" d="m77.1 77.4-4.04 14.32h2.4l1.15-4.2h3.3l1.2 4.2h2.44l-4.1-14.31h-2.34Zm2.2 7.83h-2.1l.86-3.2.15-.65c.05.24.1.42.2.66l.9 3.19Zm8.25 0c-1.1-.55-1.2-.79-1.2-1.15 0-.48.35-.78.85-.78s.95.18 1.4.48l.44.36.6-2.28-.25-.24a3.23 3.23 0 0 0-2.2-.66c-1.84 0-3.14 1.38-3.14 3.3 0 1.75 1.3 2.7 2.4 3.19 1.1.48 1.2.84 1.2 1.26 0 .78-.7.9-1.1.9-.6-.06-1.2-.24-1.7-.6l-.45-.3-.6 2.35.3.18c.75.48 1.6.78 2.45.72 2 0 3.4-1.38 3.4-3.43-.06-1.98-1.4-2.82-2.4-3.3Zm5.94-6.5-2.3.84v1.63H90v2.34h1.25v4.7a5.17 5.17 0 0 0 .65 2.88c.5.6 1.15.96 1.85.9.5 0 .95-.06 1.4-.24l.3-.12-.1-2.35-.5.18c-.25.06-.45.12-.7.12-.25 0-.65 0-.65-1.32v-4.75h2.05V81.2h-2.05v-2.47Zm7.6 2.35-.4-.06c-.16 0-.26-.06-.4-.06-.7 0-1.4.36-1.9.96v-.78h-2.15v.6c.05.78.05 1.74.05 2.94v7.1h2.3v-5.6c0-.23 0-.47.04-.71.15-1.09.75-1.8 1.5-1.8h.4l.5.11.05-2.7Zm4.19-.12c-2.55 0-4.35 2.28-4.35 5.59 0 3.19 1.75 5.41 4.25 5.41 2.1 0 4.4-1.74 4.4-5.6-.06-3.18-1.8-5.4-4.3-5.4Zm1.9 5.47c0 1.86-.85 3.19-1.95 3.19s-1.95-1.33-1.95-3.13c0-1.2.45-3.19 2-3.19 1.5 0 1.9 2.05 1.9 3.13Zm9.88-7.88c-.75-.84-1.9-1.26-3.4-1.26-.94 0-1.89.06-2.79.24l-.35.12v14.07h2.3v-5.23c.25 0 .5.06.7.06a4.6 4.6 0 0 0 3.7-1.62c.64-.85 1-2.05 1-3.2 0-1.2-.4-2.34-1.16-3.18Zm-1.14 3.25c0 1.98-1.45 2.28-2.35 2.28-.25 0-.5 0-.75-.06v-4.27c.3-.06.6-.06.9-.06 1 .06 2.2.42 2.2 2.1Zm9.29 7.15v-3.54c0-2.83-1.25-4.4-3.45-4.4-1 0-2 .3-2.85.9l-.3.25.6 2.22.5-.42c.55-.42 1.2-.66 1.85-.6.35-.06.75.12 1.05.42.2.24.3.6.35.96-1.8.07-3.1.6-3.9 1.57a3.95 3.95 0 0 0-.85 2.52c0 1.8 1.2 3.25 2.65 3.25h.2c.75 0 1.55-.3 2.15-.84l.05.6h2.2l-.05-.6c-.14-.75-.2-1.52-.2-2.29Zm-3.85.72c-.45.07-.85-.36-.9-.9v-.24c0-.36.1-.66.3-.9.25-.3.85-.66 2.2-.72v1.14c0 .12 0 .24-.05.42-.25.72-.85 1.2-1.55 1.2Zm10.19-8.47-1.65 5.95c-.06.15-.1.31-.1.48l-.15-.42-1.8-5.95h-2.5l3.15 9.5c.05.06.05.12.05.24 0 .06-.05.12-.05.18-.25.66-.6 1.26-1.1 1.74-.35.36-.7.6-1.1.72l-.4.18.6 2.35.4-.06c.75-.18 1.4-.6 2-1.2 1.1-1.2 1.85-3.07 2.85-6.2l2.25-7.57-2.45.06Z"/><path fill="red" d="M81.5 81.38c1.5-1.8 4-2.89 6.75-2.89 1.04 0 2.1.18 3.1.48h.1l1.74-.66-.8-.36a13.53 13.53 0 0 0-5.04-1.02 11.2 11.2 0 0 0-6.75 2.1l-.2.12.75 2.59.35-.36Z"/></g><g clip-path="url(#l)"><path fill="#FEFEFE" fill-rule="evenodd" d="M160.6 89.16a29.72 29.72 0 0 1-3.8 2.5 53.44 53.44 0 0 1-8.9 3.92c-1 .35-2.2.55-3.21.08a2.53 2.53 0 0 1-1.34-1.44 9.8 9.8 0 0 1-.34-1.47c-.78-3.84-.44-8.32.44-12.15.21-.95.73-2.23 1.88-2.57a3.82 3.82 0 0 1 2.27.09 39.22 39.22 0 0 1 10.3 4.94c.89.62 1.87 1.26 2.7 1.95.57.42.98.99 1.16 1.62.04.18.05.37.03.55-.03.38-.16.76-.36 1.1-.2.34-.49.64-.83.88Z" clip-rule="evenodd"/><path fill="#FFB700" fill-rule="evenodd" d="M144.08 94c.28.73 1.1 1.78 3.54.95 3.54-1.2 8.82-3.42 12.5-6.32.25-.18.47-.41.63-.67.15-.26.24-.54.27-.83.08-1-.8-1.6-3.6-3.53a37.85 37.85 0 0 0-10.1-4.85 3.1 3.1 0 0 0-1.75-.08c-.71.21-1.16 1.14-1.37 2.06-.2.88-1.51 6.6-.43 11.9.07.46.18.92.31 1.38Z" clip-rule="evenodd"/><path fill="#FFDF77" fill-rule="evenodd" d="M144.56 79.7a6.6 6.6 0 0 0-.28 1.47v-.02a8.27 8.27 0 0 1 3.18-.14c4.62.5 9.37 2.79 11.94 4.16l.7.37c-.2-.18-.42-.34-.64-.5l-.05-.04-.03-.02-.15-.11-.03-.02-.05-.04-.03-.02-.03-.02-.05-.04-.03-.02-.06-.04-.02-.02-.06-.04-.03-.03-.06-.04-.03-.02-.03-.02-.03-.02-.04-.02-.03-.03-.06-.04-.03-.02-.03-.02-.04-.03-.03-.02-.07-.05-.03-.02-.03-.02-.03-.02-.04-.03-.03-.02-.04-.03-.03-.02-.04-.03-.03-.02-.02-.01-.02-.02-.04-.02-.03-.03-.03-.02-.04-.03-.04-.02-.04-.03-.04-.02-.03-.03-.04-.02-.02-.01-.02-.02-.04-.03-.04-.02-.03-.02-.05-.04-.04-.02-.03-.03a37.87 37.87 0 0 0-10.1-4.85 3.1 3.1 0 0 0-1.75-.08h-.03l-.03.02-.03.01-.03.01h-.01l-.03.02-.03.01-.03.02-.03.02-.03.01-.03.02-.03.02-.03.02-.02.03h-.01l-.02.02-.03.02-.03.02-.02.03-.03.02-.03.03-.02.03-.03.02v.01l-.02.02-.02.03-.03.03-.02.03-.31.5Zm.04-.04-.02.03-.03.03-.01.03-.03.04-.02.03-.02.03v.01l-.02.03-.02.03v.01l-.02.03-.02.04-.02.03v.01l-.02.03.25-.41Z" clip-rule="evenodd"/><path fill="#FFCE00" fill-rule="evenodd" d="M144.28 81.15a8.27 8.27 0 0 1 3.18-.14c4.63.5 9.37 2.79 11.95 4.16-2.16 5.47-11.6 9.39-11.6 9.39-1.13-1-2.22-1.92-3.28-8.76-.27-1.54-.35-3.1-.25-4.65Z" clip-rule="evenodd"/><path fill="#fff" d="M166.27 79.04c1.02-.1 2.04-.13 3.07-.1.7 0 1.37.18 1.94.53.2.17.34.39.42.62.08.24.1.48.04.73.03.81-.3 1.61-.9 2.23-.57.5-1.33.8-2.13.85-.76.1-1.53.1-2.29.02-.18.65-.37 1.29-.52 1.94-.04.2-.12.42-.37.47a9.65 9.65 0 0 1-1.4-.02c-.15-.09-.05-.26-.05-.39l.64-2.73c.05-.27.13-.53.22-.79h2.47c.13 0 .25.03.36.09-.05.2-.08.41-.1.62a14.54 14.54 0 0 0 2.39-1.74l-1.68-1.8c-.16.2-.07.53-.34.66-.4.04-.8.05-1.2.02-.47.03-.95.01-1.42-.04-.01-.33.07-.66.23-.95.13-.18.4-.18.62-.22Zm6.65 2.14c.8-.21 1.64-.2 2.43.02.2.07.38.18.52.32s.24.3.29.49c.18.64-.08 1.28-.19 1.92-.1.66-.25 1.31-.37 1.97 0 .11-.05.23-.13.32a.67.67 0 0 1-.3.21c-.79.18-1.6.24-2.4.19-.3.03-.6 0-.86-.1a1.6 1.6 0 0 1-.68-.48 1.28 1.28 0 0 1-.14-1.47c.05-.24.17-.46.35-.65.18-.18.4-.32.66-.41a8.2 8.2 0 0 1 2-.22c.18-.02.38.01.52-.1.12-.24.14-.51.06-.77-.12-.28-.52-.31-.82-.3-.62.03-1.23.14-1.8.33a1 1 0 0 1 .01-.86c.22-.23.52-.37.85-.41Zm-.4 3.49a.87.87 0 0 0-.03.68c.16.14.35.24.56.3.21.04.44.05.65 0 .22-.02.53-.07.54-.3.1-.38.14-.77.13-1.16a6.03 6.03 0 0 0-1.4.06.7.7 0 0 0-.28.15.57.57 0 0 0-.17.27Zm6.04-3.44a6.8 6.8 0 0 1 3.72.14.5.5 0 0 1 .03.43c-.36 1.7-.67 3.41-1.05 5.1a1.7 1.7 0 0 1-.3.74c-.17.22-.38.41-.63.55-.66.25-1.38.34-2.1.28a2.82 2.82 0 0 1-1.82-.53c-.13-.25.07-.51.17-.74.15 0 .3.02.45.05a6.1 6.1 0 0 0 2.29.11c.4-.08.48-.5.52-.8a4.2 4.2 0 0 1-2.16-.16 1.7 1.7 0 0 1-.67-.51 1.42 1.42 0 0 1-.3-.74c-.06-.96.12-1.91.53-2.8.12-.26.3-.5.52-.68.23-.2.5-.35.8-.44Zm1.08.84c-.2.03-.4.1-.57.2-.17.1-.32.24-.43.39-.16.27-.27.56-.32.86-.16.53-.2 1.08-.14 1.62.04.1.1.2.2.27s.22.11.34.13c.42.06.86.04 1.27-.06.14-.03.14-.17.17-.26.19-.89.35-1.78.53-2.66a.53.53 0 0 0-.01-.36c-.32-.15-.69-.2-1.04-.13Zm5.56-1.02c.63-.1 1.29-.02 1.86.23.28.15.5.35.67.59.17.24.26.51.28.8.01.64-.09 1.28-.3 1.9a2.8 2.8 0 0 1-.86 1.4c-.4.32-.9.54-1.44.63-.54.1-1.1.05-1.61-.1a1.79 1.79 0 0 1-.71-.44c-.2-.2-.33-.43-.4-.68-.2-.87-.1-1.77.27-2.6.16-.43.45-.83.84-1.13.4-.31.88-.52 1.4-.6Zm.02 1.17c-.2.06-.38.15-.53.28-.15.13-.25.29-.32.46a5.05 5.05 0 0 0-.34 1.75c-.01.11 0 .23.05.34.05.11.12.2.22.3a1.4 1.4 0 0 0 1.03.11c.16-.03.31-.1.44-.18.13-.1.23-.22.3-.35.3-.6.47-1.26.47-1.92a.69.69 0 0 0-.06-.39.78.78 0 0 0-.26-.31 1.29 1.29 0 0 0-1-.09Zm-37.89 2 .58-1.52h4.55c.78-.02 1.55.2 2.17.61.45.34.76.8.85 1.32.12.54.1 1.1-.08 1.64a3.45 3.45 0 0 1-.9 1.43 5.15 5.15 0 0 1-3.08 1.24c-.97.05-1.95.04-2.92-.02-.28 1-.5 2-.77 3-.73-.03-1.47-.07-2.2-.08.35-1.57.77-3.13 1.13-4.7 1.21-.02 2.43 0 3.64 0v.98c1.02-.76 2.01-1.55 3.02-2.32-.75-.83-1.51-1.65-2.25-2.49-.1.3-.2.6-.28.9-1.16.02-2.3 0-3.46.02Zm23.16 3.13a3.37 3.37 0 0 1 2.14-.11 1 1 0 0 1-.16.8c-.35.15-.78.03-1.12.21-.26.2-.2.56-.26.84.37.04.75 0 1.11.07a.88.88 0 0 1-.15.85c-.32.18-.73.1-1.1.13a.87.87 0 0 0-.18.4c-.28 1.34-.53 2.7-.81 4.04a2 2 0 0 1-.69 1.28c-.49.27-1.06.38-1.63.32-.23-.03-.52 0-.66-.2-.03-.25.01-.5.14-.74.31-.01.63-.04.95-.08.32-.1.39-.43.45-.69.2-1.16.45-2.32.68-3.47.07-.27.11-.54.12-.81-.3-.1-.69-.01-.92-.25a.59.59 0 0 1 .03-.7c.26-.24.67-.04 1-.13.22-.11.22-.38.27-.57.02-.24.1-.47.24-.68.14-.2.33-.38.55-.51Zm16.69.49c.06-.22.07-.53.34-.64.4-.04.8-.02 1.2-.02.1.4.04.82-.14 1.2-.4.08-.82.1-1.22.03-.29-.07-.21-.38-.18-.57Zm-22.27-.42a11.71 11.71 0 0 1 3.36.08c.07.27.04.55-.09.8-.1.18-.34.2-.53.2-.66.02-1.33 0-1.99.02a.91.91 0 0 0-.45.08.78.78 0 0 0-.33.28c-.17.47-.29.96-.33 1.46h2.7c.15 0 .4.02.37.2 0 .22-.04.45-.13.66a.44.44 0 0 1-.2.19.52.52 0 0 1-.28.05h-2.35a.41.41 0 0 0-.28.07.32.32 0 0 0-.13.23c-.12.46-.18.94-.18 1.41.03.26.34.33.58.34.76.02 1.53-.01 2.29.02.17 0 .14.18.17.29.04.28-.05.7-.44.74-1.1.1-2.3.27-3.36-.11-.24-.11-.44-.27-.58-.47a1.2 1.2 0 0 1-.22-.66 3 3 0 0 1 .11-1.12c.2-.98.39-1.96.6-2.93.07-.45.27-.88.58-1.25.29-.3.67-.5 1.1-.58Zm19.04.83c.44-.19.94-.27 1.43-.22.01.35-.14.7-.12 1.05.32 0 .64.04.95.11.2.08.16.3.13.44-.06.2-.15.49-.44.48-.3.06-.82-.1-.92.27-.18.78-.32 1.57-.48 2.36-.06.27-.1.55-.11.83.32.07.66.1 1 .05a.6.6 0 0 1 .04.63.68.68 0 0 1-.23.25.8.8 0 0 1-.35.12c-.53 0-1.13.09-1.58-.2a1 1 0 0 1-.33-.45.89.89 0 0 1-.03-.53c.16-1.09.44-2.16.59-3.25-.34-.08-.77 0-1.03-.26a.58.58 0 0 1 .08-.71c.33-.2.76-.03 1.11-.16.24-.22.09-.57.29-.8Zm-9.62.86c.6-.12 1.23-.06 1.78.18.33.2.58.48.75.8.17.31.24.66.22 1.01a4 4 0 0 1-.12 1.16c-.63.07-1.25.09-1.88.06-.6.01-1.2-.02-1.81.01a.8.8 0 0 0-.06.6c.05.2.19.37.37.5.33.1.67.13 1.02.1.62-.05 1.24-.15 1.85-.3 0 .35.1.8-.29 1.02-.42.18-.87.32-1.32.4-.69.17-1.41.1-2.03-.2-.27-.12-.5-.3-.69-.51-.18-.22-.29-.47-.33-.74-.13-1.05.1-2.12.67-3.05.2-.3.47-.54.8-.72.32-.18.7-.3 1.08-.32Zm-.36 1.3c-.3.26-.48.6-.5.97.73 0 1.47.03 2.2-.02a.8.8 0 0 0-.14-.86c-.1-.1-.21-.18-.34-.23a1.21 1.21 0 0 0-1.22.14Zm4.41-.45c.27-.3.62-.54 1.01-.7.4-.16.83-.22 1.26-.2.49 0 .97.12 1.4.32.32.18.1.54.05.8-.02.24-.37.17-.56.17-.44.02-.84-.3-1.29-.17-.18.04-.35.12-.5.23-.14.1-.25.24-.33.4-.3.67-.45 1.4-.42 2.13-.01.12.02.23.1.33.06.1.17.17.3.2.65.2 1.33-.04 1.98-.15.06.31.02.64-.14.93-.1.09-.21.16-.34.21a1.2 1.2 0 0 1-.4.08l-1.06.1c-.41 0-.82-.11-1.15-.33a1.68 1.68 0 0 1-.7-.88c-.09-.57-.07-1.16.05-1.72.11-.63.36-1.22.74-1.76Zm18.06-.85a3.9 3.9 0 0 1 1.74.12c.32.13.58.34.78.59.2.25.3.55.33.85.02.75-.1 1.5-.39 2.2-.15.5-.47.93-.92 1.26a3.56 3.56 0 0 1-2.77.43 2 2 0 0 1-.71-.36c-.2-.17-.37-.37-.48-.59-.34-.64-.14-1.35-.01-2.01.1-.75.5-1.45 1.1-1.97a2.8 2.8 0 0 1 1.33-.53Zm.15 1.1c-.21.05-.4.14-.57.27-.16.13-.28.3-.36.48a5.4 5.4 0 0 0-.37 1.7.66.66 0 0 0 .03.34c.04.11.1.21.2.3.2.12.43.2.67.2a1.22 1.22 0 0 0 1.09-.45 4.99 4.99 0 0 0 .53-2.16.73.73 0 0 0-.3-.55c-.28-.14-.6-.19-.92-.13ZM187 89.2c.4-.1.82-.12 1.24-.05.23.03.14.27.13.41-.27 1.47-.6 2.93-.87 4.4-.05.23-.06.58-.39.62a2.7 2.7 0 0 1-1.06-.05.62.62 0 0 1-.03-.45c.25-1.28.5-2.55.73-3.83.06-.36.14-.7.25-1.05Zm2 .02c.12-.07.25-.1.38-.1.3-.02.6 0 .88.05.16.02.13.2.16.3.06.88.1 1.76.14 2.64 0 .51.06 1.02.17 1.52.35-.37.6-.8.75-1.26.49-1.06.95-2.13 1.48-3.18.43-.09.88-.1 1.31-.04.22.05.11.28.05.4-.76 1.46-1.5 2.94-2.27 4.4-.19.3-.5.53-.87.65-.37.11-.78.1-1.15-.02a.94.94 0 0 1-.4-.31.78.78 0 0 1-.16-.46c-.18-1.37-.33-2.74-.48-4.12-.02-.16-.02-.32.02-.47Z"/></g><defs><clipPath id="b"><path fill="#fff" d="M0 45h19v25H0z"/></clipPath><clipPath id="d"><path fill="#fff" d="M53 45h16v25H53z"/></clipPath><clipPath id="f"><path fill="#fff" d="M163 45h26v28h-26z"/></clipPath><clipPath id="k"><path fill="#fff" d="M69 78h69v23H69z"/></clipPath><clipPath id="l"><path fill="#fff" d="M143 78h58v19h-58z"/></clipPath><filter id="g" width="26.38" height="26.38" x="162.81" y="43.5" color-interpolation-filters="sRGB" filterUnits="userSpaceOnUse"><feFlood flood-opacity="0" result="BackgroundImageFix"/><feColorMatrix in="SourceAlpha" result="hardAlpha" values="0 0 0 0 0 0 0 0 0 0 0 0 0 0 0 0 0 0 127 0"/><feOffset dy=".5"/><feGaussianBlur stdDeviation=".5"/><feComposite in2="hardAlpha" operator="out"/><feColorMatrix values="0 0 0 0 0 0 0 0 0 0 0 0 0 0 0 0 0 0 0.199474 0"/><feBlend in2="BackgroundImageFix" result="effect1_dropShadow_167_9"/><feBlend in="SourceGraphic" in2="effect1_dropShadow_167_9" result="shape"/></filter><filter id="i" width="14.19" height="15" x="169.31" y="49.19" color-interpolation-filters="sRGB" filterUnits="userSpaceOnUse"><feFlood flood-opacity="0" result="BackgroundImageFix"/><feColorMatrix in="SourceAlpha" result="hardAlpha" values="0 0 0 0 0 0 0 0 0 0 0 0 0 0 0 0 0 0 127 0"/><feOffset dy=".5"/><feGaussianBlur stdDeviation=".5"/><feColorMatrix values="0 0 0 0 0 0 0 0 0 0 0 0 0 0 0 0 0 0 0.204257 0"/><feBlend in2="BackgroundImageFix" result="effect1_dropShadow_167_9"/><feBlend in="SourceGraphic" in2="effect1_dropShadow_167_9" result="shape"/></filter><linearGradient id="h" x1="1382.56" x2="1382.56" y1="44" y2="2481.5" gradientUnits="userSpaceOnUse"><stop stop-color="#fff" stop-opacity=".5"/><stop offset="1" stop-opacity=".5"/></linearGradient></defs></svg>