<svg xmlns="http://www.w3.org/2000/svg" width="202" height="68" fill="none"><path fill="#1434CB" d="M30.582 3.542c-3.283 0-6.23 1.761-6.23 4.993 0 3.722 5.206 3.976 5.206 5.828 0 .78-.882 1.489-2.365 1.489-2.118 0-3.706-.98-3.706-.98l-.67 3.267s1.817.835 4.253.835c3.6 0 6.424-1.834 6.424-5.138 0-3.921-5.224-4.176-5.224-5.9 0-.618.724-1.29 2.206-1.29 1.677 0 3.054.709 3.054.709l.67-3.16c-.017 0-1.518-.653-3.618-.653ZM.507 3.778l-.089.472s1.377.254 2.63.78c1.606.6 1.712.945 1.995 2.016L7.99 18.72h3.954l6.054-14.942h-3.936l-3.9 10.167-1.59-8.624c-.14-.98-.882-1.543-1.8-1.543H.507Zm19.08 0-3.09 14.942h3.76l3.071-14.942h-3.742Zm20.932 0c-.9 0-1.377.49-1.73 1.362l-5.506 13.58h3.936l.758-2.27h4.801l.46 2.27h3.476L43.696 3.778H40.52Zm.512 4.049 1.165 5.61h-3.124l1.959-5.61Z"/><path fill="#FFB600" d="M80.775 12c0 4.767-3.778 8.663-8.5 8.663-4.678 0-8.502-3.896-8.502-8.663s3.779-8.662 8.456-8.662c4.768 0 8.546 3.895 8.546 8.662Z"/><path fill="#F7981D" d="M72.274 3.338c4.678 0 8.501 3.895 8.501 8.662 0 4.767-3.778 8.663-8.5 8.663-4.678 0-8.502-3.896-8.502-8.663"/><path fill="#FF8500" d="M72.274 3.338c4.678 0 8.501 3.895 8.501 8.662 0 4.767-3.778 8.663-8.5 8.663"/><path fill="#FF5050" d="M60.85 3.338c-4.633.045-8.411 3.895-8.411 8.662 0 4.767 3.778 8.663 8.5 8.663 2.205 0 4.184-.871 5.713-2.246.315-.275.585-.596.855-.917h-1.755a10.56 10.56 0 0 1-.63-.87h3.014c.18-.276.36-.597.495-.917h-4.003a5.528 5.528 0 0 1-.36-.917h4.678c.27-.871.45-1.788.45-2.75 0-.642-.09-1.238-.18-1.833h-5.218c.045-.321.135-.596.225-.917h4.678a5.531 5.531 0 0 0-.36-.917h-3.958c.135-.32.315-.596.495-.917h3.013a4.355 4.355 0 0 0-.674-.916h-1.665c.27-.321.54-.596.855-.871-1.484-1.42-3.508-2.246-5.712-2.246 0-.091 0-.091-.045-.091Z"/><path fill="#E52836" d="M52.439 12c0 4.767 3.778 8.663 8.5 8.663 2.205 0 4.184-.871 5.713-2.246.315-.275.585-.596.855-.917h-1.755a10.56 10.56 0 0 1-.63-.87h3.014c.18-.276.36-.597.495-.917h-4.003a5.53 5.53 0 0 1-.36-.917h4.678c.27-.871.45-1.788.45-2.75 0-.642-.09-1.238-.18-1.833h-5.218c.045-.321.135-.596.225-.917h4.678a5.53 5.53 0 0 0-.36-.917h-3.958c.135-.32.315-.596.495-.916h3.013a4.354 4.354 0 0 0-.674-.917h-1.665c.27-.321.54-.596.855-.871-1.484-1.42-3.508-2.246-5.712-2.246h-.045"/><path fill="#CB2026" d="M60.94 20.663c2.204 0 4.183-.871 5.712-2.246.315-.275.585-.596.855-.917h-1.754c-.225-.275-.45-.596-.63-.87h3.013c.18-.276.36-.597.495-.917h-4.003a5.53 5.53 0 0 1-.36-.917h4.678c.27-.871.45-1.788.45-2.75 0-.642-.09-1.238-.18-1.833h-5.217c.044-.321.134-.596.224-.917h4.678a5.53 5.53 0 0 0-.36-.917h-3.958c.135-.32.315-.596.495-.916h3.013a4.35 4.35 0 0 0-.674-.917h-1.664c.27-.321.54-.596.854-.871-1.484-1.42-3.508-2.246-5.712-2.246h-.045"/><path fill="#fff" d="m63.953 14.2.135-.78c-.045 0-.135.047-.225.047-.315 0-.36-.184-.315-.275l.27-1.604h.495l.135-.871h-.45l.09-.55h-.9s-.54 3.025-.54 3.391c0 .55.316.78.72.78.27 0 .495-.092.585-.138Zm.315-1.467c0 1.284.855 1.604 1.574 1.604.675 0 .945-.137.945-.137l.18-.87s-.495.228-.945.228c-.99 0-.81-.733-.81-.733h1.845s.135-.596.135-.825c0-.596-.315-1.33-1.305-1.33-.944-.09-1.619.918-1.619 2.063Zm1.574-1.329c.495 0 .405.596.405.642h-.99c0-.046.09-.642.585-.642Zm5.713 2.796.18-1.008s-.45.229-.765.229c-.63 0-.9-.504-.9-1.054 0-1.1.54-1.696 1.17-1.696.45 0 .81.275.81.275l.134-.963s-.54-.229-1.034-.229c-1.035 0-2.07.917-2.07 2.659 0 1.145.54 1.925 1.62 1.925.36 0 .855-.138.855-.138Zm-12.55-3.62c-.629 0-1.079.182-1.079.182l-.135.78s.405-.184.99-.184c.315 0 .584.046.584.321 0 .184-.044.23-.044.23h-.405c-.765 0-1.62.32-1.62 1.374 0 .825.54 1.009.855 1.009.63 0 .9-.413.945-.413l-.045.367h.81l.36-2.521c0-1.1-.9-1.146-1.215-1.146Zm.18 2.062c0 .137-.09.87-.63.87-.269 0-.359-.229-.359-.366 0-.23.135-.55.81-.55.135.046.18.046.18.046Zm1.89 1.65c.225 0 1.349.046 1.349-1.192 0-1.146-1.08-.917-1.08-1.375 0-.23.18-.32.495-.32.135 0 .63.045.63.045l.135-.825s-.315-.092-.855-.092c-.674 0-1.349.275-1.349 1.192 0 1.054 1.125.963 1.125 1.375 0 .275-.315.32-.54.32-.405 0-.81-.137-.81-.137l-.135.825c.045.092.27.184 1.035.184ZM79.02 9.846l-.18 1.237s-.36-.458-.855-.458c-.81 0-1.529 1.008-1.529 2.2 0 .733.36 1.513 1.125 1.513.54 0 .854-.367.854-.367l-.045.32h.9l.674-4.4-.944-.045Zm-.405 2.429c0 .504-.225 1.146-.72 1.146-.314 0-.494-.275-.494-.733 0-.734.314-1.192.72-1.192.314 0 .494.229.494.779Zm-24.513 1.97.54-3.3.09 3.3h.63l1.169-3.3-.495 3.3h.945l.72-4.4h-1.485l-.9 2.705-.044-2.704h-1.305l-.72 4.4h.855Zm13.943 0c.27-1.512.315-2.75.945-2.52.09-.596.225-.825.315-1.054h-.18c-.405 0-.72.55-.72.55l.09-.504h-.855l-.584 3.575h.99v-.046Zm5.578-3.666c-.63 0-1.08.183-1.08.183l-.135.78s.405-.184.99-.184c.314 0 .584.046.584.321 0 .184-.045.23-.045.23h-.404c-.765 0-1.62.32-1.62 1.374 0 .825.54 1.009.855 1.009.63 0 .9-.413.944-.413l-.044.367h.81l.359-2.521c.045-1.1-.9-1.146-1.214-1.146Zm.224 2.063c0 .137-.09.87-.63.87-.27 0-.36-.229-.36-.366 0-.23.136-.55.81-.55.135.046.135.046.18.046Zm1.755 1.604c.27-1.513.314-2.75.944-2.521.09-.596.225-.825.315-1.054h-.18c-.405 0-.72.55-.72.55l.09-.504h-.854l-.585 3.575h.99v-.046Z"/><path fill="#DCE5E5" d="M62.559 13.558c0 .55.315.78.72.78.314 0 .584-.092.674-.138l.135-.78c-.045 0-.135.047-.225.047-.315 0-.36-.184-.315-.275l.27-1.604h.495l.135-.871h-.45l.09-.55m.63 2.566c0 1.284.405 1.604 1.124 1.604.675 0 .945-.137.945-.137l.18-.87s-.495.228-.945.228c-.99 0-.81-.733-.81-.733h1.845s.135-.596.135-.825c0-.596-.315-1.33-1.305-1.33-.944-.09-1.17.918-1.17 2.063Zm1.124-1.329c.495 0 .585.596.585.642h-1.17c0-.046.09-.642.585-.642Zm5.713 2.796.18-1.008s-.45.229-.765.229c-.63 0-.9-.504-.9-1.054 0-1.1.54-1.696 1.17-1.696.45 0 .81.275.81.275l.134-.963s-.54-.229-1.034-.229c-1.035 0-1.62.917-1.62 2.659 0 1.145.09 1.925 1.17 1.925.36 0 .855-.138.855-.138ZM57.79 11.588s.405-.184.99-.184c.315 0 .584.046.584.321 0 .183-.044.23-.044.23h-.405c-.765 0-1.62.32-1.62 1.374 0 .825.54 1.008.855 1.008.63 0 .9-.412.945-.412l-.045.367h.81l.36-2.521c0-1.054-.9-1.1-1.26-1.1m.674 1.97c0 .138-.54.871-1.08.871-.269 0-.359-.229-.359-.366 0-.23.135-.55.81-.55.135.046.63.046.63.046Zm.45 1.559s.27.092 1.035.092c.225 0 1.349.046 1.349-1.192 0-1.146-1.08-.917-1.08-1.375 0-.23.18-.32.495-.32.135 0 .63.045.63.045l.135-.825s-.315-.092-.855-.092c-.674 0-.9.275-.9 1.192 0 1.054.675.963.675 1.375 0 .275-.314.32-.54.32m17.812-2.337s-.36-.458-.855-.458c-.81 0-1.08 1.008-1.08 2.2 0 .733-.09 1.513.675 1.513.54 0 .855-.367.855-.367l-.045.32h.9l.674-4.4m-1.17 2.384c0 .504-.404 1.146-.899 1.146-.314 0-.494-.275-.494-.733 0-.734.314-1.192.72-1.192.314 0 .674.229.674.779Zm-24.692 1.97.54-3.3.09 3.3h.63l1.169-3.3-.495 3.3h.945l.72-4.4h-1.125l-1.26 2.705-.044-2.704h-.495l-1.53 4.4h.855Zm12.999 0h.944c.27-1.512.315-2.75.945-2.52.09-.596.225-.825.315-1.054h-.18c-.405 0-.72.55-.72.55l.09-.504m3.913.87s.405-.183.99-.183c.314 0 .584.046.584.321 0 .183-.045.23-.045.23h-.404c-.765 0-1.62.32-1.62 1.374 0 .825.54 1.008.855 1.008.63 0 .9-.412.944-.412l-.044.367h.81l.359-2.521c0-1.054-.9-1.1-1.26-1.1m.675 1.97c0 .138-.54.871-1.08.871-.27 0-.36-.229-.36-.366 0-.23.136-.55.81-.55.18.046.63.046.63.046Zm.405 1.605h.945c.27-1.513.314-2.75.944-2.521.09-.596.225-.825.315-1.054h-.18c-.405 0-.72.55-.72.55l.09-.504"/><path fill="#83BA3B" d="M144.454 6.601c-.749-.74-1.883-1.112-3.37-1.112h-3.892l-1.447 11.317h-5.1l.328-2.568h3.072l.364-2.883-3.07.006.328-2.556h3.164l.421-3.316h-6.425l-1.374 10.736h-2.358l1.383-10.736h-3.359l-1.374 10.735h-2.297l1.384-10.735h-3.357l-1.449 11.317h-5.136l.325-2.567h3.084l.365-2.868-3.082-.005.327-2.56h3.2l.418-3.318H95.503l-1.14 8.969-2.269-8.969h-3.485l-1.876 14.637h3.329l1.135-9.216 2.202 9.216h11.928l1.451-11.321h1.865l-1.45 11.32h31.385l.91-7.145 1.472 7.146h3.33l-1.526-5.84.349-.108c.769-.237 1.368-.747 1.786-1.511.417-.771.629-1.762.629-2.951 0-1.385-.351-2.404-1.075-3.115l.001.001Zm-42.023 10.205h-5.094l.329-2.568h3.195l.362-2.892h-3.164l.304-2.54h5.088l-1.021 8h.001Zm39.279-4.93c-.335.338-.82.502-1.484.502h-.658l.505-3.928h.484c.551 0 .953.127 1.23.387.217.203.474.606.474 1.368 0 .921-.3 1.417-.552 1.671h.001Z"/><path fill="#872165" d="M183.814 19.833h3.91V8.207h-3.91v11.626Zm-2.212-11.794c-3.614.126-5.45 1.84-5.45 5.249v6.545h3.949V14.5c0-2.05.257-2.928 2.548-3.011V8.08a5.095 5.095 0 0 0-.81-.063l-.237.021ZM152 9.001c0 1.338.553 4.496 5.589 4.872.434.021 1.56.105 1.56 1.234 0 .92-.928 1.485-2.488 1.485a12.683 12.683 0 0 1-4.385-.92v3.722a19.91 19.91 0 0 0 5.214.627c4.305 0 6.24-2.572 6.24-5.123 0-2.886-2.172-4.768-5.786-5.019-.494-.041-1.639-.104-1.639-1.212 0-1.318 1.639-1.318 2.271-1.318 1.086 0 2.488.335 3.495.67 0 0 .553.209 1.047.418l.04.02V4.82l-.06-.02c-1.185-.44-2.567-.858-5.114-.858-4.424 0-5.984 2.718-5.984 5.06Zm12.718-4.224v15.056h4.028V15.17c1.165 1.86 1.758 4.663 1.758 4.663h4.838c-.474-2.112-2.567-5.98-2.567-5.98 1.244-1.694 2.192-3.597 2.843-5.646h-4.64a14.838 14.838 0 0 1-2.232 4.056V3.941l-4.028.836Zm24.665-.104v15.16h3.91V3.94l-3.91.732Zm5.707 0v15.16H199V3.94l-3.91.732ZM185.769 3c-1.066 0-1.935.92-1.935 2.05 0 1.128.869 2.048 1.935 2.048s1.935-.92 1.935-2.049C187.684 3.92 186.835 3 185.769 3Z"/><mask id="a" width="47" height="18" x="152" y="3" maskUnits="userSpaceOnUse" style="mask-type:luminance"><path fill="#fff" d="M183.814 19.833h3.91V8.207h-3.91v11.626Zm-2.212-11.794c-3.614.126-5.45 1.84-5.45 5.249v6.545h3.949V14.5c0-2.05.257-2.928 2.548-3.011V8.08a5.095 5.095 0 0 0-.81-.063l-.237.021ZM152 9.001c0 1.338.553 4.496 5.589 4.872.434.021 1.56.105 1.56 1.234 0 .92-.928 1.485-2.488 1.485a12.683 12.683 0 0 1-4.385-.92v3.722a19.91 19.91 0 0 0 5.214.627c4.305 0 6.24-2.572 6.24-5.123 0-2.886-2.172-4.768-5.786-5.019-.494-.041-1.639-.104-1.639-1.212 0-1.318 1.639-1.318 2.271-1.318 1.086 0 2.488.335 3.495.67 0 0 .553.209 1.047.418l.04.02V4.82l-.06-.02c-1.185-.44-2.567-.858-5.114-.858-4.424 0-5.984 2.718-5.984 5.06Zm12.718-4.224v15.056h4.028V15.17c1.165 1.86 1.758 4.663 1.758 4.663h4.838c-.474-2.112-2.567-5.98-2.567-5.98 1.244-1.694 2.192-3.597 2.843-5.646h-4.64a14.838 14.838 0 0 1-2.232 4.056V3.941l-4.028.836Zm24.665-.104v15.16h3.91V3.94l-3.91.732Zm5.707 0v15.16H199V3.94l-3.91.732ZM185.769 3c-1.066 0-1.935.92-1.935 2.05 0 1.128.869 2.048 1.935 2.048s1.935-.92 1.935-2.049C187.684 3.92 186.835 3 185.769 3Z"/></mask><g mask="url(#a)"><path fill="#872165" d="M199 3h-47v17h47V3Z"/></g><mask id="b" width="17" height="17" x="1" y="33" maskUnits="userSpaceOnUse" style="mask-type:luminance"><path fill="#fff" d="M17.145 33.92H1.188v15.983h15.957V33.92Z"/></mask><g mask="url(#b)"><path fill="#F7931A" d="M16.906 43.845c-1.066 4.281-5.395 6.886-9.67 5.819-4.274-1.067-6.876-5.404-5.81-9.685 1.066-4.282 5.395-6.887 9.67-5.82 4.274 1.067 6.876 5.404 5.81 9.686Z"/><path fill="#fff" d="M12.684 40.773c.16-1.064-.65-1.635-1.755-2.017l.36-1.44-.877-.219-.349 1.403c-.23-.057-.466-.112-.701-.165l.351-1.412-.875-.219-.358 1.44a29.62 29.62 0 0 1-.56-.131l.001-.005-1.207-.302-.233.937s.65.149.636.158c.355.089.419.324.408.51l-.408 1.641a.7.7 0 0 1 .09.03l-.092-.023-.573 2.299c-.043.108-.153.27-.4.208.008.013-.637-.159-.637-.159l-.435 1.004 1.14.284c.212.054.42.11.624.162l-.363 1.457.875.218.359-1.441c.239.065.47.124.698.181l-.358 1.435.876.218.362-1.454c1.493.283 2.616.169 3.088-1.184.381-1.089-.019-1.717-.804-2.126.572-.133 1.003-.51 1.117-1.288Zm-2 2.81c-.27 1.089-2.101.5-2.695.352l.481-1.93c.593.148 2.497.442 2.214 1.578Zm.27-2.826c-.246.99-1.77.488-2.264.364l.436-1.75c.494.123 2.086.353 1.829 1.386Z"/></g><g clip-path="url(#c)"><path fill="#343434" d="m30.498 30.6-.142.456v13.221l.142.134 6.498-3.628L30.498 30.6Z"/><path fill="#8C8C8C" d="M30.498 30.6 24 40.783l6.498 3.628V30.6Z"/><path fill="#3C3C3B" d="m30.498 45.573-.08.092v4.71l.08.22L37 41.948l-6.502 3.626Z"/><path fill="#8C8C8C" d="M30.498 50.596v-5.023L24 41.947l6.498 8.648Z"/><path fill="#141414" d="m30.498 44.41 6.498-3.627-6.498-2.79v6.418Z"/><path fill="#393939" d="m24 40.783 6.498 3.628v-6.417L24 40.784Z"/></g><mask id="d" width="17" height="18" x="43" y="33" maskUnits="userSpaceOnUse" style="mask-type:luminance"><path fill="#fff" d="M59.813 33.578H43.186v16.855h16.626V33.578Z"/></mask><g mask="url(#d)"><path fill="#fff" d="M51.5 49.52c4.094 0 7.413-3.364 7.413-7.515 0-4.15-3.319-7.515-7.413-7.515s-7.413 3.365-7.413 7.515c0 4.151 3.32 7.516 7.413 7.516Z"/><path fill="#345D9D" d="M51.5 33.578a8.232 8.232 0 0 0-4.618 1.42 8.403 8.403 0 0 0-3.062 3.783 8.535 8.535 0 0 0-.473 4.869 8.464 8.464 0 0 0 2.275 4.315 8.278 8.278 0 0 0 4.256 2.306 8.207 8.207 0 0 0 4.803-.48 8.339 8.339 0 0 0 3.73-3.103 8.51 8.51 0 0 0 1.401-4.683 8.503 8.503 0 0 0-.621-3.217 8.412 8.412 0 0 0-1.789-2.731 8.284 8.284 0 0 0-2.684-1.83 8.192 8.192 0 0 0-3.17-.649H51.5Zm.14 8.713-.865 2.959h4.63a.23.23 0 0 1 .167.063.237.237 0 0 1 .074.165v.078l-.402 1.408a.304.304 0 0 1-.112.166.297.297 0 0 1-.19.058h-7.085l1.188-4.101-1.329.408.302-.939 1.328-.408 1.67-5.754a.308.308 0 0 1 .114-.165.3.3 0 0 1 .189-.06h1.791a.23.23 0 0 1 .22.14.24.24 0 0 1 .022.09v.077l-1.41 4.856 1.33-.408-.283.98-1.348.387Z"/></g><path fill="#50AF95" fill-rule="evenodd" d="m70.407 34.707-3.217 6.819a.133.133 0 0 0 .028.154l8.69 8.402a.132.132 0 0 0 .184 0l8.69-8.401a.133.133 0 0 0 .028-.154l-3.217-6.82a.131.131 0 0 0-.119-.077H70.527a.129.129 0 0 0-.12.077Z" clip-rule="evenodd"/><path fill="#fff" fill-rule="evenodd" d="M77.077 42.137c-.06.005-.37.023-1.064.023-.552 0-.943-.016-1.08-.023-2.132-.091-3.723-.454-3.723-.888s1.591-.796 3.722-.89v1.417c.14.01.539.033 1.09.033.662 0 .993-.027 1.053-.032V40.36c2.127.092 3.714.455 3.714.888s-1.587.796-3.714.888h.002Zm0-1.923v-1.268h2.968v-1.933h-8.08v1.933h2.967v1.268c-2.412.108-4.226.575-4.226 1.134 0 .56 1.814 1.026 4.226 1.135v4.062h2.145v-4.063c2.406-.109 4.217-.575 4.217-1.134 0-.56-1.81-1.026-4.217-1.134Z" clip-rule="evenodd"/><g clip-path="url(#e)"><path fill="#FEFEFE" fill-rule="evenodd" d="M108.597 44.157a29.722 29.722 0 0 1-3.791 2.503 53.439 53.439 0 0 1-8.898 3.92c-1.015.346-2.211.546-3.221.084-.645-.307-1.125-.827-1.335-1.445a9.79 9.79 0 0 1-.342-1.466c-.782-3.84-.444-8.32.436-12.152.218-.951.734-2.233 1.882-2.575a3.82 3.82 0 0 1 1.742-.049c.18.035.355.082.526.14 3.708 1.163 7.183 2.833 10.298 4.947.896.618 1.879 1.259 2.702 1.947.578.416.988.984 1.168 1.621.035.181.044.365.027.547a2.564 2.564 0 0 1-.363 1.098c-.205.34-.488.64-.831.88Z" clip-rule="evenodd"/><path fill="#FFB700" fill-rule="evenodd" d="M92.084 49.005c.274.727 1.096 1.778 3.54.943 3.533-1.206 8.813-3.413 12.487-6.322.262-.18.477-.407.634-.666a1.93 1.93 0 0 0 .274-.834c.086-.997-.798-1.594-3.604-3.53-3.047-2.078-6.454-3.713-10.091-4.844a3.105 3.105 0 0 0-1.75-.085c-.718.213-1.162 1.143-1.374 2.063-.201.878-1.512 6.6-.432 11.899.076.464.182.923.316 1.376Z" clip-rule="evenodd"/><path fill="#FFDF77" fill-rule="evenodd" d="M92.558 34.694c-.15.482-.245.975-.282 1.473v-.017a8.266 8.266 0 0 1 3.184-.14c4.624.5 9.371 2.79 11.945 4.165l.693.363c-.207-.173-.42-.341-.639-.503l-.05-.037-.026-.018-.156-.114-.026-.02-.053-.038-.027-.02-.028-.019-.053-.04-.029-.02-.057-.041-.029-.02-.059-.042-.029-.021-.06-.042-.03-.022-.031-.021-.031-.022-.031-.021-.032-.023-.063-.043-.032-.023-.032-.022-.032-.023-.033-.023-.067-.047-.032-.024-.034-.023-.03-.02-.004-.003-.034-.024-.034-.024-.035-.023-.006-.005-.029-.02-.035-.024-.035-.025-.017-.011-.018-.013-.036-.025-.037-.025-.028-.02-.007-.006-.037-.025-.038-.025-.037-.025h-.003l-.034-.024-.037-.026-.039-.026-.015-.01-.023-.016-.038-.026-.039-.026-.028-.02-.012-.008-.038-.027-.04-.027-.039-.027c-3.048-2.078-6.455-3.714-10.092-4.845a3.108 3.108 0 0 0-1.75-.085l-.03.009h-.007l-.028.01h-.005l-.027.01h-.003l-.027.013-.006.002-.027.013-.006.002-.024.012-.005.003-.026.013-.007.004-.026.015-.005.003-.023.014-.005.003-.025.016-.006.005-.026.017-.026.019-.003.002-.025.02-.005.004-.023.018-.025.02-.005.005-.024.021-.004.003-.021.02-.004.004-.023.022-.005.005-.022.023-.004.003-.02.022-.005.005-.023.024-.005.006-.02.024-.02.023-.005.007-.02.024-.006.008-.021.026-.305.503h-.002Zm.046-.038-.004.005-.02.029-.004.004-.02.03-.02.028-.003.005-.02.03-.004.005-.015.025-.006.008-.017.029-.005.007-.017.029v.006l-.016.028-.004.007-.017.03-.005.007-.017.033-.016.03-.005.01-.016.032-.004.006.255-.422Z" clip-rule="evenodd"/><path fill="#FFCE00" fill-rule="evenodd" d="M92.277 36.15a8.27 8.27 0 0 1 3.186-.14c4.623.5 9.37 2.79 11.944 4.164-2.154 5.469-11.602 9.383-11.602 9.383-1.13-.993-2.22-1.915-3.27-8.76a19.44 19.44 0 0 1-.258-4.647Z" clip-rule="evenodd"/><path fill="#fff" d="M114.27 34.042c1.02-.096 2.045-.13 3.07-.103a3.739 3.739 0 0 1 1.942.527c.194.176.337.39.417.626.079.235.093.483.04.724.029.817-.29 1.615-.895 2.237a3.612 3.612 0 0 1-2.135.848 9.598 9.598 0 0 1-2.287.02c-.186.645-.373 1.288-.519 1.942-.04.19-.127.418-.374.465-.289.016-.58.02-.869.01-.176.021-.355.01-.526-.033-.155-.08-.058-.258-.053-.383.211-.912.425-1.823.64-2.734.05-.268.124-.53.22-.787.823-.014 1.647-.005 2.47-.007.128 0 .253.033.361.095a3.242 3.242 0 0 0-.095.625 8.73 8.73 0 0 0 1.161-.755c.429-.308.839-.637 1.227-.985-.553-.61-1.121-1.206-1.683-1.808-.16.202-.071.536-.345.661a6.497 6.497 0 0 1-1.198.024c-.474.024-.948.01-1.418-.044a1.784 1.784 0 0 1 .227-.947c.13-.182.406-.184.622-.218Zm6.651 2.136a4.545 4.545 0 0 1 2.431.027c.2.065.378.173.519.314.14.14.239.309.288.491.185.642-.082 1.284-.184 1.919-.107.657-.251 1.31-.377 1.967a.547.547 0 0 1-.125.327.674.674 0 0 1-.312.21 8.576 8.576 0 0 1-2.39.183c-.293.036-.592.001-.864-.101a1.608 1.608 0 0 1-.68-.48 1.28 1.28 0 0 1-.136-1.47c.053-.236.173-.456.349-.64.175-.185.4-.329.655-.417a8.193 8.193 0 0 1 2.014-.219c.169-.02.373.012.515-.094a1.05 1.05 0 0 0 .059-.772c-.126-.281-.522-.315-.82-.301a6.522 6.522 0 0 0-1.812.332c-.122-.28-.114-.59.024-.865.212-.226.515-.372.846-.41Zm-.398 3.49a.868.868 0 0 0-.029.68c.153.139.346.24.558.294.212.053.437.057.651.01.212-.026.523-.069.534-.306.099-.377.145-.764.136-1.151a6.03 6.03 0 0 0-1.394.05.691.691 0 0 0-.292.158.574.574 0 0 0-.164.265Zm6.034-3.44a6.793 6.793 0 0 1 3.147-.027c.204.013.402.072.572.172a.502.502 0 0 1 .032.428c-.354 1.702-.667 3.41-1.051 5.105-.04.26-.143.51-.303.733-.16.222-.372.411-.622.555a4.974 4.974 0 0 1-2.099.28 2.817 2.817 0 0 1-.972-.105 2.605 2.605 0 0 1-.851-.427c-.125-.255.068-.513.169-.745.153.003.304.02.451.052a6.103 6.103 0 0 0 2.289.115c.406-.086.485-.495.52-.804a4.196 4.196 0 0 1-2.156-.162 1.695 1.695 0 0 1-.677-.511 1.417 1.417 0 0 1-.3-.739 5.744 5.744 0 0 1 .534-2.796c.116-.259.293-.493.519-.687a2.3 2.3 0 0 1 .795-.438h.003v.001Zm1.083.841a1.698 1.698 0 0 0-.568.206c-.172.101-.32.231-.435.382-.162.27-.27.562-.32.864a3.961 3.961 0 0 0-.134 1.615.557.557 0 0 0 .199.273.678.678 0 0 0 .339.128c.422.067.857.047 1.27-.06.138-.024.142-.166.173-.261.181-.886.344-1.774.524-2.66a.53.53 0 0 0-.008-.357 1.724 1.724 0 0 0-1.043-.13h.003Zm5.561-1.02a3.245 3.245 0 0 1 1.862.236c.275.143.505.344.67.584.166.24.26.513.276.793a5.774 5.774 0 0 1-.29 1.903 2.791 2.791 0 0 1-.868 1.412 3.241 3.241 0 0 1-1.445.623 3.465 3.465 0 0 1-1.606-.107 1.785 1.785 0 0 1-.713-.433 1.484 1.484 0 0 1-.392-.678c-.2-.869-.11-1.77.26-2.595.16-.44.453-.835.848-1.142a3.1 3.1 0 0 1 1.396-.597h.002Zm.014 1.172c-.197.055-.377.15-.523.279a1.12 1.12 0 0 0-.319.46 5.053 5.053 0 0 0-.345 1.748.724.724 0 0 0 .055.343c.047.11.12.208.215.29.153.083.324.137.501.158.178.02.359.009.531-.035.162-.031.313-.096.441-.188a.935.935 0 0 0 .292-.346 4.206 4.206 0 0 0 .474-1.919.687.687 0 0 0-.055-.388.785.785 0 0 0-.265-.315 1.33 1.33 0 0 0-1.002-.085v-.002Zm-37.883 2.003c.187-.51.384-1.017.575-1.526h4.556a3.69 3.69 0 0 1 2.165.613c.455.335.758.803.855 1.318.12.544.093 1.105-.079 1.638a3.451 3.451 0 0 1-.913 1.431c-.82.725-1.91 1.166-3.07 1.242-.973.05-1.949.043-2.921-.02-.28.994-.508 2-.771 3.001-.733-.028-1.468-.067-2.202-.078.357-1.572.772-3.134 1.13-4.706 1.215-.013 2.429 0 3.642-.005.005.329 0 .657 0 .985 1.02-.76 2.013-1.548 3.026-2.313-.751-.832-1.517-1.654-2.26-2.49-.102.298-.196.6-.279.904-1.152.013-2.304 0-3.457.008l.003-.002Zm23.163 3.128a3.374 3.374 0 0 1 2.135-.117c.064.275.008.562-.157.802-.349.15-.784.035-1.121.214-.267.206-.209.557-.259.837.368.039.744.004 1.108.074.048.142.06.292.034.438a.921.921 0 0 1-.183.409c-.32.178-.734.094-1.094.126a.873.873 0 0 0-.189.398c-.275 1.348-.534 2.699-.811 4.047a1.997 1.997 0 0 1-.688 1.281 2.745 2.745 0 0 1-1.631.317c-.227-.025-.518-.004-.662-.191a1.248 1.248 0 0 1 .14-.744c.318-.013.635-.041.95-.083.325-.098.391-.431.449-.688.213-1.16.45-2.317.686-3.474.071-.265.111-.535.121-.808-.303-.1-.689-.013-.923-.246a.588.588 0 0 1 .027-.708c.262-.24.676-.035.994-.126.227-.113.232-.375.283-.572a1.43 1.43 0 0 1 .237-.674 1.67 1.67 0 0 1 .551-.514l.003.002Zm16.685.486c.063-.222.067-.532.341-.64.395-.037.797-.016 1.196-.02a1.79 1.79 0 0 1-.137 1.203c-.4.08-.815.09-1.22.028-.29-.066-.212-.383-.183-.573l.003.002Zm-22.274-.414a11.71 11.71 0 0 1 2.994-.004c.124.017.247.043.367.076.071.272.041.555-.085.81-.098.176-.342.196-.534.201-.662.012-1.323-.011-1.984.009a.913.913 0 0 0-.45.08.78.78 0 0 0-.329.281 5.552 5.552 0 0 0-.337 1.463c.9 0 1.8-.002 2.701 0 .147-.006.394.024.374.2a1.959 1.959 0 0 1-.128.66.436.436 0 0 1-.199.188.52.52 0 0 1-.286.047c-.785.004-1.57-.007-2.355 0a.413.413 0 0 0-.277.074.318.318 0 0 0-.131.227 5.812 5.812 0 0 0-.173 1.418c.025.252.339.328.58.336.761.016 1.523-.01 2.284.016.171.005.142.187.173.294.042.285-.046.694-.437.74-1.113.102-2.296.27-3.368-.113a1.43 1.43 0 0 1-.573-.466 1.199 1.199 0 0 1-.228-.657 3 3 0 0 1 .115-1.129c.193-.975.388-1.95.596-2.923a2.54 2.54 0 0 1 .587-1.25c.283-.294.67-.498 1.1-.58l.003.002Zm19.045.83c.442-.193.937-.271 1.427-.225.014.354-.134.695-.114 1.05.32.007.639.045.95.114.19.076.156.292.123.44-.058.2-.144.486-.439.479-.304.06-.822-.1-.92.266-.182.783-.32 1.574-.476 2.362-.063.273-.1.552-.112.83.323.075.66.091.991.048a.59.59 0 0 1 .052.63.684.684 0 0 1-.235.252.807.807 0 0 1-.345.122c-.534-.004-1.129.088-1.585-.21a1.003 1.003 0 0 1-.33-.444.89.89 0 0 1-.026-.531c.157-1.087.441-2.157.587-3.246-.344-.08-.767-.01-1.031-.257a.58.58 0 0 1-.085-.37.607.607 0 0 1 .164-.349c.332-.191.76-.03 1.116-.15.234-.222.085-.577.287-.812h.001Zm-9.619.853c.6-.121 1.23-.058 1.783.18.323.206.58.481.749.8.168.317.241.667.212 1.017.018.389-.021.777-.116 1.157-.625.066-1.254.086-1.883.06-.602.012-1.206-.022-1.807.011a.791.791 0 0 0-.064.593.89.89 0 0 0 .375.496c.325.104.671.143 1.015.113.625-.05 1.244-.15 1.85-.295 0 .34.101.797-.282 1.012a6.24 6.24 0 0 1-1.329.404c-.68.16-1.405.086-2.024-.21a1.83 1.83 0 0 1-.687-.51 1.537 1.537 0 0 1-.337-.733 4.765 4.765 0 0 1 .674-3.054c.197-.291.469-.537.795-.718.326-.18.696-.291 1.08-.322h-.005.001Zm-.357 1.308a1.42 1.42 0 0 0-.511.96c.735.008 1.474.034 2.209-.015a.807.807 0 0 0 .053-.447.846.846 0 0 0-.198-.415 1.08 1.08 0 0 0-.34-.231 1.21 1.21 0 0 0-.843-.046 1.12 1.12 0 0 0-.37.194Zm4.409-.46a2.61 2.61 0 0 1 1.006-.695 2.952 2.952 0 0 1 1.261-.196c.488.005.968.112 1.399.313.32.18.091.546.048.803-.022.245-.367.166-.556.166-.446.02-.845-.295-1.289-.164a1.27 1.27 0 0 0-.5.224 1.069 1.069 0 0 0-.329.398 4.618 4.618 0 0 0-.427 2.14.475.475 0 0 0 .095.325.592.592 0 0 0 .3.206c.66.188 1.335-.05 1.984-.159.068.316.021.643-.133.934a1.07 1.07 0 0 1-.342.211 1.19 1.19 0 0 1-.409.078c-.35.028-.699.072-1.05.103a2.073 2.073 0 0 1-1.155-.331 1.675 1.675 0 0 1-.688-.88 4.515 4.515 0 0 1 .042-1.725 4.305 4.305 0 0 1 .741-1.753l.002.002Zm18.058-.849a3.893 3.893 0 0 1 1.742.125c.313.133.58.336.774.59.194.253.307.547.328.851a5.389 5.389 0 0 1-.384 2.2c-.15.491-.47.93-.918 1.254a3.376 3.376 0 0 1-1.329.503 3.56 3.56 0 0 1-1.444-.073 2.006 2.006 0 0 1-.711-.359 1.736 1.736 0 0 1-.477-.585c-.34-.638-.146-1.357-.014-2.016.102-.749.493-1.444 1.109-1.97.375-.28.834-.462 1.322-.523l.002.002v.001Zm.151 1.11a1.381 1.381 0 0 0-.571.267c-.163.13-.285.293-.357.475a5.409 5.409 0 0 0-.378 1.701.664.664 0 0 0 .03.342c.04.11.109.211.2.295a1.431 1.431 0 0 0 1.367.074 1.22 1.22 0 0 0 .393-.318c.103-.13.173-.278.206-.433.209-.558.317-1.14.32-1.728a.636.636 0 0 0-.08-.305.726.726 0 0 0-.225-.244 1.367 1.367 0 0 0-.907-.13l.002.003Zm-9.606-1.024a2.92 2.92 0 0 1 1.239-.052c.229.03.139.274.137.412-.272 1.468-.595 2.93-.876 4.396-.043.23-.053.578-.387.622a2.69 2.69 0 0 1-1.055-.047.616.616 0 0 1-.036-.456c.25-1.276.494-2.552.735-3.829a6.98 6.98 0 0 1 .241-1.051l.002.005Zm2.011.017a.623.623 0 0 1 .373-.094c.295-.023.592-.01.883.04.155.023.123.204.156.307.059.879.094 1.76.143 2.64.002.51.059 1.02.171 1.52.343-.374.597-.805.748-1.267.488-1.06.948-2.13 1.475-3.175.432-.09.88-.103 1.317-.04.219.048.108.277.047.402-.763 1.463-1.496 2.94-2.266 4.4-.195.301-.506.53-.878.647-.371.116-.778.11-1.145-.016a.944.944 0 0 1-.411-.316.781.781 0 0 1-.153-.46c-.176-1.37-.328-2.742-.476-4.115a1.217 1.217 0 0 1 .02-.477l-.004.004Z"/></g><mask id="f" width="45" height="11" x="156" y="37" maskUnits="userSpaceOnUse" style="mask-type:luminance"><path fill="#fff" d="M200.394 37.408h-44.223v10.58h44.223v-10.58Z"/></mask><g mask="url(#f)"><path fill="#fff" d="M162.034 41.49v-.117c0-1.332-.616-1.969-1.585-1.969s-1.6.68-1.6 1.955v.116c0 1.288.6 1.94 1.6 1.94s1.585-.68 1.585-1.926Zm-.6-4.041c1.877 0 3.4 1.332 3.4 3.924v.116c0 2.607-1.523 3.91-3.416 3.91-1.215 0-2.092-.535-2.493-1.289v3.65h-2.754V37.65h2.754v1.13c.462-.724 1.293-1.332 2.509-1.332ZM171.408 41.433v-.115c0-1.318-.584-1.955-1.508-1.955-.969 0-1.539.651-1.539 1.97v.115c0 1.274.585 1.926 1.493 1.926.908 0 1.554-.651 1.554-1.94Zm-5.848.044v-.116c.001-2.578 1.57-3.953 3.371-3.953 1.215 0 1.939.492 2.4 1.26V37.61h2.755v7.574h-2.755v-1.217c-.415.768-1.261 1.39-2.416 1.39-1.785 0-3.354-1.26-3.354-3.88M179.595 41.692l1.539-4.04h2.631l-4.309 10.108h-2.631l1.339-3.302-3.216-6.806h2.985l1.662 4.04ZM183.907 45.225V43.43l3.662-3.823h-3.215l-.016-1.956h6.447v1.912l-3.508 3.693h3.77v1.97h-7.14Z"/><path fill="#D0FA02" d="M192.345 44.209c.033-2.086 1.711-3.795 3.992-3.795 2.282 0 4.057 1.709 4.057 3.795 0 2.085-1.727 3.78-4.057 3.78-2.329 0-3.992-1.679-3.992-3.78Z"/></g><defs><clipPath id="c"><path fill="#fff" d="M24 33h13v20H24z"/></clipPath><clipPath id="e"><path fill="#fff" d="M91 33h58v19H91z"/></clipPath></defs></svg>