<svg width="202" height="110" viewBox="0 0 202 110" fill="none" xmlns="http://www.w3.org/2000/svg">
<path d="M30.5822 13.5419C27.2993 13.5419 24.3518 15.303 24.3518 18.5347C24.3518 22.2566 29.5585 22.5108 29.5585 24.3627C29.5585 25.1434 28.676 25.8514 27.1934 25.8514C25.0754 25.8514 23.4869 24.871 23.4869 24.871L22.8162 28.139C22.8162 28.139 24.6342 28.9742 27.0699 28.9742C30.6704 28.9742 33.4944 27.1405 33.4944 23.8362C33.4944 19.9145 28.2701 19.6604 28.2701 17.9356C28.2701 17.3183 28.9937 16.6465 30.4763 16.6465C32.153 16.6465 33.5297 17.3546 33.5297 17.3546L34.2004 14.1955C34.1828 14.1955 32.6825 13.5419 30.5822 13.5419ZM0.506707 13.778L0.418457 14.25C0.418457 14.25 1.79515 14.5042 3.0483 15.0307C4.65444 15.6298 4.76034 15.9748 5.04274 17.046L7.99028 28.72H11.9439L17.9978 13.778H14.0619L10.1612 23.9451L8.57273 15.3212C8.43153 14.3408 7.69023 13.778 6.77243 13.778H0.506707ZM19.5863 13.778L16.4975 28.72H20.257L23.3281 13.778H19.5863ZM40.5191 13.778C39.619 13.778 39.1424 14.2682 38.7894 15.1396L33.2826 28.72H37.2186L37.9775 26.4506H42.7783L43.2372 28.72H46.7142L43.6961 13.778H40.5191ZM41.031 17.8267L42.1958 23.4367H39.0718L41.031 17.8267Z" fill="#1434CB"/>
<path d="M80.775 22.0001C80.775 26.7667 76.9969 30.6626 72.2743 30.6626C67.5966 30.6626 63.7734 26.7667 63.7734 22.0001C63.7734 17.2334 67.5516 13.3376 72.2293 13.3376C76.9969 13.3376 80.775 17.2334 80.775 22.0001Z" fill="#FFB600"/>
<path d="M72.2743 13.3376C76.952 13.3376 80.775 17.2334 80.775 22.0001C80.775 26.7667 76.9969 30.6626 72.2743 30.6626C67.5966 30.6626 63.7734 26.7667 63.7734 22.0001" fill="#F7981D"/>
<path d="M72.2744 13.3376C76.9521 13.3376 80.7752 17.2334 80.7752 22.0001C80.7752 26.7667 76.997 30.6626 72.2744 30.6626" fill="#FF8500"/>
<path d="M60.8498 13.3376C56.2171 13.3834 52.439 17.2334 52.439 22.0001C52.439 26.7667 56.2171 30.6626 60.9398 30.6626C63.1436 30.6626 65.1227 29.7917 66.6519 28.4167C66.9668 28.1417 67.2366 27.8209 67.5065 27.5001H65.7524C65.5275 27.2251 65.3026 26.9042 65.1227 26.6292H68.1362C68.3161 26.3542 68.496 26.0334 68.631 25.7125H64.6279C64.493 25.4375 64.3581 25.1167 64.2681 24.7959H68.9458C69.2157 23.9251 69.3956 23.0084 69.3956 22.0459C69.3956 21.4042 69.3056 20.8084 69.2157 20.2125H63.9982C64.0433 19.8917 64.1332 19.6167 64.2232 19.2959H68.9008C68.8108 18.9751 68.6759 18.6542 68.541 18.3792H64.5829C64.7179 18.0584 64.8978 17.7834 65.0777 17.4625H68.0912C67.9113 17.1417 67.6864 16.8209 67.4166 16.5459H65.7524C66.0223 16.2251 66.2921 15.9501 66.607 15.6751C65.1227 14.2542 63.0987 13.4292 60.8947 13.4292C60.8947 13.3376 60.8948 13.3376 60.8498 13.3376Z" fill="#FF5050"/>
<path d="M52.439 22C52.439 26.7667 56.2171 30.6625 60.9398 30.6625C63.1436 30.6625 65.1227 29.7917 66.6519 28.4167C66.9668 28.1417 67.2366 27.8209 67.5065 27.5H65.7524C65.5275 27.225 65.3026 26.9042 65.1227 26.6292H68.1362C68.3161 26.3542 68.496 26.0333 68.631 25.7125H64.6279C64.493 25.4375 64.3581 25.1167 64.2681 24.7959H68.9458C69.2157 23.925 69.3956 23.0083 69.3956 22.0459C69.3956 21.4042 69.3056 20.8083 69.2157 20.2125H63.9982C64.0433 19.8917 64.1332 19.6167 64.2232 19.2959H68.9008C68.8108 18.975 68.6759 18.6542 68.541 18.3792H64.5829C64.7179 18.0583 64.8978 17.7833 65.0777 17.4625H68.0912C67.9113 17.1417 67.6864 16.8209 67.4166 16.5459H65.7524C66.0223 16.225 66.2921 15.95 66.607 15.675C65.1227 14.2542 63.0987 13.4292 60.8947 13.4292H60.8498" fill="#E52836"/>
<path d="M60.9401 30.6625C63.1439 30.6625 65.123 29.7917 66.6522 28.4167C66.9671 28.1417 67.2369 27.8209 67.5068 27.5H65.7526C65.5278 27.225 65.3029 26.9042 65.123 26.6292H68.1365C68.3164 26.3542 68.4963 26.0333 68.6312 25.7125H64.6282C64.4933 25.4375 64.3584 25.1167 64.2684 24.7959H68.9461C69.216 23.925 69.3959 23.0083 69.3959 22.0459C69.3959 21.4042 69.3059 20.8083 69.216 20.2125H63.9985C64.0435 19.8917 64.1334 19.6167 64.2234 19.2959H68.9011C68.8111 18.975 68.6762 18.6542 68.5413 18.3792H64.5832C64.7182 18.0583 64.8981 17.7833 65.078 17.4625H68.0915C67.9116 17.1417 67.6867 16.8209 67.4168 16.5459H65.7526C66.0225 16.225 66.2924 15.95 66.6072 15.675C65.123 14.2542 63.099 13.4292 60.895 13.4292H60.8501" fill="#CB2026"/>
<path d="M63.9533 24.2001L64.0882 23.4209C64.0432 23.4209 63.9533 23.4667 63.8633 23.4667C63.5484 23.4667 63.5035 23.2834 63.5484 23.1917L63.8183 21.5875H64.3131L64.448 20.7167H63.9982L64.0882 20.1667H63.1886C63.1886 20.1667 62.6489 23.1917 62.6489 23.5584C62.6489 24.1084 62.9638 24.3375 63.3685 24.3375C63.6384 24.3375 63.8633 24.2459 63.9533 24.2001ZM64.2681 22.7334C64.2681 24.0167 65.1227 24.3375 65.8423 24.3375C66.517 24.3375 66.7868 24.2001 66.7868 24.2001L66.9667 23.3292C66.9667 23.3292 66.472 23.5584 66.0222 23.5584C65.0327 23.5584 65.2126 22.8251 65.2126 22.8251H67.0567C67.0567 22.8251 67.1917 22.2292 67.1917 22.0001C67.1917 21.4042 66.8768 20.6709 65.8873 20.6709C64.9428 20.5792 64.2681 21.5875 64.2681 22.7334ZM65.8423 21.4042C66.3371 21.4042 66.2471 22.0001 66.2471 22.0459H65.2576C65.2576 22.0001 65.3475 21.4042 65.8423 21.4042ZM71.5545 24.2001L71.7344 23.1917C71.7344 23.1917 71.2846 23.4209 70.9698 23.4209C70.3401 23.4209 70.0702 22.9167 70.0702 22.3667C70.0702 21.2667 70.61 20.6709 71.2397 20.6709C71.6894 20.6709 72.0493 20.9459 72.0493 20.9459L72.1842 19.9834C72.1842 19.9834 71.6444 19.7542 71.1497 19.7542C70.1152 19.7542 69.0807 20.6709 69.0807 22.4125C69.0807 23.5584 69.6205 24.3375 70.6999 24.3375C71.0598 24.3375 71.5545 24.2001 71.5545 24.2001ZM59.0057 20.5792C58.376 20.5792 57.9262 20.7625 57.9262 20.7625L57.7913 21.5417C57.7913 21.5417 58.1961 21.3584 58.7808 21.3584C59.0957 21.3584 59.3655 21.4042 59.3655 21.6792C59.3655 21.8625 59.3205 21.9084 59.3205 21.9084H58.9158C58.1511 21.9084 57.2965 22.2292 57.2965 23.2834C57.2965 24.1084 57.8363 24.2917 58.1511 24.2917C58.7808 24.2917 59.0507 23.8792 59.0957 23.8792L59.0507 24.2459H59.8603L60.2201 21.7251C60.2201 20.6251 59.3205 20.5792 59.0057 20.5792ZM59.1856 22.6417C59.1856 22.7792 59.0957 23.5125 58.5559 23.5125C58.286 23.5125 58.1961 23.2834 58.1961 23.1459C58.1961 22.9167 58.331 22.5959 59.0057 22.5959C59.1406 22.6417 59.1856 22.6417 59.1856 22.6417ZM61.0747 24.2917C61.2996 24.2917 62.424 24.3375 62.424 23.1001C62.424 21.9542 61.3446 22.1834 61.3446 21.7251C61.3446 21.4959 61.5245 21.4042 61.8393 21.4042C61.9743 21.4042 62.469 21.4501 62.469 21.4501L62.6039 20.6251C62.6039 20.6251 62.2891 20.5334 61.7493 20.5334C61.0747 20.5334 60.4 20.8084 60.4 21.7251C60.4 22.7792 61.5245 22.6875 61.5245 23.1001C61.5245 23.3751 61.2096 23.4209 60.9847 23.4209C60.5799 23.4209 60.1751 23.2834 60.1751 23.2834L60.0402 24.1084C60.0852 24.2001 60.31 24.2917 61.0747 24.2917ZM79.0208 19.8459L78.8409 21.0834C78.8409 21.0834 78.4811 20.6251 77.9863 20.6251C77.1767 20.6251 76.4571 21.6334 76.4571 22.8251C76.4571 23.5584 76.8169 24.3375 77.5815 24.3375C78.1212 24.3375 78.4361 23.9709 78.4361 23.9709L78.3911 24.2917H79.2907L79.9654 19.8917L79.0208 19.8459ZM78.616 22.2751C78.616 22.7792 78.3911 23.4209 77.8964 23.4209C77.5815 23.4209 77.4016 23.1459 77.4016 22.6875C77.4016 21.9542 77.7165 21.4959 78.1212 21.4959C78.4361 21.4959 78.616 21.7251 78.616 22.2751ZM54.1031 24.2459L54.6428 20.9459L54.7328 24.2459H55.3625L56.5319 20.9459L56.0372 24.2459H56.9817L57.7013 19.8459H56.2171L55.3175 22.5501L55.2725 19.8459H53.9682L53.2485 24.2459H54.1031ZM68.0462 24.2459C68.3161 22.7334 68.3611 21.4959 68.9908 21.7251C69.0807 21.1292 69.2156 20.9001 69.3056 20.6709H69.1257C68.7209 20.6709 68.406 21.2209 68.406 21.2209L68.496 20.7167H67.6414L67.0567 24.2917H68.0462V24.2459ZM73.6235 20.5792C72.9938 20.5792 72.544 20.7625 72.544 20.7625L72.4091 21.5417C72.4091 21.5417 72.8139 21.3584 73.3986 21.3584C73.7134 21.3584 73.9833 21.4042 73.9833 21.6792C73.9833 21.8625 73.9383 21.9084 73.9383 21.9084H73.5335C72.7689 21.9084 71.9143 22.2292 71.9143 23.2834C71.9143 24.1084 72.454 24.2917 72.7689 24.2917C73.3986 24.2917 73.6685 23.8792 73.7134 23.8792L73.6685 24.2459H74.4781L74.8379 21.7251C74.8828 20.6251 73.9383 20.5792 73.6235 20.5792ZM73.8484 22.6417C73.8484 22.7792 73.7584 23.5125 73.2187 23.5125C72.9488 23.5125 72.8589 23.2834 72.8589 23.1459C72.8589 22.9167 72.9938 22.5959 73.6685 22.5959C73.8034 22.6417 73.8034 22.6417 73.8484 22.6417ZM75.6025 24.2459C75.8723 22.7334 75.9174 21.4959 76.547 21.7251C76.637 21.1292 76.7719 20.9001 76.8619 20.6709H76.6819C76.2772 20.6709 75.9623 21.2209 75.9623 21.2209L76.0523 20.7167H75.1977L74.613 24.2917H75.6025V24.2459Z" fill="white"/>
<path d="M62.5589 23.5584C62.5589 24.1084 62.8738 24.3375 63.2786 24.3375C63.5935 24.3375 63.8633 24.2459 63.9533 24.2001L64.0882 23.4209C64.0432 23.4209 63.9533 23.4667 63.8633 23.4667C63.5484 23.4667 63.5035 23.2834 63.5484 23.1917L63.8183 21.5875H64.3131L64.448 20.7167H63.9982L64.0882 20.1667M64.7179 22.7334C64.7179 24.0167 65.1227 24.3375 65.8423 24.3375C66.517 24.3375 66.7868 24.2001 66.7868 24.2001L66.9667 23.3292C66.9667 23.3292 66.472 23.5584 66.0222 23.5584C65.0327 23.5584 65.2126 22.8251 65.2126 22.8251H67.0567C67.0567 22.8251 67.1917 22.2292 67.1917 22.0001C67.1917 21.4042 66.8768 20.6709 65.8873 20.6709C64.9428 20.5792 64.7179 21.5875 64.7179 22.7334ZM65.8423 21.4042C66.3371 21.4042 66.427 22.0001 66.427 22.0459H65.2576C65.2576 22.0001 65.3475 21.4042 65.8423 21.4042ZM71.5545 24.2001L71.7344 23.1917C71.7344 23.1917 71.2846 23.4209 70.9698 23.4209C70.3401 23.4209 70.0702 22.9167 70.0702 22.3667C70.0702 21.2667 70.61 20.6709 71.2397 20.6709C71.6894 20.6709 72.0493 20.9459 72.0493 20.9459L72.1842 19.9834C72.1842 19.9834 71.6444 19.7542 71.1497 19.7542C70.1152 19.7542 69.5305 20.6709 69.5305 22.4125C69.5305 23.5584 69.6205 24.3375 70.6999 24.3375C71.0598 24.3375 71.5545 24.2001 71.5545 24.2001ZM57.7913 21.5875C57.7913 21.5875 58.1961 21.4042 58.7808 21.4042C59.0957 21.4042 59.3655 21.4501 59.3655 21.7251C59.3655 21.9084 59.3205 21.9542 59.3205 21.9542H58.9158C58.1511 21.9542 57.2965 22.2751 57.2965 23.3292C57.2965 24.1542 57.8363 24.3375 58.1511 24.3375C58.7808 24.3375 59.0507 23.9251 59.0957 23.9251L59.0507 24.2917H59.8603L60.2201 21.7709C60.2201 20.7167 59.3205 20.6709 58.9607 20.6709M59.6354 22.6417C59.6354 22.7792 59.0957 23.5125 58.5559 23.5125C58.286 23.5125 58.1961 23.2834 58.1961 23.1459C58.1961 22.9167 58.331 22.5959 59.0057 22.5959C59.1406 22.6417 59.6354 22.6417 59.6354 22.6417ZM60.0852 24.2001C60.0852 24.2001 60.3551 24.2917 61.1196 24.2917C61.3446 24.2917 62.469 24.3375 62.469 23.1001C62.469 21.9542 61.3895 22.1834 61.3895 21.7251C61.3895 21.4959 61.5694 21.4042 61.8843 21.4042C62.0192 21.4042 62.514 21.4501 62.514 21.4501L62.6489 20.6251C62.6489 20.6251 62.3341 20.5334 61.7943 20.5334C61.1196 20.5334 60.8948 20.8084 60.8948 21.7251C60.8948 22.7792 61.5694 22.6875 61.5694 23.1001C61.5694 23.3751 61.2546 23.4209 61.0297 23.4209M78.8409 21.0834C78.8409 21.0834 78.4811 20.6251 77.9863 20.6251C77.1767 20.6251 76.9069 21.6334 76.9069 22.8251C76.9069 23.5584 76.8169 24.3375 77.5815 24.3375C78.1212 24.3375 78.4361 23.9709 78.4361 23.9709L78.3911 24.2917H79.2907L79.9654 19.8917M78.7959 22.2751C78.7959 22.7792 78.3911 23.4209 77.8964 23.4209C77.5815 23.4209 77.4016 23.1459 77.4016 22.6875C77.4016 21.9542 77.7165 21.4959 78.1212 21.4959C78.4361 21.4959 78.7959 21.7251 78.7959 22.2751ZM54.1031 24.2459L54.6428 20.9459L54.7328 24.2459H55.3625L56.5319 20.9459L56.0372 24.2459H56.9817L57.7013 19.8459H56.5769L55.3175 22.5501L55.2725 19.8459H54.7778L53.2485 24.2459H54.1031ZM67.1017 24.2459H68.0462C68.3161 22.7334 68.3611 21.4959 68.9908 21.7251C69.0807 21.1292 69.2156 20.9001 69.3056 20.6709H69.1257C68.7209 20.6709 68.406 21.2209 68.406 21.2209L68.496 20.7167M72.4091 21.5875C72.4091 21.5875 72.8139 21.4042 73.3986 21.4042C73.7134 21.4042 73.9833 21.4501 73.9833 21.7251C73.9833 21.9084 73.9383 21.9542 73.9383 21.9542H73.5335C72.7689 21.9542 71.9143 22.2751 71.9143 23.3292C71.9143 24.1542 72.454 24.3375 72.7689 24.3375C73.3986 24.3375 73.6685 23.9251 73.7134 23.9251L73.6685 24.2917H74.4781L74.8379 21.7709C74.8379 20.7167 73.9383 20.6709 73.5785 20.6709M74.2531 22.6417C74.2531 22.7792 73.7134 23.5125 73.1737 23.5125C72.9038 23.5125 72.8139 23.2834 72.8139 23.1459C72.8139 22.9167 72.9488 22.5959 73.6235 22.5959C73.8034 22.6417 74.2531 22.6417 74.2531 22.6417ZM74.658 24.2459H75.6025C75.8723 22.7334 75.9174 21.4959 76.547 21.7251C76.637 21.1292 76.7719 20.9001 76.8619 20.6709H76.6819C76.2772 20.6709 75.9623 21.2209 75.9623 21.2209L76.0523 20.7167" fill="#DCE5E5"/>
<path d="M146.371 16.888C145.597 16.1164 144.426 15.7273 142.891 15.7273H138.87L137.376 27.5369H132.109L132.448 24.8576H135.62L135.996 21.8482L132.825 21.8549L133.165 19.1874H136.433L136.867 15.7279H130.231L128.812 26.9302H126.377L127.805 15.7274H124.336L122.917 26.9296H120.545L121.975 15.7274H118.507L117.011 27.537H111.706L112.042 24.8577H115.227L115.603 21.8654L112.421 21.8608L112.759 19.188H116.063L116.495 15.7271H95.8152L94.6381 25.0854L92.294 15.7271H88.6947L86.7576 30.9998H90.1949L91.3674 21.3834L93.6421 30.9998H105.961L107.459 19.1866H109.386L107.888 30.9998H140.302L141.242 23.5428L142.762 30.9998H146.201L144.625 24.9066L144.986 24.7937C145.78 24.546 146.399 24.0141 146.83 23.2166C147.261 22.4118 147.48 21.3786 147.48 20.1374C147.48 18.6925 147.117 17.6294 146.37 16.8871L146.371 16.888ZM102.97 27.5369H97.7083L98.0482 24.8576H101.348L101.723 21.8397H98.4541L98.7689 19.1882H104.023L102.969 27.5369L102.97 27.5369ZM143.537 22.3926C143.191 22.7445 142.69 22.9159 142.004 22.9159H141.324L141.846 18.8174H142.346C142.915 18.8174 143.33 18.9502 143.617 19.2211C143.84 19.4336 144.106 19.8539 144.106 20.6487C144.105 21.6103 143.796 22.1269 143.536 22.3925L143.537 22.3926Z" fill="#83BA3B"/>
<path d="M185.814 29.8327H189.724V18.2066H185.814V29.8327ZM183.602 18.0394C179.988 18.1648 178.152 19.8795 178.152 23.2878V29.8327H182.101V24.5006C182.101 22.4514 182.358 21.5732 184.649 21.4895V18.0812C184.392 18.0394 184.116 18.0184 183.839 18.0184L183.602 18.0394ZM154 19.0012C154 20.3395 154.553 23.4969 159.589 23.8733C160.023 23.8942 161.149 23.9779 161.149 25.107C161.149 26.0271 160.221 26.5916 158.661 26.5916C157.16 26.5498 155.679 26.2362 154.276 25.6716V29.3936C155.975 29.8327 157.732 30.0418 159.49 30.0209C163.795 30.0209 165.73 27.449 165.73 24.8979C165.73 22.0123 163.558 20.1304 159.944 19.8795C159.45 19.8376 158.305 19.7749 158.305 18.6667C158.305 17.3493 159.944 17.3493 160.576 17.3493C161.662 17.3493 163.064 17.6839 164.071 18.0184C164.071 18.0184 164.624 18.2276 165.118 18.4367L165.158 18.4576V14.8192L165.098 14.7983C163.913 14.3592 162.531 13.941 159.984 13.941C155.56 13.941 154 16.6593 154 19.0012ZM166.718 14.7774V29.8327H170.746V25.1697C171.911 27.0307 172.504 29.8327 172.504 29.8327H177.342C176.868 27.7208 174.775 23.8524 174.775 23.8524C176.019 22.1587 176.967 20.2558 177.618 18.2066H172.978C172.445 19.6704 171.694 21.0504 170.746 22.2632V13.941L166.718 14.7774ZM191.383 14.6728V29.8327H195.293V13.941L191.383 14.6728ZM197.09 14.6728V29.8327H201V13.941L197.09 14.6728ZM187.769 13C186.703 13 185.834 13.92 185.834 15.0492C185.834 16.1784 186.703 17.0984 187.769 17.0984C188.835 17.0984 189.704 16.1784 189.704 15.0492C189.684 13.92 188.835 13 187.769 13Z" fill="#872165"/>
<mask id="mask0_167_9" style="mask-type:luminance" maskUnits="userSpaceOnUse" x="154" y="13" width="47" height="18">
<path d="M185.814 29.8327H189.724V18.2066H185.814V29.8327ZM183.602 18.0394C179.988 18.1648 178.152 19.8795 178.152 23.2878V29.8327H182.101V24.5006C182.101 22.4514 182.358 21.5732 184.649 21.4895V18.0812C184.392 18.0394 184.116 18.0184 183.839 18.0184L183.602 18.0394ZM154 19.0012C154 20.3395 154.553 23.4969 159.589 23.8733C160.023 23.8942 161.149 23.9779 161.149 25.107C161.149 26.0271 160.221 26.5916 158.661 26.5916C157.16 26.5498 155.679 26.2362 154.276 25.6716V29.3936C155.975 29.8327 157.732 30.0418 159.49 30.0209C163.795 30.0209 165.73 27.449 165.73 24.8979C165.73 22.0123 163.558 20.1304 159.944 19.8795C159.45 19.8376 158.305 19.7749 158.305 18.6667C158.305 17.3493 159.944 17.3493 160.576 17.3493C161.662 17.3493 163.064 17.6839 164.071 18.0184C164.071 18.0184 164.624 18.2276 165.118 18.4367L165.158 18.4576V14.8192L165.098 14.7983C163.913 14.3592 162.531 13.941 159.984 13.941C155.56 13.941 154 16.6593 154 19.0012ZM166.718 14.7774V29.8327H170.746V25.1697C171.911 27.0307 172.504 29.8327 172.504 29.8327H177.342C176.868 27.7208 174.775 23.8524 174.775 23.8524C176.019 22.1587 176.967 20.2558 177.618 18.2066H172.978C172.445 19.6704 171.694 21.0504 170.746 22.2632V13.941L166.718 14.7774ZM191.383 14.6728V29.8327H195.293V13.941L191.383 14.6728ZM197.09 14.6728V29.8327H201V13.941L197.09 14.6728ZM187.769 13C186.703 13 185.834 13.92 185.834 15.0492C185.834 16.1784 186.703 17.0984 187.769 17.0984C188.835 17.0984 189.704 16.1784 189.704 15.0492C189.684 13.92 188.835 13 187.769 13Z" fill="white"/>
</mask>
<g mask="url(#mask0_167_9)">
<path d="M201 13H154V30H201V13Z" fill="#872165"/>
</g>
<g clip-path="url(#clip0_167_9)">
<path d="M16.8521 58.0453C16.1361 57.5547 15.31 57.432 14.484 57.432C13.8231 57.432 12.7767 56.9413 12.7767 55.5307C12.7767 55.04 12.9419 54.5493 13.2724 54.1813C13.6028 53.8133 14.0434 53.6293 14.484 53.6293C15.31 53.568 16.1361 53.4453 16.8521 53.016C17.5129 52.5867 18.0637 51.9733 18.4492 51.2373C18.8347 50.5013 18.9999 49.704 18.9999 48.8453C18.9999 47.9867 18.7796 47.1893 18.4492 46.4533C18.0637 45.7173 17.5129 45.104 16.8521 44.6747C16.1912 44.2453 15.4753 44.0613 14.7042 44.0613C13.9332 44.0613 13.2173 44.3067 12.5564 44.6747C11.8955 45.104 11.3448 45.7173 10.9593 46.4533C10.5738 47.1893 10.4086 47.9867 10.3535 48.8453C10.3535 49.7653 10.6289 50.624 11.0144 51.4213C11.3448 52.096 11.51 53.3227 10.4086 54.0587C10.0231 54.304 9.52743 54.3653 9.08685 54.2427C8.64627 54.12 8.26077 53.8133 8.04048 53.384C7.5999 52.648 7.10425 51.912 6.3883 51.4213C5.72743 50.992 5.01149 50.808 4.24048 50.808C3.46946 50.808 2.75352 51.0533 2.09265 51.4213C1.43178 51.8507 0.881056 52.464 0.495549 53.2C0.110042 53.936 -0.0551758 54.7333 -0.0551758 55.592C-0.0551758 56.4507 0.165114 57.248 0.495549 57.984C0.881056 58.72 1.43178 59.3333 2.09265 59.7627C2.75352 60.192 3.46946 60.376 4.24048 60.376C5.01149 60.376 5.72743 60.1307 6.3883 59.7627C7.10425 59.272 7.65497 58.5973 8.04048 57.8C8.37091 57.1867 9.25207 56.3893 10.3535 57.064C10.739 57.3093 11.0144 57.7387 11.1245 58.2293C11.2347 58.72 11.1796 59.2107 10.9593 59.7013C10.5738 60.4987 10.2984 61.3573 10.2984 62.2773C10.2984 63.136 10.5187 63.9333 10.8492 64.6693C11.2347 65.4053 11.7854 66.0187 12.4463 66.448C13.1071 66.8773 13.8231 67.0613 14.5941 67.0613C15.3651 67.0613 16.0811 66.816 16.7419 66.448C17.4028 66.0187 17.9535 65.4053 18.339 64.6693C18.7245 63.9333 18.8898 63.136 18.8898 62.2773C18.8898 61.4187 18.6695 60.6213 18.339 59.8853C18.0637 59.0267 17.5129 58.4133 16.8521 58.0453Z" fill="#008CFF"/>
</g>
<mask id="mask1_167_9" style="mask-type:luminance" maskUnits="userSpaceOnUse" x="25" y="46" width="21" height="21">
<path d="M45.6562 46.1905H25.5V66.8747H45.6562V46.1905Z" fill="white"/>
</mask>
<g mask="url(#mask1_167_9)">
<path d="M45.3547 59.0344C44.0085 64.5749 38.5396 67.9467 33.1393 66.5651C27.7412 65.1838 24.4551 59.5719 25.8019 54.0319C27.1474 48.4908 32.6164 45.1187 38.015 46.5C43.4149 47.8812 46.701 53.4937 45.3547 59.0344Z" fill="#F7931A"/>
<path d="M40.0226 55.0591C40.2232 53.6828 39.202 52.943 37.8056 52.4495L38.2586 50.5852L37.1526 50.3024L36.7116 52.1176C36.4208 52.0432 36.1222 51.9731 35.8254 51.9036L36.2696 50.0764L35.1643 49.7936L34.711 51.6573C34.4704 51.6011 34.2341 51.5455 34.0048 51.487L34.0061 51.4811L32.4808 51.0903L32.1866 52.3024C32.1866 52.3024 33.0072 52.4954 32.9899 52.5073C33.4378 52.622 33.5188 52.9263 33.5053 53.1674L32.9893 55.2913C33.0202 55.2993 33.0602 55.3109 33.1043 55.3291C33.0674 55.3197 33.0281 55.3095 32.9874 55.2994L32.2641 58.2747C32.2094 58.4144 32.0704 58.6239 31.7573 58.5443C31.7684 58.5608 30.9534 58.3385 30.9534 58.3385L30.4043 59.6376L31.8436 60.0057C32.1114 60.0747 32.3738 60.1467 32.6322 60.2145L32.1745 62.1002L33.2793 62.383L33.7325 60.5173C34.0343 60.6014 34.3272 60.679 34.6139 60.7521L34.1622 62.6089L35.2683 62.8917L35.7259 61.0095C37.612 61.3758 39.0301 61.2281 39.627 59.4777C40.108 58.0685 39.603 57.2556 38.6108 56.7255C39.3335 56.5545 39.8775 56.0666 40.0226 55.0591ZM37.4956 58.6951C37.1538 60.1044 34.8413 59.3426 34.0915 59.1516L34.6989 56.6533C35.4486 56.8453 37.8528 57.2254 37.4956 58.6951ZM37.8376 55.0387C37.5258 56.3206 35.6011 55.6694 34.9768 55.5096L35.5274 53.2439C36.1518 53.4036 38.1624 53.7017 37.8376 55.0387Z" fill="white"/>
</g>
<g clip-path="url(#clip1_167_9)">
<path d="M60.9977 42L60.823 42.5695V59.0964L60.9977 59.2637L68.9953 54.729L60.9977 42Z" fill="#343434"/>
<path d="M60.9976 42L53 54.729L60.9976 59.2637V51.2421V42Z" fill="#8C8C8C"/>
<path d="M60.9976 60.7162L60.8992 60.8313V66.7186L60.9976 66.9944L69 56.1838L60.9976 60.7162Z" fill="#3C3C3B"/>
<path d="M60.9976 66.9943V60.7162L53 56.1838L60.9976 66.9943Z" fill="#8C8C8C"/>
<path d="M60.9976 59.2637L68.9951 54.7291L60.9976 51.2421V59.2637Z" fill="#141414"/>
<path d="M53 54.7291L60.9975 59.2637V51.2421L53 54.7291Z" fill="#393939"/>
</g>
<mask id="mask2_167_9" style="mask-type:luminance" maskUnits="userSpaceOnUse" x="75" y="45" width="22" height="22">
<path d="M96.5 45.7227H75.5V66.7911H96.5V45.7227Z" fill="white"/>
</mask>
<g mask="url(#mask2_167_9)">
<path d="M86.0003 65.6509C91.1717 65.6509 95.3638 61.4451 95.3638 56.2569C95.3638 51.0687 91.1717 46.8628 86.0003 46.8628C80.8289 46.8628 76.6367 51.0687 76.6367 56.2569C76.6367 61.4451 80.8289 65.6509 86.0003 65.6509Z" fill="white"/>
<path d="M86 45.7227C83.9233 45.7227 81.8932 46.3405 80.1665 47.4981C78.4398 48.6556 77.094 50.3008 76.2993 52.2257C75.5045 54.1505 75.2966 56.2686 75.7018 58.312C76.1069 60.3554 77.1069 62.2325 78.5754 63.7057C80.0438 65.1789 81.9148 66.1822 83.9516 66.5887C85.9884 66.9951 88.0995 66.7866 90.0182 65.9893C91.9368 65.192 93.5767 63.8417 94.7304 62.1094C95.8842 60.377 96.5 58.3404 96.5 56.2569C96.504 54.8776 96.2372 53.5109 95.7147 52.235C95.1923 50.9591 94.4245 49.799 93.4551 48.8208C92.4858 47.8426 91.3339 47.0655 90.0652 46.534C88.7965 46.0024 87.4359 45.7267 86.061 45.7227H86ZM86.178 56.614L85.0847 60.3125H90.9322C90.971 60.3111 91.0095 60.3174 91.0458 60.331C91.0822 60.3446 91.1155 60.3653 91.1438 60.3919C91.1721 60.4184 91.1949 60.4503 91.211 60.4857C91.227 60.521 91.236 60.5593 91.2373 60.5981V60.695L90.7288 62.455C90.7064 62.5383 90.6564 62.6113 90.5871 62.6623C90.5178 62.7133 90.4333 62.7391 90.3475 62.7356H81.3983L82.8983 57.6088L81.2203 58.1189L81.6017 56.9456L83.2796 56.4355L85.3898 49.2426C85.413 49.1599 85.4633 49.0873 85.5324 49.0364C85.6015 48.9856 85.6855 48.9594 85.7712 48.962H88.0339C88.0726 48.9607 88.1113 48.967 88.1476 48.9806C88.1839 48.9942 88.2171 49.0149 88.2455 49.0414C88.2738 49.068 88.2967 49.0998 88.3127 49.1352C88.3288 49.1706 88.3377 49.2089 88.339 49.2477V49.3446L86.5593 55.4152L88.2373 54.905L87.8813 56.1294L86.178 56.614Z" fill="#345D9D"/>
</g>
<path fill-rule="evenodd" clip-rule="evenodd" d="M108.509 47.1805L104.487 55.8943C104.472 55.9267 104.467 55.9634 104.473 55.9988C104.48 56.0343 104.497 56.0667 104.522 56.0914L115.385 66.8275C115.416 66.858 115.457 66.875 115.5 66.875C115.543 66.875 115.584 66.858 115.615 66.8275L126.478 56.0921C126.503 56.0674 126.521 56.0349 126.527 55.9995C126.533 55.964 126.528 55.9274 126.513 55.895L122.491 47.1812C122.478 47.152 122.457 47.1272 122.431 47.1098C122.404 47.0925 122.374 47.0833 122.343 47.0834H108.659C108.628 47.083 108.597 47.0919 108.57 47.1092C108.544 47.1264 108.523 47.1512 108.509 47.1805Z" fill="#50AF95"/>
<path fill-rule="evenodd" clip-rule="evenodd" d="M116.846 56.6753C116.771 56.6809 116.383 56.7041 115.516 56.7041C114.827 56.7041 114.337 56.6835 114.165 56.6753C111.501 56.5582 109.513 56.0949 109.513 55.5402C109.513 54.9855 111.501 54.5228 114.165 54.4038V56.2139C114.34 56.2264 114.838 56.2558 115.528 56.2558C116.355 56.2558 116.769 56.2214 116.844 56.2145V54.4051C119.502 54.5234 121.487 54.9867 121.487 55.5402C121.487 56.0937 119.503 56.557 116.844 56.6747L116.846 56.6753ZM116.846 54.2179V52.5982H120.557V50.1282H110.455V52.5982H114.165V54.2173C111.15 54.3556 108.882 54.9523 108.882 55.6673C108.882 56.3823 111.15 56.9783 114.165 57.1173V62.3077H116.846V57.1155C119.854 56.9771 122.118 56.381 122.118 55.6667C122.118 54.9523 119.856 54.3562 116.846 54.2173L116.846 54.2179Z" fill="white"/>
<path d="M145.537 67.8985C152.409 67.8985 157.975 62.7846 157.975 56.479C157.975 50.1734 152.409 45.0596 145.537 45.0596C138.666 45.0596 133.1 50.1734 133.1 56.479C133.1 62.7846 138.67 67.8985 145.537 67.8985Z" fill="#FF060A"/>
<path d="M152.533 54.4289C151.847 53.8444 150.894 52.9541 150.122 52.324L150.074 52.2966C149.998 52.2418 149.912 52.1961 149.822 52.1642C147.953 51.8446 139.261 50.3515 139.095 50.3698C139.047 50.3743 138.999 50.3926 138.961 50.4154L138.918 50.4474C138.866 50.4976 138.823 50.557 138.799 50.6255L138.79 50.6529V50.8035V50.8264C139.766 53.3285 143.631 61.5198 144.394 63.4466C144.441 63.579 144.527 63.8256 144.689 63.8393H144.727C144.813 63.8393 145.185 63.3872 145.185 63.3872C145.185 63.3872 151.823 55.9996 152.495 55.2142C152.581 55.1183 152.657 55.0133 152.724 54.9037C152.743 54.817 152.733 54.7302 152.7 54.6481C152.667 54.5659 152.605 54.4882 152.533 54.4289ZM146.881 55.2918L149.712 53.1367L151.375 54.543L146.881 55.2918ZM145.78 55.1503L140.905 51.4793L148.797 52.8171L145.78 55.1503ZM146.219 56.1091L151.208 55.3695L145.504 61.6842L146.219 56.1091ZM140.243 51.8491L145.375 55.8443L144.632 61.6887L140.243 51.8491Z" fill="white"/>
<g clip-path="url(#clip2_167_9)">
<g filter="url(#filter0_d_167_9)">
<path d="M176 68.375C182.731 68.375 188.188 62.9185 188.188 56.1875C188.188 49.4565 182.731 44 176 44C169.269 44 163.812 49.4565 163.812 56.1875C163.812 62.9185 169.269 68.375 176 68.375Z" fill="black"/>
</g>
<path d="M176 68.375C182.731 68.375 188.188 62.9185 188.188 56.1875C188.188 49.4565 182.731 44 176 44C169.269 44 163.812 49.4565 163.812 56.1875C163.812 62.9185 169.269 68.375 176 68.375Z" fill="#C3A634"/>
<path style="mix-blend-mode:soft-light" d="M176 68.375C182.731 68.375 188.188 62.9185 188.188 56.1875C188.188 49.4565 182.731 44 176 44C169.269 44 163.812 49.4565 163.812 56.1875C163.812 62.9185 169.269 68.375 176 68.375Z" fill="url(#paint0_linear_167_9)"/>
<path d="M176 67.9688C182.507 67.9688 187.781 62.6941 187.781 56.1875C187.781 49.6809 182.507 44.4062 176 44.4062C169.493 44.4062 164.219 49.6809 164.219 56.1875C164.219 62.6941 169.493 67.9688 176 67.9688Z" stroke="black" stroke-opacity="0.097"/>
<g filter="url(#filter1_d_167_9)">
<path d="M173.764 55.0586H177.269V56.9158H173.764V60.8304H175.975C176.85 60.8304 177.566 60.712 178.123 60.4753C178.68 60.2386 179.118 59.9109 179.435 59.4921C179.753 59.0734 179.968 58.5818 180.082 58.0173C180.196 57.4529 180.253 56.843 180.253 56.1875C180.253 55.532 180.196 54.9221 180.082 54.3577C179.968 53.7932 179.753 53.3016 179.435 52.8829C179.118 52.4641 178.68 52.1364 178.123 51.8997C177.566 51.663 176.85 51.5446 175.975 51.5446H173.764V55.0586ZM171.517 56.9158H170.312V55.0586H171.517V49.6875H176.838C177.82 49.6875 178.671 49.8574 179.39 50.1973C180.109 50.5372 180.696 51.0015 181.152 51.5902C181.607 52.1789 181.946 52.8677 182.167 53.6567C182.389 54.4457 182.5 55.2893 182.5 56.1875C182.5 57.0857 182.389 57.9293 182.167 58.7183C181.946 59.5073 181.607 60.1961 181.152 60.7848C180.696 61.3735 180.109 61.8378 179.39 62.1777C178.671 62.5176 177.82 62.6875 176.838 62.6875H171.517V56.9158Z" fill="black"/>
</g>
<path d="M173.764 55.0586H177.269V56.9158H173.764V60.8304H175.975C176.85 60.8304 177.566 60.712 178.123 60.4753C178.68 60.2386 179.118 59.9109 179.435 59.4921C179.753 59.0734 179.968 58.5818 180.082 58.0173C180.196 57.4529 180.253 56.843 180.253 56.1875C180.253 55.532 180.196 54.9221 180.082 54.3577C179.968 53.7932 179.753 53.3016 179.435 52.8829C179.118 52.4641 178.68 52.1364 178.123 51.8997C177.566 51.663 176.85 51.5446 175.975 51.5446H173.764V55.0586ZM171.517 56.9158H170.312V55.0586H171.517V49.6875H176.838C177.82 49.6875 178.671 49.8574 179.39 50.1973C180.109 50.5372 180.696 51.0015 181.152 51.5902C181.607 52.1789 181.946 52.8677 182.167 53.6567C182.389 54.4457 182.5 55.2893 182.5 56.1875C182.5 57.0857 182.389 57.9293 182.167 58.7183C181.946 59.5073 181.607 60.1961 181.152 60.7848C180.696 61.3735 180.109 61.8378 179.39 62.1777C178.671 62.5176 177.82 62.6875 176.838 62.6875H171.517V56.9158Z" fill="white"/>
</g>
<mask id="mask3_167_9" style="mask-type:luminance" maskUnits="userSpaceOnUse" x="2" y="78" width="60" height="16">
<path d="M61.8588 78.5706H2.89478V93.3832H61.8588V78.5706Z" fill="white"/>
</mask>
<g mask="url(#mask3_167_9)">
<path d="M10.7114 84.2847V84.1226C10.7114 82.2572 9.89081 81.3657 8.59856 81.3657C7.30622 81.3657 6.465 82.3184 6.465 84.1022V84.2644C6.465 86.0686 7.26495 86.9814 8.59856 86.9814C9.93209 86.9814 10.7114 86.0288 10.7114 84.2847ZM9.91149 78.6283C12.4145 78.6283 14.4458 80.4937 14.4458 84.1226V84.2847C14.4458 87.934 12.4145 89.7587 9.89081 89.7587C8.27033 89.7587 7.10088 89.009 6.56721 87.9544V93.0632H2.89478V78.9119H6.56721V80.4928C7.1824 79.4799 8.29101 78.6283 9.91149 78.6283Z" fill="white"/>
<path d="M23.2106 84.2066V84.0445C23.2106 82.1995 22.4312 81.308 21.1999 81.308C19.9076 81.308 19.148 82.2198 19.148 84.0648V84.2271C19.148 86.0109 19.9272 86.9237 21.138 86.9237C22.3487 86.9237 23.2106 86.0119 23.2106 84.2066ZM15.4136 84.2678V84.1056C15.4145 80.4962 17.5068 78.5706 19.9076 78.5706C21.5281 78.5706 22.4932 79.26 23.1084 80.334V78.8541H26.7808V89.4572H23.1084V87.754C22.5541 88.8289 21.4259 89.7 19.887 89.7C17.5068 89.7 15.4145 87.9365 15.4145 84.2668" fill="white"/>
<path d="M34.1261 84.5685L36.1781 78.912H39.6864L33.9414 93.0634H30.433L32.2186 88.4411L27.9299 78.912H31.91L34.1261 84.5685Z" fill="white"/>
<path d="M39.876 89.5151V87.002L44.7592 81.6494H40.4715L40.4509 78.912H49.0468V81.5882L44.369 86.7582H49.3958V89.5151H39.876Z" fill="white"/>
<path d="M51.1274 88.0921C51.1707 85.1721 53.4084 82.7794 56.4499 82.7794C59.4915 82.7794 61.8589 85.1721 61.8589 88.0921C61.8589 91.0121 59.5564 93.3835 56.4499 93.3835C53.3435 93.3835 51.1274 91.0344 51.1274 88.0921Z" fill="#D0FA02"/>
</g>
<g clip-path="url(#clip3_167_9)">
<path d="M77.1078 77.4094L73.0618 91.7194H75.4596L76.6082 87.5107H79.9045L81.1034 91.7194H83.5509L79.4553 77.4094H77.1078ZM79.3058 85.2254H77.2077L78.0565 82.0386C78.1061 81.798 78.1564 81.6181 78.206 81.3776C78.2564 81.6181 78.3059 81.799 78.4058 82.0396L79.305 85.2254H79.3058ZM87.5465 85.2254C86.4475 84.6837 86.3476 84.4432 86.3476 84.0823C86.3476 83.6012 86.6969 83.301 87.1964 83.301C87.696 83.301 88.146 83.4819 88.5952 83.7821L89.0444 84.143L89.6439 81.8577L89.3945 81.6171C88.737 81.1262 87.9685 80.8951 87.1964 80.9561C85.3485 80.9561 84.0496 82.3388 84.0496 84.2632C84.0496 86.0068 85.3485 86.969 86.4475 87.4501C87.5465 87.9312 87.6464 88.292 87.6464 88.7125C87.6464 89.4948 86.947 89.6151 86.5474 89.6151C85.9479 89.5544 85.3485 89.3745 84.8489 89.0137L84.3997 88.7125L83.8002 91.0574L84.1 91.2383C84.8489 91.7194 85.6986 92.0196 86.5474 91.96C88.5456 91.96 89.9444 90.5763 89.9444 88.5326C89.894 86.5485 88.5456 85.7066 87.5465 85.2254ZM93.49 78.7315L91.1921 79.5734V81.1967H89.9931V83.5416H91.2424V88.2314C91.1921 89.2542 91.3919 90.2761 91.8915 91.118C92.391 91.7194 93.0408 92.0803 93.7394 92.0196C94.239 92.0196 94.689 91.959 95.1382 91.7791L95.4379 91.6588L95.338 89.3139L94.8384 89.4938C94.5891 89.5544 94.3892 89.6141 94.1391 89.6141C93.8897 89.6141 93.49 89.6141 93.49 88.292V83.5416H95.5378V81.1967H93.49V78.7315ZM101.082 81.0764L100.682 81.0167C100.533 81.0167 100.433 80.9561 100.282 80.9561C99.5838 80.9561 98.8837 81.3169 98.3849 81.9183V81.137H96.2372V81.7384C96.2868 82.5197 96.2868 83.4819 96.2868 84.6847V91.7791H98.5847V86.1877C98.5847 85.9471 98.5847 85.7066 98.6343 85.466C98.7845 84.3835 99.384 83.6618 100.133 83.6618H100.533L101.032 83.7821L101.082 81.0764ZM105.277 80.9561C102.73 80.9561 100.932 83.2414 100.932 86.5485C100.932 89.7353 102.68 91.96 105.177 91.96C107.275 91.96 109.573 90.2164 109.573 86.3676C109.523 83.1807 107.775 80.9561 105.277 80.9561ZM107.176 86.4282C107.176 88.292 106.327 89.6151 105.228 89.6151C104.129 89.6151 103.28 88.292 103.28 86.4879C103.28 85.2851 103.729 83.301 105.278 83.301C106.776 83.301 107.176 85.3457 107.176 86.4282ZM117.065 78.5506C116.315 77.7086 115.167 77.2881 113.668 77.2881C112.719 77.2881 111.771 77.3478 110.871 77.5287L110.522 77.649V91.7185H112.819V86.4888C113.069 86.4888 113.319 86.5485 113.519 86.5485C114.867 86.6091 116.215 86.0674 117.215 84.9252C117.864 84.0833 118.214 82.8805 118.214 81.7384C118.214 80.5356 117.814 79.3935 117.065 78.5515V78.5506ZM115.916 81.798C115.916 83.7821 114.467 84.0823 113.568 84.0823C113.319 84.0823 113.069 84.0823 112.819 84.0227V79.7533C113.119 79.6927 113.419 79.6927 113.718 79.6927C114.718 79.7533 115.916 80.1142 115.916 81.798ZM125.206 88.9531V85.4063C125.206 82.5803 123.957 81.0167 121.76 81.0167C120.761 81.0167 119.762 81.3169 118.913 81.9183L118.613 82.1589L119.213 84.3835L119.712 83.963C120.261 83.5416 120.911 83.301 121.56 83.3616C121.91 83.301 122.309 83.4819 122.609 83.7821C122.809 84.0227 122.909 84.3835 122.958 84.7443C121.16 84.805 119.862 85.3457 119.063 86.3079C118.513 86.969 118.214 87.8715 118.214 88.8328C118.214 90.6369 119.413 92.0803 120.861 92.0803H121.061C121.81 92.0803 122.609 91.7791 123.208 91.2383L123.258 91.8397H125.456L125.406 91.2383C125.27 90.4876 125.203 89.7213 125.206 88.9531ZM121.361 89.6747C120.911 89.7353 120.511 89.3139 120.461 88.7731V88.5326C120.461 88.1717 120.561 87.8715 120.761 87.631C121.01 87.3298 121.61 86.969 122.959 86.9093V88.0515C122.959 88.1717 122.959 88.292 122.909 88.4729C122.659 89.1946 122.059 89.6747 121.361 89.6747ZM131.549 81.1967L129.901 87.1499C129.839 87.2994 129.804 87.4637 129.801 87.631C129.751 87.5107 129.701 87.3298 129.652 87.2095L127.853 81.2573H125.356L128.502 90.7572C128.553 90.8178 128.553 90.8775 128.553 90.9978C128.553 91.0584 128.502 91.118 128.502 91.1787C128.253 91.8397 127.903 92.4411 127.404 92.9222C127.054 93.283 126.705 93.5236 126.305 93.6438L125.905 93.8238L126.505 96.1687L126.904 96.109C127.653 95.9281 128.303 95.5077 128.903 94.9063C130.001 93.7035 130.75 91.8397 131.749 88.7125L133.997 81.137L131.549 81.1967Z" fill="white"/>
<path d="M81.5023 81.3775C83.0009 79.5734 85.4987 78.4909 88.2459 78.4909C89.2946 78.4909 90.3432 78.6718 91.3423 78.972H91.4423L93.1903 78.311L92.391 77.9501C90.7429 77.2881 89.0444 76.9283 87.3467 76.9283C84.9809 76.8683 82.6474 77.5965 80.6039 79.0326L80.4041 79.1529L81.153 81.7384L81.5031 81.3775H81.5023Z" fill="#FF0000"/>
</g>
<g clip-path="url(#clip4_167_9)">
<path fill-rule="evenodd" clip-rule="evenodd" d="M160.597 89.1569C159.411 90.0787 158.144 90.9158 156.806 91.6602C153.995 93.2218 151.014 94.5351 147.908 95.5809C146.893 95.9259 145.697 96.1258 144.687 95.6645C144.042 95.3566 143.562 94.8369 143.352 94.2191C143.2 93.738 143.086 93.2483 143.01 92.7534C142.228 88.9125 142.566 84.4332 143.446 80.6008C143.664 79.65 144.18 78.368 145.328 78.0262C145.894 77.8759 146.495 77.859 147.07 77.9772C147.25 78.0118 147.425 78.0589 147.596 78.1177C151.304 79.2801 154.779 80.9495 157.894 83.0642C158.79 83.6817 159.773 84.3228 160.596 85.0115C161.174 85.4269 161.584 85.9953 161.764 86.632C161.799 86.813 161.808 86.9966 161.791 87.1789C161.757 87.5629 161.633 87.9366 161.428 88.2768C161.223 88.6171 160.94 88.9166 160.597 89.1569Z" fill="#FEFEFE"/>
<path fill-rule="evenodd" clip-rule="evenodd" d="M144.084 94.0054C144.358 94.7321 145.18 95.7828 147.623 94.9483C151.157 93.7421 156.437 91.5348 160.111 88.6263C160.373 88.4453 160.588 88.2185 160.745 87.9602C160.901 87.7018 160.994 87.4178 161.019 87.126C161.105 86.1289 160.221 85.5316 157.415 83.5968C154.368 81.5184 150.961 79.8825 147.324 78.7516C146.766 78.5561 146.151 78.5262 145.573 78.6666C144.856 78.8796 144.412 79.8101 144.2 80.7302C143.999 81.6084 142.688 87.3292 143.768 92.6286C143.844 93.0926 143.95 93.5519 144.084 94.0054Z" fill="#FFB700"/>
<path fill-rule="evenodd" clip-rule="evenodd" d="M144.558 79.6945C144.408 80.1761 144.313 80.6694 144.276 81.1673V81.1503C145.312 80.8977 146.4 80.8497 147.46 81.0099C152.084 81.5104 156.831 83.8 159.405 85.1749L160.098 85.5382C159.891 85.3645 159.678 85.1967 159.459 85.035L159.409 84.9984L159.383 84.9802L159.227 84.8665L159.201 84.8469L159.148 84.8083L159.121 84.7887L159.093 84.7691L159.04 84.7292L159.011 84.709L158.954 84.6678L158.925 84.6476L158.866 84.6064L158.837 84.5848L158.777 84.543L158.747 84.5214L158.716 84.4999L158.685 84.4783L158.654 84.4567L158.622 84.4345L158.559 84.3907L158.527 84.3679L158.495 84.3457L158.463 84.3228L158.43 84.2999L158.363 84.2529L158.331 84.2294L158.297 84.2065L158.267 84.1862L158.263 84.183L158.229 84.1594L158.195 84.1353L158.16 84.1117L158.154 84.1072L158.125 84.0876L158.09 84.0627L158.055 84.0385L158.038 84.0268L158.02 84.0137L157.984 83.9889L157.947 83.9641L157.919 83.9445L157.912 83.9379L157.875 83.9131L157.837 83.8876L157.8 83.8628H157.797L157.763 83.8392L157.726 83.8131L157.687 83.787L157.672 83.7772L157.649 83.7608L157.611 83.7347L157.572 83.7086L157.544 83.689L157.532 83.6811L157.494 83.6543L157.454 83.6269L157.415 83.6001C154.367 81.5216 150.96 79.8857 147.323 78.7548C146.766 78.5595 146.151 78.5296 145.572 78.6699L145.543 78.679H145.536L145.508 78.6895H145.503L145.476 78.6999H145.473L145.446 78.7117L145.44 78.7143L145.413 78.7274L145.407 78.7294L145.383 78.7411L145.378 78.7437L145.352 78.7575L145.345 78.7614L145.319 78.7757L145.314 78.779L145.291 78.7927L145.286 78.796L145.261 78.8123L145.255 78.8169L145.229 78.8339L145.203 78.8529L145.2 78.8555L145.175 78.8751L145.17 78.879L145.147 78.8973L145.122 78.9169L145.117 78.9221L145.093 78.943L145.09 78.9456L145.068 78.9659L145.063 78.9698L145.041 78.992L145.036 78.9973L145.014 79.0201L145.01 79.0234L144.99 79.045L144.985 79.0502L144.962 79.0737L144.957 79.0802L144.937 79.1038L144.918 79.1266L144.912 79.1338L144.892 79.158L144.886 79.1665L144.865 79.192L144.56 79.6951L144.558 79.6945ZM144.604 79.6566L144.6 79.6612L144.579 79.6899L144.576 79.6945L144.555 79.7232L144.536 79.752L144.533 79.7566L144.512 79.7873L144.509 79.7918L144.494 79.8173L144.488 79.8245L144.471 79.8539L144.466 79.8611L144.449 79.8899V79.8964L144.433 79.9245L144.429 79.931L144.412 79.9604L144.407 79.9683L144.39 80.0009L144.374 80.0317L144.369 80.0408L144.353 80.0728L144.349 80.0794L144.604 79.6566Z" fill="#FFDF77"/>
<path fill-rule="evenodd" clip-rule="evenodd" d="M144.277 81.1497C145.314 80.8968 146.402 80.8488 147.463 81.0092C152.086 81.5104 156.833 83.7994 159.407 85.1742C157.253 90.6428 147.805 94.5569 147.805 94.5569C146.675 93.5637 145.585 92.6417 144.535 85.7969C144.263 84.2601 144.176 82.7024 144.277 81.1497Z" fill="#FFCE00"/>
<path d="M166.27 79.0417C167.29 78.9461 168.315 78.9119 169.34 78.9391C170.033 78.9366 170.711 79.1204 171.282 79.4658C171.476 79.6419 171.619 79.8566 171.699 80.0916C171.778 80.3266 171.792 80.575 171.739 80.8158C171.768 81.6333 171.449 82.4309 170.844 83.0532C170.27 83.5499 169.513 83.8504 168.709 83.9007C167.951 83.9987 167.182 84.0052 166.422 83.9209C166.236 84.5659 166.049 85.2095 165.903 85.8629C165.863 86.0537 165.776 86.2811 165.529 86.3282C165.24 86.3445 164.949 86.3478 164.66 86.338C164.484 86.359 164.305 86.3479 164.134 86.3053C163.979 86.2243 164.076 86.0472 164.081 85.9224C164.292 85.0102 164.506 84.0987 164.721 83.1878C164.771 82.9205 164.845 82.6578 164.941 82.401C165.764 82.3873 166.588 82.3958 167.411 82.3945C167.539 82.3945 167.664 82.4272 167.772 82.4886C167.72 82.6944 167.688 82.9035 167.677 83.1139C168.087 82.8911 168.475 82.6389 168.838 82.3592C169.267 82.0512 169.677 81.7224 170.065 81.3745C169.512 80.7648 168.944 80.1682 168.382 79.5664C168.222 79.7677 168.311 80.1022 168.037 80.227C167.64 80.2718 167.238 80.2796 166.839 80.2506C166.365 80.2754 165.891 80.261 165.421 80.2074C165.406 79.8801 165.485 79.554 165.648 79.2599C165.778 79.0783 166.054 79.0763 166.27 79.0417ZM172.921 81.1784C173.715 80.9662 174.564 80.9753 175.352 81.2046C175.552 81.2701 175.73 81.378 175.871 81.5185C176.011 81.6591 176.11 81.828 176.159 82.0103C176.344 82.6519 176.077 83.2943 175.975 83.9288C175.868 84.5855 175.724 85.2396 175.598 85.8956C175.594 86.0133 175.551 86.1273 175.473 86.2231C175.395 86.3189 175.286 86.3921 175.161 86.4334C174.38 86.6057 173.574 86.6675 172.771 86.6164C172.478 86.6521 172.179 86.617 171.907 86.5146C171.635 86.4123 171.4 86.2467 171.227 86.0357C171.054 85.8246 170.95 85.5761 170.926 85.317C170.902 85.0579 170.959 84.798 171.091 84.5652C171.144 84.3293 171.264 84.109 171.44 83.9243C171.615 83.7396 171.84 83.5964 172.095 83.5079C172.751 83.3523 173.429 83.2786 174.109 83.289C174.278 83.2694 174.482 83.3008 174.624 83.1949C174.741 82.9506 174.763 82.6787 174.683 82.4226C174.557 82.1416 174.161 82.1076 173.863 82.122C173.243 82.147 172.631 82.2591 172.051 82.454C171.929 82.1743 171.937 81.8636 172.075 81.5894C172.287 81.3634 172.59 81.217 172.921 81.1784ZM172.523 84.6678C172.421 84.8834 172.411 85.1252 172.494 85.3474C172.647 85.4866 172.84 85.588 173.052 85.6415C173.264 85.695 173.489 85.6988 173.703 85.6525C173.915 85.6257 174.226 85.5833 174.237 85.3461C174.336 84.969 174.382 84.5815 174.373 84.1947C173.908 84.1575 173.439 84.1744 172.979 84.245C172.868 84.2745 172.767 84.3291 172.687 84.4032C172.607 84.4774 172.551 84.5686 172.523 84.6678ZM178.557 81.2281C179.584 80.9728 180.671 80.9633 181.704 81.2007C181.908 81.2137 182.106 81.2732 182.276 81.3732C182.35 81.5065 182.362 81.6607 182.308 81.8005C181.954 83.5027 181.641 85.2108 181.257 86.9065C181.217 87.1668 181.114 87.4165 180.954 87.6386C180.794 87.8607 180.582 88.0501 180.332 88.1938C179.669 88.4359 178.948 88.5324 178.233 88.4747C177.904 88.4961 177.573 88.46 177.261 88.3686C176.948 88.2772 176.659 88.1323 176.41 87.9422C176.285 87.6873 176.478 87.4292 176.579 87.1973C176.732 87.2005 176.883 87.2175 177.03 87.2495C177.775 87.4318 178.555 87.4711 179.319 87.3645C179.725 87.2776 179.804 86.8692 179.839 86.5595C179.118 86.6949 178.367 86.6387 177.683 86.3981C177.41 86.2821 177.177 86.1058 177.006 85.8866C176.835 85.6675 176.731 85.413 176.706 85.1481C176.645 84.1928 176.828 83.2376 177.24 82.352C177.356 82.0934 177.533 81.8593 177.759 81.6654C177.986 81.4715 178.257 81.3222 178.554 81.2274H178.557V81.2281ZM179.64 82.0691C179.437 82.1044 179.244 82.1745 179.072 82.2754C178.9 82.3764 178.752 82.5061 178.637 82.6572C178.475 82.9268 178.367 83.219 178.317 83.521C178.161 84.0478 178.116 84.5952 178.183 85.1363C178.217 85.2425 178.287 85.3374 178.382 85.4088C178.478 85.4802 178.596 85.5248 178.721 85.5369C179.143 85.6044 179.578 85.5841 179.991 85.4774C180.129 85.4526 180.133 85.3114 180.164 85.216C180.345 84.33 180.508 83.4419 180.688 82.5565C180.727 82.4393 180.724 82.3143 180.68 82.1985C180.36 82.0482 179.991 82.0024 179.637 82.0684L179.64 82.0691ZM185.201 81.0484C185.834 80.9425 186.49 81.0257 187.063 81.2849C187.338 81.428 187.568 81.6286 187.733 81.869C187.899 82.1094 187.993 82.382 188.009 82.6624C188.02 83.3058 187.922 83.9471 187.719 84.5652C187.588 85.0983 187.287 85.5877 186.851 85.9766C186.442 86.2942 185.942 86.5095 185.406 86.6003C184.869 86.691 184.315 86.654 183.8 86.4929C183.525 86.4031 183.28 86.2545 183.087 86.0605C182.894 85.8665 182.759 85.6333 182.695 85.382C182.495 84.5132 182.585 83.6121 182.955 82.7872C183.115 82.3463 183.408 81.9517 183.803 81.6455C184.199 81.3394 184.681 81.133 185.199 81.0484H185.201ZM185.215 82.2207C185.018 82.2755 184.838 82.3712 184.692 82.4997C184.545 82.6282 184.436 82.7857 184.373 82.9591C184.154 83.5224 184.038 84.1125 184.028 84.7077C184.018 84.8242 184.037 84.9413 184.083 85.0508C184.13 85.1602 184.203 85.2594 184.298 85.3415C184.451 85.4241 184.622 85.4777 184.799 85.4988C184.977 85.5198 185.158 85.5079 185.33 85.4637C185.492 85.4329 185.643 85.3684 185.771 85.2756C185.898 85.1828 185.998 85.0645 186.063 84.9305C186.374 84.3274 186.535 83.6733 186.537 83.0113C186.557 82.8798 186.538 82.7458 186.482 82.6226C186.426 82.4993 186.335 82.3908 186.217 82.3076C186.068 82.2292 185.9 82.1809 185.727 82.1662C185.554 82.1515 185.379 82.1708 185.215 82.2226V82.2207ZM147.332 84.2241C147.519 83.7144 147.716 83.2067 147.907 82.6977H152.463C153.244 82.6753 154.009 82.892 154.628 83.3106C155.083 83.6462 155.386 84.1137 155.483 84.6286C155.603 85.1728 155.576 85.7341 155.404 86.2674C155.231 86.8007 154.919 87.2909 154.491 87.6985C153.671 88.4231 152.581 88.8639 151.421 88.94C150.448 88.9896 149.472 88.9831 148.5 88.9191C148.219 89.9143 147.992 90.9206 147.729 91.921C146.995 91.8929 146.261 91.8543 145.527 91.8426C145.884 90.271 146.299 88.7093 146.658 87.1371C147.872 87.1241 149.086 87.1371 150.299 87.1319C150.304 87.4606 150.299 87.7886 150.299 88.1167C151.319 87.3574 152.312 86.5693 153.325 85.8035C152.574 84.9723 151.807 84.1503 151.065 83.3139C150.963 83.6125 150.869 83.9144 150.786 84.2176C149.634 84.2313 148.482 84.2176 147.329 84.2261L147.332 84.2241ZM170.495 87.3521C171.166 87.0832 171.927 87.0415 172.63 87.2352C172.694 87.5103 172.638 87.7965 172.473 88.0369C172.124 88.1872 171.689 88.0716 171.352 88.2513C171.085 88.4571 171.143 88.808 171.093 89.0877C171.461 89.1269 171.837 89.0916 172.201 89.1622C172.249 89.3042 172.261 89.4538 172.235 89.6003C172.21 89.7468 172.147 89.8864 172.052 90.009C171.732 90.1874 171.318 90.1031 170.958 90.1351C170.86 90.2529 170.796 90.3892 170.769 90.5331C170.494 91.8811 170.235 93.2318 169.958 94.5805C169.905 95.0647 169.662 95.5175 169.27 95.8612C168.785 96.1303 168.208 96.2424 167.639 96.1781C167.412 96.1533 167.121 96.1742 166.977 95.9867C166.945 95.7318 166.994 95.475 167.117 95.2431C167.435 95.23 167.752 95.2019 168.067 95.1601C168.392 95.0621 168.458 94.7288 168.516 94.472C168.729 93.3121 168.966 92.1549 169.202 90.9983C169.273 90.733 169.313 90.4625 169.323 90.19C169.02 90.09 168.634 90.1769 168.4 89.9443C168.326 89.8366 168.29 89.7124 168.295 89.5867C168.299 89.461 168.345 89.3392 168.427 89.236C168.689 88.9968 169.103 89.2014 169.421 89.1099C169.648 88.9968 169.653 88.7348 169.704 88.5381C169.723 88.3004 169.805 88.0698 169.941 87.8639C170.078 87.658 170.266 87.4823 170.492 87.3502L170.495 87.3521ZM187.18 87.8383C187.243 87.6161 187.247 87.3064 187.521 87.1986C187.916 87.1613 188.318 87.1816 188.717 87.1783C188.813 87.5815 188.764 88.0016 188.58 88.3806C188.18 88.4608 187.765 88.4705 187.36 88.4094C187.07 88.3427 187.148 88.0265 187.177 87.8357L187.18 87.8383ZM164.906 87.424C165.898 87.2946 166.907 87.2933 167.9 87.4201C168.024 87.4371 168.147 87.4632 168.267 87.4965C168.338 87.7677 168.308 88.0515 168.182 88.3068C168.084 88.4819 167.84 88.5015 167.648 88.5074C166.986 88.5185 166.325 88.4956 165.664 88.5159C165.508 88.5044 165.352 88.5323 165.214 88.5963C165.076 88.6604 164.962 88.7579 164.885 88.8773C164.706 89.3512 164.593 89.8425 164.548 90.3403C165.448 90.3403 166.348 90.3377 167.249 90.3403C167.396 90.3338 167.643 90.3645 167.623 90.5396C167.619 90.7645 167.576 90.9875 167.495 91.2009C167.453 91.2804 167.384 91.3461 167.296 91.3884C167.209 91.4306 167.109 91.4471 167.01 91.4355C166.225 91.4394 165.44 91.4283 164.655 91.4355C164.606 91.4306 164.555 91.4346 164.508 91.4473C164.46 91.4599 164.416 91.4809 164.378 91.509C164.339 91.5371 164.308 91.5717 164.286 91.6107C164.263 91.6498 164.25 91.6924 164.247 91.7361C164.131 92.2018 164.073 92.6773 164.074 93.154C164.099 93.4062 164.413 93.482 164.654 93.4905C165.415 93.5056 166.177 93.4794 166.938 93.5056C167.109 93.5108 167.08 93.6931 167.111 93.7996C167.153 94.0845 167.065 94.4942 166.674 94.5393C165.561 94.6425 164.378 94.8098 163.306 94.4269C163.071 94.319 162.873 94.1581 162.733 93.9609C162.592 93.7636 162.513 93.537 162.505 93.3043C162.471 92.9249 162.51 92.5433 162.62 92.1752C162.813 91.1996 163.008 90.2246 163.216 89.2523C163.288 88.7988 163.49 88.3688 163.803 88.0023C164.086 87.7076 164.473 87.5037 164.903 87.422L164.906 87.424ZM183.951 88.2539C184.393 88.061 184.888 87.983 185.378 88.0291C185.392 88.3833 185.244 88.7244 185.264 89.0792C185.584 89.0857 185.903 89.1243 186.214 89.1929C186.404 89.2693 186.37 89.485 186.337 89.6326C186.279 89.8326 186.193 90.1194 185.898 90.1116C185.594 90.1724 185.076 90.0123 184.978 90.3776C184.796 91.161 184.658 91.9523 184.502 92.7397C184.439 93.0135 184.402 93.2919 184.39 93.5709C184.713 93.6447 185.05 93.6611 185.381 93.618C185.45 93.7106 185.49 93.8169 185.499 93.9271C185.508 94.0372 185.485 94.1476 185.433 94.2478C185.38 94.3481 185.299 94.4349 185.198 94.5003C185.096 94.5657 184.978 94.6074 184.853 94.6216C184.319 94.6184 183.724 94.7099 183.268 94.4125C183.114 94.2928 183.001 94.1391 182.938 93.9675C182.875 93.7959 182.867 93.6126 182.912 93.437C183.069 92.3503 183.353 91.28 183.499 90.1913C183.155 90.1103 182.732 90.1815 182.468 89.9339C182.398 89.8207 182.369 89.6919 182.383 89.5639C182.397 89.4359 182.454 89.3144 182.547 89.2151C182.879 89.0236 183.307 89.185 183.663 89.0648C183.897 88.8433 183.748 88.4878 183.95 88.2526L183.951 88.2539ZM174.332 89.1073C174.932 88.986 175.562 89.0494 176.115 89.287C176.438 89.4933 176.695 89.7684 176.864 90.0863C177.032 90.4042 177.105 90.7545 177.076 91.1042C177.094 91.4925 177.055 91.8813 176.96 92.2608C176.335 92.3268 175.706 92.347 175.077 92.3215C174.475 92.3326 173.871 92.2987 173.27 92.332C173.172 92.5173 173.149 92.7266 173.206 92.9248C173.262 93.123 173.395 93.298 173.581 93.4206C173.906 93.5252 174.252 93.5637 174.596 93.5337C175.221 93.4833 175.84 93.3847 176.446 93.239C176.446 93.5781 176.547 94.0362 176.164 94.2511C175.742 94.4335 175.295 94.5691 174.835 94.655C174.155 94.8159 173.43 94.7411 172.811 94.4459C172.538 94.3272 172.302 94.152 172.124 93.9354C171.945 93.7187 171.83 93.4671 171.787 93.2024C171.659 92.1478 171.894 91.0839 172.461 90.1475C172.658 89.8566 172.93 89.6107 173.256 89.43C173.582 89.2493 173.952 89.1389 174.336 89.1079H174.331L174.332 89.1073ZM173.975 90.4148C173.676 90.6696 173.494 91.0114 173.464 91.3754C174.199 91.3825 174.938 91.4093 175.673 91.3597C175.733 91.2169 175.751 91.0633 175.726 90.9128C175.701 90.7623 175.633 90.6198 175.528 90.4984C175.433 90.402 175.318 90.3233 175.188 90.2668C175.058 90.2102 174.916 90.1771 174.772 90.1693C174.627 90.1615 174.482 90.1792 174.345 90.2214C174.208 90.2635 174.082 90.3293 173.975 90.4148ZM178.384 89.9554C178.649 89.6541 178.995 89.4151 179.39 89.2595C179.786 89.104 180.219 89.0369 180.651 89.0641C181.139 89.0692 181.619 89.1765 182.05 89.3771C182.37 89.5568 182.141 89.9234 182.098 90.1796C182.076 90.4246 181.731 90.3455 181.542 90.3455C181.096 90.3651 180.697 90.0508 180.253 90.1822C180.069 90.2209 179.897 90.2975 179.753 90.4056C179.609 90.5138 179.496 90.6504 179.424 90.8042C179.111 91.4831 178.965 92.2124 178.997 92.9443C178.987 93.0587 179.021 93.1727 179.092 93.2687C179.164 93.3647 179.269 93.4374 179.392 93.4755C180.052 93.663 180.727 93.4252 181.376 93.3161C181.444 93.632 181.397 93.9588 181.243 94.2505C181.146 94.34 181.03 94.4116 180.901 94.4612C180.772 94.5107 180.633 94.5373 180.492 94.5393C180.142 94.5668 179.793 94.6112 179.442 94.6419C179.026 94.646 178.62 94.5297 178.287 94.3109C177.954 94.0922 177.712 93.7833 177.599 93.4317C177.502 92.8585 177.516 92.275 177.641 91.706C177.75 91.0835 178.002 90.487 178.382 89.9528L178.384 89.9554ZM196.442 89.106C197.025 89.0154 197.626 89.0586 198.184 89.2314C198.497 89.3638 198.764 89.5671 198.958 89.8203C199.152 90.0736 199.265 90.3677 199.286 90.6723C199.314 91.4198 199.183 92.1653 198.902 92.8711C198.752 93.3631 198.432 93.8019 197.984 94.1257C197.592 94.3819 197.137 94.5541 196.655 94.6288C196.174 94.7034 195.679 94.6784 195.211 94.5556C194.947 94.4822 194.705 94.3599 194.5 94.1971C194.296 94.0343 194.133 93.8348 194.023 93.6121C193.683 92.9737 193.877 92.2555 194.009 91.5956C194.111 90.847 194.502 90.1518 195.118 89.6261C195.493 89.3457 195.952 89.1643 196.44 89.1027L196.442 89.1053V89.106ZM196.593 90.2155C196.38 90.2616 196.184 90.3536 196.022 90.4832C195.859 90.6128 195.737 90.776 195.665 90.9578C195.447 91.5062 195.319 92.0792 195.287 92.6594C195.267 92.7739 195.277 92.8908 195.317 93.0012C195.357 93.1116 195.426 93.2124 195.517 93.2958C195.714 93.4204 195.946 93.4935 196.188 93.5065C196.43 93.5196 196.671 93.4721 196.884 93.3696C197.039 93.2896 197.173 93.1812 197.277 93.0516C197.38 92.922 197.45 92.7744 197.483 92.6188C197.692 92.0613 197.8 91.4782 197.803 90.8912C197.803 90.7854 197.775 90.681 197.723 90.5859C197.67 90.4908 197.593 90.4075 197.498 90.3423C197.227 90.1971 196.901 90.1507 196.591 90.2129L196.593 90.2155ZM186.987 89.1922C187.389 89.0864 187.814 89.0684 188.226 89.1399C188.455 89.1693 188.365 89.4144 188.363 89.5516C188.091 91.0205 187.768 92.4816 187.487 93.9479C187.444 94.178 187.434 94.5262 187.1 94.57C186.749 94.6242 186.388 94.6081 186.045 94.523C185.975 94.3791 185.962 94.2185 186.009 94.0675C186.259 92.7914 186.503 91.5152 186.744 90.2384C186.797 89.8836 186.877 89.5327 186.985 89.187L186.987 89.1922ZM188.998 89.2085C189.106 89.1397 189.238 89.1066 189.371 89.1151C189.666 89.0917 189.963 89.1052 190.254 89.155C190.409 89.1785 190.377 89.3595 190.41 89.4621C190.469 90.341 190.504 91.2218 190.553 92.102C190.555 92.6117 190.612 93.1213 190.724 93.6219C191.067 93.2476 191.321 92.8171 191.472 92.3555C191.96 91.2956 192.42 90.2253 192.947 89.1798C193.379 89.0905 193.827 89.0772 194.264 89.1406C194.483 89.1883 194.372 89.417 194.311 89.5418C193.548 91.0049 192.815 92.4816 192.045 93.9421C191.85 94.2432 191.539 94.4728 191.167 94.5887C190.796 94.7046 190.389 94.6991 190.022 94.5733C189.853 94.5046 189.711 94.395 189.611 94.2574C189.511 94.1199 189.458 93.9601 189.458 93.797C189.282 92.4267 189.13 91.0552 188.982 89.6823C188.957 89.5235 188.964 89.3621 189.002 89.2053L188.998 89.2085Z" fill="white"/>
</g>
<defs>
<filter id="filter0_d_167_9" x="162.812" y="43.5" width="26.375" height="26.375" filterUnits="userSpaceOnUse" color-interpolation-filters="sRGB">
<feFlood flood-opacity="0" result="BackgroundImageFix"/>
<feColorMatrix in="SourceAlpha" type="matrix" values="0 0 0 0 0 0 0 0 0 0 0 0 0 0 0 0 0 0 127 0" result="hardAlpha"/>
<feOffset dy="0.5"/>
<feGaussianBlur stdDeviation="0.5"/>
<feComposite in2="hardAlpha" operator="out"/>
<feColorMatrix type="matrix" values="0 0 0 0 0 0 0 0 0 0 0 0 0 0 0 0 0 0 0.199474 0"/>
<feBlend mode="normal" in2="BackgroundImageFix" result="effect1_dropShadow_167_9"/>
<feBlend mode="normal" in="SourceGraphic" in2="effect1_dropShadow_167_9" result="shape"/>
</filter>
<filter id="filter1_d_167_9" x="169.312" y="49.1875" width="14.1875" height="15" filterUnits="userSpaceOnUse" color-interpolation-filters="sRGB">
<feFlood flood-opacity="0" result="BackgroundImageFix"/>
<feColorMatrix in="SourceAlpha" type="matrix" values="0 0 0 0 0 0 0 0 0 0 0 0 0 0 0 0 0 0 127 0" result="hardAlpha"/>
<feOffset dy="0.5"/>
<feGaussianBlur stdDeviation="0.5"/>
<feColorMatrix type="matrix" values="0 0 0 0 0 0 0 0 0 0 0 0 0 0 0 0 0 0 0.204257 0"/>
<feBlend mode="normal" in2="BackgroundImageFix" result="effect1_dropShadow_167_9"/>
<feBlend mode="normal" in="SourceGraphic" in2="effect1_dropShadow_167_9" result="shape"/>
</filter>
<linearGradient id="paint0_linear_167_9" x1="1382.56" y1="44" x2="1382.56" y2="2481.5" gradientUnits="userSpaceOnUse">
<stop stop-color="white" stop-opacity="0.5"/>
<stop offset="1" stop-opacity="0.5"/>
</linearGradient>
<clipPath id="clip0_167_9">
<rect width="19" height="25" fill="white" transform="translate(0 45)"/>
</clipPath>
<clipPath id="clip1_167_9">
<rect width="16" height="25" fill="white" transform="translate(53 45)"/>
</clipPath>
<clipPath id="clip2_167_9">
<rect width="26" height="28" fill="white" transform="translate(163 45)"/>
</clipPath>
<clipPath id="clip3_167_9">
<rect width="69" height="23" fill="white" transform="translate(69 78)"/>
</clipPath>
<clipPath id="clip4_167_9">
<rect width="58" height="19" fill="white" transform="translate(143 78)"/>
</clipPath>
</defs>
</svg>
