<svg width="193" height="110" viewBox="0 0 193 110" fill="none" xmlns="http://www.w3.org/2000/svg">
<mask id="mask0_240_8" style="mask-type:luminance" maskUnits="userSpaceOnUse" x="1" y="11" width="21" height="21">
<path d="M21.6562 11.1905H1.5V31.8747H21.6562V11.1905Z" fill="white"/>
</mask>
<g mask="url(#mask0_240_8)">
<path d="M21.3547 24.0344C20.0085 29.5749 14.5396 32.9467 9.13928 31.5651C3.74124 30.1838 0.455112 24.5719 1.80186 19.0319C3.14743 13.4908 8.61641 10.1187 14.015 11.5C19.4149 12.8812 22.701 18.4937 21.3547 24.0344Z" fill="#F7931A"/>
<path d="M16.0226 20.0591C16.2232 18.6828 15.202 17.943 13.8056 17.4495L14.2586 15.5851L13.1526 15.3024L12.7116 17.1176C12.4208 17.0432 12.1222 16.9731 11.8254 16.9036L12.2696 15.0763L11.1643 14.7936L10.711 16.6573C10.4704 16.6011 10.2341 16.5455 10.0048 16.487L10.0061 16.4811L8.48081 16.0903L8.18659 17.3024C8.18659 17.3024 9.00721 17.4954 8.98988 17.5073C9.43779 17.622 9.5188 17.9262 9.50532 18.1673L8.98932 20.2913C9.02018 20.2993 9.06018 20.3109 9.10427 20.3291C9.06742 20.3197 9.02812 20.3094 8.98736 20.2994L8.26413 23.2747C8.2094 23.4143 8.07044 23.6239 7.7573 23.5443C7.76839 23.5608 6.95342 23.3385 6.95342 23.3385L6.4043 24.6376L7.84362 25.0057C8.11139 25.0746 8.3738 25.1467 8.63217 25.2145L8.1745 27.1002L9.27925 27.383L9.73252 25.5173C10.0343 25.6014 10.3272 25.6789 10.6139 25.752L10.1622 27.6089L11.2683 27.8917L11.7259 26.0095C13.612 26.3757 15.0301 26.2281 15.627 24.4777C16.108 23.0685 15.603 22.2556 14.6108 21.7255C15.3335 21.5545 15.8775 21.0666 16.0226 20.0591ZM13.4956 23.6951C13.1538 25.1044 10.8413 24.3425 10.0915 24.1515L10.6989 21.6533C11.4486 21.8453 13.8528 22.2254 13.4956 23.6951ZM13.8376 20.0387C13.5258 21.3206 11.6011 20.6694 10.9768 20.5096L11.5274 18.2439C12.1518 18.4036 14.1624 18.7016 13.8376 20.0387Z" fill="white"/>
</g>
<path fill-rule="evenodd" clip-rule="evenodd" d="M34.5095 12.1805L30.4872 20.8943C30.4719 20.9267 30.4671 20.9634 30.4734 20.9988C30.4797 21.0343 30.4969 21.0667 30.5223 21.0914L41.3854 31.8275C41.4163 31.858 41.4574 31.875 41.5001 31.875C41.5429 31.875 41.584 31.858 41.6148 31.8275L52.4779 21.0921C52.5034 21.0674 52.5205 21.0349 52.5268 20.9995C52.5331 20.964 52.5283 20.9274 52.513 20.895L48.4908 12.1812C48.4778 12.152 48.4569 12.1272 48.4306 12.1098C48.4044 12.0925 48.3738 12.0833 48.3426 12.0834H34.6589C34.6276 12.083 34.5968 12.0919 34.5703 12.1092C34.5438 12.1264 34.5226 12.1512 34.5095 12.1805Z" fill="#50AF95"/>
<path fill-rule="evenodd" clip-rule="evenodd" d="M42.8464 21.6753C42.7712 21.6809 42.3827 21.7041 41.516 21.7041C40.8266 21.7041 40.3371 21.6835 40.1654 21.6753C37.5013 21.5582 35.5128 21.0949 35.5128 20.5402C35.5128 19.9855 37.5013 19.5228 40.1654 19.4038V21.2139C40.3396 21.2264 40.8385 21.2558 41.5279 21.2558C42.3551 21.2558 42.7694 21.2214 42.8439 21.2145V19.4051C45.5024 19.5234 47.4865 19.9867 47.4865 20.5402C47.4865 21.0937 45.503 21.557 42.8439 21.6747L42.8464 21.6753ZM42.8464 19.2179V17.5982H46.5565V15.1282H36.4553V17.5982H40.1648V19.2173C37.1497 19.3556 34.8823 19.9523 34.8823 20.6673C34.8823 21.3823 37.1497 21.9783 40.1648 22.1173V27.3077H42.8458V22.1155C45.854 21.9771 48.1176 21.381 48.1176 20.6667C48.1176 19.9523 45.8559 19.3562 42.8458 19.2173L42.8464 19.2179Z" fill="white"/>
<g clip-path="url(#clip0_240_8)">
<path d="M66.9977 7L66.823 7.56954V24.0964L66.9977 24.2637L74.9953 19.729L66.9977 7Z" fill="#343434"/>
<path d="M66.9976 7L59 19.729L66.9976 24.2637V16.2421V7Z" fill="#8C8C8C"/>
<path d="M66.9976 25.7162L66.8992 25.8313V31.7186L66.9976 31.9944L75 21.1839L66.9976 25.7162Z" fill="#3C3C3B"/>
<path d="M66.9976 31.9943V25.7161L59 21.1838L66.9976 31.9943Z" fill="#8C8C8C"/>
<path d="M66.9976 24.2637L74.9951 19.7291L66.9976 16.2421V24.2637Z" fill="#141414"/>
<path d="M59 19.7291L66.9975 24.2637V16.2421L59 19.7291Z" fill="#393939"/>
</g>
<path d="M92.5374 32.8985C99.4092 32.8985 104.975 27.7846 104.975 21.479C104.975 15.1734 99.4092 10.0596 92.5374 10.0596C85.6657 10.0596 80.0996 15.1734 80.0996 21.479C80.0996 27.7846 85.6704 32.8985 92.5374 32.8985Z" fill="#FF060A"/>
<path d="M99.5331 19.4289C98.8469 18.8444 97.8938 17.9541 97.1218 17.324L97.0741 17.2966C96.9979 17.2418 96.9121 17.1961 96.8215 17.1642C94.9535 16.8446 86.2613 15.3515 86.0945 15.3698C86.0469 15.3743 85.9992 15.3926 85.9611 15.4154L85.9182 15.4474C85.8658 15.4976 85.8229 15.557 85.7991 15.6255L85.7896 15.6529V15.8035V15.8264C86.7665 18.3285 90.6312 26.5198 91.3937 28.4466C91.4414 28.579 91.5272 28.8256 91.6892 28.8393H91.7273C91.8131 28.8393 92.1848 28.3872 92.1848 28.3872C92.1848 28.3872 98.823 20.9996 99.495 20.2142C99.5807 20.1183 99.657 20.0133 99.7237 19.9037C99.7428 19.817 99.7332 19.7302 99.6999 19.6481C99.6665 19.5659 99.6046 19.4882 99.5331 19.4289ZM93.8813 20.2918L96.7119 18.1367L98.3751 19.543L93.8813 20.2918ZM92.7805 20.1503L87.9054 16.4793L95.797 17.8171L92.7805 20.1503ZM93.2189 21.1091L98.2083 20.3695L92.5041 26.6842L93.2189 21.1091ZM87.243 16.8491L92.3754 20.8443L91.632 26.6887L87.243 16.8491Z" fill="white"/>
<mask id="mask1_240_8" style="mask-type:luminance" maskUnits="userSpaceOnUse" x="111" y="10" width="22" height="22">
<path d="M132.5 10.7227H111.5V31.7911H132.5V10.7227Z" fill="white"/>
</mask>
<g mask="url(#mask1_240_8)">
<path d="M122 30.6509C127.172 30.6509 131.364 26.4451 131.364 21.2569C131.364 16.0687 127.172 11.8628 122 11.8628C116.829 11.8628 112.637 16.0687 112.637 21.2569C112.637 26.4451 116.829 30.6509 122 30.6509Z" fill="white"/>
<path d="M122 10.7227C119.923 10.7227 117.893 11.3405 116.167 12.4981C114.44 13.6556 113.094 15.3008 112.299 17.2257C111.505 19.1505 111.297 21.2686 111.702 23.312C112.107 25.3554 113.107 27.2325 114.575 28.7057C116.044 30.1789 117.915 31.1822 119.952 31.5887C121.988 31.9951 124.1 31.7866 126.018 30.9893C127.937 30.192 129.577 28.8417 130.73 27.1094C131.884 25.377 132.5 23.3404 132.5 21.2569C132.504 19.8776 132.237 18.5109 131.715 17.235C131.192 15.9591 130.424 14.799 129.455 13.8208C128.486 12.8426 127.334 12.0655 126.065 11.534C124.797 11.0024 123.436 10.7267 122.061 10.7227H122ZM122.178 21.614L121.085 25.3125H126.932C126.971 25.3111 127.01 25.3174 127.046 25.331C127.082 25.3446 127.115 25.3653 127.144 25.3919C127.172 25.4184 127.195 25.4503 127.211 25.4857C127.227 25.521 127.236 25.5593 127.237 25.5981V25.695L126.729 27.455C126.706 27.5383 126.656 27.6113 126.587 27.6623C126.518 27.7133 126.433 27.7391 126.347 27.7356H117.398L118.898 22.6088L117.22 23.1189L117.602 21.9456L119.28 21.4355L121.39 14.2426C121.413 14.1599 121.463 14.0873 121.532 14.0364C121.601 13.9856 121.686 13.9594 121.771 13.962H124.034C124.073 13.9607 124.111 13.967 124.148 13.9806C124.184 13.9942 124.217 14.0149 124.245 14.0414C124.274 14.068 124.297 14.0998 124.313 14.1352C124.329 14.1706 124.338 14.2089 124.339 14.2477V14.3446L122.559 20.4152L124.237 19.905L123.881 21.1294L122.178 21.614Z" fill="#345D9D"/>
</g>
<g clip-path="url(#clip1_240_8)">
<g filter="url(#filter0_d_240_8)">
<path d="M150.5 31.5625C156.454 31.5625 161.281 26.7356 161.281 20.7812C161.281 14.8269 156.454 10 150.5 10C144.546 10 139.719 14.8269 139.719 20.7812C139.719 26.7356 144.546 31.5625 150.5 31.5625Z" fill="black"/>
</g>
<path d="M150.5 31.5625C156.454 31.5625 161.281 26.7356 161.281 20.7812C161.281 14.8269 156.454 10 150.5 10C144.546 10 139.719 14.8269 139.719 20.7812C139.719 26.7356 144.546 31.5625 150.5 31.5625Z" fill="#23292F"/>
<path style="mix-blend-mode:soft-light" d="M150.5 31.5625C156.454 31.5625 161.281 26.7356 161.281 20.7812C161.281 14.8269 156.454 10 150.5 10C144.546 10 139.719 14.8269 139.719 20.7812C139.719 26.7356 144.546 31.5625 150.5 31.5625Z" fill="url(#paint0_linear_240_8)"/>
<path d="M150.5 31.2031C156.256 31.2031 160.922 26.5371 160.922 20.7812C160.922 15.0254 156.256 10.3594 150.5 10.3594C144.744 10.3594 140.078 15.0254 140.078 20.7812C140.078 26.5371 144.744 31.2031 150.5 31.2031Z" stroke="black" stroke-opacity="0.097"/>
<path d="M155.074 15.75H156.943L153.052 19.6035C151.642 20.9983 149.358 20.9983 147.948 19.6035L144.054 15.75H145.926L148.883 18.6761C149.775 19.5605 151.223 19.5605 152.115 18.6761L155.074 15.75Z" fill="white"/>
<path d="M145.904 26.4639H144.031L147.948 22.5877C149.358 21.1928 151.642 21.1928 153.052 22.5877L156.969 26.4639H155.096L152.117 23.5125C151.225 22.6281 149.777 22.6281 148.885 23.5125L145.904 26.4639Z" fill="white"/>
</g>
<g clip-path="url(#clip2_240_8)">
<path d="M173.305 20.9206C173.256 21.8032 173.912 22.5587 174.765 22.6095C174.795 22.6095 174.826 22.6095 174.857 22.6095C175.715 22.6095 176.409 21.8921 176.402 21.0032C176.402 20.1143 175.709 19.3968 174.851 19.4032C174.029 19.4032 173.348 20.0698 173.305 20.9206Z" fill="#0033AD"/>
<path d="M167.527 20.5079C167.251 20.4889 167.012 20.7111 167 20.9968C166.988 21.2825 167.196 21.5302 167.472 21.5429C167.748 21.5619 167.981 21.3397 168 21.054C168.018 20.7682 167.803 20.527 167.527 20.5079Z" fill="#0033AD"/>
<path d="M173.207 11.6127C173.452 11.4857 173.55 11.1683 173.428 10.9143C173.305 10.6603 172.998 10.5587 172.753 10.6857C172.508 10.8127 172.41 11.1238 172.532 11.3778C172.655 11.6381 172.956 11.746 173.207 11.6127Z" fill="#0033AD"/>
<path d="M174.777 14.4508C175.157 14.254 175.311 13.7714 175.121 13.3778C174.93 12.9841 174.464 12.8254 174.084 13.0222C173.704 13.219 173.55 13.7016 173.741 14.0952C173.931 14.4889 174.397 14.6476 174.777 14.4508Z" fill="#0033AD"/>
<path d="M169.49 16.4C169.785 16.5968 170.177 16.5143 170.373 16.2095C170.564 15.9048 170.484 15.4984 170.189 15.2952C169.895 15.0984 169.502 15.1809 169.306 15.4857C169.11 15.7905 169.196 16.2032 169.49 16.4Z" fill="#0033AD"/>
<path d="M170.429 20.2222C169.999 20.1968 169.637 20.5333 169.613 20.9778C169.588 21.4222 169.913 21.7968 170.343 21.8222C170.772 21.8476 171.134 21.5111 171.158 21.0667C171.183 20.6286 170.858 20.2476 170.429 20.2222Z" fill="#0033AD"/>
<path d="M169.576 25.6C169.263 25.7651 169.134 26.1587 169.294 26.4889C169.453 26.8127 169.834 26.946 170.153 26.7809C170.465 26.6159 170.594 26.2222 170.435 25.8921C170.275 25.5682 169.889 25.4349 169.576 25.6Z" fill="#0033AD"/>
<path d="M172.581 18.5651C173.005 18.8508 173.569 18.7302 173.839 18.2921C174.115 17.854 173.998 17.2698 173.575 16.9905C173.152 16.7048 172.588 16.8254 172.318 17.2635C172.042 17.6952 172.158 18.2794 172.581 18.5651Z" fill="#0033AD"/>
<path d="M182.119 14.3873C182.474 14.6286 182.959 14.527 183.192 14.1587C183.425 13.7905 183.327 13.2889 182.971 13.0476C182.615 12.8063 182.131 12.9079 181.898 13.2762C181.659 13.6508 181.757 14.146 182.119 14.3873Z" fill="#0033AD"/>
<path d="M183.701 11.5619C183.934 11.7206 184.241 11.6508 184.394 11.4095C184.548 11.1682 184.48 10.8508 184.247 10.692C184.014 10.5333 183.707 10.6032 183.554 10.8381C183.407 11.0794 183.474 11.4032 183.701 11.5619Z" fill="#0033AD"/>
<path d="M182.235 19.3905C181.383 19.3397 180.647 20.019 180.604 20.9016C180.555 21.7841 181.211 22.546 182.063 22.5905C182.094 22.5905 182.125 22.5905 182.149 22.5905C183.002 22.5905 183.695 21.873 183.695 20.9841C183.701 20.1397 183.057 19.4349 182.235 19.3905Z" fill="#0033AD"/>
<path d="M175.286 18.4508C175.55 18.9905 176.083 19.3333 176.672 19.3333C177.525 19.3333 178.218 18.6159 178.218 17.727C178.218 17.4794 178.163 17.2317 178.052 17.0032C177.666 16.2095 176.734 15.8921 175.973 16.2921C175.206 16.6984 174.9 17.6635 175.286 18.4508Z" fill="#0033AD"/>
<path d="M187.424 16.4C187.737 16.2349 187.86 15.8349 187.7 15.5111C187.541 15.1873 187.154 15.0603 186.841 15.2254C186.529 15.3905 186.406 15.7841 186.559 16.1079C186.725 16.4317 187.105 16.5651 187.424 16.4Z" fill="#0033AD"/>
<path d="M183.499 16.9079C183.051 17.1428 182.867 17.7079 183.094 18.1714C183.321 18.6349 183.867 18.8254 184.314 18.5905C184.762 18.3555 184.946 17.7905 184.719 17.327C184.492 16.8635 183.946 16.6794 183.499 16.9079Z" fill="#0033AD"/>
<path d="M178.439 11.3206C178.788 11.3397 179.089 11.0603 179.113 10.6984C179.138 10.3365 178.862 10.0254 178.512 9.99999C178.163 9.98095 177.862 10.254 177.838 10.6159C177.819 10.9841 178.089 11.2952 178.439 11.3206Z" fill="#0033AD"/>
<path d="M178.433 15.4667C178.935 15.4984 179.365 15.0984 179.389 14.5778C179.42 14.0571 179.034 13.6127 178.531 13.5873C178.028 13.5555 177.598 13.9555 177.574 14.4762C177.549 14.9968 177.93 15.4413 178.433 15.4667Z" fill="#0033AD"/>
<path d="M173.501 25.0921C173.949 24.8571 174.133 24.2921 173.906 23.8286C173.679 23.3651 173.133 23.1746 172.686 23.4095C172.238 23.6444 172.054 24.2095 172.281 24.673C172.508 25.1365 173.054 25.327 173.501 25.0921Z" fill="#0033AD"/>
<path d="M179.021 16.8444C178.555 17.5873 178.751 18.5778 179.469 19.0603C180.187 19.5428 181.143 19.3397 181.61 18.5968C182.076 17.854 181.879 16.8635 181.162 16.3809C180.91 16.2095 180.616 16.1206 180.315 16.1206C179.794 16.1206 179.31 16.3936 179.021 16.8444Z" fill="#0033AD"/>
<path d="M181.714 23.5492C181.328 22.7555 180.395 22.4381 179.635 22.8381C178.868 23.2381 178.561 24.2032 178.948 24.9905C179.334 25.7841 180.266 26.1016 181.027 25.7016C181.788 25.3079 182.1 24.3555 181.72 23.5619C181.72 23.5555 181.72 23.5555 181.714 23.5492Z" fill="#0033AD"/>
<path d="M184.419 23.4349C183.996 23.1492 183.431 23.2698 183.161 23.7079C182.885 24.146 183.002 24.7301 183.425 25.0095C183.848 25.2952 184.413 25.1746 184.683 24.7365C184.959 24.3048 184.842 23.7206 184.419 23.4349Z" fill="#0033AD"/>
<path d="M187.387 21.0286C187.412 20.5841 187.087 20.2095 186.657 20.1841C186.228 20.1587 185.866 20.4952 185.842 20.9397C185.817 21.3841 186.142 21.7587 186.572 21.7841C186.995 21.8095 187.363 21.4667 187.387 21.0286Z" fill="#0033AD"/>
<path d="M189.528 20.4571C189.252 20.4381 189.013 20.6603 189 20.946C188.988 21.2317 189.197 21.4794 189.473 21.4921C189.749 21.5111 189.982 21.2889 190 21.0032C190.012 20.7175 189.804 20.4762 189.528 20.4571Z" fill="#0033AD"/>
<path d="M187.51 25.6C187.216 25.4032 186.823 25.4857 186.627 25.7905C186.437 26.0952 186.516 26.5016 186.811 26.7048C187.105 26.9016 187.498 26.819 187.694 26.5143C187.89 26.2095 187.804 25.7968 187.51 25.6Z" fill="#0033AD"/>
<path d="M173.293 30.4381C173.06 30.2794 172.753 30.3492 172.6 30.5841C172.446 30.8254 172.514 31.1428 172.741 31.3016C172.974 31.4603 173.281 31.3905 173.434 31.1555C173.593 30.9206 173.526 30.5968 173.293 30.4381Z" fill="#0033AD"/>
<path d="M183.793 30.3873C183.548 30.5143 183.45 30.8317 183.572 31.0857C183.695 31.3397 184.002 31.4413 184.247 31.3143C184.492 31.1873 184.59 30.8762 184.468 30.6222C184.345 30.3619 184.045 30.254 183.793 30.3873Z" fill="#0033AD"/>
<path d="M177.979 25.1555C178.445 24.4127 178.249 23.4222 177.531 22.9333C176.813 22.4508 175.857 22.654 175.384 23.3968C174.912 24.1397 175.115 25.1302 175.832 25.619C176.084 25.7905 176.378 25.8794 176.679 25.8794C177.206 25.8857 177.691 25.6127 177.979 25.1555Z" fill="#0033AD"/>
<path d="M174.881 27.6127C174.526 27.3714 174.041 27.473 173.808 27.8413C173.575 28.2095 173.673 28.7111 174.029 28.9524C174.385 29.1936 174.869 29.0921 175.102 28.7238C175.341 28.3556 175.243 27.854 174.881 27.6127Z" fill="#0033AD"/>
<path d="M178.494 30.6794C178.144 30.6603 177.844 30.9397 177.819 31.3016C177.795 31.6635 178.071 31.9746 178.42 32C178.77 32.019 179.07 31.746 179.095 31.3841C179.113 31.0159 178.843 30.7048 178.494 30.6794Z" fill="#0033AD"/>
<path d="M178.5 26.5333C177.997 26.5016 177.568 26.9016 177.543 27.4222C177.513 27.9428 177.899 28.3873 178.402 28.4127C178.905 28.4381 179.334 28.0444 179.359 27.5238C179.389 27.0095 179.003 26.5587 178.5 26.5333Z" fill="#0033AD"/>
<path d="M182.223 27.5492C181.843 27.7524 181.689 28.2349 181.886 28.6286C182.082 29.0222 182.548 29.181 182.928 28.9778C183.309 28.781 183.462 28.2984 183.272 27.9048C183.075 27.5111 182.609 27.346 182.223 27.5492Z" fill="#0033AD"/>
</g>
<g clip-path="url(#clip3_240_8)">
<g filter="url(#filter1_d_240_8)">
<path d="M11.5 61.8705C17.4543 61.8705 22.2812 56.9986 22.2812 50.9888C22.2812 44.979 17.4543 40.1071 11.5 40.1071C5.54568 40.1071 0.71875 44.979 0.71875 50.9888C0.71875 56.9986 5.54568 61.8705 11.5 61.8705Z" fill="black"/>
</g>
<path d="M11.5 61.8705C17.4543 61.8705 22.2812 56.9986 22.2812 50.9888C22.2812 44.979 17.4543 40.1071 11.5 40.1071C5.54568 40.1071 0.71875 44.979 0.71875 50.9888C0.71875 56.9986 5.54568 61.8705 11.5 61.8705Z" fill="#C3A634"/>
<path style="mix-blend-mode:soft-light" d="M11.5 61.8705C17.4543 61.8705 22.2812 56.9986 22.2812 50.9888C22.2812 44.979 17.4543 40.1071 11.5 40.1071C5.54568 40.1071 0.71875 44.979 0.71875 50.9888C0.71875 56.9986 5.54568 61.8705 11.5 61.8705Z" fill="url(#paint1_linear_240_8)"/>
<path d="M11.5 61.5078C17.2558 61.5078 21.9219 56.7983 21.9219 50.9888C21.9219 45.1794 17.2558 40.4699 11.5 40.4699C5.74416 40.4699 1.07812 45.1794 1.07812 50.9888C1.07812 56.7983 5.74416 61.5078 11.5 61.5078Z" stroke="black" stroke-opacity="0.097"/>
<g filter="url(#filter2_d_240_8)">
<path d="M9.52185 49.9809H12.6226V51.6391H9.52185V55.1343H11.4777C12.2516 55.1343 12.885 55.0286 13.378 54.8172C13.8709 54.6059 14.2579 54.3133 14.5388 53.9394C14.8197 53.5655 15.0105 53.1266 15.1112 52.6226C15.212 52.1187 15.2623 51.5741 15.2623 50.9888C15.2623 50.4036 15.212 49.859 15.1112 49.3551C15.0105 48.8511 14.8197 48.4122 14.5388 48.0383C14.2579 47.6644 13.8709 47.3718 13.378 47.1604C12.885 46.9491 12.2516 46.8434 11.4777 46.8434H9.52185V49.9809ZM7.53415 51.6391H6.46875V49.9809H7.53415V45.1853H12.241C13.1103 45.1853 13.863 45.337 14.499 45.6405C15.1351 45.9439 15.6545 46.3584 16.0574 46.8841C16.4602 47.4097 16.7597 48.0247 16.9558 48.7292C17.1519 49.4336 17.25 50.1869 17.25 50.9888C17.25 51.7908 17.1519 52.544 16.9558 53.2485C16.7597 53.9529 16.4602 54.568 16.0574 55.0936C15.6545 55.6192 15.1351 56.0338 14.499 56.3372C13.863 56.6407 13.1103 56.7924 12.241 56.7924H7.53415V51.6391Z" fill="black"/>
</g>
<path d="M9.52185 49.9809H12.6226V51.6391H9.52185V55.1343H11.4777C12.2516 55.1343 12.885 55.0286 13.378 54.8172C13.8709 54.6059 14.2579 54.3133 14.5388 53.9394C14.8197 53.5655 15.0105 53.1266 15.1112 52.6226C15.212 52.1187 15.2623 51.5741 15.2623 50.9888C15.2623 50.4036 15.212 49.859 15.1112 49.3551C15.0105 48.8511 14.8197 48.4122 14.5388 48.0383C14.2579 47.6644 13.8709 47.3718 13.378 47.1604C12.885 46.9491 12.2516 46.8434 11.4777 46.8434H9.52185V49.9809ZM7.53415 51.6391H6.46875V49.9809H7.53415V45.1853H12.241C13.1103 45.1853 13.863 45.337 14.499 45.6405C15.1351 45.9439 15.6545 46.3584 16.0574 46.8841C16.4602 47.4097 16.7597 48.0247 16.9558 48.7292C17.1519 49.4336 17.25 50.1869 17.25 50.9888C17.25 51.7908 17.1519 52.544 16.9558 53.2485C16.7597 53.9529 16.4602 54.568 16.0574 55.0936C15.6545 55.6192 15.1351 56.0338 14.499 56.3372C13.863 56.6407 13.1103 56.7924 12.241 56.7924H7.53415V51.6391Z" fill="white"/>
</g>
<g clip-path="url(#clip4_240_8)">
<g filter="url(#filter3_d_240_8)">
<path d="M39 61.625C44.6954 61.625 49.3125 57.0079 49.3125 51.3125C49.3125 45.6171 44.6954 41 39 41C33.3046 41 28.6875 45.6171 28.6875 51.3125C28.6875 57.0079 33.3046 61.625 39 61.625Z" fill="black"/>
</g>
<path d="M39 61.625C44.6954 61.625 49.3125 57.0079 49.3125 51.3125C49.3125 45.6171 44.6954 41 39 41C33.3046 41 28.6875 45.6171 28.6875 51.3125C28.6875 57.0079 33.3046 61.625 39 61.625Z" fill="#F3BA2F"/>
<path style="mix-blend-mode:soft-light" d="M39 61.625C44.6954 61.625 49.3125 57.0079 49.3125 51.3125C49.3125 45.6171 44.6954 41 39 41C33.3046 41 28.6875 45.6171 28.6875 51.3125C28.6875 57.0079 33.3046 61.625 39 61.625Z" fill="url(#paint2_linear_240_8)"/>
<path d="M39 61.2812C44.5056 61.2812 48.9688 56.8181 48.9688 51.3125C48.9688 45.8069 44.5056 41.3438 39 41.3438C33.4944 41.3438 29.0312 45.8069 29.0312 51.3125C29.0312 56.8181 33.4944 61.2812 39 61.2812Z" stroke="black" stroke-opacity="0.097"/>
<g filter="url(#filter4_d_240_8)">
<path d="M36.3296 50.2154L38.9999 47.5452L41.6715 50.2168L43.2252 48.663L38.9999 44.4375L34.776 48.6616L36.3296 50.2154ZM32.125 51.3123L33.6788 49.7585L35.2325 51.3122L33.6787 52.866L32.125 51.3123ZM36.3296 52.4096L38.9999 55.0798L41.6714 52.4083L43.226 53.9612L43.2252 53.9621L38.9999 58.1875L34.7758 53.9635L34.7736 53.9613L36.3296 52.4096ZM42.7675 51.3131L44.3213 49.7593L45.875 51.313L44.3212 52.8668L42.7675 51.3131ZM40.5758 51.3117L40.5773 51.3124L40.5765 51.3133L38.9999 52.89L37.4247 51.3147L37.4225 51.3124L37.4247 51.3103L37.7008 51.0341L37.8346 50.9002H37.8347L38.9999 49.735L40.5765 51.3117H40.5758Z" fill="black"/>
</g>
<path d="M36.3296 50.2154L38.9999 47.5452L41.6715 50.2168L43.2252 48.663L38.9999 44.4375L34.776 48.6616L36.3296 50.2154ZM32.125 51.3123L33.6788 49.7585L35.2325 51.3122L33.6787 52.866L32.125 51.3123ZM36.3296 52.4096L38.9999 55.0798L41.6714 52.4083L43.226 53.9612L43.2252 53.9621L38.9999 58.1875L34.7758 53.9635L34.7736 53.9613L36.3296 52.4096ZM42.7675 51.3131L44.3213 49.7593L45.875 51.313L44.3212 52.8668L42.7675 51.3131ZM40.5758 51.3117L40.5773 51.3124L40.5765 51.3133L38.9999 52.89L37.4247 51.3147L37.4225 51.3124L37.4247 51.3103L37.7008 51.0341L37.8346 50.9002H37.8347L38.9999 49.735L40.5765 51.3117H40.5758Z" fill="white"/>
</g>
<g clip-path="url(#clip5_240_8)">
<path d="M65.5 62C71.299 62 76 57.299 76 51.5C76 45.701 71.299 41 65.5 41C59.701 41 55 45.701 55 51.5C55 57.299 59.701 62 65.5 62Z" fill="#8247E5"/>
<path d="M69.1003 49.1398C68.8448 48.994 68.5158 48.994 68.223 49.1398L66.1761 50.3462L64.7877 51.1138L62.777 52.3202C62.5209 52.466 62.1919 52.466 61.8997 52.3202L60.3276 51.3693C60.1941 51.2907 60.0834 51.1785 60.0064 51.044C59.9295 50.9095 59.889 50.7572 59.8889 50.6022V48.7747C59.8889 48.4818 60.0348 48.1896 60.3276 48.007L61.8997 47.0929C62.1552 46.9471 62.4842 46.9471 62.777 47.0929L64.3485 48.0437C64.6046 48.1896 64.7872 48.4818 64.7872 48.8108V50.0172L66.1761 49.2133V47.9708C66.1761 47.678 66.0302 47.3852 65.7374 47.2026L62.8132 45.4847C62.5577 45.3388 62.2287 45.3388 61.9358 45.4847L58.9387 47.2393C58.6464 47.3852 58.5 47.678 58.5 47.9702V51.4061C58.5 51.6989 58.6458 51.9912 58.9387 52.1737L61.8997 53.8922C62.1552 54.0381 62.4842 54.0381 62.777 53.8922L64.7872 52.7221L66.1761 51.9182L68.1868 50.7481C68.4423 50.6022 68.7713 50.6022 69.0642 50.7481L70.6357 51.6622C70.8918 51.808 71.0743 52.1008 71.0743 52.4298V54.2574C71.0743 54.5497 70.9285 54.8425 70.6357 55.0251L69.1003 55.9392C68.8448 56.085 68.5158 56.085 68.223 55.9392L66.6515 55.0251C66.5179 54.9464 66.4071 54.8342 66.3302 54.6995C66.2533 54.5649 66.2128 54.4125 66.2128 54.2574V53.0878L64.8233 53.8917V55.0974C64.8233 55.3902 64.9692 55.6825 65.262 55.8651L68.2224 57.5836C68.4785 57.7294 68.8075 57.7294 69.0997 57.5836L72.0607 55.8651C72.3168 55.7192 72.4994 55.4264 72.4994 55.0974V51.6248C72.4994 51.3332 72.3536 51.0403 72.0607 50.8572L69.0997 49.1392L69.1003 49.1398Z" fill="white"/>
</g>
<g clip-path="url(#clip6_240_8)">
<path d="M92.5 64C98.873 64 104 58.873 104 52.5C104 46.127 98.873 41 92.5 41C86.127 41 81 46.127 81 52.5C81 58.873 86.127 64 92.5 64Z" fill="#2775CA"/>
<path d="M95.6625 54.3208C95.6625 52.6437 94.6562 52.0687 92.6437 51.8292C91.2062 51.6375 90.9187 51.2542 90.9187 50.5833C90.9187 49.9124 91.3979 49.4812 92.3562 49.4812C93.2187 49.4812 93.6979 49.7687 93.9375 50.4875C93.9854 50.6312 94.1292 50.727 94.273 50.727H95.0395C95.2312 50.727 95.375 50.5833 95.375 50.3917V50.3437C95.1833 49.2895 94.3208 48.475 93.2187 48.3792V47.2292C93.2187 47.0375 93.075 46.8937 92.8355 46.8458H92.1167C91.925 46.8458 91.7812 46.9895 91.7333 47.2292V48.3312C90.2958 48.523 89.3854 49.4812 89.3854 50.6792C89.3854 52.2605 90.3437 52.8833 92.3562 53.123C93.6979 53.3625 94.1292 53.65 94.1292 54.4167C94.1292 55.1834 93.4583 55.7105 92.5479 55.7105C91.302 55.7105 90.8708 55.1833 90.727 54.4645C90.6792 54.273 90.5354 54.177 90.3917 54.177H89.577C89.3854 54.177 89.2417 54.3208 89.2417 54.5125V54.5605C89.4333 55.7583 90.2 56.6208 91.7812 56.8605V58.0105C91.7812 58.202 91.925 58.3458 92.1645 58.3938H92.8833C93.075 58.3938 93.2187 58.25 93.2667 58.0105V56.8605C94.7042 56.6208 95.6625 55.6145 95.6625 54.3208Z" fill="white"/>
<path d="M90.0562 59.352C86.3187 58.0105 84.402 53.8417 85.7917 50.152C86.5104 48.1395 88.0917 46.6062 90.0562 45.8875C90.2479 45.7917 90.3437 45.648 90.3437 45.4083V44.7375C90.3437 44.5458 90.2479 44.402 90.0562 44.3542C90.0083 44.3542 89.9125 44.3542 89.8645 44.402C85.3125 45.8395 82.8208 50.6792 84.2583 55.2312C85.1208 57.9145 87.1812 59.975 89.8645 60.8375C90.0562 60.9333 90.2479 60.8375 90.2958 60.6458C90.3437 60.598 90.3437 60.55 90.3437 60.4542V59.7833C90.3437 59.6395 90.2 59.448 90.0562 59.352ZM95.1354 44.402C94.9437 44.3062 94.752 44.402 94.7042 44.5937C94.6562 44.6417 94.6562 44.6895 94.6562 44.7855V45.4562C94.6562 45.648 94.8 45.8395 94.9437 45.9355C98.6812 47.277 100.598 51.4458 99.2083 55.1355C98.4895 57.148 96.9083 58.6812 94.9437 59.4C94.752 59.4958 94.6562 59.6395 94.6562 59.8792V60.55C94.6562 60.7417 94.752 60.8855 94.9437 60.9333C94.9917 60.9333 95.0875 60.9333 95.1354 60.8855C99.6875 59.448 102.179 54.6083 100.742 50.0562C99.8792 47.325 97.7708 45.2645 95.1354 44.402Z" fill="white"/>
</g>
<path d="M129.648 43.6742L122.153 49.241L123.539 45.9567L129.648 43.6742Z" fill="#E2761B" stroke="#E2761B" stroke-linecap="round" stroke-linejoin="round"/>
<path d="M112.345 43.6742L119.78 49.2938L118.461 45.9567L112.345 43.6742ZM126.951 56.5781L124.955 59.6365L129.226 60.8117L130.454 56.6459L126.951 56.5781ZM111.554 56.6459L112.774 60.8117L117.045 59.6365L115.049 56.5781L111.554 56.6459Z" fill="#E4761B" stroke="#E4761B" stroke-linecap="round" stroke-linejoin="round"/>
<path d="M116.804 51.4105L115.614 53.2109L119.855 53.3992L119.704 48.8418L116.804 51.4105ZM125.188 51.4105L122.251 48.7891L122.153 53.3992L126.386 53.2109L125.188 51.4105ZM117.045 59.6365L119.591 58.3936L117.392 56.6761L117.045 59.6365ZM122.401 58.3936L124.955 59.6365L124.601 56.6761L122.401 58.3936Z" fill="#E4761B" stroke="#E4761B" stroke-linecap="round" stroke-linejoin="round"/>
<path d="M124.955 59.6365L122.401 58.3936L122.604 60.0584L122.582 60.7589L124.955 59.6365ZM117.045 59.6365L119.418 60.7589L119.403 60.0584L119.591 58.3936L117.045 59.6365Z" fill="#D7C1B3" stroke="#D7C1B3" stroke-linecap="round" stroke-linejoin="round"/>
<path d="M119.456 55.5763L117.332 54.951L118.831 54.2655L119.456 55.5763ZM122.537 55.5763L123.162 54.2655L124.669 54.951L122.537 55.5763Z" fill="#233447" stroke="#233447" stroke-linecap="round" stroke-linejoin="round"/>
<path d="M117.045 59.6365L117.407 56.5782L115.049 56.646L117.045 59.6365ZM124.593 56.5782L124.955 59.6365L126.951 56.646L124.593 56.5782ZM126.386 53.2109L122.153 53.3993L122.544 55.5763L123.17 54.2656L124.676 54.951L126.386 53.2109ZM117.332 54.951L118.838 54.2656L119.456 55.5763L119.855 53.3993L115.614 53.2109L117.332 54.951Z" fill="#CD6116" stroke="#CD6116" stroke-linecap="round" stroke-linejoin="round"/>
<path d="M115.614 53.2109L117.392 56.6761L117.332 54.951L115.614 53.2109ZM124.676 54.951L124.601 56.6761L126.386 53.2109L124.676 54.951ZM119.855 53.3993L119.456 55.5763L119.953 58.145L120.066 54.7627L119.855 53.3993ZM122.153 53.3993L121.949 54.7552L122.04 58.145L122.544 55.5763L122.153 53.3993Z" fill="#E4751F" stroke="#E4751F" stroke-linecap="round" stroke-linejoin="round"/>
<path d="M122.544 55.5763L122.04 58.145L122.401 58.3936L124.601 56.6761L124.676 54.951L122.544 55.5763ZM117.332 54.951L117.392 56.6761L119.591 58.3936L119.953 58.145L119.456 55.5763L117.332 54.951Z" fill="#F6851B" stroke="#F6851B" stroke-linecap="round" stroke-linejoin="round"/>
<path d="M122.582 60.7589L122.604 60.0584L122.416 59.8927H119.576L119.403 60.0584L119.418 60.7589L117.045 59.6365L117.874 60.3145L119.554 61.4821H122.439L124.126 60.3145L124.955 59.6365L122.582 60.7589Z" fill="#C0AD9E" stroke="#C0AD9E" stroke-linecap="round" stroke-linejoin="round"/>
<path d="M122.401 58.3936L122.04 58.145H119.953L119.591 58.3936L119.403 60.0584L119.576 59.8927H122.416L122.605 60.0584L122.401 58.3936Z" fill="#161616" stroke="#161616" stroke-linecap="round" stroke-linejoin="round"/>
<path d="M129.964 49.6026L130.605 46.5292L129.648 43.6742L122.401 49.0527L125.188 51.4105L129.128 52.5631L130.002 51.5461L129.625 51.2749L130.228 50.725L129.761 50.3635L130.363 49.9039L129.964 49.6026ZM111.396 46.5292L112.036 49.6026L111.629 49.9039L112.232 50.3635L111.772 50.725L112.375 51.2749L111.998 51.5461L112.864 52.5631L116.804 51.4105L119.591 49.0527L112.345 43.6742L111.396 46.5292Z" fill="#763D16" stroke="#763D16" stroke-linecap="round" stroke-linejoin="round"/>
<path d="M129.128 52.5631L125.188 51.4105L126.386 53.2109L124.601 56.6761L126.951 56.6459H130.454L129.128 52.5631ZM116.804 51.4105L112.864 52.5631L111.554 56.6459H115.049L117.392 56.6761L115.614 53.2109L116.804 51.4105ZM122.153 53.3992L122.401 49.0527L123.546 45.9567H118.461L119.591 49.0527L119.855 53.3992L119.945 54.7702L119.953 58.145H122.04L122.055 54.7702L122.153 53.3992Z" fill="#F6851B" stroke="#F6851B" stroke-linecap="round" stroke-linejoin="round"/>
<g clip-path="url(#clip7_240_8)">
<path d="M161.641 55.903C160.038 62.3315 153.526 66.2439 147.096 64.6408C140.669 63.038 136.756 56.5266 138.359 50.0984C139.962 43.6691 146.473 39.7564 152.902 41.3591C159.331 42.9618 163.244 49.474 161.641 55.903Z" fill="#001F31"/>
<path d="M155.723 55.9251C155.074 56.249 154.725 56.8468 154.725 57.6564C154.725 58.7401 155.236 59.4252 156.234 59.6868C157.631 60.0604 159.053 58.7152 158.728 57.3201C158.579 56.66 158.379 56.361 157.868 56.0123C157.307 55.6386 156.384 55.5888 155.723 55.9251Z" fill="#DC1F56"/>
<path d="M147.871 46.3145C146.216 46.5317 144.74 47.4683 144.078 48.69C143.664 49.4774 143.664 51.1878 144.078 51.9615C144.712 53.1426 145.871 53.7534 148.258 54.1878C150.258 54.5543 150.713 54.69 150.879 54.9887C151.072 55.3552 150.686 55.7896 150.024 55.9525C149.003 56.224 146.795 55.6674 145.444 54.7851C145.016 54.5 144.892 54.4728 144.795 54.6222C144.726 54.7172 144.34 55.3416 143.954 56.0068L143.25 57.2149L143.581 57.4864C145.057 58.6674 148.534 59.3733 150.782 58.9525C153.417 58.4638 154.866 56.9163 154.714 54.7308C154.549 52.5453 153.141 51.5 149.499 50.8755C147.996 50.6312 147.568 50.4547 147.568 50.1426C147.568 49.0158 150.589 49.0837 152.203 50.224L152.755 50.6176L153.473 49.3281C153.873 48.6222 154.19 47.957 154.19 47.8756C154.19 47.6312 152.341 46.7624 151.362 46.5317C150.231 46.2602 148.906 46.1787 147.871 46.3145Z" fill="white"/>
</g>
<g clip-path="url(#clip8_240_8)">
<path d="M182.043 50.694C182.225 49.4743 181.296 48.8186 180.026 48.3812L180.438 46.7289L179.432 46.4782L179.031 48.087C178.767 48.0211 178.495 47.9589 178.225 47.8973L178.629 46.278L177.624 46.0273L177.212 47.6791C176.993 47.6292 176.778 47.58 176.57 47.5281L176.571 47.5229L175.183 47.1766L174.916 48.2509C174.916 48.2509 175.662 48.4218 175.646 48.4324C176.054 48.5342 176.127 48.8037 176.115 49.0174L175.646 50.8997C175.674 50.9069 175.71 50.9172 175.75 50.9332C175.717 50.925 175.681 50.9157 175.644 50.9069L174.986 53.5437C174.936 53.6675 174.81 53.8531 174.525 53.7826C174.535 53.7973 173.794 53.6002 173.794 53.6002L173.295 54.7514L174.604 55.0777C174.847 55.1387 175.086 55.2026 175.321 55.2627L174.905 56.934L175.909 57.1846L176.322 55.5312C176.596 55.6057 176.863 55.6744 177.123 55.7392L176.712 57.3848L177.718 57.6355L178.135 55.9675C179.85 56.292 181.14 56.1611 181.682 54.61C182.12 53.361 181.661 52.6405 180.758 52.1707C181.415 52.0192 181.911 51.5869 182.043 50.694ZM179.744 53.9164C179.434 55.1654 177.33 54.4902 176.649 54.3209L177.201 52.1068C177.883 52.277 180.069 52.6139 179.744 53.9164ZM180.055 50.676C179.772 51.8121 178.021 51.2349 177.454 51.0934L177.954 49.0853C178.522 49.2268 180.351 49.4909 180.055 50.676Z" fill="white"/>
<path d="M188.671 54.661C187.201 60.5539 181.232 64.1402 175.338 62.6707C169.446 61.2015 165.859 55.2327 167.33 49.3402C168.798 43.4466 174.767 39.86 180.66 41.3292C186.554 42.7983 190.14 48.7679 188.671 54.661Z" fill="#225C6D"/>
<path d="M185.334 52.3993H177.537M178.658 54.9354H180.928C181.149 54.9353 181.367 54.8832 181.565 54.7831C181.763 54.683 181.934 54.5378 182.065 54.3593L183.083 52.9747M183.083 52.9747C183.214 52.7963 183.385 52.6511 183.583 52.551C183.781 52.451 183.999 52.3988 184.22 52.3987M183.083 52.9747L180.2 56.8953C180.069 57.0742 179.897 57.2194 179.699 57.3194C179.501 57.4194 179.282 57.4713 179.06 57.4708H175.557M171.204 49.8632H170.887M174.109 49.8632H173.792M173.151 57.4708H172.834M183.081 51.8239C183.212 52.0022 183.383 52.1472 183.581 52.2472C183.778 52.3471 183.997 52.3992 184.218 52.3993H185.332M183.081 51.8239L180.2 47.9026C180.069 47.7242 179.897 47.5792 179.7 47.4793C179.502 47.3793 179.284 47.3272 179.063 47.3271H175.557M183.081 51.8239L182.062 50.4386C181.931 50.2602 181.76 50.1151 181.562 50.0151C181.365 49.9152 181.147 49.8631 180.925 49.8632H176.445M173.152 47.3271H172.834M175.586 52.3993H175.269M176.705 54.9354H176.388M174.109 54.9354H173.792M172.991 52.3993H172.676M171.516 54.9354H171.195" stroke="white" stroke-width="1.21107" stroke-miterlimit="10" stroke-linecap="round"/>
</g>
<path d="M74.3288 74.1332C71.3952 74.1332 68.7612 75.6911 68.7612 78.5499C68.7612 81.8424 73.4141 82.0672 73.4141 83.7054C73.4141 84.396 72.6254 85.0224 71.3006 85.0224C69.4079 85.0224 67.9884 84.1551 67.9884 84.1551L67.389 87.0461C67.389 87.0461 69.0136 87.7849 71.1902 87.7849C74.4077 87.7849 76.9313 86.1627 76.9313 83.2397C76.9313 79.7706 72.2627 79.5457 72.2627 78.0199C72.2627 77.4739 72.9093 76.8796 74.2342 76.8796C75.7326 76.8796 76.9628 77.506 76.9628 77.506L77.5622 74.7114C77.5464 74.7114 76.2057 74.1332 74.3288 74.1332ZM47.4529 74.342L47.374 74.7596C47.374 74.7596 48.6043 74.9845 49.7241 75.4502C51.1594 75.9802 51.254 76.2854 51.5064 77.233L54.1403 87.56H57.6733L63.0832 74.342H59.566L56.0803 83.336L54.6608 75.7072C54.5346 74.8399 53.8722 74.342 53.052 74.342H47.4529ZM64.5027 74.342L61.7426 87.56H65.1021L67.8464 74.342H64.5027ZM83.2086 74.342C82.4043 74.342 81.9784 74.7757 81.663 75.5466L76.742 87.56H80.2592L80.9374 85.5524H85.2275L85.6376 87.56H88.7447L86.0477 74.342H83.2086ZM83.666 77.9236L84.707 82.8863H81.9153L83.666 77.9236Z" fill="#1434CB"/>
<path d="M132.775 80.0001C132.775 84.7667 128.997 88.6626 124.274 88.6626C119.597 88.6626 115.773 84.7667 115.773 80.0001C115.773 75.2334 119.552 71.3376 124.229 71.3376C128.997 71.3376 132.775 75.2334 132.775 80.0001Z" fill="#FFB600"/>
<path d="M124.274 71.3376C128.952 71.3376 132.775 75.2334 132.775 80.0001C132.775 84.7667 128.997 88.6626 124.274 88.6626C119.597 88.6626 115.773 84.7667 115.773 80.0001" fill="#F7981D"/>
<path d="M124.274 71.3376C128.952 71.3376 132.775 75.2334 132.775 80.0001C132.775 84.7667 128.997 88.6626 124.274 88.6626" fill="#FF8500"/>
<path d="M112.85 71.3376C108.217 71.3834 104.439 75.2334 104.439 80.0001C104.439 84.7667 108.217 88.6626 112.94 88.6626C115.144 88.6626 117.123 87.7917 118.652 86.4167C118.967 86.1417 119.237 85.8209 119.507 85.5001H117.752C117.527 85.2251 117.303 84.9042 117.123 84.6292H120.136C120.316 84.3542 120.496 84.0334 120.631 83.7125H116.628C116.493 83.4375 116.358 83.1167 116.268 82.7959H120.946C121.216 81.9251 121.396 81.0084 121.396 80.0459C121.396 79.4042 121.306 78.8084 121.216 78.2125H115.998C116.043 77.8917 116.133 77.6167 116.223 77.2959H120.901C120.811 76.9751 120.676 76.6542 120.541 76.3792H116.583C116.718 76.0584 116.898 75.7834 117.078 75.4625H120.091C119.911 75.1417 119.686 74.8209 119.417 74.5459H117.752C118.022 74.2251 118.292 73.9501 118.607 73.6751C117.123 72.2542 115.099 71.4292 112.895 71.4292C112.895 71.3376 112.895 71.3376 112.85 71.3376Z" fill="#FF5050"/>
<path d="M104.439 80C104.439 84.7667 108.217 88.6625 112.94 88.6625C115.144 88.6625 117.123 87.7917 118.652 86.4167C118.967 86.1417 119.237 85.8209 119.507 85.5H117.752C117.527 85.225 117.303 84.9042 117.123 84.6292H120.136C120.316 84.3542 120.496 84.0333 120.631 83.7125H116.628C116.493 83.4375 116.358 83.1167 116.268 82.7959H120.946C121.216 81.925 121.396 81.0083 121.396 80.0459C121.396 79.4042 121.306 78.8083 121.216 78.2125H115.998C116.043 77.8917 116.133 77.6167 116.223 77.2959H120.901C120.811 76.975 120.676 76.6542 120.541 76.3792H116.583C116.718 76.0583 116.898 75.7833 117.078 75.4625H120.091C119.911 75.1417 119.686 74.8209 119.417 74.5459H117.752C118.022 74.225 118.292 73.95 118.607 73.675C117.123 72.2542 115.099 71.4292 112.895 71.4292H112.85" fill="#E52836"/>
<path d="M112.94 88.6625C115.144 88.6625 117.123 87.7917 118.652 86.4167C118.967 86.1417 119.237 85.8209 119.507 85.5H117.753C117.528 85.225 117.303 84.9042 117.123 84.6292H120.136C120.316 84.3542 120.496 84.0333 120.631 83.7125H116.628C116.493 83.4375 116.358 83.1167 116.268 82.7959H120.946C121.216 81.925 121.396 81.0083 121.396 80.0459C121.396 79.4042 121.306 78.8083 121.216 78.2125H115.999C116.043 77.8917 116.133 77.6167 116.223 77.2959H120.901C120.811 76.975 120.676 76.6542 120.541 76.3792H116.583C116.718 76.0583 116.898 75.7833 117.078 75.4625H120.091C119.912 75.1417 119.687 74.8209 119.417 74.5459H117.753C118.023 74.225 118.292 73.95 118.607 73.675C117.123 72.2542 115.099 71.4292 112.895 71.4292H112.85" fill="#CB2026"/>
<path d="M115.953 82.2001L116.088 81.4209C116.043 81.4209 115.953 81.4667 115.863 81.4667C115.548 81.4667 115.503 81.2834 115.548 81.1917L115.818 79.5875H116.313L116.448 78.7167H115.998L116.088 78.1667H115.189C115.189 78.1667 114.649 81.1917 114.649 81.5584C114.649 82.1084 114.964 82.3375 115.369 82.3375C115.638 82.3375 115.863 82.2459 115.953 82.2001ZM116.268 80.7334C116.268 82.0167 117.123 82.3375 117.842 82.3375C118.517 82.3375 118.787 82.2001 118.787 82.2001L118.967 81.3292C118.967 81.3292 118.472 81.5584 118.022 81.5584C117.033 81.5584 117.213 80.8251 117.213 80.8251H119.057C119.057 80.8251 119.192 80.2292 119.192 80.0001C119.192 79.4042 118.877 78.6709 117.887 78.6709C116.943 78.5792 116.268 79.5875 116.268 80.7334ZM117.842 79.4042C118.337 79.4042 118.247 80.0001 118.247 80.0459H117.258C117.258 80.0001 117.348 79.4042 117.842 79.4042ZM123.554 82.2001L123.734 81.1917C123.734 81.1917 123.285 81.4209 122.97 81.4209C122.34 81.4209 122.07 80.9167 122.07 80.3667C122.07 79.2667 122.61 78.6709 123.24 78.6709C123.689 78.6709 124.049 78.9459 124.049 78.9459L124.184 77.9834C124.184 77.9834 123.644 77.7542 123.15 77.7542C122.115 77.7542 121.081 78.6709 121.081 80.4125C121.081 81.5584 121.62 82.3375 122.7 82.3375C123.06 82.3375 123.554 82.2001 123.554 82.2001ZM111.006 78.5792C110.376 78.5792 109.926 78.7625 109.926 78.7625L109.791 79.5417C109.791 79.5417 110.196 79.3584 110.781 79.3584C111.096 79.3584 111.366 79.4042 111.366 79.6792C111.366 79.8625 111.321 79.9084 111.321 79.9084H110.916C110.151 79.9084 109.297 80.2292 109.297 81.2834C109.297 82.1084 109.836 82.2917 110.151 82.2917C110.781 82.2917 111.051 81.8792 111.096 81.8792L111.051 82.2459H111.86L112.22 79.7251C112.22 78.6251 111.321 78.5792 111.006 78.5792ZM111.186 80.6417C111.186 80.7792 111.096 81.5125 110.556 81.5125C110.286 81.5125 110.196 81.2834 110.196 81.1459C110.196 80.9167 110.331 80.5959 111.006 80.5959C111.141 80.6417 111.186 80.6417 111.186 80.6417ZM113.075 82.2917C113.3 82.2917 114.424 82.3375 114.424 81.1001C114.424 79.9542 113.345 80.1834 113.345 79.7251C113.345 79.4959 113.524 79.4042 113.839 79.4042C113.974 79.4042 114.469 79.4501 114.469 79.4501L114.604 78.6251C114.604 78.6251 114.289 78.5334 113.749 78.5334C113.075 78.5334 112.4 78.8084 112.4 79.7251C112.4 80.7792 113.524 80.6875 113.524 81.1001C113.524 81.3751 113.21 81.4209 112.985 81.4209C112.58 81.4209 112.175 81.2834 112.175 81.2834L112.04 82.1084C112.085 82.2001 112.31 82.2917 113.075 82.2917ZM131.021 77.8459L130.841 79.0834C130.841 79.0834 130.481 78.6251 129.986 78.6251C129.177 78.6251 128.457 79.6334 128.457 80.8251C128.457 81.5584 128.817 82.3375 129.581 82.3375C130.121 82.3375 130.436 81.9709 130.436 81.9709L130.391 82.2917H131.291L131.965 77.8917L131.021 77.8459ZM130.616 80.2751C130.616 80.7792 130.391 81.4209 129.896 81.4209C129.581 81.4209 129.402 81.1459 129.402 80.6875C129.402 79.9542 129.716 79.4959 130.121 79.4959C130.436 79.4959 130.616 79.7251 130.616 80.2751ZM106.103 82.2459L106.643 78.9459L106.733 82.2459H107.362L108.532 78.9459L108.037 82.2459H108.982L109.701 77.8459H108.217L107.318 80.5501L107.273 77.8459H105.968L105.249 82.2459H106.103ZM120.046 82.2459C120.316 80.7334 120.361 79.4959 120.991 79.7251C121.081 79.1292 121.216 78.9001 121.306 78.6709H121.126C120.721 78.6709 120.406 79.2209 120.406 79.2209L120.496 78.7167H119.641L119.057 82.2917H120.046V82.2459ZM125.623 78.5792C124.994 78.5792 124.544 78.7625 124.544 78.7625L124.409 79.5417C124.409 79.5417 124.814 79.3584 125.399 79.3584C125.713 79.3584 125.983 79.4042 125.983 79.6792C125.983 79.8625 125.938 79.9084 125.938 79.9084H125.533C124.769 79.9084 123.914 80.2292 123.914 81.2834C123.914 82.1084 124.454 82.2917 124.769 82.2917C125.399 82.2917 125.668 81.8792 125.713 81.8792L125.668 82.2459H126.478L126.838 79.7251C126.883 78.6251 125.938 78.5792 125.623 78.5792ZM125.848 80.6417C125.848 80.7792 125.758 81.5125 125.219 81.5125C124.949 81.5125 124.859 81.2834 124.859 81.1459C124.859 80.9167 124.994 80.5959 125.668 80.5959C125.803 80.6417 125.803 80.6417 125.848 80.6417ZM127.602 82.2459C127.872 80.7334 127.917 79.4959 128.547 79.7251C128.637 79.1292 128.772 78.9001 128.862 78.6709H128.682C128.277 78.6709 127.962 79.2209 127.962 79.2209L128.052 78.7167H127.198L126.613 82.2917H127.602V82.2459Z" fill="white"/>
<path d="M114.559 81.5584C114.559 82.1084 114.874 82.3375 115.279 82.3375C115.593 82.3375 115.863 82.2459 115.953 82.2001L116.088 81.4209C116.043 81.4209 115.953 81.4667 115.863 81.4667C115.548 81.4667 115.503 81.2834 115.548 81.1917L115.818 79.5875H116.313L116.448 78.7167H115.998L116.088 78.1667M116.718 80.7334C116.718 82.0167 117.123 82.3375 117.842 82.3375C118.517 82.3375 118.787 82.2001 118.787 82.2001L118.967 81.3292C118.967 81.3292 118.472 81.5584 118.022 81.5584C117.033 81.5584 117.213 80.8251 117.213 80.8251H119.057C119.057 80.8251 119.192 80.2292 119.192 80.0001C119.192 79.4042 118.877 78.6709 117.887 78.6709C116.943 78.5792 116.718 79.5875 116.718 80.7334ZM117.842 79.4042C118.337 79.4042 118.427 80.0001 118.427 80.0459H117.258C117.258 80.0001 117.348 79.4042 117.842 79.4042ZM123.554 82.2001L123.734 81.1917C123.734 81.1917 123.285 81.4209 122.97 81.4209C122.34 81.4209 122.07 80.9167 122.07 80.3667C122.07 79.2667 122.61 78.6709 123.24 78.6709C123.689 78.6709 124.049 78.9459 124.049 78.9459L124.184 77.9834C124.184 77.9834 123.644 77.7542 123.15 77.7542C122.115 77.7542 121.531 78.6709 121.531 80.4125C121.531 81.5584 121.62 82.3375 122.7 82.3375C123.06 82.3375 123.554 82.2001 123.554 82.2001ZM109.791 79.5875C109.791 79.5875 110.196 79.4042 110.781 79.4042C111.096 79.4042 111.366 79.4501 111.366 79.7251C111.366 79.9084 111.321 79.9542 111.321 79.9542H110.916C110.151 79.9542 109.297 80.2751 109.297 81.3292C109.297 82.1542 109.836 82.3375 110.151 82.3375C110.781 82.3375 111.051 81.9251 111.096 81.9251L111.051 82.2917H111.86L112.22 79.7709C112.22 78.7167 111.321 78.6709 110.961 78.6709M111.635 80.6417C111.635 80.7792 111.096 81.5125 110.556 81.5125C110.286 81.5125 110.196 81.2834 110.196 81.1459C110.196 80.9167 110.331 80.5959 111.006 80.5959C111.141 80.6417 111.635 80.6417 111.635 80.6417ZM112.085 82.2001C112.085 82.2001 112.355 82.2917 113.12 82.2917C113.345 82.2917 114.469 82.3375 114.469 81.1001C114.469 79.9542 113.39 80.1834 113.39 79.7251C113.39 79.4959 113.569 79.4042 113.884 79.4042C114.019 79.4042 114.514 79.4501 114.514 79.4501L114.649 78.6251C114.649 78.6251 114.334 78.5334 113.794 78.5334C113.12 78.5334 112.895 78.8084 112.895 79.7251C112.895 80.7792 113.569 80.6875 113.569 81.1001C113.569 81.3751 113.255 81.4209 113.03 81.4209M130.841 79.0834C130.841 79.0834 130.481 78.6251 129.986 78.6251C129.177 78.6251 128.907 79.6334 128.907 80.8251C128.907 81.5584 128.817 82.3375 129.581 82.3375C130.121 82.3375 130.436 81.9709 130.436 81.9709L130.391 82.2917H131.291L131.965 77.8917M130.796 80.2751C130.796 80.7792 130.391 81.4209 129.896 81.4209C129.581 81.4209 129.402 81.1459 129.402 80.6875C129.402 79.9542 129.716 79.4959 130.121 79.4959C130.436 79.4959 130.796 79.7251 130.796 80.2751ZM106.103 82.2459L106.643 78.9459L106.733 82.2459H107.362L108.532 78.9459L108.037 82.2459H108.982L109.701 77.8459H108.577L107.318 80.5501L107.273 77.8459H106.778L105.249 82.2459H106.103ZM119.102 82.2459H120.046C120.316 80.7334 120.361 79.4959 120.991 79.7251C121.081 79.1292 121.216 78.9001 121.306 78.6709H121.126C120.721 78.6709 120.406 79.2209 120.406 79.2209L120.496 78.7167M124.409 79.5875C124.409 79.5875 124.814 79.4042 125.399 79.4042C125.713 79.4042 125.983 79.4501 125.983 79.7251C125.983 79.9084 125.938 79.9542 125.938 79.9542H125.533C124.769 79.9542 123.914 80.2751 123.914 81.3292C123.914 82.1542 124.454 82.3375 124.769 82.3375C125.399 82.3375 125.668 81.9251 125.713 81.9251L125.668 82.2917H126.478L126.838 79.7709C126.838 78.7167 125.938 78.6709 125.579 78.6709M126.253 80.6417C126.253 80.7792 125.713 81.5125 125.174 81.5125C124.904 81.5125 124.814 81.2834 124.814 81.1459C124.814 80.9167 124.949 80.5959 125.623 80.5959C125.803 80.6417 126.253 80.6417 126.253 80.6417ZM126.658 82.2459H127.602C127.872 80.7334 127.917 79.4959 128.547 79.7251C128.637 79.1292 128.772 78.9001 128.862 78.6709H128.682C128.277 78.6709 127.962 79.2209 127.962 79.2209L128.052 78.7167" fill="#DCE5E5"/>
<defs>
<filter id="filter0_d_240_8" x="138.719" y="9.5" width="23.5625" height="23.5625" filterUnits="userSpaceOnUse" color-interpolation-filters="sRGB">
<feFlood flood-opacity="0" result="BackgroundImageFix"/>
<feColorMatrix in="SourceAlpha" type="matrix" values="0 0 0 0 0 0 0 0 0 0 0 0 0 0 0 0 0 0 127 0" result="hardAlpha"/>
<feOffset dy="0.5"/>
<feGaussianBlur stdDeviation="0.5"/>
<feComposite in2="hardAlpha" operator="out"/>
<feColorMatrix type="matrix" values="0 0 0 0 0 0 0 0 0 0 0 0 0 0 0 0 0 0 0.199474 0"/>
<feBlend mode="normal" in2="BackgroundImageFix" result="effect1_dropShadow_240_8"/>
<feBlend mode="normal" in="SourceGraphic" in2="effect1_dropShadow_240_8" result="shape"/>
</filter>
<filter id="filter1_d_240_8" x="-0.28125" y="39.6071" width="23.5625" height="23.7634" filterUnits="userSpaceOnUse" color-interpolation-filters="sRGB">
<feFlood flood-opacity="0" result="BackgroundImageFix"/>
<feColorMatrix in="SourceAlpha" type="matrix" values="0 0 0 0 0 0 0 0 0 0 0 0 0 0 0 0 0 0 127 0" result="hardAlpha"/>
<feOffset dy="0.5"/>
<feGaussianBlur stdDeviation="0.5"/>
<feComposite in2="hardAlpha" operator="out"/>
<feColorMatrix type="matrix" values="0 0 0 0 0 0 0 0 0 0 0 0 0 0 0 0 0 0 0.199474 0"/>
<feBlend mode="normal" in2="BackgroundImageFix" result="effect1_dropShadow_240_8"/>
<feBlend mode="normal" in="SourceGraphic" in2="effect1_dropShadow_240_8" result="shape"/>
</filter>
<filter id="filter2_d_240_8" x="5.46875" y="44.6853" width="12.7812" height="13.6071" filterUnits="userSpaceOnUse" color-interpolation-filters="sRGB">
<feFlood flood-opacity="0" result="BackgroundImageFix"/>
<feColorMatrix in="SourceAlpha" type="matrix" values="0 0 0 0 0 0 0 0 0 0 0 0 0 0 0 0 0 0 127 0" result="hardAlpha"/>
<feOffset dy="0.5"/>
<feGaussianBlur stdDeviation="0.5"/>
<feColorMatrix type="matrix" values="0 0 0 0 0 0 0 0 0 0 0 0 0 0 0 0 0 0 0.204257 0"/>
<feBlend mode="normal" in2="BackgroundImageFix" result="effect1_dropShadow_240_8"/>
<feBlend mode="normal" in="SourceGraphic" in2="effect1_dropShadow_240_8" result="shape"/>
</filter>
<filter id="filter3_d_240_8" x="27.6875" y="40.5" width="22.625" height="22.625" filterUnits="userSpaceOnUse" color-interpolation-filters="sRGB">
<feFlood flood-opacity="0" result="BackgroundImageFix"/>
<feColorMatrix in="SourceAlpha" type="matrix" values="0 0 0 0 0 0 0 0 0 0 0 0 0 0 0 0 0 0 127 0" result="hardAlpha"/>
<feOffset dy="0.5"/>
<feGaussianBlur stdDeviation="0.5"/>
<feComposite in2="hardAlpha" operator="out"/>
<feColorMatrix type="matrix" values="0 0 0 0 0 0 0 0 0 0 0 0 0 0 0 0 0 0 0.199474 0"/>
<feBlend mode="normal" in2="BackgroundImageFix" result="effect1_dropShadow_240_8"/>
<feBlend mode="normal" in="SourceGraphic" in2="effect1_dropShadow_240_8" result="shape"/>
</filter>
<filter id="filter4_d_240_8" x="31.125" y="43.9375" width="15.75" height="15.75" filterUnits="userSpaceOnUse" color-interpolation-filters="sRGB">
<feFlood flood-opacity="0" result="BackgroundImageFix"/>
<feColorMatrix in="SourceAlpha" type="matrix" values="0 0 0 0 0 0 0 0 0 0 0 0 0 0 0 0 0 0 127 0" result="hardAlpha"/>
<feOffset dy="0.5"/>
<feGaussianBlur stdDeviation="0.5"/>
<feColorMatrix type="matrix" values="0 0 0 0 0 0 0 0 0 0 0 0 0 0 0 0 0 0 0.204257 0"/>
<feBlend mode="normal" in2="BackgroundImageFix" result="effect1_dropShadow_240_8"/>
<feBlend mode="normal" in="SourceGraphic" in2="effect1_dropShadow_240_8" result="shape"/>
</filter>
<linearGradient id="paint0_linear_240_8" x1="1217.84" y1="10" x2="1217.84" y2="2166.25" gradientUnits="userSpaceOnUse">
<stop stop-color="white" stop-opacity="0.5"/>
<stop offset="1" stop-opacity="0.5"/>
</linearGradient>
<linearGradient id="paint1_linear_240_8" x1="1078.84" y1="40.1071" x2="1078.84" y2="2216.45" gradientUnits="userSpaceOnUse">
<stop stop-color="white" stop-opacity="0.5"/>
<stop offset="1" stop-opacity="0.5"/>
</linearGradient>
<linearGradient id="paint2_linear_240_8" x1="1059.94" y1="41" x2="1059.94" y2="2103.5" gradientUnits="userSpaceOnUse">
<stop stop-color="white" stop-opacity="0.5"/>
<stop offset="1" stop-opacity="0.5"/>
</linearGradient>
<clipPath id="clip0_240_8">
<rect width="16" height="25" fill="white" transform="translate(59 10)"/>
</clipPath>
<clipPath id="clip1_240_8">
<rect width="23" height="24" fill="white" transform="translate(139 10)"/>
</clipPath>
<clipPath id="clip2_240_8">
<rect width="23" height="22" fill="white" transform="translate(167 10)"/>
</clipPath>
<clipPath id="clip3_240_8">
<rect width="23" height="25" fill="white" transform="translate(0 41)"/>
</clipPath>
<clipPath id="clip4_240_8">
<rect width="22" height="22" fill="white" transform="translate(28 41)"/>
</clipPath>
<clipPath id="clip5_240_8">
<rect width="21" height="21" fill="white" transform="translate(55 41)"/>
</clipPath>
<clipPath id="clip6_240_8">
<rect width="23" height="23" fill="white" transform="translate(81 41)"/>
</clipPath>
<clipPath id="clip7_240_8">
<rect width="24" height="24" fill="white" transform="translate(138 41)"/>
</clipPath>
<clipPath id="clip8_240_8">
<rect width="22" height="22" fill="white" transform="translate(167 41)"/>
</clipPath>
</defs>
</svg>
