<svg xmlns="http://www.w3.org/2000/svg" width="193" height="110" fill="none"><mask id="a" width="21" height="21" x="1" y="11" maskUnits="userSpaceOnUse" style="mask-type:luminance"><path fill="#fff" d="M21.66 11.2H1.5v20.67h20.16V11.2Z"/></mask><g mask="url(#a)"><path fill="#F7931A" d="M21.35 24.03a10.06 10.06 0 0 1-12.21 7.54c-5.4-1.39-8.68-7-7.34-12.54a10.06 10.06 0 0 1 12.21-7.53c5.4 1.38 8.7 7 7.34 12.53Z"/><path fill="#fff" d="M16.02 20.06c.2-1.38-.82-2.12-2.21-2.61l.45-1.86-1.1-.29-.45 1.82-.88-.22.44-1.82-1.1-.29-.46 1.87a36 36 0 0 1-.7-.17l-1.53-.4-.3 1.21.81.2c.45.12.53.43.52.67l-.52 2.12c.03 0 .07.02.11.04L9 20.3l-.73 2.97c-.05.14-.19.35-.5.27 0 .02-.8-.2-.8-.2l-.56 1.3 1.44.37.8.2-.47 1.89 1.1.28.46-1.86.88.23-.45 1.86 1.1.28.47-1.88c1.88.37 3.3.22 3.9-1.53.48-1.41-.03-2.22-1.02-2.75.72-.18 1.27-.66 1.41-1.67ZM13.5 23.7c-.35 1.4-2.66.64-3.4.45l.6-2.5c.75.2 3.15.58 2.8 2.05Zm.34-3.66c-.31 1.28-2.24.63-2.86.47l.55-2.27c.62.16 2.63.46 2.3 1.8Z"/></g><path fill="#50AF95" fill-rule="evenodd" d="m34.51 12.18-4.02 8.71a.17.17 0 0 0 .03.2L41.4 31.83a.16.16 0 0 0 .22 0l10.87-10.74a.17.17 0 0 0 .04-.2l-4.03-8.7a.17.17 0 0 0-.06-.08.16.16 0 0 0-.09-.03H34.66l-.09.03a.17.17 0 0 0-.06.07Z" clip-rule="evenodd"/><path fill="#fff" fill-rule="evenodd" d="M42.85 21.68c-.08 0-.47.02-1.33.02-.7 0-1.18-.02-1.35-.02-2.67-.12-4.66-.59-4.66-1.14 0-.55 2-1.02 4.66-1.14v1.81a20.12 20.12 0 0 0 2.67 0v-1.8c2.66.11 4.65.58 4.65 1.13 0 .55-1.99 1.02-4.65 1.13Zm0-2.46V17.6h3.7v-2.47h-10.1v2.47h3.71v1.62c-3.01.14-5.28.73-5.28 1.45 0 .71 2.27 1.3 5.28 1.45v5.19h2.69v-5.2c3-.13 5.27-.73 5.27-1.44 0-.72-2.26-1.31-5.27-1.45Z" clip-rule="evenodd"/><g clip-path="url(#b)"><path fill="#343434" d="m67 7-.18.57V24.1l.18.16 8-4.53L67 7Z"/><path fill="#8C8C8C" d="m67 7-8 12.73 8 4.53V7Z"/><path fill="#3C3C3B" d="m67 25.72-.1.11v5.89l.1.27 8-10.8-8 4.53Z"/><path fill="#8C8C8C" d="M67 32v-6.28l-8-4.54L67 32Z"/><path fill="#141414" d="m67 24.26 8-4.53-8-3.49v8.02Z"/><path fill="#393939" d="m59 19.73 8 4.53v-8.02l-8 3.49Z"/></g><path fill="#FF060A" d="M92.54 32.9c6.87 0 12.43-5.12 12.43-11.42s-5.56-11.42-12.43-11.42S80.1 15.17 80.1 21.48c0 6.3 5.57 11.42 12.44 11.42Z"/><path fill="#fff" d="M99.53 19.43c-.68-.59-1.64-1.48-2.4-2.1l-.06-.03c-.07-.06-.16-.1-.25-.14-1.87-.32-10.56-1.8-10.73-1.79-.04 0-.1.02-.13.05l-.04.03a.46.46 0 0 0-.12.18l-.01.02v.18c.98 2.5 4.84 10.69 5.6 12.62.05.13.14.38.3.39h.04c.08 0 .45-.45.45-.45S98.82 21 99.5 20.2c.1-.1.17-.2.23-.3a.43.43 0 0 0-.02-.26.58.58 0 0 0-.17-.22Zm-5.65.86 2.83-2.15 1.67 1.4-4.5.75Zm-1.1-.14-4.87-3.67 7.89 1.34-3.02 2.33Zm.44.96 4.99-.74-5.7 6.31.7-5.57Zm-5.98-4.26 5.14 4-.75 5.84-4.39-9.84Z"/><mask id="c" width="22" height="22" x="111" y="10" maskUnits="userSpaceOnUse" style="mask-type:luminance"><path fill="#fff" d="M132.5 10.72h-21V31.8h21V10.72Z"/></mask><g mask="url(#c)"><path fill="#fff" d="M122 30.65c5.17 0 9.36-4.2 9.36-9.4 0-5.18-4.19-9.39-9.36-9.39a9.38 9.38 0 0 0-9.36 9.4c0 5.19 4.19 9.4 9.36 9.4Z"/><path fill="#345D9D" d="M122 10.72a10.47 10.47 0 0 0-9.7 6.5 10.57 10.57 0 0 0 2.28 11.49 10.5 10.5 0 0 0 17.92-7.45 10.54 10.54 0 0 0-6.44-9.73c-1.26-.53-2.62-.8-4-.8H122Zm.18 10.9-1.1 3.7h5.85a.3.3 0 0 1 .3.28v.1l-.5 1.75a.38.38 0 0 1-.38.28h-8.95l1.5-5.12-1.68.5.38-1.16 1.68-.51 2.11-7.2a.38.38 0 0 1 .38-.28h2.26a.3.3 0 0 1 .22.08.29.29 0 0 1 .09.2v.1l-1.78 6.08 1.68-.52-.36 1.23-1.7.48Z"/></g><g clip-path="url(#d)"><g filter="url(#e)"><path fill="#000" d="M150.5 31.56a10.78 10.78 0 1 0 0-21.56 10.78 10.78 0 0 0 0 21.56Z"/></g><path fill="#23292F" d="M150.5 31.56a10.78 10.78 0 1 0 0-21.56 10.78 10.78 0 0 0 0 21.56Z"/><path fill="url(#f)" d="M150.5 31.56a10.78 10.78 0 1 0 0-21.56 10.78 10.78 0 0 0 0 21.56Z" style="mix-blend-mode:soft-light"/><path stroke="#000" stroke-opacity=".1" d="M150.5 31.2a10.42 10.42 0 1 0 0-20.84 10.42 10.42 0 0 0 0 20.84Z"/><path fill="#fff" d="M155.07 15.75h1.87l-3.89 3.85a3.64 3.64 0 0 1-5.1 0l-3.9-3.85h1.88l2.95 2.93c.9.88 2.34.88 3.24 0l2.95-2.93ZM145.9 26.46h-1.87l3.92-3.87a3.64 3.64 0 0 1 5.1 0l3.92 3.87h-1.87l-2.98-2.95a2.3 2.3 0 0 0-3.24 0l-2.98 2.95Z"/></g><g fill="#0033AD" clip-path="url(#g)"><path d="M173.3 20.92c-.04.88.61 1.64 1.46 1.69h.1c.85 0 1.55-.72 1.54-1.6 0-.9-.7-1.61-1.55-1.6-.82 0-1.5.66-1.54 1.51ZM167.53 20.5a.5.5 0 0 0-.53.5c-.01.28.2.53.47.54.28.02.51-.2.53-.49a.51.51 0 0 0-.47-.54ZM173.2 11.61a.53.53 0 0 0 .23-.7.5.5 0 0 0-.68-.22.53.53 0 0 0-.22.69c.13.26.43.37.68.23ZM174.78 14.45c.38-.2.53-.68.34-1.07a.76.76 0 0 0-1.04-.36.81.81 0 0 0-.34 1.08c.2.39.66.55 1.04.35ZM169.49 16.4c.3.2.69.11.88-.2.2-.3.11-.7-.18-.9a.63.63 0 0 0-.88.19c-.2.3-.11.71.18.91ZM170.43 20.22a.78.78 0 0 0-.82.76c-.02.44.3.82.73.84.43.03.8-.3.82-.75a.8.8 0 0 0-.73-.85ZM169.58 25.6a.67.67 0 0 0-.29.89c.16.32.54.46.86.3a.67.67 0 0 0 .28-.9.63.63 0 0 0-.85-.29ZM172.58 18.57c.42.28.99.16 1.26-.28a.95.95 0 0 0-.27-1.3.88.88 0 0 0-1.25.27.96.96 0 0 0 .26 1.3ZM182.12 14.39c.35.24.84.14 1.07-.23a.82.82 0 0 0-.22-1.11.76.76 0 0 0-1.07.23.81.81 0 0 0 .22 1.1ZM183.7 11.56c.23.16.54.1.7-.15a.53.53 0 0 0-.15-.72.5.5 0 0 0-.7.15.55.55 0 0 0 .15.72ZM182.24 19.4a1.57 1.57 0 0 0-1.64 1.5c-.04.88.61 1.65 1.46 1.7l.09-.01c.85 0 1.54-.72 1.54-1.6.01-.85-.63-1.56-1.45-1.6ZM175.29 18.45c.26.54.8.88 1.38.88.86 0 1.55-.71 1.55-1.6 0-.25-.06-.5-.17-.73a1.52 1.52 0 0 0-2.08-.7 1.64 1.64 0 0 0-.68 2.15ZM187.42 16.4a.67.67 0 0 0 .28-.89.63.63 0 0 0-.86-.28.67.67 0 0 0-.28.88c.16.32.54.46.86.29ZM183.5 16.9a.96.96 0 0 0-.4 1.27.9.9 0 0 0 1.21.42c.45-.23.64-.8.4-1.26a.9.9 0 0 0-1.21-.42ZM178.44 11.32c.35.02.65-.26.67-.62a.66.66 0 0 0-.6-.7.65.65 0 0 0-.67.62c-.02.36.25.68.6.7ZM178.43 15.47c.5.03.94-.37.96-.9a.92.92 0 0 0-.86-.98.92.92 0 0 0-.96.89c-.02.52.36.96.86.99ZM173.5 25.1c.45-.24.63-.8.4-1.27a.9.9 0 0 0-1.21-.42.96.96 0 0 0-.4 1.26.9.9 0 0 0 1.21.42ZM179.02 16.84c-.47.75-.27 1.74.45 2.22.72.48 1.67.28 2.14-.46.47-.75.27-1.74-.45-2.22a1.5 1.5 0 0 0-.84-.26c-.53 0-1.01.27-1.3.72ZM181.71 23.55a1.52 1.52 0 0 0-2.08-.71 1.63 1.63 0 0 0-.68 2.15c.38.8 1.32 1.11 2.08.71.76-.4 1.07-1.34.69-2.14v-.01ZM184.42 23.43a.89.89 0 0 0-1.26.28.95.95 0 0 0 .27 1.3c.42.29.98.16 1.25-.27a.96.96 0 0 0-.26-1.3ZM187.39 21.03a.79.79 0 0 0-.73-.85.78.78 0 0 0-.82.76c-.02.44.3.82.73.84.43.03.8-.31.82-.75ZM189.53 20.46a.5.5 0 0 0-.53.49c-.01.28.2.53.47.54.28.02.51-.2.53-.49a.52.52 0 0 0-.47-.54ZM187.51 25.6a.63.63 0 0 0-.88.2c-.2.3-.11.7.18.9.3.2.69.12.88-.19.2-.3.11-.71-.18-.91ZM173.3 30.44a.5.5 0 0 0-.7.14.53.53 0 0 0 .14.72.5.5 0 0 0 .7-.14.52.52 0 0 0-.15-.72ZM183.8 30.39a.53.53 0 0 0-.23.7.5.5 0 0 0 .68.22.53.53 0 0 0 .22-.69.49.49 0 0 0-.68-.23ZM177.98 25.16c.47-.75.27-1.74-.45-2.23a1.52 1.52 0 0 0-2.15.47c-.47.74-.26 1.73.45 2.22a1.51 1.51 0 0 0 2.15-.46ZM174.88 27.61a.76.76 0 0 0-1.07.23.82.82 0 0 0 .22 1.11c.35.24.84.14 1.07-.23a.81.81 0 0 0-.22-1.1ZM178.5 30.68a.66.66 0 0 0-.68.62c-.03.36.25.67.6.7.35.02.65-.25.68-.62a.66.66 0 0 0-.6-.7ZM178.5 26.53a.92.92 0 0 0-.96.9c-.03.51.36.96.86.98.5.03.93-.37.96-.89a.93.93 0 0 0-.86-.99ZM182.22 27.55a.82.82 0 0 0-.33 1.08c.2.4.66.55 1.04.35.38-.2.53-.68.34-1.08a.77.77 0 0 0-1.05-.35Z"/></g><g clip-path="url(#h)"><g filter="url(#i)"><path fill="#000" d="M11.5 61.87c5.95 0 10.78-4.87 10.78-10.88 0-6.01-4.83-10.88-10.78-10.88A10.83 10.83 0 0 0 .72 50.99c0 6 4.83 10.88 10.78 10.88Z"/></g><path fill="#C3A634" d="M11.5 61.87c5.95 0 10.78-4.87 10.78-10.88 0-6.01-4.83-10.88-10.78-10.88A10.83 10.83 0 0 0 .72 50.99c0 6 4.83 10.88 10.78 10.88Z"/><path fill="url(#j)" d="M11.5 61.87c5.95 0 10.78-4.87 10.78-10.88 0-6.01-4.83-10.88-10.78-10.88A10.83 10.83 0 0 0 .72 50.99c0 6 4.83 10.88 10.78 10.88Z" style="mix-blend-mode:soft-light"/><path stroke="#000" stroke-opacity=".1" d="M11.5 61.5c5.76 0 10.42-4.7 10.42-10.51S17.26 40.47 11.5 40.47 1.08 45.17 1.08 50.99c0 5.8 4.66 10.52 10.42 10.52Z"/><g filter="url(#k)"><path fill="#000" d="M9.52 49.98h3.1v1.66h-3.1v3.5h1.96c.77 0 1.4-.11 1.9-.32.5-.21.88-.5 1.16-.88.28-.37.47-.81.57-1.32a8.33 8.33 0 0 0 0-3.26 2.79 2.79 0 0 0-1.73-2.2 4.86 4.86 0 0 0-1.9-.32H9.52v3.14Zm-1.99 1.66H6.47v-1.66h1.06v-4.8h4.71c.87 0 1.62.16 2.26.46.64.3 1.15.72 1.56 1.24.4.53.7 1.14.9 1.85.2.7.29 1.46.29 2.26 0 .8-.1 1.55-.3 2.26-.19.7-.49 1.32-.9 1.84-.4.53-.91.94-1.55 1.25a5.2 5.2 0 0 1-2.26.45h-4.7v-5.15Z"/></g><path fill="#fff" d="M9.52 49.98h3.1v1.66h-3.1v3.5h1.96c.77 0 1.4-.11 1.9-.32.5-.21.88-.5 1.16-.88.28-.37.47-.81.57-1.32a8.33 8.33 0 0 0 0-3.26 2.79 2.79 0 0 0-1.73-2.2 4.86 4.86 0 0 0-1.9-.32H9.52v3.14Zm-1.99 1.66H6.47v-1.66h1.06v-4.8h4.71c.87 0 1.62.16 2.26.46.64.3 1.15.72 1.56 1.24.4.53.7 1.14.9 1.85.2.7.29 1.46.29 2.26 0 .8-.1 1.55-.3 2.26-.19.7-.49 1.32-.9 1.84-.4.53-.91.94-1.55 1.25a5.2 5.2 0 0 1-2.26.45h-4.7v-5.15Z"/></g><g clip-path="url(#l)"><g filter="url(#m)"><path fill="#000" d="M39 61.63A10.31 10.31 0 1 0 39 41a10.31 10.31 0 0 0 0 20.63Z"/></g><path fill="#F3BA2F" d="M39 61.63A10.31 10.31 0 1 0 39 41a10.31 10.31 0 0 0 0 20.63Z"/><path fill="url(#n)" d="M39 61.63A10.31 10.31 0 1 0 39 41a10.31 10.31 0 0 0 0 20.63Z" style="mix-blend-mode:soft-light"/><path stroke="#000" stroke-opacity=".1" d="M39 61.28a9.97 9.97 0 1 0 0-19.94 9.97 9.97 0 0 0 0 19.94Z"/><g filter="url(#o)"><path fill="#000" d="M36.33 50.22 39 47.55l2.67 2.67 1.56-1.56L39 44.44l-4.22 4.22 1.55 1.56Zm-4.2 1.1 1.55-1.56 1.55 1.55-1.55 1.56-1.55-1.56Zm4.2 1.09L39 55.08l2.67-2.67 1.56 1.55L39 58.2l-4.22-4.23 1.55-1.55Zm6.44-1.1 1.55-1.55 1.55 1.55-1.55 1.56-1.55-1.56Zm-2.2 0L39 52.9l-1.58-1.58.28-.28.13-.13L39 49.74l1.58 1.57Z"/></g><path fill="#fff" d="M36.33 50.22 39 47.55l2.67 2.67 1.56-1.56L39 44.44l-4.22 4.22 1.55 1.56Zm-4.2 1.1 1.55-1.56 1.55 1.55-1.55 1.56-1.55-1.56Zm4.2 1.09L39 55.08l2.67-2.67 1.56 1.55L39 58.2l-4.22-4.23 1.55-1.55Zm6.44-1.1 1.55-1.55 1.55 1.55-1.55 1.56-1.55-1.56Zm-2.2 0L39 52.9l-1.58-1.58.28-.28.13-.13L39 49.74l1.58 1.57Z"/></g><g clip-path="url(#p)"><path fill="#8247E5" d="M65.5 62a10.5 10.5 0 1 0 0-21 10.5 10.5 0 0 0 0 21Z"/><path fill="#fff" d="M69.1 49.14a.93.93 0 0 0-.88 0l-2.04 1.2-1.4.77-2 1.21a.93.93 0 0 1-.88 0l-1.57-.95a.9.9 0 0 1-.44-.77v-1.83c0-.29.14-.58.44-.76l1.57-.92a.93.93 0 0 1 .88 0l1.57.95c.25.15.44.44.44.77v1.2l1.39-.8v-1.24a.9.9 0 0 0-.44-.77l-2.93-1.72a.93.93 0 0 0-.87 0l-3 1.76a.8.8 0 0 0-.44.73v3.44c0 .29.15.58.44.76l2.96 1.72c.26.15.58.15.88 0l2-1.17 1.4-.8 2-1.17a.93.93 0 0 1 .88 0l1.58.91c.25.15.43.44.43.77v1.83a.9.9 0 0 1-.43.77l-1.54.9a.93.93 0 0 1-.88 0l-1.57-.9a.89.89 0 0 1-.44-.77v-1.17l-1.39.8v1.2c0 .3.15.6.44.78l2.96 1.71c.26.15.59.15.88 0l2.96-1.71a.89.89 0 0 0 .44-.77v-3.48a.9.9 0 0 0-.44-.76l-2.96-1.72Z"/></g><g clip-path="url(#q)"><path fill="#2775CA" d="M92.5 64c6.37 0 11.5-5.13 11.5-11.5S98.87 41 92.5 41 81 46.13 81 52.5 86.13 64 92.5 64Z"/><path fill="#fff" d="M95.66 54.32c0-1.68-1-2.25-3.02-2.5-1.43-.18-1.72-.57-1.72-1.24s.48-1.1 1.44-1.1c.86 0 1.34.29 1.58 1 .05.15.19.25.33.25h.77c.2 0 .33-.15.33-.34v-.05a2.4 2.4 0 0 0-2.15-1.96v-1.15c0-.2-.14-.34-.38-.38h-.72c-.2 0-.34.14-.39.38v1.1c-1.43.2-2.34 1.15-2.34 2.35 0 1.58.95 2.2 2.97 2.44 1.34.24 1.77.53 1.77 1.3 0 .76-.67 1.3-1.58 1.3-1.25 0-1.68-.54-1.82-1.26-.05-.19-.2-.28-.34-.28h-.81c-.2 0-.34.14-.34.33v.05c.2 1.2.96 2.06 2.54 2.3v1.15c0 .2.14.34.38.38h.72c.2 0 .34-.14.39-.38v-1.15c1.43-.24 2.4-1.25 2.4-2.54Z"/><path fill="#fff" d="M90.06 59.35a7.14 7.14 0 0 1-4.27-9.2 7.09 7.09 0 0 1 4.27-4.26c.19-.1.28-.24.28-.48v-.67c0-.2-.1-.34-.28-.39a8.6 8.6 0 0 0-.2 16.48c.2.1.39 0 .44-.18.04-.05.04-.1.04-.2v-.67c0-.14-.14-.33-.28-.43Zm5.08-14.95c-.2-.1-.39 0-.44.2-.04.04-.04.09-.04.19v.67c0 .19.14.38.28.48a7.14 7.14 0 0 1 4.27 9.2 7.09 7.09 0 0 1-4.27 4.26c-.19.1-.28.24-.28.48v.67c0 .2.1.34.28.38.05 0 .15 0 .2-.04a8.6 8.6 0 0 0 5.6-10.83 8.7 8.7 0 0 0-5.6-5.66Z"/></g><path fill="#E2761B" stroke="#E2761B" stroke-linecap="round" stroke-linejoin="round" d="m129.65 43.67-7.5 5.57 1.39-3.28 6.1-2.29Z"/><path fill="#E4761B" stroke="#E4761B" stroke-linecap="round" stroke-linejoin="round" d="m112.34 43.67 7.44 5.62-1.32-3.33-6.11-2.29Zm14.61 12.9-2 3.07 4.28 1.17 1.22-4.16-3.5-.07Zm-15.4.08 1.22 4.16 4.28-1.17-2-3.06-3.5.07Z"/><path fill="#E4761B" stroke="#E4761B" stroke-linecap="round" stroke-linejoin="round" d="m116.8 51.41-1.19 1.8 4.25.19-.16-4.56-2.9 2.57Zm8.39 0-2.94-2.62-.1 4.6 4.24-.18-1.2-1.8Zm-8.14 8.23 2.54-1.25-2.2-1.71-.34 2.96Zm5.35-1.25 2.55 1.25-.35-2.96-2.2 1.71Z"/><path fill="#D7C1B3" stroke="#D7C1B3" stroke-linecap="round" stroke-linejoin="round" d="m124.95 59.64-2.55-1.25.2 1.67-.02.7 2.38-1.12Zm-7.9 0 2.37 1.12-.02-.7.2-1.67-2.55 1.25Z"/><path fill="#233447" stroke="#233447" stroke-linecap="round" stroke-linejoin="round" d="m119.46 55.58-2.13-.63 1.5-.68.63 1.3Zm3.08 0 .62-1.31 1.5.68-2.12.63Z"/><path fill="#CD6116" stroke="#CD6116" stroke-linecap="round" stroke-linejoin="round" d="m117.05 59.64.36-3.06-2.36.07 2 2.99Zm7.54-3.06.36 3.06 2-3-2.36-.06Zm1.8-3.37-4.24.19.4 2.18.62-1.31 1.5.68 1.72-1.74Zm-9.06 1.74 1.5-.68.63 1.3.4-2.17-4.25-.19 1.72 1.74Z"/><path fill="#E4751F" stroke="#E4751F" stroke-linecap="round" stroke-linejoin="round" d="m115.61 53.21 1.78 3.47-.06-1.73-1.72-1.74Zm9.07 1.74-.08 1.73 1.79-3.47-1.71 1.74Zm-4.83-1.55-.4 2.18.5 2.57.12-3.39-.21-1.36Zm2.3 0-.2 1.36.09 3.39.5-2.57-.39-2.18Z"/><path fill="#F6851B" stroke="#F6851B" stroke-linecap="round" stroke-linejoin="round" d="m122.54 55.58-.5 2.57.36.24 2.2-1.71.08-1.73-2.14.63Zm-5.2-.63.05 1.73 2.2 1.71.36-.24-.5-2.57-2.12-.63Z"/><path fill="#C0AD9E" stroke="#C0AD9E" stroke-linecap="round" stroke-linejoin="round" d="m122.58 60.76.02-.7-.18-.17h-2.84l-.18.17.02.7-2.38-1.12.83.67 1.68 1.17h2.89l1.69-1.17.83-.67-2.38 1.12Z"/><path fill="#161616" stroke="#161616" stroke-linecap="round" stroke-linejoin="round" d="m122.4 58.4-.36-.25h-2.09l-.36.24-.19 1.67.18-.17h2.84l.19.17-.2-1.67Z"/><path fill="#763D16" stroke="#763D16" stroke-linecap="round" stroke-linejoin="round" d="m129.96 49.6.64-3.07-.95-2.86-7.25 5.38 2.79 2.36 3.94 1.15.87-1.01-.38-.28.6-.55-.46-.36.6-.46-.4-.3Zm-18.56-3.07.64 3.07-.41.3.6.46-.46.37.6.54-.37.28.86 1.01 3.94-1.15 2.8-2.36-7.25-5.38-.95 2.86Z"/><path fill="#F6851B" stroke="#F6851B" stroke-linecap="round" stroke-linejoin="round" d="m129.13 52.56-3.94-1.15 1.2 1.8-1.79 3.47 2.35-.03h3.5l-1.32-4.09Zm-12.33-1.15-3.94 1.15-1.3 4.09h3.49l2.34.03-1.78-3.47 1.2-1.8Zm5.35 1.99.25-4.35 1.15-3.1h-5.09l1.13 3.1.27 4.35.08 1.37.01 3.38h2.09l.02-3.38.1-1.37Z"/><g clip-path="url(#r)"><path fill="#001F31" d="M161.64 55.9a12 12 0 1 1-23.28-5.8 12 12 0 0 1 23.28 5.8Z"/><path fill="#DC1F56" d="M155.72 55.93c-.65.32-1 .92-1 1.73 0 1.08.52 1.77 1.51 2.03 1.4.37 2.82-.97 2.5-2.37-.15-.66-.35-.96-.86-1.3a2.29 2.29 0 0 0-2.15-.1Z"/><path fill="#fff" d="M147.87 46.31a5.1 5.1 0 0 0-3.8 2.38c-.4.79-.4 2.5 0 3.27.64 1.18 1.8 1.8 4.19 2.23 2 .36 2.45.5 2.62.8.2.37-.2.8-.86.96-1.02.27-3.23-.28-4.58-1.16-.42-.29-.55-.32-.65-.17-.06.1-.45.72-.84 1.39l-.7 1.2.33.28c1.48 1.18 4.95 1.88 7.2 1.46 2.64-.49 4.09-2.03 3.93-4.22-.16-2.18-1.57-3.23-5.21-3.85-1.5-.25-1.93-.43-1.93-.74 0-1.12 3.02-1.06 4.63.08l.56.4.71-1.3c.4-.7.72-1.36.72-1.44 0-.25-1.85-1.12-2.83-1.35a10.25 10.25 0 0 0-3.49-.22Z"/></g><g clip-path="url(#s)"><path fill="#fff" d="M182.04 50.7c.19-1.23-.74-1.88-2.01-2.32l.4-1.65-1-.25-.4 1.6a41.1 41.1 0 0 0-.8-.18l.4-1.62-1-.25-.42 1.65-.64-.15-1.39-.35-.26 1.07s.74.17.73.18c.4.1.48.37.47.59l-.47 1.88.1.03-.1-.02-.66 2.63c-.05.13-.18.31-.47.24.01.02-.73-.18-.73-.18l-.5 1.15 1.31.33.72.18-.41 1.67 1 .25.41-1.65.8.2-.4 1.65 1 .26.41-1.67c1.72.32 3.01.2 3.55-1.36.44-1.25-.02-1.97-.92-2.44.66-.15 1.15-.58 1.28-1.48Zm-2.3 3.22c-.3 1.25-2.41.57-3.1.4l.56-2.21c.68.17 2.87.5 2.54 1.8Zm.31-3.24c-.28 1.13-2.03.55-2.6.41l.5-2c.57.14 2.4.4 2.1 1.59Z"/><path fill="#225C6D" d="M188.67 54.66a11 11 0 1 1-21.34-5.32 11 11 0 0 1 21.34 5.32Z"/><path stroke="#fff" stroke-linecap="round" stroke-miterlimit="10" stroke-width="1.21" d="M185.33 52.4h-7.8m1.13 2.54h2.27a1.41 1.41 0 0 0 1.13-.58l1.02-1.39m0 0a1.4 1.4 0 0 1 1.14-.57m-1.14.57-2.88 3.93a1.4 1.4 0 0 1-1.14.57h-3.5m-4.36-7.6h-.31m3.22 0h-.32m-.64 7.6h-.32m10.25-5.65a1.4 1.4 0 0 0 1.14.58h1.11m-2.25-.58-2.88-3.92a1.41 1.41 0 0 0-1.14-.57h-3.5m7.52 4.5-1.02-1.4a1.4 1.4 0 0 0-1.13-.57h-4.49m-3.29-2.53h-.32m2.76 5.07h-.32m1.44 2.54h-.32m-2.28 0h-.32m-.8-2.54h-.31m-1.16 2.54h-.33"/></g><path fill="#1434CB" d="M74.33 74.13c-2.93 0-5.57 1.56-5.57 4.42 0 3.3 4.65 3.52 4.65 5.16 0 .69-.78 1.31-2.1 1.31-1.9 0-3.32-.86-3.32-.86l-.6 2.89s1.62.73 3.8.73c3.22 0 5.74-1.62 5.74-4.54 0-3.47-4.67-3.7-4.67-5.22 0-.55.65-1.14 1.97-1.14 1.5 0 2.73.63 2.73.63l.6-2.8c-.01 0-1.35-.58-3.23-.58Zm-26.88.21-.08.42s1.23.22 2.35.69c1.44.53 1.53.84 1.79 1.78l2.63 10.33h3.53l5.41-13.22h-3.51l-3.49 9-1.42-7.63c-.13-.87-.79-1.37-1.6-1.37h-5.6Zm17.05 0-2.76 13.22h3.36l2.75-13.22H64.5Zm18.7 0c-.8 0-1.22.44-1.54 1.2l-4.92 12.02h3.52l.68-2h4.29l.4 2h3.11l-2.7-13.22h-2.83Zm.47 3.58 1.04 4.97h-2.8l1.76-4.97Z"/><path fill="#FFB600" d="M132.78 80a8.58 8.58 0 0 1-8.5 8.66 8.6 8.6 0 0 1-8.5-8.66 8.57 8.57 0 0 1 8.45-8.66c4.77 0 8.55 3.9 8.55 8.66Z"/><path fill="#F7981D" d="M124.27 71.34a8.6 8.6 0 0 1 8.5 8.66 8.58 8.58 0 0 1-8.5 8.66 8.6 8.6 0 0 1-8.5-8.66"/><path fill="#FF8500" d="M124.27 71.34a8.6 8.6 0 0 1 8.5 8.66 8.58 8.58 0 0 1-8.5 8.66"/><path fill="#FF5050" d="M112.85 71.34a8.59 8.59 0 0 0-8.41 8.66 8.58 8.58 0 0 0 8.5 8.66c2.2 0 4.18-.87 5.71-2.24.32-.28.59-.6.86-.92h-1.76c-.22-.27-.45-.6-.63-.87h3.02c.18-.28.36-.6.5-.92h-4.01c-.14-.27-.27-.6-.36-.91h4.68c.27-.87.45-1.8.45-2.75 0-.65-.1-1.24-.18-1.84H116c.04-.32.13-.6.22-.91h4.68a5.52 5.52 0 0 0-.36-.92h-3.96c.14-.32.32-.6.5-.92h3.01c-.18-.32-.4-.64-.67-.91h-1.67c.27-.32.54-.6.86-.87a8.21 8.21 0 0 0-5.72-2.25c0-.1 0-.1-.04-.1Z"/><path fill="#E52836" d="M104.44 80a8.58 8.58 0 0 0 8.5 8.66 8.51 8.51 0 0 0 6.57-3.16h-1.76c-.22-.28-.45-.6-.63-.87h3.02c.18-.28.36-.6.5-.92h-4.01c-.14-.27-.27-.6-.36-.91h4.68a9.25 9.25 0 0 0 .27-4.59H116c.04-.32.13-.6.22-.91h4.68a5.52 5.52 0 0 0-.36-.92h-3.96c.14-.32.32-.6.5-.92h3.01c-.18-.32-.4-.64-.67-.91h-1.67c.27-.33.54-.6.86-.88a8.21 8.21 0 0 0-5.72-2.24h-.04"/><path fill="#CB2026" d="M112.94 88.66a8.51 8.51 0 0 0 6.57-3.16h-1.76c-.22-.28-.45-.6-.63-.87h3.02c.18-.28.36-.6.5-.92h-4.01c-.14-.27-.27-.6-.36-.91h4.68a9.25 9.25 0 0 0 .27-4.59H116c.04-.32.13-.6.22-.91h4.68a5.52 5.52 0 0 0-.36-.92h-3.96c.14-.32.32-.6.5-.92h3.01c-.18-.32-.4-.64-.67-.91h-1.67c.27-.33.54-.6.86-.88a8.21 8.21 0 0 0-5.72-2.24h-.04"/><path fill="#fff" d="m115.95 82.2.14-.78c-.05 0-.14.05-.23.05-.31 0-.36-.19-.31-.28l.27-1.6h.5l.13-.87H116l.09-.55h-.9s-.54 3.02-.54 3.39c0 .55.31.78.72.78.27 0 .5-.1.58-.14Zm.32-1.47c0 1.29.85 1.6 1.57 1.6.68 0 .95-.13.95-.13l.18-.87s-.5.23-.95.23c-.99 0-.8-.73-.8-.73h1.84s.13-.6.13-.83c0-.6-.31-1.33-1.3-1.33-.95-.1-1.62.92-1.62 2.06Zm1.57-1.33c.5 0 .4.6.4.65h-.98c0-.05.09-.65.58-.65Zm5.71 2.8.18-1s-.45.22-.76.22c-.63 0-.9-.5-.9-1.05 0-1.1.54-1.7 1.17-1.7.45 0 .8.28.8.28l.14-.97s-.54-.23-1.03-.23c-1.04 0-2.07.92-2.07 2.66 0 1.15.54 1.93 1.62 1.93.36 0 .85-.14.85-.14Zm-12.54-3.62c-.63 0-1.08.18-1.08.18l-.14.78s.4-.18 1-.18c.3 0 .58.04.58.32 0 .18-.05.23-.05.23h-.4c-.77 0-1.62.32-1.62 1.37 0 .83.54 1.01.85 1.01.63 0 .9-.41.95-.41l-.05.37h.81l.36-2.52c0-1.1-.9-1.15-1.21-1.15Zm.18 2.06c0 .14-.1.87-.63.87-.27 0-.36-.23-.36-.36 0-.23.13-.55.8-.55.14.04.19.04.19.04Zm1.89 1.65c.22 0 1.34.05 1.34-1.19 0-1.15-1.08-.92-1.08-1.37 0-.23.18-.33.5-.33.13 0 .63.05.63.05l.13-.82s-.31-.1-.85-.1c-.67 0-1.35.28-1.35 1.2 0 1.05 1.12.96 1.12 1.37 0 .28-.31.32-.53.32-.41 0-.81-.14-.81-.14l-.14.83c.04.09.27.18 1.03.18Zm17.94-4.44-.18 1.23s-.36-.45-.85-.45c-.81 0-1.53 1-1.53 2.2 0 .73.36 1.5 1.12 1.5.54 0 .86-.36.86-.36l-.05.32h.9l.68-4.4-.95-.04Zm-.4 2.43c0 .5-.23 1.14-.72 1.14-.32 0-.5-.27-.5-.73 0-.74.32-1.2.72-1.2.32 0 .5.24.5.79Zm-24.52 1.97.54-3.3.1 3.3h.62l1.17-3.3-.5 3.3h.95l.72-4.4h-1.48l-.9 2.7-.05-2.7h-1.3l-.72 4.4h.85Zm13.95 0c.27-1.52.31-2.75.94-2.52.1-.6.23-.83.32-1.06h-.18c-.4 0-.72.55-.72.55l.09-.5h-.86l-.58 3.57h.99v-.04Zm5.57-3.67c-.63 0-1.08.18-1.08.18l-.13.78s.4-.18.99-.18c.31 0 .58.04.58.32 0 .18-.04.23-.04.23h-.4c-.77 0-1.63.32-1.63 1.37 0 .83.54 1.01.86 1.01.63 0 .9-.41.94-.41l-.04.37h.8l.37-2.52c.04-1.1-.9-1.15-1.22-1.15Zm.23 2.06c0 .14-.1.87-.63.87-.27 0-.36-.23-.36-.36 0-.23.13-.55.8-.55.14.04.14.04.19.04Zm1.75 1.6c.27-1.5.32-2.74.95-2.51.09-.6.22-.83.31-1.06h-.18c-.4 0-.72.55-.72.55l.1-.5h-.86l-.59 3.57h1v-.04Z"/><path fill="#DCE5E5" d="M114.56 81.56c0 .55.31.78.72.78.31 0 .58-.1.67-.14l.14-.78c-.05 0-.14.05-.23.05-.31 0-.36-.19-.31-.28l.27-1.6h.5l.13-.87H116l.09-.55m.63 2.56c0 1.29.4 1.6 1.12 1.6.68 0 .95-.13.95-.13l.18-.87s-.5.23-.95.23c-.99 0-.8-.73-.8-.73h1.84s.13-.6.13-.83c0-.6-.31-1.33-1.3-1.33-.95-.1-1.17.92-1.17 2.06Zm1.12-1.33c.5 0 .59.6.59.65h-1.17c0-.05.09-.65.58-.65Zm5.71 2.8.18-1s-.45.22-.76.22c-.63 0-.9-.5-.9-1.05 0-1.1.54-1.7 1.17-1.7.45 0 .8.28.8.28l.14-.97s-.54-.23-1.03-.23c-1.04 0-1.62.92-1.62 2.66 0 1.15.09 1.93 1.17 1.93.36 0 .85-.14.85-.14Zm-13.76-2.61s.4-.19 1-.19c.3 0 .58.05.58.33 0 .18-.05.22-.05.22h-.4c-.77 0-1.62.33-1.62 1.38 0 .82.54 1 .85 1 .63 0 .9-.4.95-.4l-.05.36h.81l.36-2.52c0-1.05-.9-1.1-1.26-1.1m.68 1.97c0 .14-.54.87-1.08.87-.27 0-.36-.23-.36-.36 0-.23.13-.55.8-.55.14.04.64.04.64.04Zm.44 1.56s.28.1 1.04.1c.22 0 1.35.04 1.35-1.2 0-1.15-1.08-.92-1.08-1.37 0-.23.18-.33.5-.33.13 0 .62.05.62.05l.14-.82s-.32-.1-.86-.1c-.67 0-.9.28-.9 1.2 0 1.05.68.96.68 1.37 0 .28-.31.32-.54.32m17.81-2.34s-.36-.45-.85-.45c-.81 0-1.08 1-1.08 2.2 0 .73-.1 1.5.67 1.5.54 0 .86-.36.86-.36l-.05.32h.9l.68-4.4m-1.17 2.39c0 .5-.4 1.14-.9 1.14-.32 0-.5-.27-.5-.73 0-.74.32-1.2.72-1.2.32 0 .68.24.68.79Zm-24.7 1.97.54-3.3.1 3.3h.62l1.17-3.3-.5 3.3h.95l.72-4.4h-1.12l-1.26 2.7-.05-2.7h-.5l-1.52 4.4h.85Zm13 0h.95c.27-1.52.31-2.75.94-2.52.1-.6.23-.83.32-1.06h-.18c-.4 0-.72.55-.72.55l.09-.5m3.9.87s.41-.19 1-.19c.31 0 .58.05.58.33 0 .18-.04.22-.04.22h-.4c-.77 0-1.63.33-1.63 1.38 0 .82.54 1 .86 1 .63 0 .9-.4.94-.4l-.04.36h.8l.37-2.52c0-1.05-.9-1.1-1.26-1.1m.67 1.97c0 .14-.54.87-1.08.87-.27 0-.36-.23-.36-.36 0-.23.14-.55.81-.55.18.04.63.04.63.04Zm.4 1.6h.95c.27-1.5.32-2.74.95-2.51.09-.6.22-.83.31-1.06h-.18c-.4 0-.72.55-.72.55l.1-.5"/><defs><clipPath id="b"><path fill="#fff" d="M59 10h16v25H59z"/></clipPath><clipPath id="d"><path fill="#fff" d="M139 10h23v24h-23z"/></clipPath><clipPath id="g"><path fill="#fff" d="M167 10h23v22h-23z"/></clipPath><clipPath id="h"><path fill="#fff" d="M0 41h23v25H0z"/></clipPath><clipPath id="l"><path fill="#fff" d="M28 41h22v22H28z"/></clipPath><clipPath id="p"><path fill="#fff" d="M55 41h21v21H55z"/></clipPath><clipPath id="q"><path fill="#fff" d="M81 41h23v23H81z"/></clipPath><clipPath id="r"><path fill="#fff" d="M138 41h24v24h-24z"/></clipPath><clipPath id="s"><path fill="#fff" d="M167 41h22v22h-22z"/></clipPath><filter id="e" width="23.56" height="23.56" x="138.72" y="9.5" color-interpolation-filters="sRGB" filterUnits="userSpaceOnUse"><feFlood flood-opacity="0" result="BackgroundImageFix"/><feColorMatrix in="SourceAlpha" result="hardAlpha" values="0 0 0 0 0 0 0 0 0 0 0 0 0 0 0 0 0 0 127 0"/><feOffset dy=".5"/><feGaussianBlur stdDeviation=".5"/><feComposite in2="hardAlpha" operator="out"/><feColorMatrix values="0 0 0 0 0 0 0 0 0 0 0 0 0 0 0 0 0 0 0.199474 0"/><feBlend in2="BackgroundImageFix" result="effect1_dropShadow_240_8"/><feBlend in="SourceGraphic" in2="effect1_dropShadow_240_8" result="shape"/></filter><filter id="i" width="23.56" height="23.76" x="-.28" y="39.61" color-interpolation-filters="sRGB" filterUnits="userSpaceOnUse"><feFlood flood-opacity="0" result="BackgroundImageFix"/><feColorMatrix in="SourceAlpha" result="hardAlpha" values="0 0 0 0 0 0 0 0 0 0 0 0 0 0 0 0 0 0 127 0"/><feOffset dy=".5"/><feGaussianBlur stdDeviation=".5"/><feComposite in2="hardAlpha" operator="out"/><feColorMatrix values="0 0 0 0 0 0 0 0 0 0 0 0 0 0 0 0 0 0 0.199474 0"/><feBlend in2="BackgroundImageFix" result="effect1_dropShadow_240_8"/><feBlend in="SourceGraphic" in2="effect1_dropShadow_240_8" result="shape"/></filter><filter id="k" width="12.78" height="13.61" x="5.47" y="44.69" color-interpolation-filters="sRGB" filterUnits="userSpaceOnUse"><feFlood flood-opacity="0" result="BackgroundImageFix"/><feColorMatrix in="SourceAlpha" result="hardAlpha" values="0 0 0 0 0 0 0 0 0 0 0 0 0 0 0 0 0 0 127 0"/><feOffset dy=".5"/><feGaussianBlur stdDeviation=".5"/><feColorMatrix values="0 0 0 0 0 0 0 0 0 0 0 0 0 0 0 0 0 0 0.204257 0"/><feBlend in2="BackgroundImageFix" result="effect1_dropShadow_240_8"/><feBlend in="SourceGraphic" in2="effect1_dropShadow_240_8" result="shape"/></filter><filter id="m" width="22.63" height="22.63" x="27.69" y="40.5" color-interpolation-filters="sRGB" filterUnits="userSpaceOnUse"><feFlood flood-opacity="0" result="BackgroundImageFix"/><feColorMatrix in="SourceAlpha" result="hardAlpha" values="0 0 0 0 0 0 0 0 0 0 0 0 0 0 0 0 0 0 127 0"/><feOffset dy=".5"/><feGaussianBlur stdDeviation=".5"/><feComposite in2="hardAlpha" operator="out"/><feColorMatrix values="0 0 0 0 0 0 0 0 0 0 0 0 0 0 0 0 0 0 0.199474 0"/><feBlend in2="BackgroundImageFix" result="effect1_dropShadow_240_8"/><feBlend in="SourceGraphic" in2="effect1_dropShadow_240_8" result="shape"/></filter><filter id="o" width="15.75" height="15.75" x="31.13" y="43.94" color-interpolation-filters="sRGB" filterUnits="userSpaceOnUse"><feFlood flood-opacity="0" result="BackgroundImageFix"/><feColorMatrix in="SourceAlpha" result="hardAlpha" values="0 0 0 0 0 0 0 0 0 0 0 0 0 0 0 0 0 0 127 0"/><feOffset dy=".5"/><feGaussianBlur stdDeviation=".5"/><feColorMatrix values="0 0 0 0 0 0 0 0 0 0 0 0 0 0 0 0 0 0 0.204257 0"/><feBlend in2="BackgroundImageFix" result="effect1_dropShadow_240_8"/><feBlend in="SourceGraphic" in2="effect1_dropShadow_240_8" result="shape"/></filter><linearGradient id="f" x1="1217.84" x2="1217.84" y1="10" y2="2166.25" gradientUnits="userSpaceOnUse"><stop stop-color="#fff" stop-opacity=".5"/><stop offset="1" stop-opacity=".5"/></linearGradient><linearGradient id="j" x1="1078.84" x2="1078.84" y1="40.11" y2="2216.45" gradientUnits="userSpaceOnUse"><stop stop-color="#fff" stop-opacity=".5"/><stop offset="1" stop-opacity=".5"/></linearGradient><linearGradient id="n" x1="1059.94" x2="1059.94" y1="41" y2="2103.5" gradientUnits="userSpaceOnUse"><stop stop-color="#fff" stop-opacity=".5"/><stop offset="1" stop-opacity=".5"/></linearGradient></defs></svg>