<svg xmlns="http://www.w3.org/2000/svg" width="202" height="68" fill="none"><mask id="a" width="21" height="21" x="1" y="1" maskUnits="userSpaceOnUse" style="mask-type:luminance"><path fill="#fff" d="M21.656 1.19H1.5v20.685h20.156V1.19Z"/></mask><g mask="url(#a)"><path fill="#F7931A" d="M21.355 14.034c-1.346 5.54-6.815 8.913-12.216 7.531C3.741 20.184.455 14.572 1.802 9.032 3.147 3.49 8.616.119 14.015 1.5c5.4 1.381 8.686 6.994 7.34 12.534Z"/><path fill="#fff" d="M16.023 10.059c.2-1.376-.821-2.116-2.217-2.61l.453-1.864-1.106-.283-.441 1.816c-.291-.075-.59-.145-.887-.215l.445-1.827-1.106-.283-.453 1.864c-.24-.056-.477-.112-.706-.17l.001-.006-1.525-.39-.294 1.211s.82.193.803.205c.448.115.529.42.515.66l-.516 2.124c.031.008.071.02.115.038l-.117-.03-.723 2.976c-.055.14-.194.349-.507.27.011.016-.804-.207-.804-.207l-.549 1.3 1.44.368c.267.069.53.14.788.208L8.175 17.1l1.104.283.454-1.866c.301.084.594.162.88.235l-.45 1.857 1.105.283.458-1.883c1.886.367 3.304.219 3.901-1.531.481-1.41-.024-2.223-1.016-2.753.723-.17 1.266-.659 1.412-1.666Zm-2.527 3.636c-.342 1.41-2.655.647-3.405.456l.608-2.498c.75.192 3.154.572 2.797 2.042Zm.342-3.656c-.312 1.281-2.237.63-2.861.47l.55-2.265c.625.16 2.635.458 2.31 1.795Z"/></g><path fill="#50AF95" fill-rule="evenodd" d="m34.51 2.18-4.023 8.714a.174.174 0 0 0 .035.197l10.863 10.737a.163.163 0 0 0 .23 0l10.863-10.736a.174.174 0 0 0 .035-.197l-4.022-8.714a.166.166 0 0 0-.06-.071.159.159 0 0 0-.088-.027H34.659a.159.159 0 0 0-.089.026.166.166 0 0 0-.06.072Z" clip-rule="evenodd"/><path fill="#fff" fill-rule="evenodd" d="M42.846 11.675c-.075.006-.463.03-1.33.03-.69 0-1.179-.022-1.35-.03-2.665-.117-4.653-.58-4.653-1.135s1.988-1.017 4.652-1.136v1.81c.175.012.674.042 1.363.042.827 0 1.241-.035 1.316-.042V9.405c2.658.118 4.642.582 4.642 1.135 0 .554-1.983 1.017-4.642 1.135h.002Zm0-2.457v-1.62h3.71v-2.47h-10.1v2.47h3.709v1.62c-3.015.138-5.283.734-5.283 1.45 0 .714 2.268 1.31 5.283 1.45v5.19h2.68v-5.193c3.009-.138 5.273-.734 5.273-1.448 0-.715-2.262-1.31-5.272-1.45Z" clip-rule="evenodd"/><g clip-path="url(#b)"><path fill="#343434" d="m66.998-3-.175.57v16.526l.175.168 7.997-4.535L66.998-3Z"/><path fill="#8C8C8C" d="M66.998-3 59 9.729l7.998 4.535V-3Z"/><path fill="#3C3C3B" d="m66.998 15.716-.099.115v5.888l.099.275L75 11.184l-8.002 4.532Z"/><path fill="#8C8C8C" d="M66.998 21.994v-6.278L59 11.184l7.998 10.81Z"/><path fill="#141414" d="m66.998 14.264 7.997-4.535-7.997-3.487v8.022Z"/><path fill="#393939" d="m59 9.73 7.998 4.534V6.242L59 9.73Z"/></g><path fill="#FF060A" d="M92.537 22.898c6.872 0 12.438-5.113 12.438-11.419S99.409.059 92.537.059C85.666.06 80.1 5.174 80.1 11.48s5.57 11.42 12.437 11.42Z"/><path fill="#fff" d="M99.533 9.429c-.686-.585-1.64-1.475-2.411-2.105l-.048-.027a1.013 1.013 0 0 0-.252-.133c-1.868-.32-10.56-1.812-10.728-1.794a.33.33 0 0 0-.133.045l-.043.032a.457.457 0 0 0-.119.178l-.01.028v.173c.977 2.503 4.842 10.694 5.605 12.62.047.133.133.38.295.393h.038c.086 0 .458-.452.458-.452s6.638-7.387 7.31-8.173c.086-.096.162-.2.229-.31a.428.428 0 0 0-.024-.256.581.581 0 0 0-.167-.22Zm-5.652.863 2.83-2.155 1.664 1.406-4.494.749Zm-1.1-.142-4.876-3.67 7.892 1.337-3.016 2.333Zm.438.96 4.99-.74-5.705 6.314.715-5.575Zm-5.976-4.26 5.132 3.994-.743 5.845-4.389-9.84Z"/><mask id="c" width="22" height="22" x="111" y="0" maskUnits="userSpaceOnUse" style="mask-type:luminance"><path fill="#fff" d="M132.5.723h-21V21.79h21V.723Z"/></mask><g mask="url(#c)"><path fill="#fff" d="M122 20.65c5.172 0 9.364-4.205 9.364-9.393 0-5.188-4.192-9.394-9.364-9.394-5.171 0-9.363 4.206-9.363 9.394s4.192 9.394 9.363 9.394Z"/><path fill="#345D9D" d="M122 .723c-2.077 0-4.107.617-5.833 1.775a10.528 10.528 0 0 0-3.868 4.728 10.573 10.573 0 0 0-.597 6.086 10.546 10.546 0 0 0 2.873 5.394 10.494 10.494 0 0 0 5.377 2.883c2.036.406 4.148.198 6.066-.6a10.5 10.5 0 0 0 4.712-3.88 10.557 10.557 0 0 0 1.77-5.852 10.522 10.522 0 0 0-3.045-7.436 10.46 10.46 0 0 0-7.394-3.098H122Zm.178 10.891-1.093 3.698h5.847a.292.292 0 0 1 .279.174.291.291 0 0 1 .026.112v.097l-.508 1.76a.377.377 0 0 1-.382.28h-8.949l1.5-5.126-1.678.51.382-1.174 1.678-.51 2.11-7.192a.384.384 0 0 1 .381-.281h2.263a.297.297 0 0 1 .279.173.291.291 0 0 1 .026.113v.097l-1.78 6.07 1.678-.51-.356 1.224-1.703.485Z"/></g><g fill="#0033AD" clip-path="url(#d)"><path d="M145.305 10.92c-.049.883.607 1.639 1.46 1.69h.092c.858 0 1.552-.718 1.545-1.607 0-.889-.693-1.606-1.551-1.6-.822 0-1.503.667-1.546 1.518ZM139.527 10.508a.503.503 0 0 0-.527.489c-.012.286.196.533.472.546.276.019.509-.203.528-.49a.513.513 0 0 0-.473-.545ZM145.207 1.613a.534.534 0 0 0 .221-.699.498.498 0 0 0-.675-.228.526.526 0 0 0-.221.692c.123.26.424.368.675.235ZM146.777 4.45a.815.815 0 0 0 .344-1.072.762.762 0 0 0-1.037-.356.814.814 0 0 0-.343 1.073.761.761 0 0 0 1.036.356ZM141.49 6.4a.628.628 0 0 0 .883-.19.677.677 0 0 0-.184-.915.628.628 0 0 0-.883.19.672.672 0 0 0 .184.915ZM142.429 10.222c-.43-.025-.792.311-.816.756-.025.444.3.819.73.844.429.026.791-.31.815-.755a.791.791 0 0 0-.729-.845ZM141.576 15.6a.673.673 0 0 0-.282.889.63.63 0 0 0 .859.292.675.675 0 0 0 .282-.889.632.632 0 0 0-.859-.292ZM144.581 8.565a.885.885 0 0 0 1.258-.273c.276-.438.159-1.022-.264-1.302a.884.884 0 0 0-1.257.273.957.957 0 0 0 .263 1.302ZM154.119 4.387c.355.242.84.14 1.073-.228a.823.823 0 0 0-.221-1.111.762.762 0 0 0-1.073.228.81.81 0 0 0 .221 1.111ZM155.701 1.562c.233.159.54.089.693-.153a.526.526 0 0 0-.147-.717.492.492 0 0 0-.693.146.547.547 0 0 0 .147.724ZM154.235 9.39c-.852-.05-1.588.63-1.631 1.512-.049.882.607 1.644 1.459 1.689h.086c.853 0 1.546-.718 1.546-1.607.006-.844-.638-1.55-1.46-1.594ZM147.286 8.45c.264.54.797.883 1.386.883.853 0 1.546-.717 1.546-1.606 0-.248-.055-.495-.166-.724-.386-.794-1.318-1.111-2.079-.711-.767.406-1.073 1.371-.687 2.159ZM159.424 6.4a.672.672 0 0 0 .276-.889.63.63 0 0 0-.859-.286.675.675 0 0 0-.282.883.638.638 0 0 0 .865.292ZM155.499 6.908a.957.957 0 0 0-.405 1.263c.227.464.773.654 1.22.42a.957.957 0 0 0 .405-1.264.9.9 0 0 0-1.22-.42ZM150.439 1.32c.349.02.65-.26.674-.622a.656.656 0 0 0-.601-.698.649.649 0 0 0-.674.616.662.662 0 0 0 .601.705ZM150.433 5.467c.502.031.932-.369.956-.89.031-.52-.355-.964-.858-.99-.503-.032-.933.368-.957.89-.025.52.356.964.859.99ZM145.501 15.092a.957.957 0 0 0 .405-1.264c-.227-.463-.773-.653-1.22-.418a.957.957 0 0 0-.405 1.263c.227.463.773.654 1.22.419ZM151.021 6.844c-.466.743-.27 1.734.448 2.216.718.483 1.674.28 2.141-.463.466-.743.269-1.734-.448-2.216a1.502 1.502 0 0 0-.847-.26c-.521 0-1.005.273-1.294.723ZM153.714 13.55c-.386-.795-1.319-1.112-2.079-.712-.767.4-1.074 1.365-.687 2.152.386.794 1.318 1.112 2.079.711.761-.393 1.073-1.346.693-2.14 0-.005 0-.005-.006-.012ZM156.419 13.435a.885.885 0 0 0-1.258.273c-.276.438-.159 1.022.264 1.301a.885.885 0 0 0 1.258-.273.957.957 0 0 0-.264-1.301ZM159.387 11.028a.788.788 0 0 0-.73-.844c-.429-.025-.791.311-.815.756-.025.444.3.819.73.844.423.025.791-.317.815-.756ZM161.528 10.457a.504.504 0 0 0-.528.489c-.012.286.197.533.473.546.276.019.509-.203.527-.489a.516.516 0 0 0-.472-.546ZM159.51 15.6a.628.628 0 0 0-.883.19.678.678 0 0 0 .184.915.628.628 0 0 0 .883-.19.672.672 0 0 0-.184-.915ZM145.293 20.438a.492.492 0 0 0-.693.146.53.53 0 0 0 .141.718c.233.158.54.088.693-.146a.521.521 0 0 0-.141-.718ZM155.793 20.387a.533.533 0 0 0-.221.699c.123.254.43.355.675.228a.526.526 0 0 0 .221-.692.489.489 0 0 0-.675-.235ZM149.979 15.155c.466-.742.27-1.733-.448-2.222a1.521 1.521 0 0 0-2.147.464 1.637 1.637 0 0 0 .448 2.222c.252.171.546.26.847.26a1.513 1.513 0 0 0 1.3-.723ZM146.881 17.613a.762.762 0 0 0-1.073.228.823.823 0 0 0 .221 1.111c.356.242.84.14 1.073-.228a.812.812 0 0 0-.221-1.111ZM150.494 20.68c-.35-.02-.65.26-.675.622a.658.658 0 0 0 .601.698.65.65 0 0 0 .675-.616.664.664 0 0 0-.601-.705ZM150.5 16.533c-.503-.032-.932.368-.957.89-.03.52.356.964.859.99a.92.92 0 0 0 .957-.89c.03-.514-.356-.964-.859-.99ZM154.223 17.55a.815.815 0 0 0-.337 1.078.762.762 0 0 0 1.042.35.814.814 0 0 0 .344-1.073.77.77 0 0 0-1.049-.356Z"/></g><g clip-path="url(#e)"><g filter="url(#f)"><path fill="#000" d="M178.5 20.87c5.954 0 10.781-4.871 10.781-10.881S184.454-.893 178.5-.893c-5.954 0-10.781 4.872-10.781 10.882S172.546 20.87 178.5 20.87Z"/></g><path fill="#C3A634" d="M178.5 20.87c5.954 0 10.781-4.871 10.781-10.881S184.454-.893 178.5-.893c-5.954 0-10.781 4.872-10.781 10.882S172.546 20.87 178.5 20.87Z"/><path fill="url(#g)" d="M178.5 20.87c5.954 0 10.781-4.871 10.781-10.881S184.454-.893 178.5-.893c-5.954 0-10.781 4.872-10.781 10.882S172.546 20.87 178.5 20.87Z" style="mix-blend-mode:soft-light"/><path stroke="#000" stroke-opacity=".097" d="M178.5 20.508c5.756 0 10.422-4.71 10.422-10.52 0-5.809-4.666-10.518-10.422-10.518s-10.422 4.71-10.422 10.519c0 5.81 4.666 10.519 10.422 10.519Z"/><g filter="url(#h)"><path fill="#000" d="M176.522 8.981h3.101v1.658h-3.101v3.495h1.956c.774 0 1.407-.105 1.9-.317.493-.211.88-.504 1.161-.878.281-.373.472-.812.572-1.316a8.317 8.317 0 0 0 .151-1.634c0-.585-.05-1.13-.151-1.634a3.193 3.193 0 0 0-.572-1.317c-.281-.374-.668-.666-1.161-.878-.493-.21-1.126-.317-1.9-.317h-1.956v3.138Zm-1.988 1.658h-1.065V8.981h1.065V4.185h4.707c.869 0 1.622.152 2.258.455a4.203 4.203 0 0 1 1.558 1.244c.403.526.703 1.14.899 1.845.196.705.294 1.458.294 2.26 0 .802-.098 1.555-.294 2.26a5.356 5.356 0 0 1-.899 1.845c-.402.525-.922.94-1.558 1.243-.636.304-1.389.455-2.258.455h-4.707V10.64Z"/></g><path fill="#fff" d="M176.522 8.981h3.101v1.658h-3.101v3.495h1.956c.774 0 1.407-.105 1.9-.317.493-.211.88-.504 1.161-.878.281-.373.472-.812.572-1.316a8.317 8.317 0 0 0 .151-1.634c0-.585-.05-1.13-.151-1.634a3.193 3.193 0 0 0-.572-1.317c-.281-.374-.668-.666-1.161-.878-.493-.21-1.126-.317-1.9-.317h-1.956v3.138Zm-1.988 1.658h-1.065V8.981h1.065V4.185h4.707c.869 0 1.622.152 2.258.455a4.203 4.203 0 0 1 1.558 1.244c.403.526.703 1.14.899 1.845.196.705.294 1.458.294 2.26 0 .802-.098 1.555-.294 2.26a5.356 5.356 0 0 1-.899 1.845c-.402.525-.922.94-1.558 1.243-.636.304-1.389.455-2.258.455h-4.707V10.64Z"/></g><g clip-path="url(#i)"><g filter="url(#j)"><path fill="#000" d="M11 56.625c5.695 0 10.313-4.617 10.313-10.313C21.313 40.617 16.694 36 11 36S.687 40.617.687 46.313c0 5.695 4.618 10.312 10.313 10.312Z"/></g><path fill="#F3BA2F" d="M11 56.625c5.695 0 10.313-4.617 10.313-10.313C21.313 40.617 16.694 36 11 36S.687 40.617.687 46.313c0 5.695 4.618 10.312 10.313 10.312Z"/><path fill="url(#k)" d="M11 56.625c5.695 0 10.313-4.617 10.313-10.313C21.313 40.617 16.694 36 11 36S.687 40.617.687 46.313c0 5.695 4.618 10.312 10.313 10.312Z" style="mix-blend-mode:soft-light"/><path stroke="#000" stroke-opacity=".097" d="M11 56.281c5.506 0 9.969-4.463 9.969-9.968 0-5.506-4.463-9.97-9.969-9.97-5.506 0-9.969 4.464-9.969 9.97 0 5.505 4.463 9.968 9.969 9.968Z"/><g filter="url(#l)"><path fill="#000" d="m8.33 45.215 2.67-2.67 2.671 2.672 1.554-1.554L11 39.438l-4.224 4.224 1.554 1.553Zm-4.205 1.097 1.554-1.553 1.553 1.553-1.553 1.554-1.554-1.554ZM8.33 47.41 11 50.08l2.671-2.672 1.555 1.553v.001L11 53.187l-4.224-4.223-.002-.003L8.33 47.41Zm6.438-1.097 1.553-1.554 1.554 1.554-1.554 1.554-1.554-1.554Zm-2.192-.001h.001v.001L11 47.89l-1.575-1.575-.003-.003.003-.002.276-.276.134-.134L11 44.735l1.576 1.577Z"/></g><path fill="#fff" d="m8.33 45.215 2.67-2.67 2.671 2.672 1.554-1.554L11 39.438l-4.224 4.224 1.554 1.553Zm-4.205 1.097 1.554-1.553 1.553 1.553-1.553 1.554-1.554-1.554ZM8.33 47.41 11 50.08l2.671-2.672 1.555 1.553v.001L11 53.187l-4.224-4.223-.002-.003L8.33 47.41Zm6.438-1.097 1.553-1.554 1.554 1.554-1.554 1.554-1.554-1.554Zm-2.192-.001h.001v.001L11 47.89l-1.575-1.575-.003-.003.003-.002.276-.276.134-.134L11 44.735l1.576 1.577Z"/></g><g clip-path="url(#m)"><path fill="#8247E5" d="M37.5 57C43.299 57 48 52.299 48 46.5S43.299 36 37.5 36 27 40.701 27 46.5 31.701 57 37.5 57Z"/><path fill="#fff" d="M41.1 44.14c-.255-.146-.584-.146-.877 0l-2.047 1.206-1.388.768-2.011 1.206a.933.933 0 0 1-.877 0l-1.572-.95a.892.892 0 0 1-.44-.768v-1.827a.9.9 0 0 1 .44-.768l1.572-.914c.255-.146.584-.146.877 0l1.572.95a.89.89 0 0 1 .438.768v1.206l1.39-.804v-1.242a.901.901 0 0 0-.44-.768l-2.924-1.718c-.255-.146-.584-.146-.877 0l-2.997 1.754a.804.804 0 0 0-.439.731v3.436a.9.9 0 0 0 .439.768l2.96 1.718c.256.146.585.146.878 0l2.01-1.17 1.39-.804 2.01-1.17c.255-.146.584-.146.877 0l1.572.914a.89.89 0 0 1 .438.768v1.827a.9.9 0 0 1-.438.768l-1.536.914c-.255.146-.584.146-.877 0l-1.572-.914a.89.89 0 0 1-.438-.768v-1.17l-1.39.805v1.205a.9.9 0 0 0 .439.768l2.96 1.718a.933.933 0 0 0 .878 0l2.96-1.718a.89.89 0 0 0 .44-.768v-3.472a.902.902 0 0 0-.44-.768L41.1 44.14Z"/></g><g clip-path="url(#n)"><path fill="#2775CA" d="M64.5 59C70.873 59 76 53.873 76 47.5S70.873 36 64.5 36 53 41.127 53 47.5 58.127 59 64.5 59Z"/><path fill="#fff" d="M67.662 49.32c0-1.676-1.006-2.251-3.018-2.49-1.438-.192-1.725-.576-1.725-1.247 0-.67.479-1.102 1.437-1.102.863 0 1.342.288 1.582 1.006a.36.36 0 0 0 .335.24h.767a.328.328 0 0 0 .335-.335v-.048a2.394 2.394 0 0 0-2.156-1.965v-1.15c0-.191-.144-.335-.383-.383h-.72c-.191 0-.335.144-.383.383v1.102c-1.437.192-2.348 1.15-2.348 2.348 0 1.581.959 2.204 2.971 2.444 1.342.24 1.773.527 1.773 1.294 0 .766-.67 1.294-1.581 1.294-1.246 0-1.677-.528-1.821-1.246-.048-.192-.192-.288-.335-.288h-.815a.327.327 0 0 0-.335.336v.047c.191 1.198.958 2.06 2.54 2.3v1.15c0 .192.143.336.383.384h.718c.192 0 .336-.144.384-.383v-1.15c1.437-.24 2.395-1.246 2.395-2.54Z"/><path fill="#fff" d="M62.056 54.352c-3.737-1.341-5.654-5.51-4.264-9.2.718-2.012 2.3-3.546 4.264-4.264.192-.096.288-.24.288-.48v-.67c0-.192-.096-.336-.288-.384-.048 0-.143 0-.191.048-4.553 1.438-7.044 6.277-5.607 10.83a8.62 8.62 0 0 0 5.606 5.605c.192.096.384 0 .432-.191.048-.048.048-.096.048-.192v-.67c0-.144-.144-.336-.288-.432Zm5.08-14.95c-.192-.096-.384 0-.432.192-.048.048-.048.096-.048.191v.671c0 .192.144.384.288.48 3.737 1.341 5.654 5.51 4.264 9.2-.718 2.012-2.3 3.545-4.264 4.264-.192.096-.288.24-.288.48v.67c0 .192.096.336.288.383.048 0 .144 0 .191-.047 4.552-1.438 7.044-6.278 5.607-10.83a8.69 8.69 0 0 0-5.607-5.654Z"/></g><path fill="#E2761B" stroke="#E2761B" stroke-linecap="round" stroke-linejoin="round" d="m101.648 38.674-7.495 5.567 1.386-3.284 6.109-2.283Z"/><path fill="#E4761B" stroke="#E4761B" stroke-linecap="round" stroke-linejoin="round" d="m84.345 38.674 7.435 5.62-1.319-3.337-6.116-2.283ZM98.95 51.578l-1.996 3.058 4.271 1.176 1.228-4.166-3.503-.068Zm-15.397.068 1.22 4.166 4.271-1.175-1.996-3.059-3.495.068Z"/><path fill="#E4761B" stroke="#E4761B" stroke-linecap="round" stroke-linejoin="round" d="m88.804 46.41-1.19 1.8 4.241.19-.15-4.558-2.9 2.569Zm8.384 0-2.938-2.62-.097 4.61 4.233-.19-1.198-1.8Zm-8.143 8.227 2.546-1.243-2.2-1.718-.346 2.96Zm5.356-1.243 2.554 1.242-.354-2.96-2.2 1.718Z"/><path fill="#D7C1B3" stroke="#D7C1B3" stroke-linecap="round" stroke-linejoin="round" d="M96.955 54.636 94.4 53.395l.204 1.664-.023.7 2.373-1.122Zm-7.91 0 2.373 1.123-.015-.7.188-1.665-2.546 1.242Z"/><path fill="#233447" stroke="#233447" stroke-linecap="round" stroke-linejoin="round" d="m91.456 50.576-2.124-.625 1.499-.685.625 1.31Zm3.08 0 .626-1.31 1.507.685-2.132.625Z"/><path fill="#CD6116" stroke="#CD6116" stroke-linecap="round" stroke-linejoin="round" d="m89.045 54.636.362-3.058-2.358.068 1.996 2.99Zm7.548-3.058.362 3.058 1.996-2.99-2.358-.068Zm1.793-3.367-4.233.188.391 2.177.626-1.31 1.506.685 1.71-1.74Zm-9.054 1.74 1.506-.685.618 1.31.4-2.177-4.242-.188 1.718 1.74Z"/><path fill="#E4751F" stroke="#E4751F" stroke-linecap="round" stroke-linejoin="round" d="m87.614 48.21 1.778 3.466-.06-1.725-1.718-1.74Zm9.062 1.741-.075 1.725 1.785-3.465-1.71 1.74Zm-4.82-1.552-.4 2.177.497 2.569.113-3.382-.21-1.364Zm2.297 0-.204 1.356.09 3.39.505-2.569-.391-2.177Z"/><path fill="#F6851B" stroke="#F6851B" stroke-linecap="round" stroke-linejoin="round" d="m94.544 50.576-.504 2.569.361.249 2.2-1.718.075-1.725-2.132.625Zm-5.212-.625.06 1.725 2.2 1.718.361-.249-.497-2.569-2.124-.625Z"/><path fill="#C0AD9E" stroke="#C0AD9E" stroke-linecap="round" stroke-linejoin="round" d="m94.582 55.759.023-.7-.189-.166h-2.84l-.173.165.015.7-2.373-1.122.829.678 1.68 1.168h2.885l1.687-1.168.829-.678-2.373 1.123Z"/><path fill="#161616" stroke="#161616" stroke-linecap="round" stroke-linejoin="round" d="m94.401 53.394-.361-.249h-2.087l-.362.249-.188 1.664.173-.165h2.84l.189.165-.204-1.664Z"/><path fill="#763D16" stroke="#763D16" stroke-linecap="round" stroke-linejoin="round" d="m101.964 44.603.641-3.074-.957-2.855-7.247 5.379 2.787 2.358 3.94 1.152.874-1.017-.377-.271.603-.55-.467-.361.602-.46-.399-.301Zm-18.569-3.074.64 3.074-.406.3.603.46-.46.362.603.55-.377.271.866 1.017 3.94-1.153 2.787-2.357-7.246-5.379-.95 2.855Z"/><path fill="#F6851B" stroke="#F6851B" stroke-linecap="round" stroke-linejoin="round" d="m101.128 47.563-3.94-1.153 1.198 1.8-1.785 3.466 2.35-.03h3.503l-1.326-4.083ZM88.804 46.41l-3.94 1.153-1.31 4.083h3.495l2.343.03-1.778-3.465 1.19-1.8Zm5.349 1.99.248-4.347 1.145-3.096h-5.085l1.13 3.096.264 4.346.09 1.371.008 3.375h2.087l.015-3.375.098-1.37Z"/><path fill="#1434CB" d="M140.582 39.463c-3.283 0-6.23 1.722-6.23 4.882 0 3.639 5.206 3.887 5.206 5.698 0 .763-.882 1.456-2.365 1.456-2.118 0-3.706-.959-3.706-.959l-.671 3.195s1.818.817 4.254.817c3.6 0 6.424-1.793 6.424-5.024 0-3.834-5.224-4.083-5.224-5.769 0-.604.724-1.26 2.206-1.26 1.677 0 3.054.692 3.054.692l.67-3.089c-.017 0-1.517-.639-3.618-.639Zm-30.075.23-.089.462s1.377.249 2.63.764c1.606.586 1.712.923 1.995 1.97l2.947 11.414h3.954l6.054-14.61h-3.936l-3.901 9.942-1.588-8.432c-.141-.959-.883-1.51-1.801-1.51h-6.265Zm19.079 0-3.088 14.61h3.759l3.071-14.61h-3.742Zm20.933 0c-.9 0-1.377.48-1.73 1.332l-5.506 13.278h3.936l.759-2.219h4.8l.459 2.22h3.477l-3.018-14.61h-3.177Zm.512 3.96 1.165 5.485h-3.124l1.959-5.486Z"/><path fill="#FFB600" d="M197.721 46.895c0 5.77-4.69 10.486-10.553 10.486-5.807 0-10.553-4.716-10.553-10.486 0-5.77 4.69-10.486 10.497-10.486 5.919 0 10.609 4.716 10.609 10.486Z"/><path fill="#F7981D" d="M187.168 36.409c5.807 0 10.553 4.716 10.553 10.486 0 5.77-4.69 10.486-10.553 10.486-5.807 0-10.553-4.716-10.553-10.486"/><path fill="#FF8500" d="M187.168 36.409c5.807 0 10.553 4.716 10.553 10.486 0 5.77-4.69 10.486-10.553 10.486"/><path fill="#FF5050" d="M172.986 36.409c-5.751.055-10.441 4.716-10.441 10.486 0 5.77 4.69 10.486 10.553 10.486 2.735 0 5.192-1.054 7.091-2.719.39-.333.725-.721 1.06-1.11h-2.177a12.987 12.987 0 0 1-.782-1.054h3.741c.223-.332.447-.72.614-1.11h-4.969a6.656 6.656 0 0 1-.447-1.109h5.807c.335-1.054.559-2.164.559-3.329 0-.777-.112-1.498-.224-2.22h-6.477c.056-.387.168-.72.28-1.109h5.806a6.576 6.576 0 0 0-.446-1.11h-4.914c.168-.388.391-.72.614-1.109h3.741a5.265 5.265 0 0 0-.837-1.11h-2.066a9.48 9.48 0 0 1 1.061-1.054c-1.843-1.72-4.355-2.718-7.091-2.718 0-.111 0-.111-.056-.111Z"/><path fill="#E52836" d="M162.545 46.895c0 5.77 4.69 10.486 10.553 10.486 2.735 0 5.192-1.054 7.091-2.719.39-.333.725-.721 1.06-1.11h-2.177a13.003 13.003 0 0 1-.782-1.053h3.741a7.08 7.08 0 0 0 .614-1.11h-4.969a6.662 6.662 0 0 1-.447-1.11h5.807c.335-1.054.559-2.164.559-3.329 0-.777-.112-1.498-.224-2.22h-6.477c.056-.387.168-.72.28-1.109h5.806a6.573 6.573 0 0 0-.446-1.11h-4.914c.168-.388.391-.72.614-1.109h3.741a5.265 5.265 0 0 0-.837-1.11h-2.066c.335-.388.67-.721 1.061-1.054-1.843-1.72-4.355-2.718-7.091-2.718h-.056"/><path fill="#CB2026" d="M173.098 57.38c2.736 0 5.193-1.053 7.091-2.718.391-.333.726-.721 1.061-1.11h-2.178a12.754 12.754 0 0 1-.781-1.053h3.741c.223-.333.446-.722.614-1.11h-4.97a6.576 6.576 0 0 1-.446-1.11h5.807c.335-1.054.558-2.164.558-3.329 0-.777-.112-1.498-.223-2.22h-6.477c.056-.387.167-.72.279-1.109h5.807a6.575 6.575 0 0 0-.447-1.11h-4.913c.167-.388.39-.72.614-1.109h3.741a5.304 5.304 0 0 0-.838-1.11h-2.066c.335-.388.67-.721 1.061-1.054-1.842-1.72-4.355-2.718-7.091-2.718h-.056"/><path fill="#fff" d="m176.838 49.558.168-.943c-.056 0-.168.055-.279.055-.391 0-.447-.222-.391-.333l.335-1.942h.614l.168-1.054h-.559l.112-.666h-1.117s-.67 3.662-.67 4.106c0 .666.391.943.894.943.335 0 .614-.11.725-.166Zm.391-1.776c0 1.554 1.061 1.942 1.954 1.942.838 0 1.173-.166 1.173-.166l.223-1.054s-.614.277-1.172.277c-1.229 0-1.005-.888-1.005-.888h2.289s.168-.72.168-.998c0-.722-.391-1.61-1.62-1.61-1.172-.11-2.01 1.11-2.01 2.497Zm1.954-1.609c.615 0 .503.722.503.777h-1.228c0-.055.111-.777.725-.777Zm7.091 3.385.224-1.22s-.559.277-.949.277c-.782 0-1.117-.61-1.117-1.276 0-1.332.67-2.053 1.452-2.053.558 0 1.005.333 1.005.333l.167-1.166s-.67-.277-1.284-.277c-1.284 0-2.568 1.11-2.568 3.218 0 1.387.67 2.33 2.01 2.33.446 0 1.06-.166 1.06-.166Zm-15.577-4.383c-.782 0-1.34.222-1.34.222l-.168.943s.503-.222 1.228-.222c.391 0 .726.055.726.388 0 .222-.056.278-.056.278h-.502c-.949 0-2.01.388-2.01 1.664 0 .999.67 1.22 1.061 1.22.781 0 1.116-.499 1.172-.499l-.056.444h1.005l.447-3.051c0-1.332-1.117-1.387-1.507-1.387Zm.223 2.497c0 .166-.112 1.054-.782 1.054-.335 0-.446-.278-.446-.444 0-.278.167-.666 1.005-.666.167.056.223.056.223.056Zm2.345 1.997c.279 0 1.675.055 1.675-1.443 0-1.387-1.34-1.11-1.34-1.664 0-.278.223-.389.614-.389.168 0 .782.056.782.056l.167-.999s-.39-.11-1.06-.11c-.838 0-1.676.332-1.676 1.442 0 1.276 1.396 1.165 1.396 1.664 0 .333-.39.389-.67.389-.502 0-1.005-.167-1.005-.167l-.167.999c.056.11.335.222 1.284.222Zm22.278-5.382-.223 1.498s-.447-.555-1.061-.555c-1.005 0-1.899 1.22-1.899 2.663 0 .888.447 1.831 1.396 1.831.67 0 1.061-.444 1.061-.444l-.056.389h1.117l.838-5.326-1.173-.056Zm-.503 2.94c0 .61-.279 1.388-.893 1.388-.391 0-.614-.333-.614-.888 0-.888.391-1.443.893-1.443.391 0 .614.278.614.944Zm-30.429 2.386.67-3.994.111 3.994h.782l1.452-3.994-.614 3.994h1.172l.893-5.326h-1.842l-1.117 3.273-.056-3.273h-1.619l-.893 5.326h1.061Zm17.308 0c.335-1.83.391-3.329 1.173-3.051.112-.721.279-.999.391-1.276h-.224c-.502 0-.893.666-.893.666l.112-.61h-1.061l-.726 4.327h1.228v-.056Zm6.924-4.438c-.782 0-1.34.222-1.34.222l-.168.943s.503-.222 1.229-.222c.39 0 .725.055.725.388 0 .222-.055.278-.055.278h-.503c-.949 0-2.01.388-2.01 1.664 0 .999.67 1.22 1.061 1.22.782 0 1.117-.499 1.172-.499l-.055.444h1.005l.446-3.051c.056-1.332-1.116-1.387-1.507-1.387Zm.279 2.497c0 .166-.112 1.054-.782 1.054-.335 0-.446-.278-.446-.444 0-.278.167-.666 1.005-.666.167.056.167.056.223.056Zm2.178 1.941c.335-1.83.39-3.329 1.172-3.051.112-.721.279-.999.391-1.276h-.223c-.503 0-.894.666-.894.666l.112-.61h-1.061l-.726 4.327h1.229v-.056Z"/><path fill="#DCE5E5" d="M175.108 48.781c0 .666.39.943.893.943.391 0 .726-.11.837-.166l.168-.943c-.056 0-.168.055-.279.055-.391 0-.447-.222-.391-.333l.335-1.942h.614l.168-1.054h-.559l.112-.666m.782 3.107c0 1.554.502 1.942 1.395 1.942.838 0 1.173-.166 1.173-.166l.223-1.054s-.614.277-1.172.277c-1.229 0-1.005-.888-1.005-.888h2.289s.168-.72.168-.998c0-.722-.391-1.61-1.62-1.61-1.172-.11-1.451 1.11-1.451 2.497Zm1.395-1.609c.615 0 .726.722.726.777h-1.451c0-.055.111-.777.725-.777Zm7.091 3.385.224-1.22s-.559.277-.949.277c-.782 0-1.117-.61-1.117-1.276 0-1.332.67-2.053 1.452-2.053.558 0 1.005.333 1.005.333l.167-1.166s-.67-.277-1.284-.277c-1.284 0-2.01 1.11-2.01 3.218 0 1.387.112 2.33 1.452 2.33.446 0 1.06-.166 1.06-.166Zm-17.085-3.163s.503-.222 1.228-.222c.391 0 .726.056.726.389 0 .222-.056.277-.056.277h-.502c-.949 0-2.01.389-2.01 1.665 0 .998.67 1.22 1.061 1.22.781 0 1.116-.499 1.172-.499l-.056.444h1.005l.447-3.052c0-1.276-1.117-1.331-1.563-1.331m.837 2.386c0 .166-.67 1.054-1.34 1.054-.335 0-.446-.278-.446-.444 0-.278.167-.666 1.005-.666.167.056.781.056.781.056Zm.559 1.886s.335.11 1.284.11c.279 0 1.675.056 1.675-1.442 0-1.387-1.34-1.11-1.34-1.664 0-.278.223-.389.614-.389.168 0 .782.056.782.056l.167-.999s-.391-.11-1.061-.11c-.837 0-1.116.332-1.116 1.442 0 1.276.837 1.165.837 1.664 0 .333-.391.389-.67.389m22.111-2.83s-.447-.555-1.061-.555c-1.005 0-1.34 1.22-1.34 2.663 0 .888-.112 1.831.837 1.831.67 0 1.061-.444 1.061-.444l-.056.389h1.117l.838-5.326m-1.452 2.885c0 .61-.503 1.387-1.117 1.387-.391 0-.614-.333-.614-.888 0-.888.391-1.443.893-1.443.391 0 .838.278.838.944Zm-30.653 2.385.67-3.994.111 3.994h.782l1.452-3.994-.614 3.994h1.172l.893-5.326h-1.395l-1.564 3.273-.056-3.273h-.614l-1.898 5.326h1.061Zm16.136 0h1.172c.335-1.83.391-3.329 1.173-3.051.112-.721.279-.999.391-1.276h-.224c-.502 0-.893.666-.893.666l.112-.61m4.857 1.053s.503-.222 1.229-.222c.39 0 .725.056.725.389 0 .222-.055.277-.055.277h-.503c-.949 0-2.01.389-2.01 1.665 0 .998.67 1.22 1.061 1.22.782 0 1.117-.499 1.172-.499l-.055.444h1.005l.446-3.052c0-1.276-1.116-1.331-1.563-1.331m.837 2.386c0 .166-.67 1.054-1.34 1.054-.335 0-.446-.278-.446-.444 0-.278.167-.666 1.005-.666.223.056.781.056.781.056Zm.503 1.941h1.173c.335-1.83.39-3.329 1.172-3.051.112-.721.279-.999.391-1.276h-.223c-.503 0-.894.666-.894.666l.112-.61"/><defs><clipPath id="b"><path fill="#fff" d="M59 0h16v25H59z"/></clipPath><clipPath id="d"><path fill="#fff" d="M139 0h23v22h-23z"/></clipPath><clipPath id="e"><path fill="#fff" d="M167 0h23v25h-23z"/></clipPath><clipPath id="i"><path fill="#fff" d="M0 36h22v22H0z"/></clipPath><clipPath id="m"><path fill="#fff" d="M27 36h21v21H27z"/></clipPath><clipPath id="n"><path fill="#fff" d="M53 36h23v23H53z"/></clipPath><filter id="f" width="23.563" height="23.763" x="166.719" y="-1.393" color-interpolation-filters="sRGB" filterUnits="userSpaceOnUse"><feFlood flood-opacity="0" result="BackgroundImageFix"/><feColorMatrix in="SourceAlpha" result="hardAlpha" values="0 0 0 0 0 0 0 0 0 0 0 0 0 0 0 0 0 0 127 0"/><feOffset dy=".5"/><feGaussianBlur stdDeviation=".5"/><feComposite in2="hardAlpha" operator="out"/><feColorMatrix values="0 0 0 0 0 0 0 0 0 0 0 0 0 0 0 0 0 0 0.199474 0"/><feBlend in2="BackgroundImageFix" result="effect1_dropShadow_431_520"/><feBlend in="SourceGraphic" in2="effect1_dropShadow_431_520" result="shape"/></filter><filter id="h" width="12.781" height="13.607" x="172.469" y="3.685" color-interpolation-filters="sRGB" filterUnits="userSpaceOnUse"><feFlood flood-opacity="0" result="BackgroundImageFix"/><feColorMatrix in="SourceAlpha" result="hardAlpha" values="0 0 0 0 0 0 0 0 0 0 0 0 0 0 0 0 0 0 127 0"/><feOffset dy=".5"/><feGaussianBlur stdDeviation=".5"/><feColorMatrix values="0 0 0 0 0 0 0 0 0 0 0 0 0 0 0 0 0 0 0.204257 0"/><feBlend in2="BackgroundImageFix" result="effect1_dropShadow_431_520"/><feBlend in="SourceGraphic" in2="effect1_dropShadow_431_520" result="shape"/></filter><filter id="j" width="22.625" height="22.625" x="-.313" y="35.5" color-interpolation-filters="sRGB" filterUnits="userSpaceOnUse"><feFlood flood-opacity="0" result="BackgroundImageFix"/><feColorMatrix in="SourceAlpha" result="hardAlpha" values="0 0 0 0 0 0 0 0 0 0 0 0 0 0 0 0 0 0 127 0"/><feOffset dy=".5"/><feGaussianBlur stdDeviation=".5"/><feComposite in2="hardAlpha" operator="out"/><feColorMatrix values="0 0 0 0 0 0 0 0 0 0 0 0 0 0 0 0 0 0 0.199474 0"/><feBlend in2="BackgroundImageFix" result="effect1_dropShadow_431_520"/><feBlend in="SourceGraphic" in2="effect1_dropShadow_431_520" result="shape"/></filter><filter id="l" width="15.75" height="15.75" x="3.125" y="38.938" color-interpolation-filters="sRGB" filterUnits="userSpaceOnUse"><feFlood flood-opacity="0" result="BackgroundImageFix"/><feColorMatrix in="SourceAlpha" result="hardAlpha" values="0 0 0 0 0 0 0 0 0 0 0 0 0 0 0 0 0 0 127 0"/><feOffset dy=".5"/><feGaussianBlur stdDeviation=".5"/><feColorMatrix values="0 0 0 0 0 0 0 0 0 0 0 0 0 0 0 0 0 0 0.204257 0"/><feBlend in2="BackgroundImageFix" result="effect1_dropShadow_431_520"/><feBlend in="SourceGraphic" in2="effect1_dropShadow_431_520" result="shape"/></filter><linearGradient id="g" x1="1245.84" x2="1245.84" y1="-.893" y2="2175.45" gradientUnits="userSpaceOnUse"><stop stop-color="#fff" stop-opacity=".5"/><stop offset="1" stop-opacity=".5"/></linearGradient><linearGradient id="k" x1="1031.94" x2="1031.94" y1="36" y2="2098.5" gradientUnits="userSpaceOnUse"><stop stop-color="#fff" stop-opacity=".5"/><stop offset="1" stop-opacity=".5"/></linearGradient></defs></svg>