<svg xmlns="http://www.w3.org/2000/svg" width="202" height="68" fill="none"><mask id="a" width="19" height="19" x="1" y="0" maskUnits="userSpaceOnUse" style="mask-type:luminance"><path fill="#fff" d="M19.688.624H1.313V18.82h18.375V.624Z"/></mask><g mask="url(#a)"><path fill="#fff" d="M10.5 17.835c4.525 0 8.193-3.633 8.193-8.113 0-4.48-3.668-8.113-8.193-8.113-4.525 0-8.193 3.632-8.193 8.113 0 4.48 3.668 8.113 8.193 8.113Z"/><path fill="#345D9D" d="M10.5.624a9.252 9.252 0 0 0-5.104 1.533A9.118 9.118 0 0 0 2.012 6.24a9.015 9.015 0 0 0-.523 5.257 9.07 9.07 0 0 0 2.514 4.658 9.217 9.217 0 0 0 4.705 2.49c1.782.35 3.63.17 5.308-.518a9.169 9.169 0 0 0 4.123-3.35 9.034 9.034 0 0 0 1.549-5.055A8.995 8.995 0 0 0 19 6.248 9.065 9.065 0 0 0 17.023 3.3a9.166 9.166 0 0 0-2.966-1.975 9.24 9.24 0 0 0-3.504-.7H10.5Zm.156 9.406-.957 3.194h5.117a.259.259 0 0 1 .267.247v.084l-.445 1.52a.334.334 0 0 1-.334.242h-7.83l1.312-4.428-1.468.44.333-1.012 1.469-.44 1.846-6.213a.332.332 0 0 1 .334-.242h1.98a.26.26 0 0 1 .244.15c.014.03.022.063.023.096v.084l-1.558 5.243 1.469-.44-.312 1.057-1.49.418Z"/></g><mask id="b" width="18" height="19" x="27" y="1" maskUnits="userSpaceOnUse" style="mask-type:luminance"><path fill="#fff" d="M44.831 1.035H27.304v17.986h17.527V1.035Z"/></mask><g mask="url(#b)"><path fill="#F7931A" d="M44.57 12.204c-1.171 4.818-5.927 7.75-10.623 6.548-4.694-1.2-7.551-6.08-6.38-10.898 1.17-4.819 5.925-7.75 10.62-6.55 4.695 1.201 7.553 6.082 6.382 10.9Z"/><path fill="#fff" d="M39.933 8.747c.174-1.197-.714-1.84-1.928-2.27l.394-1.62-.962-.246-.383 1.578a39.071 39.071 0 0 0-.771-.186l.386-1.589-.961-.246-.394 1.62c-.21-.048-.415-.096-.614-.147v-.005l-1.326-.34-.255 1.054s.713.168.698.178c.39.1.46.364.448.574l-.448 1.847a.77.77 0 0 1 .1.033l-.102-.026-.629 2.587c-.047.122-.168.304-.44.235.009.014-.7-.18-.7-.18l-.477 1.13 1.251.32c.233.06.462.123.686.182l-.398 1.64.96.246.395-1.623c.262.073.517.14.766.204l-.392 1.615.961.246.398-1.637c1.64.319 2.873.19 3.393-1.332.418-1.225-.021-1.932-.884-2.393.628-.149 1.101-.573 1.228-1.45Zm-2.198 3.162c-.297 1.225-2.308.563-2.96.397l.528-2.173c.652.167 2.743.498 2.432 1.776Zm.298-3.18c-.272 1.115-1.945.549-2.488.41l.479-1.97c.543.138 2.291.398 2.009 1.56Z"/></g><g clip-path="url(#c)"><path fill="#343434" d="m57.998 0-.153.482v13.984l.153.142 6.998-3.837L57.998 0Z"/><path fill="#8C8C8C" d="M57.998 0 51 10.77l6.998 3.838V0Z"/><path fill="#3C3C3B" d="m57.998 15.837-.086.097v4.982l.086.233L65 12.002l-7.002 3.835Z"/><path fill="#8C8C8C" d="M57.998 21.149v-5.312L51 12.002l6.998 9.147Z"/><path fill="#141414" d="m57.998 14.608 6.998-3.837-6.998-2.95v6.787Z"/><path fill="#393939" d="m51 10.77 6.998 3.838V7.82L51 10.77Z"/></g><g clip-path="url(#d)"><path fill="#FF060A" d="M81.033 19.912c6.047 0 10.945-4.447 10.945-9.93S87.08.052 81.033.052c-6.047 0-10.945 4.447-10.945 9.93s4.902 9.93 10.945 9.93Z"/><path fill="#fff" d="M87.189 8.199c-.604-.508-1.443-1.282-2.122-1.83l-.042-.024a.896.896 0 0 0-.222-.115c-1.644-.278-9.293-1.577-9.44-1.56a.292.292 0 0 0-.117.039l-.038.028a.397.397 0 0 0-.105.155l-.008.023v.152c.86 2.175 4.26 9.298 4.931 10.974.042.115.118.329.26.34h.034c.075 0 .403-.392.403-.392s5.841-6.424 6.433-7.107c.075-.083.142-.175.2-.27a.368.368 0 0 0-.02-.222.504.504 0 0 0-.147-.191Zm-4.973.75 2.49-1.874 1.464 1.223-3.954.651Zm-.97-.123-4.29-3.192 6.945 1.163-2.654 2.03Zm.386.834 4.391-.643-5.02 5.49.63-4.847Zm-5.258-3.704L80.89 9.43l-.654 5.082-3.862-8.556Z"/></g><g clip-path="url(#e)"><path fill="#008CFF" d="M112.078 12.213c-.64-.426-1.379-.533-2.119-.533-.591 0-1.527-.427-1.527-1.653 0-.427.148-.854.443-1.174.296-.32.69-.48 1.084-.48.74-.053 1.479-.16 2.119-.533a4.146 4.146 0 0 0 1.429-1.547c.345-.64.493-1.333.493-2.08 0-.746-.197-1.44-.493-2.08a4.146 4.146 0 0 0-1.429-1.546c-.591-.374-1.232-.534-1.922-.534-.689 0-1.33.214-1.921.534a4.146 4.146 0 0 0-1.429 1.546c-.345.64-.493 1.334-.542 2.08 0 .8.246 1.547.591 2.24.296.587.444 1.654-.542 2.294a1.528 1.528 0 0 1-1.183.16 1.504 1.504 0 0 1-.936-.747c-.394-.64-.838-1.28-1.478-1.707-.591-.373-1.232-.533-1.922-.533s-1.33.213-1.922.533A4.152 4.152 0 0 0 97.443 8c-.344.64-.492 1.333-.492 2.08 0 .747.197 1.44.492 2.08.345.64.838 1.173 1.43 1.547.59.373 1.231.533 1.921.533s1.331-.213 1.922-.533A4.349 4.349 0 0 0 104.194 12c.296-.533 1.084-1.227 2.07-.64.345.213.591.587.69 1.013.098.427.049.854-.148 1.28-.345.694-.592 1.44-.592 2.24 0 .747.198 1.44.493 2.08.345.64.838 1.174 1.429 1.547.591.373 1.232.533 1.922.533s1.33-.213 1.922-.533a4.154 4.154 0 0 0 1.429-1.547c.345-.64.492-1.333.492-2.08 0-.746-.197-1.44-.492-2.08a2.78 2.78 0 0 0-1.331-1.6Z"/></g><path fill="#50AF95" fill-rule="evenodd" d="m124.069 1.982-3.701 7.922a.155.155 0 0 0-.012.095.146.146 0 0 0 .045.084l9.994 9.76a.15.15 0 0 0 .211 0l9.994-9.76a.159.159 0 0 0 .045-.084.163.163 0 0 0-.013-.094l-3.701-7.922a.146.146 0 0 0-.136-.089h-12.589a.144.144 0 0 0-.081.023.147.147 0 0 0-.056.065Z" clip-rule="evenodd"/><path fill="#fff" fill-rule="evenodd" d="M131.739 10.614c-.07.005-.427.026-1.224.026-.635 0-1.085-.019-1.243-.026-2.451-.107-4.28-.528-4.28-1.032s1.829-.925 4.28-1.033v1.645c.16.012.619.039 1.254.039.761 0 1.142-.032 1.21-.038V8.55c2.446.108 4.271.529 4.271 1.032s-1.824.924-4.271 1.031h.003Zm0-2.234V6.907h3.413V4.662h-9.293v2.245h3.412V8.38c-2.773.126-4.859.669-4.859 1.319 0 .65 2.086 1.191 4.859 1.318v4.718h2.467v-4.72c2.768-.126 4.85-.668 4.85-1.317 0-.65-2.081-1.191-4.85-1.318h.001Z" clip-rule="evenodd"/><g clip-path="url(#f)"><g filter="url(#g)"><path fill="#000" d="M157 20.523c5.178 0 9.375-4.17 9.375-9.314S162.178 1.896 157 1.896s-9.375 4.17-9.375 9.313c0 5.144 4.197 9.314 9.375 9.314Z"/></g><path fill="#C3A634" d="M157 20.523c5.178 0 9.375-4.17 9.375-9.314S162.178 1.896 157 1.896s-9.375 4.17-9.375 9.313c0 5.144 4.197 9.314 9.375 9.314Z"/><path fill="url(#h)" d="M157 20.523c5.178 0 9.375-4.17 9.375-9.314S162.178 1.896 157 1.896s-9.375 4.17-9.375 9.313c0 5.144 4.197 9.314 9.375 9.314Z" style="mix-blend-mode:soft-light"/><path stroke="#000" stroke-opacity=".097" d="M157 20.212c5.005 0 9.062-4.03 9.062-9.003 0-4.972-4.057-9.003-9.062-9.003-5.005 0-9.062 4.03-9.062 9.003 0 4.972 4.057 9.003 9.062 9.003Z"/><g filter="url(#i)"><path fill="#000" d="M155.28 10.347h2.696v1.419h-2.696v2.991h1.701c.673 0 1.223-.09 1.652-.271.429-.181.765-.432 1.009-.752.245-.32.411-.695.498-1.127.088-.43.132-.897.132-1.398 0-.5-.044-.967-.132-1.398a2.704 2.704 0 0 0-.498-1.127c-.244-.32-.58-.57-1.009-.752-.429-.18-.979-.27-1.652-.27h-1.701v2.685Zm-1.729 1.419h-.926v-1.42h.926V6.243h4.093c.756 0 1.411.13 1.964.39a3.65 3.65 0 0 1 1.355 1.064c.35.45.611.976.781 1.58a7.06 7.06 0 0 1 .256 1.933 7.06 7.06 0 0 1-.256 1.934 4.555 4.555 0 0 1-.781 1.58 3.65 3.65 0 0 1-1.355 1.064c-.553.26-1.208.39-1.964.39h-4.093v-4.411Z"/></g><path fill="#fff" d="M155.28 10.347h2.696v1.419h-2.696v2.991h1.701c.673 0 1.223-.09 1.652-.271.429-.181.765-.432 1.009-.752.245-.32.411-.695.498-1.127.088-.43.132-.897.132-1.398 0-.5-.044-.967-.132-1.398a2.704 2.704 0 0 0-.498-1.127c-.244-.32-.58-.57-1.009-.752-.429-.18-.979-.27-1.652-.27h-1.701v2.685Zm-1.729 1.419h-.926v-1.42h.926V6.243h4.093c.756 0 1.411.13 1.964.39a3.65 3.65 0 0 1 1.355 1.064c.35.45.611.976.781 1.58a7.06 7.06 0 0 1 .256 1.933 7.06 7.06 0 0 1-.256 1.934 4.555 4.555 0 0 1-.781 1.58 3.65 3.65 0 0 1-1.355 1.064c-.553.26-1.208.39-1.964.39h-4.093v-4.411Z"/></g><g clip-path="url(#j)"><g filter="url(#k)"><path fill="#000" d="M182.5 21.599c5.437 0 9.844-4.425 9.844-9.883 0-5.458-4.407-9.883-9.844-9.883-5.437 0-9.844 4.425-9.844 9.883 0 5.458 4.407 9.883 9.844 9.883Z"/></g><path fill="#23292F" d="M182.5 21.599c5.437 0 9.844-4.425 9.844-9.883 0-5.458-4.407-9.883-9.844-9.883-5.437 0-9.844 4.425-9.844 9.883 0 5.458 4.407 9.883 9.844 9.883Z"/><path fill="url(#l)" d="M182.5 21.599c5.437 0 9.844-4.425 9.844-9.883 0-5.458-4.407-9.883-9.844-9.883-5.437 0-9.844 4.425-9.844 9.883 0 5.458 4.407 9.883 9.844 9.883Z" style="mix-blend-mode:soft-light"/><path stroke="#000" stroke-opacity=".097" d="M182.5 21.27c5.255 0 9.516-4.278 9.516-9.554 0-5.276-4.261-9.553-9.516-9.553s-9.516 4.277-9.516 9.553c0 5.276 4.261 9.554 9.516 9.554Z"/><path fill="#fff" d="M186.676 7.104h1.707l-3.553 3.533a3.31 3.31 0 0 1-4.66 0l-3.555-3.533h1.709l2.7 2.683c.814.81 2.136.81 2.95 0l2.702-2.683ZM178.303 16.925h-1.709l3.576-3.553a3.31 3.31 0 0 1 4.66 0l3.576 3.553h-1.709l-2.72-2.705a2.094 2.094 0 0 0-2.951 0l-2.723 2.705Z"/></g><path fill="#E2761B" stroke="#E2761B" stroke-linecap="round" stroke-linejoin="round" d="m18.067 34.34-6.559 4.871 1.213-2.874 5.346-1.997Z"/><path fill="#E4761B" stroke="#E4761B" stroke-linecap="round" stroke-linejoin="round" d="m2.926 34.34 6.506 4.917-1.153-2.92-5.353-1.997Zm12.781 11.29-1.747 2.677 3.738 1.028 1.074-3.645-3.065-.06Zm-13.473.06 1.068 3.645 3.737-1.028-1.746-2.676-3.059.06Z"/><path fill="#E4761B" stroke="#E4761B" stroke-linecap="round" stroke-linejoin="round" d="m6.829 41.11-1.042 1.575 3.711.164-.132-3.987-2.537 2.247Zm7.336 0-2.57-2.295-.087 4.034 3.705-.164-1.048-1.576Zm-7.126 7.197 2.228-1.088-1.924-1.502-.304 2.59Zm4.687-1.088 2.234 1.088-.31-2.59-1.924 1.502Z"/><path fill="#D7C1B3" stroke="#D7C1B3" stroke-linecap="round" stroke-linejoin="round" d="m13.96 48.307-2.234-1.088.178 1.457-.02.613 2.076-.982Zm-6.92 0 2.076.982-.013-.613.164-1.457-2.227 1.088Z"/><path fill="#233447" stroke="#233447" stroke-linecap="round" stroke-linejoin="round" d="m9.149 44.754-1.859-.547 1.312-.6.547 1.147Zm2.696 0 .547-1.147 1.318.6-1.865.547Z"/><path fill="#CD6116" stroke="#CD6116" stroke-linecap="round" stroke-linejoin="round" d="m7.04 48.307.316-2.676-2.063.06 1.747 2.616Zm6.604-2.676.317 2.676 1.746-2.617-2.063-.06Zm1.569-2.946-3.704.164.342 1.905.547-1.147 1.319.6 1.496-1.522ZM7.29 44.207l1.318-.6.54 1.147.35-1.905-3.71-.164 1.502 1.522Z"/><path fill="#E4751F" stroke="#E4751F" stroke-linecap="round" stroke-linejoin="round" d="m5.787 42.685 1.556 3.032-.053-1.51-1.503-1.522Zm7.93 1.522-.066 1.51 1.562-3.032-1.496 1.522ZM9.497 42.85l-.35 1.905.436 2.248.099-2.96-.185-1.193Zm2.01 0-.178 1.187.08 2.966.441-2.248-.343-1.905Z"/><path fill="#F6851B" stroke="#F6851B" stroke-linecap="round" stroke-linejoin="round" d="m11.851 44.754-.441 2.248.316.217 1.925-1.502.066-1.51-1.866.547Zm-4.561-.547.053 1.51 1.924 1.502.317-.217-.435-2.248-1.859-.547Z"/><path fill="#C0AD9E" stroke="#C0AD9E" stroke-linecap="round" stroke-linejoin="round" d="m11.884 49.29.02-.614-.165-.145H9.254l-.151.145.013.613-2.076-.982.725.593 1.47 1.022h2.524l1.476-1.022.726-.593-2.077.982Z"/><path fill="#161616" stroke="#161616" stroke-linecap="round" stroke-linejoin="round" d="m11.726 47.22-.317-.218H9.585l-.317.217-.164 1.457.151-.145h2.485l.165.145-.178-1.457Z"/><path fill="#763D16" stroke="#763D16" stroke-linecap="round" stroke-linejoin="round" d="m18.344 39.527.56-2.689-.837-2.498-6.34 4.706 2.438 2.063 3.447 1.009.765-.89-.33-.237.527-.481-.408-.317.527-.402-.35-.264ZM2.096 36.838l.56 2.69-.355.263.527.402-.402.317.527.48-.33.238.758.89 3.448-1.009 2.439-2.063-6.341-4.706-.83 2.498Z"/><path fill="#F6851B" stroke="#F6851B" stroke-linecap="round" stroke-linejoin="round" d="m17.612 42.118-3.447-1.009 1.048 1.576-1.562 3.032 2.056-.027h3.065l-1.16-3.572ZM6.829 41.109 3.38 42.118 2.234 45.69h3.059l2.05.027-1.556-3.032 1.042-1.576Zm4.68 1.74.217-3.803 1.002-2.709h-4.45l.99 2.71.23 3.802.08 1.2.006 2.953h1.825l.014-2.953.085-1.2Z"/><g clip-path="url(#m)"><g filter="url(#n)"><path fill="#000" d="M36.5 51.688c5.437 0 9.844-4.408 9.844-9.844 0-5.437-4.407-9.844-9.844-9.844-5.437 0-9.844 4.407-9.844 9.844 0 5.436 4.407 9.843 9.844 9.843Z"/></g><path fill="#F3BA2F" d="M36.5 51.688c5.437 0 9.844-4.408 9.844-9.844 0-5.437-4.407-9.844-9.844-9.844-5.437 0-9.844 4.407-9.844 9.844 0 5.436 4.407 9.843 9.844 9.843Z"/><path fill="url(#o)" d="M36.5 51.688c5.437 0 9.844-4.408 9.844-9.844 0-5.437-4.407-9.844-9.844-9.844-5.437 0-9.844 4.407-9.844 9.844 0 5.436 4.407 9.843 9.844 9.843Z" style="mix-blend-mode:soft-light"/><path stroke="#000" stroke-opacity=".097" d="M36.5 51.36a9.516 9.516 0 1 0 0-19.031 9.516 9.516 0 0 0 0 19.03Z"/><g filter="url(#p)"><path fill="#000" d="m33.951 40.797 2.549-2.55 2.55 2.55 1.483-1.482L36.5 35.28l-4.032 4.032 1.483 1.483Zm-4.014 1.047 1.484-1.484 1.483 1.483-1.483 1.484-1.483-1.483Zm4.014 1.047L36.5 45.44l2.55-2.55 1.484 1.482-4.034 4.034-4.032-4.032-.002-.002 1.485-1.481Zm6.145-1.047 1.483-1.483 1.483 1.483-1.483 1.483-1.483-1.483Zm-2.092-.001h.002l-.001.001L36.5 43.35l-1.504-1.503-.002-.002.002-.002.264-.264.128-.128 1.112-1.112 1.505 1.505Z"/></g><path fill="#fff" d="m33.951 40.797 2.549-2.55 2.55 2.55 1.483-1.482L36.5 35.28l-4.032 4.032 1.483 1.483Zm-4.014 1.047 1.484-1.484 1.483 1.483-1.483 1.484-1.483-1.483Zm4.014 1.047L36.5 45.44l2.55-2.55 1.484 1.482-4.034 4.034-4.032-4.032-.002-.002 1.485-1.481Zm6.145-1.047 1.483-1.483 1.483 1.483-1.483 1.483-1.483-1.483Zm-2.092-.001h.002l-.001.001L36.5 43.35l-1.504-1.503-.002-.002.002-.002.264-.264.128-.128 1.112-1.112 1.505 1.505Z"/></g><g clip-path="url(#q)"><mask id="r" width="20" height="20" x="52" y="32" maskUnits="userSpaceOnUse" style="mask-type:luminance"><path fill="#fff" d="M72 32H52v20h20V32Z"/></mask><g mask="url(#r)"><path fill="#375BD2" d="M62 52c5.523 0 10-4.477 10-10s-4.477-10-10-10-10 4.477-10 10 4.477 10 10 10Z"/><path fill="#fff" d="m62 34.5-6.495 3.75v7.5L62 49.5l6.495-3.75v-7.5L62 34.5Zm3.743 9.661L62 46.321l-3.743-2.16v-4.322L62 37.679l3.743 2.16v4.322Z"/></g></g><g clip-path="url(#s)"><path fill="#8247E5" d="M87.5 53C93.299 53 98 48.299 98 42.5S93.299 32 87.5 32 77 36.701 77 42.5 81.701 53 87.5 53Z"/><path fill="#fff" d="M91.1 40.14c-.255-.146-.584-.146-.877 0l-2.047 1.206-1.388.768-2.011 1.206a.933.933 0 0 1-.877 0l-1.572-.95a.892.892 0 0 1-.44-.768v-1.827a.9.9 0 0 1 .44-.768l1.572-.914c.255-.146.584-.146.877 0l1.572.95a.89.89 0 0 1 .438.768v1.206l1.39-.804v-1.242a.901.901 0 0 0-.44-.768l-2.924-1.718c-.255-.146-.584-.146-.877 0l-2.997 1.754a.804.804 0 0 0-.439.731v3.436a.9.9 0 0 0 .439.768l2.96 1.718c.256.146.585.146.878 0l2.01-1.17 1.39-.804 2.01-1.17c.255-.146.584-.146.877 0l1.572.914a.89.89 0 0 1 .438.768v1.827a.9.9 0 0 1-.438.768l-1.536.914c-.255.146-.584.146-.877 0l-1.572-.914a.89.89 0 0 1-.438-.768v-1.17l-1.39.805v1.205a.9.9 0 0 0 .439.768l2.96 1.718a.933.933 0 0 0 .878 0l2.96-1.718a.89.89 0 0 0 .44-.768v-3.472a.902.902 0 0 0-.44-.768L91.1 40.14Z"/></g><g clip-path="url(#t)"><path fill="url(#u)" d="M124 42.5c0-5.804-4.707-10.5-10.5-10.5-5.804 0-10.5 4.696-10.5 10.5 0 5.793 4.696 10.5 10.5 10.5 5.793 0 10.5-4.707 10.5-10.5Z"/><path fill="#fff" d="M120.639 39.219c-.045.26-.09.384-.158.52a2.878 2.878 0 0 0-.204.69c-.022.136-.045.25-.056.34v.011c-.023.147-.034.25-.091.419a1.905 1.905 0 0 1-.316.634c-.159.203-.419.554-.77.6-.034 0-.09 0-.124-.012-.996-.51-1.845-.883-2.139-.962-.339-.102-.294-.849-.26-1.505.023-.294.034-.577.023-.814-.046-.838-.193-1.743-.917-2.184-.43-.26-.996-.34-1.527-.34.101-.045.203-.113.328-.18.317-.182.701-.408 1.097-.453.125-.011.249-.023.374-.045.78-.091 1.459-.17 2.172.079.328.113.984.475 1.154.826.125.237.328.43.724.803.215.192.351.306.453.396.147.113.17.147.215.226.136.272.09.555.022.95ZM117.03 42.647c.046.011.068.068.034.113-.102.159-.226.385-.373.645-.068.125-.136.25-.192.34-.193.328-.204.61-.215.826-.012.237-.023.34-.17.43-.113.079-.238.101-1.052.226a.644.644 0 0 0-.261.08c-.011.01-.034.01-.045.022-.045.022-.09-.023-.09-.068.011-.113.011-.26.011-.453v-.034c0-.158 0-.294-.011-.396-.012-.203-.012-.294.045-.384.068-.114.124-.148.204-.204.124-.08.294-.181.531-.52.136-.182.159-.283.181-.363.012-.033.012-.045.113-.124.102-.08.43-.328.849-.26.136.022.283.068.441.124ZM113.783 46.404c-.022.022-.034.033-.068.033-.09 0-.147-.022-.181-.067-.079-.102-.068-.306-.056-.43l.35-.09c.023.191.034.452-.045.553ZM113.806 45.159c-.012.045-.012.102-.012.17v.26a1.005 1.005 0 0 1-.316.034V45.329c0-.068 0-.17.011-.204a.332.332 0 0 0 .102-.023c.068-.01.169-.034.226-.022 0 .022 0 .056-.011.079ZM113.172 46.302c-.011.18-.068.396-.237.43-.08.011-.114-.012-.136-.034-.113-.102-.125-.419-.113-.645.079 0 .169-.011.282-.034.068-.011.136-.034.193-.045.011.09.022.203.011.328ZM113.093 45.668l-.374.136c.023-.147.045-.35.057-.487.011-.09.034-.124.045-.135 0 0 .011-.012.023-.012h.022l.238-.011c-.011.113-.011.362-.011.51ZM112.482 45.555a1.777 1.777 0 0 0-.057.328l-.464-.011c.023-.147.068-.294.102-.408.046-.113.079-.203.125-.226.045-.023.147-.034.215.023.102.068.124.17.079.294ZM112.312 46.992c-.034.045-.079.08-.124.08-.057.01-.091-.012-.125-.035-.147-.136-.136-.577-.124-.792.192-.045.407-.079.509-.09 0 .17.011.633-.136.837ZM111.701 45.85a.937.937 0 0 0-.056.169c-.057.023-.227 0-.396-.034l.113-.735c.192-.057.418-.068.464-.012.079.08-.068.453-.125.611ZM111.486 47.094c-.09.113-.226.17-.418.158-.136 0-.181-.056-.204-.09-.102-.17 0-.566.102-.815l.633.034a.657.657 0 0 1 .012.158c.011.193-.012.419-.125.555Z"/><path fill="#fff" d="M116.736 41.742c-.577-.158-.52-.996-.475-1.81.011-.283.034-.555.023-.781-.046-.758-.17-1.584-.781-1.958-.656-.395-1.731-.305-2.387-.226-.238.068-.464.125-.645.113-.385-.022-.691-.18-.962-.328-.204-.113-.385-.215-.566-.215h-.023c-.509.034-.746.159-.961.351-.057.045-.125.181-.34.803-.113.317-.124.487-.147.645-.022.147-.034.306-.113.543a4.477 4.477 0 0 0-.136.43c-.102.351-.192.634-.441.973-.034.034-.068.102-.113.159-.057.09-.125.203-.226.328-.068.09-.215.43-.204.532.011.17.068.271.124.384.057.113.136.25.147.442v.034c.023.294-.022.44-.577.939a6.07 6.07 0 0 0-.78.848c-.012.023 0 .046.034.046h.113a.546.546 0 0 1 .362.17c.011.022.045.022.068.01a.604.604 0 0 1 .283-.022.522.522 0 0 1 .316.124c.023.023.057.034.091.023a.485.485 0 0 1 .283.011.4.4 0 0 1 .181.125.12.12 0 0 0 .136.023c.022-.012.056-.035.09-.046a.528.528 0 0 1 .373.023c.057.023.114.034.17.08a.543.543 0 0 1 .193.26c.022.056.101.078.147.033.09-.068.158-.079.226-.056a.149.149 0 0 1 .079.068c.034.045.091.09.136.067a.813.813 0 0 1 .588.068c.057.034.125.08.159.147v-.033c0-.012.011-.023.022-.035l.034-.01c.091-.035.566-.17.747.022.011.011.023.011.034 0 .023-.023.045-.045.057-.045.124-.068.328-.08.463.045.023.023.068.011.091-.011a.089.089 0 0 1 .045-.046c.045-.045.113-.056.181-.056l.261-.012c.067 0 .271-.022.328-.034h.011a.335.335 0 0 0 .09-.022c.125-.023.272-.057.385 0 .113.056.102.18.091.294 0 .045-.012.09-.012.136v.068c0 .102 0 .192-.011.26l.011.056v.012c.012.045.068.079.102.045a.93.93 0 0 0 .215-.17v-.011c0-.011.011-.034.023-.08.011-.101.034-.293.034-.69v-.045c0-.147 0-.271-.012-.373-.011-.215-.022-.385.091-.554.102-.17.204-.227.305-.295.114-.068.238-.147.453-.44.102-.148.113-.205.124-.25.023-.113.057-.18.227-.294.136-.102.532-.407 1.075-.317.181.034.464.125.758.238.011 0 .022.011.034.011h.011c.26.102.498.215.668.306.034.022.079.01.113-.023.056-.068.113-.102.169-.147.023-.011.046-.023.057-.034.011 0 .011-.011.011-.011.046-.034.046-.125-.011-.148a11.08 11.08 0 0 0-1.72-.667Zm-5.453.17c-.182.77-1.381 1.629-1.924 1.629h-.034c-.011 0-.023 0-.034-.011h-.022a.906.906 0 0 1-.34-.204.596.596 0 0 1-.147-.238c0-.01-.011-.034-.011-.045a.788.788 0 0 1 .045-.566c.011-.033.034-.067.045-.101 0-.012.012-.023.012-.034.011-.034.022-.057.033-.08.012-.045.034-.079.046-.101 0-.012.011-.023.011-.034.034-.09.034-.125.045-.159 0-.022.012-.068.023-.113.034-.147.056-.271.068-.373.022-.193.056-.362.158-.52.023-.023.034-.046.057-.069l.022-.022.023-.023c.023-.023.057-.034.079-.045.012 0 .023-.011.034-.011.023-.012.045-.012.068-.023.102-.023.215-.023.351-.011.147.01.283.033.396.067.102.023.192.057.26.091.011 0 .011.011.023.011.011.012.022.012.045.023s.034.011.057.023c.022.01.045.022.067.034l.023.01a.991.991 0 0 1 .294.193c.012.011.023.011.023.023l.022.022c.238.204.227.487.182.657Zm.565-2.93-.022.135c-.057.317-.181.747-.634.86-.441.102-.543.124-.849.147h-.022c-.227 0-.668-.147-.747-.498-.045-.226.057-.396.215-.667.023-.046.057-.09.091-.148.226-.373.305-.645.373-.86.068-.214.124-.384.271-.531a.434.434 0 0 1 .114-.09c.022-.023.056-.035.09-.057.045-.023.091-.034.136-.057.102-.034.215-.045.317-.045.215 0 .43.056.577.18.068.057.169.16.226.487.023.17-.023.476-.136 1.143Zm3.248.904c-.159.272-.238.419-.374.532-.271.227-.577.272-.837.272-.181 0-.34-.034-.441-.045-.272-.046-.758-.136-.928-.532-.034-.08-.034-.125-.034-.193 0-.056 0-.17-.034-.407v-.011a1.533 1.533 0 0 1 0-.396v-.023c.09-.475.124-.543.136-.588a.186.186 0 0 1 .26-.08c.09.046.124.159.09.25-.011.022-.033.124-.113.497v.023c-.022.102-.011.18 0 .283v.011c.034.272.034.385.034.453V39.976c.034.08.102.125.181.17.057.023.113-.022.102-.079-.079-.418-.079-.905.079-1.21l.238-.419a.09.09 0 0 0 .023-.045c.011-.011.011-.023.022-.034.045-.068.079-.125.113-.181 0-.011.012-.011.012-.023l.011-.011c.011-.011.011-.023.023-.034 0 0 0-.011.011-.011l.011-.012c0-.011.012-.011.012-.022.033-.045.067-.09.09-.136.045-.057-.011-.125-.068-.102-.158.068-.26.147-.283.159a.186.186 0 0 1-.271-.034.187.187 0 0 1 .034-.272c.102-.08.622-.453 1.244-.283.453.125.679.475.77.6.068.102.294.419.283.871 0 .328-.136.577-.396 1.018Z"/><path fill="#fff" d="M111.045 37.567c-.034.08-.068.17-.113.271-.091.238-.204.51-.261.611-.09.17-.158.283-.215.363a1.454 1.454 0 0 0-.158.294 1.226 1.226 0 0 0-.034.645c-.125-.012-.317-.09-.339-.204-.012-.08.033-.158.169-.396.023-.045.057-.102.091-.147.237-.407.339-.713.407-.94.079-.237.113-.339.238-.43a.925.925 0 0 1 .215-.067ZM110.807 46.12c-.136.272-.294.521-.396.646-.09-.227-.237-.758-.192-1.177v-.034a.712.712 0 0 1 .113-.35c.045-.069.158-.103.283-.103.09 0 .192.023.283.068.045.023.113.08.113.227.023.203-.079.475-.204.724Z"/><path fill="#fff" d="M118.049 43.1c.011.011.011.022.011.034-.034.079-.091.136-.147.203-.068.08-.147.17-.215.317-.102.204-.136.385-.147.86-.023.554 0 .86.022 1.086.012.215.023.351-.011.566-.079.43-.26.713-.498 1.075-.294.453-.588.916-1.086 1.063-.045.012-.045.012-.181.012-.113 0-.306 0-.656.011-.657.023-.985.034-1.256.09-.294.057-.441.125-.6.182-.136.056-.26.102-.498.158-.147.034-.362.057-1.097.068-.77 0-1.234 0-1.833-.068-.838-.09-1.256-.147-1.539-.294-.656-.35-.939-.985-1.392-2.025 0-.012.012-.023.023-.023l.068.034a.12.12 0 0 0 .056.011.277.277 0 0 0 .136 0c.011 0 .011 0 .023-.011.011 0 .022 0 .022.011a.38.38 0 0 0 .159.193c.079.045.17.045.249.045.09 0 .181-.011.271-.023.046 0 .091.023.113.057.08.203.181.34.34.362h.034c.034 0 .09-.011.158-.057.057-.045.147-.011.193.046.034.056.079.09.124.124.158.158.543.238.86.238.17 0 .328-.023.419-.068.135-.068.135-.159.124-.204l-.034-.215c0-.011.011-.011.011 0 .023.045.046.09.102.102h.023c.09 0 .226.034.249.113.011.045.034.08.056.124.057.08.159.181.374.193h.011c.249 0 .441-.08.566-.238.011-.011.011-.022.022-.034.046-.068.181-.068.238-.011.068.057.147.09.238.09h.045a.399.399 0 0 0 .283-.17.77.77 0 0 0 .102-.237c.011-.023.045-.034.067-.011.046.045.125.09.238.09.023 0 .057 0 .091-.01.215-.046.328-.227.373-.42 0-.01.011-.01.011 0a.411.411 0 0 0 .328.148h.023c.091 0 .17-.046.226-.114.068-.09.091-.226.102-.35 0-.034.023-.068.068-.09.181-.08.407-.25.475-.363 0 0 0-.011.012-.011.011-.034.045-.057.067-.057.148-.023.204-.056.261-.08a.658.658 0 0 1 .192-.056c.826-.124.984-.158 1.165-.271.272-.181.283-.43.295-.668.011-.203.022-.43.181-.701.056-.102.124-.215.192-.351.125-.226.294-.543.419-.713a.074.074 0 0 1 .102-.023c.282.102.531.215.577.26Z"/><path fill="#fff" d="M110.015 45.566a5.497 5.497 0 0 0-.011 1.166c.011.136.034.282.057.43-.034.022-.159.056-.363.045-.294-.011-.588-.08-.678-.181l-.012-.012c-.068-.056-.124-.101-.124-.203 0-.034.011-.068.045-.125a.395.395 0 0 0 .068-.101c.045-.068.113-.148.181-.26.192-.318.26-.42.351-.544.011-.011.011-.022.022-.034.057-.068.114-.158.215-.305.068-.102.125-.193.181-.26.08-.114.136-.17.17-.204 0 .045-.011.113-.023.18-.045.137-.067.261-.079.408ZM109.868 41.108c0 .012 0 .012 0 0-.045.057-.09.125-.147.238-.147.317-.147.498-.147.645 0 .08 0 .136-.023.203a.619.619 0 0 1-.067.159c-.08.192-.193.441-.148.78a.725.725 0 0 1-.192-.146c0-.023-.011-.034-.011-.057a.485.485 0 0 1 .022-.328c.181-.407.204-.51.215-.622 0-.023.012-.046.012-.08a3.96 3.96 0 0 0 .068-.407c.022-.17.045-.283.101-.362.023-.034.08-.045.159-.045.034 0 .068 0 .113.011h.011l.034.011ZM109.642 45.148a.924.924 0 0 0-.068-.295s-.011-.022-.011-.034c-.012-.01-.012-.022-.023-.034l-.011-.01c-.012-.012-.012-.012-.023-.012l-.011-.011c-.011 0-.011-.012-.023-.012h-.011c-.057-.022-.113-.045-.181-.056H109.223c-.011 0-.022.011-.045.011-.011 0-.011.011-.023.011l-.011.012-.023.022-.011.012v.01l-.068.103c-.056.079-.113.17-.169.249-.057.079-.102.147-.159.226-.034.045-.056.08-.09.124 0 .012-.012.012-.012.023.034.011.068.011.102.023.079.011.159.022.226.034.159.022.329.034.487.022h.023c.034-.056.09-.124.147-.215.034-.045.068-.09.09-.136-.034-.01-.045-.045-.045-.067ZM109.065 45.815c-.011.125-.147.442-.362.747-.181.249-.294.317-.317.317-.09-.012-.17-.226-.238-.441-.022-.091-.056-.17-.067-.25-.046-.158-.057-.384-.046-.52.181.102.498.125.951.125.022.01.056.01.079.022ZM108.748 44.797a8.352 8.352 0 0 1-.238.35c-.045.057-.079.114-.124.17-.023.034-.057.068-.079.102-.068-.011-.125-.034-.193-.045-.056-.011-.101-.034-.158-.057-.011 0-.023-.01-.034-.01-.011-.012-.023-.035-.034-.046.023-.034.034-.08.057-.113.034-.068.068-.136.113-.204.068-.113.147-.238.271-.317.012 0 .012-.011.023-.011a.573.573 0 0 1 .147-.057h.091c.011 0 .022.012.045.012 0 0 .011 0 .011.011.012.011.023.011.034.023-.022-.012.023.034.023.022.022.068.034.102.045.17ZM108.137 44.469a1.158 1.158 0 0 0-.328.441l-.136.272c0 .01-.011.022-.011.022a1.773 1.773 0 0 1-.125-.034c-.045-.011-.09-.034-.136-.045-.022-.011-.034-.023-.056-.034.045-.08.09-.158.147-.238.068-.101.147-.215.226-.305.034-.034.068-.08.102-.102.045-.023.09-.023.147-.011.057 0 .113 0 .158.022-.011 0 0 .012.012.012ZM107.911 46.392l-.023.023h-.011c-.034 0-.068.011-.102.011-.068 0-.136.011-.204 0a.126.126 0 0 1-.09-.034c-.023-.034-.034-.102-.046-.147a2.75 2.75 0 0 1-.022-.747c.124.046.26.08.396.102-.034.227.022.555.045.645.034.045.045.102.057.147ZM107.503 44.39a3.025 3.025 0 0 0-.305.44c-.034.057-.08.125-.113.193a.585.585 0 0 1-.215-.125c-.012-.01-.034-.022-.046-.033 0 0-.011 0-.011-.012.011-.034.034-.056.034-.079a.622.622 0 0 1 .079-.147c.057-.09.113-.18.181-.271.023-.034.045-.068.091-.08.034-.01.079 0 .113 0a.375.375 0 0 1 .192.113ZM106.632 44.99c.011-.012 0-.012 0 0 .045.045.079.078.125.112.022.012.034.034.056.046v.011a2.655 2.655 0 0 0-.079.6c0 .011-.011.011-.011 0-.057-.238-.125-.623-.091-.77ZM107.187 45.408c-.023.17-.034.34-.023.51 0 .09.011.18.023.282h-.091l-.045-.023c-.023-.011-.046-.045-.068-.079a.519.519 0 0 1-.057-.26c-.011-.17.012-.35.046-.52a.724.724 0 0 0 .09.033c.045.023.079.046.125.057Z"/><mask id="v" width="21" height="21" x="103" y="32" maskUnits="userSpaceOnUse" style="mask-type:luminance"><path fill="#fff" d="M124 42.5c0-5.804-4.707-10.5-10.5-10.5-5.804 0-10.5 4.696-10.5 10.5 0 5.793 4.696 10.5 10.5 10.5 5.793 0 10.5-4.707 10.5-10.5Z"/></mask><g stroke-miterlimit="10" mask="url(#v)" opacity=".8"><path stroke="url(#w)" stroke-width="1.055" d="M111.644 54.233a28.38 28.38 0 0 1-2.104-.09l-.17-.012-.17-.022a8.675 8.675 0 0 0-.271-.034c-.589-.068-1.686-.181-2.897-.747l-.192-.09-.17-.102c-2.331-1.313-3.191-3.27-3.666-4.322-.034-.068-.068-.148-.102-.227a8.792 8.792 0 0 1-.509-1.324l-.022-.09-.023-.09c-.339-1.2-.419-2.23-.272-3.26.159-1.029.532-1.957 1.2-2.941l.339-.554a1.43 1.43 0 0 0 .147-.363c.261-1.29.849-2.206 1.143-2.647a8.303 8.303 0 0 1 .396-1.562l.023-.079.034-.079c0-.011.011-.034.022-.068.136-.396.442-1.312 1.222-2.285l.294-.34.306-.271a6.915 6.915 0 0 1 2.693-1.517 7.306 7.306 0 0 1 1.72-.305h.135c.102 0 .204-.011.295-.011.362 0 .724.034 1.086.09.226.034.452.012.667-.08a7.667 7.667 0 0 1 1.935-.52c.057-.01.102-.01.147-.022.102-.011.272-.034.476-.057.35-.034.893-.079 1.47-.079 1.143 0 2.128.147 3.01.453l.079.022.068.023c1.946.735 2.931 1.765 3.644 2.659l.033.045.102.09a6.867 6.867 0 0 1 1.618 1.811l.136.215.113.226c.951 1.935.645 3.734.532 4.402l-.011.034a8.12 8.12 0 0 1-.385 1.46c-.068.452-.17.904-.317 1.334a7.794 7.794 0 0 1-1.097 2.161 7.773 7.773 0 0 1-.928 1.087.72.72 0 0 0-.226.44c-.012.103-.034.205-.046.306a8.197 8.197 0 0 1-1.199 2.953l-.803 1.155c-.973 1.21-2.128 2.002-3.519 2.432l-.34.102-.362.068a6.76 6.76 0 0 1-1.267.113H115.31c-.158 0-.317.034-.475.08-.928.293-1.946.43-3.191.43Z" opacity=".8"/><path stroke="url(#x)" stroke-width="1.055" d="M111.644 53.43c-.735 0-1.448-.045-2.036-.09l-.136-.012-.136-.023a21.22 21.22 0 0 0-.294-.033c-.577-.057-1.528-.17-2.591-.668l-.158-.08-.148-.078c-2.07-1.143-2.828-2.852-3.281-3.87-.034-.068-.068-.159-.113-.238a7.791 7.791 0 0 1-.464-1.199l-.023-.08-.022-.067c-.294-1.075-.374-1.98-.238-2.874.136-.883.475-1.709 1.064-2.569l.441-.712c.079-.125.136-.272.159-.419.214-1.222.792-2.082 1.052-2.478l.034-.045.011-.023c0-.011.011-.022.011-.034.012-.056.034-.102.046-.147.067-.498.192-.995.362-1.47l.022-.069.023-.068c.011-.022.011-.045.034-.113a6.029 6.029 0 0 1 1.063-1.991l.249-.294.249-.227a5.9 5.9 0 0 1 2.331-1.312 6.262 6.262 0 0 1 1.516-.26h.113c.091 0 .17-.012.249-.012.374 0 .736-.101 1.098-.034.283.057.566.023.826-.09.486-.215 1.143-.294 1.889-.396.057-.011.102-.011.136-.023.102-.01.26-.034.441-.045.329-.034.838-.068 1.392-.068 1.041 0 1.924.136 2.704.396l.068.023.057.022c1.72.657 2.568 1.517 3.236 2.365.034.046.079.09.09.113l.012.012.124.113.011.023a5.845 5.845 0 0 1 1.437 1.595l.114.18.09.193c.815 1.663.566 3.191.453 3.836l-.012.034a7.288 7.288 0 0 1-.373 1.38c-.057.43-.158.86-.294 1.268a7.302 7.302 0 0 1-.973 1.912c-.283.407-.623.78-.985 1.108a.935.935 0 0 0-.305.6l-.068.498a7.055 7.055 0 0 1-1.086 2.636l-.657.95c-.871 1.12-1.9 1.845-3.145 2.23l-.283.09-.305.057a5.147 5.147 0 0 1-1.098.09H115.118c-.17.012-.339.034-.509.09-.826.272-1.788.397-2.965.397Z" opacity=".8"/><path stroke="url(#y)" stroke-width=".989" d="M111.644 52.49c-.701 0-1.391-.044-1.968-.09l-.114-.011-.113-.011a32.03 32.03 0 0 0-.328-.034c-.543-.057-1.369-.147-2.297-.589l-.124-.056-.113-.068c-1.777-.996-2.433-2.467-2.863-3.44l-.113-.26a6.672 6.672 0 0 1-.419-1.086l-.022-.057-.012-.056c-.26-.928-.328-1.72-.215-2.467.113-.758.419-1.47.939-2.229l.068-.09.068-.091c.045-.057.079-.113.125-.158l.26-.487c.09-.158.147-.328.17-.51.169-1.085.69-1.866.927-2.228a.248.248 0 0 1 .046-.057l.056-.079c.023-.045.046-.102.068-.17.023-.067.057-.17.079-.26.057-.464.17-.916.328-1.358l.023-.056.023-.057c.011-.045.034-.079.056-.158.113-.35.328-.996.905-1.697l.193-.238.203-.181a5.145 5.145 0 0 1 1.981-1.12c.43-.125.859-.204 1.312-.226h.306c.384 0 .758.045 1.131.147.317.079.656.045.95-.102.476-.227 1.109-.475 1.845-.566.045-.011.09-.011.124-.022.091-.012.238-.035.419-.046.305-.034.792-.068 1.301-.068.928 0 1.709.114 2.399.351l.045.023.045.022c1.584.6 2.286 1.38 2.829 2.07.124.148.136.17.215.25l.102.09.034.046c.26.203.792.622 1.256 1.38l.09.147.079.147c.691 1.392.476 2.66.374 3.27l-.012.034a5.296 5.296 0 0 1-.373 1.301v.034a5.81 5.81 0 0 1-.26 1.166 5.783 5.783 0 0 1-.849 1.663 5.704 5.704 0 0 1-1.097 1.177.857.857 0 0 0-.238.294c-.057.113-.09.237-.102.362a5.592 5.592 0 0 1-.09.747c-.215 1.142-.713 1.934-.962 2.33l-.509.747c-.758 1.019-1.663 1.675-2.761 2.014l-.226.068-.249.045c-.306.057-.623.08-.939.08h-.419l-.26.01a1.707 1.707 0 0 0-.532.103c-.781.249-1.675.362-2.795.362Z" opacity=".8"/><path stroke="url(#z)" stroke-width=".923" d="M111.644 51.552c-.667 0-1.335-.045-1.889-.09l-.079-.012-.08-.011c-.113-.012-.237-.034-.35-.046-.509-.056-1.211-.136-2.003-.498l-.09-.045-.091-.045c-1.505-.849-2.059-2.093-2.467-2.998a3.158 3.158 0 0 1-.124-.283 7.066 7.066 0 0 1-.373-.962l-.012-.045-.034-.034c-.441-1.562-.271-2.66.589-3.915l.045-.068.045-.068c.057-.068.113-.147.17-.215.079-.102.158-.215.249-.317a.946.946 0 0 0 .136-.226l.101-.249a1.23 1.23 0 0 0 .08-.34c.09-1.006.577-1.73.814-2.093.023-.022.046-.067.057-.079l.056-.09.023-.023c.034-.056.091-.192.136-.328.022-.09.068-.238.113-.362v-.011c.045-.419.147-.838.294-1.234l.011-.034.012-.034c.022-.067.045-.124.068-.203.102-.306.271-.826.735-1.403l.147-.181.147-.136c1.098-.996 2.32-1.075 2.727-1.109H111.045c.486 0 .962.102 1.414.294.079.034.17.046.249.046.091 0 .17-.023.249-.068.419-.238 1.177-.68 2.15-.792.045-.012.09-.012.124-.012.091-.011.226-.022.385-.045.294-.023.735-.056 1.211-.056.826 0 1.504.101 2.081.294l.034.011.034.011c1.358.51 1.935 1.154 2.422 1.765.124.17.192.238.328.374l.079.068.057.067.045.035c.226.18.656.509 1.041 1.13l.068.114.056.113c.555 1.132.374 2.15.283 2.693v.034a5.313 5.313 0 0 1-.339 1.166l-.012.033c0 .012 0 .012-.011.034-.011.034-.011.068-.011.102l-.012.045c-.034.34-.113.668-.226.985-.17.509-.407.984-.724 1.414a4.557 4.557 0 0 1-1.041 1.086c-.17.125-.305.283-.407.476a1.28 1.28 0 0 0-.147.61c0 .26-.034.532-.08.793-.181.973-.588 1.629-.848 2.025l-.374.554c-.656.917-1.437 1.505-2.376 1.8l-.045.01a1.795 1.795 0 0 1-.238.057l-.056.012c-.26.045-.521.068-.781.068H115.186c-.125 0-.283.01-.419.01a1.86 1.86 0 0 0-.554.114c-.679.204-1.505.317-2.569.317Z" opacity=".8"/><path stroke="url(#A)" stroke-width=".858" d="M111.644 50.612c-.645 0-1.278-.045-1.821-.09h-.057l-.056-.011c-.125-.023-.261-.034-.385-.046-.475-.056-1.064-.113-1.697-.418l-.068-.034-.057-.034c-1.233-.69-1.697-1.731-2.059-2.569-.045-.101-.091-.203-.136-.316a5.751 5.751 0 0 1-.328-.838l-.011-.034-.012-.034c-.362-1.29-.237-2.104.464-3.122l.034-.046.034-.045c.057-.08.113-.147.17-.226.181-.238.362-.475.622-.758a.41.41 0 0 0 .102-.227l.011-.26-.011-.102v-.101c.023-.838.441-1.46.668-1.8.022-.033.056-.079.068-.101l.033-.057.034-.045c.046-.068.147-.306.238-.52.034-.091.079-.272.136-.42.011-.044.011-.056.022-.158.034-.35.125-.701.238-1.03l.011-.022.012-.023c.034-.09.056-.158.09-.248a3.36 3.36 0 0 1 .577-1.11l.102-.124.102-.09c.769-.69 1.595-.826 2.161-.86H111.045c.475 0 1.052.226 1.357.373a.518.518 0 0 0 .227.057.855.855 0 0 0 .237-.034c.193-.068.374-.147.543-.238.385-.226 1.019-.588 1.811-.679.045-.011.079-.011.113-.011.079-.011.204-.023.362-.045.272-.023.679-.057 1.12-.057.713 0 1.301.08 1.777.25l.022.01.023.012c1.131.43 1.584.916 2.014 1.47.136.182.237.306.441.487l.045.045.046.046c.045.045.09.079.135.113.193.147.521.407.804.882l.045.068.034.08c.419.848.283 1.651.204 2.127v.034a4.005 4.005 0 0 1-.283.95c-.034.08-.057.158-.079.249a.833.833 0 0 0-.023.158l-.011.046a4.348 4.348 0 0 1-.77 1.969c-.384.542-.826.927-1.358 1.176a.731.731 0 0 0-.316.272.819.819 0 0 0-.136.396v.135c.022.408.056.872-.034 1.358-.147.792-.487 1.324-.736 1.72 0 0-1.154 1.607-2.206 1.935l-.113.034-.125.022a3.737 3.737 0 0 1-.622.057h-.215c-.045 0-.113 0-.215.011h-.045c-.407.012-.781.023-.894.046-.056.01-.113.022-.17.045-.554.237-1.335.35-2.41.35Z" opacity=".8"/><path stroke="url(#B)" stroke-width=".858" d="M111.644 49.685c-.611 0-1.222-.046-1.742-.08h-.046c-.147-.022-.282-.033-.407-.045-.441-.045-.905-.102-1.403-.328l-.034-.011-.034-.011c-.962-.544-1.324-1.347-1.663-2.128-.045-.113-.102-.226-.158-.34a4.136 4.136 0 0 1-.272-.712v-.022c-.294-1.03-.215-1.55.328-2.343l.011-.022.012-.023c.068-.08.124-.158.181-.226.26-.34.486-.634.995-1.109a.277.277 0 0 0 .08-.136.22.22 0 0 0-.012-.147l-.09-.26a.928.928 0 0 1-.034-.25v-.123c.023-.566.317-1.008.509-1.302.034-.045.057-.09.079-.124l.023-.034.022-.034c.102-.136.272-.532.363-.77a5.51 5.51 0 0 1 .135-.418c.034-.113.057-.226.068-.34.034-.282.091-.565.193-.825v-.023c.045-.113.079-.204.101-.294.08-.238.17-.51.419-.815l.045-.056.046-.046c.543-.498 1.142-.588 1.595-.622H111.056c.452 0 .792.18 1.018.305l.057.023h.011c.068.034.113.068.17.09.135.068.305.091.452.046.317-.08.804-.272 1.12-.453h.012c.339-.203.86-.498 1.471-.566.034-.01.079-.01.113-.01.068-.012.192-.023.328-.035.249-.022.634-.056 1.03-.056.611 0 1.097.068 1.47.192h.023c.905.34 1.245.702 1.607 1.177.147.192.294.373.566.61l.022.023.023.023c.068.068.147.136.237.204.159.124.385.294.577.622l.023.034.023.034c.283.588.192 1.143.124 1.561v.034c-.045.26-.113.51-.226.758a1.871 1.871 0 0 0-.125.43c-.011.09-.022.159-.034.215l-.011.045a2.926 2.926 0 0 1-.136.623c-.101.328-.26.633-.464.916-.339.498-.724.804-1.233.962-.249.08-.452.238-.588.453l-.045.056-.046.057c-.124.147-.09.713-.068 1.052.023.373.046.758-.022 1.12-.113.623-.385 1.041-.623 1.403 0 0-.882 1.279-1.685 1.516l-.057.023-.057.011a3.065 3.065 0 0 1-.463.045h-.227c-.056 0-.136 0-.271.012h-.023c-.532.023-.86.034-1.041.068a1.802 1.802 0 0 0-.351.102c-.486.192-1.142.294-2.093.294Z" opacity=".8"/></g></g><path fill="#fff" d="m135.933 35.432-3.46 12.249h2.05l.983-3.603h2.818l1.025 3.603h2.093l-3.502-12.25h-2.007Zm1.879 6.69h-1.794l.726-2.728c.042-.206.085-.36.128-.565.043.206.085.36.171.566l.769 2.727Zm7.047 0c-.94-.463-1.026-.67-1.026-.978 0-.412.299-.669.726-.669s.812.155 1.196.412l.384.309.513-1.956-.213-.206a2.762 2.762 0 0 0-1.88-.566c-1.58 0-2.69 1.183-2.69 2.83 0 1.493 1.11 2.317 2.05 2.728.94.412 1.025.721 1.025 1.081 0 .67-.598.773-.94.773-.512-.052-1.025-.206-1.452-.515l-.384-.258-.513 2.007.257.155c.64.412 1.367.669 2.092.618 1.709 0 2.905-1.184 2.905-2.934-.043-1.698-1.196-2.419-2.05-2.83Zm5.082-5.558-1.965.72v1.39h-1.025v2.007h1.068v4.014c-.043.876.128 1.75.555 2.471.427.515.983.824 1.58.772.427 0 .812-.052 1.196-.206l.256-.103-.085-2.007-.427.154c-.213.052-.384.103-.598.103-.213 0-.555 0-.555-1.132v-4.066h1.751v-2.007h-1.751v-2.11Zm6.491 2.007-.342-.051c-.127 0-.213-.052-.341-.052-.598 0-1.196.309-1.623.823v-.668h-1.836v.514c.042.67.042 1.493.042 2.522v6.073h1.965v-4.786c0-.206 0-.412.042-.618.129-.926.642-1.544 1.282-1.544h.342l.427.103.042-2.316Zm3.588-.103c-2.178 0-3.716 1.956-3.716 4.787 0 2.728 1.495 4.632 3.63 4.632 1.794 0 3.759-1.492 3.759-4.787-.043-2.728-1.538-4.632-3.673-4.632Zm1.623 4.684c0 1.595-.726 2.728-1.666 2.728-.939 0-1.665-1.133-1.665-2.677 0-1.03.384-2.728 1.708-2.728 1.281 0 1.623 1.75 1.623 2.677Zm8.456-6.743c-.641-.72-1.623-1.08-2.904-1.08-.812 0-1.623.05-2.392.205l-.299.103V47.68h1.965v-4.476c.214 0 .427.05.598.05 1.153.053 2.306-.411 3.16-1.389.555-.72.854-1.75.854-2.728 0-1.03-.341-2.007-.982-2.727v-.001Zm-.983 2.78c0 1.698-1.238 1.955-2.007 1.955-.213 0-.426 0-.64-.051v-3.655c.256-.052.512-.052.769-.052.854.052 1.878.361 1.878 1.802Zm7.944 6.124v-3.036c0-2.419-1.067-3.757-2.946-3.757-.855 0-1.709.257-2.435.771l-.256.206.513 1.905.427-.36c.469-.361 1.025-.567 1.58-.515.299-.052.64.103.897.36.17.206.256.515.298.824-1.537.051-2.647.514-3.331 1.338-.469.566-.726 1.338-.726 2.161 0 1.544 1.026 2.78 2.264 2.78h.171c.64 0 1.324-.258 1.836-.72l.043.514h1.879l-.043-.515a10.836 10.836 0 0 1-.171-1.956Zm-3.288.618c-.385.052-.726-.31-.769-.772v-.206c0-.309.086-.566.256-.772.214-.257.726-.566 1.88-.617v.977c0 .103 0 .206-.043.361-.214.618-.727 1.029-1.324 1.029Zm8.712-7.257-1.409 5.096a1.123 1.123 0 0 0-.086.411c-.042-.103-.085-.257-.127-.36l-1.538-5.095h-2.135l2.69 8.131c.043.052.043.103.043.206 0 .052-.043.103-.043.155-.214.566-.513 1.08-.939 1.492-.3.31-.598.515-.94.618l-.342.154.513 2.008.341-.052c.641-.154 1.197-.514 1.709-1.03.939-1.029 1.58-2.624 2.434-5.3l1.922-6.485-2.093.05Z"/><path fill="red" d="M139.691 38.829c1.281-1.545 3.417-2.471 5.766-2.471.896 0 1.793.155 2.647.412h.086l1.495-.566-.684-.31c-1.409-.566-2.861-.874-4.313-.874-2.023-.051-4.018.572-5.766 1.801l-.171.103.641 2.214.299-.31Z"/><defs><linearGradient id="h" x1="1085.13" x2="1085.13" y1="1.896" y2="1864.58" gradientUnits="userSpaceOnUse"><stop stop-color="#fff" stop-opacity=".5"/><stop offset="1" stop-opacity=".5"/></linearGradient><linearGradient id="l" x1="1157.03" x2="1157.03" y1="1.833" y2="1978.4" gradientUnits="userSpaceOnUse"><stop stop-color="#fff" stop-opacity=".5"/><stop offset="1" stop-opacity=".5"/></linearGradient><linearGradient id="o" x1="1011.03" x2="1011.03" y1="32" y2="2000.75" gradientUnits="userSpaceOnUse"><stop stop-color="#fff" stop-opacity=".5"/><stop offset="1" stop-opacity=".5"/></linearGradient><linearGradient id="w" x1="101.529" x2="125.588" y1="29.639" y2="54.89" gradientUnits="userSpaceOnUse"><stop offset=".206" stop-color="#89D0FF"/><stop offset=".398" stop-color="#EBBF9A"/><stop offset=".602" stop-color="#EB8280"/><stop offset=".841" stop-color="#A281FF"/></linearGradient><linearGradient id="x" x1="102.462" x2="124.641" y1="30.726" y2="54.099" gradientUnits="userSpaceOnUse"><stop offset=".206" stop-color="#89D0FF"/><stop offset=".398" stop-color="#EBBF9A"/><stop offset=".602" stop-color="#EB80DA"/><stop offset=".841" stop-color="#A281FF"/></linearGradient><linearGradient id="y" x1="103.405" x2="123.704" y1="31.665" y2="53.161" gradientUnits="userSpaceOnUse"><stop offset=".206" stop-color="#89D0FF"/><stop offset=".398" stop-color="#EBBF9A"/><stop offset=".602" stop-color="#EB8280"/><stop offset=".841" stop-color="#A281FF"/></linearGradient><linearGradient id="z" x1="104.346" x2="122.761" y1="32.608" y2="52.22" gradientUnits="userSpaceOnUse"><stop offset=".206" stop-color="#89D0FF"/><stop offset=".398" stop-color="#EBBF9A"/><stop offset=".602" stop-color="#EB80E7"/><stop offset=".841" stop-color="#A281FF"/></linearGradient><linearGradient id="A" x1="105.281" x2="121.816" y1="33.552" y2="51.28" gradientUnits="userSpaceOnUse"><stop offset=".206" stop-color="#89D0FF"/><stop offset=".398" stop-color="#EBBF9A"/><stop offset=".602" stop-color="#EB80D3"/><stop offset=".841" stop-color="#A281FF"/></linearGradient><linearGradient id="B" x1="106.228" x2="120.882" y1="34.485" y2="50.335" gradientUnits="userSpaceOnUse"><stop offset=".206" stop-color="#89D0FF"/><stop offset=".398" stop-color="#EBBF9A"/><stop offset=".602" stop-color="#A280EB"/><stop offset=".841" stop-color="#A281FF"/></linearGradient><clipPath id="c"><path fill="#fff" d="M51 0h14v22H51z"/></clipPath><clipPath id="d"><path fill="#fff" d="M70 0h22v20H70z"/></clipPath><clipPath id="e"><path fill="#fff" d="M97 0h17v20H97z"/></clipPath><clipPath id="f"><path fill="#fff" d="M147 0h20v21h-20z"/></clipPath><clipPath id="j"><path fill="#fff" d="M172 0h21v22h-21z"/></clipPath><clipPath id="m"><path fill="#fff" d="M26 32h21v21H26z"/></clipPath><clipPath id="q"><path fill="#fff" d="M52 32h20v20H52z"/></clipPath><clipPath id="s"><path fill="#fff" d="M77 32h21v21H77z"/></clipPath><clipPath id="t"><path fill="#fff" d="M103 32h21v21h-21z"/></clipPath><filter id="g" width="20.75" height="20.627" x="146.625" y="1.396" color-interpolation-filters="sRGB" filterUnits="userSpaceOnUse"><feFlood flood-opacity="0" result="BackgroundImageFix"/><feColorMatrix in="SourceAlpha" result="hardAlpha" values="0 0 0 0 0 0 0 0 0 0 0 0 0 0 0 0 0 0 127 0"/><feOffset dy=".5"/><feGaussianBlur stdDeviation=".5"/><feComposite in2="hardAlpha" operator="out"/><feColorMatrix values="0 0 0 0 0 0 0 0 0 0 0 0 0 0 0 0 0 0 0.199474 0"/><feBlend in2="BackgroundImageFix" result="effect1_dropShadow_431_999"/><feBlend in="SourceGraphic" in2="effect1_dropShadow_431_999" result="shape"/></filter><filter id="i" width="11.375" height="11.934" x="151.625" y="5.742" color-interpolation-filters="sRGB" filterUnits="userSpaceOnUse"><feFlood flood-opacity="0" result="BackgroundImageFix"/><feColorMatrix in="SourceAlpha" result="hardAlpha" values="0 0 0 0 0 0 0 0 0 0 0 0 0 0 0 0 0 0 127 0"/><feOffset dy=".5"/><feGaussianBlur stdDeviation=".5"/><feColorMatrix values="0 0 0 0 0 0 0 0 0 0 0 0 0 0 0 0 0 0 0.204257 0"/><feBlend in2="BackgroundImageFix" result="effect1_dropShadow_431_999"/><feBlend in="SourceGraphic" in2="effect1_dropShadow_431_999" result="shape"/></filter><filter id="k" width="21.688" height="21.766" x="171.656" y="1.333" color-interpolation-filters="sRGB" filterUnits="userSpaceOnUse"><feFlood flood-opacity="0" result="BackgroundImageFix"/><feColorMatrix in="SourceAlpha" result="hardAlpha" values="0 0 0 0 0 0 0 0 0 0 0 0 0 0 0 0 0 0 127 0"/><feOffset dy=".5"/><feGaussianBlur stdDeviation=".5"/><feComposite in2="hardAlpha" operator="out"/><feColorMatrix values="0 0 0 0 0 0 0 0 0 0 0 0 0 0 0 0 0 0 0.199474 0"/><feBlend in2="BackgroundImageFix" result="effect1_dropShadow_431_999"/><feBlend in="SourceGraphic" in2="effect1_dropShadow_431_999" result="shape"/></filter><filter id="n" width="21.688" height="21.688" x="25.656" y="31.5" color-interpolation-filters="sRGB" filterUnits="userSpaceOnUse"><feFlood flood-opacity="0" result="BackgroundImageFix"/><feColorMatrix in="SourceAlpha" result="hardAlpha" values="0 0 0 0 0 0 0 0 0 0 0 0 0 0 0 0 0 0 127 0"/><feOffset dy=".5"/><feGaussianBlur stdDeviation=".5"/><feComposite in2="hardAlpha" operator="out"/><feColorMatrix values="0 0 0 0 0 0 0 0 0 0 0 0 0 0 0 0 0 0 0.199474 0"/><feBlend in2="BackgroundImageFix" result="effect1_dropShadow_431_999"/><feBlend in="SourceGraphic" in2="effect1_dropShadow_431_999" result="shape"/></filter><filter id="p" width="15.125" height="15.125" x="28.938" y="34.781" color-interpolation-filters="sRGB" filterUnits="userSpaceOnUse"><feFlood flood-opacity="0" result="BackgroundImageFix"/><feColorMatrix in="SourceAlpha" result="hardAlpha" values="0 0 0 0 0 0 0 0 0 0 0 0 0 0 0 0 0 0 127 0"/><feOffset dy=".5"/><feGaussianBlur stdDeviation=".5"/><feColorMatrix values="0 0 0 0 0 0 0 0 0 0 0 0 0 0 0 0 0 0 0.204257 0"/><feBlend in2="BackgroundImageFix" result="effect1_dropShadow_431_999"/><feBlend in="SourceGraphic" in2="effect1_dropShadow_431_999" result="shape"/></filter><radialGradient id="u" cx="0" cy="0" r="1" gradientTransform="rotate(90 34.952 78.549) scale(11.795)" gradientUnits="userSpaceOnUse"><stop offset=".167" stop-color="#073183"/><stop offset="1" stop-color="#0054F9"/></radialGradient></defs></svg>