<svg xmlns="http://www.w3.org/2000/svg" width="193" height="110" fill="none"><g mask="url(#mask0_209_7)"><path fill="#fff" d="M12 30.65c5.17 0 9.36-4.2 9.36-9.4 0-5.18-4.19-9.39-9.36-9.39a9.38 9.38 0 0 0-9.36 9.4c0 5.19 4.19 9.4 9.36 9.4Z"/><path fill="#345D9D" d="M12 10.72a10.48 10.48 0 0 0-9.7 6.5A10.57 10.57 0 0 0 9.95 31.6a10.47 10.47 0 0 0 10.78-4.48 10.56 10.56 0 0 0-8.67-16.39H12Zm.18 10.9-1.1 3.7h5.85a.3.3 0 0 1 .3.28v.1l-.5 1.75a.38.38 0 0 1-.38.29H7.4l1.5-5.13-1.68.5.38-1.16 1.68-.51 2.11-7.2a.39.39 0 0 1 .38-.28h2.26a.3.3 0 0 1 .3.29v.1l-1.77 6.07 1.68-.52-.36 1.23-1.7.48Z"/></g><g mask="url(#mask1_209_7)"><path fill="#F7931A" d="M50.35 24.03a10.06 10.06 0 0 1-12.21 7.54c-5.4-1.39-8.68-7-7.34-12.54a10.06 10.06 0 0 1 12.21-7.53c5.4 1.38 8.7 7 7.34 12.53Z"/><path fill="#fff" d="M45.02 20.06c.2-1.38-.82-2.12-2.21-2.61l.45-1.86-1.1-.29-.45 1.82-.88-.22.44-1.82-1.1-.29-.46 1.87a36 36 0 0 1-.7-.17l-1.53-.4-.3 1.21.81.2c.45.12.53.43.52.67l-.52 2.12c.03 0 .07.02.11.04L38 20.3l-.73 2.97c-.05.14-.19.35-.5.27 0 .02-.8-.2-.8-.2l-.56 1.3 1.44.37.8.2-.47 1.89 1.1.28.46-1.86.88.23-.45 1.86 1.1.28.47-1.88c1.88.37 3.3.22 3.9-1.53.48-1.41-.03-2.22-1.02-2.75.72-.18 1.27-.66 1.41-1.67ZM42.5 23.7c-.35 1.4-2.66.64-3.4.45l.6-2.5c.75.2 3.15.58 2.8 2.05Zm.34-3.66c-.31 1.28-2.24.63-2.86.47l.55-2.27c.62.16 2.63.46 2.3 1.8Z"/></g><g clip-path="url(#clip0_209_7)"><path fill="#343434" d="m66 7-.18.57V24.1l.18.16 8-4.53L66 7Z"/><path fill="#8C8C8C" d="m66 7-8 12.73 8 4.53V7Z"/><path fill="#3C3C3B" d="m66 25.72-.1.11v5.89l.1.27 8-10.8-8 4.53Z"/><path fill="#8C8C8C" d="M66 32v-6.28l-8-4.54L66 32Z"/><path fill="#141414" d="m66 24.26 8-4.53-8-3.49v8.02Z"/><path fill="#393939" d="m58 19.73 8 4.53v-8.02l-8 3.49Z"/></g><path fill="#FF060A" d="M91.54 32.9c6.87 0 12.43-5.12 12.43-11.42s-5.56-11.42-12.43-11.42S79.1 15.17 79.1 21.48c0 6.3 5.57 11.42 12.44 11.42Z"/><path fill="#fff" d="M98.53 19.43c-.68-.59-1.64-1.48-2.4-2.1l-.06-.03c-.07-.06-.16-.1-.25-.14-1.87-.32-10.56-1.8-10.73-1.79-.04 0-.1.02-.13.05l-.04.03a.46.46 0 0 0-.12.18l-.01.02v.18c.98 2.5 4.84 10.69 5.6 12.62.05.13.14.38.3.39h.04c.08 0 .45-.45.45-.45S97.82 21 98.5 20.2c.1-.1.17-.2.23-.3a.43.43 0 0 0-.02-.26.58.58 0 0 0-.17-.22Zm-5.65.86 2.83-2.15 1.67 1.4-4.5.75Zm-1.1-.14-4.87-3.67 7.89 1.34-3.02 2.33Zm.44.96 4.99-.74-5.7 6.31.7-5.57Zm-5.98-4.26 5.14 4-.75 5.84-4.39-9.84Z"/><g clip-path="url(#clip1_209_7)"><path fill="#008CFF" d="M125.85 23.05a4.06 4.06 0 0 0-2.37-.62c-.66 0-1.7-.49-1.7-1.9 0-.49.16-.98.5-1.35.32-.37.76-.55 1.2-.55a5.27 5.27 0 0 0 2.37-.61 4.72 4.72 0 0 0 1.6-1.78c.38-.74.55-1.54.55-2.4a5.8 5.8 0 0 0-.55-2.39 4.72 4.72 0 0 0-1.6-1.78 3.84 3.84 0 0 0-2.15-.6 4.4 4.4 0 0 0-2.14.6 4.74 4.74 0 0 0-1.6 1.78 5.86 5.86 0 0 0-.6 2.4c0 .92.27 1.77.65 2.57.33.68.5 1.9-.6 2.64a1.67 1.67 0 0 1-2.37-.68 6.01 6.01 0 0 0-1.65-1.96 3.84 3.84 0 0 0-2.15-.61 4.4 4.4 0 0 0-2.15.61 4.72 4.72 0 0 0-1.6 1.78 5.05 5.05 0 0 0-.55 2.4c0 .85.23 1.65.56 2.38.38.74.93 1.35 1.6 1.78.65.43 1.37.62 2.14.62a4.4 4.4 0 0 0 2.15-.62 4.95 4.95 0 0 0 1.65-1.96c.33-.61 1.21-1.41 2.31-.74.39.25.66.68.78 1.17.1.49.05.98-.17 1.47-.39.8-.66 1.66-.66 2.58 0 .86.22 1.65.55 2.39.39.74.94 1.35 1.6 1.78.66.43 1.37.61 2.14.61a4.4 4.4 0 0 0 2.15-.61 4.72 4.72 0 0 0 1.6-1.78c.38-.74.55-1.53.55-2.4 0-.85-.22-1.65-.55-2.38a3.17 3.17 0 0 0-1.49-1.84Z"/></g><path fill="#50AF95" fill-rule="evenodd" d="m138.5 12.18-4.01 8.71a.18.18 0 0 0-.02.1l.05.1 10.86 10.74a.16.16 0 0 0 .24 0l10.86-10.74a.17.17 0 0 0 .03-.2l-4.02-8.7a.16.16 0 0 0-.15-.1h-13.68a.16.16 0 0 0-.15.1Z" clip-rule="evenodd"/><path fill="#fff" fill-rule="evenodd" d="M146.85 21.68c-.08 0-.47.02-1.33.02-.7 0-1.18-.02-1.36-.02-2.66-.12-4.65-.59-4.65-1.14 0-.55 2-1.02 4.66-1.14v1.81a20.14 20.14 0 0 0 2.67 0v-1.8c2.66.11 4.65.58 4.65 1.13 0 .55-1.99 1.02-4.65 1.13Zm0-2.46V17.6h3.7v-2.47h-10.1v2.47h3.72v1.62c-3.02.14-5.29.73-5.29 1.45 0 .71 2.27 1.3 5.28 1.45v5.19h2.69v-5.2c3-.13 5.27-.73 5.27-1.44 0-.72-2.26-1.31-5.27-1.45Z" clip-rule="evenodd"/><g clip-path="url(#clip2_209_7)"><g filter="url(#filter0_d_209_7)"><path fill="#000" d="M176 33.38A12.19 12.19 0 1 0 176 9a12.19 12.19 0 0 0 0 24.38Z"/></g><path fill="#C3A634" d="M176 33.38A12.19 12.19 0 1 0 176 9a12.19 12.19 0 0 0 0 24.38Z"/><path fill="url(#paint0_linear_209_7)" d="M176 33.38A12.19 12.19 0 1 0 176 9a12.19 12.19 0 0 0 0 24.38Z" style="mix-blend-mode:soft-light"/><path stroke="#000" stroke-opacity=".1" d="M176 32.97a11.78 11.78 0 1 0 0-23.56 11.78 11.78 0 0 0 0 23.56Z"/><g filter="url(#filter1_d_209_7)"><path fill="#000" d="M173.76 20.06h3.5v1.86h-3.5v3.91h2.22c.87 0 1.59-.12 2.14-.35a3.14 3.14 0 0 0 1.96-2.46 9.24 9.24 0 0 0 0-3.66 3.14 3.14 0 0 0-1.96-2.46 5.54 5.54 0 0 0-2.15-.36h-2.2v3.52Zm-2.24 1.86h-1.2v-1.86h1.2v-5.37h5.32c.98 0 1.83.17 2.55.5.72.35 1.3.81 1.76 1.4.46.59.8 1.28 1.02 2.07.22.79.33 1.63.33 2.53 0 .9-.11 1.74-.33 2.53a5.97 5.97 0 0 1-1.02 2.06 4.76 4.76 0 0 1-1.76 1.4c-.72.34-1.57.5-2.55.5h-5.32v-5.76Z"/></g><path fill="#fff" d="M173.76 20.06h3.5v1.86h-3.5v3.91h2.22c.87 0 1.59-.12 2.14-.35a3.14 3.14 0 0 0 1.96-2.46 9.24 9.24 0 0 0 0-3.66 3.14 3.14 0 0 0-1.96-2.46 5.54 5.54 0 0 0-2.15-.36h-2.2v3.52Zm-2.24 1.86h-1.2v-1.86h1.2v-5.37h5.32c.98 0 1.83.17 2.55.5.72.35 1.3.81 1.76 1.4.46.59.8 1.28 1.02 2.07.22.79.33 1.63.33 2.53 0 .9-.11 1.74-.33 2.53a5.97 5.97 0 0 1-1.02 2.06 4.76 4.76 0 0 1-1.76 1.4c-.72.34-1.57.5-2.55.5h-5.32v-5.76Z"/></g><g clip-path="url(#clip3_209_7)"><g filter="url(#filter2_d_209_7)"><path fill="#000" d="M11.5 64.56a10.78 10.78 0 1 0 0-21.56 10.78 10.78 0 0 0 0 21.56Z"/></g><path fill="#23292F" d="M11.5 64.56a10.78 10.78 0 1 0 0-21.56 10.78 10.78 0 0 0 0 21.56Z"/><path fill="url(#paint1_linear_209_7)" d="M11.5 64.56a10.78 10.78 0 1 0 0-21.56 10.78 10.78 0 0 0 0 21.56Z" style="mix-blend-mode:soft-light"/><path stroke="#000" stroke-opacity=".1" d="M11.5 64.2a10.42 10.42 0 1 0 0-20.84 10.42 10.42 0 0 0 0 20.84Z"/><path fill="#fff" d="M16.07 48.75h1.87l-3.89 3.85a3.64 3.64 0 0 1-5.1 0l-3.9-3.85h1.88l2.95 2.93c.9.88 2.34.88 3.23 0l2.96-2.93ZM6.9 59.46H5.03l3.92-3.87a3.64 3.64 0 0 1 5.1 0l3.92 3.87H16.1l-2.98-2.95a2.3 2.3 0 0 0-3.23 0L6.9 59.46Z"/></g><path fill="#E2761B" stroke="#E2761B" stroke-linecap="round" stroke-linejoin="round" d="m48.65 45.67-7.5 5.57 1.39-3.28 6.1-2.29Z"/><path fill="#E4761B" stroke="#E4761B" stroke-linecap="round" stroke-linejoin="round" d="m31.34 45.67 7.44 5.62-1.32-3.33-6.12-2.29Zm14.61 12.9-2 3.07 4.28 1.17 1.22-4.16-3.5-.07Zm-15.4.08 1.22 4.16 4.28-1.17-2-3.06-3.5.07Z"/><path fill="#E4761B" stroke="#E4761B" stroke-linecap="round" stroke-linejoin="round" d="m35.8 53.41-1.19 1.8 4.25.19-.16-4.56-2.9 2.57Zm8.39 0-2.94-2.62-.1 4.6 4.24-.18-1.2-1.8Zm-8.14 8.23 2.54-1.25-2.2-1.71-.34 2.96Zm5.35-1.25 2.55 1.25-.35-2.96-2.2 1.71Z"/><path fill="#D7C1B3" stroke="#D7C1B3" stroke-linecap="round" stroke-linejoin="round" d="m43.95 61.64-2.55-1.25.2 1.67-.02.7 2.37-1.12Zm-7.9 0 2.37 1.12-.02-.7.2-1.67-2.55 1.25Z"/><path fill="#233447" stroke="#233447" stroke-linecap="round" stroke-linejoin="round" d="m38.46 57.58-2.13-.63 1.5-.68.63 1.3Zm3.08 0 .62-1.31 1.5.68-2.12.63Z"/><path fill="#CD6116" stroke="#CD6116" stroke-linecap="round" stroke-linejoin="round" d="m36.05 61.64.36-3.06-2.36.07 2 2.99Zm7.54-3.06.36 3.06 2-3-2.36-.06Zm1.8-3.37-4.24.19.4 2.18.62-1.31 1.5.68 1.72-1.74Zm-9.06 1.74 1.5-.68.63 1.3.4-2.17-4.25-.19 1.72 1.74Z"/><path fill="#E4751F" stroke="#E4751F" stroke-linecap="round" stroke-linejoin="round" d="m34.61 55.21 1.78 3.47-.06-1.73-1.72-1.74Zm9.07 1.74-.08 1.73 1.79-3.47-1.71 1.74Zm-4.82-1.55-.4 2.18.5 2.57.1-3.39-.2-1.36Zm2.3 0-.21 1.36.09 3.39.5-2.57-.39-2.18Z"/><path fill="#F6851B" stroke="#F6851B" stroke-linecap="round" stroke-linejoin="round" d="m41.54 57.58-.5 2.57.36.24 2.2-1.71.08-1.73-2.14.63Zm-5.2-.63.05 1.73 2.2 1.71.36-.24-.5-2.57-2.12-.63Z"/><path fill="#C0AD9E" stroke="#C0AD9E" stroke-linecap="round" stroke-linejoin="round" d="m41.58 62.76.02-.7-.18-.17h-2.84l-.18.17.02.7-2.37-1.12.82.67 1.68 1.17h2.89l1.69-1.17.82-.67-2.37 1.12Z"/><path fill="#161616" stroke="#161616" stroke-linecap="round" stroke-linejoin="round" d="m41.4 60.4-.36-.25h-2.09l-.36.24-.19 1.67.18-.17h2.84l.18.17-.2-1.67Z"/><path fill="#763D16" stroke="#763D16" stroke-linecap="round" stroke-linejoin="round" d="m48.96 51.6.64-3.07-.95-2.86-7.25 5.38 2.79 2.36 3.94 1.15.87-1.01-.37-.28.6-.55-.47-.36.6-.46-.4-.3ZM30.4 48.53l.64 3.07-.41.3.6.46-.46.37.6.54-.37.28.86 1.01 3.94-1.15 2.8-2.36-7.26-5.38-.94 2.86Z"/><path fill="#F6851B" stroke="#F6851B" stroke-linecap="round" stroke-linejoin="round" d="m48.13 54.56-3.94-1.15 1.2 1.8-1.79 3.47 2.35-.03h3.5l-1.32-4.09ZM35.8 53.41l-3.94 1.15-1.3 4.09h3.49l2.34.03-1.78-3.47 1.2-1.8Zm5.35 1.99.25-4.35 1.15-3.1h-5.09l1.13 3.1.26 4.35.1 1.37v3.38h2.09l.01-3.38.1-1.37Z"/><g clip-path="url(#clip4_209_7)"><g filter="url(#filter3_d_209_7)"><path fill="#000" d="M68 63.63A10.31 10.31 0 1 0 68 43a10.31 10.31 0 0 0 0 20.63Z"/></g><path fill="#F3BA2F" d="M68 63.63A10.31 10.31 0 1 0 68 43a10.31 10.31 0 0 0 0 20.63Z"/><path fill="url(#paint2_linear_209_7)" d="M68 63.63A10.31 10.31 0 1 0 68 43a10.31 10.31 0 0 0 0 20.63Z" style="mix-blend-mode:soft-light"/><path stroke="#000" stroke-opacity=".1" d="M68 63.28a9.97 9.97 0 1 0 0-19.94 9.97 9.97 0 0 0 0 19.94Z"/><g filter="url(#filter4_d_209_7)"><path fill="#000" d="M65.33 52.22 68 49.55l2.67 2.67 1.56-1.56L68 46.44l-4.22 4.22 1.55 1.56Zm-4.2 1.1 1.55-1.56 1.55 1.55-1.55 1.56-1.55-1.56Zm4.2 1.09L68 57.08l2.67-2.67 1.56 1.55L68 60.2l-4.22-4.23 1.55-1.55Zm6.44-1.1 1.55-1.55 1.56 1.55-1.56 1.56-1.55-1.56Zm-2.2 0L68 54.9l-1.58-1.58.28-.28.13-.13L68 51.74l1.58 1.57Z"/></g><path fill="#fff" d="M65.33 52.22 68 49.55l2.67 2.67 1.56-1.56L68 46.44l-4.22 4.22 1.55 1.56Zm-4.2 1.1 1.55-1.56 1.55 1.55-1.55 1.56-1.55-1.56Zm4.2 1.09L68 57.08l2.67-2.67 1.56 1.55L68 60.2l-4.22-4.23 1.55-1.55Zm6.44-1.1 1.55-1.55 1.56 1.55-1.56 1.56-1.55-1.56Zm-2.2 0L68 54.9l-1.58-1.58.28-.28.13-.13L68 51.74l1.58 1.57Z"/></g><g clip-path="url(#clip5_209_7)" mask="url(#mask2_209_7)"><path fill="#375BD2" d="M94 63a10 10 0 1 0 0-20 10 10 0 0 0 0 20Z"/><path fill="#fff" d="m94 45.5-6.5 3.75v7.5L94 60.5l6.5-3.75v-7.5L94 45.5Zm3.74 9.66L94 57.32l-3.74-2.16v-4.32L94 48.68l3.74 2.16v4.32Z"/></g><g clip-path="url(#clip6_209_7)"><path fill="#8247E5" d="M119.5 64a10.5 10.5 0 1 0 0-21 10.5 10.5 0 0 0 0 21Z"/><path fill="#fff" d="M123.1 51.14a.93.93 0 0 0-.88 0l-2.04 1.2-1.4.77-2 1.21a.93.93 0 0 1-.88 0l-1.57-.95a.89.89 0 0 1-.44-.77v-1.83c0-.29.14-.58.44-.76l1.57-.92a.93.93 0 0 1 .88 0l1.57.95c.26.15.44.44.44.77v1.2l1.39-.8v-1.24a.9.9 0 0 0-.44-.77l-2.93-1.72a.93.93 0 0 0-.87 0l-3 1.76a.8.8 0 0 0-.44.73v3.44c0 .29.15.58.44.76l2.96 1.72c.25.15.58.15.88 0l2-1.17 1.4-.8 2-1.17a.93.93 0 0 1 .88 0l1.58.91c.25.15.43.44.43.77v1.83a.9.9 0 0 1-.43.77l-1.54.9a.93.93 0 0 1-.88 0l-1.57-.9a.89.89 0 0 1-.44-.77v-1.17l-1.39.8v1.2c0 .3.15.6.44.78l2.96 1.71c.26.15.59.15.88 0l2.96-1.71a.89.89 0 0 0 .44-.77v-3.48a.9.9 0 0 0-.44-.76l-2.96-1.72Z"/></g><path fill="#fff" d="m147 43-4.93 6.76-2.07 10 7 4.24 7-4.24-2.1-10.04L147 43Zm-5.86 16.3 1.56-7.6 3.54 10.7-5.1-3.1Zm2.07-9.33 3.79-5.2 3.8 5.2L147 61.4l-3.8-11.43Zm4.5 12.43 3.55-10.7 1.56 7.6-5.1 3.1Z"/><g clip-path="url(#clip7_209_7)"><path fill="url(#paint3_radial_209_7)" d="M187 54.5a11.5 11.5 0 1 0-23 0 11.5 11.5 0 0 0 23 0Z"/><path fill="#fff" d="M183.32 50.9c-.05.3-.1.43-.17.58-.08.17-.15.36-.23.75l-.06.37v.02c-.02.16-.04.27-.1.45a2.1 2.1 0 0 1-.34.7c-.18.22-.46.6-.85.66-.03 0-.1 0-.13-.02a17.93 17.93 0 0 0-2.35-1.05c-.37-.11-.32-.93-.28-1.65.02-.32.04-.63.02-.9-.05-.9-.2-1.9-1-2.38a3.3 3.3 0 0 0-1.67-.37l.36-.2c.34-.2.76-.45 1.2-.5.13-.01.27-.02.4-.05.86-.1 1.6-.18 2.39.09.36.12 1.08.52 1.26.9.14.26.36.47.8.88l.49.44c.16.12.19.16.23.25.15.3.1.6.03 1.04ZM179.37 54.66c.05.01.07.08.03.13l-.4.7-.22.37c-.2.36-.22.67-.23.9-.01.27-.03.38-.19.48-.12.09-.26.11-1.15.25a.7.7 0 0 0-.28.08l-.05.03c-.05.02-.1-.03-.1-.08v-.96c-.02-.23-.02-.33.05-.42.07-.13.13-.17.22-.23.13-.08.32-.2.58-.57.15-.2.18-.3.2-.4.01-.03.01-.04.12-.13.12-.09.48-.36.93-.29.15.03.31.08.49.14ZM175.81 58.78c-.03.02-.04.03-.07.03-.1 0-.17-.02-.2-.07-.09-.11-.08-.34-.06-.47l.38-.1c.02.2.04.5-.05.6ZM175.84 57.41c-.02.05-.02.11-.02.19v.28c-.12.04-.22.04-.34.04v-.55c.05 0 .08 0 .12-.02.07-.01.19-.04.25-.02l-.01.08ZM175.14 58.66c-.01.2-.07.44-.26.47-.09.02-.12 0-.15-.03-.12-.11-.13-.46-.12-.7.08 0 .18-.02.3-.05.08 0 .16-.03.22-.05.01.1.02.23.01.36ZM175.05 57.97l-.4.15.06-.53c0-.1.03-.14.05-.15 0 0 0-.02.02-.02H175.07c-.02.12-.02.39-.02.55ZM174.38 57.85l-.06.36-.5-.02c.02-.16.07-.32.1-.44.06-.13.1-.23.14-.25.05-.03.16-.04.24.02.11.08.13.19.08.33ZM174.2 59.42c-.04.05-.09.09-.14.09-.06 0-.1-.02-.13-.04-.17-.15-.15-.63-.14-.87.21-.05.45-.08.56-.1 0 .19.01.7-.15.92ZM173.53 58.17l-.06.18c-.06.03-.25 0-.44-.03l.13-.8c.2-.07.46-.08.5-.02.1.09-.07.5-.13.67ZM173.3 59.53c-.1.13-.25.19-.46.17-.15 0-.2-.06-.23-.1-.1-.18 0-.61.11-.89l.7.04.01.17c.01.21-.01.46-.14.61Z"/><path fill="#fff" d="M179.04 53.67c-.63-.17-.57-1.1-.52-1.98.02-.31.04-.61.03-.86-.05-.83-.19-1.73-.86-2.14-.72-.44-1.9-.34-2.61-.25-.26.07-.5.14-.7.12-.43-.02-.76-.2-1.06-.36-.22-.12-.42-.23-.62-.23h-.02c-.56.04-.82.17-1.06.38-.06.05-.13.2-.37.88-.12.35-.14.54-.16.71-.03.16-.04.33-.13.6l-.14.47c-.12.38-.22.69-.49 1.06l-.12.17c-.06.1-.14.23-.25.36-.07.1-.24.47-.22.59.01.18.07.3.13.42.07.12.15.27.16.48v.04c.03.32-.02.48-.63 1.03-.38.34-.67.68-.85.93-.01.02 0 .05.03.05h.13c.15 0 .3.07.4.18 0 .03.04.03.07.01.1-.03.21-.03.31-.02.12.01.26.05.35.14.02.02.06.03.1.02.1-.02.2-.02.3.01.08.03.16.08.2.14.04.04.1.05.15.02.03 0 .06-.03.1-.05a.58.58 0 0 1 .41.03c.06.02.13.04.19.09.1.07.17.17.2.28.03.06.12.09.17.04.1-.08.17-.09.25-.06.03 0 .06.03.08.07.04.05.1.1.15.07a.89.89 0 0 1 .65.08c.06.04.13.09.17.16v-.04l.03-.03.03-.02c.1-.03.62-.18.82.03h.04c.02-.03.05-.05.06-.05.13-.08.36-.09.5.05.03.02.08.01.1-.01a.1.1 0 0 1 .06-.05c.05-.05.12-.07.2-.07h.28c.07 0 .3-.03.36-.05h.01c.03 0 .06 0 .1-.02.14-.02.3-.06.42 0 .13.06.11.2.1.32l-.01.15v.08c0 .1 0 .2-.02.28l.02.06V58c.01.05.07.1.1.05.1-.06.2-.13.25-.18v-.01l.02-.1c.01-.1.04-.31.04-.75v-.05c0-.16 0-.3-.02-.4 0-.24-.02-.43.1-.61.11-.19.23-.25.34-.32.12-.08.26-.17.5-.49.1-.16.12-.22.13-.27.02-.12.06-.2.25-.32.15-.11.58-.45 1.17-.35.2.04.51.14.84.26l.03.01h.01c.29.11.55.24.74.34.03.02.08.01.12-.03.06-.07.12-.1.19-.16.02-.01.05-.02.06-.04h.01c.05-.05.05-.14-.01-.17a12.1 12.1 0 0 0-1.89-.73Zm-5.97.19c-.2.84-1.51 1.78-2.1 1.78h-.04l-.04-.01h-.02a.99.99 0 0 1-.38-.23.63.63 0 0 1-.16-.26l-.01-.05a.86.86 0 0 1 .05-.61l.05-.12.01-.03.04-.09c.01-.05.04-.09.05-.11l.01-.04c.04-.1.04-.14.05-.17l.02-.13.08-.4c.02-.22.06-.4.17-.58l.06-.07.03-.02.03-.03.08-.05.04-.01c.02-.01.05-.01.07-.03.11-.02.24-.02.39 0a2.1 2.1 0 0 1 .72.17h.02c.01.02.03.02.05.03l.06.03.08.03.02.02a1.07 1.07 0 0 1 .32.2l.03.03.02.03c.26.22.25.53.2.72Zm.62-3.21-.02.14c-.07.35-.2.82-.7.95-.48.1-.6.13-.93.16h-.02c-.25 0-.73-.16-.82-.55-.05-.25.06-.43.24-.73l.1-.16c.24-.4.33-.7.4-.94.08-.24.14-.42.3-.58a.47.47 0 0 1 .13-.1c.02-.03.06-.04.1-.07.04-.02.1-.03.14-.06.11-.03.24-.05.35-.05.23 0 .47.07.63.2.08.06.19.17.25.53.02.19-.03.52-.15 1.26Zm3.56.99c-.18.3-.26.46-.41.58-.3.25-.63.3-.92.3-.2 0-.37-.04-.48-.05-.3-.05-.83-.15-1.02-.58-.03-.1-.03-.14-.03-.22 0-.06 0-.18-.04-.44v-.01a1.65 1.65 0 0 1 0-.44v-.02c.1-.52.13-.6.15-.65a.2.2 0 0 1 .28-.08c.1.05.14.17.1.27l-.12.54v.03c-.03.11-.02.2 0 .3v.02c.03.3.03.42.03.5v.05c.04.08.12.13.2.18.06.03.13-.02.11-.08-.08-.46-.08-1 .09-1.33a39.02 39.02 0 0 1 .28-.5l.03-.05c.05-.07.09-.13.12-.2 0 0 .02 0 .02-.02v-.01l.03-.04.02-.01v-.01c0-.02.02-.02.02-.03l.1-.15c.05-.06-.01-.13-.07-.1-.18.07-.29.15-.31.17a.2.2 0 0 1-.3-.04.2.2 0 0 1 .04-.3c.1-.09.68-.5 1.36-.3.5.13.74.51.84.65.08.1.32.46.31.95 0 .36-.15.63-.43 1.12Z"/><path fill="#fff" d="m172.81 49.1-.12.3a7.12 7.12 0 0 1-.52 1.06c-.08.11-.13.2-.18.32-.07.21-.08.45-.03.7-.14 0-.35-.09-.38-.21 0-.1.04-.18.19-.44l.1-.16c.26-.45.37-.78.44-1.03.1-.26.13-.37.26-.47.1-.04.17-.06.24-.07ZM172.55 58.47c-.15.3-.32.57-.43.7-.1-.25-.26-.83-.21-1.29v-.03a.8.8 0 0 1 .12-.39c.05-.07.17-.11.31-.11.1 0 .21.02.31.07.05.03.12.1.12.25.03.23-.08.52-.22.8Z"/><path fill="#fff" d="m180.48 55.16.01.03c-.03.1-.1.15-.16.23-.07.08-.16.18-.23.34-.11.23-.15.43-.16.95-.03.6 0 .94.02 1.19.01.23.03.38-.01.62-.09.47-.29.78-.55 1.17-.32.5-.64 1-1.19 1.17l-.2.01a20.18 20.18 0 0 0-2.09.11c-.32.06-.48.14-.66.2-.14.06-.28.11-.54.17-.16.04-.4.06-1.2.08-.84 0-1.35 0-2.01-.08a5.27 5.27 0 0 1-1.69-.32c-.71-.38-1.02-1.08-1.52-2.22l.02-.02a5.1 5.1 0 0 1 .14.05h.15l.02-.02c.02 0 .03 0 .03.02.04.08.09.16.17.2.09.06.19.06.28.06l.3-.03c.04 0 .1.03.12.06.08.23.2.38.37.4h.04c.03 0 .1-.01.17-.06.06-.05.16-.01.21.05.04.06.09.1.14.14.17.17.6.26.94.26.18 0 .36-.03.46-.08.15-.07.15-.17.13-.22l-.03-.24c0-.01 0-.01 0 0 .03.05.06.1.12.11h.02c.1 0 .25.04.28.13.01.05.03.08.06.13.06.1.17.2.4.22h.02c.27 0 .48-.1.62-.27l.03-.03c.05-.08.2-.08.25-.01.08.06.17.1.27.1h.04a.44.44 0 0 0 .31-.2.82.82 0 0 0 .12-.25c0-.03.05-.04.07-.01.05.05.14.1.26.1.03 0 .06 0 .1-.02.24-.05.36-.25.4-.46h.02c.06.08.18.17.36.17h.03c.1 0 .18-.05.24-.13.08-.1.1-.25.12-.38 0-.04.02-.08.07-.1.2-.09.45-.27.52-.4l.01-.01c.02-.04.05-.06.08-.06.16-.03.22-.06.28-.09a.71.71 0 0 1 .21-.06c.9-.14 1.08-.18 1.28-.3.3-.2.3-.47.32-.73.01-.22.03-.47.2-.77.06-.11.14-.23.21-.38.14-.25.32-.6.46-.78a.08.08 0 0 1 .11-.03c.31.11.58.24.63.29Z"/><path fill="#fff" d="M171.68 57.86c-.03.3-.06.73 0 1.27 0 .15.03.31.05.48-.03.02-.17.06-.4.05-.32-.02-.64-.1-.74-.2l-.01-.02c-.07-.06-.14-.1-.14-.22 0-.04.02-.07.05-.13a.46.46 0 0 0 .08-.12l.2-.28c.2-.35.28-.46.38-.6l.03-.03.23-.34.2-.28.18-.23c0 .05 0 .13-.02.2-.05.15-.07.29-.09.45ZM171.52 52.98c-.05.06-.1.13-.16.26-.16.34-.16.54-.16.7 0 .09 0 .15-.02.23a.65.65 0 0 1-.08.17c-.09.21-.21.48-.16.85a.77.77 0 0 1-.21-.16l-.01-.06a.53.53 0 0 1 .02-.36c.2-.44.22-.56.24-.68v-.09c.05-.17.07-.32.08-.44a.88.88 0 0 1 .12-.4c.02-.04.08-.05.17-.05l.12.01h.02l.03.02ZM171.27 57.4a.99.99 0 0 0-.07-.32l-.01-.04-.03-.04-.03-.02-.02-.01s0-.02-.02-.02h-.01a.93.93 0 0 0-.2-.06H170.82l-.05.01c-.02 0-.02.02-.03.02h-.01l-.03.03v.02l-.08.12-.19.27-.17.25-.1.14-.01.02c.03.01.07.01.1.03.1 0 .18.02.26.03.17.03.36.04.53.03h.02l.16-.24c.04-.05.08-.1.1-.15-.03 0-.05-.05-.05-.07ZM170.64 58.13a2.3 2.3 0 0 1-.4.82c-.2.27-.32.35-.34.35-.1-.02-.19-.25-.26-.49l-.08-.27a1.84 1.84 0 0 1-.05-.57c.2.11.55.14 1.05.14.02 0 .06 0 .08.02ZM170.3 57.02l-.27.38-.13.19-.09.1c-.07 0-.13-.03-.2-.04-.07-.01-.12-.04-.18-.06l-.04-.02-.04-.05c.03-.03.04-.08.06-.12l.13-.22a1 1 0 0 1 .3-.35l.02-.01c.05-.03.1-.05.16-.06H170.17l.01.02.04.02c-.02 0 .03.04.03.03l.04.19ZM169.63 56.66c-.16.12-.28.3-.36.48l-.15.3-.01.02-.14-.04c-.05 0-.1-.03-.15-.05l-.06-.03.16-.26c.07-.11.16-.24.25-.34l.1-.1c.06-.03.1-.03.17-.02a.4.4 0 0 1 .17.02s0 .02.02.02ZM169.38 58.76l-.03.03-.12.01H169a.14.14 0 0 1-.1-.04c-.03-.03-.04-.1-.05-.16a3 3 0 0 1-.03-.82c.14.05.29.1.44.12-.04.24.02.6.05.7.03.05.05.11.06.16ZM168.93 56.57c-.12.15-.23.3-.33.48l-.13.21a.47.47 0 0 1-.13-.06l-.1-.07-.05-.04-.01-.01c0-.04.03-.06.03-.09a4.28 4.28 0 0 1 .28-.46c.03-.03.06-.07.1-.08.04-.02.1 0 .13 0 .08 0 .15.06.21.12ZM167.98 57.23c.01-.02 0-.02 0 0l.13.12.07.05v.01a2.92 2.92 0 0 0-.1.66 2.76 2.76 0 0 1-.1-.84ZM168.59 57.68c-.03.2-.04.38-.03.56l.03.31H168.49l-.05-.02c-.03-.01-.05-.05-.08-.09a.56.56 0 0 1-.06-.28 2.2 2.2 0 0 1 .05-.57l.1.03c.05.03.09.05.14.06Z"/><g stroke-miterlimit="10" mask="url(#mask3_209_7)" opacity=".8"><path stroke="url(#paint4_linear_209_7)" stroke-width="1.06" d="M173.47 67.35c-.84 0-1.64-.05-2.3-.1l-.2-.01-.18-.03a9.7 9.7 0 0 0-.3-.03c-.64-.08-1.84-.2-3.17-.82l-.21-.1-.19-.11c-2.55-1.44-3.49-3.58-4.01-4.74a9.6 9.6 0 0 1-.67-1.7l-.03-.1-.02-.1a8.37 8.37 0 0 1-.3-3.56 7.64 7.64 0 0 1 1.32-3.22l.37-.6c.07-.13.12-.27.16-.4a8.02 8.02 0 0 1 1.25-2.9c.09-.59.24-1.16.44-1.72l.02-.08.04-.09c0-.01 0-.04.02-.07.15-.44.49-1.44 1.34-2.5l.32-.38.34-.3a8 8 0 0 1 4.83-2h.47c.4 0 .8.03 1.19.1.25.03.5 0 .73-.1a8.37 8.37 0 0 1 2.12-.56c.06-.01.11-.01.16-.03.11 0 .3-.03.52-.06.39-.04.98-.08 1.61-.08 1.26 0 2.33.16 3.3.5l.09.02.07.02c2.13.8 3.21 1.93 4 2.91l.03.05.11.1c.7.55 1.3 1.23 1.77 1.98l.15.24.12.25c1.04 2.12.71 4.09.59 4.82l-.02.04a8.86 8.86 0 0 1-.42 1.6 8.52 8.52 0 0 1-2.56 5.02.8.8 0 0 0-.25.48l-.05.33a8.98 8.98 0 0 1-1.31 3.23l-.88 1.27a7.77 7.77 0 0 1-3.86 2.66l-.37.11-.4.08c-.45.09-.91.12-1.38.12h-.39c-.17 0-.34.04-.52.09-1.01.32-2.13.47-3.5.47Z" opacity=".8"/><path stroke="url(#paint5_linear_209_7)" stroke-width="1.06" d="M173.47 66.47c-.8 0-1.59-.05-2.23-.1l-.15-.01-.15-.03-.32-.03a8.39 8.39 0 0 1-2.84-.73l-.17-.09-.17-.09c-2.26-1.25-3.1-3.12-3.59-4.24l-.12-.26a8.6 8.6 0 0 1-.51-1.3l-.03-.1-.02-.07a7.4 7.4 0 0 1-.26-3.15 6.7 6.7 0 0 1 1.16-2.81l.49-.78c.08-.14.15-.3.17-.46.24-1.34.87-2.28 1.15-2.71l.04-.05.01-.03.01-.04.06-.16c.07-.54.2-1.09.4-1.6l.02-.08.02-.08.04-.12c.14-.4.42-1.26 1.16-2.18l.28-.32.27-.25a6.86 6.86 0 0 1 4.21-1.72h.13l.27-.02c.4 0 .8-.1 1.2-.03.31.06.62.02.9-.1.54-.24 1.26-.32 2.07-.44.07 0 .12 0 .15-.02.12-.01.29-.04.49-.05.36-.04.91-.08 1.52-.08 1.14 0 2.1.15 2.96.44l.08.02.06.03a7.58 7.58 0 0 1 3.54 2.59l.1.12.01.01.14.13.01.02a6.41 6.41 0 0 1 1.58 1.75l.12.2.1.2c.9 1.83.62 3.5.5 4.21l-.02.04a7.96 7.96 0 0 1-.4 1.51 7.5 7.5 0 0 1-1.4 3.48 7.2 7.2 0 0 1-1.07 1.22c-.19.17-.31.4-.34.65l-.07.55a7.71 7.71 0 0 1-1.19 2.89l-.72 1.04a6.81 6.81 0 0 1-3.44 2.44l-.31.1-.34.06c-.4.07-.8.11-1.2.1h-.56a2.2 2.2 0 0 0-.56.1c-.9.3-1.95.43-3.24.43Z" opacity=".8"/><path stroke="url(#paint6_linear_209_7)" stroke-width=".99" d="M173.47 65.44c-.77 0-1.53-.05-2.16-.1h-.12l-.13-.02-.36-.04a7.3 7.3 0 0 1-2.51-.64l-.14-.07-.12-.07a7.23 7.23 0 0 1-3.14-3.77l-.12-.28a7.27 7.27 0 0 1-.46-1.2l-.02-.05-.02-.07a6.33 6.33 0 0 1-.23-2.7c.12-.83.46-1.6 1.03-2.44l.07-.1.08-.1.13-.17.29-.53c.1-.18.16-.36.18-.56.19-1.19.76-2.05 1.02-2.44.01-.03.04-.05.05-.06l.06-.09a4.1 4.1 0 0 0 .16-.47c.06-.5.19-1 .36-1.49l.03-.06.02-.06.06-.18c.13-.38.36-1.09 1-1.85l.2-.26.23-.2a5.63 5.63 0 0 1 3.6-1.48H172.85c.42 0 .83.05 1.24.16.34.09.72.05 1.04-.1a6.6 6.6 0 0 1 2.02-.63l.13-.02a13.75 13.75 0 0 1 1.88-.12c1.02 0 1.88.12 2.63.38l.06.02.04.03a6.49 6.49 0 0 1 3.1 2.27l.24.27.1.1.05.05c.28.22.86.68 1.37 1.5l.1.17.09.16c.75 1.52.52 2.91.4 3.58v.04a5.8 5.8 0 0 1-.41 1.42v.04a6.31 6.31 0 0 1-1.21 3.1c-.34.48-.75.92-1.21 1.29-.11.08-.2.2-.26.32s-.1.26-.11.4a6 6 0 0 1-.1.81c-.24 1.26-.78 2.12-1.05 2.56l-.56.82a5.85 5.85 0 0 1-3.03 2.2l-.24.08-.28.05c-.33.06-.68.08-1.03.08h-.45l-.29.01c-.2.02-.4.04-.58.12-.86.27-1.84.4-3.06.4Z" opacity=".8"/><path stroke="url(#paint7_linear_209_7)" stroke-width=".92" d="M173.47 64.41c-.73 0-1.47-.05-2.07-.1h-.09l-.09-.02-.38-.05a6.75 6.75 0 0 1-2.2-.54l-.1-.05-.1-.05c-1.64-.93-2.25-2.3-2.7-3.29-.04-.1-.1-.2-.13-.3a7.83 7.83 0 0 1-.4-1.06l-.02-.05-.04-.04a4.57 4.57 0 0 1 .65-4.29l.05-.07.05-.07.18-.24c.09-.11.17-.24.27-.35a1 1 0 0 0 .15-.24l.12-.28c.04-.12.07-.25.08-.37.1-1.1.63-1.9.9-2.3.02-.02.04-.07.06-.08l.06-.1.02-.02c.04-.06.1-.21.15-.36l.13-.4v-.01c.04-.46.16-.92.32-1.35l.01-.04.01-.04.08-.22c.1-.33.3-.9.8-1.54l.16-.2.16-.14c1.2-1.1 2.54-1.18 3-1.22h.25c.53 0 1.05.11 1.55.33a.7.7 0 0 0 .27.05c.1 0 .19-.03.28-.08.45-.26 1.28-.74 2.35-.87h.14l.42-.06c.32-.02.8-.06 1.32-.06.9 0 1.65.11 2.28.32l.04.01.04.02a5.5 5.5 0 0 1 2.65 1.93c.14.19.21.26.36.4l.09.08.06.08.05.03c.25.2.72.56 1.14 1.24l.07.13.06.12c.61 1.24.41 2.36.31 2.95v.04c-.07.43-.2.87-.37 1.27l-.01.04-.01.04c-.02.04-.02.07-.02.11v.05a5.55 5.55 0 0 1-1.04 2.63c-.34.48-.73.88-1.15 1.19-.19.13-.33.3-.44.52-.12.2-.17.43-.17.67a5.83 5.83 0 0 1-1.02 3.09l-.4.6a5 5 0 0 1-2.6 1.97l-.05.01-.26.06-.06.02c-.29.05-.57.07-.86.07h-.48l-.46.01c-.21.02-.41.05-.6.13-.75.22-1.66.34-2.82.34Z" opacity=".8"/><path stroke="url(#paint8_linear_209_7)" stroke-width=".86" d="M173.47 63.39c-.7 0-1.4-.05-2-.1h-.06l-.06-.02-.42-.05c-.52-.06-1.17-.12-1.86-.45l-.08-.04-.06-.04a5.23 5.23 0 0 1-2.25-2.81l-.15-.35a6.23 6.23 0 0 1-.36-.92l-.01-.03-.02-.04c-.4-1.41-.26-2.3.51-3.42l.04-.05.04-.05.18-.25c.2-.26.4-.52.68-.83.07-.06.1-.16.12-.25v-.5c.02-.92.48-1.6.73-1.97l.07-.12.04-.06.03-.05c.05-.07.17-.33.26-.57l.15-.46c.02-.05.02-.06.03-.17.04-.38.13-.77.26-1.13l.01-.02.01-.03.1-.27c.1-.3.25-.73.63-1.21l.12-.14.1-.1c.85-.75 1.75-.9 2.38-.94H172.8c.52 0 1.15.25 1.49.4.07.05.16.07.25.07.08 0 .17-.01.26-.04.2-.07.4-.16.6-.26a5.02 5.02 0 0 1 1.97-.74l.13-.01.4-.05c.3-.03.74-.06 1.22-.06.78 0 1.43.08 1.95.27l.02.01.03.01c1.24.47 1.73 1 2.2 1.61.15.2.26.34.48.54l.06.05.04.05.15.12c.21.16.57.45.88.97l.05.07.04.09c.46.93.3 1.8.22 2.33v.03c-.06.36-.16.71-.3 1.05a1.8 1.8 0 0 0-.1.27l-.02.17-.01.05a4.75 4.75 0 0 1-.84 2.16c-.43.6-.9 1.01-1.5 1.29a.8.8 0 0 0-.34.3.91.91 0 0 0-.15.43v.15c.03.44.06.95-.03 1.48-.17.87-.54 1.45-.8 1.89 0 0-1.27 1.76-2.43 2.12l-.12.03-.14.03a4.1 4.1 0 0 1-.68.06h-.23l-.24.01h-.05c-.44.01-.85.03-.98.05l-.18.05a6.9 6.9 0 0 1-2.64.39Z" opacity=".8"/><path stroke="url(#paint9_linear_209_7)" stroke-width=".86" d="M173.47 62.37c-.67 0-1.34-.05-1.91-.09h-.05l-.45-.05c-.48-.05-.99-.1-1.53-.36h-.04l-.04-.02c-1.05-.6-1.45-1.48-1.82-2.33a5.17 5.17 0 0 0-.17-.37 4.56 4.56 0 0 1-.3-.78v-.02c-.32-1.14-.24-1.7.36-2.57l.01-.03.01-.02.2-.25c.29-.37.53-.7 1.1-1.22a.3.3 0 0 0 .08-.14.24.24 0 0 0-.01-.17l-.1-.28a1.02 1.02 0 0 1-.04-.27v-.14c.03-.62.35-1.1.56-1.42l.08-.14.03-.04.03-.03a4.94 4.94 0 0 0 .61-1.68c.04-.3.1-.62.21-.9v-.02c.06-.13.1-.23.12-.33.08-.26.18-.56.46-.9l.04-.05.05-.05c.6-.55 1.26-.65 1.75-.68h.11c.5 0 .87.2 1.12.33l.06.02h.01c.08.04.13.08.19.1.15.08.33.1.5.05.34-.08.87-.3 1.22-.5h.01c.38-.22.94-.54 1.61-.61l.13-.01a12.5 12.5 0 0 1 1.49-.1c.66 0 1.2.07 1.6.2h.03c1 .38 1.36.78 1.76 1.3.16.2.32.4.62.67l.03.02.02.02c.07.08.16.15.26.23.17.13.42.32.63.68l.03.04.02.03c.31.65.21 1.26.14 1.71v.04c-.05.29-.13.56-.25.83-.06.15-.11.31-.14.47 0 .1-.02.18-.03.24l-.01.05a3.5 3.5 0 0 1-.66 1.69c-.37.54-.8.87-1.35 1.05-.28.08-.5.26-.65.5l-.05.05-.05.07c-.13.16-.1.78-.07 1.15.02.4.05.83-.03 1.22a3.94 3.94 0 0 1-.68 1.54s-.96 1.4-1.84 1.66l-.07.03h-.06c-.16.03-.33.06-.5.06h-.25l-.3.01h-.03c-.58.03-.94.04-1.14.08-.13.02-.26.06-.38.1a6.3 6.3 0 0 1-2.3.33Z" opacity=".8"/></g></g><path fill="#fff" d="M8.7 76.36 4.36 91.9h2.57l1.23-4.57h3.53L13 91.9h2.62l-4.4-15.55H8.7Zm2.35 8.5H8.8l.91-3.47.16-.72c.06.26.11.46.22.72l.96 3.46Zm8.84 0c-1.18-.6-1.29-.86-1.29-1.25 0-.52.38-.85.92-.85.53 0 1.01.2 1.5.52l.48.4.64-2.49-.27-.26a3.43 3.43 0 0 0-2.35-.72c-1.99 0-3.38 1.5-3.38 3.6 0 1.9 1.4 2.94 2.57 3.46 1.18.52 1.29.92 1.29 1.37 0 .85-.75.99-1.18.99a3.7 3.7 0 0 1-1.82-.66l-.48-.33-.65 2.55.32.2c.8.52 1.72.85 2.63.78 2.14 0 3.64-1.5 3.64-3.72-.05-2.16-1.5-3.07-2.57-3.6Zm6.37-7.06-2.46.91v1.76h-1.29v2.55h1.34v5.1a5.68 5.68 0 0 0 .7 3.14c.54.65 1.23 1.04 1.98.98.54 0 1.02-.07 1.5-.26l.32-.13-.1-2.55-.54.2c-.27.06-.48.12-.75.12s-.7 0-.7-1.43v-5.17h2.2v-2.55h-2.2V77.8Zm8.15 2.54-.43-.06c-.16 0-.27-.07-.43-.07-.75 0-1.5.4-2.04 1.05v-.85h-2.3v.65c.05.85.05 1.9.05 3.2v7.72h2.47V85.9c0-.26 0-.52.05-.78.16-1.18.8-1.97 1.6-1.97h.44l.53.13.06-2.94Zm4.5-.13c-2.74 0-4.66 2.49-4.66 6.08 0 3.47 1.87 5.88 4.55 5.88 2.25 0 4.71-1.9 4.71-6.07-.05-3.47-1.93-5.89-4.6-5.89Zm2.03 5.95c0 2.03-.9 3.47-2.09 3.47-1.18 0-2.09-1.44-2.09-3.4 0-1.31.49-3.47 2.15-3.47 1.6 0 2.03 2.22 2.03 3.4Zm10.6-8.56c-.8-.92-2.03-1.37-3.63-1.37-1.02 0-2.04.06-3 .26l-.38.13v15.3H47v-5.7c.27 0 .54.07.75.07a4.9 4.9 0 0 0 3.97-1.76 5.9 5.9 0 0 0 1.07-3.47c0-1.3-.43-2.55-1.23-3.46Zm-1.22 3.53c0 2.15-1.56 2.48-2.52 2.48-.27 0-.54 0-.8-.06V78.9c.32-.07.64-.07.96-.07 1.07.07 2.36.46 2.36 2.29Zm9.96 7.78v-3.86c0-3.07-1.34-4.77-3.7-4.77-1.07 0-2.14.33-3.05.98l-.32.26.64 2.42.54-.46a2.83 2.83 0 0 1 1.98-.65c.37-.07.8.13 1.12.45.22.27.33.66.38 1.05-1.93.07-3.32.65-4.18 1.7-.59.72-.91 1.7-.91 2.74 0 1.97 1.29 3.53 2.84 3.53h.21c.8 0 1.66-.32 2.3-.91l.06.65h2.36l-.06-.65c-.14-.82-.21-1.65-.21-2.48Zm-4.13.78c-.48.07-.9-.4-.96-.98v-.26c0-.4.1-.72.32-.98.27-.33.91-.72 2.36-.79v1.25c0 .13 0 .26-.05.45-.27.79-.92 1.31-1.67 1.31Zm10.93-9.22-1.77 6.48c-.06.16-.1.34-.1.52-.06-.13-.11-.33-.16-.46l-1.93-6.47h-2.68l3.37 10.33c.06.06.06.13.06.26 0 .06-.06.13-.06.2a5.08 5.08 0 0 1-1.17 1.89c-.38.4-.75.65-1.18.78l-.43.2.64 2.55.43-.07c.8-.2 1.5-.65 2.14-1.3 1.18-1.31 1.98-3.34 3.06-6.74l2.4-8.23-2.62.06Z"/><path fill="red" d="M13.4 80.67c1.62-1.96 4.3-3.14 7.24-3.14 1.13 0 2.25.2 3.32.53h.1l1.88-.72-.85-.4a14.34 14.34 0 0 0-5.41-1.1 11.9 11.9 0 0 0-7.24 2.28l-.21.13.8 2.81.38-.39Z"/><g clip-path="url(#clip8_209_7)"><path fill="#F69220" d="m87.55 88.45-5.91-10.33a1.4 1.4 0 0 0-1.94-.52c-.67.4-.9 1.28-.5 1.97l5.91 10.34a1.41 1.41 0 0 0 1.93.51c.68-.4.9-1.28.51-1.97Z"/><path fill="#606060" d="M101.22 85a4.85 4.85 0 0 0-.66-2.22 5.46 5.46 0 0 0-2.38-2.43c-.85-.4-1.8-.63-2.77-.53.35-.67.52-1.41.6-2.16.09-1.1-.27-2.07-.92-3.23a4.6 4.6 0 0 0-3.55-2.4 6.4 6.4 0 0 0-2.27.18l-.8.24-.31.11c-.47.18-1.71.88-2.13 1.13l-2 1.27-.05.03a1.62 1.62 0 0 0-.59 2.2 1.57 1.57 0 0 0 2.15.59l.04-.02 3.31-1.93a2.49 2.49 0 0 1 1.93-.26 2.62 2.62 0 0 1 1.55 1.24 3 3 0 0 1 .36 2c-.06.33-.17.62-.34.89-.18.27-.4.49-.7.66l-2 1.21-.85.5-.55.33a1.54 1.54 0 0 0-.55 2.08 1.49 1.49 0 0 0 2.05.56l1.1-.65 2.84-1.58c.3-.17.6-.27.9-.28.32-.02.63.03.93.14a2.98 2.98 0 0 1 1.85 2.32c.04.34.03.67-.05 1a2.44 2.44 0 0 1-1.2 1.56l-4.9 2.86-.25.14-.89.52-1.72.95a1.6 1.6 0 0 0-.63 2.15 1.55 1.55 0 0 0 2.11.64l4.24-2.33 3.4-1.9a8.9 8.9 0 0 0 2-1.55c.56-.6 1-1.23 1.29-1.91.3-.68.43-1.39.41-2.12ZM148.92 82.36c.53-.25 1.3-1 1.3-2.18 0-1.8-1.19-2.96-3.22-2.96h-2.94c-.3 0-.67 0-.96.29-.28.29-.28.66-.28.97v8.04c0 .3 0 .68.28.97.29.29.66.29.96.29h3.12c1.85 0 3.18-1.07 3.18-3.04 0-1.41-.8-2.08-1.44-2.38Zm-4.06-3.3h1.98c.86 0 1.34.49 1.34 1.21 0 .73-.48 1.22-1.34 1.22h-1.99v-2.43Zm2.11 6.88h-2.12v-2.6h2.12c.92 0 1.36.58 1.36 1.3 0 .7-.44 1.3-1.36 1.3ZM154.97 79.96c-1.97 0-3.3 1.43-3.3 3.95 0 3.13 1.71 3.96 3.5 3.96.84 0 1.56-.18 2.08-.54.43-.3.74-.63.74-.99 0-.44-.4-.8-.77-.8-.22 0-.4.07-.7.28-.37.28-.84.42-1.31.42-1.1 0-1.68-.72-1.68-1.72h3.65c.28 0 .59 0 .83-.25.22-.23.26-.56.25-.86-.06-1.95-1.25-3.45-3.3-3.45Zm-1.44 3.23c.01-.33.05-.55.17-.83.2-.46.64-.8 1.27-.8s1.07.34 1.27.8c.13.28.15.5.17.83h-2.88ZM162.59 81.76c.35 0 .48-.03.64-.1.22-.13.34-.36.34-.65 0-.28-.12-.51-.34-.63-.16-.08-.29-.1-.64-.1h-.57v-1.04c0-.46-.02-.65-.13-.86-.13-.28-.43-.46-.82-.46-.38 0-.68.18-.82.46-.1.2-.12.4-.12.86v1.03h-.2c-.35 0-.48.03-.63.1-.23.13-.35.36-.35.64 0 .3.12.52.35.64.15.08.28.1.64.1h.19v3.82c0 1.13.62 2.2 2.19 2.2h.1c.36 0 .6-.04.78-.12.22-.12.38-.35.38-.7 0-.34-.15-.56-.38-.68a1.4 1.4 0 0 0-.57-.12c-.48-.03-.61-.32-.61-.69v-3.7h.57ZM167.68 81.76c.35 0 .48-.03.64-.1.22-.13.35-.36.35-.65 0-.28-.13-.51-.35-.63-.15-.08-.29-.1-.64-.1h-.57v-1.04c0-.46-.02-.65-.12-.86-.14-.28-.44-.46-.83-.46-.38 0-.68.18-.82.46-.1.2-.12.4-.12.86v1.03h-.2c-.35 0-.48.03-.63.1-.23.13-.35.36-.35.64 0 .3.12.52.35.64.15.08.28.1.64.1h.19v3.82c0 1.13.62 2.2 2.19 2.2h.1c.36 0 .61-.04.78-.12.22-.12.38-.35.38-.7 0-.34-.15-.56-.38-.68a1.4 1.4 0 0 0-.57-.12c-.48-.03-.61-.32-.61-.69v-3.7h.57ZM172.78 79.96c-1.96 0-3.3 1.43-3.3 3.95 0 3.13 1.72 3.96 3.52 3.96.83 0 1.54-.18 2.06-.54.44-.3.75-.63.75-.99 0-.44-.4-.8-.77-.8-.22 0-.4.07-.7.28-.38.28-.84.42-1.31.42-1.1 0-1.68-.72-1.68-1.72H175c.28 0 .59 0 .83-.25.22-.23.26-.56.25-.86-.06-1.95-1.25-3.45-3.3-3.45Zm-1.43 3.23c.01-.33.05-.55.17-.83.2-.46.63-.8 1.26-.8.64 0 1.07.34 1.28.8.12.28.15.5.17.83h-2.88ZM182.52 80.32a2.18 2.18 0 0 0-1.31-.36c-.75 0-1.44.4-1.8.84a.91.91 0 0 0-.29-.59.84.84 0 0 0-.6-.22c-.36 0-.68.18-.82.45-.11.22-.14.37-.14.86v5.22c0 .47.03.65.13.86.14.28.43.46.82.46.39 0 .68-.18.82-.46.1-.2.13-.4.13-.86v-3.4c0-.98.62-1.42 1.25-1.42.26 0 .5.08.72.2.26.13.46.2.65.2a.9.9 0 0 0 .63-.27c.17-.17.29-.42.29-.7 0-.34-.2-.62-.48-.81Z"/><path fill="#F69220" d="M116.93 77.08c-.26 0-.46.05-.64.18-.26.17-.45.49-.54.66l-2.5 4.86-2.5-4.86c-.1-.17-.28-.5-.54-.66a1.05 1.05 0 0 0-.64-.18 1 1 0 0 0-.74.3c-.27.28-.33.6-.33 1.05v7.95c0 .47.02.66.15.93.17.33.53.53.95.53.4 0 .77-.2.94-.53.14-.27.15-.46.15-.93v-4.4l1.52 3.05c.24.49.49.77 1.04.77s.8-.28 1.04-.77l1.52-3.06v4.4c0 .48.02.67.15.94.17.33.54.53.95.53.4 0 .77-.2.94-.53.14-.27.15-.46.15-.93v-7.95c0-.44-.06-.77-.33-1.05a1 1 0 0 0-.73-.3ZM125.17 79.89c-.4 0-.74.19-.89.5-.11.23-.13.43-.13.9v3.38c0 1.2-.9 1.3-1.18 1.3-.27 0-1.16-.1-1.16-1.3v-3.39c0-.46-.02-.66-.13-.89-.15-.31-.49-.5-.89-.5s-.73.19-.89.5c-.1.23-.13.43-.13.9v3.64c0 1 .24 1.68.8 2.24.44.46 1.08.7 1.82.7.7 0 1.38-.27 1.85-.73a.92.92 0 0 0 .92.7c.38 0 .73-.19.88-.48.13-.25.15-.42.15-.9v-5.18c0-.46-.02-.66-.14-.9-.15-.3-.48-.5-.88-.5ZM130.96 81.76c.31 0 .54.08.86.32.27.2.46.28.7.28a.9.9 0 0 0 .63-.28c.2-.2.29-.43.29-.68 0-.54-.52-.93-.95-1.15-.46-.27-.91-.39-1.52-.39a3.4 3.4 0 0 0-2.3.81c-.76.7-1.15 1.76-1.15 3.19s.39 2.5 1.14 3.2c.75.67 1.66.81 2.3.81.59 0 1.04-.11 1.53-.37.64-.36.95-.74.95-1.17 0-.25-.1-.48-.29-.68a.92.92 0 0 0-.64-.28c-.25 0-.45.11-.7.3-.3.22-.53.3-.85.3a1.2 1.2 0 0 1-1-.47c-.28-.35-.4-.86-.4-1.64 0-.78.12-1.27.4-1.63.25-.3.58-.46 1-.47ZM140.23 80.56a2.5 2.5 0 0 0-1.83-.7c-.7 0-1.25.21-1.75.68v-2.07c0-.46-.02-.66-.14-.89-.15-.31-.48-.5-.88-.5s-.74.19-.9.5c-.1.23-.12.43-.12.9v7.97c0 .46.02.67.13.9.15.3.48.5.89.5.4 0 .73-.2.88-.5.12-.23.14-.44.14-.9v-3.38c0-1.21.9-1.3 1.17-1.3.28 0 1.16.09 1.16 1.3v3.38c0 .46.02.67.14.9.15.3.48.5.88.5s.74-.2.9-.5c.1-.23.12-.44.12-.9V82.8c0-1-.23-1.67-.79-2.24Z"/></g></svg>