<svg width="193" height="110" viewBox="0 0 193 110" fill="none" xmlns="http://www.w3.org/2000/svg">
<mask style="mask-type:luminance" maskUnits="userSpaceOnUse" x="1" y="10" width="22" height="22">
<path d="M22.5 10.7227H1.5V31.7911H22.5V10.7227Z" fill="white"/>
</mask>
<g mask="url(#mask0_209_7)">
<path d="M12.0003 30.6509C17.1717 30.6509 21.3638 26.4451 21.3638 21.2569C21.3638 16.0687 17.1717 11.8628 12.0003 11.8628C6.82893 11.8628 2.63672 16.0687 2.63672 21.2569C2.63672 26.4451 6.82893 30.6509 12.0003 30.6509Z" fill="white"/>
<path d="M12 10.7227C9.9233 10.7227 7.89323 11.3405 6.16651 12.4981C4.4398 13.6556 3.09399 15.3008 2.29927 17.2257C1.50455 19.1505 1.29661 21.2686 1.70176 23.312C2.1069 25.3554 3.10693 27.2325 4.57538 28.7057C6.04384 30.1789 7.91476 31.1822 9.95158 31.5887C11.9884 31.9951 14.0995 31.7866 16.0182 30.9893C17.9368 30.192 19.5767 28.8417 20.7304 27.1094C21.8842 25.377 22.5 23.3404 22.5 21.2569C22.504 19.8776 22.2372 18.5109 21.7147 17.235C21.1923 15.9591 20.4245 14.799 19.4551 13.8208C18.4858 12.8426 17.3339 12.0655 16.0652 11.534C14.7965 11.0024 13.4359 10.7267 12.061 10.7227H12ZM12.178 21.614L11.0847 25.3125H16.9322C16.971 25.3111 17.0095 25.3174 17.0458 25.331C17.0822 25.3446 17.1155 25.3653 17.1438 25.3919C17.1721 25.4184 17.1949 25.4503 17.211 25.4857C17.227 25.521 17.236 25.5593 17.2373 25.5981V25.695L16.7288 27.455C16.7064 27.5383 16.6564 27.6113 16.5871 27.6623C16.5178 27.7133 16.4333 27.7391 16.3475 27.7356H7.39831L8.8983 22.6088L7.22034 23.1189L7.6017 21.9456L9.27965 21.4355L11.3898 14.2426C11.413 14.1599 11.4633 14.0873 11.5324 14.0364C11.6015 13.9856 11.6855 13.9594 11.7712 13.962H14.0339C14.0726 13.9607 14.1113 13.967 14.1476 13.9806C14.1839 13.9942 14.2171 14.0149 14.2455 14.0414C14.2738 14.068 14.2967 14.0998 14.3127 14.1352C14.3288 14.1706 14.3377 14.2089 14.339 14.2477V14.3446L12.5593 20.4152L14.2373 19.905L13.8813 21.1294L12.178 21.614Z" fill="#345D9D"/>
</g>
<mask style="mask-type:luminance" maskUnits="userSpaceOnUse" x="30" y="11" width="21" height="21">
<path d="M50.6562 11.1905H30.5V31.8747H50.6562V11.1905Z" fill="white"/>
</mask>
<g mask="url(#mask1_209_7)">
<path d="M50.3547 24.0344C49.0085 29.5749 43.5396 32.9467 38.1393 31.5651C32.7412 30.1838 29.4551 24.5719 30.8019 19.0319C32.1474 13.4908 37.6164 10.1187 43.015 11.5C48.4149 12.8812 51.701 18.4937 50.3547 24.0344Z" fill="#F7931A"/>
<path d="M45.0226 20.0591C45.2232 18.6828 44.202 17.943 42.8056 17.4495L43.2586 15.5851L42.1526 15.3024L41.7116 17.1176C41.4208 17.0432 41.1222 16.9731 40.8254 16.9036L41.2696 15.0763L40.1643 14.7936L39.711 16.6573C39.4704 16.6011 39.2341 16.5455 39.0048 16.487L39.0061 16.4811L37.4808 16.0903L37.1866 17.3024C37.1866 17.3024 38.0072 17.4954 37.9899 17.5073C38.4378 17.622 38.5188 17.9262 38.5053 18.1673L37.9893 20.2913C38.0202 20.2993 38.0602 20.3109 38.1043 20.3291C38.0674 20.3197 38.0281 20.3094 37.9874 20.2994L37.2641 23.2747C37.2094 23.4143 37.0704 23.6239 36.7573 23.5443C36.7684 23.5608 35.9534 23.3385 35.9534 23.3385L35.4043 24.6376L36.8436 25.0057C37.1114 25.0746 37.3738 25.1467 37.6322 25.2145L37.1745 27.1002L38.2793 27.383L38.7325 25.5173C39.0343 25.6014 39.3272 25.6789 39.6139 25.752L39.1622 27.6089L40.2683 27.8917L40.7259 26.0095C42.612 26.3757 44.0301 26.2281 44.627 24.4777C45.108 23.0685 44.603 22.2556 43.6108 21.7255C44.3335 21.5545 44.8775 21.0666 45.0226 20.0591ZM42.4956 23.6951C42.1538 25.1044 39.8413 24.3425 39.0915 24.1515L39.6989 21.6533C40.4486 21.8453 42.8528 22.2254 42.4956 23.6951ZM42.8376 20.0387C42.5258 21.3206 40.6011 20.6694 39.9768 20.5096L40.5274 18.2439C41.1518 18.4036 43.1624 18.7016 42.8376 20.0387Z" fill="white"/>
</g>
<g clip-path="url(#clip0_209_7)">
<path d="M65.9977 7L65.823 7.56954V24.0964L65.9977 24.2637L73.9953 19.729L65.9977 7Z" fill="#343434"/>
<path d="M65.9976 7L58 19.729L65.9976 24.2637V16.2421V7Z" fill="#8C8C8C"/>
<path d="M65.9976 25.7162L65.8992 25.8313V31.7186L65.9976 31.9944L74 21.1839L65.9976 25.7162Z" fill="#3C3C3B"/>
<path d="M65.9976 31.9943V25.7161L58 21.1838L65.9976 31.9943Z" fill="#8C8C8C"/>
<path d="M65.9976 24.2637L73.9951 19.7291L65.9976 16.2421V24.2637Z" fill="#141414"/>
<path d="M58 19.7291L65.9975 24.2637V16.2421L58 19.7291Z" fill="#393939"/>
</g>
<path d="M91.5374 32.8985C98.4092 32.8985 103.975 27.7846 103.975 21.479C103.975 15.1734 98.4092 10.0596 91.5374 10.0596C84.6657 10.0596 79.0996 15.1734 79.0996 21.479C79.0996 27.7846 84.6704 32.8985 91.5374 32.8985Z" fill="#FF060A"/>
<path d="M98.5331 19.4289C97.8469 18.8444 96.8938 17.9541 96.1218 17.324L96.0741 17.2966C95.9979 17.2418 95.9121 17.1961 95.8215 17.1642C93.9535 16.8446 85.2613 15.3515 85.0945 15.3698C85.0469 15.3743 84.9992 15.3926 84.9611 15.4154L84.9182 15.4474C84.8658 15.4976 84.8229 15.557 84.7991 15.6255L84.7896 15.6529V15.8035V15.8264C85.7665 18.3285 89.6312 26.5198 90.3937 28.4466C90.4414 28.579 90.5272 28.8256 90.6892 28.8393H90.7273C90.8131 28.8393 91.1848 28.3872 91.1848 28.3872C91.1848 28.3872 97.823 20.9996 98.495 20.2142C98.5807 20.1183 98.657 20.0133 98.7237 19.9037C98.7428 19.817 98.7332 19.7302 98.6999 19.6481C98.6665 19.5659 98.6046 19.4882 98.5331 19.4289ZM92.8813 20.2918L95.7119 18.1367L97.3751 19.543L92.8813 20.2918ZM91.7805 20.1503L86.9054 16.4793L94.797 17.8171L91.7805 20.1503ZM92.2189 21.1091L97.2083 20.3695L91.5041 26.6842L92.2189 21.1091ZM86.243 16.8491L91.3754 20.8443L90.632 26.6887L86.243 16.8491Z" fill="white"/>
<g clip-path="url(#clip1_209_7)">
<path d="M125.852 23.0453C125.136 22.5547 124.31 22.432 123.484 22.432C122.823 22.432 121.777 21.9413 121.777 20.5307C121.777 20.04 121.942 19.5493 122.272 19.1813C122.603 18.8133 123.043 18.6293 123.484 18.6293C124.31 18.568 125.136 18.4453 125.852 18.016C126.513 17.5867 127.064 16.9733 127.449 16.2373C127.835 15.5013 128 14.704 128 13.8453C128 12.9867 127.78 12.1893 127.449 11.4533C127.064 10.7173 126.513 10.104 125.852 9.67467C125.191 9.24534 124.475 9.06134 123.704 9.06134C122.933 9.06134 122.217 9.30667 121.556 9.67467C120.896 10.104 120.345 10.7173 119.959 11.4533C119.574 12.1893 119.409 12.9867 119.354 13.8453C119.354 14.7653 119.629 15.624 120.014 16.4213C120.345 17.096 120.51 18.3227 119.409 19.0587C119.023 19.304 118.527 19.3653 118.087 19.2427C117.646 19.12 117.261 18.8133 117.04 18.384C116.6 17.648 116.104 16.912 115.388 16.4213C114.727 15.992 114.011 15.808 113.24 15.808C112.469 15.808 111.754 16.0533 111.093 16.4213C110.432 16.8507 109.881 17.464 109.496 18.2C109.11 18.936 108.945 19.7333 108.945 20.592C108.945 21.4507 109.165 22.248 109.496 22.984C109.881 23.72 110.432 24.3333 111.093 24.7627C111.754 25.192 112.469 25.376 113.24 25.376C114.011 25.376 114.727 25.1307 115.388 24.7627C116.104 24.272 116.655 23.5973 117.04 22.8C117.371 22.1867 118.252 21.3893 119.354 22.064C119.739 22.3093 120.014 22.7387 120.125 23.2293C120.235 23.72 120.18 24.2107 119.959 24.7013C119.574 25.4987 119.298 26.3573 119.298 27.2773C119.298 28.136 119.519 28.9333 119.849 29.6693C120.235 30.4053 120.785 31.0187 121.446 31.448C122.107 31.8773 122.823 32.0613 123.594 32.0613C124.365 32.0613 125.081 31.816 125.742 31.448C126.403 31.0187 126.954 30.4053 127.339 29.6693C127.725 28.9333 127.89 28.136 127.89 27.2773C127.89 26.4187 127.669 25.6213 127.339 24.8853C127.064 24.0267 126.513 23.4133 125.852 23.0453Z" fill="#008CFF"/>
</g>
<path fill-rule="evenodd" clip-rule="evenodd" d="M138.509 12.1805L134.487 20.8943C134.472 20.9267 134.467 20.9634 134.473 20.9988C134.48 21.0343 134.497 21.0667 134.522 21.0914L145.385 31.8275C145.416 31.858 145.457 31.875 145.5 31.875C145.543 31.875 145.584 31.858 145.615 31.8275L156.478 21.0921C156.503 21.0674 156.521 21.0349 156.527 20.9995C156.533 20.964 156.528 20.9274 156.513 20.895L152.491 12.1812C152.478 12.152 152.457 12.1272 152.431 12.1098C152.404 12.0925 152.374 12.0833 152.343 12.0834H138.659C138.628 12.083 138.597 12.0919 138.57 12.1092C138.544 12.1264 138.523 12.1512 138.509 12.1805Z" fill="#50AF95"/>
<path fill-rule="evenodd" clip-rule="evenodd" d="M146.846 21.6753C146.771 21.6809 146.383 21.7041 145.516 21.7041C144.827 21.7041 144.337 21.6835 144.165 21.6753C141.501 21.5582 139.513 21.0949 139.513 20.5402C139.513 19.9855 141.501 19.5228 144.165 19.4038V21.2139C144.34 21.2264 144.838 21.2558 145.528 21.2558C146.355 21.2558 146.769 21.2214 146.844 21.2145V19.4051C149.502 19.5234 151.487 19.9867 151.487 20.5402C151.487 21.0937 149.503 21.557 146.844 21.6747L146.846 21.6753ZM146.846 19.2179V17.5982H150.557V15.1282H140.455V17.5982H144.165V19.2173C141.15 19.3556 138.882 19.9523 138.882 20.6673C138.882 21.3823 141.15 21.9783 144.165 22.1173V27.3077H146.846V22.1155C149.854 21.9771 152.118 21.381 152.118 20.6667C152.118 19.9523 149.856 19.3562 146.846 19.2173L146.846 19.2179Z" fill="white"/>
<g clip-path="url(#clip2_209_7)">
<g filter="url(#filter0_d_209_7)">
<path d="M176 33.375C182.731 33.375 188.188 27.9185 188.188 21.1875C188.188 14.4565 182.731 9 176 9C169.269 9 163.812 14.4565 163.812 21.1875C163.812 27.9185 169.269 33.375 176 33.375Z" fill="black"/>
</g>
<path d="M176 33.375C182.731 33.375 188.188 27.9185 188.188 21.1875C188.188 14.4565 182.731 9 176 9C169.269 9 163.812 14.4565 163.812 21.1875C163.812 27.9185 169.269 33.375 176 33.375Z" fill="#C3A634"/>
<path style="mix-blend-mode:soft-light" d="M176 33.375C182.731 33.375 188.188 27.9185 188.188 21.1875C188.188 14.4565 182.731 9 176 9C169.269 9 163.812 14.4565 163.812 21.1875C163.812 27.9185 169.269 33.375 176 33.375Z" fill="url(#paint0_linear_209_7)"/>
<path d="M176 32.9688C182.507 32.9688 187.781 27.6941 187.781 21.1875C187.781 14.6809 182.507 9.40625 176 9.40625C169.493 9.40625 164.219 14.6809 164.219 21.1875C164.219 27.6941 169.493 32.9688 176 32.9688Z" stroke="black" stroke-opacity="0.097"/>
<g filter="url(#filter1_d_209_7)">
<path d="M173.764 20.0586H177.269V21.9158H173.764V25.8304H175.975C176.85 25.8304 177.566 25.712 178.123 25.4753C178.68 25.2386 179.118 24.9109 179.435 24.4921C179.753 24.0734 179.968 23.5818 180.082 23.0173C180.196 22.4529 180.253 21.843 180.253 21.1875C180.253 20.532 180.196 19.9221 180.082 19.3577C179.968 18.7932 179.753 18.3016 179.435 17.8829C179.118 17.4641 178.68 17.1364 178.123 16.8997C177.566 16.663 176.85 16.5446 175.975 16.5446H173.764V20.0586ZM171.517 21.9158H170.312V20.0586H171.517V14.6875H176.838C177.82 14.6875 178.671 14.8574 179.39 15.1973C180.109 15.5372 180.696 16.0015 181.152 16.5902C181.607 17.1789 181.946 17.8677 182.167 18.6567C182.389 19.4457 182.5 20.2893 182.5 21.1875C182.5 22.0857 182.389 22.9293 182.167 23.7183C181.946 24.5073 181.607 25.1961 181.152 25.7848C180.696 26.3735 180.109 26.8378 179.39 27.1777C178.671 27.5176 177.82 27.6875 176.838 27.6875H171.517V21.9158Z" fill="black"/>
</g>
<path d="M173.764 20.0586H177.269V21.9158H173.764V25.8304H175.975C176.85 25.8304 177.566 25.712 178.123 25.4753C178.68 25.2386 179.118 24.9109 179.435 24.4921C179.753 24.0734 179.968 23.5818 180.082 23.0173C180.196 22.4529 180.253 21.843 180.253 21.1875C180.253 20.532 180.196 19.9221 180.082 19.3577C179.968 18.7932 179.753 18.3016 179.435 17.8829C179.118 17.4641 178.68 17.1364 178.123 16.8997C177.566 16.663 176.85 16.5446 175.975 16.5446H173.764V20.0586ZM171.517 21.9158H170.312V20.0586H171.517V14.6875H176.838C177.82 14.6875 178.671 14.8574 179.39 15.1973C180.109 15.5372 180.696 16.0015 181.152 16.5902C181.607 17.1789 181.946 17.8677 182.167 18.6567C182.389 19.4457 182.5 20.2893 182.5 21.1875C182.5 22.0857 182.389 22.9293 182.167 23.7183C181.946 24.5073 181.607 25.1961 181.152 25.7848C180.696 26.3735 180.109 26.8378 179.39 27.1777C178.671 27.5176 177.82 27.6875 176.838 27.6875H171.517V21.9158Z" fill="white"/>
</g>
<g clip-path="url(#clip3_209_7)">
<g filter="url(#filter2_d_209_7)">
<path d="M11.5 64.5625C17.4543 64.5625 22.2812 59.7356 22.2812 53.7812C22.2812 47.8269 17.4543 43 11.5 43C5.54568 43 0.71875 47.8269 0.71875 53.7812C0.71875 59.7356 5.54568 64.5625 11.5 64.5625Z" fill="black"/>
</g>
<path d="M11.5 64.5625C17.4543 64.5625 22.2812 59.7356 22.2812 53.7812C22.2812 47.8269 17.4543 43 11.5 43C5.54568 43 0.71875 47.8269 0.71875 53.7812C0.71875 59.7356 5.54568 64.5625 11.5 64.5625Z" fill="#23292F"/>
<path style="mix-blend-mode:soft-light" d="M11.5 64.5625C17.4543 64.5625 22.2812 59.7356 22.2812 53.7812C22.2812 47.8269 17.4543 43 11.5 43C5.54568 43 0.71875 47.8269 0.71875 53.7812C0.71875 59.7356 5.54568 64.5625 11.5 64.5625Z" fill="url(#paint1_linear_209_7)"/>
<path d="M11.5 64.2031C17.2558 64.2031 21.9219 59.5371 21.9219 53.7812C21.9219 48.0254 17.2558 43.3594 11.5 43.3594C5.74416 43.3594 1.07812 48.0254 1.07812 53.7812C1.07812 59.5371 5.74416 64.2031 11.5 64.2031Z" stroke="black" stroke-opacity="0.097"/>
<path d="M16.0736 48.75H17.9434L14.0521 52.6035C12.6421 53.9983 10.3578 53.9983 8.94784 52.6035L5.05396 48.75H6.92636L9.88278 51.6761C10.7748 52.5605 12.2226 52.5605 13.1146 51.6761L16.0736 48.75Z" fill="white"/>
<path d="M6.90365 59.4639H5.03125L8.94788 55.5877C10.3579 54.1929 12.6421 54.1929 14.0521 55.5877L17.9688 59.4639H16.0964L13.1172 56.5125C12.2252 55.6281 10.7773 55.6281 9.88534 56.5125L6.90365 59.4639Z" fill="white"/>
</g>
<path d="M48.6479 45.6742L41.1526 51.241L42.5387 47.9567L48.6479 45.6742Z" fill="#E2761B" stroke="#E2761B" stroke-linecap="round" stroke-linejoin="round"/>
<path d="M31.3447 45.6742L38.7797 51.2938L37.4614 47.9567L31.3447 45.6742ZM45.9511 58.5781L43.9548 61.6365L48.226 62.8117L49.4539 58.6459L45.9511 58.5781ZM30.5537 58.6459L31.774 62.8117L36.0452 61.6365L34.049 58.5781L30.5537 58.6459Z" fill="#E4761B" stroke="#E4761B" stroke-linecap="round" stroke-linejoin="round"/>
<path d="M35.8042 53.4105L34.614 55.2109L38.8551 55.3992L38.7044 50.8418L35.8042 53.4105ZM44.1884 53.4105L41.2505 50.7891L41.1526 55.3992L45.3861 55.2109L44.1884 53.4105ZM36.0453 61.6365L38.5914 60.3936L36.3918 58.6761L36.0453 61.6365ZM41.4012 60.3936L43.9549 61.6365L43.6008 58.6761L41.4012 60.3936Z" fill="#E4761B" stroke="#E4761B" stroke-linecap="round" stroke-linejoin="round"/>
<path d="M43.9548 61.6365L41.4011 60.3936L41.6045 62.0584L41.5819 62.7589L43.9548 61.6365ZM36.0452 61.6365L38.418 62.7589L38.403 62.0584L38.5913 60.3936L36.0452 61.6365Z" fill="#D7C1B3" stroke="#D7C1B3" stroke-linecap="round" stroke-linejoin="round"/>
<path d="M38.4558 57.5763L36.3315 56.951L37.8306 56.2655L38.4558 57.5763ZM41.5368 57.5763L42.1621 56.2655L43.6686 56.951L41.5368 57.5763Z" fill="#233447" stroke="#233447" stroke-linecap="round" stroke-linejoin="round"/>
<path d="M36.0453 61.6365L36.4069 58.5782L34.0491 58.646L36.0453 61.6365ZM43.5933 58.5782L43.9549 61.6365L45.9511 58.646L43.5933 58.5782ZM45.3862 55.2109L41.1527 55.3993L41.5444 57.5763L42.1696 56.2656L43.6762 56.951L45.3862 55.2109ZM36.3316 56.951L37.8381 56.2656L38.4559 57.5763L38.8551 55.3993L34.614 55.2109L36.3316 56.951Z" fill="#CD6116" stroke="#CD6116" stroke-linecap="round" stroke-linejoin="round"/>
<path d="M34.614 55.2109L36.3918 58.6761L36.3315 56.951L34.614 55.2109ZM43.6762 56.951L43.6008 58.6761L45.3861 55.2109L43.6762 56.951ZM38.8551 55.3993L38.4558 57.5763L38.953 60.145L39.066 56.7627L38.8551 55.3993ZM41.1526 55.3993L40.9492 56.7552L41.0396 60.145L41.5443 57.5763L41.1526 55.3993Z" fill="#E4751F" stroke="#E4751F" stroke-linecap="round" stroke-linejoin="round"/>
<path d="M41.5443 57.5763L41.0396 60.145L41.4012 60.3936L43.6008 58.6761L43.6762 56.951L41.5443 57.5763ZM36.3315 56.951L36.3918 58.6761L38.5914 60.3936L38.953 60.145L38.4558 57.5763L36.3315 56.951Z" fill="#F6851B" stroke="#F6851B" stroke-linecap="round" stroke-linejoin="round"/>
<path d="M41.5819 62.7589L41.6045 62.0584L41.4162 61.8927H38.5762L38.403 62.0584L38.418 62.7589L36.0452 61.6365L36.8738 62.3145L38.5536 63.4821H41.4388L43.1261 62.3145L43.9548 61.6365L41.5819 62.7589Z" fill="#C0AD9E" stroke="#C0AD9E" stroke-linecap="round" stroke-linejoin="round"/>
<path d="M41.4012 60.3936L41.0396 60.145H38.953L38.5914 60.3936L38.4031 62.0584L38.5763 61.8927H41.4163L41.6046 62.0584L41.4012 60.3936Z" fill="#161616" stroke="#161616" stroke-linecap="round" stroke-linejoin="round"/>
<path d="M48.9642 51.6026L49.6045 48.5292L48.6479 45.6742L41.4012 51.0527L44.1884 53.4105L48.1281 54.5631L49.0019 53.5461L48.6253 53.2749L49.2279 52.725L48.7609 52.3635L49.3635 51.9039L48.9642 51.6026ZM30.3955 48.5292L31.0358 51.6026L30.629 51.9039L31.2317 52.3635L30.7722 52.725L31.3748 53.2749L30.9981 53.5461L31.8644 54.5631L35.8042 53.4105L38.5914 51.0527L31.3447 45.6742L30.3955 48.5292Z" fill="#763D16" stroke="#763D16" stroke-linecap="round" stroke-linejoin="round"/>
<path d="M48.1281 54.5631L44.1884 53.4106L45.3861 55.2109L43.6008 58.6761L45.9511 58.646H49.4539L48.1281 54.5631ZM35.8042 53.4106L31.8644 54.5631L30.5537 58.646H34.049L36.3918 58.6761L34.614 55.2109L35.8042 53.4106ZM41.1526 55.3993L41.4012 51.0527L42.5462 47.9567H37.4614L38.5914 51.0527L38.855 55.3993L38.9454 56.7703L38.953 60.145H41.0396L41.0547 56.7703L41.1526 55.3993Z" fill="#F6851B" stroke="#F6851B" stroke-linecap="round" stroke-linejoin="round"/>
<g clip-path="url(#clip4_209_7)">
<g filter="url(#filter3_d_209_7)">
<path d="M68 63.625C73.6954 63.625 78.3125 59.0079 78.3125 53.3125C78.3125 47.6171 73.6954 43 68 43C62.3046 43 57.6875 47.6171 57.6875 53.3125C57.6875 59.0079 62.3046 63.625 68 63.625Z" fill="black"/>
</g>
<path d="M68 63.625C73.6954 63.625 78.3125 59.0079 78.3125 53.3125C78.3125 47.6171 73.6954 43 68 43C62.3046 43 57.6875 47.6171 57.6875 53.3125C57.6875 59.0079 62.3046 63.625 68 63.625Z" fill="#F3BA2F"/>
<path style="mix-blend-mode:soft-light" d="M68 63.625C73.6954 63.625 78.3125 59.0079 78.3125 53.3125C78.3125 47.6171 73.6954 43 68 43C62.3046 43 57.6875 47.6171 57.6875 53.3125C57.6875 59.0079 62.3046 63.625 68 63.625Z" fill="url(#paint2_linear_209_7)"/>
<path d="M68 63.2812C73.5056 63.2812 77.9688 58.8181 77.9688 53.3125C77.9688 47.8069 73.5056 43.3438 68 43.3438C62.4944 43.3438 58.0312 47.8069 58.0312 53.3125C58.0312 58.8181 62.4944 63.2812 68 63.2812Z" stroke="black" stroke-opacity="0.097"/>
<g filter="url(#filter4_d_209_7)">
<path d="M65.3296 52.2154L67.9999 49.5452L70.6715 52.2168L72.2252 50.663L67.9999 46.4375L63.776 50.6616L65.3296 52.2154ZM61.125 53.3123L62.6788 51.7585L64.2325 53.3122L62.6787 54.866L61.125 53.3123ZM65.3296 54.4096L67.9999 57.0798L70.6714 54.4083L72.226 55.9612L72.2252 55.9621L67.9999 60.1875L63.7758 55.9635L63.7736 55.9613L65.3296 54.4096ZM71.7675 53.3131L73.3213 51.7593L74.875 53.313L73.3212 54.8668L71.7675 53.3131ZM69.5758 53.3117L69.5773 53.3124L69.5765 53.3133L67.9999 54.89L66.4247 53.3147L66.4225 53.3124L66.4247 53.3103L66.7008 53.0341L66.8346 52.9002H66.8347L67.9999 51.735L69.5765 53.3117H69.5758Z" fill="black"/>
</g>
<path d="M65.3296 52.2154L67.9999 49.5452L70.6715 52.2168L72.2252 50.663L67.9999 46.4375L63.776 50.6616L65.3296 52.2154ZM61.125 53.3123L62.6788 51.7585L64.2325 53.3122L62.6787 54.866L61.125 53.3123ZM65.3296 54.4096L67.9999 57.0798L70.6714 54.4083L72.226 55.9612L72.2252 55.9621L67.9999 60.1875L63.7758 55.9635L63.7736 55.9613L65.3296 54.4096ZM71.7675 53.3131L73.3213 51.7593L74.875 53.313L73.3212 54.8668L71.7675 53.3131ZM69.5758 53.3117L69.5773 53.3124L69.5765 53.3133L67.9999 54.89L66.4247 53.3147L66.4225 53.3124L66.4247 53.3103L66.7008 53.0341L66.8346 52.9002H66.8347L67.9999 51.735L69.5765 53.3117H69.5758Z" fill="white"/>
</g>
<g clip-path="url(#clip5_209_7)">
<mask style="mask-type:luminance" maskUnits="userSpaceOnUse" x="84" y="43" width="20" height="20">
<path d="M104 43H84V63H104V43Z" fill="white"/>
</mask>
<g mask="url(#mask2_209_7)">
<path d="M94 63C99.5229 63 104 58.5229 104 53C104 47.4772 99.5229 43 94 43C88.4772 43 84 47.4772 84 53C84 58.5229 88.4772 63 94 63Z" fill="#375BD2"/>
<path d="M93.9999 45.5L87.5046 49.25V56.75L93.9999 60.5L100.495 56.75V49.25L93.9999 45.5ZM97.7426 55.161L93.9999 57.3217L90.2571 55.161V50.839L93.9999 48.6783L97.7426 50.839V55.161Z" fill="white"/>
</g>
</g>
<g clip-path="url(#clip6_209_7)">
<path d="M119.5 64C125.299 64 130 59.299 130 53.5C130 47.701 125.299 43 119.5 43C113.701 43 109 47.701 109 53.5C109 59.299 113.701 64 119.5 64Z" fill="#8247E5"/>
<path d="M123.1 51.1398C122.845 50.994 122.516 50.994 122.223 51.1398L120.176 52.3462L118.788 53.1138L116.777 54.3202C116.521 54.466 116.192 54.466 115.9 54.3202L114.328 53.3693C114.194 53.2907 114.083 53.1786 114.006 53.044C113.929 52.9095 113.889 52.7572 113.889 52.6023V50.7747C113.889 50.4818 114.035 50.1896 114.328 50.007L115.9 49.0929C116.155 48.9471 116.484 48.9471 116.777 49.0929L118.348 50.0438C118.605 50.1896 118.787 50.4818 118.787 50.8108V52.0172L120.176 51.2133V49.9708C120.176 49.678 120.03 49.3852 119.737 49.2026L116.813 47.4847C116.558 47.3388 116.229 47.3388 115.936 47.4847L112.939 49.2393C112.646 49.3852 112.5 49.678 112.5 49.9703V53.4061C112.5 53.6989 112.646 53.9912 112.939 54.1738L115.9 55.8923C116.155 56.0381 116.484 56.0381 116.777 55.8923L118.787 54.7221L120.176 53.9183L122.187 52.7481C122.442 52.6023 122.771 52.6023 123.064 52.7481L124.636 53.6622C124.892 53.808 125.074 54.1008 125.074 54.4298V56.2574C125.074 56.5497 124.929 56.8425 124.636 57.0251L123.1 57.9392C122.845 58.085 122.516 58.085 122.223 57.9392L120.652 57.0251C120.518 56.9464 120.407 56.8342 120.33 56.6995C120.253 56.5649 120.213 56.4125 120.213 56.2574V55.0878L118.823 55.8917V57.0974C118.823 57.3903 118.969 57.6825 119.262 57.8651L122.222 59.5836C122.478 59.7294 122.807 59.7294 123.1 59.5836L126.061 57.8651C126.317 57.7193 126.499 57.4264 126.499 57.0974V53.6248C126.499 53.3332 126.354 53.0403 126.061 52.8572L123.1 51.1393L123.1 51.1398Z" fill="white"/>
</g>
<path d="M147 43L142.066 49.762L140 59.758L147 64L154 59.758L151.892 49.72L147 43ZM141.139 59.296L142.699 51.694L146.241 62.404L141.139 59.296ZM143.205 49.972L147 44.764L150.795 49.972L147 61.396L143.205 49.972ZM147.717 62.404L151.259 51.694L152.819 59.296L147.717 62.404Z" fill="white"/>
<g clip-path="url(#clip7_209_7)">
<path d="M187 54.5C187 48.1428 181.845 43 175.5 43C169.143 43 164 48.1428 164 54.5C164 60.8448 169.143 66 175.5 66C181.845 66 187 60.8448 187 54.5Z" fill="url(#paint3_radial_209_7)"/>
<path d="M183.32 50.9063C183.27 51.1913 183.221 51.3276 183.146 51.4763C183.072 51.6498 182.997 51.8357 182.923 52.2322C182.898 52.3809 182.874 52.5049 182.861 52.604V52.6164C182.836 52.7775 182.824 52.889 182.762 53.0749C182.712 53.236 182.626 53.4962 182.415 53.7689C182.242 53.9919 181.957 54.3761 181.572 54.4256C181.535 54.4256 181.473 54.4256 181.436 54.4133C180.346 53.8556 179.416 53.4467 179.094 53.3599C178.722 53.2484 178.772 52.4305 178.809 51.7117C178.834 51.3895 178.846 51.0797 178.834 50.8195C178.784 49.9025 178.623 48.9111 177.83 48.4278C177.359 48.1428 176.739 48.056 176.157 48.056C176.269 48.0065 176.38 47.9321 176.516 47.8578C176.863 47.6595 177.285 47.4116 177.718 47.3621C177.855 47.3497 177.991 47.3373 178.127 47.3125C178.982 47.2134 179.726 47.1266 180.507 47.3992C180.866 47.5232 181.585 47.9197 181.771 48.3039C181.907 48.5641 182.13 48.7748 182.564 49.1837C182.799 49.3944 182.948 49.5183 183.059 49.6175C183.221 49.7414 183.245 49.7786 183.295 49.8653C183.444 50.1627 183.394 50.4725 183.32 50.9063Z" fill="white"/>
<path d="M179.366 54.6611C179.416 54.6735 179.441 54.7355 179.404 54.785C179.292 54.9585 179.156 55.2064 178.995 55.4914C178.92 55.6277 178.846 55.764 178.784 55.8631C178.573 56.2225 178.561 56.5323 178.549 56.7678C178.536 57.028 178.524 57.1396 178.363 57.2387C178.239 57.3254 178.102 57.3502 177.21 57.4865C177.049 57.5113 176.987 57.5361 176.925 57.5733C176.913 57.5857 176.888 57.5857 176.876 57.5981C176.826 57.6228 176.776 57.5733 176.776 57.5237C176.789 57.3998 176.789 57.2387 176.789 57.028V56.9908C176.789 56.8174 176.789 56.6686 176.776 56.5571C176.764 56.3341 176.764 56.2349 176.826 56.1358C176.9 56.0119 176.962 55.9747 177.049 55.9127C177.185 55.826 177.371 55.7144 177.632 55.3427C177.78 55.1444 177.805 55.0329 177.83 54.9461C177.842 54.9089 177.842 54.8966 177.954 54.8098C178.065 54.7231 178.425 54.4504 178.883 54.5248C179.032 54.5496 179.193 54.5991 179.366 54.6611Z" fill="white"/>
<path d="M175.81 58.7753C175.785 58.8001 175.773 58.8125 175.736 58.8125C175.636 58.8125 175.574 58.7877 175.537 58.7381C175.451 58.6266 175.463 58.4035 175.475 58.2672L175.859 58.1681C175.884 58.3788 175.897 58.6638 175.81 58.7753Z" fill="white"/>
<path d="M175.835 57.4122C175.822 57.4617 175.822 57.5237 175.822 57.5981C175.822 57.6228 175.822 57.6476 175.822 57.6724C175.822 57.7344 175.822 57.8335 175.822 57.8831C175.698 57.9203 175.599 57.9203 175.475 57.9203C175.475 57.8831 175.475 57.8211 175.475 57.7839C175.475 57.7592 175.475 57.722 175.475 57.6972C175.475 57.66 175.475 57.6352 175.475 57.5981C175.475 57.5237 175.475 57.4122 175.488 57.375C175.525 57.375 175.562 57.3626 175.599 57.3502C175.674 57.3378 175.785 57.313 175.847 57.3254C175.847 57.3502 175.847 57.3874 175.835 57.4122Z" fill="white"/>
<path d="M175.141 58.6638C175.128 58.8621 175.066 59.0975 174.88 59.1347C174.794 59.1471 174.756 59.1223 174.732 59.0975C174.608 58.986 174.595 58.639 174.608 58.3912C174.695 58.3912 174.794 58.3788 174.918 58.354C174.992 58.3416 175.066 58.3168 175.128 58.3044C175.141 58.4036 175.153 58.5275 175.141 58.6638Z" fill="white"/>
<path d="M175.054 57.9698L174.645 58.1185C174.67 57.9574 174.695 57.7344 174.707 57.5857C174.719 57.4865 174.744 57.4493 174.757 57.437C174.757 57.437 174.769 57.4246 174.781 57.4246C174.781 57.4246 174.781 57.4246 174.794 57.4246H174.806L175.066 57.4122C175.054 57.5361 175.054 57.8087 175.054 57.9698Z" fill="white"/>
<path d="M174.385 57.8459C174.36 57.9079 174.335 58.0813 174.323 58.2053L173.815 58.1929C173.839 58.0318 173.889 57.8707 173.926 57.7468C173.976 57.6228 174.013 57.5237 174.063 57.4989C174.112 57.4741 174.224 57.4617 174.298 57.5237C174.41 57.5981 174.434 57.7096 174.385 57.8459Z" fill="white"/>
<path d="M174.199 59.4197C174.162 59.4693 174.112 59.5065 174.062 59.5065C174 59.5188 173.963 59.4941 173.926 59.4693C173.765 59.3206 173.777 58.8373 173.79 58.6018C174 58.5523 174.236 58.5151 174.347 58.5027C174.347 58.6886 174.36 59.1967 174.199 59.4197Z" fill="white"/>
<path d="M173.53 58.1681C173.505 58.2301 173.48 58.292 173.468 58.354C173.406 58.3788 173.22 58.354 173.034 58.3168L173.158 57.5113C173.369 57.4494 173.616 57.437 173.666 57.4989C173.753 57.5857 173.592 57.9946 173.53 58.1681Z" fill="white"/>
<path d="M173.294 59.5313C173.195 59.6552 173.046 59.7172 172.836 59.7048C172.687 59.7048 172.637 59.6428 172.613 59.6056C172.501 59.4197 172.613 58.986 172.724 58.7134L173.418 58.7506C173.43 58.8001 173.43 58.8621 173.43 58.924C173.443 59.1347 173.418 59.3826 173.294 59.5313Z" fill="white"/>
<path d="M179.044 53.6697C178.412 53.4962 178.474 52.5792 178.524 51.687C178.536 51.3772 178.561 51.0798 178.549 50.8319C178.499 50.0016 178.363 49.097 177.694 48.688C176.975 48.2543 175.798 48.3535 175.079 48.4402C174.819 48.5146 174.571 48.5765 174.372 48.5641C173.951 48.5393 173.617 48.3659 173.319 48.2048C173.096 48.0808 172.898 47.9693 172.7 47.9693C172.687 47.9693 172.675 47.9693 172.675 47.9693C172.117 48.0065 171.857 48.1428 171.621 48.3535C171.559 48.403 171.485 48.5517 171.25 49.2333C171.126 49.5803 171.113 49.7662 171.089 49.9397C171.064 50.1008 171.051 50.2743 170.965 50.5345C170.903 50.708 170.853 50.8567 170.816 51.0054C170.704 51.3896 170.605 51.6994 170.333 52.0711C170.295 52.1083 170.258 52.1827 170.209 52.2446C170.147 52.3438 170.072 52.4677 169.961 52.604C169.886 52.7031 169.725 53.0749 169.738 53.1864C169.75 53.3723 169.812 53.4838 169.874 53.6078C169.936 53.7317 170.023 53.8804 170.035 54.0911V54.1282C170.06 54.4504 170.01 54.6115 169.403 55.1568C169.019 55.5038 168.734 55.8384 168.548 56.0862C168.536 56.111 168.548 56.1358 168.585 56.1358C168.598 56.1358 168.598 56.1358 168.598 56.1358C168.61 56.1358 168.622 56.1358 168.635 56.1358C168.647 56.1358 168.66 56.1358 168.672 56.1358C168.684 56.1358 168.697 56.1358 168.709 56.1358C168.858 56.1482 169.007 56.2101 169.106 56.3217C169.118 56.3465 169.155 56.3465 169.18 56.3341C169.279 56.2969 169.391 56.2969 169.49 56.3093C169.614 56.3217 169.75 56.3588 169.837 56.4456C169.862 56.4704 169.899 56.4828 169.936 56.4704C170.035 56.4456 170.147 56.4456 170.246 56.4828C170.32 56.5076 170.395 56.5571 170.444 56.6191C170.481 56.6563 170.543 56.6687 170.593 56.6439C170.618 56.6315 170.655 56.6067 170.692 56.5943C170.828 56.5447 170.977 56.5695 171.101 56.6191C171.163 56.6439 171.225 56.6563 171.287 56.7058C171.386 56.7802 171.46 56.8793 171.497 56.9909C171.522 57.0528 171.609 57.0776 171.659 57.028C171.758 56.9537 171.832 56.9413 171.906 56.9661C171.944 56.9785 171.968 57.0032 171.993 57.0404C172.03 57.09 172.092 57.1396 172.142 57.1148C172.353 57.0528 172.6 57.09 172.786 57.1891C172.848 57.2263 172.923 57.2759 172.96 57.3502V57.313C172.96 57.3007 172.972 57.2883 172.985 57.2759L173.022 57.2635C173.121 57.2263 173.641 57.0776 173.84 57.2883C173.852 57.3007 173.864 57.3007 173.877 57.2883C173.902 57.2635 173.926 57.2387 173.939 57.2387C174.075 57.1643 174.298 57.1519 174.447 57.2883C174.472 57.313 174.521 57.3007 174.546 57.2759C174.558 57.2511 174.571 57.2387 174.596 57.2263C174.645 57.1767 174.719 57.1643 174.794 57.1643L175.079 57.1519C175.153 57.1519 175.376 57.1272 175.438 57.1148H175.451C175.475 57.1148 175.513 57.1024 175.55 57.09C175.686 57.0652 175.847 57.028 175.971 57.09C176.095 57.1519 176.083 57.2883 176.07 57.4122C176.07 57.4618 176.058 57.5113 176.058 57.5609C176.058 57.5857 176.058 57.6105 176.058 57.6352C176.058 57.7468 176.058 57.8459 176.045 57.9203L176.058 57.9822C176.058 57.9822 176.058 57.9822 176.058 57.9946C176.07 58.0442 176.132 58.0814 176.169 58.0442C176.268 57.9822 176.368 57.9079 176.405 57.8583V57.8459C176.405 57.8335 176.417 57.8087 176.43 57.7592C176.442 57.6476 176.467 57.437 176.467 57.0032C176.467 56.9785 176.467 56.9661 176.467 56.9537C176.467 56.7926 176.467 56.6563 176.454 56.5447C176.442 56.3093 176.43 56.1234 176.553 55.9375C176.665 55.7516 176.777 55.6897 176.888 55.6153C177.012 55.541 177.148 55.4542 177.384 55.132C177.495 54.9709 177.508 54.909 177.52 54.8594C177.545 54.7355 177.582 54.6611 177.768 54.5372C177.917 54.4257 178.35 54.0911 178.945 54.1902C179.143 54.2274 179.453 54.3265 179.775 54.4504C179.788 54.4504 179.8 54.4628 179.813 54.4628H179.825C180.11 54.5744 180.37 54.6983 180.556 54.7974C180.593 54.8222 180.643 54.8098 180.68 54.7726C180.742 54.6983 180.804 54.6611 180.866 54.6115C180.891 54.5991 180.916 54.5868 180.928 54.5744C180.94 54.5744 180.94 54.562 180.94 54.562C180.99 54.5248 180.99 54.4257 180.928 54.4009C180.098 53.9919 179.305 53.7441 179.044 53.6697ZM173.071 53.8556C172.873 54.6983 171.559 55.6401 170.965 55.6401H170.952C170.94 55.6401 170.927 55.6401 170.927 55.6401C170.915 55.6401 170.903 55.6401 170.89 55.6277C170.878 55.6277 170.878 55.6277 170.865 55.6277C170.754 55.5905 170.605 55.5162 170.494 55.4046C170.419 55.3303 170.357 55.2312 170.333 55.1444C170.333 55.132 170.32 55.1072 170.32 55.0948C170.283 54.9461 170.246 54.7726 170.37 54.4752C170.382 54.438 170.407 54.4009 170.419 54.3637C170.419 54.3513 170.432 54.3389 170.432 54.3265C170.444 54.2893 170.457 54.2646 170.469 54.2398C170.481 54.1902 170.506 54.153 170.518 54.1282C170.518 54.1159 170.531 54.1035 170.531 54.0911C170.568 53.9919 170.568 53.9548 170.58 53.9176C170.58 53.8928 170.593 53.8432 170.605 53.7937C170.642 53.6326 170.667 53.4962 170.68 53.3847C170.704 53.174 170.742 52.9882 170.853 52.8147C170.878 52.7899 170.89 52.7651 170.915 52.7403C170.927 52.7279 170.927 52.7279 170.94 52.7155C170.952 52.7031 170.952 52.7031 170.965 52.6907C170.989 52.666 171.027 52.6536 171.051 52.6412C171.064 52.6412 171.076 52.6288 171.089 52.6288C171.113 52.6164 171.138 52.6164 171.163 52.604C171.274 52.5792 171.398 52.5792 171.547 52.5916C171.708 52.604 171.857 52.6288 171.981 52.666C172.092 52.6907 172.191 52.7279 172.266 52.7651C172.278 52.7651 172.278 52.7775 172.291 52.7775C172.303 52.7899 172.315 52.7899 172.34 52.8023C172.365 52.8147 172.377 52.8147 172.402 52.8271C172.427 52.8395 172.452 52.8518 172.476 52.8642L172.501 52.8766C172.588 52.9138 172.675 52.9634 172.737 53.0129C172.774 53.0377 172.799 53.0625 172.823 53.0873C172.836 53.0997 172.848 53.0997 172.848 53.1121C172.861 53.1245 172.861 53.1245 172.873 53.1369C173.133 53.3599 173.121 53.6697 173.071 53.8556ZM173.691 50.646L173.666 50.7947C173.604 51.1417 173.468 51.6126 172.972 51.7365C172.489 51.8481 172.377 51.8729 172.043 51.8976C172.03 51.8976 172.03 51.8976 172.018 51.8976C171.77 51.8976 171.287 51.7365 171.2 51.3524C171.15 51.1045 171.262 50.9187 171.435 50.6212C171.46 50.5717 171.497 50.5221 171.535 50.4601C171.782 50.0512 171.869 49.7538 171.944 49.5183C172.018 49.2829 172.08 49.097 172.241 48.9359C172.278 48.8987 172.315 48.8615 172.365 48.8368C172.39 48.812 172.427 48.7996 172.464 48.7748C172.514 48.75 172.563 48.7376 172.613 48.7128C172.724 48.6757 172.848 48.6633 172.96 48.6633C173.195 48.6633 173.431 48.7252 173.592 48.8615C173.666 48.9235 173.778 49.035 173.84 49.3944C173.864 49.5803 173.815 49.9149 173.691 50.646ZM177.247 51.6374C177.074 51.9348 176.987 52.0959 176.839 52.2198C176.541 52.4677 176.207 52.5173 175.921 52.5173C175.723 52.5173 175.55 52.4801 175.438 52.4677C175.141 52.4181 174.608 52.319 174.422 51.8852C174.385 51.7985 174.385 51.7489 174.385 51.6746C174.385 51.6126 174.385 51.4887 174.348 51.2285V51.2161C174.335 51.0921 174.323 50.9558 174.348 50.7823V50.7576C174.447 50.2371 174.484 50.1627 174.496 50.1132C174.546 50.014 174.67 49.9645 174.781 50.0264C174.881 50.076 174.918 50.1999 174.881 50.299C174.868 50.3238 174.843 50.4354 174.757 50.8443V50.8691C174.732 50.9806 174.744 51.0674 174.757 51.1789V51.1913C174.794 51.4887 174.794 51.6126 174.794 51.687C174.794 51.6994 174.794 51.7118 174.794 51.7241V51.7365C174.831 51.8233 174.905 51.8729 174.992 51.9224C175.054 51.9472 175.116 51.8976 175.104 51.8357C175.017 51.3772 175.017 50.8443 175.19 50.5097C175.252 50.3982 175.351 50.2247 175.451 50.0512C175.463 50.0388 175.475 50.014 175.475 50.0016C175.488 49.9892 175.488 49.9768 175.5 49.9645C175.55 49.8901 175.587 49.8281 175.624 49.7662C175.624 49.7538 175.636 49.7538 175.636 49.7414L175.649 49.729C175.661 49.7166 175.661 49.7042 175.674 49.6918C175.674 49.6918 175.674 49.6794 175.686 49.6794L175.698 49.667C175.698 49.6546 175.711 49.6546 175.711 49.6423C175.748 49.5927 175.785 49.5431 175.81 49.4935C175.86 49.4316 175.798 49.3572 175.736 49.382C175.562 49.4564 175.451 49.5431 175.426 49.5555C175.339 49.6299 175.203 49.6175 175.128 49.5183C175.054 49.4316 175.066 49.2953 175.166 49.2209C175.277 49.1342 175.847 48.7252 176.529 48.9111C177.024 49.0474 177.272 49.4316 177.371 49.5679C177.446 49.6794 177.694 50.0264 177.681 50.5221C177.681 50.8815 177.532 51.1541 177.247 51.6374Z" fill="white"/>
<path d="M172.811 49.097C172.774 49.1837 172.737 49.2829 172.687 49.3944C172.588 49.6546 172.464 49.952 172.402 50.0636C172.303 50.2495 172.228 50.3734 172.167 50.4601C172.092 50.5717 172.043 50.6584 171.993 50.7823C171.919 50.993 171.906 51.2285 171.956 51.4887C171.82 51.4763 171.609 51.3895 171.584 51.2656C171.572 51.1789 171.621 51.0921 171.77 50.8319C171.795 50.7823 171.832 50.7204 171.869 50.6708C172.129 50.2247 172.241 49.8901 172.315 49.6422C172.402 49.382 172.439 49.2705 172.575 49.1713C172.662 49.1342 172.737 49.1094 172.811 49.097Z" fill="white"/>
<path d="M172.551 58.4655C172.402 58.7629 172.228 59.0356 172.117 59.1719C172.018 58.924 171.857 58.3416 171.906 57.8831C171.906 57.8707 171.906 57.8583 171.906 57.8459C171.919 57.6972 171.956 57.5733 172.03 57.4617C172.08 57.3874 172.204 57.3502 172.34 57.3502C172.439 57.3502 172.551 57.375 172.65 57.4246C172.699 57.4494 172.774 57.5113 172.774 57.6724C172.798 57.8955 172.687 58.1929 172.551 58.4655Z" fill="white"/>
<path d="M180.482 55.1568C180.494 55.1692 180.494 55.1816 180.494 55.194C180.457 55.2807 180.395 55.3427 180.333 55.417C180.259 55.5038 180.172 55.6029 180.098 55.764C179.986 55.9871 179.949 56.1854 179.937 56.7058C179.912 57.3131 179.937 57.6476 179.961 57.8955C179.974 58.1309 179.986 58.2796 179.949 58.5151C179.862 58.986 179.664 59.2958 179.404 59.6924C179.082 60.1881 178.759 60.6961 178.214 60.8572C178.165 60.8696 178.165 60.8696 178.016 60.8696C177.892 60.8696 177.681 60.8696 177.297 60.882C176.578 60.9068 176.219 60.9192 175.922 60.9812C175.599 61.0431 175.438 61.1175 175.265 61.1794C175.116 61.2414 174.98 61.291 174.719 61.3529C174.558 61.3901 174.323 61.4149 173.517 61.4273C172.675 61.4273 172.167 61.4273 171.51 61.3529C170.593 61.2538 170.134 61.1918 169.825 61.0307C169.106 60.6466 168.796 59.9526 168.3 58.8125C168.3 58.8001 168.313 58.7877 168.325 58.7877C168.35 58.8001 168.375 58.8125 168.399 58.8249C168.424 58.8373 168.449 58.8373 168.461 58.8373C168.511 58.8497 168.561 58.8497 168.61 58.8373C168.622 58.8373 168.622 58.8373 168.635 58.8249C168.647 58.8249 168.66 58.8249 168.66 58.8373C168.697 58.924 168.746 58.9984 168.833 59.048C168.92 59.0975 169.019 59.0975 169.106 59.0975C169.205 59.0975 169.304 59.0851 169.403 59.0728C169.453 59.0728 169.502 59.0975 169.527 59.1347C169.614 59.3578 169.725 59.5065 169.899 59.5313C169.911 59.5313 169.924 59.5313 169.936 59.5313C169.973 59.5313 170.035 59.5189 170.11 59.4693C170.172 59.4197 170.271 59.4569 170.32 59.5189C170.357 59.5808 170.407 59.618 170.457 59.6552C170.63 59.8287 171.051 59.9154 171.398 59.9154C171.584 59.9154 171.758 59.8906 171.857 59.8411C172.006 59.7667 172.006 59.6676 171.993 59.618C171.981 59.5437 171.968 59.4569 171.956 59.3826C171.956 59.3702 171.968 59.3702 171.968 59.3826C171.993 59.4321 172.018 59.4817 172.08 59.4941C172.092 59.4941 172.092 59.4941 172.105 59.4941C172.204 59.4941 172.353 59.5313 172.377 59.618C172.39 59.6676 172.415 59.7048 172.439 59.7543C172.501 59.8411 172.613 59.9526 172.848 59.965H172.861C173.133 59.965 173.344 59.8782 173.48 59.7048C173.493 59.6924 173.493 59.68 173.505 59.6676C173.555 59.5932 173.703 59.5932 173.765 59.6552C173.84 59.7171 173.926 59.7543 174.026 59.7543C174.038 59.7543 174.063 59.7543 174.075 59.7543C174.199 59.7419 174.298 59.68 174.385 59.5684C174.434 59.4941 174.472 59.4073 174.496 59.3082C174.509 59.2834 174.546 59.271 174.571 59.2958C174.62 59.3454 174.707 59.3949 174.831 59.3949C174.856 59.3949 174.893 59.3949 174.93 59.3826C175.166 59.333 175.29 59.1347 175.339 58.924C175.339 58.9117 175.351 58.9117 175.351 58.924C175.413 58.9984 175.525 59.0851 175.711 59.0851C175.723 59.0851 175.736 59.0851 175.736 59.0851C175.835 59.0851 175.922 59.0356 175.983 58.9612C176.058 58.8621 176.083 58.7134 176.095 58.5771C176.095 58.5399 176.12 58.5027 176.169 58.4779C176.368 58.3912 176.615 58.2053 176.69 58.0814C176.69 58.0814 176.69 58.069 176.702 58.069C176.715 58.0318 176.752 58.007 176.777 58.007C176.938 57.9822 177 57.9451 177.062 57.9203C177.111 57.8955 177.148 57.8831 177.272 57.8583C178.177 57.722 178.35 57.6848 178.549 57.5609C178.846 57.3626 178.858 57.09 178.871 56.8298C178.883 56.6067 178.896 56.3588 179.069 56.0614C179.131 55.9499 179.205 55.826 179.28 55.6773C179.416 55.4294 179.602 55.0824 179.738 54.8966C179.763 54.8594 179.813 54.847 179.85 54.8718C180.16 54.9833 180.432 55.1072 180.482 55.1568Z" fill="white"/>
<path d="M171.683 57.8583C171.646 58.1681 171.621 58.5894 171.671 59.1347C171.683 59.2834 171.708 59.4445 171.733 59.6056C171.696 59.6304 171.559 59.6676 171.336 59.6552C171.014 59.6428 170.692 59.5684 170.593 59.4569L170.58 59.4445C170.506 59.3825 170.444 59.333 170.444 59.2214C170.444 59.1843 170.456 59.1471 170.494 59.0851C170.518 59.0603 170.543 59.0232 170.568 58.9736C170.618 58.8992 170.692 58.8125 170.766 58.6886C170.977 58.3416 171.051 58.2301 171.15 58.0937C171.163 58.0814 171.163 58.069 171.175 58.0566C171.237 57.9822 171.299 57.8831 171.411 57.722C171.485 57.6105 171.547 57.5113 171.609 57.437C171.696 57.313 171.758 57.2511 171.795 57.2139C171.795 57.2635 171.782 57.3378 171.77 57.4122C171.72 57.5609 171.696 57.6972 171.683 57.8583Z" fill="white"/>
<path d="M171.522 52.9757C171.522 52.9881 171.522 52.9881 171.522 52.9757C171.473 53.0377 171.423 53.1121 171.361 53.236C171.2 53.583 171.2 53.7812 171.2 53.9423C171.2 54.0291 171.2 54.091 171.175 54.1654C171.163 54.215 171.138 54.2769 171.101 54.3389C171.014 54.5496 170.89 54.8222 170.94 55.194C170.865 55.1568 170.754 55.07 170.729 55.0329C170.729 55.0081 170.717 54.9957 170.717 54.9709C170.692 54.8594 170.679 54.785 170.741 54.6115C170.94 54.1654 170.964 54.0539 170.977 53.9299C170.977 53.9052 170.989 53.8804 170.989 53.8432C171.026 53.6697 171.051 53.521 171.064 53.3971C171.088 53.2112 171.113 53.0873 171.175 53.0005C171.2 52.9633 171.262 52.951 171.349 52.951C171.386 52.951 171.423 52.951 171.473 52.9634H171.485C171.522 52.9757 171.522 52.9757 171.522 52.9757Z" fill="white"/>
<path d="M171.274 57.3998C171.262 57.2882 171.25 57.1891 171.2 57.0776C171.2 57.0776 171.188 57.0528 171.188 57.0404C171.175 57.028 171.175 57.0156 171.163 57.0032L171.151 56.9908C171.138 56.9784 171.138 56.9784 171.126 56.9784L171.113 56.966C171.101 56.966 171.101 56.9537 171.089 56.9537H171.076C171.014 56.9289 170.952 56.9041 170.878 56.8917C170.865 56.8917 170.853 56.8917 170.853 56.8917C170.841 56.8917 170.841 56.8917 170.828 56.8917H170.816C170.804 56.8917 170.791 56.9041 170.766 56.9041C170.754 56.9041 170.754 56.9165 170.742 56.9165L170.729 56.9289C170.717 56.9413 170.717 56.9413 170.704 56.9537L170.692 56.966V56.9784C170.667 57.0156 170.642 57.0528 170.618 57.09C170.556 57.1767 170.494 57.2759 170.432 57.3626C170.37 57.4493 170.32 57.5237 170.258 57.6104C170.221 57.66 170.196 57.6972 170.159 57.7468C170.159 57.7592 170.147 57.7591 170.147 57.7715C170.184 57.7839 170.221 57.7839 170.258 57.7963C170.345 57.8087 170.432 57.8211 170.506 57.8335C170.68 57.8583 170.865 57.8707 171.039 57.8583C171.051 57.8583 171.051 57.8583 171.064 57.8583C171.101 57.7963 171.163 57.722 171.225 57.6228C171.262 57.5733 171.299 57.5237 171.324 57.4741C171.287 57.4617 171.274 57.4246 171.274 57.3998Z" fill="white"/>
<path d="M170.642 58.1309C170.63 58.2672 170.481 58.6142 170.246 58.9488C170.048 59.2214 169.924 59.2958 169.899 59.2958C169.8 59.2834 169.713 59.0479 169.639 58.8125C169.614 58.7134 169.577 58.6266 169.564 58.5399C169.515 58.3664 169.502 58.1185 169.515 57.9698C169.713 58.0813 170.06 58.1061 170.556 58.1061C170.58 58.1185 170.618 58.1185 170.642 58.1309Z" fill="white"/>
<path d="M170.295 57.0156C170.209 57.152 170.122 57.2759 170.035 57.3998C169.986 57.4618 169.948 57.5237 169.899 57.5857C169.874 57.6229 169.837 57.66 169.812 57.6972C169.738 57.6848 169.676 57.66 169.601 57.6476C169.539 57.6353 169.49 57.6105 169.428 57.5857C169.415 57.5857 169.403 57.5733 169.391 57.5733C169.378 57.5609 169.366 57.5361 169.354 57.5237C169.378 57.4865 169.391 57.437 169.415 57.3998C169.453 57.3254 169.49 57.2511 169.539 57.1767C169.614 57.0528 169.7 56.9165 169.837 56.8298C169.849 56.8298 169.849 56.8174 169.862 56.8174C169.911 56.7926 169.961 56.7678 170.023 56.7554C170.035 56.7554 170.072 56.7554 170.097 56.7554H170.109C170.109 56.7554 170.109 56.7554 170.122 56.7554C170.134 56.7554 170.147 56.7678 170.171 56.7678C170.171 56.7678 170.184 56.7678 170.184 56.7802C170.196 56.7926 170.209 56.7926 170.221 56.805C170.196 56.7926 170.246 56.8421 170.246 56.8298C170.271 56.9041 170.283 56.9413 170.295 57.0156Z" fill="white"/>
<path d="M169.626 56.6562C169.465 56.7802 169.354 56.9537 169.267 57.1395C169.217 57.2387 169.168 57.3378 169.118 57.437C169.118 57.4494 169.106 57.4617 169.106 57.4617C169.056 57.4494 169.007 57.437 168.969 57.4246C168.92 57.4122 168.87 57.3874 168.821 57.375C168.796 57.3626 168.784 57.3502 168.759 57.3378C168.808 57.2511 168.858 57.1643 168.92 57.0776C168.994 56.9661 169.081 56.8421 169.168 56.743C169.205 56.7058 169.242 56.6562 169.279 56.6315C169.329 56.6067 169.378 56.6067 169.44 56.6191C169.502 56.6191 169.564 56.6191 169.614 56.6439C169.601 56.6439 169.614 56.6562 169.626 56.6562Z" fill="white"/>
<path d="M169.378 58.7629C169.366 58.7753 169.366 58.7753 169.353 58.7877H169.341C169.304 58.7877 169.267 58.8001 169.229 58.8001C169.155 58.8001 169.081 58.8125 169.006 58.8001C168.969 58.8001 168.932 58.7877 168.907 58.7629C168.882 58.7257 168.87 58.6514 168.858 58.6018C168.808 58.3292 168.808 58.0566 168.833 57.7839C168.969 57.8335 169.118 57.8707 169.267 57.8955C169.229 58.1433 169.291 58.5027 169.316 58.6018C169.353 58.6514 169.366 58.7134 169.378 58.7629Z" fill="white"/>
<path d="M168.932 56.5695C168.808 56.7182 168.697 56.8793 168.598 57.0528C168.56 57.1148 168.511 57.1891 168.474 57.2635C168.424 57.2511 168.375 57.2263 168.337 57.2015C168.3 57.1767 168.263 57.1519 168.238 57.1271C168.226 57.1148 168.201 57.1024 168.189 57.09C168.189 57.09 168.176 57.09 168.176 57.0776C168.189 57.0404 168.213 57.0156 168.213 56.9908C168.238 56.9289 168.263 56.8793 168.3 56.8297C168.362 56.7306 168.424 56.6315 168.498 56.5323C168.523 56.4951 168.548 56.458 168.598 56.4456C168.635 56.4332 168.684 56.4456 168.722 56.4456C168.796 56.458 168.87 56.5075 168.932 56.5695Z" fill="white"/>
<path d="M167.978 57.2263C167.99 57.2139 167.978 57.2139 167.978 57.2263C168.028 57.2759 168.065 57.3131 168.114 57.3502C168.139 57.3626 168.151 57.3874 168.176 57.3998C168.176 57.3998 168.176 57.3998 168.176 57.4122C168.127 57.6229 168.09 57.8459 168.09 58.069C168.09 58.0814 168.077 58.0814 168.077 58.069C168.015 57.8087 167.941 57.3874 167.978 57.2263Z" fill="white"/>
<path d="M168.585 57.6848C168.56 57.8707 168.548 58.0566 168.56 58.2425C168.56 58.3416 168.573 58.4407 168.585 58.5523C168.56 58.5523 168.536 58.5523 168.511 58.5523H168.498H168.486C168.461 58.5399 168.461 58.5399 168.436 58.5275C168.412 58.5151 168.387 58.4779 168.362 58.4407C168.312 58.354 168.3 58.2548 168.3 58.1557C168.288 57.9698 168.312 57.7715 168.35 57.5857C168.374 57.5981 168.412 57.6104 168.449 57.6228C168.498 57.6476 168.536 57.6724 168.585 57.6848Z" fill="white"/>
<mask style="mask-type:luminance" maskUnits="userSpaceOnUse" x="164" y="43" width="23" height="23">
<path d="M187 54.5C187 48.1428 181.845 43 175.5 43C169.143 43 164 48.1428 164 54.5C164 60.8448 169.143 66 175.5 66C181.845 66 187 60.8448 187 54.5Z" fill="white"/>
</mask>
<g mask="url(#mask3_209_7)">
<g opacity="0.8">
<path opacity="0.8" d="M173.468 67.3507C172.625 67.3507 171.832 67.3012 171.163 67.2516L170.977 67.2392L170.791 67.2144C170.704 67.202 170.605 67.1897 170.493 67.1773C169.849 67.1029 168.647 66.979 167.321 66.3594L167.11 66.2602L166.924 66.1487C164.372 64.7112 163.43 62.5673 162.909 61.4149C162.872 61.3405 162.835 61.2538 162.798 61.167C162.538 60.6342 162.377 60.1632 162.24 59.7171L162.215 59.618L162.191 59.5189C161.819 58.2053 161.732 57.0776 161.893 55.9499C162.067 54.8222 162.476 53.806 163.207 52.7279L163.579 52.1207C163.653 51.9968 163.702 51.8604 163.74 51.7241C164.025 50.3114 164.669 49.3076 164.991 48.8243C165.078 48.2419 165.227 47.6719 165.425 47.1142L165.45 47.0275L165.487 46.9407C165.487 46.9283 165.499 46.9036 165.512 46.8664C165.66 46.4326 165.995 45.4289 166.85 44.3631L167.172 43.9914L167.507 43.694C168.35 42.9256 169.366 42.3556 170.456 42.0334C171.063 41.8475 171.695 41.736 172.34 41.6988H172.402H172.489C172.6 41.6988 172.712 41.6864 172.811 41.6864C173.207 41.6864 173.604 41.7236 174 41.7856C174.248 41.8227 174.496 41.7979 174.732 41.6988C175.413 41.4138 176.12 41.2279 176.851 41.1288C176.913 41.1164 176.962 41.1164 177.012 41.104C177.123 41.0916 177.309 41.0668 177.532 41.042C177.916 41.0048 178.511 40.9553 179.143 40.9553C180.395 40.9553 181.473 41.1164 182.44 41.451L182.526 41.4758L182.601 41.5005C184.732 42.306 185.81 43.4337 186.591 44.4127L186.628 44.4623L186.74 44.5614C187.446 45.1067 188.041 45.7883 188.512 46.5442L188.66 46.7796L188.784 47.0275C189.825 49.1465 189.491 51.1169 189.367 51.8481L189.354 51.8852C189.268 52.4305 189.119 52.9634 188.933 53.4838C188.859 53.9795 188.747 54.4752 188.586 54.9461C188.313 55.7888 187.905 56.5943 187.384 57.313C187.087 57.7344 186.74 58.1433 186.368 58.5027C186.232 58.6266 186.145 58.8001 186.12 58.986C186.108 59.0975 186.083 59.209 186.07 59.3206C185.761 60.9564 185.054 62.0964 184.757 62.555L183.877 63.819C182.811 65.1449 181.547 66.0124 180.023 66.4833L179.651 66.5948L179.255 66.6692C178.796 66.7559 178.338 66.7931 177.867 66.7931C177.805 66.7931 177.743 66.7931 177.669 66.7931H177.644H177.569H177.483C177.309 66.7931 177.136 66.8303 176.962 66.8798C175.946 67.202 174.831 67.3507 173.468 67.3507Z" stroke="url(#paint4_linear_209_7)" stroke-width="1.0554" stroke-miterlimit="10"/>
<path opacity="0.8" d="M173.467 66.4709C172.662 66.4709 171.881 66.4213 171.237 66.3718L171.088 66.3594L170.939 66.3346C170.84 66.3222 170.729 66.3098 170.617 66.2974C169.985 66.2354 168.944 66.1115 167.779 65.5663L167.606 65.4795L167.445 65.3928C165.177 64.1412 164.347 62.2699 163.851 61.1546C163.814 61.0803 163.777 60.9811 163.727 60.8944C163.492 60.4235 163.343 59.9774 163.219 59.5808L163.194 59.4941L163.17 59.4197C162.847 58.2424 162.761 57.2511 162.909 56.2721C163.058 55.3055 163.43 54.4009 164.074 53.459L164.557 52.6783C164.644 52.542 164.706 52.3809 164.731 52.2198C164.966 50.8815 165.598 49.9396 165.883 49.5059L165.921 49.4564L165.933 49.4316C165.933 49.4192 165.945 49.4068 165.945 49.3944C165.958 49.3324 165.983 49.2829 165.995 49.2333C166.069 48.688 166.206 48.1428 166.392 47.6223L166.416 47.5479L166.441 47.4736C166.453 47.4488 166.453 47.424 166.478 47.3497C166.615 46.9407 166.9 46.0857 167.643 45.1686L167.916 44.8464L168.188 44.5986C168.92 43.9294 169.799 43.4337 170.741 43.1611C171.286 43 171.832 42.9009 172.402 42.8761H172.451H172.526C172.625 42.8761 172.712 42.8637 172.798 42.8637C173.207 42.8637 173.604 42.7521 174 42.8265C174.31 42.8885 174.62 42.8513 174.905 42.7274C175.438 42.4919 176.157 42.4052 176.975 42.2936C177.036 42.2812 177.086 42.2812 177.123 42.2689C177.235 42.2565 177.408 42.2317 177.607 42.2193C177.966 42.1821 178.524 42.1449 179.131 42.1449C180.271 42.1449 181.237 42.2936 182.092 42.5787L182.167 42.6034L182.229 42.6282C184.112 43.347 185.042 44.2888 185.773 45.2182C185.81 45.2678 185.86 45.3173 185.872 45.3421L185.885 45.3545L186.021 45.4784L186.033 45.5032C186.665 45.9865 187.198 46.5814 187.607 47.2505L187.731 47.4488L187.83 47.6595C188.722 49.4811 188.45 51.1541 188.326 51.8604L188.313 51.8976C188.227 52.4181 188.09 52.9138 187.904 53.4095C187.842 53.8804 187.731 54.3513 187.582 54.7974C187.334 55.5409 186.975 56.2473 186.517 56.8917C186.207 57.3378 185.835 57.7468 185.438 58.1061C185.253 58.2796 185.129 58.5027 185.104 58.7629C185.079 58.9488 185.054 59.1223 185.029 59.3082C184.757 60.7581 184.137 61.7495 183.84 62.1956L183.121 63.2365C182.167 64.4634 181.039 65.2565 179.676 65.6778L179.366 65.7769L179.032 65.8389C178.635 65.9132 178.226 65.9504 177.83 65.938C177.768 65.938 177.706 65.938 177.644 65.938H177.631H177.594C177.594 65.938 177.582 65.938 177.557 65.938H177.483H177.408H177.272C177.086 65.9504 176.9 65.9752 176.714 66.0372C175.81 66.3346 174.756 66.4709 173.467 66.4709Z" stroke="url(#paint5_linear_209_7)" stroke-width="1.0554" stroke-miterlimit="10"/>
<path opacity="0.8" d="M173.467 65.4424C172.699 65.4424 171.943 65.3928 171.311 65.3432L171.187 65.3308L171.063 65.3184C170.952 65.306 170.828 65.2936 170.704 65.2813C170.109 65.2193 169.205 65.1202 168.188 64.6369L168.052 64.5749L167.928 64.5005C165.983 63.41 165.264 61.799 164.793 60.7333C164.756 60.6466 164.706 60.535 164.669 60.4483C164.458 60.0269 164.322 59.6304 164.21 59.2586L164.186 59.1967L164.173 59.1347C163.888 58.1185 163.814 57.2511 163.938 56.4332C164.062 55.6029 164.396 54.8222 164.966 53.9919L165.041 53.8928L165.115 53.7936C165.165 53.7317 165.202 53.6697 165.251 53.6202L165.536 53.0873C165.636 52.9138 165.698 52.7279 165.722 52.5296C165.908 51.34 166.478 50.4849 166.738 50.0884C166.751 50.0636 166.776 50.0388 166.788 50.0264L166.85 49.9397C166.875 49.8901 166.9 49.8281 166.924 49.7538C166.949 49.6794 166.986 49.5679 167.011 49.4688C167.073 48.9607 167.197 48.465 167.37 47.9817L167.395 47.9197L167.42 47.8578C167.432 47.8082 167.457 47.771 167.482 47.6843C167.606 47.3001 167.841 46.5938 168.473 45.8254L168.684 45.5652L168.907 45.3669C169.527 44.7969 170.27 44.3879 171.076 44.1401C171.547 44.0038 172.018 43.917 172.513 43.8922H172.55H172.612C172.687 43.8922 172.761 43.8922 172.848 43.8922C173.269 43.8922 173.678 43.9418 174.087 44.0533C174.434 44.1401 174.806 44.1029 175.128 43.9418C175.649 43.694 176.342 43.4213 177.148 43.3222C177.198 43.3098 177.247 43.3098 177.284 43.2974C177.383 43.285 177.545 43.2602 177.743 43.2478C178.077 43.2107 178.61 43.1735 179.168 43.1735C180.184 43.1735 181.039 43.2974 181.795 43.5577L181.845 43.5824L181.894 43.6072C183.629 44.264 184.397 45.1191 184.992 45.875C185.129 46.0361 185.141 46.0609 185.228 46.1476L185.339 46.2468L185.376 46.2963C185.661 46.5194 186.244 46.9779 186.752 47.8082L186.851 47.9693L186.938 48.1304C187.694 49.6546 187.458 51.0426 187.347 51.7117L187.334 51.7489C187.26 52.2322 187.124 52.7155 186.925 53.174V53.2112C186.876 53.6449 186.777 54.0787 186.64 54.4876C186.43 55.1444 186.12 55.7516 185.711 56.3093C185.376 56.7926 184.967 57.2263 184.509 57.5981C184.397 57.6848 184.311 57.7963 184.249 57.9203C184.187 58.0442 184.15 58.1805 184.137 58.3168C184.125 58.5894 184.088 58.8621 184.038 59.1347C183.803 60.3863 183.257 61.2538 182.985 61.6875L182.427 62.5054C181.597 63.6207 180.605 64.3394 179.403 64.7112L179.156 64.7856L178.883 64.8351C178.548 64.8971 178.201 64.9219 177.854 64.9219C177.805 64.9219 177.743 64.9219 177.681 64.9219H177.668H177.606C177.594 64.9219 177.569 64.9219 177.507 64.9219H177.445H177.396L177.111 64.9343C176.913 64.9467 176.714 64.9714 176.528 65.0458C175.673 65.3184 174.694 65.4424 173.467 65.4424Z" stroke="url(#paint6_linear_209_7)" stroke-width="0.9894" stroke-miterlimit="10"/>
<path opacity="0.8" d="M173.468 64.4138C172.736 64.4138 172.005 64.3642 171.398 64.3147L171.311 64.3023L171.225 64.2899C171.101 64.2775 170.964 64.2527 170.84 64.2403C170.283 64.1783 169.514 64.0916 168.647 63.695L168.548 63.6455L168.449 63.5959C166.801 62.6665 166.193 61.3033 165.747 60.312C165.698 60.2128 165.648 60.1013 165.611 60.0022C165.425 59.618 165.301 59.2586 165.202 58.9488L165.19 58.8992L165.152 58.8621C164.669 57.1519 164.855 55.9499 165.797 54.5744L165.846 54.5L165.896 54.4256C165.958 54.3513 166.02 54.2646 166.082 54.1902C166.169 54.0787 166.255 53.9547 166.354 53.8432C166.416 53.7689 166.466 53.6821 166.503 53.5954L166.615 53.3227C166.664 53.1988 166.689 53.0749 166.701 52.951C166.801 51.8481 167.333 51.055 167.594 50.6584C167.618 50.6336 167.643 50.5841 167.656 50.5717L167.718 50.4725L167.742 50.4477C167.78 50.3858 167.841 50.2371 167.891 50.0884C167.916 49.9892 167.965 49.8281 168.015 49.6918V49.6794C168.065 49.2209 168.176 48.7624 168.337 48.3287L168.35 48.2915L168.362 48.2543C168.387 48.18 168.412 48.118 168.436 48.0313C168.548 47.6967 168.734 47.1266 169.242 46.4946L169.403 46.2963L169.564 46.1476C170.766 45.0571 172.104 44.9704 172.551 44.9332H172.575H172.625C172.687 44.9332 172.749 44.9332 172.811 44.9332C173.344 44.9332 173.864 45.0447 174.36 45.2554C174.447 45.2926 174.546 45.305 174.632 45.305C174.732 45.305 174.818 45.2802 174.905 45.2306C175.364 44.9704 176.194 44.4871 177.26 44.3631C177.309 44.3508 177.359 44.3508 177.396 44.3508C177.495 44.3384 177.644 44.326 177.817 44.3012C178.139 44.2764 178.623 44.2392 179.143 44.2392C180.048 44.2392 180.791 44.3508 181.423 44.5614L181.461 44.5738L181.498 44.5862C182.985 45.1439 183.617 45.8502 184.15 46.5194C184.286 46.7053 184.36 46.7796 184.509 46.9283L184.596 47.0027L184.658 47.0771L184.707 47.1142C184.955 47.3125 185.426 47.6719 185.847 48.3535L185.922 48.4774L185.984 48.6013C186.591 49.8405 186.393 50.9558 186.294 51.5506V51.5878C186.219 52.0216 186.095 52.4553 185.922 52.8642L185.909 52.9014C185.909 52.9138 185.909 52.9138 185.897 52.9386C185.885 52.9758 185.885 53.0129 185.885 53.0501L185.872 53.0997C185.835 53.4714 185.748 53.8308 185.624 54.1778C185.438 54.7355 185.178 55.2559 184.831 55.7268C184.497 56.2101 184.112 56.6067 183.691 56.9165C183.505 57.0528 183.357 57.2263 183.245 57.437C183.134 57.6476 183.084 57.8707 183.084 58.1061C183.084 58.3912 183.047 58.6886 182.997 58.9736C182.799 60.0393 182.353 60.7581 182.068 61.1918L181.659 61.799C180.94 62.8028 180.085 63.4472 179.056 63.7694L179.007 63.7818C178.92 63.8066 178.833 63.8314 178.747 63.8438L178.685 63.8561C178.4 63.9057 178.115 63.9305 177.83 63.9305C177.78 63.9305 177.73 63.9305 177.681 63.9305H177.669C177.644 63.9305 177.619 63.9305 177.594 63.9305C177.569 63.9305 177.52 63.9305 177.421 63.9305H177.384H177.346C177.21 63.9305 177.037 63.9429 176.888 63.9429C176.677 63.9553 176.479 63.9925 176.281 64.0668C175.537 64.2899 174.632 64.4138 173.468 64.4138Z" stroke="url(#paint7_linear_209_7)" stroke-width="0.9235" stroke-miterlimit="10"/>
<path opacity="0.8" d="M173.468 63.3852C172.761 63.3852 172.067 63.3357 171.472 63.2861H171.41L171.348 63.2737C171.212 63.2489 171.063 63.2365 170.927 63.2241C170.407 63.1622 169.762 63.1002 169.068 62.7656L168.994 62.7284L168.932 62.6913C167.581 61.9353 167.073 60.7953 166.677 59.8782C166.627 59.7667 166.577 59.6552 166.528 59.5312C166.367 59.209 166.255 58.8869 166.169 58.6142L166.156 58.577L166.144 58.5399C165.747 57.1272 165.883 56.2349 166.652 55.1196L166.689 55.07L166.726 55.0205C166.788 54.9337 166.85 54.8594 166.912 54.7726C167.11 54.5124 167.309 54.2522 167.594 53.9423C167.656 53.8804 167.693 53.7812 167.705 53.6945L167.718 53.4095L167.705 53.2979V53.1864C167.73 52.2694 168.188 51.5878 168.436 51.2161C168.461 51.1789 168.498 51.1293 168.511 51.1045L168.548 51.0426L168.585 50.993C168.635 50.9186 168.746 50.6584 168.845 50.423C168.882 50.3238 168.932 50.1255 168.994 49.9644C169.006 49.9149 169.006 49.9025 169.019 49.7909C169.056 49.4068 169.155 49.0226 169.279 48.6633L169.291 48.6385L169.304 48.6137C169.341 48.5145 169.366 48.4402 169.403 48.3411C169.502 48.0436 169.651 47.6099 170.035 47.1266L170.146 46.9903L170.258 46.8912C171.101 46.1352 172.005 45.9865 172.625 45.9494H172.65H172.674C172.724 45.9494 172.761 45.9494 172.811 45.9494C173.331 45.9494 173.963 46.1972 174.298 46.3583C174.372 46.3955 174.459 46.4203 174.546 46.4203C174.632 46.4203 174.719 46.4079 174.806 46.3831C175.017 46.3087 175.215 46.222 175.401 46.1228C175.822 45.875 176.516 45.4784 177.383 45.3793C177.433 45.3669 177.47 45.3669 177.507 45.3669C177.594 45.3545 177.73 45.3421 177.904 45.3173C178.201 45.2926 178.647 45.2554 179.131 45.2554C179.911 45.2554 180.556 45.3421 181.076 45.528L181.101 45.5404L181.126 45.5528C182.365 46.0237 182.861 46.5566 183.332 47.1638C183.48 47.3621 183.592 47.4984 183.815 47.6967L183.865 47.7462L183.914 47.7958C183.964 47.8454 184.013 47.8825 184.063 47.9197C184.274 48.0808 184.633 48.3658 184.943 48.8863L184.992 48.9607L185.029 49.0474C185.488 49.9768 185.339 50.8567 185.253 51.3772V51.4143C185.191 51.7737 185.091 52.1207 184.943 52.4553C184.906 52.542 184.881 52.6288 184.856 52.7279C184.844 52.7899 184.831 52.8518 184.831 52.9014L184.819 52.951C184.782 53.2484 184.72 53.5458 184.621 53.8308C184.472 54.2893 184.249 54.7231 183.976 55.1072C183.555 55.702 183.072 56.1234 182.489 56.396C182.353 56.458 182.229 56.5571 182.142 56.6934C182.055 56.8173 182.006 56.9784 181.993 57.1272C181.993 57.1891 181.993 57.2387 181.993 57.2759C182.018 57.722 182.055 58.2301 181.956 58.7629C181.795 59.6304 181.423 60.2128 181.151 60.6465C181.151 60.6465 179.887 62.4062 178.734 62.7656L178.61 62.8028L178.474 62.8276C178.251 62.8648 178.028 62.8895 177.792 62.8895C177.755 62.8895 177.706 62.8895 177.656 62.8895C177.631 62.8895 177.594 62.8895 177.557 62.8895C177.507 62.8895 177.433 62.8895 177.322 62.9019H177.297H177.272C176.826 62.9143 176.417 62.9267 176.293 62.9515C176.231 62.9639 176.169 62.9763 176.107 63.0011C175.5 63.2613 174.645 63.3852 173.468 63.3852Z" stroke="url(#paint8_linear_209_7)" stroke-width="0.8575" stroke-miterlimit="10"/>
<path opacity="0.8" d="M173.467 62.3691C172.798 62.3691 172.129 62.3195 171.559 62.2823H171.534H171.509C171.348 62.2575 171.2 62.2451 171.063 62.2327C170.58 62.1832 170.072 62.1212 169.527 61.8734L169.49 61.861L169.452 61.8486C168.399 61.2538 168.002 60.3739 167.631 59.5188C167.581 59.3949 167.519 59.271 167.457 59.1471C167.333 58.8992 167.234 58.6266 167.16 58.3664V58.354V58.3416C166.838 57.2139 166.924 56.6438 167.519 55.7764L167.532 55.7516L167.544 55.7268C167.618 55.6401 167.68 55.5533 167.742 55.479C168.027 55.1072 168.275 54.785 168.833 54.2645C168.87 54.2274 168.907 54.1778 168.92 54.1158C168.932 54.0663 168.932 54.0043 168.907 53.9547L168.808 53.6697C168.783 53.583 168.771 53.4838 168.771 53.3971V53.3227V53.2608C168.796 52.6412 169.118 52.1579 169.328 51.8357C169.366 51.7861 169.39 51.7365 169.415 51.6993L169.44 51.6622L169.465 51.625C169.576 51.4763 169.762 51.0426 169.861 50.7823C169.886 50.6956 169.948 50.4849 170.01 50.3238C170.047 50.1999 170.072 50.076 170.084 49.952C170.122 49.6422 170.184 49.3324 170.295 49.0474V49.035V49.0226C170.345 48.8987 170.382 48.7996 170.407 48.7004C170.493 48.4402 170.592 48.1428 170.865 47.8082L170.915 47.7462L170.964 47.6966C171.559 47.1514 172.216 47.0523 172.712 47.0151H172.724H172.736C172.761 47.0151 172.798 47.0151 172.823 47.0151C173.319 47.0151 173.691 47.2134 173.938 47.3497L174 47.3745H174.013C174.087 47.4116 174.137 47.4488 174.199 47.4736C174.347 47.5479 174.533 47.5727 174.694 47.5232C175.041 47.4364 175.574 47.2257 175.921 47.0275H175.934C176.305 46.8044 176.875 46.4822 177.545 46.4079C177.582 46.3955 177.631 46.3955 177.668 46.3955C177.743 46.3831 177.879 46.3707 178.028 46.3583C178.3 46.3335 178.722 46.2963 179.156 46.2963C179.825 46.2963 180.358 46.3707 180.767 46.507H180.779H180.791C181.783 46.8788 182.154 47.2753 182.551 47.7958C182.712 48.0065 182.873 48.2047 183.171 48.465L183.195 48.4898L183.22 48.5145C183.295 48.5889 183.381 48.6632 183.48 48.7376C183.654 48.8739 183.902 49.0598 184.112 49.4192L184.137 49.4563L184.162 49.4935C184.472 50.1379 184.373 50.7451 184.298 51.2037V51.2408C184.249 51.5259 184.174 51.7985 184.05 52.0711C183.988 52.2198 183.939 52.3809 183.914 52.542C183.902 52.6412 183.889 52.7155 183.877 52.7775L183.865 52.827C183.84 53.0625 183.79 53.2855 183.716 53.5086C183.604 53.868 183.431 54.2026 183.208 54.5124C182.836 55.0576 182.415 55.3922 181.857 55.5657C181.584 55.6525 181.361 55.826 181.213 56.0614L181.163 56.1234L181.113 56.1853C180.977 56.3464 181.014 56.966 181.039 57.3378C181.064 57.7468 181.089 58.1681 181.014 58.5646C180.89 59.2462 180.593 59.7047 180.333 60.1013C180.333 60.1013 179.366 61.5016 178.486 61.7618L178.424 61.7866L178.362 61.799C178.201 61.8238 178.028 61.8486 177.854 61.8486C177.817 61.8486 177.78 61.8486 177.73 61.8486C177.693 61.8486 177.656 61.8486 177.606 61.8486C177.545 61.8486 177.458 61.8486 177.309 61.861H177.297H177.284C176.702 61.8858 176.342 61.8982 176.144 61.9353C176.008 61.9601 175.884 61.9973 175.76 62.0469C175.227 62.2575 174.508 62.3691 173.467 62.3691Z" stroke="url(#paint9_linear_209_7)" stroke-width="0.8575" stroke-miterlimit="10"/>
</g>
</g>
</g>
<path d="M8.6954 76.358L4.3562 91.9124H6.92783L8.15964 87.3377H11.6948L12.9806 91.9124H15.6054L11.213 76.358H8.6954ZM11.0527 84.8538H8.80255L9.71291 81.3898C9.76606 81.1283 9.82006 80.9327 9.87321 80.6713C9.92721 80.9327 9.98036 81.1294 10.0875 81.3908L11.0519 84.8538H11.0527ZM19.8906 84.8538C18.7119 84.2649 18.6048 84.0035 18.6048 83.6112C18.6048 83.0883 18.9794 82.762 19.5151 82.762C20.0509 82.762 20.5335 82.9586 21.0152 83.2849L21.497 83.6771L22.1399 81.1932L21.8724 80.9317C21.1673 80.398 20.3431 80.1468 19.5151 80.2132C17.5332 80.2132 16.1403 81.7161 16.1403 83.8079C16.1403 85.703 17.5332 86.7489 18.7119 87.2718C19.8906 87.7948 19.9977 88.187 19.9977 88.644C19.9977 89.4943 19.2477 89.6251 18.8191 89.6251C18.1761 89.5592 17.5332 89.3636 16.9975 88.9714L16.5157 88.644L15.8728 91.1929L16.1943 91.3895C16.9975 91.9124 17.9087 92.2387 18.8191 92.1739C20.9621 92.1739 22.4622 90.6699 22.4622 88.4485C22.4082 86.2918 20.9621 85.3767 19.8906 84.8538ZM26.2648 77.7951L23.8003 78.7102V80.4746H22.5145V83.0235H23.8543V88.1211C23.8003 89.2329 24.0146 90.3436 24.5504 91.2587C25.0861 91.9124 25.783 92.3046 26.5322 92.2387C27.068 92.2387 27.5506 92.1729 28.0324 91.9773L28.3538 91.8465L28.2467 89.2977L27.7109 89.4933C27.4434 89.5592 27.2291 89.624 26.9608 89.624C26.6934 89.624 26.2648 89.624 26.2648 88.187V83.0235H28.461V80.4746H26.2648V77.7951ZM34.4066 80.3439L33.978 80.2791C33.8177 80.2791 33.7105 80.2132 33.5494 80.2132C32.8002 80.2132 32.0492 80.6054 31.5143 81.2591V80.4098H29.211V81.0635C29.2642 81.9127 29.2642 82.9586 29.2642 84.266V91.9773H31.7286V85.8996C31.7286 85.6382 31.7286 85.3767 31.7818 85.1152C31.9429 83.9386 32.5859 83.1542 33.3891 83.1542H33.8177L34.3534 83.2849L34.4066 80.3439ZM38.9061 80.2132C36.1741 80.2132 34.2463 82.6971 34.2463 86.2918C34.2463 89.7558 36.121 92.1739 38.7989 92.1739C41.0491 92.1739 43.5136 90.2788 43.5136 86.0952C43.4596 82.6313 41.5849 80.2132 38.9061 80.2132ZM40.9419 86.1611C40.9419 88.187 40.0316 89.6251 38.8529 89.6251C37.6743 89.6251 36.7639 88.187 36.7639 86.226C36.7639 84.9186 37.2457 82.762 38.9069 82.762C40.5133 82.762 40.9419 84.9845 40.9419 86.1611ZM51.5482 77.5985C50.7441 76.6833 49.5123 76.2263 47.9051 76.2263C46.8876 76.2263 45.87 76.2911 44.9057 76.4877L44.5311 76.6185V91.9114H46.9947V86.227C47.263 86.227 47.5305 86.2918 47.7448 86.2918C49.1909 86.3577 50.637 85.7689 51.7085 84.5274C52.4046 83.6123 52.78 82.3049 52.78 81.0635C52.78 79.7561 52.3514 78.5147 51.5482 77.5995V77.5985ZM50.3155 81.1283C50.3155 83.2849 48.7623 83.6112 47.7979 83.6112C47.5305 83.6112 47.263 83.6112 46.9947 83.5464V78.9058C47.3162 78.8399 47.6376 78.8399 47.9591 78.8399C49.0306 78.9058 50.3155 79.298 50.3155 81.1283ZM60.2789 88.9055V85.0504C60.2789 81.9786 58.9399 80.2791 56.5835 80.2791C55.512 80.2791 54.4404 80.6054 53.5301 81.2591L53.2086 81.5205L53.8515 83.9386L54.3873 83.4816C54.9762 83.0235 55.6731 82.762 56.3692 82.8279C56.7438 82.762 57.1724 82.9586 57.4938 83.2849C57.7081 83.5464 57.8153 83.9386 57.8684 84.3308C55.9397 84.3967 54.5476 84.9845 53.6904 86.0304C53.1015 86.7489 52.78 87.7299 52.78 88.7748C52.78 90.7358 54.0658 92.3046 55.6191 92.3046H55.8334C56.6366 92.3046 57.4938 91.9773 58.1367 91.3895L58.1899 92.0432H60.5472L60.4932 91.3895C60.3479 90.5735 60.2761 89.7405 60.2789 88.9055ZM56.1549 89.6899C55.6722 89.7558 55.2436 89.2977 55.1905 88.7099V88.4485C55.1905 88.0563 55.2976 87.7299 55.512 87.4685C55.7794 87.1411 56.4223 86.7489 57.8693 86.6841V87.9255C57.8693 88.0563 57.8693 88.187 57.8153 88.3836C57.547 89.168 56.9041 89.6899 56.1549 89.6899ZM67.0817 80.4746L65.3142 86.9455C65.2472 87.108 65.2106 87.2866 65.207 87.4685C65.1539 87.3377 65.0999 87.1411 65.0467 87.0104L63.118 80.5405H60.4401L63.814 90.8665C63.868 90.9324 63.868 90.9973 63.868 91.128C63.868 91.1939 63.814 91.2587 63.814 91.3246C63.5466 92.0432 63.1711 92.6968 62.6362 93.2198C62.2608 93.612 61.8862 93.8735 61.4576 94.0042L61.029 94.1998L61.6719 96.7486L62.1005 96.6837C62.9037 96.4871 63.6006 96.0301 64.2435 95.3764C65.4213 94.069 66.2245 92.0432 67.296 88.644L69.7065 80.4098L67.0817 80.4746Z" fill="white"/>
<path d="M13.4083 80.6712C15.0155 78.7102 17.6943 77.5336 20.6406 77.5336C21.7652 77.5336 22.8899 77.7302 23.9614 78.0565H24.0685L25.9433 77.338L25.0861 76.9458C23.3185 76.2262 21.4969 75.8351 19.6762 75.8351C17.139 75.7698 14.6364 76.5614 12.4448 78.1224L12.2305 78.2531L13.0337 81.0634L13.4091 80.6712H13.4083Z" fill="#FF0000"/>
<g clip-path="url(#clip8_209_7)">
<path d="M87.5525 88.4544L81.6362 78.1176C81.2423 77.4293 80.3763 77.1971 79.7025 77.5986C79.0273 78.0001 78.7995 78.8828 79.1933 79.5697L85.1097 89.9065C85.3732 90.3653 85.8466 90.6213 86.3324 90.6213C86.574 90.6213 86.8196 90.5584 87.0433 90.4241C87.7185 90.0226 87.9464 89.1398 87.5525 88.453V88.4544Z" fill="#F69220"/>
<path d="M101.219 85.0018C101.195 84.2687 100.974 83.5287 100.557 82.783C99.9067 81.6247 99.1725 80.8329 98.1789 80.3545C97.3335 79.9474 96.3879 79.7194 95.4135 79.8243C95.7553 79.1486 95.9323 78.4071 96.0009 77.6559C96.0997 76.5563 95.7429 75.5897 95.0869 74.4342C94.6656 73.6913 94.1482 73.1247 93.5375 72.7358C92.9282 72.3469 92.2598 72.1119 91.5338 72.0336C90.8078 71.9552 90.053 72.0154 89.268 72.214C89.0169 72.277 88.7493 72.3567 88.4789 72.4477C88.3774 72.4812 88.2744 72.519 88.1578 72.561C87.6871 72.7358 86.4492 73.4367 86.0279 73.6857L84.0242 74.963L83.9789 74.9895C83.2227 75.4302 82.9606 76.4109 83.3929 77.1817C83.6838 77.7007 84.215 77.9903 84.7625 77.9903C85.0274 77.9903 85.2964 77.9217 85.5434 77.7776L85.5777 77.7566L88.892 75.8275C89.1994 75.6456 89.5206 75.5337 89.8527 75.4918C90.1862 75.4484 90.5073 75.4736 90.8188 75.5659C91.1304 75.6568 91.4227 75.8107 91.6958 76.0234C91.9675 76.2374 92.1939 76.5004 92.3724 76.8138C92.5508 77.1271 92.6688 77.4601 92.7278 77.8112C92.7854 78.1623 92.7868 78.4981 92.7305 78.8184C92.6743 79.1388 92.5604 79.4326 92.3875 79.6998C92.2145 79.9656 91.9826 80.1852 91.6917 80.3587L89.6935 81.5744L88.8426 82.0766L88.2923 82.3997C87.5773 82.8208 87.3316 83.7525 87.7447 84.4814C88.0219 84.971 88.5242 85.2438 89.0416 85.2438C89.2955 85.2438 89.5521 85.178 89.7882 85.0395L90.8957 84.3876L93.731 82.8082C94.0247 82.6375 94.328 82.5438 94.6395 82.5256C94.9538 82.5074 95.2598 82.555 95.559 82.6655C95.8582 82.776 96.1423 82.9467 96.4113 83.1747C96.6789 83.4028 96.9012 83.6742 97.0782 83.9889C97.2553 84.3037 97.3651 84.6352 97.409 84.9822C97.4529 85.3291 97.4364 85.6649 97.3568 85.9852C97.2786 86.307 97.1372 86.6021 96.9341 86.8749C96.731 87.1477 96.4758 87.373 96.167 87.5534L91.2511 90.4073L91.0096 90.5486L90.123 91.0732L88.4034 92.0175C87.6473 92.4329 87.3646 93.394 87.7722 94.1662C88.0535 94.6978 88.5887 95 89.1432 95C89.3916 95 89.6454 94.9384 89.8801 94.8097L94.1249 92.4791L97.527 90.5807C98.2914 90.1359 98.9543 89.6169 99.5169 89.0251C100.08 88.4334 100.511 87.7982 100.808 87.1184C101.106 86.4399 101.243 85.7334 101.22 84.999L101.219 85.0018Z" fill="#606060"/>
<path d="M148.923 82.3647C149.454 82.1129 150.218 81.3561 150.218 80.1838C150.218 78.3736 149.032 77.2166 147.003 77.2166H144.056C143.758 77.2166 143.386 77.2166 143.104 77.5062C142.82 77.7958 142.82 78.1735 142.82 78.4771V86.5168C142.82 86.8204 142.82 87.1995 143.104 87.4877C143.388 87.7773 143.758 87.7773 144.056 87.7773H147.177C149.032 87.7773 150.364 86.7099 150.364 84.736C150.364 83.3272 149.557 82.6599 148.923 82.3634V82.3647ZM144.855 79.0577H146.841C147.7 79.0577 148.179 79.5473 148.179 80.2733C148.179 80.9994 147.698 81.489 146.841 81.489H144.855V79.0563V79.0577ZM146.972 85.9404H144.855V83.344H146.972C147.889 83.344 148.326 83.9232 148.326 84.6338C148.326 85.3445 147.889 85.939 146.972 85.939V85.9404Z" fill="#606060"/>
<path d="M154.968 79.9614C153.004 79.9614 151.671 81.3925 151.671 83.9148C151.671 87.0372 153.381 87.8682 155.178 87.8682C156.015 87.8682 156.727 87.6905 157.245 87.3338C157.681 87.0372 157.987 86.7029 157.987 86.3405C157.987 85.8957 157.586 85.532 157.223 85.532C156.998 85.532 156.815 85.6061 156.517 85.8215C156.147 86.1027 155.68 86.237 155.208 86.237C154.109 86.237 153.535 85.518 153.535 84.5163H157.18C157.464 84.5163 157.769 84.5163 158.009 84.2715C158.234 84.0421 158.271 83.7077 158.264 83.4112C158.198 81.461 157.013 79.9628 154.968 79.9628V79.9614ZM153.535 83.1943C153.542 82.86 153.579 82.6375 153.703 82.3564C153.899 81.8961 154.335 81.5632 154.968 81.5632C155.6 81.5632 156.037 81.8975 156.241 82.3564C156.365 82.6375 156.394 82.86 156.409 83.1943H153.535Z" fill="#606060"/>
<path d="M162.586 81.7562C162.943 81.7562 163.073 81.7338 163.227 81.6527C163.452 81.5338 163.575 81.3044 163.575 81.0148C163.575 80.7252 163.452 80.4958 163.227 80.3769C163.074 80.2957 162.943 80.2733 162.586 80.2733H162.018V79.2423C162.018 78.7751 161.996 78.589 161.894 78.382C161.756 78.1008 161.458 77.9217 161.072 77.9217C160.687 77.9217 160.389 78.0994 160.25 78.382C160.149 78.589 160.127 78.7751 160.127 79.2423V80.2733H159.937C159.58 80.2733 159.45 80.2957 159.296 80.3769C159.071 80.4958 158.948 80.7252 158.948 81.0148C158.948 81.3044 159.071 81.5338 159.296 81.6527C159.449 81.7338 159.58 81.7562 159.937 81.7562H160.127V85.5683C160.127 86.6959 160.746 87.7787 162.317 87.7787H162.418C162.782 87.7787 163.029 87.7339 163.197 87.6458C163.422 87.5269 163.575 87.2974 163.575 86.9561C163.575 86.6147 163.43 86.3853 163.197 86.2664C163.036 86.1853 162.869 86.1629 162.628 86.1475C162.148 86.1181 162.018 85.8285 162.018 85.4648V81.7562H162.586Z" fill="#606060"/>
<path d="M167.677 81.7562C168.034 81.7562 168.165 81.7338 168.318 81.6527C168.543 81.5338 168.667 81.3044 168.667 81.0148C168.667 80.7252 168.543 80.4958 168.318 80.3769C168.166 80.2957 168.034 80.2733 167.677 80.2733H167.109V79.2423C167.109 78.7751 167.087 78.589 166.986 78.382C166.847 78.1008 166.549 77.9217 166.164 77.9217C165.778 77.9217 165.48 78.0994 165.342 78.382C165.24 78.589 165.218 78.7751 165.218 79.2423V80.2733H165.029C164.672 80.2733 164.542 80.2957 164.388 80.3769C164.163 80.4958 164.039 80.7252 164.039 81.0148C164.039 81.3044 164.163 81.5338 164.388 81.6527C164.54 81.7338 164.672 81.7562 165.029 81.7562H165.218V85.5683C165.218 86.6959 165.837 87.7787 167.408 87.7787H167.51C167.874 87.7787 168.121 87.7339 168.288 87.6458C168.513 87.5269 168.667 87.2974 168.667 86.9561C168.667 86.6147 168.521 86.3853 168.288 86.2664C168.128 86.1853 167.96 86.1629 167.72 86.1475C167.24 86.1181 167.109 85.8285 167.109 85.4648V81.7562H167.677Z" fill="#606060"/>
<path d="M172.785 79.9614C170.822 79.9614 169.489 81.3925 169.489 83.9148C169.489 87.0372 171.199 87.8682 172.995 87.8682C173.833 87.8682 174.545 87.6905 175.062 87.3338C175.499 87.0372 175.805 86.7029 175.805 86.3405C175.805 85.8957 175.404 85.532 175.04 85.532C174.815 85.532 174.633 85.6061 174.335 85.8215C173.964 86.1027 173.498 86.237 173.026 86.237C171.926 86.237 171.353 85.518 171.353 84.5163H174.998C175.282 84.5163 175.586 84.5163 175.827 84.2715C176.052 84.0421 176.089 83.7077 176.082 83.4112C176.016 81.461 174.83 79.9628 172.785 79.9628V79.9614ZM171.353 83.1943C171.36 82.86 171.397 82.6375 171.52 82.3564C171.716 81.8961 172.153 81.5632 172.785 81.5632C173.418 81.5632 173.855 81.8975 174.059 82.3564C174.183 82.6375 174.211 82.86 174.226 83.1943H171.353Z" fill="#606060"/>
<path d="M182.52 80.3181C182.178 80.0887 181.799 79.9628 181.21 79.9628C180.461 79.9628 179.769 80.3559 179.406 80.8007C179.362 80.5195 179.275 80.3559 179.122 80.2146C178.976 80.0733 178.773 79.9921 178.518 79.9921C178.161 79.9921 177.841 80.1698 177.703 80.437C177.586 80.6594 177.564 80.8077 177.564 81.3044V86.5182C177.564 86.9855 177.586 87.1715 177.687 87.3786C177.826 87.6597 178.124 87.8388 178.51 87.8388C178.895 87.8388 179.193 87.6611 179.332 87.3786C179.433 87.1715 179.455 86.9855 179.455 86.5182V83.1216C179.455 82.1423 180.081 81.6975 180.714 81.6975C180.969 81.6975 181.208 81.7786 181.434 81.8975C181.689 82.0304 181.892 82.0976 182.082 82.0976C182.315 82.0976 182.547 82.001 182.714 81.8304C182.882 81.6597 182.999 81.4079 182.999 81.1253C182.999 80.7909 182.802 80.5098 182.518 80.3167L182.52 80.3181Z" fill="#606060"/>
<path d="M116.934 77.0768C116.667 77.0768 116.474 77.1313 116.29 77.2586C116.032 77.4279 115.84 77.7468 115.749 77.9231L113.25 82.776L110.75 77.9231C110.659 77.7482 110.467 77.4279 110.21 77.26C110.025 77.1313 109.832 77.0768 109.565 77.0768C109.274 77.0768 109.027 77.1789 108.83 77.3803C108.558 77.6573 108.503 77.9889 108.503 78.4323V86.3769C108.503 86.8498 108.516 87.0386 108.65 87.3142C108.823 87.6402 109.185 87.843 109.596 87.843C110.006 87.843 110.368 87.6402 110.541 87.3114C110.676 87.0386 110.687 86.8484 110.687 86.3769V81.9716L112.21 85.0297C112.451 85.5152 112.699 85.7964 113.25 85.7964C113.802 85.7964 114.049 85.5152 114.29 85.0297L115.814 81.9716V86.3769C115.814 86.8498 115.826 87.0386 115.961 87.3142C116.134 87.6402 116.496 87.843 116.906 87.843C117.317 87.843 117.679 87.6402 117.853 87.3114C117.988 87.0386 117.999 86.8484 117.999 86.3769V78.4323C117.999 77.9889 117.944 77.6573 117.672 77.3803C117.474 77.1789 117.226 77.0768 116.936 77.0768H116.934Z" fill="#F69220"/>
<path d="M125.168 79.8886C124.766 79.8886 124.434 80.0761 124.28 80.3909C124.169 80.6175 124.148 80.8217 124.148 81.282V84.6688C124.148 85.8761 123.248 85.9712 122.972 85.9712C122.696 85.9712 121.811 85.8775 121.811 84.6688V81.282C121.811 80.8217 121.792 80.6189 121.679 80.3909C121.526 80.0761 121.194 79.8886 120.791 79.8886C120.389 79.8886 120.057 80.0761 119.903 80.3909C119.792 80.6175 119.772 80.8217 119.772 81.282V84.9346C119.772 85.9391 120.008 86.6077 120.561 87.1715C121.011 87.6304 121.645 87.8724 122.394 87.8724C123.094 87.8724 123.772 87.6024 124.237 87.1421C124.29 87.3198 124.365 87.4681 124.505 87.5982C124.67 87.7577 124.896 87.8416 125.16 87.8416C125.541 87.8416 125.887 87.6514 126.039 87.3562C126.168 87.11 126.186 86.9435 126.186 86.4553V81.2792C126.186 80.8189 126.167 80.6161 126.054 80.3881C125.901 80.0733 125.569 79.8858 125.167 79.8858L125.168 79.8886Z" fill="#F69220"/>
<path d="M130.961 81.7618C131.272 81.7618 131.496 81.8444 131.816 82.078C132.094 82.285 132.277 82.3592 132.513 82.3592C132.749 82.3592 132.993 82.2514 133.148 82.0836C133.343 81.8765 133.438 81.6527 133.438 81.4009C133.438 80.8553 132.921 80.472 132.486 80.2468C132.03 79.9768 131.578 79.8607 130.973 79.8607C130.332 79.8607 129.413 80.0019 128.668 80.6748C127.906 81.3617 127.52 82.4333 127.52 83.8602C127.52 85.2872 127.905 86.3615 128.663 87.0526C129.409 87.7311 130.323 87.8738 130.959 87.8738C131.548 87.8738 132.005 87.7605 132.487 87.4961C133.128 87.1366 133.439 86.7574 133.439 86.3336C133.439 86.0762 133.342 85.8467 133.15 85.6509C132.989 85.4788 132.739 85.3669 132.513 85.3669C132.258 85.3669 132.056 85.4802 131.814 85.6635C131.517 85.8873 131.285 85.9712 130.959 85.9712C130.538 85.9712 130.22 85.8215 129.96 85.5012C129.683 85.1473 129.56 84.6408 129.56 83.8588C129.56 83.0768 129.683 82.5858 129.96 82.2319C130.206 81.9269 130.544 81.7688 130.959 81.7618H130.961Z" fill="#F69220"/>
<path d="M140.234 80.5615C139.784 80.1027 139.15 79.8607 138.4 79.8607C137.696 79.8607 137.149 80.0719 136.647 80.5433V78.4715C136.647 78.0112 136.627 77.8084 136.515 77.5804C136.361 77.2656 136.029 77.0782 135.627 77.0782C135.225 77.0782 134.893 77.2656 134.739 77.5804C134.628 77.807 134.607 78.0112 134.607 78.4715V86.4525C134.607 86.9127 134.626 87.1156 134.739 87.3436C134.893 87.6584 135.225 87.8458 135.627 87.8458C136.029 87.8458 136.361 87.6584 136.515 87.3436C136.626 87.1156 136.647 86.9127 136.647 86.4525V83.0656C136.647 81.8583 137.547 81.7632 137.823 81.7632C138.099 81.7632 138.984 81.8569 138.984 83.0656V86.4525C138.984 86.9127 139.003 87.1156 139.115 87.3436C139.269 87.6584 139.601 87.8458 140.003 87.8458C140.405 87.8458 140.738 87.6584 140.891 87.3436C141.002 87.117 141.023 86.9127 141.023 86.4525V82.8012C141.023 81.7968 140.787 81.1281 140.234 80.5629V80.5615Z" fill="#F69220"/>
</g>
<defs>
<filter x="162.812" y="8.5" width="26.375" height="26.375" filterUnits="userSpaceOnUse" color-interpolation-filters="sRGB">
<feFlood flood-opacity="0" result="BackgroundImageFix"/>
<feColorMatrix in="SourceAlpha" type="matrix" values="0 0 0 0 0 0 0 0 0 0 0 0 0 0 0 0 0 0 127 0" result="hardAlpha"/>
<feOffset dy="0.5"/>
<feGaussianBlur stdDeviation="0.5"/>
<feComposite in2="hardAlpha" operator="out"/>
<feColorMatrix type="matrix" values="0 0 0 0 0 0 0 0 0 0 0 0 0 0 0 0 0 0 0.199474 0"/>
<feBlend mode="normal" in2="BackgroundImageFix" result="effect1_dropShadow_209_7"/>
<feBlend mode="normal" in="SourceGraphic" in2="effect1_dropShadow_209_7" result="shape"/>
</filter>
<filter x="169.312" y="14.1875" width="14.1875" height="15" filterUnits="userSpaceOnUse" color-interpolation-filters="sRGB">
<feFlood flood-opacity="0" result="BackgroundImageFix"/>
<feColorMatrix in="SourceAlpha" type="matrix" values="0 0 0 0 0 0 0 0 0 0 0 0 0 0 0 0 0 0 127 0" result="hardAlpha"/>
<feOffset dy="0.5"/>
<feGaussianBlur stdDeviation="0.5"/>
<feColorMatrix type="matrix" values="0 0 0 0 0 0 0 0 0 0 0 0 0 0 0 0 0 0 0.204257 0"/>
<feBlend mode="normal" in2="BackgroundImageFix" result="effect1_dropShadow_209_7"/>
<feBlend mode="normal" in="SourceGraphic" in2="effect1_dropShadow_209_7" result="shape"/>
</filter>
<filter x="-0.28125" y="42.5" width="23.5625" height="23.5625" filterUnits="userSpaceOnUse" color-interpolation-filters="sRGB">
<feFlood flood-opacity="0" result="BackgroundImageFix"/>
<feColorMatrix in="SourceAlpha" type="matrix" values="0 0 0 0 0 0 0 0 0 0 0 0 0 0 0 0 0 0 127 0" result="hardAlpha"/>
<feOffset dy="0.5"/>
<feGaussianBlur stdDeviation="0.5"/>
<feComposite in2="hardAlpha" operator="out"/>
<feColorMatrix type="matrix" values="0 0 0 0 0 0 0 0 0 0 0 0 0 0 0 0 0 0 0.199474 0"/>
<feBlend mode="normal" in2="BackgroundImageFix" result="effect1_dropShadow_209_7"/>
<feBlend mode="normal" in="SourceGraphic" in2="effect1_dropShadow_209_7" result="shape"/>
</filter>
<filter x="56.6875" y="42.5" width="22.625" height="22.625" filterUnits="userSpaceOnUse" color-interpolation-filters="sRGB">
<feFlood flood-opacity="0" result="BackgroundImageFix"/>
<feColorMatrix in="SourceAlpha" type="matrix" values="0 0 0 0 0 0 0 0 0 0 0 0 0 0 0 0 0 0 127 0" result="hardAlpha"/>
<feOffset dy="0.5"/>
<feGaussianBlur stdDeviation="0.5"/>
<feComposite in2="hardAlpha" operator="out"/>
<feColorMatrix type="matrix" values="0 0 0 0 0 0 0 0 0 0 0 0 0 0 0 0 0 0 0.199474 0"/>
<feBlend mode="normal" in2="BackgroundImageFix" result="effect1_dropShadow_209_7"/>
<feBlend mode="normal" in="SourceGraphic" in2="effect1_dropShadow_209_7" result="shape"/>
</filter>
<filter x="60.125" y="45.9375" width="15.75" height="15.75" filterUnits="userSpaceOnUse" color-interpolation-filters="sRGB">
<feFlood flood-opacity="0" result="BackgroundImageFix"/>
<feColorMatrix in="SourceAlpha" type="matrix" values="0 0 0 0 0 0 0 0 0 0 0 0 0 0 0 0 0 0 127 0" result="hardAlpha"/>
<feOffset dy="0.5"/>
<feGaussianBlur stdDeviation="0.5"/>
<feColorMatrix type="matrix" values="0 0 0 0 0 0 0 0 0 0 0 0 0 0 0 0 0 0 0.204257 0"/>
<feBlend mode="normal" in2="BackgroundImageFix" result="effect1_dropShadow_209_7"/>
<feBlend mode="normal" in="SourceGraphic" in2="effect1_dropShadow_209_7" result="shape"/>
</filter>
<linearGradient x1="1382.56" y1="9" x2="1382.56" y2="2446.5" gradientUnits="userSpaceOnUse">
<stop stop-color="white" stop-opacity="0.5"/>
<stop offset="1" stop-opacity="0.5"/>
</linearGradient>
<linearGradient x1="1078.84" y1="43" x2="1078.84" y2="2199.25" gradientUnits="userSpaceOnUse">
<stop stop-color="white" stop-opacity="0.5"/>
<stop offset="1" stop-opacity="0.5"/>
</linearGradient>
<linearGradient x1="1088.94" y1="43" x2="1088.94" y2="2105.5" gradientUnits="userSpaceOnUse">
<stop stop-color="white" stop-opacity="0.5"/>
<stop offset="1" stop-opacity="0.5"/>
</linearGradient>
<radialGradient cx="0" cy="0" r="1" gradientUnits="userSpaceOnUse" gradientTransform="translate(175.5 55.7015) rotate(90) scale(12.9183)">
<stop offset="0.1667" stop-color="#073183"/>
<stop offset="1" stop-color="#0054F9"/>
</radialGradient>
<linearGradient x1="162.389" y1="40.4144" x2="188.739" y2="68.0695" gradientUnits="userSpaceOnUse">
<stop offset="0.2057" stop-color="#89D0FF"/>
<stop offset="0.3984" stop-color="#EBBF9A"/>
<stop offset="0.6015" stop-color="#EB8280"/>
<stop offset="0.8411" stop-color="#A281FF"/>
</linearGradient>
<linearGradient x1="163.411" y1="41.6043" x2="187.702" y2="67.2036" gradientUnits="userSpaceOnUse">
<stop offset="0.2057" stop-color="#89D0FF"/>
<stop offset="0.3984" stop-color="#EBBF9A"/>
<stop offset="0.6015" stop-color="#EB80DA"/>
<stop offset="0.8411" stop-color="#A281FF"/>
</linearGradient>
<linearGradient x1="164.443" y1="42.6331" x2="186.676" y2="66.1761" gradientUnits="userSpaceOnUse">
<stop offset="0.2057" stop-color="#89D0FF"/>
<stop offset="0.3984" stop-color="#EBBF9A"/>
<stop offset="0.6015" stop-color="#EB8280"/>
<stop offset="0.8411" stop-color="#A281FF"/>
</linearGradient>
<linearGradient x1="165.474" y1="43.6656" x2="185.643" y2="65.1458" gradientUnits="userSpaceOnUse">
<stop offset="0.2057" stop-color="#89D0FF"/>
<stop offset="0.3984" stop-color="#EBBF9A"/>
<stop offset="0.6015" stop-color="#EB80E7"/>
<stop offset="0.8411" stop-color="#A281FF"/>
</linearGradient>
<linearGradient x1="166.498" y1="44.6999" x2="184.608" y2="64.1159" gradientUnits="userSpaceOnUse">
<stop offset="0.2057" stop-color="#89D0FF"/>
<stop offset="0.3984" stop-color="#EBBF9A"/>
<stop offset="0.6015" stop-color="#EB80D3"/>
<stop offset="0.8411" stop-color="#A281FF"/>
</linearGradient>
<linearGradient x1="167.536" y1="45.7219" x2="183.585" y2="63.0814" gradientUnits="userSpaceOnUse">
<stop offset="0.2057" stop-color="#89D0FF"/>
<stop offset="0.3984" stop-color="#EBBF9A"/>
<stop offset="0.6015" stop-color="#A280EB"/>
<stop offset="0.8411" stop-color="#A281FF"/>
</linearGradient>
<clipPath >
<rect width="16" height="25" fill="white" transform="translate(58 10)"/>
</clipPath>
<clipPath>
<rect width="19" height="25" fill="white" transform="translate(109 10)"/>
</clipPath>
<clipPath>
<rect width="26" height="28" fill="white" transform="translate(163 10)"/>
</clipPath>
<clipPath>
<rect width="23" height="24" fill="white" transform="translate(0 43)"/>
</clipPath>
<clipPath>
<rect width="22" height="22" fill="white" transform="translate(57 43)"/>
</clipPath>
<clipPath>
<rect width="20" height="20" fill="white" transform="translate(84 43)"/>
</clipPath>
<clipPath>
<rect width="21" height="21" fill="white" transform="translate(109 43)"/>
</clipPath>
<clipPath>
<rect width="23" height="23" fill="white" transform="translate(164 43)"/>
</clipPath>
<clipPath>
<rect width="104" height="23" fill="white" transform="translate(79 72)"/>
</clipPath>
</defs>
</svg>
