<svg xmlns="http://www.w3.org/2000/svg" width="158" height="158" fill="none"><rect width="158" height="158" fill="#fff" rx="79"/><path fill="#000" d="M29.3 37.62V24.1c0-.94.4-1.68 1.23-2.2a2.5 2.5 0 0 1 2.6-.1l13.51 6.77c.95.54 1.43 1.3 1.43 2.3 0 .98-.48 1.75-1.43 2.29l-13.5 6.76c-.92.46-1.79.42-2.61-.1a2.44 2.44 0 0 1-1.24-2.19Zm82.84 0V24.1c0-.94.42-1.68 1.24-2.2a2.5 2.5 0 0 1 2.62-.1l13.5 6.77c.94.54 1.41 1.3 1.41 2.3 0 .98-.47 1.75-1.42 2.29L116 39.9c-.91.46-1.78.42-2.6-.1a2.47 2.47 0 0 1-1.25-2.19Zm-38.66-5.47V18.6c0-.93.41-1.66 1.24-2.18a2.5 2.5 0 0 1 2.61-.1l13.5 6.77c.94.54 1.42 1.3 1.42 2.29 0 .98-.48 1.75-1.43 2.28l-13.49 6.78c-.92.45-1.79.42-2.6-.1a2.47 2.47 0 0 1-1.25-2.2Zm-9.82 101.83c-13.64-.86-24.5-2.76-32.56-5.71-8.07-2.95-12.1-6.3-12.1-10.05V64.95c0-2.28 1.48-4.4 4.45-6.34 2.96-1.94 7.1-3.64 12.38-5.09 5.29-1.45 11.57-2.6 18.84-3.46 7.28-.86 15.22-1.3 23.83-1.3 8.61 0 16.55.44 23.83 1.3 7.27.86 13.55 2.01 18.84 3.46 5.29 1.45 9.42 3.14 12.39 5.1 2.96 1.94 4.44 4.05 4.44 6.33v53.26c0 3.78-4.06 7.14-12.18 10.07-8.12 2.94-19 4.84-32.64 5.7a4.32 4.32 0 0 1-3.46-1.18 4.46 4.46 0 0 1-1.43-3.37v-20.92H68.71v20.75c0 1.35-.5 2.5-1.5 3.45a4.45 4.45 0 0 1-3.55 1.27ZM78.5 74.66c10.8 0 20.92-.85 30.35-2.54 9.42-1.7 16.47-3.94 21.12-6.72-1.42-2.28-6.62-4.55-15.6-6.79s-20.94-3.36-35.87-3.36c-14.93 0-26.89 1.12-35.86 3.36-8.99 2.24-14.19 4.5-15.6 6.8 4.65 2.77 11.2 5 19.67 6.7 8.46 1.7 19.06 2.55 31.79 2.55Zm-16.32 52.66v-18.8c0-1.74.65-3.25 1.95-4.55a6.3 6.3 0 0 1 4.58-1.94h19.58c1.75 0 3.28.65 4.58 1.94a6.18 6.18 0 0 1 1.95 4.53v18.82c10.3-.77 18.57-2.12 24.83-4.05 6.26-1.92 10.2-3.82 11.82-5.7v-45.7a93.12 93.12 0 0 1-23.9 7.1 179.59 179.59 0 0 1-29.07 2.16c-10.6 0-20.3-.72-29.07-2.17a93.13 93.13 0 0 1-23.9-7.09v45.71c1.62 1.88 5.31 3.78 11.07 5.7 5.76 1.92 14.28 3.27 25.58 4.04Z"/></svg>