<svg xmlns="http://www.w3.org/2000/svg" width="158" height="158" fill="none"><rect width="158" height="158" fill="#000" rx="79"/><path fill="#fff" d="M36.82 45.5V33.93c0-.8.36-1.43 1.06-1.88.7-.44 1.45-.47 2.24-.08l11.58 5.8c.8.46 1.22 1.1 1.22 1.95 0 .85-.41 1.5-1.22 1.97l-11.58 5.79c-.79.39-1.53.36-2.24-.09a2.09 2.09 0 0 1-1.06-1.87Zm71.02 0V33.93c0-.8.35-1.43 1.06-1.88.7-.44 1.45-.47 2.24-.08l11.57 5.8c.8.46 1.21 1.1 1.21 1.95 0 .85-.4 1.5-1.21 1.97l-11.57 5.79c-.79.39-1.53.36-2.24-.09a2.11 2.11 0 0 1-1.06-1.87ZM74.7 40.83V29.23c0-.8.35-1.43 1.06-1.87.7-.45 1.46-.48 2.24-.09l11.56 5.8c.82.46 1.22 1.11 1.22 1.96 0 .84-.4 1.5-1.22 1.95L78 42.78c-.79.4-1.53.36-2.24-.09a2.12 2.12 0 0 1-1.06-1.87Zm-8.42 87.16c-11.7-.73-21-2.36-27.91-4.89-6.91-2.52-10.37-5.39-10.37-8.6V68.9c0-1.95 1.27-3.76 3.81-5.43 2.54-1.66 6.08-3.11 10.61-4.35a111.4 111.4 0 0 1 16.16-2.97c6.23-.73 13.04-1.1 20.42-1.1 7.38 0 14.19.37 20.42 1.1 6.23.74 11.62 1.73 16.16 2.97 4.53 1.24 8.07 2.69 10.61 4.35 2.54 1.67 3.81 3.48 3.81 5.43v45.59c0 3.23-3.48 6.1-10.44 8.62-6.96 2.51-16.29 4.14-27.98 4.88a3.7 3.7 0 0 1-2.96-1.02 3.81 3.81 0 0 1-1.23-2.88v-17.9H70.61v17.76c0 1.15-.43 2.13-1.29 2.95a3.81 3.81 0 0 1-3.04 1.08ZM79 77.22c9.26 0 17.93-.73 26.01-2.18 8.08-1.45 14.12-3.37 18.1-5.75-1.21-1.95-5.67-3.89-13.36-5.8-7.7-1.93-17.95-2.89-30.75-2.89s-23.04.96-30.74 2.88c-7.7 1.92-12.16 3.86-13.37 5.82 3.99 2.37 9.6 4.29 16.86 5.74 7.26 1.45 16.34 2.18 27.25 2.18Zm-13.99 45.08v-16.1c0-1.5.56-2.78 1.67-3.89a5.4 5.4 0 0 1 3.93-1.66h16.78c1.5 0 2.81.55 3.92 1.66a5.28 5.28 0 0 1 1.68 3.88v16.1c8.82-.66 15.91-1.81 21.28-3.46 5.37-1.64 8.74-3.27 10.14-4.88V74.82a79.9 79.9 0 0 1-20.49 6.07A154.16 154.16 0 0 1 79 82.75c-9.09 0-17.4-.62-24.92-1.86a79.92 79.92 0 0 1-20.48-6.07v39.13c1.39 1.6 4.55 3.23 9.48 4.87 4.94 1.65 12.25 2.8 21.93 3.47Z"/></svg>