<svg xmlns="http://www.w3.org/2000/svg" width="150" height="120" fill="none"><path fill="#1A5685" d="M0 0h150v120H0z"/><path fill="#15A0FF" d="M84.43 54.88c1.07-4.3-1.55-7.87-7.95-7.87H62.59l-5.2 21.07 3.02 5.19h9.88c6.47 0 11.48-3.02 12.77-8.27.65-2.7-.1-4.58-1.8-5.52v-.06a7.32 7.32 0 0 0 3.17-4.54Zm-8.47 9.95c-.26 1.1-1 2.23-4.08 2.23h-6.3l1.1-4.52h6.27c3.04 0 3.26 1.15 2.97 2.29h.04Zm1.26-9.8c-.23.84-.87 1.88-3.53 1.88h-5.64l.94-3.67h5.64c2.68-.02 2.82.84 2.59 1.78ZM93.17 63.1h12.64l1.44-6.21H94.69l.98-3.67h12.43l1.44-6.21H89.13l-6.47 26.25h23.12l1.52-6.21H92.22l.94-3.95ZM111.31 47l-1.45 6.22h7.56l-4.96 20.04h7.93l4.97-20.04h8.09L135 47h-23.69Z"/><path fill="#fff" d="M23.3 73.26h-8l3.46-14.02.8-2.12-2.11 2.12-2.36 2.38-.09-7 8.3-7.61h6.46L23.3 73.26Z"/><path fill="#fff" d="m52.17 62.38-2.55-4.32 12.37-11.05H50.47l-4.7 4.51L29.8 66.15l-7.66 7.1h10.9l8.2-7.3 2.75 4.7c.94 1.19 2.27 2.62 7.9 2.62h6.58l-6.3-10.9-.01.01ZM44.88 50.08v-.06a7.23 7.23 0 0 0-6.25-3.01h-8.51l6.35 10.8 8.4-7.73Z"/></svg>