<svg xmlns="http://www.w3.org/2000/svg" width="150" height="150" fill="none"><path fill="#F63F00" d="M0 0h150v150H0z"/><path fill="#fff" d="M64.3 49.49c3.46 0 5.05 2.94 4.4 8.33-.34 2.71-1.37 5.02-2.82 6.28 1.38 1.18 2.07 3.44 1.66 6.92-.75 5.9-3.23 8.62-6.9 8.62H53l3.77-30.15h7.54Zm-3.86 24.6c1.3 0 2.12-1.01 2.44-3.44.32-2.43-.27-3.44-1.58-3.44h-2.07l-.86 6.87h2.07Zm1.5-12.53c1.09 0 1.83-1.21 2.07-3.26.28-2.14-.17-3.27-1.25-3.27h-2l-.81 6.53h2Zm20.38-12.07a18.03 18.03 0 0 1-.75 5.88h-6.7l-.77 6.11h5.47a17.7 17.7 0 0 1-.71 5.78H73.4l-.8 6.45h6.94c.05.97 0 1.94-.13 2.89a15.54 15.54 0 0 1-.61 3.01H67.17l3.77-30.12h11.38Zm14.51 0a22.4 22.4 0 0 1-.83 6.6h-4.17l-2.9 23.18a7.65 7.65 0 0 1-4.69 0l2.91-23.2h-4.32c-.05-1.08 0-2.16.15-3.22.14-1.15.36-2.27.66-3.33l13.2-.03Zm5.78 0c.98-.05 1.97.08 2.94.38l1.72 29.4a6.6 6.6 0 0 1-2.46.38 5.13 5.13 0 0 1-2.2-.38l-.29-5.52h-5.7l-1.68 5.52c-.76.28-1.54.4-2.31.38-.73.03-1.46-.1-2.17-.38l9.07-29.4a10.4 10.4 0 0 1 3.08-.38Zm-1.04 6.95a42.46 42.46 0 0 1-1.23 5.1l-2.07 6.7h3.75l-.35-6.7c-.09-1.7-.09-3.4 0-5.1h-.1Zm13.08 9.05c-.26-2.6-.38-5.24-.37-7.88h-.14c-.16 2.8-.41 5.59-.76 8.34l-1.65 13.33c-.69.29-1.4.41-2.1.38a3.58 3.58 0 0 1-1.9-.38l3.68-29.4c1.04-.29 2.1-.42 3.15-.4.99-.05 1.98.08 2.95.39l1.43 13.6a105 105 0 0 1 .34 8.64h.1s.33-4.49.91-9.13l1.64-13.11c.68-.26 1.39-.39 2.1-.38.64-.04 1.29.09 1.91.38l-3.69 29.4c-1.02.3-2.05.43-3.08.38-1 .03-2.01-.1-3-.38l-1.52-13.78Zm20.2-16.56c4.75 0 7.14 5.4 5.76 16.33-1.38 10.93-4.78 14.91-9.56 14.91s-7.1-5.25-5.74-16.18c1.36-10.8 4.78-15.06 9.53-15.06Zm-.7 6c-1.74 0-2.98 1.83-3.96 9.62-.98 7.8-.17 9.6 1.57 9.6 1.75 0 3.01-1.84 3.97-9.6.97-7.75.22-9.6-1.57-9.6v-.03Z"/><path fill="#fff" d="M123.93 49.23c-.6-.22-1.2-.32-1.82-.3-.67 0-1.34.1-2 .3l-1.1 7.28 3.85-.27 1.07-7.01Zm10.97-.3c-3.93 0-6.96 2.2-8.67 7.58l5.14-.33c.78-2.04 1.7-2.64 2.84-2.64s1.83.53 1.97 2.32l4.82-.32c-.4-4.4-2.62-6.6-6.1-6.6ZM79.37 58.3h-5.03l.7-4.77h6.17a11.23 11.23 0 0 0 .7-4.59H71.4l-1.64 11.11 9.61-.74-.01-1.01Zm-9.75-1.2c.69-5.29-.99-8.16-4.63-8.16h-7.95L55 64.08l11.77-.94c1.47-1.26 2.5-3.47 2.85-6.05Zm-4.94.45c-.26 2.01-1.04 3.2-2.18 3.2h-2.1l.85-6.37h2.1c1.15 0 1.62 1.09 1.33 3.18Zm28.03-2.88h4.41a16.46 16.46 0 0 0 .87-5.73h-13.9a15.66 15.66 0 0 0-.84 5.7h4.54l-.83 5.41 4.99-.35.76-5.03Zm21.23 2.7h.1l.02 2.3 3.63-.37-.86-9.95a5.83 5.83 0 0 0-2.53-.4c-.91-.03-1.82.1-2.72.4l-1.1 10.7 3.33-.34c.1-1.46.13-2.34.13-2.34Zm-12.84-1.95h.1a43.8 43.8 0 0 0-.03 4.18l4.38-.37-.6-9.93a8.46 8.46 0 0 0-2.84-.35c-1-.02-1.99.1-2.97.35L95.7 60.04l4.38-.37c.41-1.37.75-2.8 1.02-4.26Z" opacity=".1"/><path fill="url(#a)" d="M47.25 70.34c-.16-.65-.36-1.27-.6-1.86-.28-.73-.6-1.44-.9-2.14-.13-.3-.28-.62-.4-.98a2.5 2.5 0 0 1 .12-1.8A25.23 25.23 0 0 0 47.1 49.1c-.81-4.23-3.37-8.44-6.59-11.55a33.43 33.43 0 0 0-6.65-4.98 22.15 22.15 0 0 0-5.12-2.26 6.57 6.57 0 0 0-3.53-.11c-1.66.25-3.41.8-5.04 1.3-1.91.58-4.1 1.01-5.63 3.12-1.4 1.93-2.21 4.76-2.7 7.55-.9 5.27-1.44 10.67-1.64 16.12-.21 5.4-.25 10.81-.1 16.22.06 3.14.27 6.28.63 9.38.47 3.98 1.28 8.12 2.81 11.4.41.89.9 1.67 1.46 2.32 1.43 1.66 3.25 1.95 4.95 2.2 3.32.5 6.76 2.17 10.04.42.87-.34 1.73-.72 2.58-1.18a37.37 37.37 0 0 0 4.77-3.1 29.4 29.4 0 0 0 4.69-4.43 27.37 27.37 0 0 0 3.79-5.8 23.95 23.95 0 0 0 2.01-7.04c.04-.3.1-.6.12-.9a22.8 22.8 0 0 0-.69-7.43Zm-17.85 8.5a16.5 16.5 0 0 1-1.6 1.64c-1.43 1.3-2.95 2.62-4.54 3.33-.54.24-1.1.38-1.66.4-.11 0-1.2-.03-1.21-.15-2.07-18.32 0-37.1 0-37.1.15-.44 1.58-.04 1.74 0a13.6 13.6 0 0 1 3.63 1.98c1.1.7 2.15 1.57 3.14 2.59 1.22 1.3 2.68 3.44 2.84 5.92a12.7 12.7 0 0 1-.93 5.52c-.23.63-.66 1.42-.59 2.2.09.94.58 1.71.92 2.44.3.66.56 1.37.76 2.13.91 3.67-.75 7.03-2.5 9.1Z"/><path fill="#373531" d="M47.25 70.33c-.17-.64-.37-1.26-.6-1.86-.28-.73-.6-1.43-.9-2.15-.15-.31-.29-.64-.41-.99a2.54 2.54 0 0 1 .12-1.79 25.2 25.2 0 0 0 1.61-14.47c-.8-4.21-3.35-8.42-6.58-11.54a33.33 33.33 0 0 0-6.65-4.97 22.18 22.18 0 0 0-5.11-2.26 6.59 6.59 0 0 0-3.54-.11c-1.67.25-3.4.81-5.04 1.32-1.9.58-4.1 1.04-5.62 3.12-1.58 2.15-2.2 4.74-2.7 7.53-.9 5.27-1.44 10.66-1.64 16.1-.21 5.4-.25 10.82-.1 16.23.06 3.16.27 6.3.62 9.4.47 3.98 1.27 8.08 2.8 11.38.43.89.93 1.67 1.5 2.32 1.43 1.65 3.24 1.94 4.95 2.2 3.32.5 6.76 2.18 10.04.44.87-.34 1.74-.72 2.58-1.18a37.99 37.99 0 0 0 4.78-3.1 29.68 29.68 0 0 0 8.45-10.24 24 24 0 0 0 2-7.04c.05-.3.1-.6.13-.91.18-2.53-.06-5.1-.69-7.43Zm-3.47 15.82S41.26 91.32 33.2 96.3c0 0-4.45 3.02-7.04 2.07-2.12-.53-3.93-2.74-4.81-5.87 0 0-2.05-4.4-2.48-23.66 0 0 0-20.46 2.21-28.85 0 0 1.45-7.68 6.41-7.45 0 0 6.07.45 13.67 8.33 0 0 6.58 5.55 4.66 17.07A38.7 38.7 0 0 1 43.78 64c-.23.54-.2 1.26.08 1.74 0 0 3.01 5.32 2.89 10.2 0 0 .33 5.45-2.97 10.22Z"/><path fill="url(#b)" d="M47.24 70.33c-.17-.64-.37-1.26-.6-1.86-.29-.73-.6-1.43-.91-2.14-.15-.32-.28-.65-.4-1-.18-.58-.12-1.27.15-1.75 1.9-4.19 2.49-9.55 1.58-14.51-.8-4.21-3.36-8.42-6.58-11.54a33.3 33.3 0 0 0-6.65-4.97c-1.66-.99-3.37-1.74-5.11-2.25a6.53 6.53 0 0 0-3.54-.12c-1.65.25-3.4.82-5.03 1.32-1.91.58-4.12 1.01-5.63 3.12-1.78 2.5-2.2 4.74-2.7 7.53-.89 5.26-1.44 10.66-1.63 16.11a250.3 250.3 0 0 0-.1 16.22c.06 3.15.27 6.28.62 9.38.47 3.98 1.29 8.12 2.82 11.4.41.89.9 1.67 1.47 2.32 1.43 1.66 3.25 1.94 4.95 2.2 3.32.5 6.76 2.18 10.04.44.86-.34 1.73-.72 2.57-1.18a37.47 37.47 0 0 0 4.78-3.1 29.14 29.14 0 0 0 4.7-4.41c1.42-1.65 2.7-3.6 3.79-5.8.98-2.1 1.66-4.51 2-7.07.04-.3.1-.6.12-.9.17-2.54-.08-5.1-.71-7.44ZM44.1 87.05S41.34 92.32 33 97.48c0 0-4.57 2.98-7.26 1.98-2.21-.42-4.12-2.67-5.04-5.91 0 0-2.13-4.58-2.57-24.57 0 0 0-21.25 2.29-29.94 0 0 1.46-7.8 6.62-7.58 0 0 6.33.3 14.22 8.48 0 0 7.04 5.97 5.05 17.92 0 0-.4 2.53-1.9 5.94 0 0-.4.92-.13 1.46 0 0 3.15 5.9 3.02 10.98.01.02.23 5.86-3.2 10.8Z"/><path fill="#FBB03B" d="M46.38 69.1c-.25-.6-.49-1.22-.75-1.81-.37-.86-.76-1.47-.9-2.5a4.3 4.3 0 0 1 .22-1.46c2.04-4.53 2.72-7.08 2.43-11-.8-11.14-11.75-16.05-14.17-17.26-6.96-3.47-9.17.56-10.37 6.55a49.7 49.7 0 0 0-.84 5.06c.16-.47 1.6.08 1.77.13 1.3.48 2.56 1.14 3.76 2 1.14.71 2.23 1.59 3.25 2.61 1.26 1.31 2.77 3.47 2.96 5.97.14 2.13-.28 3.77-.96 5.57-.24.65-.7 1.44-.62 2.22.1.95.6 1.74.96 2.47.3.66.56 1.39.75 2.15.95 3.58-.75 7.09-2.56 9.17-.52.6-1.07 1.15-1.64 1.65-1.48 1.3-3.06 2.64-4.7 3.35-.57.25-1.14.39-1.72.41-.12 0-1.2-.03-1.24-.15.28 2.32.53 3.9.69 4.75 1.14 6.14 3.08 8.62 6.56 8.19C32.51 96.75 48 89.2 48 75.92a17.54 17.54 0 0 0-1.62-6.82Z"/><path fill="url(#c)" d="M23.05 98.46c-3.01-3.25-3.98-9.25-4.5-14.33a181.2 181.2 0 0 1-.77-10.14 157.17 157.17 0 0 1 .23-20.02c.16-2.24.33-4.5.6-6.72.76-6.53 2.08-14.17 6.8-16.82.34-.2.7-.35 1.07-.43-1.84.26-3.54.72-5.35 1.23-2.08.58-4.43 1.06-6.09 3.17-1.8 2.33-2.55 4.72-3.09 7.5a111.7 111.7 0 0 0-1.8 16.2c-.2 5.44-.2 10.89 0 16.32.07 3.13.3 6.25.7 9.33.51 4 1.3 8.21 2.99 11.5.45.89 1 1.67 1.6 2.33 1.6 1.66 3.6 1.95 5.48 2.2 3.66.5 7.46 2.2 11.08.44-3.03 1.08-6.34 1.05-8.95-1.76Z"/><path fill="url(#d)" d="M22 46.25s-.02-4.5 2.92-11.35c0 0 2.04-2.78 7.6.45 1.3.68 7.15 3.4 10.54 9.16 0 0 1.4 2.27 1.94 4.93l-12.57 7.07-.03-.24a9.87 9.87 0 0 0-2.22-4.66 14.5 14.5 0 0 0-1.34-1.4l-.13-.1a19.4 19.4 0 0 0-2.07-1.59s-2.95-2.1-4.64-2.27Z" opacity=".7"/><path fill="url(#e)" d="M32 60.3s8.02-1.6 13.39-1.56c0 0 1.37-2.6 1.57-5.16.11-1.57-.03-3.15-.41-4.65l-13.6 6.23c.08.58.1 1.17.03 1.76v.19a10.07 10.07 0 0 1-.98 3.18Z" opacity=".85"/><path fill="url(#f)" d="M45.17 64.59s1.6-2.46 1.83-3.35l-14 1.79c-.29.7-.62 1.36-1 2l13.17-.44Z"/><path fill="#CC5827" d="M32.3 65.55 44 64.08a22.22 22.22 0 0 0-.27 4.73L32 68.65c.04-1.12.14-2.19.3-3.1Z" opacity=".85"/><path fill="url(#g)" d="m32.01 64.08 12.13.07c.24.88.55 1.72.91 2.48.37.94 1.72 4.1 1.95 5.97 0 0-5.67-1.84-13.23-3.12 0 0-.74-2.61-1.16-3.34.02 0-.72-1.35-.6-2.06Z"/><path fill="url(#h)" d="M32.65 69.76s7.38 1 14.1 2.75c0 0 1.13 3.87-1.43 8.61L32 74.51s1.2-2.17.65-4.75Z" opacity=".85"/><path fill="url(#i)" d="M20.34 82.15 25 93.43a4.58 4.58 0 0 1-1.89-1.55A8.58 8.58 0 0 1 21.96 90a16.4 16.4 0 0 1-.84-2.32 30.6 30.6 0 0 1-.74-3.32c-.22-1.24-.38-2.3-.38-2.3.1.07.22.1.34.1Z"/><path fill="url(#j)" d="M22.89 44.97s.07-2.5 1.54-6.16c.77-1.73 1.63-3.4 2.57-5.02 0 0-1.94 1.02-3.14 4.27A39.2 39.2 0 0 0 22 45.15s.23-.26.89-.18Z"/><path fill="url(#k)" d="M32.58 74.5 45 82.35s-1.1 2.95-3.76 6.06a26.34 26.34 0 0 1-2.57 2.69c-1.07 1-2.16 1.89-3.29 2.68a25.36 25.36 0 0 1-5.83 3.13c-.45.14-2.08.75-3.73-.34L22 83.6c.58.1 1.16.08 1.73-.05.57-.19 1.52-.44 3.73-2.35.67-.62 2.2-2.1 2.37-2.3a14.03 14.03 0 0 0 2.75-4.42Z" opacity=".85"/><defs><linearGradient id="a" x1="10.91" x2="15222.5" y1="4928.12" y2="4928.12" gradientUnits="userSpaceOnUse"><stop offset=".06" stop-color="#F07422"/><stop offset=".83" stop-color="#AF3424"/></linearGradient><linearGradient id="b" x1="11.22" x2="15218.4" y1="4928.31" y2="4928.31" gradientUnits="userSpaceOnUse"><stop offset=".43" stop-color="#BDBEC0"/><stop offset=".65" stop-color="#fff"/><stop offset="1" stop-color="#A8AAAD"/></linearGradient><linearGradient id="c" x1="4406.48" x2="4406.48" y1="520.39" y2="10027.5" gradientUnits="userSpaceOnUse"><stop stop-color="#595A5C" stop-opacity=".4"/><stop offset=".01" stop-color="#646667" stop-opacity=".46"/><stop offset=".03" stop-color="#858786" stop-opacity=".62"/><stop offset=".05" stop-color="#A1A3A1" stop-opacity=".76"/><stop offset=".07" stop-color="#B6B9B5" stop-opacity=".86"/><stop offset=".09" stop-color="#C5C9C3" stop-opacity=".94"/><stop offset=".11" stop-color="#CED2CC" stop-opacity=".98"/><stop offset=".13" stop-color="#D1D5CF"/><stop offset=".48" stop-color="#D2D3D4"/><stop offset=".69" stop-color="#424143" stop-opacity=".1"/><stop offset=".71" stop-color="#59595A" stop-opacity=".26"/><stop offset=".74" stop-color="#797B7A" stop-opacity=".48"/><stop offset=".78" stop-color="#949794" stop-opacity=".67"/><stop offset=".81" stop-color="#A8ADA8" stop-opacity=".81"/><stop offset=".84" stop-color="#B7BCB7" stop-opacity=".92"/><stop offset=".87" stop-color="#C0C6C0" stop-opacity=".98"/><stop offset=".89" stop-color="#C3C9C3"/><stop offset="1" stop-color="#373531"/></linearGradient><linearGradient id="d" x1="4886.22" x2="3065.68" y1="1462.73" y2="3046.97" gradientUnits="userSpaceOnUse"><stop stop-color="#E05926"/><stop offset="1" stop-color="#FBB03B"/></linearGradient><linearGradient id="e" x1="-277.84" x2="5681.31" y1="1376.93" y2="229.06" gradientUnits="userSpaceOnUse"><stop stop-color="#DB8B27"/><stop offset="1" stop-color="#BC4026"/></linearGradient><linearGradient id="f" x1="3076.64" x2="3073.58" y1="-72.9" y2="379.02" gradientUnits="userSpaceOnUse"><stop stop-color="#E45B25"/><stop offset="1" stop-color="#FBB03B"/></linearGradient><linearGradient id="g" x1="5753.48" x2="-391.28" y1="657.98" y2="563.64" gradientUnits="userSpaceOnUse"><stop stop-color="#E45B25"/><stop offset="1" stop-color="#FBB03B"/></linearGradient><linearGradient id="h" x1="-463.54" x2="4958.36" y1="406.04" y2="1391.77" gradientUnits="userSpaceOnUse"><stop stop-color="#DB8B27"/><stop offset="1" stop-color="#BC4026"/></linearGradient><linearGradient id="i" x1="67.4" x2="2976.75" y1="323.9" y2="745.01" gradientUnits="userSpaceOnUse"><stop offset=".06" stop-color="#EFA133"/><stop offset=".83" stop-color="#F26222"/></linearGradient><linearGradient id="j" x1="140.58" x2="1837.71" y1="1789.02" y2="1400.19" gradientUnits="userSpaceOnUse"><stop offset=".06" stop-color="#EFA133"/><stop offset=".83" stop-color="#F26222"/></linearGradient><linearGradient id="k" x1="5946.89" x2="4179.34" y1="2624.04" y2="1059.14" gradientUnits="userSpaceOnUse"><stop stop-color="#E45B25"/><stop offset="1" stop-color="#FBB03B"/></linearGradient></defs></svg>