<svg xmlns="http://www.w3.org/2000/svg" width="150" height="120" fill="none"><path fill="#191918" d="M0 0h150v120H0z"/><path fill="#FED041" d="M25.43 70.92c-.53 0-.92.23-1.17.69v-2.24h-1.38v6.34h.74c.12-.39.22-.63.3-.72.2.33.4.55.6.66.2.1.46.16.78.16.6 0 1.07-.22 1.4-.67.31-.45.47-1.04.47-1.77 0-.76-.15-1.36-.47-1.8a1.5 1.5 0 0 0-1.27-.65Zm.1 3.62c-.15.2-.34.3-.56.3a.62.62 0 0 1-.5-.24c-.14-.17-.2-.42-.2-.75v-.9c0-.35.06-.62.2-.81.13-.2.3-.29.53-.29.2 0 .37.09.53.26.15.17.23.58.23 1.25 0 .59-.08.98-.23 1.18Zm7.23-.94c0-.93-.22-1.61-.65-2.04a2.14 2.14 0 0 0-1.56-.64c-.67 0-1.22.23-1.64.69a2.55 2.55 0 0 0-.64 1.8c0 .5.1.94.32 1.3.2.36.48.63.8.82.33.19.73.28 1.2.28 1.07 0 1.78-.54 2.13-1.63l-1.25-.09c-.1.5-.37.74-.83.74a.9.9 0 0 1-.64-.26c-.18-.17-.27-.42-.27-.75v-.22h3.03Zm-2.16-1.77c.49 0 .75.32.8.96h-1.67c.06-.64.35-.96.87-.96Zm5.18 2.75c-.07-.09-.11-.25-.11-.5V72.1h1v-1.08h-1v-1.48l-1.2.1-.1 1.38h-.83v1.08h.74v2.18c0 .58.12.98.37 1.2.24.22.65.33 1.22.33.18 0 .47-.03.87-.1V74.7l-.44.01c-.27 0-.45-.04-.52-.12Zm4.06-3.66c-.48 0-.88.1-1.2.32-.32.22-.56.5-.74.84-.19.35-.28.78-.28 1.28 0 .71.2 1.3.6 1.76.4.46.94.69 1.61.69.7 0 1.24-.23 1.66-.7a2.5 2.5 0 0 0 .63-1.73c0-.7-.2-1.29-.6-1.76-.4-.47-.97-.7-1.68-.7Zm.6 3.67c-.15.2-.34.3-.57.3a.63.63 0 0 1-.6-.35 2.74 2.74 0 0 1-.19-1.2c0-.6.07-1 .2-1.2.14-.21.33-.31.6-.31.26 0 .45.1.58.33.13.22.2.64.2 1.25 0 .58-.08.97-.22 1.18ZM46 70.92c-.52 0-.91.23-1.16.69v-2.24h-1.38v6.34h.74c.11-.39.22-.63.3-.72.2.33.4.55.6.66.2.1.46.16.77.16.61 0 1.08-.22 1.4-.67.32-.45.48-1.04.48-1.77 0-.76-.15-1.36-.47-1.8a1.5 1.5 0 0 0-1.28-.65Zm.11 3.62c-.15.2-.34.3-.57.3a.62.62 0 0 1-.5-.24c-.13-.17-.2-.42-.2-.75v-.9c0-.35.07-.62.2-.81.13-.2.31-.29.54-.29.2 0 .37.09.52.26.16.17.23.58.23 1.25 0 .59-.07.98-.22 1.18Zm7.22-.94c0-.93-.21-1.61-.64-2.04a2.14 2.14 0 0 0-1.56-.64c-.67 0-1.22.23-1.64.69a2.55 2.55 0 0 0-.64 1.8c0 .5.1.94.32 1.3.2.36.48.63.8.82.33.19.73.28 1.2.28 1.07 0 1.78-.54 2.13-1.63l-1.25-.09c-.1.5-.37.74-.84.74a.9.9 0 0 1-.64-.26c-.17-.17-.26-.42-.26-.75v-.22h3.02Zm-2.15-1.77c.49 0 .75.32.8.96h-1.67c.06-.64.35-.96.87-.96Zm5.18 2.75c-.08-.09-.11-.25-.11-.5V72.1h1v-1.08h-1v-1.48l-1.2.1-.11 1.38h-.82v1.08h.74v2.18c0 .58.12.98.36 1.2.25.22.65.33 1.23.33.18 0 .47-.03.87-.1V74.7l-.44.01c-.27 0-.45-.04-.52-.12Zm2.68.04c-.33 0-.56.25-.56.6-.01.34.23.6.55.6.35 0 .57-.26.57-.6 0-.35-.22-.6-.56-.6Zm7.55-3.7c-.53 0-.92.23-1.16.69v-2.24h-1.39v6.34h.74c.12-.39.22-.63.31-.72.2.33.4.55.6.66.2.1.45.16.77.16.6 0 1.07-.22 1.4-.67.32-.45.48-1.04.48-1.77 0-.76-.16-1.36-.47-1.8a1.5 1.5 0 0 0-1.28-.65Zm.1 3.62c-.14.2-.33.3-.56.3a.62.62 0 0 1-.5-.24c-.13-.17-.2-.42-.2-.75v-.9c0-.35.06-.62.2-.81.13-.2.31-.29.54-.29.2 0 .37.09.52.26.15.17.23.58.23 1.25 0 .59-.07.98-.22 1.18Zm7.23-.94c0-.93-.22-1.61-.65-2.04a2.14 2.14 0 0 0-1.55-.64c-.67 0-1.22.23-1.65.69a2.55 2.55 0 0 0-.64 1.8c0 .5.1.94.32 1.3.21.36.48.63.81.82.33.19.72.28 1.2.28 1.07 0 1.78-.54 2.13-1.63l-1.26-.09c-.1.5-.37.74-.83.74a.9.9 0 0 1-.64-.26c-.18-.17-.27-.42-.27-.75a6 6 0 0 1 0-.22h3.03Zm-2.15-1.77c.48 0 .75.32.8.96H70.9c.06-.64.36-.96.88-.96Zm5.17 2.75c-.07-.09-.1-.25-.1-.5V72.1h1v-1.08h-1v-1.48l-1.2.1-.11 1.38h-.83v1.08h.75v2.18c0 .58.12.98.36 1.2.24.22.65.33 1.23.33.17 0 .46-.03.87-.1V74.7l-.44.01c-.28 0-.45-.04-.53-.12Zm5.01 1.13h1.39v-6.34h-1.39v6.34Zm3-5.09h1.39v-1.38h-1.39v1.38Zm0 5.1h1.39v-4.7h-1.39v4.7Zm7.45-4.7h-1.35l-1.37 1.61-.22.28-.2.26v-3.8h-1.3v6.34h1.3v-1.19l.81-.93.99 2.12h1.52l-1.52-3.1 1.34-1.6Zm5.3 2.58c0-.93-.22-1.61-.65-2.04a2.14 2.14 0 0 0-1.55-.64c-.67 0-1.22.23-1.65.69a2.55 2.55 0 0 0-.64 1.8c0 .5.11.94.32 1.3.21.36.48.63.81.82.33.19.73.28 1.2.28 1.07 0 1.78-.54 2.13-1.63l-1.26-.09c-.09.5-.37.74-.83.74a.9.9 0 0 1-.64-.26c-.18-.17-.27-.42-.27-.75v-.22h3.03Zm-2.15-1.77c.48 0 .75.32.8.96h-1.68c.07-.64.36-.96.88-.96Zm10.37.88c0-.42-.03-.7-.08-.87a1.17 1.17 0 0 0-.32-.47 1.5 1.5 0 0 0-.66-.34 3.52 3.52 0 0 0-.9-.1c-.54 0-1.02.1-1.44.33-.42.22-.67.6-.76 1.13l1.28.12c.06-.46.33-.68.81-.68.46 0 .69.22.69.68v.27c-.93.07-1.57.17-1.92.31-.35.14-.6.34-.76.59-.16.24-.23.52-.23.81 0 .4.13.72.4.96s.63.36 1.07.36c.3 0 .56-.06.8-.17.23-.1.46-.33.7-.66 0 .3.02.55.06.73h1.34a3.23 3.23 0 0 1-.08-.88v-2.12Zm-1.38 1.18c0 .3-.09.55-.25.75-.17.2-.37.3-.62.3a.54.54 0 0 1-.43-.17.63.63 0 0 1-.16-.43c0-.49.49-.78 1.46-.88v.43Zm8.37-2.97c-.59 0-1 .26-1.24.79V71h-1.27v6.29h1.34v-2.1c.23.4.6.61 1.14.61.52 0 .95-.21 1.27-.63.33-.42.5-1.04.5-1.87a2.8 2.8 0 0 0-.5-1.78c-.32-.4-.73-.6-1.24-.6Zm.08 3.63c-.15.2-.32.29-.5.29a.68.68 0 0 1-.43-.15.71.71 0 0 1-.26-.34 2.64 2.64 0 0 1-.06-.7v-.69c0-.4.08-.67.23-.84a.68.68 0 0 1 .5-.24c.5 0 .74.46.74 1.39 0 .66-.07 1.08-.22 1.28Zm4.3-2.66v-.87h-1.28v4.7h1.35V73.8c0-.38.05-.68.14-.9.1-.23.23-.39.39-.47.16-.09.38-.13.66-.13v-1.37l-.25-.01c-.48 0-.82.32-1.02.97Zm4.45-.97c-.48 0-.88.1-1.2.32-.31.22-.56.5-.74.84-.18.35-.28.78-.28 1.28 0 .71.2 1.3.6 1.76.4.46.94.69 1.61.69.7 0 1.25-.23 1.66-.7a2.5 2.5 0 0 0 .63-1.73c0-.7-.2-1.29-.6-1.76-.4-.47-.96-.7-1.68-.7Zm.6 3.67c-.15.2-.34.3-.57.3a.63.63 0 0 1-.6-.35 2.75 2.75 0 0 1-.19-1.2c0-.6.07-1 .2-1.2.14-.21.34-.31.6-.31.26 0 .46.1.58.33.13.22.2.64.2 1.25 0 .58-.08.97-.22 1.18Zm4.28-.77.46-4.45h-1.78l.47 4.45h.85Zm-1.16 1.9h1.47v-1.47h-1.47v1.46Z"/><path fill="#fff" d="M24.5 47.26c-1.75 0-3.04.76-3.87 2.3v-7.48H16v21.15h2.48c.39-1.3.73-2.1 1.02-2.4a5.97 5.97 0 0 0 2 2.18c.66.36 1.52.54 2.57.54 2.03 0 3.58-.75 4.66-2.24 1.07-1.5 1.61-3.47 1.61-5.9 0-2.54-.52-4.53-1.57-5.98a4.98 4.98 0 0 0-4.26-2.17Zm.37 12.08a2.27 2.27 0 0 1-1.9 1.01c-.64 0-1.19-.28-1.65-.83-.46-.56-.7-1.39-.7-2.48v-3c0-1.17.23-2.08.68-2.72a2.09 2.09 0 0 1 1.8-.96c.65 0 1.24.28 1.75.85s.77 1.96.77 4.19c0 1.95-.25 3.26-.75 3.94Zm22.47-3.16c0-3.1-.72-5.37-2.16-6.8a7.12 7.12 0 0 0-5.19-2.12c-2.23 0-4.05.76-5.47 2.29s-2.13 3.54-2.13 6.02c0 1.68.35 3.11 1.06 4.31a7.4 7.4 0 0 0 2.7 2.73c1.08.63 2.4.94 3.97.94 3.57 0 5.94-1.8 7.1-5.42l-4.19-.3c-.3 1.63-1.23 2.45-2.76 2.45-.82 0-1.53-.29-2.12-.85-.6-.57-.89-1.4-.89-2.52 0-.2 0-.45.02-.73h10.06Zm-7.17-5.9c1.61 0 2.5 1.08 2.64 3.22h-5.55c.2-2.14 1.18-3.22 2.9-3.22Zm17.26 9.5c-.92 0-1.5-.14-1.75-.42-.24-.28-.37-.83-.37-1.65V51.1h3.38v-3.6H55.3v-4.93l-3.98.31-.38 4.62h-2.74v3.6h2.48v7.28c0 1.93.4 3.27 1.2 4 .81.74 2.18 1.11 4.1 1.11.6 0 1.56-.11 2.9-.34v-3.43c-.55.04-1.04.06-1.46.06ZM100.37 47.18c-1.75 0-3.05.76-3.87 2.3V42h-4.63v21.15h2.47c.4-1.3.73-2.1 1.02-2.4a5.97 5.97 0 0 0 2 2.18c.67.36 1.52.54 2.58.54 2.03 0 3.58-.75 4.66-2.24 1.07-1.5 1.6-3.47 1.6-5.9 0-2.53-.51-4.53-1.56-5.98a4.98 4.98 0 0 0-4.27-2.17Zm.37 12.08a2.27 2.27 0 0 1-1.9 1.01c-.64 0-1.2-.27-1.65-.83-.46-.56-.7-1.39-.7-2.48v-3c0-1.17.23-2.08.67-2.72a2.09 2.09 0 0 1 1.8-.96c.66 0 1.24.28 1.76.85.5.57.77 1.97.77 4.19 0 1.95-.25 3.26-.75 3.94Zm22.55-3c0-3.1-.73-5.37-2.17-6.8a7.12 7.12 0 0 0-5.18-2.12c-2.23 0-4.06.76-5.48 2.29-1.42 1.53-2.13 3.54-2.13 6.02 0 1.68.36 3.11 1.06 4.31a7.4 7.4 0 0 0 2.7 2.73c1.09.63 2.41.94 3.97.94 3.57 0 5.94-1.8 7.11-5.42l-4.19-.3c-.3 1.63-1.23 2.45-2.76 2.45-.83 0-1.53-.29-2.12-.85-.6-.57-.9-1.4-.9-2.52l.02-.73h10.06Zm-7.18-5.9c1.62 0 2.5 1.08 2.64 3.22h-5.54c.2-2.14 1.17-3.22 2.9-3.22Zm17.42 9.58c-.91 0-1.5-.14-1.74-.42-.25-.28-.37-.83-.37-1.66v-6.6h3.37v-3.6h-3.37v-4.93l-3.98.31-.38 4.62h-2.75v3.6h2.48v7.28c0 1.93.4 3.26 1.21 4 .8.74 2.17 1.11 4.1 1.11.59 0 1.56-.11 2.9-.34v-3.43c-.56.04-1.04.06-1.47.06ZM83.09 60.34A9.21 9.21 0 0 0 86 53.57c0-2.7-1-4.92-3-6.7-2-1.76-4.66-2.65-7.97-2.65-3.32 0-6 .9-8 2.7A8.8 8.8 0 0 0 64 53.77c0 2.65.96 4.89 2.88 6.71 1.93 1.83 4.61 2.74 8.05 2.74 3.5 0 6.21-.96 8.16-2.88ZM70.04 58.8c-.57-.54-.79-.89-1.06-1.37a7.77 7.77 0 0 1-.8-5.01c.1-.49.23-1.01.4-1.49.34-.93.62-1.35 1.29-2.06a6.11 6.11 0 0 1 2.78-1.73 8.69 8.69 0 0 1 5.82.47c.45.23.87.5 1.42 1.02.87.84.95.94 1.42 2.03.27.62.52 2.07.48 2.93-.1 2.3-.48 3.4-1.71 4.94a5.52 5.52 0 0 1-2.09 1.51c-.6.28-1.7.6-3.02.57-2.11-.04-3.47-.42-4.93-1.8Z"/><path fill="#FED041" d="M72.74 50.1c-.67-.27-1.49.17-1.83 1-.34.82-.07 1.7.6 1.98.66.28 1.48-.16 1.82-.98.34-.83.08-1.72-.6-2ZM76.24 50.9c.84.2 1.67-.24 1.84-.98.18-.74-.36-1.5-1.2-1.7-.85-.2-1.67.24-1.85.98-.17.75.37 1.5 1.21 1.7ZM73 56.94c.53.67 1.45.82 2.06.34.6-.48.68-1.4.15-2.07-.52-.66-1.44-.82-2.05-.34-.6.48-.67 1.4-.15 2.07ZM77.11 54.55c.17.82.92 1.36 1.67 1.2.74-.15 1.21-.94 1.04-1.76-.17-.82-.91-1.36-1.66-1.21-.75.15-1.22.95-1.05 1.77ZM70.67 54.2c-.54-.06-1.04.4-1.1 1-.06.61.33 1.15.87 1.2.55.06 1.04-.39 1.1-1 .06-.6-.33-1.14-.87-1.2ZM77.8 56.95c-.5-.24-1.15.03-1.42.61-.28.58-.09 1.25.42 1.49s1.15-.03 1.43-.61c.27-.58.08-1.25-.43-1.5ZM80.96 50.72c-.33-.6-.94-.9-1.36-.66-.43.23-.52.9-.2 1.5.33.6.94.9 1.37.66.43-.23.51-.9.19-1.5ZM79.97 57.78c-.22-.15-.6.01-.85.37-.25.35-.27.76-.05.92.22.15.6-.01.85-.36.25-.36.27-.77.05-.93ZM73.38 58.7c-.44-.26-.96-.2-1.14.13-.2.33.02.8.46 1.05.45.26.96.2 1.15-.12.19-.33-.02-.8-.47-1.06ZM70.99 57.57c-.22-.35-.58-.53-.8-.4-.23.15-.23.54-.01.9.21.35.57.52.8.39.22-.14.22-.54 0-.9ZM76 60.22c.55 0 1-.22 1-.5s-.45-.5-1-.5-1 .22-1 .5.45.5 1 .5ZM81.58 54.9c-.3-.14-.74.17-.97.7-.24.53-.2 1.06.1 1.2.3.14.74-.18.98-.7.24-.54.19-1.07-.11-1.2ZM81.72 52.33c-.26.03-.42.4-.37.84.05.44.3.77.55.74.25-.03.41-.41.36-.84-.05-.44-.3-.77-.54-.74ZM69.06 50.63c-.13.27-.04.53.2.58.24.05.55-.13.68-.4s.04-.53-.2-.58c-.24-.05-.55.13-.68.4ZM78.5 47.67c.1-.2-.17-.54-.6-.75-.43-.22-.86-.22-.96-.02-.1.2.17.54.6.75.43.21.86.22.96.02Z"/><path fill="#FED041" d="M80.8 49.56c-.22-.26-.54-.4-.7-.31-.17.09-.12.37.1.63s.54.4.7.31c.17-.09.12-.37-.1-.63ZM75.5 53.22c.83 0 1.5-.45 1.5-1s-.67-1-1.5-1-1.5.45-1.5 1 .67 1 1.5 1ZM68 53.16c-.04.55.15 1.03.42 1.06.27.03.53-.39.57-.94.05-.55-.14-1.03-.41-1.06-.27-.03-.53.4-.57.94ZM72.92 47.16c-.65.18-1.07.7-.94 1.17.13.46.76.68 1.42.5.65-.19 1.07-.71.94-1.17-.14-.46-.77-.69-1.42-.5ZM71.15 48.04c-.11-.12-.4-.04-.64.18s-.34.5-.23.62c.12.12.4.04.64-.18s.34-.5.23-.62ZM75 47.22c.55 0 1-.22 1-.5s-.45-.5-1-.5-1 .22-1 .5.45.5 1 .5Z"/><path fill="#FED041" d="m74 48.22.11.03.36.12.38.15.46.22.4.22.29.19-.1.07-.3-.19-.28-.16-.44-.21-.47-.2-.34-.11-.07-.13ZM71.6 49.22l-.3.2-.25.28-.05.26v.26l.35-.01.07-.45.14-.22.28-.22.16-.08-.4-.02ZM80.82 51.23l-.19.34-.21.27-.24.26-.33.33-.2.17-.25.23-.4.28.13.11.58-.48.48-.44.37-.42.28-.36.16-.3h-.18ZM80.06 54.22l.28.28.28.29.23.2.15.15-.01.08-.17-.17-.3-.26-.24-.25-.17-.16-.11-.11.06-.05ZM77.96 55.22l-.53.3-.46.23-.4.17-.34.13-.23.09.02.08.28-.1.32-.13.28-.12.34-.16.24-.11.27-.15.19-.1.06-.06-.04-.07ZM75 57.27l.34.23.29.15.28.16.3.14.29.13.3.1.16.04.04-.05-.15-.02-.2-.08-.27-.11-.33-.14-.28-.14-.3-.18-.26-.17-.15-.11-.06.05ZM70 54.22l.03-.47.1-.46.13-.51.2-.55.16-.37.17-.38.16-.26.05.08-.3.55-.11.32-.15.37-.13.41-.1.34-.07.36-.03.27v.25l-.11.05ZM72.09 52.22l.12.31.18.42.18.4.16.31.16.3.11.2-.07.06-.21-.4-.28-.54-.2-.42-.13-.34-.11-.27.09-.03ZM70.08 50.22l.6.48.3.25.02.27-.53-.38-.47-.35.08-.27Z"/></svg>