<svg width="150" height="120" viewBox="0 0 150 120" fill="none" xmlns="http://www.w3.org/2000/svg">
<rect width="150" height="120" fill="#191918"/>
<path d="M25.4258 70.9208C24.8988 70.9208 24.5114 71.1502 24.2634 71.6086V69.3686H22.8777V75.7122H23.617C23.7356 75.3218 23.8387 75.0818 23.9262 74.9919C24.1275 75.3204 24.3273 75.5388 24.5256 75.6472C24.7238 75.7556 24.9809 75.8099 25.2969 75.8099C25.904 75.8099 26.3688 75.5853 26.6909 75.136C27.013 74.6868 27.1741 74.0967 27.1741 73.3654C27.1741 72.6064 27.0175 72.0091 26.7044 71.5738C26.3914 71.1386 25.9652 70.9208 25.4258 70.9208ZM25.5328 74.5434C25.384 74.7465 25.1949 74.8478 24.9655 74.8478C24.7733 74.8478 24.6083 74.7642 24.4703 74.5969C24.3324 74.4296 24.2634 74.1818 24.2634 73.8533V72.9563C24.2634 72.6031 24.3301 72.3305 24.4634 72.1383C24.5967 71.9463 24.7765 71.8502 25.0028 71.8502C25.1981 71.8502 25.3725 71.9355 25.526 72.1058C25.6794 72.2763 25.7561 72.6946 25.7561 73.3606C25.756 73.9463 25.6816 74.3406 25.5328 74.5434ZM32.756 73.5977C32.756 72.6652 32.5397 71.9859 32.1073 71.5598C31.6749 71.1339 31.1564 70.9208 30.5518 70.9208C29.8822 70.9208 29.3343 71.1502 28.9081 71.6086C28.4818 72.0672 28.2687 72.6698 28.2687 73.4164C28.2687 73.9183 28.3749 74.3491 28.5872 74.7084C28.7995 75.0679 29.0693 75.3413 29.3963 75.5287C29.7233 75.7161 30.1209 75.8099 30.589 75.8099C31.6615 75.8099 32.373 75.2677 32.7233 74.1833L31.4679 74.0903C31.3749 74.5829 31.0974 74.8292 30.6356 74.8292C30.3876 74.8292 30.1744 74.7441 29.9962 74.5736C29.8179 74.4033 29.7288 74.1507 29.7288 73.816C29.7288 73.7542 29.7304 73.6813 29.7335 73.5976H32.756V73.5977ZM30.603 71.827C31.0897 71.827 31.3547 72.1493 31.3982 72.7937H29.7289C29.7909 72.1494 30.0823 71.827 30.603 71.827ZM35.7798 74.5783C35.7056 74.4947 35.6687 74.329 35.6687 74.081V72.0965H36.6777V71.0184H35.6687V69.5405L34.4736 69.6335L34.362 71.0184H33.539V72.0966H34.283V74.2809C34.283 74.8604 34.4038 75.2608 34.6456 75.4822C34.8875 75.7038 35.2966 75.8145 35.8733 75.8145C36.05 75.8145 36.3398 75.7804 36.7428 75.7122V74.6852C36.5761 74.6976 36.4295 74.7037 36.303 74.7037C36.0282 74.7038 35.8539 74.6619 35.7798 74.5783ZM39.8392 70.9208C39.3562 70.9208 38.9567 71.0277 38.6407 71.2414C38.3249 71.4552 38.0763 71.7364 37.8952 72.085C37.7141 72.4336 37.6235 72.8573 37.6235 73.356C37.6235 74.0748 37.824 74.6635 38.2251 75.122C38.6261 75.5806 39.1611 75.8099 39.83 75.8099C40.5205 75.8099 41.0741 75.5783 41.4906 75.1151C41.9071 74.6519 42.1154 74.0733 42.1154 73.3792C42.1154 72.676 41.9148 72.0904 41.5138 71.6226C41.1127 71.1548 40.5546 70.9208 39.8392 70.9208ZM40.4374 74.5899C40.2921 74.7961 40.102 74.8989 39.8671 74.8989C39.5983 74.8989 39.4004 74.7781 39.2737 74.5365C39.147 74.2948 39.0836 73.8968 39.0836 73.342C39.0836 72.7379 39.1501 72.3344 39.283 72.1314C39.4159 71.9285 39.6137 71.827 39.8764 71.827C40.1392 71.827 40.3346 71.937 40.4629 72.1569C40.5911 72.3769 40.6553 72.7952 40.6553 73.4117C40.6553 73.9912 40.5826 74.3839 40.4374 74.5899ZM46.0139 70.9208C45.4869 70.9208 45.0994 71.1502 44.8514 71.6086V69.3686H43.4658V75.7122H44.2051C44.3237 75.3218 44.4268 75.0818 44.5142 74.9919C44.7156 75.3204 44.9154 75.5388 45.1136 75.6472C45.3119 75.7556 45.5689 75.8099 45.8849 75.8099C46.4921 75.8099 46.9568 75.5853 47.2789 75.136C47.6011 74.6868 47.7622 74.0967 47.7622 73.3654C47.7622 72.6064 47.6056 72.0091 47.2925 71.5738C46.9794 71.1386 46.5532 70.9208 46.0139 70.9208ZM46.1208 74.5434C45.972 74.7465 45.7829 74.8478 45.5535 74.8478C45.3613 74.8478 45.1962 74.7642 45.0583 74.5969C44.9204 74.4296 44.8514 74.1818 44.8514 73.8533V72.9563C44.8514 72.6031 44.9181 72.3305 45.0514 72.1383C45.1847 71.9463 45.3645 71.8502 45.5908 71.8502C45.7861 71.8502 45.9605 71.9355 46.114 72.1058C46.2674 72.2763 46.3441 72.6946 46.3441 73.3606C46.344 73.9463 46.2696 74.3406 46.1208 74.5434ZM53.344 73.5977C53.344 72.6652 53.1278 71.9859 52.6953 71.5598C52.2629 71.1339 51.7445 70.9208 51.1399 70.9208C50.4703 70.9208 49.9224 71.1502 49.4962 71.6086C49.0699 72.0672 48.8568 72.6698 48.8568 73.4164C48.8568 73.9183 48.9629 74.3491 49.1753 74.7084C49.3876 75.0679 49.6573 75.3413 49.9844 75.5287C50.3114 75.7161 50.709 75.8099 51.1771 75.8099C52.2496 75.8099 52.961 75.2677 53.3114 74.1833L52.0559 74.0903C51.9629 74.5829 51.6855 74.8292 51.2236 74.8292C50.9756 74.8292 50.7625 74.7441 50.5842 74.5736C50.4059 74.4033 50.3169 74.1507 50.3169 73.816C50.3169 73.7542 50.3185 73.6813 50.3216 73.5976H53.344V73.5977ZM51.1911 71.827C51.6777 71.827 51.9428 72.1493 51.9863 72.7937H50.317C50.3789 72.1494 50.6703 71.827 51.1911 71.827ZM56.3678 74.5783C56.2937 74.4947 56.2567 74.329 56.2567 74.081V72.0965H57.2658V71.0184H56.2567V69.5405L55.0617 69.6335L54.9501 71.0184H54.1271V72.0966H54.871V74.2809C54.871 74.8604 54.9919 75.2608 55.2337 75.4822C55.4755 75.7038 55.8847 75.8145 56.4613 75.8145C56.638 75.8145 56.9279 75.7804 57.3309 75.7122V74.6852C57.1642 74.6976 57.0175 74.7037 56.891 74.7037C56.6163 74.7038 56.442 74.6619 56.3678 74.5783ZM59.0512 74.6178C58.7179 74.6178 58.4893 74.8652 58.4893 75.227C58.4798 75.56 58.7179 75.817 59.0417 75.817C59.394 75.817 59.6131 75.56 59.6131 75.227C59.6131 74.8652 59.394 74.6178 59.0512 74.6178ZM66.5994 70.9208C66.0723 70.9208 65.6849 71.1502 65.437 71.6086V69.3686H64.0513V75.7122H64.7906C64.9092 75.3218 65.0123 75.0818 65.0998 74.9919C65.3011 75.3204 65.5008 75.5388 65.6992 75.6472C65.8973 75.7556 66.1544 75.8099 66.4705 75.8099C67.0776 75.8099 67.5424 75.5853 67.8645 75.136C68.1867 74.6868 68.3477 74.0967 68.3477 73.3654C68.3477 72.6064 68.1911 72.0091 67.878 71.5738C67.565 71.1386 67.1388 70.9208 66.5994 70.9208ZM66.7064 74.5434C66.5576 74.7465 66.3685 74.8478 66.1391 74.8478C65.9468 74.8478 65.7818 74.7642 65.6439 74.5969C65.5059 74.4296 65.437 74.1818 65.437 73.8533V72.9563C65.437 72.6031 65.5036 72.3305 65.637 72.1383C65.7703 71.9463 65.9501 71.8502 66.1764 71.8502C66.3717 71.8502 66.5461 71.9355 66.6996 72.1058C66.853 72.2763 66.9297 72.6946 66.9297 73.3606C66.9295 73.9463 66.8552 74.3406 66.7064 74.5434ZM73.9296 73.5977C73.9296 72.6652 73.7134 71.9859 73.281 71.5598C72.8485 71.1339 72.3301 70.9208 71.7255 70.9208C71.0559 70.9208 70.5078 71.1502 70.0818 71.6086C69.6554 72.0672 69.4424 72.6698 69.4424 73.4164C69.4424 73.9183 69.5485 74.3491 69.7609 74.7084C69.9731 75.0679 70.2429 75.3413 70.5701 75.5287C70.897 75.7161 71.2946 75.8099 71.7627 75.8099C72.8353 75.8099 73.5466 75.2677 73.8971 74.1833L72.6416 74.0903C72.5486 74.5829 72.2711 74.8292 71.8093 74.8292C71.5612 74.8292 71.3481 74.7441 71.1699 74.5736C70.9916 74.4033 70.9026 74.1507 70.9026 73.816C70.9026 73.7542 70.9041 73.6813 70.9072 73.5976H73.9296V73.5977ZM71.7767 71.827C72.2633 71.827 72.5283 72.1493 72.5719 72.7937H70.9026C70.9644 72.1494 71.2559 71.827 71.7767 71.827ZM76.9534 74.5783C76.8792 74.4947 76.8423 74.329 76.8423 74.081V72.0965H77.8513V71.0184H76.8423V69.5405L75.6472 69.6335L75.5356 71.0184H74.7126V72.0966H75.4566V74.2809C75.4566 74.8604 75.5774 75.2608 75.8192 75.4822C76.0611 75.7038 76.4702 75.8145 77.0468 75.8145C77.2236 75.8145 77.5134 75.7804 77.9164 75.7122V74.6852C77.7497 74.6976 77.6031 74.7037 77.4766 74.7037C77.2018 74.7038 77.0275 74.6619 76.9534 74.5783ZM81.9609 75.7123H83.3466V69.3686H81.9609V75.7123ZM84.9619 70.6233H86.3476V69.2384H84.9619V70.6233ZM84.9619 75.7123H86.3476V71.0184H84.9619V75.7123ZM92.413 71.0184H91.0625L89.6923 72.6311C89.6334 72.7024 89.5607 72.7969 89.474 72.9145L89.2696 73.1702V69.3686H87.963V75.7122H89.2696V74.5223L90.0847 73.5859L91.0652 75.7122H92.5944L91.0658 72.6105L92.413 71.0184ZM97.7112 73.5977C97.7112 72.6652 97.4949 71.9859 97.0625 71.5598C96.6301 71.1339 96.1116 70.9208 95.5071 70.9208C94.8374 70.9208 94.2895 71.1502 93.8633 71.6086C93.4371 72.0672 93.2239 72.6698 93.2239 73.4164C93.2239 73.9183 93.3301 74.3491 93.5425 74.7084C93.7548 75.0679 94.0245 75.3413 94.3515 75.5287C94.6786 75.7161 95.0761 75.8099 95.5442 75.8099C96.6168 75.8099 97.3282 75.2677 97.6786 74.1833L96.4231 74.0903C96.3301 74.5829 96.0527 74.8292 95.5908 74.8292C95.3428 74.8292 95.1296 74.7441 94.9514 74.5736C94.7732 74.4033 94.684 74.1507 94.684 73.816C94.684 73.7542 94.6856 73.6813 94.6887 73.5976H97.7112V73.5977ZM95.5583 71.827C96.045 71.827 96.31 72.1493 96.3534 72.7937H94.6841C94.746 72.1494 95.0374 71.827 95.5583 71.827ZM105.931 72.7054C105.931 72.2934 105.903 72.0045 105.848 71.8386C105.792 71.6729 105.685 71.5156 105.527 71.3669C105.369 71.2182 105.149 71.1067 104.866 71.0323C104.584 70.9579 104.284 70.9208 103.964 70.9208C103.431 70.9208 102.954 71.0323 102.532 71.2554C102.111 71.4785 101.858 71.8565 101.774 72.3894L103.053 72.5102C103.109 72.0547 103.379 71.827 103.864 71.827C104.319 71.827 104.546 72.0547 104.546 72.5102V72.7797C103.62 72.8479 102.983 72.9525 102.633 73.0934C102.283 73.2344 102.029 73.4288 101.872 73.6767C101.714 73.9246 101.635 74.1957 101.635 74.49C101.635 74.8928 101.77 75.2135 102.041 75.452C102.312 75.6907 102.667 75.8099 103.106 75.8099C103.404 75.8099 103.669 75.7549 103.903 75.6449C104.136 75.535 104.371 75.3126 104.606 74.978C104.606 75.2817 104.628 75.5264 104.671 75.7123H106.015C105.959 75.5357 105.931 75.2429 105.931 74.834L105.931 72.7054ZM104.546 73.8905C104.546 74.1879 104.463 74.4382 104.298 74.6411C104.132 74.8441 103.928 74.9455 103.684 74.9455C103.495 74.9455 103.35 74.8859 103.248 74.7666C103.146 74.6473 103.095 74.5056 103.095 74.3413C103.095 73.8519 103.578 73.5591 104.546 73.463V73.8905ZM112.919 70.9208C112.33 70.9208 111.918 71.1827 111.682 71.7062V71.0183H110.408V77.297H111.752V75.1917C111.978 75.6038 112.357 75.8098 112.887 75.8098C113.411 75.8098 113.836 75.5999 114.163 75.1801C114.49 74.7604 114.654 74.1368 114.654 73.3095C114.654 72.5319 114.492 71.9394 114.168 71.5319C113.844 71.1246 113.428 70.9208 112.919 70.9208ZM112.998 74.5481C112.849 74.7418 112.68 74.8386 112.491 74.8386C112.339 74.8386 112.198 74.7883 112.068 74.6876C111.938 74.5869 111.853 74.4731 111.812 74.3459C111.772 74.219 111.752 73.9897 111.752 73.6581V72.961C111.752 72.5676 111.828 72.2887 111.98 72.1245C112.132 71.9604 112.301 71.8782 112.487 71.8782C112.976 71.8782 113.221 72.3415 113.221 73.2678C113.221 73.9277 113.147 74.3545 112.998 74.5481ZM117.292 71.8921V71.0184H116.023V75.7123H117.366V73.8022C117.366 73.4211 117.416 73.1184 117.515 72.8937C117.614 72.6691 117.742 72.5134 117.899 72.4266C118.055 72.3399 118.275 72.2964 118.557 72.2964V70.9301C118.458 70.9208 118.374 70.9161 118.306 70.9161C117.825 70.9162 117.487 71.2414 117.292 71.8921ZM121.751 70.9208C121.268 70.9208 120.868 71.0277 120.552 71.2414C120.236 71.4552 119.988 71.7364 119.807 72.085C119.626 72.4336 119.535 72.8573 119.535 73.356C119.535 74.0748 119.735 74.6635 120.137 75.122C120.538 75.5806 121.073 75.8099 121.742 75.8099C122.432 75.8099 122.986 75.5783 123.402 75.1151C123.819 74.6519 124.027 74.0733 124.027 73.3792C124.027 72.676 123.826 72.0904 123.425 71.6226C123.024 71.1548 122.466 70.9208 121.751 70.9208ZM122.349 74.5899C122.204 74.7961 122.014 74.8989 121.779 74.8989C121.51 74.8989 121.312 74.7781 121.185 74.5365C121.059 74.2948 120.995 73.8968 120.995 73.342C120.995 72.7379 121.062 72.3344 121.195 72.1314C121.327 71.9285 121.525 71.827 121.788 71.827C122.051 71.827 122.246 71.937 122.375 72.1569C122.503 72.3769 122.567 72.7952 122.567 73.4117C122.567 73.9912 122.494 74.3839 122.349 74.5899ZM126.633 73.8161L127.093 69.3686H125.312L125.777 73.8161H126.633ZM125.475 75.7123H126.94V74.2484H125.475V75.7123Z" fill="#FED041"/>
<path d="M24.5073 47.2571C22.7486 47.2571 21.4555 48.0227 20.6282 49.5532V42.0793H16V63.228H18.476C18.8671 61.93 19.2066 61.1317 19.495 60.8328C20.1672 61.9244 20.8345 62.6505 21.4966 63.011C22.1588 63.3714 23.0173 63.5517 24.0726 63.5517C26.1002 63.5517 27.6518 62.803 28.7279 61.3058C29.8037 59.8084 30.3417 57.8415 30.3417 55.4044C30.3417 52.8744 29.8192 50.8842 28.7746 49.4334C27.7298 47.9825 26.3073 47.2571 24.5073 47.2571ZM24.8719 59.3388C24.3743 60.0154 23.7423 60.3536 22.9756 60.3536C22.3328 60.3536 21.7811 60.0749 21.3198 59.5169C20.8585 58.9593 20.6282 58.133 20.6282 57.0379V54.0474C20.6282 52.8701 20.8508 51.9612 21.2966 51.3206C21.7421 50.6802 22.3432 50.3598 23.1001 50.3598C23.753 50.3598 24.3357 50.6439 24.8488 51.212C25.3618 51.7801 25.6183 53.1748 25.6183 55.3954C25.6183 57.3477 25.3695 58.6625 24.8719 59.3388ZM47.3383 56.1848C47.3383 53.0749 46.6179 50.8094 45.1769 49.3884C43.7359 47.9676 42.0087 47.2571 39.9945 47.2571C37.7631 47.2571 35.9374 48.0215 34.5172 49.5497C33.097 51.0778 32.387 53.0864 32.387 55.5748C32.387 57.2476 32.7405 58.683 33.4479 59.8808C34.155 61.0788 35.0534 61.9902 36.1427 62.6148C37.2319 63.2391 38.5562 63.5517 40.1153 63.5517C43.6877 63.5517 46.0571 61.7452 47.224 58.1315L43.0338 57.822C42.7248 59.459 41.8044 60.2776 40.2717 60.2776C39.4486 60.2776 38.7416 59.9944 38.1499 59.4281C37.5583 58.8618 37.2628 58.0227 37.2628 56.9106C37.2628 56.7048 37.2678 56.463 37.2782 56.1849H47.3383V56.1848ZM40.1653 50.2837C41.7813 50.2837 42.6612 51.3562 42.8054 53.5008H37.2629C37.4688 51.3562 38.4363 50.2837 40.1653 50.2837ZM57.4288 59.7794C56.5129 59.7794 55.9317 59.6402 55.6846 59.3618C55.4376 59.0834 55.3145 58.5314 55.3145 57.706V51.0991H58.6855V47.5013H55.3145V42.5711L51.3338 42.8813L50.9528 47.5013H48.2102V51.0991H50.6862V58.3796C50.6862 60.3109 51.0894 61.6458 51.8965 62.384C52.7032 63.1222 54.0689 63.4914 55.9931 63.4914C56.5828 63.4914 57.5499 63.3774 58.895 63.1495V59.7172C58.3392 59.7589 57.8505 59.7794 57.4288 59.7794Z" fill="white"/>
<path d="M100.374 47.1777C98.6155 47.1777 97.3225 47.9434 96.4952 49.4739V42H91.8669V63.1487H94.3429C94.734 61.8507 95.0735 61.0524 95.3619 60.7535C96.0342 61.8451 96.7014 62.5711 97.3636 62.9316C98.0257 63.2921 98.8843 63.4723 99.9396 63.4723C101.967 63.4723 103.519 62.7237 104.595 61.2264C105.671 59.7291 106.209 57.7622 106.209 55.325C106.209 52.7951 105.686 50.8049 104.642 49.3541C103.597 47.9031 102.174 47.1777 100.374 47.1777ZM100.739 59.2595C100.241 59.9361 99.6092 60.2743 98.8425 60.2743C98.1997 60.2743 97.648 59.9956 97.1868 59.4376C96.7254 58.88 96.4952 58.0537 96.4952 56.9585V53.9681C96.4952 52.7908 96.7178 51.8819 97.1636 51.2412C97.609 50.6008 98.2102 50.2805 98.967 50.2805C99.62 50.2805 100.203 50.5646 100.716 51.1326C101.229 51.7008 101.485 53.0955 101.485 55.3161C101.485 57.2684 101.236 58.5832 100.739 59.2595ZM123.285 56.2641C123.285 53.1542 122.564 50.8887 121.123 49.4677C119.682 48.0469 117.955 47.3363 115.941 47.3363C113.71 47.3363 111.884 48.1007 110.464 49.6289C109.043 51.1571 108.333 53.1657 108.333 55.654C108.333 57.3268 108.687 58.7622 109.394 59.96C110.101 61.158 111 62.0694 112.089 62.694C113.178 63.3183 114.503 63.631 116.062 63.631C119.634 63.631 122.003 61.8244 123.17 58.2108L118.98 57.9012C118.671 59.5383 117.751 60.3568 116.218 60.3568C115.395 60.3568 114.688 60.0737 114.096 59.5073C113.505 58.941 113.209 58.1019 113.209 56.9899C113.209 56.784 113.214 56.5422 113.225 56.2641H123.285ZM116.112 50.363C117.728 50.363 118.608 51.4355 118.752 53.5801H113.209C113.415 51.4355 114.383 50.363 116.112 50.363ZM133.534 59.938C132.618 59.938 132.037 59.7988 131.79 59.5204C131.543 59.242 131.419 58.69 131.419 57.8646V51.2577H134.791V47.66H131.419V42.7297L127.439 43.0399L127.058 47.66H124.315V51.2577H126.791V58.5383C126.791 60.4695 127.194 61.8044 128.001 62.5426C128.808 63.2809 130.174 63.65 132.098 63.65C132.688 63.65 133.655 63.536 135 63.3081V59.8758C134.444 59.9175 133.956 59.938 133.534 59.938Z" fill="white"/>
<path d="M83.0857 60.3372C85.0286 58.4147 86 56.1601 86 53.5733C86 50.8793 84.9989 48.6471 82.9974 46.8763C80.9953 45.1059 78.3393 44.2203 75.0293 44.2203C71.7059 44.2203 69.0371 45.1214 67.0221 46.9232C65.0072 48.7252 64 51.009 64 53.774C64 56.4233 64.9616 58.6601 66.8846 60.4842C68.8077 62.3084 71.4899 63.2203 74.9316 63.2203C78.4244 63.2204 81.1427 62.2597 83.0857 60.3372ZM70.0439 58.8005C69.4728 58.2561 69.2521 57.9107 68.9814 57.4287C68.4572 56.4952 68.3176 55.7888 68.1076 54.4554C68.0214 53.9082 68.0847 52.8728 68.183 52.4193C68.2883 51.9336 68.4114 51.4096 68.5854 50.9296C68.9218 50.0013 69.1951 49.5783 69.8679 48.8687C70.6633 48.0299 71.5226 47.486 72.6467 47.143C73.4244 46.9057 75.0966 46.7606 76.0165 46.9257C77.2613 47.1492 77.8938 47.3284 78.4684 47.6147C78.9154 47.8374 79.3446 48.1059 79.8892 48.6328C80.7574 49.4726 80.8358 49.566 81.3101 50.6564C81.5793 51.2753 81.825 52.7341 81.7879 53.5863C81.6874 55.8955 81.3101 56.988 80.0779 58.5274C79.51 59.2369 78.7449 59.7007 77.9906 60.042C77.3871 60.3151 76.2806 60.638 74.9729 60.6131C72.8555 60.573 71.5025 60.1911 70.0439 58.8005Z" fill="white"/>
<path d="M72.7393 50.1045C72.0709 49.8276 71.2524 50.2702 70.9111 51.0931C70.5699 51.9159 70.8351 52.8074 71.5036 53.0843C72.172 53.3613 72.9905 52.9187 73.3317 52.0958C73.673 51.273 73.4078 50.3814 72.7393 50.1045Z" fill="#FED041"/>
<path d="M76.2417 50.9057C77.0833 51.1032 77.9069 50.6614 78.0814 49.919C78.2558 49.1766 77.715 48.4146 76.8734 48.2171C76.0318 48.0196 75.2082 48.4613 75.0338 49.2038C74.8593 49.9462 75.4002 50.7082 76.2417 50.9057Z" fill="#FED041"/>
<path d="M73.0091 56.942C73.5325 57.6078 74.4501 57.7601 75.0585 57.2823C75.6669 56.8045 75.7358 55.8774 75.2123 55.2116C74.6888 54.5458 73.7712 54.3934 73.1628 54.8712C72.5544 55.3491 72.4856 56.2762 73.0091 56.942Z" fill="#FED041"/>
<path d="M77.1143 54.5493C77.2846 55.3716 78.0284 55.9129 78.7757 55.7583C79.523 55.6037 79.9907 54.8117 79.8204 53.9894C79.65 53.167 78.9062 52.6257 78.1589 52.7803C77.4116 52.9349 76.9439 53.7269 77.1143 54.5493Z" fill="#FED041"/>
<path d="M70.6693 54.2005C70.1255 54.1449 69.6341 54.5942 69.5717 55.204C69.5094 55.8138 69.8998 56.3531 70.4437 56.4086C70.9876 56.4642 71.479 56.0148 71.5413 55.4051C71.6036 54.7953 71.2132 54.256 70.6693 54.2005Z" fill="#FED041"/>
<path d="M77.8021 56.9489C77.2918 56.7063 76.6543 56.98 76.3781 57.5602C76.1019 58.1405 76.2916 58.8076 76.8019 59.0502C77.3122 59.2928 77.9497 59.0191 78.2259 58.4389C78.5021 57.8586 78.3124 57.1916 77.8021 56.9489Z" fill="#FED041"/>
<path d="M80.9568 50.7196C80.6323 50.1237 80.0226 49.8293 79.5951 50.0619C79.1675 50.2945 79.084 50.9661 79.4085 51.5619C79.733 52.1578 80.3427 52.4522 80.7703 52.2196C81.1978 51.987 81.2814 51.3154 80.9568 50.7196Z" fill="#FED041"/>
<path d="M79.9701 57.7847C79.7503 57.6304 79.3703 57.7927 79.1213 58.1471C78.8724 58.5014 78.8487 58.9137 79.0686 59.068C79.2884 59.2222 79.6684 59.06 79.9173 58.7056C80.1662 58.3512 80.1899 57.9389 79.9701 57.7847Z" fill="#FED041"/>
<path d="M73.3841 58.6997C72.9376 58.4435 72.4233 58.501 72.2354 58.8281C72.0475 59.1553 72.2571 59.6282 72.7035 59.8844C73.15 60.1406 73.6643 60.0831 73.8522 59.756C74.0402 59.4288 73.8306 58.9559 73.3841 58.6997Z" fill="#FED041"/>
<path d="M70.9867 57.5679C70.7695 57.2156 70.4121 57.0417 70.1882 57.1795C69.9644 57.3173 69.959 57.7146 70.1762 58.0669C70.3933 58.4192 70.7508 58.5931 70.9746 58.4553C71.1984 58.3175 71.2038 57.9202 70.9867 57.5679Z" fill="#FED041"/>
<path d="M76 60.2203C76.5523 60.2203 77 59.9965 77 59.7203C77 59.4442 76.5523 59.2203 76 59.2203C75.4477 59.2203 75 59.4442 75 59.7203C75 59.9965 75.4477 60.2203 76 60.2203Z" fill="#FED041"/>
<path d="M81.5794 54.8916C81.2796 54.7561 80.8433 55.0734 80.605 55.6003C80.3666 56.1272 80.4164 56.6642 80.7162 56.7997C81.016 56.9352 81.4523 56.6179 81.6907 56.0909C81.929 55.564 81.8792 55.027 81.5794 54.8916Z" fill="#FED041"/>
<path d="M81.7153 52.3312C81.464 52.3608 81.3019 52.7374 81.3532 53.1725C81.4044 53.6075 81.6497 53.9362 81.901 53.9066C82.1523 53.877 82.3144 53.5004 82.2631 53.0653C82.2118 52.6303 81.9666 52.3016 81.7153 52.3312Z" fill="#FED041"/>
<path d="M69.0609 50.6315C68.9288 50.9031 69.0187 51.1632 69.2611 51.2123C69.5035 51.2614 69.8072 51.0809 69.939 50.8092C70.0712 50.5376 69.9813 50.2776 69.7389 50.2284C69.4965 50.1793 69.1928 50.3597 69.0609 50.6315Z" fill="#FED041"/>
<path d="M78.4976 47.6668C78.5977 47.4639 78.3307 47.1277 77.9012 46.9159C77.4717 46.7041 77.0423 46.697 76.9421 46.8999C76.8419 47.1028 77.1089 47.439 77.5385 47.6508C77.968 47.8626 78.3974 47.8697 78.4976 47.6668Z" fill="#FED041"/>
<path d="M80.7989 49.5595C80.5775 49.2981 80.2642 49.1583 80.0992 49.247C79.9341 49.3359 79.9798 49.62 80.2013 49.8813C80.4224 50.1426 80.7358 50.2823 80.9008 50.1937C81.0659 50.1049 81.0203 49.821 80.7989 49.5595Z" fill="#FED041"/>
<path d="M75.5 53.2203C76.3284 53.2203 77 52.7726 77 52.2203C77 51.6681 76.3284 51.2203 75.5 51.2203C74.6716 51.2203 74 51.6681 74 52.2203C74 52.7726 74.6716 53.2203 75.5 53.2203Z" fill="#FED041"/>
<path d="M68.0066 53.1619C67.9621 53.7131 68.1471 54.1863 68.4197 54.2186C68.6921 54.251 68.9493 53.8301 68.9934 53.2787C69.038 52.7276 68.8528 52.2545 68.5804 52.2221C68.3079 52.1896 68.0508 52.6105 68.0066 53.1619Z" fill="#FED041"/>
<path d="M72.9202 47.1559C72.2698 47.3405 71.8489 47.8642 71.98 48.3257C72.1111 48.7872 72.7447 49.0116 73.3951 48.827C74.0455 48.6424 74.4665 48.1187 74.3353 47.6572C74.2042 47.1957 73.5706 46.9713 72.9202 47.1559Z" fill="#FED041"/>
<path d="M71.1514 48.0369C71.0388 47.9158 70.7536 47.9976 70.5142 48.2197C70.2749 48.4418 70.1721 48.7201 70.2847 48.8412C70.3973 48.9624 70.6825 48.8806 70.9219 48.6585C71.1612 48.4364 71.264 48.1581 71.1514 48.0369Z" fill="#FED041"/>
<path d="M75 47.2203C75.5523 47.2203 76 46.9965 76 46.7203C76 46.4442 75.5523 46.2203 75 46.2203C74.4477 46.2203 74 46.4442 74 46.7203C74 46.9965 74.4477 47.2203 75 47.2203Z" fill="#FED041"/>
<path d="M74 48.2203L74.1101 48.2548L74.4672 48.371L74.8503 48.5233L75.307 48.7352L75.7165 48.9613L76 49.145L75.8977 49.2203L75.5907 49.0304L75.3176 48.8734L74.8818 48.6599L74.4093 48.4668L74.0708 48.349L74 48.2203Z" fill="#FED041"/>
<path d="M71.6045 49.2203L71.3025 49.419L71.0465 49.7004L71 49.9587V50.2203L71.349 50.2104L71.4185 49.76L71.558 49.5415L71.837 49.3163L72 49.2435L71.6045 49.2203Z" fill="#FED041"/>
<path d="M80.8161 51.2283L80.6324 51.5682L80.4162 51.8369L80.1784 52.0978L79.8541 52.4298L79.6595 52.5958L79.4001 52.8251L79 53.1097L79.1297 53.2203L79.7135 52.7381L80.1891 52.2954L80.5567 51.8843L80.8378 51.5207L81 51.2203L80.8161 51.2283Z" fill="#FED041"/>
<path d="M80.0577 54.2203L80.3398 54.4981L80.6218 54.7851L80.8462 54.9981L81 55.137L80.9872 55.2203L80.8205 55.0537L80.5192 54.7851L80.2757 54.5351L80.109 54.3777L80 54.2666L80.0577 54.2203Z" fill="#FED041"/>
<path d="M77.9588 55.2203L77.4295 55.5211L76.9691 55.7542L76.5773 55.9195L76.2337 56.0549L76 56.1376L76.0206 56.2203L76.2955 56.1225L76.6186 55.9872L76.9004 55.8744L77.244 55.7091L77.4777 55.5963L77.7457 55.4459L77.9381 55.3407L78 55.288L77.9588 55.2203Z" fill="#FED041"/>
<path d="M75 57.2703L75.34 57.4981L75.63 57.6481L75.91 57.8148L76.21 57.9537L76.5001 58.0759L76.8001 58.187L76.96 58.2203L77 58.1703L76.85 58.1481L76.6501 58.0704L76.3801 57.9593L76.05 57.8204L75.77 57.6759L75.4699 57.4981L75.21 57.3259L75.06 57.2203L75 57.2703Z" fill="#FED041"/>
<path d="M70 54.2203L70.0347 53.7515L70.1388 53.2945L70.2638 52.779L70.4583 52.2282L70.618 51.8649L70.7917 51.4782L70.9513 51.2203L71 51.3025L70.7083 51.8531L70.5903 52.1695L70.4444 52.5446L70.3055 52.9548L70.2153 53.2945L70.1388 53.646L70.1111 53.9156V54.1734L70 54.2203Z" fill="#FED041"/>
<path d="M72.0895 52.2203L72.2114 52.5318L72.3902 52.9539L72.5691 53.3552L72.7317 53.6598L72.8861 53.9643L73 54.1649L72.9349 54.2203L72.7154 53.8259L72.439 53.2792L72.2439 52.8639L72.1058 52.5179L72 52.248L72.0895 52.2203Z" fill="#FED041"/>
<path d="M70.0796 50.2203L70.6705 50.7013L70.9887 50.9511L71 51.2203L70.4659 50.8357L70 50.4896L70.0796 50.2203Z" fill="#FED041"/>
</svg>
