<svg xmlns="http://www.w3.org/2000/svg" width="150" height="120" fill="none"><path fill="#000" d="M0 0h150v120H0z"/><path fill="#fff" d="M20.99 50.15a12.68 12.68 0 0 1 3.76-.5c1.3-.03 2.6.23 3.79.74a8.09 8.09 0 0 1 4.55 5.15c.4 1.22.6 2.5.59 3.79.03 1.59-.25 3.17-.82 4.66a8.55 8.55 0 0 1-2.3 3.26 9.66 9.66 0 0 1-3.5 1.92c-1.42.43-2.91.65-4.4.63a22.7 22.7 0 0 1-4.76-.45 27.84 27.84 0 0 1-3.9-1.13V43h6.99v7.15Zm0 14.32c.6.16 1.21.24 1.84.24a3.75 3.75 0 0 0 2.91-1.25c.75-.83 1.12-2.1 1.12-3.81 0-1.67-.37-2.9-1.1-3.68a3.62 3.62 0 0 0-2.78-1.19c-.34 0-.7.03-1.04.1-.32.07-.64.15-.95.26v9.33ZM41.31 61.03a3.7 3.7 0 0 0 1.14 2.7c.74.67 1.7 1.01 2.7.98.78.02 1.55-.15 2.25-.48a5.43 5.43 0 0 0 1.74-1.46l4.27 3.32a9.9 9.9 0 0 1-5.79 3.42c-1.01.2-2.05.28-3.09.28-1.32 0-2.64-.2-3.9-.64a8.72 8.72 0 0 1-5.32-5 11.08 11.08 0 0 1-.8-4.37c-.03-1.47.23-2.92.76-4.29a8.61 8.61 0 0 1 5.23-5.18c1.26-.45 2.6-.68 3.94-.67 2.9 0 5.2.93 6.92 2.79 1.72 1.86 2.59 4.72 2.62 8.6H41.3Zm6.11-3.68a3.92 3.92 0 0 0-.94-2.43c-.49-.57-1.21-.9-1.97-.89-.8 0-1.56.34-2.1.92-.62.66-1 1.52-1.06 2.42l6.07-.02ZM53.81 54.9v-4.82h2.76V45.2h6.98v4.87h2.97l1.72 4.82h-4.69v7.75c-.02.52.06 1.04.22 1.54.15.37.48.55.98.55.48 0 .95-.1 1.37-.31.42-.2.81-.44 1.18-.71l1.8 4.19a10.41 10.41 0 0 1-6.43 1.86 8.08 8.08 0 0 1-2.9-.46 4.71 4.71 0 0 1-1.9-1.28A4.85 4.85 0 0 1 56.87 66c-.2-.87-.3-1.76-.3-2.65v-8.45h-2.75ZM74.51 69.37 65.88 45.2h6.75l5 15.12 3-10.24h4.55l2.99 10.24 2.87-10.24h7.15l-6.9 19.3h-5.36l-3.07-10.13-3.04 10.12h-5.3ZM109.15 69.37l-.56-1.5c-.63.56-1.36 1-2.15 1.28a8.6 8.6 0 0 1-3.16.54c-.85 0-1.7-.13-2.52-.4a5.76 5.76 0 0 1-2.01-1.16 5.42 5.42 0 0 1-1.82-4.3 5.25 5.25 0 0 1 2.02-4.3c.66-.52 1.4-.93 2.18-1.23.84-.32 1.73-.55 2.63-.67a34.94 34.94 0 0 1 4.4-.43v-.48c0-.8-.26-1.37-.77-1.75a2.96 2.96 0 0 0-1.8-.55 5.5 5.5 0 0 0-2.17.43c-.7.31-1.36.72-1.96 1.2l-3.13-3.43a12.57 12.57 0 0 1 3.57-2.17c1.52-.56 3.12-.83 4.74-.8 2.55 0 4.58.62 6.1 1.85 1.52 1.22 2.28 3.13 2.28 5.7v12.17h-5.87Zm-1-8.75-1.2.1c-.4.04-.8.1-1.23.18-.83.13-1.42.42-1.77.85-.34.41-.52.93-.52 1.46-.01.52.2 1.01.6 1.36.44.38 1.02.57 1.6.54.48 0 .94-.08 1.38-.24.41-.16.8-.37 1.14-.63v-3.62Z"/><path fill="#fff" d="M116.8 71.5a7 7 0 0 0 1.33.56c.45.15.92.23 1.4.24.42.01.84-.09 1.21-.3.36-.24.63-.58.78-.98l1.12-2.5-8.27-18.44h7.59l3.94 11.27 3.91-11.27H137l-9.74 22.85a6.76 6.76 0 0 1-2.82 3.4 8.45 8.45 0 0 1-4.17.99c-.94 0-1.88-.1-2.8-.32-.83-.2-1.64-.48-2.43-.83l1.77-4.66Z"/></svg>