<svg xmlns="http://www.w3.org/2000/svg" width="150" height="120" fill="none"><rect width="150" height="120" fill="#000" rx="6"/><rect width="149.5" height="119.5" x=".25" y=".25" stroke="#fff" stroke-opacity=".2" stroke-width=".5" rx="5.75"/><path fill="#fff" d="M20.988 50.155a12.677 12.677 0 0 1 1.696-.373 13.5 13.5 0 0 1 2.061-.14 9.174 9.174 0 0 1 3.793.752 8.086 8.086 0 0 1 2.816 2.041 9.039 9.039 0 0 1 1.734 3.102c.401 1.224.6 2.504.589 3.79a12.187 12.187 0 0 1-.819 4.666 8.552 8.552 0 0 1-2.297 3.26 9.66 9.66 0 0 1-3.492 1.918c-1.431.433-2.92.647-4.417.632a22.691 22.691 0 0 1-4.753-.454A27.839 27.839 0 0 1 14 68.222V43h6.988v7.155Zm0 14.313a6.54 6.54 0 0 0 1.838.239c1.11.036 2.179-.42 2.915-1.245.746-.832 1.118-2.104 1.116-3.817 0-1.662-.366-2.887-1.099-3.676a3.615 3.615 0 0 0-2.773-1.187c-.35-.003-.698.03-1.04.1a8.315 8.315 0 0 0-.957.256v9.33ZM41.313 61.027c.053 1.167.432 2.07 1.14 2.709a3.824 3.824 0 0 0 2.694.97c.779.021 1.552-.142 2.255-.474a5.429 5.429 0 0 0 1.738-1.458l4.273 3.32a9.429 9.429 0 0 1-1.473 1.459 9.895 9.895 0 0 1-4.314 1.959c-1.02.19-2.057.283-3.095.274a11.728 11.728 0 0 1-3.893-.633 8.719 8.719 0 0 1-5.33-5 11.078 11.078 0 0 1-.798-4.374c-.026-1.464.232-2.92.76-4.289a9.25 9.25 0 0 1 2.061-3.183 8.61 8.61 0 0 1 3.172-1.992 11.231 11.231 0 0 1 3.934-.673c2.902 0 5.21.929 6.926 2.787 1.716 1.858 2.587 4.724 2.615 8.598H41.313Zm6.11-3.676a3.92 3.92 0 0 0-.94-2.429 2.585 2.585 0 0 0-1.975-.892 2.854 2.854 0 0 0-2.097.924 3.923 3.923 0 0 0-1.06 2.411l6.072-.014ZM53.81 54.902v-4.823h2.757v-4.866h6.987v4.866h2.963l1.726 4.823h-4.688v7.746c-.021.523.053 1.046.217 1.543.148.37.474.554.981.554.475-.001.943-.109 1.37-.315.415-.197.81-.436 1.177-.712l1.797 4.19a10.414 10.414 0 0 1-2.854 1.385 12.184 12.184 0 0 1-3.575.472 8.082 8.082 0 0 1-2.895-.454 4.714 4.714 0 0 1-1.896-1.283 4.845 4.845 0 0 1-1.019-2.018 10.941 10.941 0 0 1-.294-2.647v-8.456l-2.754-.005ZM74.512 69.372l-8.634-24.168h6.755L77.64 60.32l2.995-10.24h4.541l2.995 10.24 2.874-10.24h7.147l-6.909 19.293h-5.35l-3.075-10.123-3.033 10.123h-5.312ZM109.151 69.372l-.559-1.505c-.63.56-1.361.997-2.156 1.286a8.591 8.591 0 0 1-3.154.534 7.782 7.782 0 0 1-2.517-.394 5.756 5.756 0 0 1-2.015-1.166 5.419 5.419 0 0 1-1.34-1.837 5.948 5.948 0 0 1-.477-2.452 5.248 5.248 0 0 1 2.015-4.31 8.11 8.11 0 0 1 2.179-1.224c.848-.324 1.732-.55 2.632-.673.854-.132 1.644-.23 2.377-.292a51.233 51.233 0 0 1 2.017-.14v-.478c0-.793-.253-1.37-.76-1.75a2.963 2.963 0 0 0-1.796-.553 5.508 5.508 0 0 0-2.176.434 8.87 8.87 0 0 0-1.961 1.195l-3.13-3.425a12.568 12.568 0 0 1 3.574-2.175 12.78 12.78 0 0 1 4.733-.79c2.552 0 4.587.613 6.107 1.84 1.519 1.226 2.278 3.13 2.276 5.71v12.165h-5.869Zm-.998-8.747c-.4.026-.798.058-1.198.1-.401.04-.813.098-1.237.177-.825.131-1.414.414-1.767.848-.34.411-.523.927-.518 1.458-.015.518.2 1.017.589 1.365.448.378 1.028.57 1.616.533.469.006.936-.074 1.375-.236.409-.156.792-.37 1.14-.633v-3.612Z"/><path fill="#fff" d="M116.808 71.506c.419.229.861.415 1.319.554.45.148.921.228 1.396.236.425.015.847-.086 1.219-.291.355-.244.626-.589.777-.989l1.119-2.49-8.266-18.447h7.586l3.943 11.266 3.914-11.266H137l-9.741 22.85c-.691 1.605-1.63 2.739-2.816 3.4a8.452 8.452 0 0 1-4.172.988 11.66 11.66 0 0 1-2.795-.315 14.947 14.947 0 0 1-2.435-.831l1.767-4.665Z"/></svg>