<svg xmlns="http://www.w3.org/2000/svg" width="150" height="120" fill="none"><path fill="#22262A" d="M0 0h150v120H0z"/><g clip-path="url(#a)"><path fill="#fff" d="M29.14 65.24h14.477l-1.605 5.25H24.82c-2.563 0-4.398-2.479-3.65-4.931l4.91-16.053h7.872L29.14 65.24Zm25.088-3.024h13.267a9.893 9.893 0 0 1 .026-2.214c.093-.758.268-1.494.52-2.214H55.58l.925-3.023H69.62a15.198 15.198 0 0 1 2.814-2.976l.694-2.274h-22.89L45.33 65.567c-.75 2.453 1.086 4.93 3.649 4.93h17.734l1.605-5.25H53.3l.928-3.03v-.001Zm65.344-12.705-3.521 11.513c-2.21-3.278-4.42-6.557-6.634-9.831a3.802 3.802 0 0 0-3.159-1.683h-4.981c-.741 2.427-1.487 4.854-2.227 7.285a9.699 9.699 0 0 1 .132 3.206c-.294 2.376-1.405 4.598-3.096 6.493-.41 1.333-.813 2.666-1.222 3.998h7.873l3.56-11.64c2.618 3.878 5.232 7.761 7.85 11.64h6.886c2.137-6.995 4.274-13.99 6.412-20.982l-7.873.001Zm-22.29 10.487c-.744 6.076-7.587 10.998-15.28 10.998-7.694 0-13.327-4.926-12.582-10.998C70.165 53.926 77.007 49 84.7 49c7.695 0 13.327 4.926 12.582 10.998ZM83.995 54.76c-3.666 0-6.923 2.346-7.28 5.237-.354 2.895 2.328 5.237 5.99 5.237 3.666 0 6.923-2.346 7.28-5.237.359-2.891-2.324-5.237-5.99-5.237Z"/></g><defs><clipPath id="a"><path fill="#fff" d="M21 49h107v22H21z"/></clipPath></defs></svg>