<svg xmlns="http://www.w3.org/2000/svg" width="150" height="120" fill="none"><path fill="#0B1526" d="M0 0h150v120H0z"/><path fill="#EB622B" d="M18 73h113v-3.55H18v3.56Z"/><path fill="#fff" d="M111.02 47.13h-4.38v18.08h11.45v-4.13h-7.07V47.13ZM131 51.14v-4h-11.8V65.2H131V61.2h-7.44v-3.07H131v-4h-7.44v-2.98H131ZM24.93 47.13H18V65.2h4.38v-4.75h2.53c4.32 0 7.02-3.07 7.02-6.7 0-3.6-2.72-6.6-7-6.6Zm-.17 9.33h-2.38v-5.38h2.38c1.57 0 2.75 1.1 2.75 2.7s-1.18 2.68-2.75 2.68ZM37.45 47.13h-4.4V65.2h4.4V47.13ZM51.14 57.96 43.4 47.13h-4.65v18.08h4.34V53.66l8.04 11.55h4.32V47.13h-4.32v10.83ZM81.24 46l-9.21 19.21h5.07l.93-1.97h6.74l.92 1.97h5.1L81.56 46h-.32Zm-1.48 13.5 1.65-3.56 1.64 3.55h-3.29ZM97.31 61.17a4.81 4.81 0 0 1-4.88-4.99c0-2.8 2.04-5.04 4.94-5.04 2 0 3.45 1.02 4.26 2.61l3.83-2.4a9.39 9.39 0 0 0-8.13-4.44 9.1 9.1 0 0 0-9.35 9.29v.06l3.55 7.38a9.53 9.53 0 0 0 5.8 1.85c3.9 0 6.87-2.1 8.42-5.1l-4.03-2.14a4.66 4.66 0 0 1-4.4 2.92ZM73.52 47.15h-4.34v10.8l-7.7-10.8H56.8v18.06h4.35V53.66l8.02 11.55h1.33l.18-.42 2.83-5.85V47.15Z"/></svg>