<svg xmlns="http://www.w3.org/2000/svg" width="150" height="120" fill="none"><path fill="#1A2C39" d="M0 0h150v120H0z"/><path fill="#fff" d="M32.29 49.76c-.03-6.4 4.12-9.95 11.74-9.98 5.48-.02 6.46 3.52 6.46 4.8 0 2.47-3.53 5.09-3.53 5.09s.2 1.53 3.22 1.52c3.04-.01 5.99-1.99 5.97-6.93-.01-5.68-6.04-8.28-12-8.26-4.98.02-18.2.7-18.15 13.67.04 11.5 22.04 12.52 22.06 19.9.03 8-9.06 10.15-12.14 10.15s-4.33-2.15-4.33-3.33c-.02-6.48 6.5-8.28 6.5-8.28 0-.49-.37-2.64-2.9-2.63-6.52 0-9.12 5.54-9.1 10.95.02 4.6 3.3 7.46 8.28 7.44 9.5-.03 20.2-4.61 20.16-14.77-.03-9.5-22.21-11.99-22.24-19.34Z"/><path fill="#fff" d="M122.82 75.23c-.08-.19-.29-.14-.57.09-1.08.88-3.54 3.36-9.3 3.38-10.52.04-12.34-17.07-12.34-17.07s8-5.9 9.26-8.29c1.25-2.38-2.73-2.9-2.73-2.9s-5.6 6.74-9.57 8.7c.43-2.92 3.37-9.6 3.53-13.43.17-3.84-4.68-2.9-5.45-2.54 0 1.68-4.28 16.9-5.84 25.26-.92 1.45-2.23 3.1-3.4 3.11-.69 0-.94-1.25-.95-3.03 0-2.48 1.38-6.45 1.37-8.86 0-1.67-.77-1.77-1.44-1.76l-1.1.02c-1.7 0-1.15-1.45-2.69-1.44-4.72.02-10.73 5.11-11 12.8-1.6 1.04-3.82 2.35-4.96 2.35-1.2 0-1.5-1.09-1.5-2.03 0-1.66 2.72-11.5 2.72-11.5s3.45-.88 4.96-1.16c1.14-.22 1.47-.3 1.92-.85.44-.54 1.3-1.67 2-2.68.7-1.01.02-1.8-1.28-1.79-1.7 0-6.24 1.07-6.24 1.07s2.18-9.3 2.18-9.5c0-.18-.25-.28-.62-.28-.82 0-2.3.44-3.25.77-1.44.51-2.62 2.27-2.86 3.08-.24.82-1.87 7.2-1.87 7.2s-8.76 2.99-9.96 3.43a.18.18 0 0 0-.12.17c0 .08 1 3.87 3.05 3.86 1.47 0 5.8-1.75 5.8-1.75s-2.23 8.7-2.21 11.61c0 1.86.89 4.05 4.57 4.03 3.43 0 6.43-1.75 8.1-2.96a4.75 4.75 0 0 0 4.58 2.92c3.32 0 5.87-2.62 6.2-2.97.43 1 1.45 2.94 3.77 2.93 1.31 0 2.67-1.45 3.67-2.86-.02.3-.01.59.02.88.4 3.6 5.82 1.49 6.12.98.18-2.6.07-7.94 1.12-11.23 1.4 11.23 6.72 18.79 16.27 18.76 5.34-.02 8.08-1.54 9.22-2.79a3.82 3.82 0 0 0 .82-3.73Zm-45.83-3.71c-4.6.02 1.4-11.73 5.31-11.74 0 1.51-.08 11.72-5.31 11.74Z"/><path fill="#fff" d="M114.22 75.12c4.14-.02 7.35-2.7 7.94-3.58.76-1.14-.88-2.86-1.4-2.83-1.31 1.23-2.68 2.73-5.75 2.74-3.61.01-2.8-3.91-2.8-3.91s6.96.88 9.75-4.05c.9-1.58.93-3.77.57-4.7-.36-.95-2.38-2.69-5.6-2.42-3.95.32-8.93 4.4-10.03 9.28-.87 3.94.79 9.5 7.32 9.47Zm4.41-16.47c.65-.02.6 1.04.42 2.14-.25 1.5-2.33 5.32-6.32 5.17.27-2.22 3.24-7.22 5.9-7.31Z"/></svg>