<svg width="150" height="150" viewBox="0 0 150 150" fill="none" xmlns="http://www.w3.org/2000/svg">
<rect width="150" height="150" fill="#1B2B38"/>
<g clip-path="url(#clip0_61_2)">
<path d="M19.2986 48.0967C19.2663 40.6073 24.7404 36.4537 34.7903 36.4226C42.0223 36.4 43.3149 40.5422 43.3149 42.0475C43.3149 44.9306 38.6551 47.9892 38.6551 47.9892C38.6551 47.9892 38.9136 49.7859 42.9142 49.7718C46.9147 49.7576 50.8119 47.446 50.7892 41.6598C50.7698 35.0135 42.8172 31.9748 34.9551 32.0002C28.379 32.02 10.9388 32.8292 11.0002 47.9892C11.0584 61.4544 40.0834 62.6428 40.106 71.264C40.1448 80.6265 28.1496 83.1475 24.0909 83.1475C20.0322 83.1475 18.3809 80.6322 18.3744 79.2514C18.3453 71.6686 26.9637 69.5578 26.9637 69.5578C26.9637 68.992 26.4595 66.471 23.1214 66.4823C14.5225 66.4964 11.0972 72.9701 11.123 79.291C11.1456 84.6669 15.4855 88.0226 22.0389 87.9999C34.5705 87.9603 48.7017 82.6071 48.65 70.7179C48.6048 59.5983 19.3342 56.6953 19.2986 48.0967Z" fill="white"/>
<path d="M138.763 77.8876C138.662 77.6754 138.381 77.7263 138.01 77.9951C136.588 79.0222 133.337 81.9308 125.73 81.9563C111.861 82.0015 109.453 61.9863 109.453 61.9863C109.453 61.9863 120.023 55.0769 121.675 52.2899C123.326 49.5029 118.071 48.8946 118.071 48.8946C118.071 48.8946 110.678 56.7717 105.436 59.0805C106.005 55.6541 109.883 47.8449 110.106 43.3546C110.329 38.8643 103.931 39.9593 102.909 40.3894C102.909 42.3502 97.2576 60.15 95.1992 69.9341C93.9874 71.6318 92.2553 73.5727 90.7042 73.5756C89.8059 73.5756 89.4763 72.1184 89.4666 70.0303C89.4666 67.133 91.2891 62.4899 91.2762 59.669C91.2762 57.7167 90.2518 57.6007 89.3696 57.6035C89.179 57.6035 88.119 57.629 87.9251 57.629C85.6631 57.629 86.4064 55.9313 84.3705 55.9483C78.1403 55.9681 70.2038 61.924 69.858 70.9131C67.7543 72.1326 64.8105 73.6689 63.3079 73.6746C61.7309 73.6746 61.3399 72.3985 61.3367 71.2951C61.3367 69.3569 64.9171 57.8412 64.9171 57.8412C64.9171 57.8412 69.4767 56.8169 71.4673 56.4802C72.9732 56.2228 73.4062 56.1266 73.9911 55.49C74.576 54.8533 75.7199 53.5377 76.6441 52.355C77.5683 51.1723 76.6603 50.2584 74.9508 50.264C72.7082 50.264 66.7074 51.509 66.7074 51.509C66.7074 51.509 69.5898 40.6271 69.5866 40.4064C69.5834 40.1857 69.2634 40.0697 68.7755 40.0725C67.6833 40.0725 65.7347 40.5874 64.4873 40.9779C62.5775 41.5749 61.0232 43.6234 60.7098 44.5769C60.3963 45.5304 58.2377 52.9972 58.2377 52.9972C58.2377 52.9972 46.6787 56.4916 45.0986 57.015C45.0514 57.0292 45.0105 57.0559 44.9815 57.0914C44.9526 57.1269 44.937 57.1694 44.937 57.2131C44.937 57.3036 46.2587 61.7401 48.9698 61.7231C50.9087 61.7231 56.6058 59.6803 56.6058 59.6803C56.6058 59.6803 53.6781 69.8662 53.6975 73.2615C53.6975 75.4401 54.8705 77.9923 59.7306 77.9781C64.2547 77.9781 68.2132 75.9325 70.43 74.5093C71.6418 77.1944 74.5049 77.93 76.4599 77.9244C80.8418 77.9244 84.2154 74.8629 84.6484 74.4527C85.2172 75.6297 86.5582 77.8904 89.6217 77.8819C91.3537 77.8819 93.1472 76.1843 94.4689 74.5376C94.4438 74.8798 94.4492 75.2232 94.485 75.5646C95.015 79.7861 102.173 77.3047 102.564 76.7162C102.806 73.6633 102.654 67.4216 104.047 63.5679C105.895 76.7134 112.908 85.5553 125.514 85.5157C132.561 85.493 136.177 83.719 137.674 82.2562C138.274 81.6743 138.691 80.9651 138.882 80.1987C139.073 79.4324 139.032 78.6357 138.763 77.8876ZM78.2792 73.5529C72.2267 73.5727 80.1309 59.8359 85.2947 59.819C85.3012 61.5902 85.1881 73.5331 78.2792 73.5529Z" fill="white"/>
<path d="M127.417 77.763C132.881 77.7461 137.111 74.5969 137.887 73.5727C138.889 72.24 136.723 70.2283 136.035 70.2623C134.31 71.7081 132.506 73.4567 128.457 73.468C123.691 73.485 124.77 68.8928 124.77 68.8928C124.77 68.8928 133.944 69.9312 137.632 64.1564C138.811 62.3088 138.859 59.7538 138.384 58.6532C137.909 57.5525 135.24 55.5154 130.994 55.8238C125.778 56.2086 119.206 60.9705 117.761 66.6887C116.601 71.2893 118.795 77.7913 127.417 77.763ZM133.233 58.4947C134.093 58.4693 134.016 59.7086 133.786 61.0044C133.463 62.7615 130.706 67.2291 125.446 67.0537C125.811 64.4535 129.724 58.5966 133.243 58.4947H133.233Z" fill="white"/>
</g>
<defs>
<clipPath id="clip0_61_2">
<rect width="128" height="56" fill="white" transform="translate(11 32)"/>
</clipPath>
</defs>
</svg>
