<svg width="44" height="44" viewBox="0 0 44 44" fill="none" xmlns="http://www.w3.org/2000/svg">
<path d="M9.1665 9.1665H32.9998C34.4585 9.1665 35.8575 9.74597 36.8889 10.7774C37.9204 11.8089 38.4998 13.2078 38.4998 14.6665V31.1665C38.4998 32.6252 37.9204 34.0241 36.8889 35.0556C35.8575 36.087 34.4585 36.6665 32.9998 36.6665H9.1665C7.70781 36.6665 6.30887 36.087 5.27742 35.0556C4.24597 34.0241 3.6665 32.6252 3.6665 31.1665V14.6665C3.6665 13.2078 4.24597 11.8089 5.27742 10.7774C6.30887 9.74597 7.70781 9.1665 9.1665 9.1665ZM9.1665 10.9998C8.24984 10.9998 7.44317 11.3115 6.81984 11.8615L21.0832 21.0832L35.3465 11.8615C34.7232 11.3115 33.9165 10.9998 32.9998 10.9998H9.1665ZM21.0832 23.3015L5.73817 13.3465C5.5915 13.7498 5.49984 14.2082 5.49984 14.6665V31.1665C5.49984 32.139 5.88615 33.0716 6.57378 33.7592C7.26141 34.4469 8.19404 34.8332 9.1665 34.8332H32.9998C33.9723 34.8332 34.9049 34.4469 35.5926 33.7592C36.2802 33.0716 36.6665 32.139 36.6665 31.1665V14.6665C36.6665 14.2082 36.5748 13.7498 36.4282 13.3465L21.0832 23.3015Z" fill="white"/>
</svg>
