<svg xmlns="http://www.w3.org/2000/svg" width="28" height="28" viewBox="0 0 24 24"><path fill="#f0f3ff" d="m4.3 6 7.7 5 7.7-5zm.32 13q-.67 0-1.15-.47Q3 18.04 3 17.38V6.6q0-.66.47-1.14Q3.96 5 4.63 5h14.77q.66 0 1.13.47.48.48.48 1.14v4.93l-.5.5-.5.5V6.9l-7.55 4.94q-.1.07-.45.13-.13 0-.23-.03-.11-.03-.22-.1L4 6.88v10.5q0 .27.17.45t.45.17H9.4l1 1zm10.87.85 5.33-5.33q.14-.14.35-.15.2-.01.36.15t.16.35-.16.36l-5.48 5.47q-.24.25-.56.25-.32 0-.57-.25l-2.63-2.64q-.14-.14-.15-.34-.01-.2.15-.36.16-.16.35-.16.2 0 .35.16z"/></svg>