<svg xmlns="http://www.w3.org/2000/svg" width="28" height="28" viewBox="0 0 24 24"><path fill="#f0f3ff" d="M4.308 6L12 11l7.692-5zm.31 13q-.668 0-1.143-.475Q3 18.051 3 17.385V6.615q0-.666.475-1.14Q3.949 5 4.615 5h14.77q.666 0 1.14.475q.475.474.475 1.14v4.927l-.5.5l-.5.5V6.885l-7.552 4.944q-.094.07-.448.13q-.125 0-.234-.027q-.108-.028-.214-.103L4 6.885v10.5q0 .269.173.442t.442.173H9.4l1 1zm10.87.854l5.335-5.335q.14-.14.344-.15q.204-.01.364.15t.16.354t-.16.354l-5.477 5.477q-.242.242-.566.242q-.323 0-.565-.242l-2.638-2.639q-.14-.14-.15-.344q-.01-.204.15-.363q.16-.16.353-.16q.195 0 .354.16z"/></svg>