<svg xmlns="http://www.w3.org/2000/svg" width="44" height="44" fill="none"><path fill="#fff" d="M37.13 14.44h-6.2V8.25a2.06 2.06 0 0 0-2.05-2.06h-22A2.06 2.06 0 0 0 4.8 8.25v22a.69.69 0 0 0 1.12.53l6.62-5.34h.51v6.18a2.06 2.06 0 0 0 2.06 2.07h16.33l6.62 5.34a.69.69 0 0 0 1.12-.53v-22a2.06 2.06 0 0 0-2.06-2.06ZM12.3 24.06c-.15 0-.3.06-.43.16L6.2 28.8V8.25a.69.69 0 0 1 .68-.69h22a.69.69 0 0 1 .7.69v15.13a.69.69 0 0 1-.7.68H12.3Zm25.51 13-5.68-4.6a.69.69 0 0 0-.43-.15H15.13a.69.69 0 0 1-.7-.69v-6.18h14.45a2.06 2.06 0 0 0 2.06-2.07v-7.56h6.18a.69.69 0 0 1 .7.69v20.56Z"/></svg>