<svg xmlns="http://www.w3.org/2000/svg" width="44" height="44" fill="none"><path fill="#fff" d="m37.95 27.87-8.12-3.64a2.06 2.06 0 0 0-2.02.22l-4.26 3.64a.68.68 0 0 1-.64.03 16.56 16.56 0 0 1-7.03-6.97.67.67 0 0 1 .03-.63l3.65-4.34.05-.06a2.06 2.06 0 0 0 .17-1.95l-3.64-8.1a2.06 2.06 0 0 0-2.15-1.24 8.98 8.98 0 0 0-7.8 8.92 24.09 24.09 0 0 0 24.06 24.06 8.98 8.98 0 0 0 8.92-7.8 2.06 2.06 0 0 0-1.22-2.14Zm-.14 1.96a7.6 7.6 0 0 1-7.56 6.6A22.71 22.71 0 0 1 7.56 13.76a7.6 7.6 0 0 1 6.69-7.56.69.69 0 0 1 .63.43l3.63 8.1a.69.69 0 0 1-.04.62l-3.64 4.33-.05.06a2.06 2.06 0 0 0-.14 2.02 17.8 17.8 0 0 0 7.67 7.61 2.06 2.06 0 0 0 2.02-.15l.07-.04 4.27-3.63a.68.68 0 0 1 .6-.05l8.12 3.64a.69.69 0 0 1 .42.7Z"/></svg>