<svg width="150" height="150" viewBox="0 0 150 150" fill="none" xmlns="http://www.w3.org/2000/svg">
<rect width="150" height="150" fill="#F63F00"/>
<path d="M64.3091 49.489C67.7584 49.489 69.3474 52.4341 68.6935 57.8241C68.3617 60.531 67.3284 62.8384 65.8817 64.1033C67.2615 65.2757 67.9546 67.5373 67.5361 71.0158C66.7939 76.9227 64.3059 79.6399 60.6342 79.6399H53L56.7697 49.489H64.3091ZM60.4413 74.0832C61.7491 74.0832 62.56 73.0774 62.8804 70.6491C63.2008 68.2208 62.609 67.215 61.3045 67.215H59.2316L58.3718 74.0832H60.4413ZM61.9453 61.5583C63.0275 61.5583 63.7664 60.3469 64.0149 58.2965C64.2862 56.1571 63.8416 55.0291 62.7561 55.0291H60.7617L59.9476 61.5583H61.9453ZM82.3207 49.489C82.3673 50.4183 82.3342 51.3542 82.2226 52.2674C82.0899 53.3473 81.8698 54.3907 81.5687 55.3681H74.8663L74.1045 61.4805H79.5743C79.6183 62.4338 79.5853 63.3929 79.4762 64.3311C79.3487 65.35 79.1408 66.335 78.8583 67.2595H73.4015L72.5907 73.7109H79.5384C79.5876 74.6791 79.5457 75.6546 79.4141 76.6004C79.303 77.6527 79.0956 78.6689 78.7995 79.6121H67.1666L70.9396 49.489H82.3207ZM96.8306 49.489C96.8637 50.5866 96.8053 51.6866 96.6573 52.7564C96.519 53.9084 96.2995 55.0278 96.0034 56.0904H91.8283L88.9218 79.2732C88.134 79.5277 87.3337 79.6542 86.5318 79.651C85.7627 79.6816 84.9943 79.5547 84.2431 79.2732L87.1497 56.0738H82.834C82.7848 54.9927 82.8355 53.9052 82.9844 52.8509C83.1178 51.6967 83.3376 50.5762 83.6383 49.5168L96.8306 49.489ZM102.608 49.489C103.594 49.4394 104.58 49.566 105.55 49.8669L107.273 79.2732C106.464 79.5573 105.638 79.6841 104.811 79.651C104.074 79.6891 103.336 79.5621 102.618 79.2732L102.32 73.7498H96.6181L94.9441 79.2732C94.1821 79.5453 93.4046 79.6721 92.6261 79.651C91.8982 79.679 91.171 79.552 90.4617 79.2732L99.5279 49.878C100.546 49.5928 101.576 49.4626 102.608 49.489ZM101.571 56.4405C101.257 58.2053 100.844 59.9153 100.339 61.5472L98.2725 68.2486H102.016L101.669 61.5472C101.581 59.8482 101.581 58.1394 101.669 56.4405H101.571ZM114.649 65.4869C114.395 62.8848 114.271 60.2507 114.28 57.613H114.139C113.981 60.4141 113.726 63.1972 113.377 65.9481L111.726 79.2843C111.041 79.5667 110.336 79.6938 109.631 79.6621C108.991 79.7158 108.35 79.5881 107.734 79.2843L111.406 49.8891C112.449 49.5902 113.506 49.4562 114.564 49.489C115.55 49.4294 116.537 49.5561 117.507 49.8669L118.939 63.4753C119.171 66.3348 119.286 69.2183 119.282 72.105H119.38C119.38 72.105 119.707 67.6207 120.292 62.9752L121.927 49.8669C122.615 49.6099 123.318 49.4831 124.023 49.489C124.671 49.4502 125.319 49.5776 125.945 49.8669L122.251 79.2732C121.234 79.5709 120.202 79.6974 119.171 79.651C118.165 79.6839 117.159 79.5574 116.166 79.2732L114.649 65.4869ZM134.845 48.9333C139.602 48.9333 141.992 54.3345 140.612 65.2646C139.232 76.1947 135.832 80.1733 131.052 80.1733C126.272 80.1733 123.948 74.9222 125.311 63.9921C126.665 53.1843 130.091 48.9333 134.845 48.9333ZM134.155 54.9235C132.406 54.9235 131.173 56.7628 130.189 64.5533C129.205 72.3439 130.016 74.1443 131.765 74.1443C133.514 74.1443 134.773 72.305 135.734 64.5533C136.695 56.8017 135.953 54.9457 134.155 54.9457V54.9235Z" fill="white"/>
<path opacity="0.1" d="M123.931 49.2296C123.338 49.0069 122.724 48.9088 122.109 48.9385C121.44 48.934 120.773 49.0316 120.119 49.2296L119.008 56.5067L122.857 56.237L123.931 49.2296ZM134.903 48.9334C130.969 48.9334 127.941 51.1282 126.229 56.5067L131.368 56.1785C132.145 54.1371 133.066 53.5362 134.209 53.5362C135.351 53.5362 136.036 54.0732 136.184 55.8589L141 55.5435C140.592 51.1453 138.38 48.9334 134.903 48.9334ZM79.3687 58.2857H74.3352L75.0392 53.5185H81.207C81.4828 52.7555 81.6853 51.9419 81.8088 51.1003C81.9085 50.3875 81.9389 49.6582 81.899 48.9334H71.4107L69.771 60.0409L79.3808 59.3042C79.3891 58.9646 79.3851 58.6247 79.3687 58.2857ZM69.6189 57.0913C70.3088 51.805 68.6323 48.9334 64.9931 48.9334H57.0386L55 64.08L66.7662 63.1391C68.2355 61.8839 69.2792 59.6712 69.6189 57.0913ZM64.6792 57.5427C64.4205 59.5496 63.6444 60.7352 62.4957 60.7352H60.3915L61.2504 54.372H63.3581C64.4998 54.372 64.969 55.4597 64.6827 57.5536L64.6792 57.5427ZM92.7067 54.6632H97.1223C97.4342 53.7408 97.6654 52.7692 97.8112 51.7693C97.9652 50.8403 98.0254 49.8857 97.9903 48.9334H84.0924C83.7764 49.8534 83.545 50.8257 83.4036 51.8272C83.2487 52.7428 83.1964 53.6865 83.2486 54.6246H87.7916L86.9615 60.0409L91.9455 59.6888L92.7067 54.6632ZM113.938 57.3597H114.045C114.045 57.3597 114.045 58.2573 114.064 59.6612L117.695 59.2929L116.826 49.3391C115.992 49.0181 115.143 48.8869 114.295 48.9478C113.386 48.9071 112.478 49.038 111.581 49.3391L110.473 60.0409L113.806 59.6957C113.907 58.24 113.938 57.3597 113.938 57.3597ZM101.101 55.4065H101.195C101.119 56.7964 101.11 58.1939 101.167 59.5862L105.55 59.2194L104.953 49.2943C104.017 49.0149 103.065 48.8971 102.114 48.943C101.118 48.9151 100.124 49.0326 99.1414 49.2943L95.7023 60.0409L100.075 59.6741C100.49 58.3015 100.833 56.8739 101.101 55.4065Z" fill="white"/>
<path d="M47.2547 70.3365C47.0856 69.6936 46.8862 69.0724 46.6582 68.478C46.3709 67.7457 46.0553 67.0438 45.7492 66.3367C45.6166 66.0337 45.4683 65.7156 45.342 65.3621C45.1618 64.7748 45.2137 64.073 45.4746 63.5693C47.949 57.9333 47.7092 52.3276 47.0874 49.0854C46.2763 44.8635 43.7229 40.6517 40.5004 37.5358C38.3917 35.5261 36.1629 33.858 33.8472 32.5563C32.1864 31.5672 30.4744 30.8135 28.7311 30.3039C27.5655 29.9424 26.3699 29.9031 25.1961 30.1878C23.536 30.4352 21.7875 30.9857 20.1557 31.4907C18.2462 32.0715 16.0527 32.5008 14.5346 34.6117C13.1364 36.5409 12.3189 39.369 11.8297 42.1617C10.9346 47.4292 10.3856 52.8318 10.1916 58.2818C9.97916 63.6804 9.94334 69.0931 10.0843 74.4978C10.1491 77.6446 10.3601 80.7792 10.7156 83.8759C11.1858 87.8554 12.0033 92.0016 13.534 95.2842C13.9443 96.1667 14.4335 96.9477 14.9859 97.6022C16.4188 99.2587 18.2368 99.5465 19.9442 99.799C23.2614 100.304 26.6953 101.966 29.9809 100.223C30.8488 99.8849 31.7136 99.496 32.5563 99.0415C34.1853 98.1587 35.7808 97.125 37.3348 95.9458C38.9818 94.711 40.5503 93.2244 42.0186 91.5067C43.4416 89.8658 44.7161 87.9182 45.806 85.7192C46.792 83.6356 47.4795 81.2305 47.8196 78.6743C47.8607 78.3763 47.9206 78.0733 47.9427 77.7703C48.1203 75.2388 47.8832 72.6769 47.2547 70.3365ZM29.4033 78.8359C28.8931 79.4363 28.3597 79.9845 27.8063 80.4772C26.3734 81.775 24.8489 83.1032 23.2551 83.8052C22.7167 84.0518 22.161 84.1892 21.6012 84.2143C21.4876 84.2143 20.405 84.184 20.3893 84.0577C18.3188 65.7358 20.3893 46.9593 20.3893 46.9593C20.5376 46.525 21.9674 46.924 22.1283 46.9593C23.3824 47.4018 24.6018 48.0657 25.7642 48.939C26.8582 49.6441 27.9085 50.5115 28.9015 51.5297C30.1166 52.8276 31.5779 54.9689 31.742 57.4485C31.8809 59.5544 31.4675 61.1805 30.8141 62.9733C30.5837 63.6046 30.145 64.3874 30.2208 65.1702C30.3091 66.1145 30.8047 66.8822 31.1424 67.6144C31.4492 68.2672 31.7027 68.98 31.8967 69.7355C32.812 73.407 31.1487 76.7704 29.4033 78.8359Z" fill="url(#paint0_linear_61_2)"/>
<path d="M47.2505 70.3278C47.0827 69.6858 46.8833 69.0662 46.6542 68.4748C46.3671 67.7376 46.0484 67.0358 45.7423 66.3239C45.5954 66.0062 45.4596 65.6758 45.3353 65.3343C45.1574 64.748 45.2066 64.0501 45.4615 63.5418C47.9352 57.9071 47.6954 52.3076 47.0738 49.0661C46.2661 44.8602 43.7168 40.6493 40.4891 37.534C38.3814 35.5238 36.1533 33.856 33.8381 32.5556C32.1787 31.5674 30.4684 30.8138 28.7268 30.3037C27.5606 29.9424 26.3644 29.9032 25.1899 30.1876C23.524 30.44 21.7824 31.0005 20.1544 31.5054C18.2424 32.086 16.0527 32.5506 14.5319 34.6257C12.9544 36.7817 12.3234 39.3719 11.8248 42.164C10.9328 47.4258 10.3861 52.8222 10.1937 58.2655C9.97995 63.668 9.94309 69.0847 10.0832 74.4933C10.1499 77.6459 10.3608 80.7864 10.7142 83.8896C11.1844 87.8683 11.9763 91.9682 13.5191 95.2703C13.9388 96.1581 14.4398 96.9394 15.0052 97.5878C16.4376 99.2439 18.255 99.5317 19.9619 99.7841C23.2811 100.289 26.7202 101.97 30.0046 100.228C30.8691 99.8902 31.7368 99.5064 32.5792 99.047C34.2092 98.1621 35.8062 97.1287 37.3624 95.9519C39.0034 94.7082 40.5661 93.2153 42.0288 91.4935C43.452 89.8543 44.7262 87.907 45.8149 85.7073C46.7966 83.6241 47.4806 81.2214 47.8184 78.6689C47.8594 78.371 47.9194 78.063 47.9446 77.76C48.119 75.2282 47.8798 72.6674 47.2505 70.3278ZM43.7799 86.1516C43.7799 86.1516 41.2558 91.3168 33.2039 96.2851C33.2039 96.2851 28.752 99.3146 26.1649 98.3553C24.043 97.8301 22.2305 95.6249 21.347 92.4933C21.347 92.4933 19.2962 88.0905 18.8734 68.8333C18.8734 68.8333 18.8734 48.3744 21.082 39.9828C21.082 39.9828 22.5302 32.3032 27.4932 32.5253C27.4932 32.5253 33.5573 32.9848 41.1611 40.8563C41.1611 40.8563 47.7364 46.4103 45.8244 57.9323C45.2881 60.0701 44.6011 62.1029 43.7767 63.9912C43.5466 64.5305 43.5793 65.2525 43.8556 65.7331C43.8556 65.7331 46.8719 71.0549 46.7488 75.9373C46.7488 75.9373 47.0801 81.3802 43.783 86.1516H43.7799Z" fill="#373531"/>
<path d="M47.2387 70.327C47.0693 69.6854 46.8689 69.0658 46.6394 68.474C46.3524 67.7419 46.037 67.0401 45.7279 66.3282C45.5812 66.0104 45.4454 65.6801 45.3211 65.3386C45.1528 64.7527 45.2145 64.0632 45.4788 63.5765C47.3839 59.3943 47.9666 54.0322 47.0557 49.0657C46.261 44.8598 43.6968 40.649 40.4798 37.5337C38.3717 35.5251 36.1434 33.8591 33.8281 32.5605C32.1698 31.5699 30.46 30.8163 28.7187 30.3086C27.5533 29.9429 26.3572 29.9019 25.1831 30.1874C23.5273 30.4399 21.7769 31.0054 20.1494 31.5103C18.2382 32.0859 16.0272 32.5201 14.5228 34.6255C12.7408 37.1248 12.3151 39.3716 11.823 42.1586C10.9313 47.4238 10.3848 52.8234 10.1924 58.27C9.9804 63.6708 9.94356 69.0855 10.0821 74.4924C10.1487 77.6383 10.3595 80.772 10.7128 83.8684C11.1828 87.8471 11.9997 91.9923 13.5293 95.2691C13.9422 96.1558 14.4367 96.9372 14.9959 97.5866C16.4278 99.2477 18.2476 99.5305 19.9508 99.788C23.2687 100.293 26.7065 101.969 29.9898 100.227C30.8539 99.894 31.7213 99.5052 32.5634 99.0508C34.1933 98.1664 35.7898 97.1313 37.3448 95.9507C38.9956 94.7263 40.5684 93.2484 42.041 91.5379C43.4639 89.8933 44.7376 87.9409 45.8257 85.7366C46.8082 83.6433 47.4919 81.2303 47.8285 78.668C47.8695 78.3701 47.9262 78.0671 47.9483 77.7642C48.1167 75.2286 47.8722 72.6665 47.2387 70.327ZM44.1037 87.0493C44.1037 87.0493 41.3376 92.3205 32.9955 97.4806C32.9955 97.4806 28.4317 100.459 25.7414 99.4598C23.5295 99.036 21.6162 96.7944 20.6951 93.5474C20.6951 93.5474 18.5693 88.973 18.1278 68.984C18.1278 68.984 18.1278 47.7277 20.4175 39.0383C20.4175 39.0383 21.881 31.2477 27.0408 31.4648C27.0408 31.4648 33.3708 31.7678 41.2619 39.9371C41.2619 39.9371 48.3016 45.91 46.3083 57.861C46.3083 57.861 45.9109 60.3855 44.4159 63.8037C44.4159 63.8037 44.0185 64.7226 44.2803 65.2629C44.2803 65.2629 47.4342 71.1601 47.3049 76.2445C47.3144 76.2596 47.5257 82.0962 44.1037 87.0493Z" fill="url(#paint1_linear_61_2)"/>
<path d="M46.3816 69.1006C46.1288 68.4967 45.8924 67.8826 45.6298 67.289C45.2621 66.4343 44.8682 65.8202 44.7336 64.7967C44.7226 64.2877 44.7973 63.783 44.9503 63.333C46.9922 58.7987 47.6652 56.2501 47.3795 52.33C46.5753 41.1939 35.6303 36.281 33.2076 35.0681C26.2545 31.6034 24.0419 35.6259 22.8404 41.6187C22.4768 43.2694 22.1958 44.9616 22 46.6801C22.1576 46.2144 23.6086 46.762 23.7727 46.8131C25.0654 47.2862 26.3254 47.9547 27.5348 48.809C28.6677 49.5222 29.7557 50.3977 30.7848 51.4242C32.0422 52.7343 33.5523 54.894 33.7394 57.3914C33.8838 59.5152 33.4571 61.158 32.7808 62.9645C32.5412 63.6094 32.0881 64.3975 32.1636 65.1805C32.2556 66.1324 32.7677 66.9154 33.1189 67.6472C33.4254 68.3144 33.6779 69.0381 33.8707 69.8017C34.8227 73.3841 33.1189 76.8897 31.3134 78.9726C30.7876 79.5705 30.2395 80.1191 29.672 80.6154C28.1881 81.9204 26.6124 83.2612 24.9611 83.9675C24.4034 84.2175 23.8276 84.3568 23.2475 84.382C23.1326 84.382 22.0525 84.3513 22.0131 84.2285C22.2889 86.5468 22.5384 88.1384 22.696 88.9777C23.8351 95.1189 25.7818 97.5959 29.2616 97.166C32.5083 96.7514 48 89.1977 48 75.9225C47.977 73.3688 47.2581 71.1682 46.3816 69.1006Z" fill="#FBB03B"/>
<path d="M23.0489 98.4562C20.0373 95.2063 19.066 89.2126 18.5542 84.1302C18.3662 82.2015 18.206 80.2728 18.0529 78.334C17.9484 76.8862 17.8579 75.4384 17.7883 73.9906C17.5316 69.0411 17.5094 64.0717 17.7221 59.1178C17.8022 57.4017 17.8927 55.6907 18.0111 53.9746C18.1678 51.727 18.3418 49.4794 18.6029 47.252C19.3654 40.7218 20.6919 33.0778 25.4059 30.4303C25.7508 30.2274 26.1106 30.083 26.4782 30C24.64 30.2632 22.9375 30.7239 21.134 31.2251C19.0451 31.8072 16.6985 32.2881 15.0413 34.3991C13.2309 36.7277 12.4928 39.1221 11.9497 41.9063C10.961 47.1996 10.3566 52.6289 10.1462 58.1054C9.95126 63.5402 9.95126 68.9861 10.1462 74.4209C10.2181 77.5516 10.4508 80.6702 10.8425 83.7505C11.3613 87.7446 12.1481 91.9614 13.8367 95.2519C14.2921 96.1393 14.8353 96.924 15.4487 97.5805C17.0328 99.2409 19.0381 99.5294 20.9217 99.7825C24.5808 100.289 28.3757 101.974 32 100.223C28.9676 101.296 25.6601 101.266 23.0489 98.4562Z" fill="url(#paint2_linear_61_2)"/>
<path opacity="0.7" d="M22 46.2465C22 46.2465 21.9814 41.7464 24.9246 34.9012C24.9246 34.9012 26.956 32.1161 32.5107 35.3512C33.8132 36.0262 39.6718 38.7463 43.0554 44.5064C43.0554 44.5064 44.4635 46.7815 45 49.4415L32.4269 56.5067C32.4207 56.4271 32.4104 56.3485 32.3959 56.2717C31.9959 54.3678 31.2175 52.7299 30.1815 51.6116C29.7521 51.0994 29.3036 50.6302 28.8386 50.2065L28.7052 50.1115C28.035 49.5218 27.3455 48.9911 26.6397 48.5215C26.6397 48.5215 23.6903 46.4115 22 46.2465Z" fill="url(#paint3_linear_61_2)"/>
<path opacity="0.85" d="M32 60.2933C32 60.2933 40.0236 58.7064 45.3884 58.7372C45.3884 58.7372 46.7597 56.132 46.9643 53.584C47.0738 52.0123 46.931 50.4279 46.5451 48.9333L32.9422 55.1578C33.0308 55.7385 33.0433 56.3348 32.9791 56.9211V57.1062C32.8228 58.2458 32.4895 59.3307 32 60.2933Z" fill="url(#paint4_linear_61_2)"/>
<path d="M45.1735 64.5876C45.1735 64.5876 46.77 62.1257 47 61.24L32.9957 63.0264C32.7132 63.7211 32.3802 64.39 32 65.0267L45.1735 64.5876Z" fill="url(#paint5_linear_61_2)"/>
<path opacity="0.85" d="M32.305 65.5451L44 64.08C43.7525 65.4331 43.6531 67.1475 43.7255 68.8134L32 68.6506C32.0381 67.5284 32.1429 66.462 32.305 65.5451Z" fill="#CC5827"/>
<path d="M32.0139 64.08L44.1357 64.1467C44.3803 65.0317 44.6881 65.8667 45.0527 66.6345C45.4214 67.568 46.7731 70.738 47 72.6C47 72.6 41.3282 70.7585 33.7658 69.4813C33.7658 69.4813 33.0285 66.8704 32.6063 66.1369C32.6252 66.1369 31.891 64.7879 32.0139 64.08Z" fill="url(#paint6_linear_61_2)"/>
<path opacity="0.85" d="M32.648 69.76C32.648 69.76 40.0345 70.761 46.7496 72.514C46.7496 72.514 47.8844 76.3776 45.3226 81.12L32 74.5069C32 74.5069 33.1986 72.3418 32.648 69.76Z" fill="url(#paint7_linear_61_2)"/>
<path d="M20.3364 82.1512L25 93.4267C24.2733 93.1162 23.6232 92.5825 23.1116 91.8763C22.6603 91.3182 22.2744 90.6858 21.9648 89.997C21.6302 89.2565 21.3488 88.4815 21.1239 87.6809C20.817 86.5967 20.5692 85.4887 20.3823 84.364C20.1606 83.119 20 82.0667 20 82.0667C20.1043 82.1301 20.2202 82.1593 20.3364 82.1512Z" fill="url(#paint8_linear_61_2)"/>
<path d="M22.8893 44.9694C22.8893 44.9694 22.9634 42.4679 24.4324 38.8142C25.2024 37.0842 26.0597 35.4056 27 33.7867C27 33.7867 25.0602 34.806 23.857 38.0608C23.2836 39.623 22.8087 41.229 22.4359 42.8668C22.2479 43.6155 22.1023 44.377 22 45.1467C22 45.1467 22.2267 44.8906 22.8893 44.9694Z" fill="url(#paint9_linear_61_2)"/>
<path opacity="0.85" d="M32.5838 74.4933L45 82.3617C45 82.3617 43.8943 85.305 41.2413 88.4156C40.9688 88.7397 40.6932 89.0583 40.4081 89.3661C39.8757 89.944 39.315 90.511 38.6698 91.1051C37.603 92.1036 36.505 92.9996 35.3809 93.7891C33.4948 95.1303 31.5429 96.1785 29.5487 96.9213C29.1008 97.0563 27.4657 97.6666 25.8213 96.5757L22 83.6146C22.5768 83.7032 23.1575 83.6851 23.7321 83.5606C24.2991 83.3716 25.2481 83.1178 27.4595 81.2114C28.1329 80.5904 29.652 79.1161 29.8306 78.9054C30.5896 78.0994 31.2836 77.1243 31.8947 76.0054C32.1495 75.5368 32.38 75.0309 32.5838 74.4933Z" fill="url(#paint10_linear_61_2)"/>
<defs>
<linearGradient id="paint0_linear_61_2" x1="10.912" y1="4928.12" x2="15222.5" y2="4928.12" gradientUnits="userSpaceOnUse">
<stop offset="0.06" stop-color="#F07422"/>
<stop offset="0.83" stop-color="#AF3424"/>
</linearGradient>
<linearGradient id="paint1_linear_61_2" x1="11.216" y1="4928.31" x2="15218.4" y2="4928.31" gradientUnits="userSpaceOnUse">
<stop offset="0.43" stop-color="#BDBEC0"/>
<stop offset="0.65" stop-color="white"/>
<stop offset="1" stop-color="#A8AAAD"/>
</linearGradient>
<linearGradient id="paint2_linear_61_2" x1="4406.48" y1="520.39" x2="4406.48" y2="10027.5" gradientUnits="userSpaceOnUse">
<stop stop-color="#595A5C" stop-opacity="0.4"/>
<stop offset="0.01" stop-color="#646667" stop-opacity="0.46"/>
<stop offset="0.03" stop-color="#858786" stop-opacity="0.62"/>
<stop offset="0.05" stop-color="#A1A3A1" stop-opacity="0.76"/>
<stop offset="0.07" stop-color="#B6B9B5" stop-opacity="0.86"/>
<stop offset="0.09" stop-color="#C5C9C3" stop-opacity="0.94"/>
<stop offset="0.11" stop-color="#CED2CC" stop-opacity="0.98"/>
<stop offset="0.13" stop-color="#D1D5CF"/>
<stop offset="0.48" stop-color="#D2D3D4"/>
<stop offset="0.69" stop-color="#424143" stop-opacity="0.1"/>
<stop offset="0.71" stop-color="#59595A" stop-opacity="0.26"/>
<stop offset="0.74" stop-color="#797B7A" stop-opacity="0.48"/>
<stop offset="0.78" stop-color="#949794" stop-opacity="0.67"/>
<stop offset="0.81" stop-color="#A8ADA8" stop-opacity="0.81"/>
<stop offset="0.84" stop-color="#B7BCB7" stop-opacity="0.92"/>
<stop offset="0.87" stop-color="#C0C6C0" stop-opacity="0.98"/>
<stop offset="0.89" stop-color="#C3C9C3"/>
<stop offset="1" stop-color="#373531"/>
</linearGradient>
<linearGradient id="paint3_linear_61_2" x1="4886.22" y1="1462.73" x2="3065.68" y2="3046.97" gradientUnits="userSpaceOnUse">
<stop stop-color="#E05926"/>
<stop offset="1" stop-color="#FBB03B"/>
</linearGradient>
<linearGradient id="paint4_linear_61_2" x1="-277.84" y1="1376.93" x2="5681.31" y2="229.055" gradientUnits="userSpaceOnUse">
<stop stop-color="#DB8B27"/>
<stop offset="1" stop-color="#BC4026"/>
</linearGradient>
<linearGradient id="paint5_linear_61_2" x1="3076.64" y1="-72.8959" x2="3073.58" y2="379.016" gradientUnits="userSpaceOnUse">
<stop stop-color="#E45B25"/>
<stop offset="1" stop-color="#FBB03B"/>
</linearGradient>
<linearGradient id="paint6_linear_61_2" x1="5753.48" y1="657.98" x2="-391.279" y2="563.642" gradientUnits="userSpaceOnUse">
<stop stop-color="#E45B25"/>
<stop offset="1" stop-color="#FBB03B"/>
</linearGradient>
<linearGradient id="paint7_linear_61_2" x1="-463.54" y1="406.043" x2="4958.36" y2="1391.77" gradientUnits="userSpaceOnUse">
<stop stop-color="#DB8B27"/>
<stop offset="1" stop-color="#BC4026"/>
</linearGradient>
<linearGradient id="paint8_linear_61_2" x1="67.4" y1="323.897" x2="2976.75" y2="745.006" gradientUnits="userSpaceOnUse">
<stop offset="0.06" stop-color="#EFA133"/>
<stop offset="0.83" stop-color="#F26222"/>
</linearGradient>
<linearGradient id="paint9_linear_61_2" x1="140.58" y1="1789.02" x2="1837.71" y2="1400.19" gradientUnits="userSpaceOnUse">
<stop offset="0.06" stop-color="#EFA133"/>
<stop offset="0.83" stop-color="#F26222"/>
</linearGradient>
<linearGradient id="paint10_linear_61_2" x1="5946.89" y1="2624.04" x2="4179.34" y2="1059.14" gradientUnits="userSpaceOnUse">
<stop stop-color="#E45B25"/>
<stop offset="1" stop-color="#FBB03B"/>
</linearGradient>
</defs>
</svg>
