<svg width="79" height="19" viewBox="0 0 79 19" fill="none" xmlns="http://www.w3.org/2000/svg">
<g clip-path="url(#clip0_122_31)">
<path fill-rule="evenodd" clip-rule="evenodd" d="M22.7541 4.04024e-09H19.4338V18.2326H22.7541V4.04024e-09ZM3.95826 14.4651L8.5532 4.39715L11.0802 9.92744L3.95826 14.4651ZM18.2782 18.2537L15.045 11.1789L18.195 9.17165L16.5799 6.42252L13.708 8.25256L10.5612 1.36535C10.3686 0.943281 10.0746 0.593312 9.71137 0.352678C9.34542 0.111088 8.92541 -0.0111385 8.49648 0.000797768C8.06704 0.0122566 7.65249 0.156924 7.29778 0.418566C6.95882 0.668748 6.68874 1.01824 6.51454 1.43076L0.208229 15.2491L0.193375 15.2864C-0.226145 16.3358 0.0515844 17.5246 0.884322 18.2456C1.70176 18.9531 2.82888 19.0133 3.70708 18.4036L12.4175 12.8537L14.8851 18.2542L18.2782 18.2537ZM28.0999 8.52553H33.0318C35.5711 8.52553 36.4256 7.11366 36.4256 5.52123C36.4256 3.9288 35.5711 2.61952 33.0562 2.61952H28.0999V8.52553ZM33.6668 4.04024e-09C38.4036 4.04024e-09 39.9172 2.67083 39.9172 5.49558C39.9172 7.62671 38.8674 9.83532 36.035 10.6059L40.503 18.2326H36.7427L32.5923 11.0681H28.0999V18.2326H24.7796V4.04024e-09H33.6668ZM40.9178 2.82475H47.2413V18.2326H50.5625V2.82475H56.8863V4.04024e-09H40.9178V2.82475ZM63.3 4.04024e-09H58.3924L58.3918 18.2326H61.3949V5.03334C61.3949 4.21147 61.3461 3.46656 61.2733 2.82475H61.3705C61.4683 3.31313 61.7126 4.26327 61.957 4.95638L66.8886 18.2331H70.0139L74.946 4.95638C75.2148 4.26277 75.5075 3.23568 75.5808 2.82475H75.6786C75.6053 3.4927 75.5564 4.28842 75.5564 5.03334V18.2326H78.6573V4.04024e-09H73.7013L69.0375 12.7113C68.7692 13.4814 68.6226 13.9436 68.5248 14.5603H68.4759C68.3896 14.0125 68.264 13.6066 68.0656 12.9637C68.0406 12.8835 68.015 12.7997 67.9877 12.7113L63.3 4.04024e-09Z" fill="#FDFDFD"/>
</g>
<defs>
<clipPath id="clip0_122_31">
<rect width="79" height="19" fill="white"/>
</clipPath>
</defs>
</svg>
