<svg xmlns="http://www.w3.org/2000/svg" width="79" height="19" fill="none"><g clip-path="url(#a)"><path fill="#FDFDFD" fill-rule="evenodd" d="M22.75 0h-3.32v18.23h3.32V0ZM3.95 14.47 8.56 4.4l2.53 5.53-7.12 4.54Zm14.33 3.78-3.24-7.07 3.16-2-1.62-2.76-2.87 1.83-3.15-6.88A2.4 2.4 0 0 0 9.71.35 2.1 2.1 0 0 0 7.3.42c-.34.25-.61.6-.79 1.01L.21 15.25l-.02.04a2.62 2.62 0 0 0 .7 2.96c.81.7 1.94.76 2.82.15l8.7-5.55 2.48 5.4h3.39Zm9.82-9.72h4.93c2.54 0 3.4-1.42 3.4-3 0-1.6-.86-2.91-3.37-2.91H28.1v5.9ZM33.67 0c4.73 0 6.25 2.67 6.25 5.5a5.02 5.02 0 0 1-3.89 5.1l4.47 7.63h-3.76l-4.15-7.16H28.1v7.16h-3.32V0h8.89Zm7.25 2.82h6.32v15.41h3.32V2.83h6.33V0H40.92v2.82ZM63.3 0h-4.9v18.23h3V5.03c0-.82-.05-1.56-.13-2.2h.1c.1.48.34 1.43.59 2.13l4.93 13.27H70l4.94-13.27c.26-.7.56-1.72.63-2.14h.1c-.07.67-.12 1.47-.12 2.21v13.2h3.1V0H73.7l-4.66 12.71a9.92 9.92 0 0 0-.52 1.85h-.04c-.09-.55-.22-.95-.41-1.6l-.08-.25L63.3 0Z" clip-rule="evenodd"/></g><defs><clipPath id="a"><path fill="#fff" d="M0 0h79v19H0z"/></clipPath></defs></svg>