<svg xmlns="http://www.w3.org/2000/svg" width="44" height="45" fill="none"><path fill="#2FABF7" d="M4.06 18.72h1.5l-.75-1.93-.75 1.93Z"/><path fill="#228FE0" d="M22.82 17.07c-.13-.07-.34-.07-.55-.07H20.9v1.1h1.37c.21 0 .42 0 .55-.07.14-.07.21-.27.21-.48.07-.28-.07-.41-.2-.48Z"/><path fill="#0571C1" d="M37.54 15v.83l-.41-.82h-3.24v.82l-.4-.82h-4.4c-.77 0-1.38.13-1.93.4v-.4h-3.1v.4a1.98 1.98 0 0 0-1.3-.4H11.69l-.76 1.72-.75-1.72H6.67v.82l-.41-.82H3.3l-1.37 3.23L.33 21.8h3.51l.41-1.1h.96l.42 1.1h3.99V21l.34.82h2l.34-.82v.82h9.55v-1.78H22c.14 0 .14 0 .14.2v1.51h4.95v-.4c.41.2 1.03.4 1.85.4h2.07l.4-1.1h.97l.41 1.1h4v-1.03l.61 1.03h3.23v-6.73h-3.1ZM14.3 20.79h-1.17V17l-1.65 3.78h-1.03L8.8 17v3.78H6.46l-.48-1.03H3.64l-.4 1.1H1.91L4 15.97H5.7l1.92 4.6v-4.6H9.5l1.51 3.3 1.38-3.3h1.92v4.81ZM18.98 17h-2.69v.9h2.62v.96h-2.62v.96h2.69v1.03h-3.86v-4.88h3.86V17Zm5.15 2c.14.27.2.48.2.89v.96h-1.16v-.62c0-.27 0-.69-.2-.96-.21-.2-.42-.2-.83-.2H20.9v1.78h-1.17v-4.88h2.61c.62 0 1.04 0 1.38.2.34.21.55.56.55 1.1 0 .76-.48 1.17-.83 1.31.35.07.55.28.7.41Zm2.06 1.78h-1.17V15.9h1.17v4.88Zm13.55 0h-1.65l-2.2-3.64v3.64h-2.34l-.41-1.03h-2.4l-.42 1.1h-1.3c-.56 0-1.25-.14-1.66-.55-.41-.41-.62-.96-.62-1.86 0-.68.14-1.37.62-1.92.35-.41.96-.55 1.72-.55h1.1V17h-1.1c-.41 0-.62.07-.9.28-.2.2-.34.61-.34 1.1 0 .55.07.89.35 1.16.2.21.48.28.82.28h.48l1.59-3.78h1.71l1.93 4.6v-4.6h1.72l2 3.37v-3.37h1.16v4.74h.14Z"/><path fill="#228FE0" d="M31.14 18.72h1.59l-.76-1.93-.83 1.93Zm-11.68 9.9V24.7l-1.8 1.92 1.8 2Z"/><path fill="#2FABF7" d="M12.1 25.18v.9h2.54v.96H12.1v1.03h2.82l1.3-1.45L15 25.18H12.1Z"/><path fill="#228FE0" d="M22.07 25.18h-1.45v1.24h1.52c.41 0 .68-.2.68-.62-.06-.41-.34-.62-.75-.62Z"/><path fill="#0571C1" d="M43.31 26.35v-3.1h-2.89c-.61 0-1.1.14-1.44.42v-.41h-3.16c-.48 0-1.1.13-1.38.4v-.4h-5.57v.4c-.4-.33-1.16-.4-1.5-.4h-3.72v.4c-.34-.33-1.17-.4-1.58-.4h-4.13l-.96 1.03-.9-1.03H9.9v6.73h6.05l.96-1.03.9 1.03h3.7v-1.58H22c.48 0 1.1 0 1.58-.2v1.85h3.1v-1.78h.13c.2 0 .2 0 .2.2v1.58h9.36a2.7 2.7 0 0 0 1.58-.41v.41h2.96c.61 0 1.23-.07 1.65-.34a2.34 2.34 0 0 0 1.1-2.06c0-.48-.14-.97-.35-1.31ZM22 27.45h-1.38v1.65h-2.2l-1.37-1.58-1.44 1.58h-4.54v-4.88h4.6l1.38 1.58 1.44-1.58h3.65c.9 0 1.92.27 1.92 1.58-.07 1.38-1.03 1.65-2.06 1.65Zm6.87-.27c.14.2.21.48.21.89v.96h-1.17v-.62c0-.27 0-.75-.2-.96-.14-.2-.42-.2-.83-.2h-1.24v1.78h-1.17v-4.88h2.62c.55 0 1.03 0 1.37.2.35.21.62.56.62 1.1 0 .76-.48 1.18-.82 1.31.34.14.55.28.61.42Zm4.75-2h-2.68v.9h2.61v.96h-2.61V28h2.68v1.03h-3.85v-4.88h3.85v1.03Zm2.89 3.85h-2.2V28h2.2c.2 0 .34 0 .48-.14.07-.07.13-.2.13-.34a.52.52 0 0 0-.13-.34c-.07-.07-.2-.14-.42-.14-1.1-.07-2.4 0-2.4-1.51 0-.7.41-1.45 1.65-1.45h2.27v1.17h-2.13c-.21 0-.35 0-.49.07-.13.07-.13.2-.13.34 0 .2.13.28.27.35.14.07.28.07.41.07h.62c.62 0 1.03.13 1.31.4.2.21.34.56.34 1.04 0 1.03-.62 1.51-1.78 1.51Zm5.9-.48c-.27.28-.75.48-1.44.48h-2.2V28h2.2c.21 0 .35 0 .49-.14.06-.07.13-.2.13-.34a.53.53 0 0 0-.13-.34c-.07-.07-.21-.14-.42-.14-1.1-.07-2.4 0-2.4-1.51 0-.7.41-1.45 1.65-1.45h2.27v1.17h-2.07c-.2 0-.34 0-.48.07-.14.07-.14.2-.14.34 0 .2.07.28.28.35.14.07.27.07.41.07h.62c.62 0 1.03.13 1.3.4.08 0 .08.08.08.08.2.27.27.62.27.96 0 .41-.14.76-.41 1.03Z"/><path fill="#228FE0" d="M27.64 25.32c-.14-.07-.35-.07-.55-.07H25.7v1.1h1.38c.2 0 .41 0 .55-.07.13-.07.2-.27.2-.48.07-.28-.07-.41-.2-.48Z"/><path fill="#228FE0" d="M22.83 17.07c-.14-.07-.35-.07-.55-.07H20.9v1.1h1.38c.2 0 .4 0 .55-.07.13-.07.2-.27.2-.48.07-.28-.07-.41-.2-.48Zm8.31 1.65h1.59l-.76-1.93-.83 1.93Zm-11.68 9.9V24.7l-1.8 1.92 1.8 2Zm2.6-3.44h-1.43v1.24h1.5c.42 0 .7-.2.7-.62-.07-.41-.35-.62-.76-.62Zm5.58.14c-.14-.07-.35-.07-.55-.07H25.7v1.1h1.38c.2 0 .41 0 .55-.07.14-.07.2-.27.2-.48.07-.28-.06-.41-.2-.48Z"/><path fill="#2FABF7" d="m21.59 28.9-.97-1.04v1.17h-2.26l-1.38-1.58-1.51 1.58h-4.54v-4.81h4.6l1.45 1.58.69-.82-1.72-1.72H9.9v6.73h6.05l1.03-1.03.9 1.03h3.7v-1.1ZM14.44 21.74l-.9-.96h-.4v-.41l-1.04-1.03-.69 1.44h-.96L8.8 17v3.78H6.46l-.48-1.03H3.64l-.48 1.03H1.92L4 15.97H5.7l1.92 4.6v-4.6h1.03L7.7 15H6.67v.82l-.34-.82H3.3l-1.37 3.23-1.59 3.5h3.58l.41-1.03h.96l.49 1.03h3.84v-.82l.35.82h2l.34-.82v.82h2.13Z"/><path fill="#2FABF7" d="m11.27 18.58-1.1-1.1.83 1.79.27-.69Z"/><path fill="#228FE0" d="M42.56 29.65a2.52 2.52 0 0 0 1.1-1.86l-.97-.96c.07.2.14.41.14.69 0 .41-.14.75-.41 1.03-.28.27-.76.48-1.45.48h-2.2V28h2.2c.21 0 .35 0 .49-.14.06-.07.13-.2.13-.34a.53.53 0 0 0-.13-.34c-.07-.07-.21-.14-.42-.14-1.1-.07-2.4 0-2.4-1.51 0-.7.41-1.31 1.44-1.45l-.76-.75c-.13.06-.2.13-.27.13v-.41h-3.16c-.48 0-1.1.14-1.38.41v-.41h-5.64v.41c-.4-.34-1.16-.41-1.5-.41h-3.72v.41c-.34-.34-1.17-.41-1.58-.41h-4.13l-.96 1.03-.9-1.03h-.75l2.06 2.06 1.03-1.1h3.65c.9 0 1.92.28 1.92 1.58 0 1.38-.96 1.65-1.99 1.65h-1.38v1.04l1.04 1.03v-1.03H22c.48 0 1.1 0 1.58-.21v1.86h3.1v-1.8h.13c.2 0 .2 0 .2.21v1.59h9.36a2.7 2.7 0 0 0 1.58-.42v.41h2.96c.55.07 1.16 0 1.65-.27Zm-13.69-2.47c.14.2.21.48.21.89v.96h-1.17v-.62c0-.27 0-.75-.2-.96-.14-.2-.42-.2-.83-.2h-1.24v1.78h-1.17v-4.88h2.62c.55 0 1.03 0 1.37.2.35.21.62.56.62 1.1 0 .76-.48 1.18-.82 1.31.34.14.55.28.61.41Zm4.75-2h-2.68v.9h2.61v.96h-2.61V28h2.68v1.03h-3.85v-4.88h3.85v1.03Zm2.89 3.85h-2.2V28h2.2c.2 0 .34 0 .48-.14.07-.07.13-.2.13-.34a.53.53 0 0 0-.13-.34c-.07-.07-.2-.14-.42-.14-1.1-.07-2.4 0-2.4-1.51 0-.7.41-1.45 1.65-1.45h2.27v1.17h-2.13c-.21 0-.35 0-.49.07-.13.07-.13.2-.13.34 0 .2.13.28.27.35.14.06.28.06.41.06h.62c.62 0 1.03.14 1.31.42.2.2.34.55.34 1.03 0 1.03-.62 1.51-1.78 1.51Z"/><path fill="#228FE0" d="M39.8 25.66c0 .2.07.28.28.35.14.06.28.06.41.06h.62a2 2 0 0 1 .96.21l-1.03-1.03h-.62c-.2 0-.34 0-.48.07a.53.53 0 0 0-.13.34ZM37.4 21.54l.14.2h.07l-.21-.2Zm-3.78-3.78 1.17 2.81v-1.65l-1.17-1.16Z"/><path fill="#228FE0" d="M21.86 20.02H22c.14 0 .14 0 .14.21v1.51h4.95v-.4c.41.2 1.03.4 1.85.4h2.07l.4-1.1h.97l.41 1.1h4v-.68l-.97-.97v.76h-2.34l-.34-1.1h-2.4l-.42 1.1h-1.3c-.56 0-1.25-.14-1.66-.55-.41-.41-.62-.96-.62-1.86 0-.68.14-1.37.62-1.92.35-.41.96-.55 1.72-.55h1.1V17h-1.1c-.41 0-.62.07-.9.27-.2.21-.34.62-.34 1.1 0 .55.07.9.35 1.17.2.21.48.28.82.28h.48l1.58-3.78h.7l-.97-.96h-1.79c-.75 0-1.37.13-1.92.4v-.4h-3.03v.4a1.98 1.98 0 0 0-1.3-.4H11.69l-.76 1.71-.76-1.71H7.15l.96.96H9.5l1.17 2.54.4.41 1.25-3.02h1.92v4.88h-1.17v-3.78l-1.17 2.75 2 2h7.9l.07-1.8Zm3.16-4.05h1.17v4.88h-1.17v-4.88ZM18.97 17H16.3v.9h2.62v.96h-2.62v.96h2.68v1.03h-3.85v-4.88h3.85V17Zm1.93 3.78h-1.17V15.9h2.61c.62 0 1.03 0 1.38.2.34.21.55.56.55 1.1 0 .76-.48 1.18-.83 1.31a.9.9 0 0 1 .55.41c.14.28.21.49.21.9v.96h-1.17v-.62c0-.27 0-.68-.2-.96-.07-.14-.28-.14-.7-.14H20.9v1.72Z"/></svg>