<svg xmlns="http://www.w3.org/2000/svg" width="85" height="26" fill="none"><path fill="#fff" d="M6.05 2.72.53 18.9H3.8l1.56-4.76h4.5l1.63 4.76h3.33L9.24 2.72h-3.2Zm2.99 8.84H6.18l1.16-3.6.2-.75c.07.27.14.48.27.75l1.23 3.6Zm11.23 0c-1.5-.61-1.64-.89-1.64-1.3 0-.54.48-.88 1.16-.88.68 0 1.3.2 1.9.55l.62.4.81-2.58-.34-.27a5.06 5.06 0 0 0-3-.75c-2.5 0-4.28 1.57-4.28 3.74 0 1.97 1.77 3.06 3.27 3.6 1.5.55 1.63.96 1.63 1.43 0 .89-.95 1.02-1.5 1.02a5.4 5.4 0 0 1-2.3-.68l-.62-.34-.82 2.65.41.2c1.02.55 2.18.89 3.34.82 2.72 0 4.62-1.56 4.62-3.87-.07-2.25-1.9-3.2-3.26-3.74Zm8.1-7.34-3.14.95V7H23.6v2.66h1.7v5.3c-.07 1.15.2 2.3.89 3.26a3.24 3.24 0 0 0 2.51 1.02c.68 0 1.3-.07 1.9-.27l.42-.14-.14-2.65-.68.2c-.34.07-.61.14-.95.14-.34 0-.89 0-.89-1.5V9.67h2.8V7h-2.8V4.22ZM38.7 6.87l-.55-.07c-.2 0-.34-.07-.54-.07-.96 0-1.9.41-2.59 1.1v-.9h-2.92v.69c.06.88.06 1.97.06 3.33v8.02h3.13v-6.32c0-.28 0-.55.07-.82.2-1.22 1.02-2.04 2.04-2.04h.55l.68.14.07-3.06Zm5.71-.14c-3.47 0-5.92 2.59-5.92 6.32 0 3.6 2.38 6.12 5.78 6.12 2.86 0 6-1.97 6-6.32-.07-3.6-2.46-6.12-5.86-6.12Zm2.59 6.19c0 2.1-1.16 3.6-2.66 3.6-1.5 0-2.65-1.5-2.65-3.53 0-1.36.61-3.6 2.72-3.6 2.04 0 2.59 2.3 2.59 3.53Zm13.47-8.9c-1.02-.96-2.59-1.43-4.63-1.43-1.29 0-2.58.06-3.8.27l-.48.13v15.9h3.13V13c.34 0 .68.06.95.06a6.92 6.92 0 0 0 5.03-1.83 5.4 5.4 0 0 0 1.36-3.6c0-1.36-.54-2.65-1.56-3.6Zm-1.57 3.66c0 2.25-1.97 2.59-3.2 2.59-.33 0-.67 0-1.01-.07V5.37c.4-.07.81-.07 1.22-.07 1.36.07 3 .48 3 2.38Zm12.66 8.1v-4.02c0-3.2-1.7-4.96-4.7-4.96-1.36 0-2.72.34-3.87 1.02l-.41.27.82 2.52.68-.48a4.14 4.14 0 0 1 2.51-.68c.48-.07 1.02.14 1.43.48.27.27.41.68.48 1.09-2.45.06-4.22.68-5.3 1.76a4 4 0 0 0-1.17 2.86 3.64 3.64 0 0 0 3.61 3.67h.27c1.02 0 2.11-.34 2.93-.95l.07.68h3l-.08-.68c-.18-.85-.27-1.72-.27-2.59Zm-5.24.8c-.61.08-1.16-.4-1.22-1.01v-.27c0-.41.13-.75.4-1.02.34-.34 1.16-.75 3-.82v1.3c0 .13 0 .27-.07.47a2.25 2.25 0 0 1-2.1 1.36ZM80.21 7l-2.24 6.73c-.09.17-.14.36-.14.55-.07-.14-.14-.34-.2-.48l-2.45-6.73h-3.4l4.28 10.74c.07.07.07.14.07.27 0 .07-.07.14-.07.2a5.26 5.26 0 0 1-1.5 1.98c-.47.4-.95.68-1.5.82l-.54.2.82 2.65.54-.07c1.02-.2 1.91-.68 2.73-1.36 1.5-1.36 2.51-3.46 3.87-7l3.07-8.56L80.2 7Z"/><path fill="red" d="M12.03 7.2c2.04-2.03 5.45-3.25 9.19-3.25 1.43 0 2.86.2 4.22.54h.13l2.38-.75-1.08-.4a21.74 21.74 0 0 0-6.88-1.16 17.5 17.5 0 0 0-9.18 2.38l-.27.13 1.02 2.93.47-.41Z"/></svg>