<svg xmlns="http://www.w3.org/2000/svg" width="100" height="42" fill="none"><path fill="#fff" d="m38.56 10.93-14.9-5.89-14.9 5.89v3.42h29.8v-3.42ZM16.42 16.61c.44 0 .8-.32.8-.72 0-.4-.36-.72-.8-.72H11.7c-.45 0-.8.32-.8.72 0 .4.35.72.8.72h.26v10.27h-.26c-.45 0-.8.32-.8.72 0 .4.35.72.8.72h4.72c.44 0 .8-.32.8-.72 0-.4-.36-.72-.8-.72h-.27V16.6h.27ZM26.02 16.61c.45 0 .8-.32.8-.72 0-.4-.35-.72-.8-.72H21.3c-.44 0-.8.32-.8.72 0 .4.36.72.8.72h.27v10.27h-.27c-.44 0-.8.32-.8.72 0 .4.36.72.8.72h4.72c.45 0 .8-.32.8-.72 0-.4-.35-.72-.8-.72h-.26V16.6h.26ZM35.78 16.61c.44 0 .8-.32.8-.72 0-.4-.36-.72-.8-.72h-4.73c-.44 0-.8.32-.8.72 0 .4.36.72.8.72h.27v10.27h-.27c-.44 0-.8.32-.8.72 0 .4.36.72.8.72h4.73c.44 0 .8-.32.8-.72 0-.4-.36-.72-.8-.72h-.27V16.6h.27ZM9.52 30.92H37.8c.42 0 .76-.31.76-.69v-.4c0-.38-.34-.7-.76-.7H9.52c-.42 0-.76.32-.76.7v.4c0 .38.34.69.76.69ZM39.78 31.74H7.54c-.42 0-.76.3-.76.68v.62c0 .38.34.69.76.69h32.24c.42 0 .76-.31.76-.69v-.62c0-.37-.34-.68-.76-.68ZM53.12 15.32a2.28 2.28 0 0 0-1.2-.7c.4-.19.7-.42.9-.71a1.66 1.66 0 0 0-.04-1.96 2.01 2.01 0 0 0-.93-.73 4.4 4.4 0 0 0-1.59-.23h-3.23v7.74h3.28c.55 0 1.01-.04 1.4-.13.37-.09.68-.21.94-.38.25-.17.46-.4.63-.72.17-.31.26-.65.26-1.01 0-.46-.14-.85-.42-1.17Zm-4.96-3.41h1.74c.61 0 1.05.03 1.3.1.26.08.46.21.6.41.13.2.2.42.2.68 0 .27-.08.5-.22.68-.15.17-.37.3-.66.38-.22.06-.58.09-1.09.09h-1.87V11.9Zm4.02 5.23c-.11.2-.26.34-.43.44-.18.1-.4.17-.66.2-.15.03-.41.04-.78.04h-2.15v-2.66h2c.55 0 .97.04 1.26.13.29.09.52.24.69.45.16.21.24.47.24.75 0 .25-.05.46-.17.65ZM60.08 18.05a12 12 0 0 1-.06-1.68V15.1c0-.42-.02-.7-.06-.87a1.37 1.37 0 0 0-.32-.65c-.16-.17-.4-.32-.74-.43a3.98 3.98 0 0 0-1.3-.17c-.53 0-1 .07-1.41.2-.41.14-.72.32-.94.57-.21.24-.37.57-.46.96l1.03.13c.12-.4.3-.67.53-.83.24-.16.61-.23 1.1-.23.54 0 .94.1 1.21.32.2.16.3.43.3.82l-.01.25c-.4.13-1.04.24-1.9.32-.41.05-.72.1-.93.15-.28.07-.53.18-.76.31a1.6 1.6 0 0 0-.55.55c-.14.23-.2.48-.2.75 0 .48.19.86.55 1.16.37.3.9.45 1.59.45a3.63 3.63 0 0 0 2.3-.82c.03.27.1.5.2.68h1.1a2.05 2.05 0 0 1-.27-.67Zm-1.12-1.78c0 .42-.06.74-.17.95-.15.28-.38.5-.7.66-.32.15-.69.24-1.1.24-.4 0-.72-.09-.93-.26a.79.79 0 0 1-.17-1.09c.1-.13.23-.24.41-.3.19-.08.5-.14.93-.2.77-.1 1.35-.2 1.73-.35v.35ZM65.56 14.45c.09.2.13.48.13.87v3.41h1.06V15.3c0-.44-.03-.75-.06-.93-.07-.27-.17-.5-.33-.7-.16-.2-.4-.36-.71-.48A2.82 2.82 0 0 0 64.6 13c-.87 0-1.53.3-1.99.92v-.8h-.95v5.61h1.07v-3.06c0-.72.16-1.2.48-1.46a1.85 1.85 0 0 1 1.91-.22c.2.12.35.27.43.46ZM73.54 18.73l-2.62-3.52 2.39-2.08h-1.37l-2.51 2.28v-4.42h-1.06v7.74h1.06v-2.22l.75-.65 2.06 2.87h1.3ZM46.43 24.24h2.84v6.83h1.14v-6.83h2.85v-.91h-6.83v.9ZM55.46 25.52c-.2.13-.43.4-.67.8v-.86h-.95v5.6h1.05v-2.93c0-.4.06-.77.17-1.1.09-.23.22-.4.4-.53.18-.12.4-.18.62-.18.26 0 .52.07.78.2l.37-.88c-.38-.2-.73-.3-1.1-.3-.24 0-.47.05-.67.18ZM62.97 30.38c-.05-.23-.07-.79-.07-1.67v-1.27c0-.42-.02-.71-.06-.88a1.37 1.37 0 0 0-.32-.65c-.16-.17-.4-.31-.74-.42a3.98 3.98 0 0 0-1.3-.17c-.53 0-1 .07-1.4.2-.42.13-.73.32-.95.57-.21.24-.37.56-.46.96l1.04.13c.11-.4.29-.68.52-.83.24-.16.61-.24 1.1-.24.54 0 .94.11 1.21.32.2.17.3.44.3.83l-.01.24c-.4.13-1.04.24-1.89.33-.42.05-.73.1-.94.14-.28.08-.53.18-.76.32a1.6 1.6 0 0 0-.55.55c-.14.22-.2.48-.2.75 0 .47.19.86.55 1.16.38.3.9.45 1.59.45a3.63 3.63 0 0 0 2.3-.82c.04.26.1.5.2.68h1.1a2.04 2.04 0 0 1-.26-.68Zm-1.12-1.78c0 .42-.06.74-.17.95-.15.28-.38.5-.7.66-.32.15-.69.24-1.1.24-.4 0-.72-.09-.93-.26a.79.79 0 0 1-.18-1.09c.1-.13.24-.24.42-.3a4 4 0 0 1 .93-.2c.77-.1 1.34-.2 1.73-.35v.35ZM69.25 26c-.16-.2-.4-.36-.71-.48a2.82 2.82 0 0 0-1.04-.19c-.87 0-1.53.31-1.99.93v-.8h-.95v5.62h1.07v-3.06c0-.72.16-1.2.48-1.47a1.85 1.85 0 0 1 1.9-.21c.21.12.36.27.44.46.09.19.13.48.13.87v3.4h1.06v-3.44c0-.44-.03-.75-.07-.93-.06-.27-.16-.5-.32-.7ZM75.06 28.1c-.3-.1-.82-.26-1.57-.43a18 18 0 0 1-.94-.24.93.93 0 0 1-.4-.26.52.52 0 0 1-.13-.33c0-.2.1-.36.31-.5.22-.15.56-.23 1.05-.23.4 0 .72.08.95.24a1 1 0 0 1 .41.68l1.04-.13a1.95 1.95 0 0 0-.37-.87 1.86 1.86 0 0 0-.82-.51 3.87 3.87 0 0 0-2.87.2c-.23.15-.4.32-.52.54a1.32 1.32 0 0 0 .04 1.44c.15.23.38.4.67.54.3.13.84.28 1.62.45.58.13.94.24 1.08.33.2.12.31.29.31.5 0 .24-.11.45-.35.63-.23.17-.6.26-1.08.26-.49 0-.86-.1-1.13-.3a1.3 1.3 0 0 1-.48-.87l-1.05.15c.12.6.39 1.05.81 1.36.42.3 1.04.45 1.85.45.49 0 .93-.08 1.32-.23.39-.15.69-.37.9-.65.19-.28.3-.59.3-.9 0-.33-.09-.6-.26-.82-.16-.21-.4-.38-.69-.5ZM78.8 24.24c.13-.13.35-.19.67-.19.2 0 .4.02.63.06l.16-.83a6 6 0 0 0-1-.1c-.46 0-.81.08-1.07.24-.26.15-.45.35-.54.6-.08.18-.12.46-.12.84v.6h-.94v.73h.93v4.87h1.08V26.2h1.22v-.74H78.6v-.52c0-.34.07-.57.2-.7ZM86 28.25c0-.93-.26-1.64-.79-2.16a2.8 2.8 0 0 0-2.04-.76 2.9 2.9 0 0 0-2.1.78c-.54.52-.81 1.25-.81 2.2 0 .91.27 1.62.8 2.12s1.26.76 2.17.76c.73 0 1.33-.15 1.8-.47.46-.31.78-.76.95-1.33l-1.09-.13c-.16.4-.38.7-.67.88-.28.18-.6.27-1 .27-.51 0-.95-.16-1.3-.5-.34-.32-.54-.8-.58-1.4H86v-.26Zm-4.58-.53a1.68 1.68 0 0 1 1.77-1.6c.54 0 .98.18 1.31.54.22.23.36.59.4 1.06h-3.48ZM88.92 25.52c-.2.13-.42.4-.67.8v-.86h-.95v5.6h1.05v-2.93c0-.4.06-.77.18-1.1.08-.23.21-.4.4-.53.18-.12.4-.18.62-.18.26 0 .52.07.78.2l.36-.88c-.37-.2-.73-.3-1.09-.3-.24 0-.47.05-.67.18Z"/></svg>