<svg xmlns="http://www.w3.org/2000/svg" width="100" height="18" fill="none"><g clip-path="url(#a)"><path fill="#fff" d="M66.02 13.44c-1.34 0-2.33-.64-2.61-1.79-.27 1.15-1.26 1.8-2.59 1.8-2.2 0-3.28-1.43-3.28-3.36V4.32h2.14v5.9c0 .92.33 1.55 1.33 1.55.94 0 1.32-.63 1.34-1.56v-5.9h2.13v5.9c0 .93.4 1.56 1.35 1.56 1 0 1.33-.63 1.33-1.56v-5.9h2.14v5.78c0 1.93-1.09 3.35-3.28 3.35ZM38.65 6.6a3.9 3.9 0 0 0 .73-2.28H32.5v1.6h4.26l-3.68 5.1a3.9 3.9 0 0 0-.74 2.28h6.9v-1.6h-4.26l3.68-5.1ZM98.04 7.48v2.86c0 .36.06.68.2.92v.03c.05.08.1.15.17.21.04.04.08.08.13.1.01.03.04.03.07.05l.01.01.03.02c.27.16.58.2.88.2.16 0 .31-.01.47-.04v1.58c-.16.02-.31.02-.47.02-1.69 0-3-.82-3.43-2.14v-.02c-.07-.25-.11-.51-.13-.79l-.01-.15V7.48h-1.3V5.92h1.3v-1.6h2.08v1.6H100v1.56h-1.96ZM42.41 9c0-1.22.77-1.52 1.49-1.52.73 0 1.5.3 1.5 1.52h-2.99Zm4.18-2.12-.13-.11a3.18 3.18 0 0 0-1.02-.6c-.04 0-.08-.03-.12-.04a4.47 4.47 0 0 0-1.82-.2l-.23.02c-.3.04-.56.1-.82.2-.1.02-.18.06-.28.1l-.27.12a2.93 2.93 0 0 0-1.58 2.68v1.25l.01.07c.01.26.04.51.1.75v.01c.38 1.42 1.73 2.3 3.49 2.3 1.44 0 2.61-.6 3.19-1.61v-.01c.09-.16.16-.31.21-.47h-2.17c-.18.25-.43.4-.7.47-.17.05-.36.06-.53.06-.3 0-.63-.05-.88-.2l-.03-.03c-.22-.11-.36-.3-.46-.53l-.06-.19-.03-.13a1.98 1.98 0 0 1-.04-.43v-.04h5.08V9.05a2.99 2.99 0 0 0-.9-2.17ZM75.41 10.97a.59.59 0 0 1-.09.26c-.2.32-.7.66-1.5.66-.54 0-1.02-.3-1.02-.87 0-.57.44-.92 1.21-.92h1.4v.46c.01.13.02.27 0 .41Zm2.05-2.03c0-.11 0-.22-.02-.33 0-.08-.02-.16-.03-.23a.47.47 0 0 1-.02-.12l-.02-.1v-.03c-.37-1.38-1.69-2.26-3.41-2.26a3.9 3.9 0 0 0-2.33.69c-.2.14-.37.3-.53.49l1.58.99c.17-.32.44-.5.76-.57l.12-.03a2.57 2.57 0 0 1 .84.02l.11.03c.1.03.2.08.3.13l.03.02.01.01.06.04c.14.09.24.2.3.34l.04.08.03.07c.02.06.05.12.06.19l.03.12.02.1.02.2v.16h-1.92c-1.49 0-2.74.64-2.74 2.2 0 1.48 1.31 2.3 2.65 2.3.73 0 1.51-.22 2.01-.75v.6h2.05V9.08a.27.27 0 0 0 0-.13ZM26.35 9c0-1.22.77-1.52 1.48-1.52.73 0 1.5.3 1.5 1.52h-2.98Zm4.18-2.12a3.17 3.17 0 0 0-1.15-.71c-.04 0-.08-.03-.12-.04a4.47 4.47 0 0 0-1.83-.2l-.22.02c-.3.04-.57.1-.82.2-.1.02-.19.06-.29.1-.08.04-.17.09-.26.12a2.93 2.93 0 0 0-1.58 2.68v1.32c.02.26.05.51.1.75v.01c.39 1.42 1.73 2.3 3.5 2.3 1.44 0 2.6-.6 3.18-1.61v-.01l.07-.13c.06-.11.11-.23.15-.34h-2.18c-.17.25-.43.4-.7.47-.17.05-.35.06-.53.06-.3 0-.62-.05-.88-.2l-.03-.03c-.21-.11-.36-.3-.46-.53l-.06-.19-.03-.13a1.98 1.98 0 0 1-.04-.43v-.04h5.08V9.05c0-.88-.34-1.62-.9-2.17ZM50.89 9c0-1.22.77-1.52 1.48-1.52.74 0 1.5.3 1.5 1.52H50.9Zm4.18-2.12a3.17 3.17 0 0 0-1.15-.71c-.04 0-.08-.03-.12-.04a4.47 4.47 0 0 0-1.83-.2l-.22.02c-.3.04-.57.1-.82.2-.1.02-.19.06-.29.1-.08.04-.17.09-.26.12a2.94 2.94 0 0 0-1.58 2.67v1.33c.02.26.05.51.1.75v.01c.39 1.42 1.73 2.3 3.5 2.3 1.44 0 2.61-.6 3.19-1.61v-.01c.08-.16.15-.31.21-.47h-2.19c-.17.25-.43.4-.7.47-.17.05-.35.06-.53.06-.3 0-.62-.05-.88-.2l-.03-.03c-.21-.11-.36-.3-.45-.53l-.07-.19a2.98 2.98 0 0 1-.07-.56v-.04h5.08V9.05a2.9 2.9 0 0 0-.9-2.17ZM88.63 9c0-1.22.77-1.52 1.49-1.52.73 0 1.5.3 1.5 1.52h-2.99Zm4.18-2.12-.12-.11a3.18 3.18 0 0 0-1.03-.6c-.04 0-.08-.03-.12-.04a4.47 4.47 0 0 0-1.82-.2l-.23.02c-.3.04-.56.1-.82.2-.1.02-.18.06-.28.1l-.27.12a2.93 2.93 0 0 0-1.58 2.68v1.25l.01.07c.01.26.04.51.1.75v.01c.38 1.42 1.73 2.3 3.49 2.3 1.44 0 2.61-.6 3.19-1.61v-.01c.09-.16.16-.31.21-.47h-2.17c-.18.25-.43.4-.7.47-.17.05-.36.06-.53.06-.3 0-.63-.05-.88-.2l-.03-.03c-.22-.11-.36-.3-.46-.53l-.06-.19-.03-.13a1.98 1.98 0 0 1-.04-.43v-.04h5.08V9.05a2.99 2.99 0 0 0-.9-2.17ZM80.06 13.3h1.19V4.32h-2.08v8.11c0 .48.4.87.89.87ZM83.67 13.3h1.2V4.32h-2.09v8.11c0 .48.4.87.9.87Z"/><path fill="#03C5D3" d="M6.85 11.16c0 .64.51 1.15 1.16 1.15h9.28v-2.28H8c-.65-.01-1.16.5-1.16 1.13ZM17.28 5.45H8a1.15 1.15 0 1 0 0 2.29h9.28V5.45Z"/><path fill="#03C5D3" d="M3.89 4.66a2 2 0 0 0-.25.97c0 .87.54 1.52 1.26 1.97.54.34 1.06.75 1.06 1.4 0 .65-.52 1.06-1.06 1.4-.71.45-1.26 1.1-1.26 1.97a2 2 0 0 0 .25.97c.51.96 1.6 1.24 2.62 1.24h11.92V18H5.83a6.55 6.55 0 0 1-4.07-1.2A4.3 4.3 0 0 1 .3 14.88a4.2 4.2 0 0 1 1.12-4.76c.13-.14.28-.26.4-.4.14-.16.27-.33.33-.54.02-.05.03-.1.03-.17a.46.46 0 0 0-.03-.17c-.06-.2-.19-.38-.32-.53-.13-.15-.28-.27-.41-.4A4.2 4.2 0 0 1 .3 3.12c.3-.76.8-1.44 1.46-1.94A6.6 6.6 0 0 1 5.83 0h12.6v3.42H6.54c-1.04 0-2.13.28-2.64 1.24Z"/></g><defs><clipPath id="a"><path fill="#fff" d="M0 0h100v18H0z"/></clipPath></defs></svg>