<svg xmlns="http://www.w3.org/2000/svg" width="94" height="94" fill="none"><g clip-path="url(#clip0_197_286)" mask="url(#mask0_197_286)"><path fill="#FDB913" d="M9.17 1.6h75.66a7.57 7.57 0 0 1 7.57 7.57v75.66a7.57 7.57 0 0 1-7.57 7.57H9.17a7.57 7.57 0 0 1-7.57-7.57V9.17A7.57 7.57 0 0 1 9.17 1.6Z"/><path fill="#fff" d="M84.83 1.6a7.57 7.57 0 0 1 7.57 7.57v75.66a7.57 7.57 0 0 1-7.57 7.57H9.17a7.57 7.57 0 0 1-7.57-7.57V9.17A7.57 7.57 0 0 1 9.17 1.6h75.66Zm0-1.6H9.17A9.18 9.18 0 0 0 0 9.17v75.66A9.18 9.18 0 0 0 9.17 94h75.66A9.18 9.18 0 0 0 94 84.83V9.17A9.18 9.18 0 0 0 84.83 0Z"/><path fill="#231F20" d="M52.3 47.98V31.72l4.23-1v2.13s1.1-2.8 3.65-3.46c.39-.12.8-.15 1.18-.07v4.14c-.76.01-1.51.17-2.22.47-1.57.62-2.36 1.97-2.36 4.03v8.98l-4.48 1.04ZM29.93 53.27s-.7-1.04-.7-4.7v-8.09l-2.17.52v-3.34l2.18-.51V33.5l4.52-1.06v3.63l3.18-.75v3.33l-3.18.75v8.24c0 3.75 1 4.47 1 4.47l-4.83 1.15ZM37.42 43.6c0-2.9.4-5 1.3-6.62 1.04-1.92 2.77-3.17 5.28-3.74 4.95-1.13 6.73 1.8 6.66 5.73-.02 1.4-.01 2.09-.01 2.09l-8.73 2.05v.14c0 2.74.58 4.05 2.32 3.68 1.5-.32 1.92-1.26 2.04-2.43.02-.18.03-.66.03-.66l4.08-.98v.71c-.03 1.56-.48 5.43-6.16 6.77-5.38 1.28-6.81-2-6.81-6.74Zm6.76-7.34c-1.45.33-2.2 1.75-2.24 4.1l4.39-1.05v-.7c0-1.78-.55-2.71-2.15-2.35ZM76.64 34.09c-.17-4.95 1.11-8.88 6.64-10.13 3.52-.8 4.85.11 5.53 1 .65.84.9 1.98.9 3.58v.29l-4.32 1.03v-.6c0-1.9-.52-2.62-1.9-2.27-1.63.4-2.29 1.96-2.29 5.04v1.44c0 3.14.43 4.57 2.32 4.18 1.63-.34 1.85-1.77 1.88-3.03l.01-.83 4.32-1.02v.67c0 4.11-2.18 6.7-6.23 7.65-5.6 1.3-6.69-1.92-6.86-7ZM61.7 41.02c0-3.77 2.2-4.96 5.52-6.33 2.99-1.24 3.05-1.85 3.07-2.92.01-.9-.4-1.68-1.9-1.3a2.24 2.24 0 0 0-1.8 2.13c-.02.27-.03.55-.02.83l-4.19 1c-.02-.84.07-1.68.3-2.48.66-2.25 2.65-3.77 6.08-4.56 4.45-1.03 5.94.92 5.94 3.97v7.2c0 3.48.65 3.99.65 3.99l-4.11.97a8.93 8.93 0 0 1-.55-1.48s-.9 2.27-4 3c-3.27.77-5-1.25-5-4.02Zm8.56-5.14c-.7.48-1.43.91-2.19 1.28-1.37.67-1.99 1.5-1.99 2.77 0 1.1.68 1.82 1.92 1.51 1.33-.33 2.26-1.57 2.26-3.3v-2.26ZM6.34 64.66a2.6 2.6 0 0 1-2.19-4.03l.03-.03.05-.02 6.14-1.45v4.67l-.1.02-3.4.79c-.17.03-.35.05-.53.05ZM6.34 70.62a2.6 2.6 0 0 1-2.19-4.02l.03-.04.05-.01 6.14-1.45v4.66l-.1.03c-1.4.33-3.06.72-3.4.78-.17.04-.35.06-.53.05ZM6.34 76.6a2.6 2.6 0 0 1-2.19-4.02l.03-.05 6.19-1.46v4.66l-.1.03-3.4.79c-.17.03-.35.05-.53.05ZM5.61 58.95V32.87l4.76-1.12v26.08L5.6 58.95ZM17.46 56.73a2.93 2.93 0 0 0-5.87 0v24.38a7.95 7.95 0 0 0 7.94 7.94l8.3-.01V78.87l.01-11.34a3.84 3.84 0 0 0-1.7-3.2l-7.4-5.02v11.41a.63.63 0 0 1-1.27 0l-.01-13.99ZM21.42 38.55a6.41 6.41 0 0 0-4.23 3.27v-1.83l-4.29 1V52.7a4.38 4.38 0 0 1 4.52.8v-7.57c0-1.8.9-3.25 2.18-3.54.97-.2 1.78.14 1.78 1.86v11.03l4.51-1.06V42.56c0-2.83-1.09-4.8-4.47-4.01ZM86.94 21.86a2.79 2.79 0 1 1-.01-5.58 2.79 2.79 0 0 1 0 5.58Zm0-5.23a2.44 2.44 0 1 0 0 4.88 2.44 2.44 0 0 0 0-4.88Z"/><path fill="#231F20" d="M85.92 17.4h1.2a.79.79 0 0 1 .86.88c0 .44-.2.78-.56.84.34.04.51.23.53.7l.02.7a.35.35 0 0 0 .16.3h-.61a.57.57 0 0 1-.1-.3c-.01-.21 0-.4-.02-.65 0-.37-.12-.54-.5-.54h-.44v1.48h-.54v-3.4Zm.98 1.53a.5.5 0 0 0 .54-.56c0-.36-.16-.55-.51-.55h-.47v1.1h.44Z"/></g></svg>