<svg xmlns="http://www.w3.org/2000/svg" width="95" height="36" fill="none"><g fill="#FF6400" clip-path="url(#clip0_197_329)"><path d="M33.95 23.34h-5.48c-.5 0-.59.1-.4.54a3.68 3.68 0 0 0 2.63 2.23c1.22.3 2.36.14 3.39-.63a.54.54 0 0 1 .5-.09l3.7 1.05.9.26c.23.08.28.22.14.44-.6.9-1.24 1.75-2.1 2.4a9.04 9.04 0 0 1-7.5 1.67 8.96 8.96 0 0 1-6.45-4.92c-.5-.95-.74-1.97-.96-3.03-.35-1.67-.18-3.28.23-4.89a9.2 9.2 0 0 1 2.06-3.85 9.01 9.01 0 0 1 4.17-2.73 9.74 9.74 0 0 1 7.54 1.01 8.02 8.02 0 0 1 3.21 4c.6 1.53.82 3.13.8 4.77 0 .4-.06.79-.17 1.17-.12.46-.33.6-.81.6h-5.4Zm-2.7-4.62h2.83c.21 0 .47 0 .34-.33-.17-.44-.4-.83-.78-1.13-.74-.61-1.6-.8-2.54-.76a3.2 3.2 0 0 0-2.87 1.82c-.16.3-.1.4.25.4h2.76ZM19.7 14.2v8.32c0 2.01-.64 3.8-1.85 5.39a8.7 8.7 0 0 1-8.66 3.31 8.97 8.97 0 0 1-6.9-6.92 7.41 7.41 0 0 1-.16-1.54c0-.31.13-.44.44-.44h6.17c.32 0 .49.13.56.46.19.96 1.03 1.41 1.78 1.33.81-.1 1.47-.8 1.47-1.72V5.3c0-.72 0-.73.72-.73h5.85c.55 0 .57.02.57.57v9.06ZM54.78 21.55c.05-2.45.64-4.59 2.05-6.44a8.9 8.9 0 0 1 5.56-3.47 9.94 9.94 0 0 1 5.62.46 9.57 9.57 0 0 1 5.73 6.86c.3 1.34.37 2.69.15 4.06a9.51 9.51 0 0 1-4.75 7.15 9.26 9.26 0 0 1-6.58 1.06 9.16 9.16 0 0 1-3.91-1.7 9.5 9.5 0 0 1-3.33-4.78c-.34-1.1-.49-2.2-.54-3.2Zm10.05 4.54a3.5 3.5 0 0 0 2.99-2.19c.72-1.56.71-3.17.11-4.77a3.48 3.48 0 0 0-1.54-1.84c-1.97-1.12-4.63-.53-5.57 1.95a6.03 6.03 0 0 0 .01 4.36c.58 1.55 1.93 2.49 4 2.49ZM76.33 21.4v-8.73c0-.7.04-.75.72-.75h4.15c.58 0 .63.04.68.63.01.23.1.28.28.15.8-.6 1.7-.94 2.68-1.1 2.66-.45 5.36.3 6.92 2.82a8.05 8.05 0 0 1 1.23 4.33v11.56c0 .54-.06.6-.6.6h-4.36c-.56 0-.65-.09-.65-.67v-10.7c0-.69-.18-1.33-.56-1.88-.59-.85-1.5-.97-2.4-.86-1.38.16-2.08.94-2.34 2.33-.1.57-.14 1.13-.14 1.7v9.4c0 .65-.04.69-.69.69H77c-.58 0-.66-.1-.66-.67V21.4ZM43.82 21.5v-3.65c0-.62 0-.62-.6-.62h-1.01c-.34 0-.5-.14-.5-.49v-4.3c0-.39.17-.54.55-.53.36.02.73 0 1.1.01.34.02.47-.11.47-.47-.02-1.38 0-2.76 0-4.14 0-.62.02-.65.63-.65h4.3c.56 0 .66.1.66.63 0 1.42 0 2.84-.03 4.26 0 .33.16.37.4.37h2.51c.54 0 .63.08.63.6v4.1c0 .53-.08.6-.63.6h-2.56c-.27 0-.35.1-.35.4.02 2.16.02 4.31.02 6.47l.01.53c.08.93.18 1.1 1.28 1.2.57.06 1.15-.11 1.72-.23.41-.09.51-.05.52.36v4.13c0 .23-.09.38-.31.47a6.96 6.96 0 0 1-3.37.52 6.3 6.3 0 0 1-2.75-.76 5.07 5.07 0 0 1-2.46-3.3c-.37-1.61-.17-3.24-.23-4.85v-.66Z"/></g></svg>