<svg xmlns="http://www.w3.org/2000/svg" width="97" height="54" fill="none"><g clip-path="url(#a)"><path fill="#0A0B09" d="M87.69 0H9.3A9.32 9.32 0 0 0 0 9.33v35.34A9.32 9.32 0 0 0 9.31 54H87.7A9.32 9.32 0 0 0 97 44.67V9.33A9.32 9.32 0 0 0 87.69 0Z"/><path fill="#fff" d="M87.93 31.64a2.31 2.31 0 0 0-2.3 2.32 2.31 2.31 0 0 0 2.3 2.32c1.27 0 2.3-1.04 2.3-2.32a2.31 2.31 0 0 0-2.3-2.32Zm-7.56-1.8a3.25 3.25 0 0 0-3.31-3.18 3.25 3.25 0 0 0-3.32 3.18 3.25 3.25 0 0 0 3.32 3.18 3.25 3.25 0 0 0 3.31-3.18Zm.02-6.18h3.66v12.36h-3.66v-.79a6.37 6.37 0 0 1-3.63 1.13 6.49 6.49 0 0 1-6.46-6.52c0-3.6 2.9-6.52 6.46-6.52 1.34 0 2.6.41 3.63 1.13v-.8Zm-29.3 1.6v-1.6h-3.75v12.36h3.76v-5.77c0-1.95 2.08-3 3.53-3h.04v-3.6c-1.48 0-2.85.65-3.58 1.62Zm-9.34 4.58a3.25 3.25 0 0 0-3.32-3.18 3.25 3.25 0 0 0-3.32 3.18 3.25 3.25 0 0 0 3.32 3.18 3.25 3.25 0 0 0 3.32-3.18Zm.01-6.18h3.66v12.36h-3.66v-.79a6.37 6.37 0 0 1-3.63 1.13 6.49 6.49 0 0 1-6.45-6.52c0-3.6 2.89-6.52 6.45-6.52 1.35 0 2.6.41 3.63 1.13v-.8Zm22.04-.34c-1.46 0-2.85.46-3.77 1.73v-1.4h-3.65v12.37h3.7v-6.5c0-1.88 1.24-2.8 2.74-2.8 1.6 0 2.53.98 2.53 2.78v6.52h3.66v-7.86c0-2.88-2.26-4.84-5.21-4.84Zm-37.45 12.7h3.83V18.15h-3.83v17.87Zm-16.84 0h4.06V18.15H9.51v17.89Zm14.2-17.88c0 3.88-1.5 7.48-4.15 10.15l5.6 7.74h-5l-6.1-8.4 1.57-1.2c2.61-1.97 4.1-5 4.1-8.29h3.98Z"/></g><defs><clipPath id="a"><path fill="#fff" d="M0 0h97v54H0z"/></clipPath></defs></svg>