<svg xmlns="http://www.w3.org/2000/svg" width="44" height="45" fill="none"><path fill="#FFB600" d="M43.66 22.5a12.98 12.98 0 1 1-26 0 13 13 0 0 1 25.99 0Z"/><path fill="#F7981D" d="M30.66 9.5c7.15 0 13 5.85 13 13a12.98 12.98 0 1 1-26 0"/><path fill="#FF8500" d="M30.66 9.5c7.15 0 13 5.85 13 13s-5.78 13-13 13"/><path fill="#FF5050" d="M13.2 9.5a13 13 0 0 0 .14 26c3.37 0 6.4-1.31 8.73-3.37.48-.42.9-.9 1.3-1.38H20.7c-.34-.41-.68-.9-.96-1.3h4.6c.28-.42.56-.9.76-1.38h-6.11a8.2 8.2 0 0 1-.55-1.38h7.14c.42-1.3.7-2.68.7-4.12 0-.96-.14-1.86-.28-2.75H18c.07-.48.2-.9.35-1.38h7.15a8.2 8.2 0 0 0-.55-1.37H18.9c.2-.48.48-.9.75-1.38h4.6a6.54 6.54 0 0 0-1.02-1.37h-2.55c.42-.48.83-.9 1.31-1.3a12.69 12.69 0 0 0-8.73-3.38c0-.13 0-.13-.07-.13Z"/><path fill="#E52836" d="M.34 22.5a12.98 12.98 0 0 0 23.04 8.25h-2.69c-.34-.41-.68-.9-.96-1.3h4.6c.28-.42.56-.9.76-1.38h-6.11a8.2 8.2 0 0 1-.55-1.38h7.14c.42-1.3.7-2.68.7-4.12 0-.96-.14-1.86-.28-2.75H18c.07-.48.2-.9.35-1.38h7.15a8.19 8.19 0 0 0-.55-1.37H18.9c.2-.48.48-.9.75-1.38h4.6a6.54 6.54 0 0 0-1.02-1.37h-2.55c.42-.48.83-.9 1.31-1.3a12.69 12.69 0 0 0-8.73-3.38h-.07"/><path fill="#CB2026" d="M13.34 35.5a13.15 13.15 0 0 0 10.04-4.75h-2.69c-.34-.41-.68-.9-.96-1.3h4.6c.28-.42.56-.9.76-1.38h-6.11a8.2 8.2 0 0 1-.55-1.38h7.15c.4-1.3.68-2.68.68-4.12 0-.96-.13-1.86-.27-2.75H18c.07-.48.2-.9.35-1.38h7.15a8.19 8.19 0 0 0-.55-1.37H18.9c.2-.48.48-.9.75-1.38h4.6a6.54 6.54 0 0 0-1.02-1.37h-2.55c.42-.48.83-.9 1.31-1.3a12.69 12.69 0 0 0-8.73-3.38h-.07"/><path fill="#fff" d="m17.94 25.8.21-1.17c-.07 0-.2.07-.34.07-.49 0-.55-.27-.49-.41l.42-2.4h.75l.21-1.31h-.69l.14-.83h-1.38s-.82 4.54-.82 5.09c0 .82.48 1.17 1.1 1.17.41 0 .76-.14.9-.21Zm.48-2.2c0 1.93 1.31 2.4 2.41 2.4 1.03 0 1.44-.2 1.44-.2l.28-1.3s-.76.34-1.44.34c-1.52 0-1.24-1.1-1.24-1.1h2.82s.2-.9.2-1.24c0-.9-.48-2-1.99-2-1.44-.13-2.48 1.38-2.48 3.1Zm2.41-2c.76 0 .62.9.62.97h-1.51c0-.07.13-.96.9-.96Zm8.73 4.2.28-1.51s-.69.34-1.17.34c-.96 0-1.38-.75-1.38-1.58 0-1.65.83-2.54 1.8-2.54.68 0 1.23.4 1.23.4l.2-1.43s-.82-.35-1.58-.35c-1.58 0-3.16 1.38-3.16 3.99 0 1.72.83 2.89 2.48 2.89.55 0 1.3-.21 1.3-.21Zm-19.18-5.43c-.96 0-1.65.27-1.65.27l-.2 1.17s.61-.27 1.5-.27c.49 0 .9.07.9.48 0 .27-.07.34-.07.34h-.62c-1.17 0-2.47.48-2.47 2.07 0 1.23.82 1.5 1.3 1.5.97 0 1.38-.61 1.45-.61l-.07.55h1.24l.55-3.78c0-1.65-1.38-1.72-1.86-1.72Zm.28 3.1c0 .2-.14 1.3-.97 1.3-.4 0-.55-.34-.55-.55 0-.34.21-.83 1.24-.83.2.07.28.07.28.07Zm2.88 2.47c.35 0 2.07.07 2.07-1.79 0-1.72-1.65-1.37-1.65-2.06 0-.35.27-.48.75-.48.2 0 .96.07.96.07l.21-1.24s-.48-.14-1.3-.14c-1.04 0-2.07.41-2.07 1.79 0 1.58 1.72 1.44 1.72 2.06 0 .41-.48.48-.82.48-.62 0-1.24-.2-1.24-.2l-.2 1.23c.06.14.4.28 1.57.28Zm27.43-6.67-.27 1.86s-.55-.7-1.3-.7c-1.24 0-2.34 1.52-2.34 3.3 0 1.1.55 2.28 1.71 2.28.83 0 1.31-.55 1.31-.55l-.07.48h1.38l1.03-6.6-1.45-.07Zm-.61 3.64c0 .76-.35 1.72-1.1 1.72-.49 0-.76-.41-.76-1.1 0-1.1.48-1.79 1.1-1.79.48 0 .76.35.76 1.17ZM2.89 25.87l.82-4.95.14 4.95h.96l1.79-4.95-.76 4.95H7.3l1.1-6.6H6.12l-1.38 4.06-.07-4.06H2.68l-1.1 6.6h1.3Zm21.31 0c.41-2.27.48-4.13 1.44-3.78.14-.9.35-1.24.48-1.58h-.27c-.62 0-1.1.82-1.1.82l.14-.75h-1.3l-.9 5.36h1.51v-.07Zm8.52-5.5c-.96 0-1.65.27-1.65.27l-.2 1.17s.62-.27 1.51-.27c.48 0 .9.07.9.48 0 .27-.07.34-.07.34h-.62c-1.17 0-2.48.48-2.48 2.07 0 1.23.83 1.5 1.3 1.5.97 0 1.38-.61 1.45-.61l-.07.55h1.24l.55-3.78c.07-1.65-1.37-1.72-1.86-1.72Zm.35 3.1c0 .2-.14 1.3-.96 1.3-.42 0-.55-.34-.55-.55 0-.34.2-.83 1.23-.83.21.07.21.07.28.07Zm2.68 2.4c.41-2.27.48-4.13 1.44-3.78.14-.9.35-1.24.48-1.58h-.27c-.62 0-1.1.82-1.1.82l.14-.75h-1.3l-.9 5.36h1.51v-.07Z"/><path fill="#DCE5E5" d="M15.81 24.84c0 .82.48 1.17 1.1 1.17.48 0 .9-.14 1.03-.21l.21-1.17c-.07 0-.2.07-.34.07-.49 0-.55-.27-.49-.41l.42-2.4h.75l.21-1.31h-.69l.14-.83m.96 3.85c0 1.93.62 2.4 1.72 2.4 1.03 0 1.44-.2 1.44-.2l.28-1.3s-.76.34-1.44.34c-1.52 0-1.24-1.1-1.24-1.1h2.82s.2-.9.2-1.24c0-.9-.48-2-1.99-2-1.44-.13-1.79 1.38-1.79 3.1Zm1.72-2c.76 0 .9.9.9.97h-1.8c0-.07.14-.96.9-.96Zm8.73 4.2.28-1.51s-.69.34-1.17.34c-.96 0-1.38-.75-1.38-1.58 0-1.65.83-2.54 1.8-2.54.68 0 1.23.4 1.23.4l.2-1.43s-.82-.35-1.58-.35c-1.58 0-2.47 1.38-2.47 3.99 0 1.72.14 2.89 1.79 2.89.55 0 1.3-.21 1.3-.21ZM8.52 21.88s.62-.27 1.52-.27c.48 0 .9.07.9.48 0 .27-.08.34-.08.34h-.62c-1.17 0-2.47.48-2.47 2.06 0 1.24.82 1.52 1.3 1.52.97 0 1.38-.62 1.45-.62l-.07.55h1.24l.55-3.78c0-1.58-1.38-1.65-1.93-1.65m1.03 2.95c0 .2-.82 1.3-1.65 1.3-.4 0-.55-.33-.55-.54 0-.34.21-.83 1.24-.83.2.07.96.07.96.07Zm.7 2.34s.4.14 1.57.14c.35 0 2.06.07 2.06-1.79 0-1.72-1.65-1.37-1.65-2.06 0-.35.28-.48.76-.48.2 0 .96.07.96.07l.21-1.24s-.48-.14-1.3-.14c-1.04 0-1.38.41-1.38 1.79 0 1.58 1.03 1.44 1.03 2.06 0 .41-.48.48-.83.48m27.23-3.5s-.55-.7-1.3-.7c-1.24 0-1.66 1.52-1.66 3.3 0 1.1-.13 2.28 1.03 2.28.83 0 1.31-.55 1.31-.55l-.07.48h1.38l1.03-6.6m-1.79 3.57c0 .76-.62 1.72-1.37 1.72-.49 0-.76-.41-.76-1.1 0-1.1.48-1.79 1.1-1.79.48 0 1.03.35 1.03 1.17ZM2.9 25.87l.82-4.95.14 4.95h.96l1.79-4.95-.76 4.95H7.3l1.1-6.6H6.67l-1.93 4.06-.07-4.06h-.75l-2.34 6.6h1.3Zm19.87 0h1.44c.41-2.27.48-4.13 1.44-3.78.14-.9.35-1.24.48-1.58h-.27c-.62 0-1.1.82-1.1.82l.14-.75m5.98 1.3s.62-.27 1.51-.27c.48 0 .9.07.9.48 0 .27-.07.34-.07.34h-.62c-1.17 0-2.48.48-2.48 2.06 0 1.24.83 1.52 1.3 1.52.97 0 1.38-.62 1.45-.62l-.07.55h1.24l.55-3.78c0-1.58-1.37-1.65-1.92-1.65m1.03 2.95c0 .2-.83 1.3-1.65 1.3-.42 0-.55-.33-.55-.54 0-.34.2-.83 1.23-.83.28.07.97.07.97.07Zm.62 2.4h1.44c.41-2.26.48-4.12 1.44-3.77.14-.9.35-1.24.48-1.58h-.27c-.62 0-1.1.82-1.1.82l.14-.75"/></svg>