<svg xmlns="http://www.w3.org/2000/svg" width="96" height="66" fill="none"><g clip-path="url(#a)"><path fill="#00B1EA" d="M48.2 1.24C22.08 1.24.9 14.75.9 31.41c0 16.65 21.18 31.47 47.3 31.47 26.12 0 47.3-14.81 47.3-31.48 0-16.66-21.16-30.16-47.3-30.16Z"/><path fill="#fff" d="M32.83 22.08s-.49.51-.19.9c.73.93 2.99 1.46 5.27.96 1.36-.31 3.12-1.69 4.8-3.03a19.28 19.28 0 0 1 5.51-3.48 6.3 6.3 0 0 1 4-.1c1.32.5 2.55 1.2 3.64 2.12 3.16 2.37 15.92 13.46 18.13 15.4 6.77-2.83 13.79-5.04 20.96-6.6-.94-5.69-4.41-11.12-9.64-15.4-7.35 3.08-16.93 4.92-25.71.65a24.34 24.34 0 0 0-9.48-2.15c-6.96.17-9.99 3.17-13.18 6.35l-4.11 4.38Z"/><path fill="#fff" d="M73.4 36.06c-.15-.13-14.98-13.08-18.36-15.6a8.26 8.26 0 0 0-4.16-1.97 5.96 5.96 0 0 0-1.99.19 18 18 0 0 0-5.43 3.22c-1.87 1.5-3.65 2.9-5.3 3.3-1.98.41-4.05.1-5.83-.87a2.61 2.61 0 0 1-.97-1.1 1.78 1.78 0 0 1 .5-1.93l4.1-4.4 1.45-1.42c-1.26.19-2.51.47-3.73.83-1.43.47-2.91.75-4.42.82a41.89 41.89 0 0 1-4.41-.7 72.98 72.98 0 0 1-12.77-4.25C6.26 16.5 2.46 21.8 1.34 27.75c.83.22 3.02.72 3.6.85 13.17 2.93 17.27 5.93 18.02 6.6a4.36 4.36 0 0 1 6.83.4c.9-.72 2-1.1 3.15-1.1.64 0 1.27.12 1.87.33a4.29 4.29 0 0 1 2.65 2.38c.58-.25 1.2-.39 1.83-.38.76 0 1.52.17 2.21.48a4.66 4.66 0 0 1 2.6 5.2h.51a5.23 5.23 0 0 1 5.24 5.11c.02.9-.2 1.8-.64 2.6a8.3 8.3 0 0 0 4.54 1.2 2.93 2.93 0 0 0 2.13-.92c.13-.19.27-.4.14-.55l-3.72-4.11s-.61-.58-.4-.8c.2-.24.6.1.84.31a70.67 70.67 0 0 1 4.2 3.95s.19.33 1.1.49A3.88 3.88 0 0 0 61 49.1c.23-.2.45-.42.65-.66a1.95 1.95 0 0 0-.11-2.44l-4.43-4.9s-.63-.58-.4-.8c.22-.24.6.1.86.32 1.36 1.1 3.3 3.1 5.17 4.9a3.54 3.54 0 0 0 4.16-.13 2.96 2.96 0 0 0 1.53-2.71 3.11 3.11 0 0 0-.92-1.8l-5.94-5.94s-.63-.53-.4-.8c.24-.28.6.1.85.31 1.9 1.59 7 6.25 7 6.25a3.6 3.6 0 0 0 4.02-.08 2.7 2.7 0 0 0 1.32-2.12 2.96 2.96 0 0 0-.95-2.44Z"/><path fill="#fff" d="M44.65 43.58c-.7.1-1.39.25-2.06.46-.06 0 .06-.4.15-.62.08-.22 1.3-3.84-1.66-5.1a3.49 3.49 0 0 0-4.11.6c-.13.14-.18.13-.2 0a3.3 3.3 0 0 0-2.29-3 4.43 4.43 0 0 0-5.03 1.79 3.2 3.2 0 0 0-4.9-2.27 3.2 3.2 0 1 0 3.94 5v.12a4.22 4.22 0 0 0 2.66 4.87 3.19 3.19 0 0 0 3.12-.48c.27-.18.3-.11.27.14-.11.74 0 2.34 2.27 3.24a2.89 2.89 0 0 0 3.38-.62c.28-.27.36-.22.37.18a4.05 4.05 0 0 0 4.98 3.76 4.08 4.08 0 0 0 2.84-5.54 4.06 4.06 0 0 0-3.73-2.47v-.06Z"/><path fill="#2D3277" d="M48.2 0C21.58 0 0 14.11 0 31.43v1.82C0 51.62 18.87 66.5 48.2 66.5c29.52 0 48.2-14.88 48.2-33.25v-1.83C96.4 14.12 74.8 0 48.2 0Zm46.02 27.94a110.6 110.6 0 0 0-20.24 6.6c-4.58-3.98-15.14-13.13-18-15.28a12.66 12.66 0 0 0-3.74-2.2 6.27 6.27 0 0 0-1.83-.29c-.8.01-1.58.14-2.33.39-2.03.82-3.9 2-5.52 3.45l-.1.07c-1.65 1.32-3.38 2.67-4.68 2.97-.56.13-1.14.19-1.72.19a4.43 4.43 0 0 1-3.25-1.1c-.08-.11 0-.28.16-.5L37 17.9c3.15-3.15 6.12-6.1 12.97-6.27h.35c3.1.13 6.16.85 9 2.12a27.89 27.89 0 0 0 12.35 3 32.08 32.08 0 0 0 13.44-3.2c4.9 4.07 8.13 9.01 9.12 14.38ZM48.2 1.84c14.12 0 26.77 4.05 35.3 10.4a29.87 29.87 0 0 1-11.8 2.66 26.16 26.16 0 0 1-11.48-2.76 25.88 25.88 0 0 0-9.8-2.3h-.39a16.96 16.96 0 0 0-11.17 3.95c-1.9.1-3.77.44-5.58 1.02-1.27.42-2.6.68-3.93.75h-1.49a76.81 76.81 0 0 1-14.08-3.88c8.45-6.04 20.75-9.82 34.42-9.82v-.01Zm-36.12 11c5.87 2.4 13.01 4.27 15.27 4.4.63 0 1.3.13 1.98.13 1.5-.07 2.99-.35 4.41-.83.85-.23 1.8-.5 2.8-.68l-.8.8-4.1 4.4a2.05 2.05 0 0 0-.54 2.2c.24.49.62.9 1.1 1.18a8.57 8.57 0 0 0 4.34 1.1 8 8 0 0 0 1.72-.17c1.7-.38 3.5-1.82 5.41-3.3A18 18 0 0 1 49 18.9a5.89 5.89 0 0 1 1.87-.2c1.5.25 2.89.91 4.03 1.91 3.3 2.51 18.2 15.46 18.33 15.6a2.85 2.85 0 0 1 .89 2.2 2.37 2.37 0 0 1-1.18 1.87c-.58.39-1.26.6-1.96.6-.6 0-1.2-.16-1.72-.49-.05 0-5.14-4.68-7-6.26a1.58 1.58 0 0 0-.88-.47.53.53 0 0 0-.38.18c-.3.36 0 .85.43 1.18l5.95 5.95c.44.44.73 1 .82 1.61a2.68 2.68 0 0 1-1.4 2.45c-.62.44-1.35.68-2.1.7-.6 0-1.2-.18-1.7-.52l-.84-.84c-1.56-1.52-3.17-3.1-4.35-4.09-.24-.24-.55-.4-.88-.46a.49.49 0 0 0-.38.16c-.13.16-.22.41.11.86l.3.33 4.34 4.85a1.65 1.65 0 0 1 .1 2.08l-.16.19c-.13.14-.28.27-.4.38-.61.45-1.35.69-2.12.68-.2.02-.4.02-.6 0a1.47 1.47 0 0 1-.84-.36l-.06-.05A69.23 69.23 0 0 0 53 44.97c-.22-.24-.52-.4-.84-.45a.5.5 0 0 0-.39.17c-.35.39.18.98.41 1.2l3.7 4.06a.7.7 0 0 1-.15.24c-.13.18-.57.63-1.93.8a8.47 8.47 0 0 1-4.12-1.1 5.48 5.48 0 0 0-4.97-7.83h-.2A4.86 4.86 0 0 0 41.66 37a5.9 5.9 0 0 0-2.31-.5c-.58 0-1.15.1-1.69.3a4.64 4.64 0 0 0-2.7-2.28 5.96 5.96 0 0 0-1.98-.34 5.2 5.2 0 0 0-3.09.99 4.68 4.68 0 0 0-6.94-.4c-1.1-.87-5.71-3.77-17.94-6.54-.57-.14-1.9-.51-2.75-.76C3.43 21.99 6.92 17 12.08 12.89v-.04Zm22.67 31.73-.13-.12h-.14a.69.69 0 0 0-.37.15c-.53.4-1.17.64-1.83.65-.35 0-.7-.07-1.02-.2a3.95 3.95 0 0 1-2.47-4.57.4.4 0 0 0-.12-.37l-.2-.17-.19.18a2.95 2.95 0 0 1-4.84-3.06 2.94 2.94 0 0 1 4.83-1.15c.48.46.78 1.07.87 1.72l.11.8.44-.68a4.31 4.31 0 0 1 3.44-1.87c.43 0 .86.07 1.28.2a2.98 2.98 0 0 1 2.08 2.76c0 .38.31.4.35.4a.49.49 0 0 0 .35-.18 2.97 2.97 0 0 1 2.2-.9c.56 0 1.12.13 1.63.36 2.76 1.19 1.5 4.69 1.5 4.73-.24.57-.26.84 0 1h.18c.19-.03.37-.07.53-.15.48-.19.97-.3 1.48-.33a3.83 3.83 0 0 1 2.74 6.46 3.78 3.78 0 0 1-6.5-2.52c0-.18 0-.64-.4-.64a.75.75 0 0 0-.47.23c-.49.51-1.15.81-1.86.84-.41-.01-.83-.1-1.21-.27-2.15-.87-2.2-2.34-2.1-2.93a.42.42 0 0 0-.16-.32v-.05ZM48.2 60.93c-25.6 0-46.35-13.2-46.35-29.57 0-.66 0-1.3.11-1.96l2.66.63c12.48 2.77 16.56 5.64 17.3 6.18a4.66 4.66 0 0 0 5.15 6.43 5.5 5.5 0 0 0 5.2 4.38c.37 0 .74-.04 1.1-.13A5.42 5.42 0 0 0 38.1 50c.5 0 .98-.1 1.44-.27a5.5 5.5 0 0 0 9.03 1.75 10.33 10.33 0 0 0 5.38 1.38 4.31 4.31 0 0 0 3.17-1.54l.2-.31c.48.15.99.22 1.5.23a5.06 5.06 0 0 0 3-1.1 4.2 4.2 0 0 0 1.8-2.59c.32.07.66.11 1 .11a5.62 5.62 0 0 0 3.1-.98 4.4 4.4 0 0 0 2.2-3.97 5.06 5.06 0 0 0 3.95-.78 4.22 4.22 0 0 0 2.02-3.3 4.48 4.48 0 0 0-.64-2.65 120.4 120.4 0 0 1 19.24-6.02c0 .49.05.98.05 1.48 0 16.31-20.75 29.54-46.35 29.54v-.04Z"/></g><defs><clipPath id="a"><path fill="#fff" d="M0 0h96v66H0z"/></clipPath></defs></svg>