<svg width="102" height="29" viewBox="0 0 102 29" fill="none" xmlns="http://www.w3.org/2000/svg">
<mask id="mask0_267_243" style="mask-type:luminance" maskUnits="userSpaceOnUse" x="4" y="6" width="94" height="18">
<path d="M97.3636 6.96002H4.63635V23.2954H97.3636V6.96002Z" fill="white"/>
</mask>
<g mask="url(#mask0_267_243)">
<path d="M41.2087 6.96002H42.9837L46.5042 15.2297L49.9374 6.96002H51.7123V19.6556H49.8501V11.7354H49.7919L47.086 18.3744H45.9223L43.1 11.7354H43.0709V19.6556H41.2087V6.96002Z" fill="white"/>
<path d="M56.1063 10.5999H54.3606V19.6266H56.1063V10.5999Z" fill="white"/>
<path d="M58.6959 6.96002H65.6498V8.76535H60.5581V12.5216H65.6498V14.2105H60.5581V19.6556H58.6959V6.96002Z" fill="white"/>
<path d="M69.2283 10.5999H67.4825V19.6266H69.2283V10.5999Z" fill="white"/>
<path d="M71.6431 10.5998H73.3888V11.5607H73.4179C73.9998 10.8328 74.7563 10.4833 75.6873 10.4833C76.4147 10.4833 77.0839 10.7454 77.6659 11.2695C78.2477 11.7936 78.5677 12.5799 78.5968 13.6282V19.6265H76.8511V14.2687C76.8511 13.6282 76.6766 13.1622 76.3565 12.8128C76.0365 12.4634 75.6291 12.3178 75.1054 12.3178C74.6108 12.3178 74.1743 12.4925 73.8543 12.8128C73.5343 13.1331 73.3597 13.6282 73.3597 14.2687V19.6556H71.614L71.6431 10.5998Z" fill="white"/>
<path d="M82.6704 10.5999H80.9247V19.6266H82.6704V10.5999Z" fill="white"/>
<path d="M85.2889 6.9892H87.0348V10.5999H88.3149V11.9976H87.0348V17.2679C87.0348 17.7339 87.2384 17.9377 87.6457 17.9377H88.3149V19.6556H87.413C86.8019 19.6556 86.2782 19.4518 85.9 19.0733C85.4927 18.6947 85.2889 18.1415 85.2889 17.4427V11.9976H84.4161V10.5999H85.2889V6.9892Z" fill="white"/>
<path d="M89.4786 10.5999H91.3407L93.4064 16.9185H93.4355L95.5014 10.5999H97.3635L93.6102 21.5192C93.3774 22.1889 93.0282 22.6549 92.6209 22.9169C92.1845 23.1789 91.6898 23.2954 91.1662 23.2954H90.5842V21.5774H91.108C91.3407 21.5774 91.5444 21.5192 91.748 21.3736C91.9517 21.2281 92.068 21.0534 92.1554 20.7912L92.6209 19.277L89.4786 10.5999Z" fill="white"/>
<path d="M55.2334 9.11478C55.828 9.11478 56.31 8.63242 56.31 8.0374C56.31 7.44238 55.828 6.96002 55.2334 6.96002C54.6389 6.96002 54.1569 7.44238 54.1569 8.0374C54.1569 8.63242 54.6389 9.11478 55.2334 9.11478Z" fill="white"/>
<path d="M68.3559 9.11478C68.9504 9.11478 69.4323 8.63242 69.4323 8.0374C69.4323 7.44238 68.9504 6.96002 68.3559 6.96002C67.7612 6.96002 67.2793 7.44238 67.2793 8.0374C67.2793 8.63242 67.7612 9.11478 68.3559 9.11478Z" fill="white"/>
<path d="M81.7975 9.11478C82.392 9.11478 82.874 8.63242 82.874 8.0374C82.874 7.44238 82.392 6.96002 81.7975 6.96002C81.2029 6.96002 80.7209 7.44238 80.7209 8.0374C80.7209 8.63242 81.2029 9.11478 81.7975 9.11478Z" fill="white"/>
<path d="M17.9621 11.6481C18.2513 11.6481 18.4858 11.4134 18.4858 11.124C18.4858 10.8345 18.2513 10.5999 17.9621 10.5999C17.6728 10.5999 17.4384 10.8345 17.4384 11.124C17.4384 11.4134 17.6728 11.6481 17.9621 11.6481Z" fill="white"/>
<path d="M16.653 10.5998C16.9743 10.5998 17.2349 10.3391 17.2349 10.0174C17.2349 9.69579 16.9743 9.43506 16.653 9.43506C16.3316 9.43506 16.071 9.69579 16.071 10.0174C16.071 10.3391 16.3316 10.5998 16.653 10.5998Z" fill="white"/>
<path d="M15.1398 9.63892C15.4772 9.63892 15.7508 9.36515 15.7508 9.02744C15.7508 8.68973 15.4772 8.41595 15.1398 8.41595C14.8024 8.41595 14.5288 8.68973 14.5288 9.02744C14.5288 9.36515 14.8024 9.63892 15.1398 9.63892Z" fill="white"/>
<path d="M13.365 8.96919C13.7024 8.96919 13.9759 8.69542 13.9759 8.35771C13.9759 8.01999 13.7024 7.74622 13.365 7.74622C13.0275 7.74622 12.7539 8.01999 12.7539 8.35771C12.7539 8.69542 13.0275 8.96919 13.365 8.96919Z" fill="white"/>
<path d="M11.4156 8.88182C11.8173 8.88182 12.143 8.55591 12.143 8.15386C12.143 7.75182 11.8173 7.4259 11.4156 7.4259C11.0139 7.4259 10.6882 7.75182 10.6882 8.15386C10.6882 8.55591 11.0139 8.88182 11.4156 8.88182Z" fill="white"/>
<path d="M9.2916 9.40601C9.74153 9.40601 10.1063 9.04099 10.1063 8.59071C10.1063 8.14042 9.74153 7.77539 9.2916 7.77539C8.84167 7.77539 8.47693 8.14042 8.47693 8.59071C8.47693 9.04099 8.84167 9.40601 9.2916 9.40601Z" fill="white"/>
<path d="M7.25486 10.9201C7.75299 10.9201 8.15682 10.5159 8.15682 10.0174C8.15682 9.51889 7.75299 9.11475 7.25486 9.11475C6.75672 9.11475 6.35291 9.51889 6.35291 10.0174C6.35291 10.5159 6.75672 10.9201 7.25486 10.9201Z" fill="white"/>
<path d="M5.80024 13.0166C6.33052 13.0166 6.76039 12.5864 6.76039 12.0557C6.76039 11.525 6.33052 11.0948 5.80024 11.0948C5.26996 11.0948 4.84009 11.525 4.84009 12.0557C4.84009 12.5864 5.26996 13.0166 5.80024 13.0166Z" fill="white"/>
<path d="M5.68379 16.0158C6.26227 16.0158 6.73122 15.5464 6.73122 14.9675C6.73122 14.3885 6.26227 13.9192 5.68379 13.9192C5.10531 13.9192 4.63635 14.3885 4.63635 14.9675C4.63635 15.5464 5.10531 16.0158 5.68379 16.0158Z" fill="white"/>
<path d="M7.34208 18.7238C8.00091 18.7238 8.535 18.1893 8.535 17.5299C8.535 16.8706 8.00091 16.3361 7.34208 16.3361C6.68326 16.3361 6.14917 16.8706 6.14917 17.5299C6.14917 18.1893 6.68326 18.7238 7.34208 18.7238Z" fill="white"/>
<path d="M20.057 14.6472C20.6354 14.6472 21.1043 14.1779 21.1043 13.5991C21.1043 13.0201 20.6354 12.5508 20.057 12.5508C19.4785 12.5508 19.0095 13.0201 19.0095 13.5991C19.0095 14.1779 19.4785 14.6472 20.057 14.6472Z" fill="white"/>
<path d="M22.3264 12.376C22.937 12.376 23.432 11.8806 23.432 11.2695C23.432 10.6584 22.937 10.163 22.3264 10.163C21.7158 10.163 21.2207 10.6584 21.2207 11.2695C21.2207 11.8806 21.7158 12.376 22.3264 12.376Z" fill="white"/>
<path d="M17.4386 17.0058C18.0813 17.0058 18.6025 16.4844 18.6025 15.8411C18.6025 15.1979 18.0813 14.6763 17.4386 14.6763C16.7959 14.6763 16.2748 15.1979 16.2748 15.8411C16.2748 16.4844 16.7959 17.0058 17.4386 17.0058Z" fill="white"/>
<path d="M14.4703 19.0732C15.2416 19.0732 15.8669 18.4475 15.8669 17.6755C15.8669 16.9037 15.2416 16.278 14.4703 16.278C13.6989 16.278 13.0737 16.9037 13.0737 17.6755C13.0737 18.4475 13.6989 19.0732 14.4703 19.0732Z" fill="white"/>
<path d="M10.7757 20.1506C11.6594 20.1506 12.3759 19.4336 12.3759 18.5491C12.3759 17.6646 11.6594 16.9476 10.7757 16.9476C9.89186 16.9476 9.17542 17.6646 9.17542 18.5491C9.17542 19.4336 9.89186 20.1506 10.7757 20.1506Z" fill="white"/>
<path d="M25.3811 10.7163C26.1203 10.7163 26.7195 10.1166 26.7195 9.37685C26.7195 8.6371 26.1203 8.03741 25.3811 8.03741C24.642 8.03741 24.0427 8.6371 24.0427 9.37685C24.0427 10.1166 24.642 10.7163 25.3811 10.7163Z" fill="white"/>
<path d="M29.0766 9.87185C29.88 9.87185 30.5314 9.22001 30.5314 8.41594C30.5314 7.61186 29.88 6.96002 29.0766 6.96002C28.2731 6.96002 27.6218 7.61186 27.6218 8.41594C27.6218 9.22001 28.2731 9.87185 29.0766 9.87185Z" fill="white"/>
<path d="M32.3638 10.658C33.0227 10.658 33.5567 10.1235 33.5567 9.46417C33.5567 8.80483 33.0227 8.27032 32.3638 8.27032C31.705 8.27032 31.1709 8.80483 31.1709 9.46417C31.1709 10.1235 31.705 10.658 32.3638 10.658Z" fill="white"/>
<path d="M34.0227 13.2786C34.6012 13.2786 35.0702 12.8093 35.0702 12.2303C35.0702 11.6515 34.6012 11.1821 34.0227 11.1821C33.4442 11.1821 32.9752 11.6515 32.9752 12.2303C32.9752 12.8093 33.4442 13.2786 34.0227 13.2786Z" fill="white"/>
<path d="M33.9644 16.0158C34.4624 16.0158 34.8663 15.6117 34.8663 15.1131C34.8663 14.6147 34.4624 14.2105 33.9644 14.2105C33.4662 14.2105 33.0624 14.6147 33.0624 15.1131C33.0624 15.6117 33.4662 16.0158 33.9644 16.0158Z" fill="white"/>
<path d="M32.4519 17.9667C32.9018 17.9667 33.2665 17.6017 33.2665 17.1514C33.2665 16.7011 32.9018 16.3361 32.4519 16.3361C32.002 16.3361 31.6372 16.7011 31.6372 17.1514C31.6372 17.6017 32.002 17.9667 32.4519 17.9667Z" fill="white"/>
<path d="M30.5312 19.277C30.981 19.277 31.3458 18.912 31.3458 18.4618C31.3458 18.0115 30.981 17.6464 30.5312 17.6464C30.0812 17.6464 29.7164 18.0115 29.7164 18.4618C29.7164 18.912 30.0812 19.277 30.5312 19.277Z" fill="white"/>
<path d="M28.378 19.6264C28.7797 19.6264 29.1054 19.3005 29.1054 18.8985C29.1054 18.4964 28.7797 18.1705 28.378 18.1705C27.9762 18.1705 27.6506 18.4964 27.6506 18.8985C27.6506 19.3005 27.9762 19.6264 28.378 19.6264Z" fill="white"/>
<path d="M26.3419 19.3644C26.6793 19.3644 26.9529 19.0906 26.9529 18.7529C26.9529 18.4152 26.6793 18.1415 26.3419 18.1415C26.0044 18.1415 25.7308 18.4152 25.7308 18.7529C25.7308 19.0906 26.0044 19.3644 26.3419 19.3644Z" fill="white"/>
<path d="M24.654 18.6073C24.9754 18.6073 25.2359 18.3466 25.2359 18.0249C25.2359 17.7033 24.9754 17.4426 24.654 17.4426C24.3326 17.4426 24.0721 17.7033 24.0721 18.0249C24.0721 18.3466 24.3326 18.6073 24.654 18.6073Z" fill="white"/>
<path d="M23.1118 17.6755C23.4011 17.6755 23.6356 17.4408 23.6356 17.1514C23.6356 16.862 23.4011 16.6273 23.1118 16.6273C22.8226 16.6273 22.5881 16.862 22.5881 17.1514C22.5881 17.4408 22.8226 17.6755 23.1118 17.6755Z" fill="white"/>
</g>
</svg>
