<svg xmlns="http://www.w3.org/2000/svg" width="102" height="29" fill="none"><mask id="a" width="94" height="18" x="4" y="6" maskUnits="userSpaceOnUse" style="mask-type:luminance"><path fill="#fff" d="M97.36 6.96H4.64V23.3h92.72V6.96Z"/></mask><g fill="#fff" mask="url(#a)"><path d="M41.2 6.96h1.78l3.52 8.27 3.44-8.27h1.77v12.7h-1.86v-7.92h-.06l-2.7 6.63h-1.17l-2.82-6.63h-.03v7.92h-1.86V6.96ZM56.1 10.6h-1.74v9.03h1.75V10.6ZM58.7 6.96h6.95v1.8h-5.1v3.76h5.1v1.7h-5.1v5.44H58.7V6.96ZM69.23 10.6h-1.75v9.03h1.75V10.6ZM71.64 10.6h1.75v.96h.03a2.76 2.76 0 0 1 2.27-1.08c.72 0 1.4.27 1.98.79.58.52.9 1.31.93 2.36v6h-1.75v-5.36c0-.64-.17-1.1-.5-1.46-.31-.35-.72-.5-1.24-.5-.5 0-.94.18-1.26.5-.32.32-.49.82-.49 1.46v5.39h-1.75l.03-9.06ZM82.67 10.6h-1.75v9.03h1.75V10.6ZM85.29 6.99h1.74v3.61h1.28V12h-1.28v5.27c0 .46.2.67.62.67h.66v1.72h-.9c-.6 0-1.13-.2-1.51-.59-.4-.38-.61-.93-.61-1.63V12h-.87v-1.4h.87V6.99ZM89.48 10.6h1.86l2.07 6.32h.03l2.06-6.32h1.86l-3.75 10.92a2.63 2.63 0 0 1-.99 1.4c-.44.26-.93.38-1.45.38h-.59v-1.72h.53a1.07 1.07 0 0 0 1.05-.79l.46-1.51-3.14-8.68ZM55.23 9.11a1.08 1.08 0 1 0 0-2.15 1.08 1.08 0 0 0 0 2.15ZM68.36 9.11a1.08 1.08 0 1 0 0-2.15 1.08 1.08 0 0 0 0 2.15ZM81.8 9.11a1.08 1.08 0 1 0 0-2.15 1.08 1.08 0 0 0 0 2.15ZM17.96 11.65a.52.52 0 1 0 0-1.05.52.52 0 0 0 0 1.05ZM16.65 10.6a.58.58 0 1 0 0-1.16.58.58 0 0 0 0 1.16ZM15.14 9.64a.61.61 0 1 0 0-1.22.61.61 0 0 0 0 1.22ZM13.37 8.97a.61.61 0 1 0 0-1.22.61.61 0 0 0 0 1.22ZM11.42 8.88a.73.73 0 1 0 0-1.45.73.73 0 0 0 0 1.45ZM9.3 9.4a.82.82 0 1 0 0-1.62.82.82 0 0 0 0 1.63ZM7.25 10.92a.9.9 0 1 0 0-1.8.9.9 0 0 0 0 1.8ZM5.8 13.02a.96.96 0 1 0 0-1.92.96.96 0 0 0 0 1.92ZM5.68 16.02a1.05 1.05 0 1 0 0-2.1 1.05 1.05 0 0 0 0 2.1ZM7.34 18.72a1.2 1.2 0 1 0 0-2.38 1.2 1.2 0 0 0 0 2.38ZM20.06 14.65a1.05 1.05 0 1 0 0-2.1 1.05 1.05 0 0 0 0 2.1ZM22.33 12.38a1.1 1.1 0 1 0 0-2.22 1.1 1.1 0 0 0 0 2.22ZM17.44 17a1.16 1.16 0 1 0 0-2.32 1.16 1.16 0 0 0 0 2.33ZM14.47 19.07a1.4 1.4 0 1 0 0-2.8 1.4 1.4 0 0 0 0 2.8ZM10.78 20.15a1.6 1.6 0 1 0 0-3.2 1.6 1.6 0 0 0 0 3.2ZM25.38 10.72a1.34 1.34 0 1 0 0-2.68 1.34 1.34 0 0 0 0 2.68ZM29.08 9.87a1.46 1.46 0 1 0 0-2.9 1.46 1.46 0 0 0 0 2.9ZM32.36 10.66a1.2 1.2 0 1 0 0-2.39 1.2 1.2 0 0 0 0 2.39ZM34.02 13.28a1.05 1.05 0 1 0 0-2.1 1.05 1.05 0 0 0 0 2.1ZM33.96 16.02a.9.9 0 1 0 0-1.8.9.9 0 0 0 0 1.8ZM32.45 17.97a.81.81 0 1 0 0-1.63.81.81 0 0 0 0 1.63ZM30.53 19.28a.81.81 0 1 0 0-1.63.81.81 0 0 0 0 1.63ZM28.38 19.63a.73.73 0 1 0 0-1.46.73.73 0 0 0 0 1.46ZM26.34 19.36a.61.61 0 1 0 0-1.22.61.61 0 0 0 0 1.22ZM24.65 18.6a.58.58 0 1 0 0-1.16.58.58 0 0 0 0 1.17ZM23.11 17.68a.52.52 0 1 0 0-1.05.52.52 0 0 0 0 1.05Z"/></g></svg>