<svg xmlns="http://www.w3.org/2000/svg" width="99" height="18" fill="none"><g clip-path="url(#a)"><path fill="#fff" d="m92.32 14.79-3.71-8.5h2.48l2.54 6.1 2.93-6.1H99L93.22 18h-2.49l1.59-3.21Zm-9.05-1.76a2.54 2.54 0 0 0 1.58-1.11 2.56 2.56 0 0 0 .37-1.36 2.67 2.67 0 0 0-.38-1.37 2.37 2.37 0 0 0-1.57-1.1 3.1 3.1 0 0 0-2.01.23 2.42 2.42 0 0 0-.95.87 2.45 2.45 0 0 0-.36 1.37 2.44 2.44 0 0 0 1.92 2.46 3.03 3.03 0 0 0 1.4 0Zm-2.5 1.9a4.16 4.16 0 0 1-3.12-3.12c-.21-.83-.21-1.69 0-2.5a4.18 4.18 0 0 1 3.12-3.11 4.98 4.98 0 0 1 3.56.44 2.54 2.54 0 0 1 .73.67V6.28h2.36v8.56h-2.36V13.8a3.12 3.12 0 0 1-1.2.92 5.2 5.2 0 0 1-3.1.2Zm-8.58-6.48c.34 0 .67-.03 1-.12.26-.06.5-.18.7-.35.19-.15.33-.35.42-.57.09-.26.13-.53.13-.8s-.05-.54-.14-.8a1.36 1.36 0 0 0-.41-.56c-.2-.17-.44-.28-.7-.35a3.84 3.84 0 0 0-1-.12h-2.32v3.67h2.32Zm-4.77-5.68h5c.78 0 1.46.1 2.04.29.58.19 1.05.45 1.42.79.38.33.66.75.84 1.22.19.5.28 1.02.27 1.55.01.52-.08 1.05-.27 1.54-.18.46-.47.88-.84 1.21-.37.35-.84.61-1.42.8-.58.2-1.26.3-2.04.3h-2.55v4.37h-2.45V2.77Zm-10.5 3.5h2.35V7.3a3.22 3.22 0 0 1 2-1.2 5.03 5.03 0 0 1 2.4.18 3 3 0 0 1 1.1.7c.32.33.56.72.7 1.15.16.5.24 1.01.24 1.53v5.17h-2.34v-4.56c0-.34-.04-.67-.14-.99-.08-.26-.21-.5-.4-.71-.17-.2-.4-.34-.64-.43-.27-.1-.57-.15-.86-.15-.3 0-.59.05-.87.15-.24.09-.47.23-.64.43-.18.2-.32.45-.4.72-.1.31-.14.64-.14.97v4.57h-2.36V6.28ZM51.16 13c.22-.05.44-.13.64-.24.2-.1.38-.22.54-.38a2.26 2.26 0 0 0 .65-1.13 3 3 0 0 0 0-1.42 2.31 2.31 0 0 0-1.19-1.5 2.6 2.6 0 0 0-.64-.25 3.26 3.26 0 0 0-2.12.24 2.46 2.46 0 0 0-.92.9 2.8 2.8 0 0 0-.25 2.04c.06.21.14.42.25.61.1.2.23.37.39.52a2.87 2.87 0 0 0 1.92.7c.25 0 .5-.03.74-.09m-2.13 1.92c-.42-.1-.83-.24-1.22-.43a4.5 4.5 0 0 1-1.76-1.6 4.73 4.73 0 0 1 0-4.7 4.34 4.34 0 0 1 1.76-1.6 6.28 6.28 0 0 1 5.22 0 4.7 4.7 0 0 1 1.78 1.6c.21.34.38.7.49 1.1.22.82.22 1.68 0 2.5a4.23 4.23 0 0 1-2.27 2.7 6.3 6.3 0 0 1-4 .44M39.89 13c.22-.06.44-.14.64-.24a2.46 2.46 0 0 0 .93-.89c.12-.2.2-.4.25-.62a3 3 0 0 0 0-1.42 2.31 2.31 0 0 0-1.18-1.51 2.6 2.6 0 0 0-.64-.24 3.26 3.26 0 0 0-2.13.24 2.47 2.47 0 0 0-.91.9 2.8 2.8 0 0 0-.25 2.03c.06.22.14.42.25.62a2.25 2.25 0 0 0 .91.89 2.87 2.87 0 0 0 1.39.32c.25 0 .5-.02.74-.08Zm-2.14 1.93c-.42-.1-.83-.25-1.22-.44a4.51 4.51 0 0 1-1.76-1.6 4.73 4.73 0 0 1 0-4.7 4.34 4.34 0 0 1 1.76-1.6 6.28 6.28 0 0 1 4-.44c.43.1.83.25 1.22.45a4.7 4.7 0 0 1 1.78 1.6 4.73 4.73 0 0 1 0 4.7 4.77 4.77 0 0 1-2.99 2.03c-.91.2-1.86.2-2.78 0M19.22 2.77h2.48l4.22 6.43 4.24-6.43h2.48v12.07h-2.45V6.56l-3.5 5.34h-1.5l-3.5-5.34v8.28h-2.46V2.77ZM13.6 4.93a2.47 2.47 0 0 0 2.42-2.94 2.46 2.46 0 0 0-3.36-1.8 2.47 2.47 0 0 0 .94 4.74Zm-7.57 11.1a6.03 6.03 0 0 1-5.9-7.18 6 6 0 0 1 8.2-4.38 6.01 6.01 0 0 1-2.3 11.55Z"/></g><defs><clipPath id="a"><path fill="#fff" d="M0 0h99v18H0z"/></clipPath></defs></svg>