<svg xmlns="http://www.w3.org/2000/svg" id="Layer_2" viewBox="0 0 757.81 164.41"><defs><style>.cls-1{fill:#f69220}.cls-2{fill:#606060}</style></defs><g id="Layer_1-2"><path d="M62.32 117.62 19.21 43.73a10.3 10.3 0 1 0-17.8 10.38L44.52 128a10.31 10.31 0 0 0 17.8-10.39Z" class="cls-1"/><path d="M161.9 92.94c-.17-5.24-1.78-10.53-4.82-15.86-4.74-8.28-10.09-13.94-17.33-17.36-6.16-2.91-13.05-4.54-20.15-3.79a42.19 42.19 0 0 0 4.28-15.5c.72-7.86-1.88-14.77-6.66-23.03-3.07-5.31-6.84-9.36-11.29-12.14A33.89 33.89 0 0 0 91.33.24a47.44 47.44 0 0 0-16.51 1.29 78.08 78.08 0 0 0-5.75 1.67c-.74.24-1.49.51-2.34.81-3.43 1.25-12.45 6.26-15.52 8.04l-14.6 9.13-.33.19a11.48 11.48 0 1 0 11.4 19.93l.25-.15 24.15-13.79c2.24-1.3 4.58-2.1 7-2.4 2.43-.31 4.77-.13 7.04.53a19.32 19.32 0 0 1 11.32 8.92 21.25 21.25 0 0 1 2.59 7.13c.42 2.51.43 4.91.02 7.2a16.64 16.64 0 0 1-2.5 6.3 15.13 15.13 0 0 1-5.07 4.71l-14.56 8.69-6.2 3.59-4.01 2.31a10.9 10.9 0 1 0 10.9 18.87l8.07-4.66 20.66-11.29a14.98 14.98 0 0 1 6.62-2.02c2.29-.13 4.52.21 6.7 1a20.8 20.8 0 0 1 6.21 3.64 21.37 21.37 0 0 1 4.86 5.82 19.07 19.07 0 0 1 2.41 7.1c.32 2.48.2 4.88-.38 7.17-.57 2.3-1.6 4.41-3.08 6.36a18.38 18.38 0 0 1-5.59 4.85l-35.82 20.4-1.76 1.01-6.46 3.75-12.53 6.75a11.34 11.34 0 0 0 10.76 19.96l30.93-16.66L135 132.82a64.71 64.71 0 0 0 14.5-11.12 47.32 47.32 0 0 0 9.41-13.63 33.95 33.95 0 0 0 3-15.15ZM509.5 74.09c3.87-1.8 9.44-7.21 9.44-15.59 0-12.94-8.64-21.21-23.43-21.21h-21.47c-2.17 0-4.88 0-6.94 2.07-2.07 2.07-2.07 4.77-2.07 6.94v57.47c0 2.17 0 4.88 2.07 6.94 2.07 2.07 4.77 2.07 6.94 2.07h22.74c13.52 0 23.22-7.63 23.22-21.74 0-10.07-5.88-14.84-10.5-16.96Zm-29.64-23.64h14.47c6.26 0 9.75 3.5 9.75 8.69s-3.5 8.69-9.75 8.69h-14.47V50.44Zm15.43 49.2h-15.43V81.09h15.43c6.68 0 9.86 4.14 9.86 9.22s-3.18 9.33-9.86 9.33ZM553.55 56.91c-14.31 0-24.02 10.23-24.02 28.26 0 22.32 12.46 28.26 25.55 28.26 6.1 0 11.29-1.27 15.06-3.82 3.18-2.12 5.41-4.51 5.41-7.1 0-3.18-2.92-5.78-5.57-5.78-1.64 0-2.97.53-5.14 2.07a15.96 15.96 0 0 1-9.54 2.97c-8.01 0-12.19-5.14-12.19-12.3h26.56c2.07 0 4.29 0 6.04-1.75 1.64-1.64 1.91-4.03 1.86-6.15-.48-13.94-9.12-24.65-24.02-24.65Zm-10.44 23.11c.05-2.39.32-3.98 1.22-5.99 1.43-3.29 4.61-5.67 9.22-5.67s7.79 2.39 9.28 5.67c.9 2.01 1.11 3.6 1.22 5.99h-20.94ZM609.06 69.74c2.6 0 3.55-.16 4.67-.74 1.64-.85 2.54-2.49 2.54-4.56s-.9-3.71-2.54-4.56c-1.11-.58-2.07-.74-4.67-.74h-4.14v-7.37c0-3.34-.16-4.67-.9-6.15-1.01-2.01-3.18-3.29-5.99-3.29s-4.98 1.27-5.99 3.29c-.74 1.48-.9 2.81-.9 6.15v7.37h-1.38c-2.6 0-3.55.16-4.67.74-1.64.85-2.54 2.49-2.54 4.56s.9 3.71 2.54 4.56c1.11.58 2.07.74 4.67.74h1.38v27.25c0 8.06 4.51 15.8 15.96 15.8h.74c2.65 0 4.45-.32 5.67-.95 1.64-.85 2.76-2.49 2.76-4.93s-1.06-4.08-2.76-4.93c-1.17-.58-2.39-.74-4.14-.85-3.5-.21-4.45-2.28-4.45-4.88V69.74h4.14ZM646.16 69.74c2.6 0 3.55-.16 4.67-.74 1.64-.85 2.54-2.49 2.54-4.56s-.9-3.71-2.54-4.56c-1.11-.58-2.07-.74-4.67-.74h-4.14v-7.37c0-3.34-.16-4.67-.9-6.15-1.01-2.01-3.18-3.29-5.99-3.29s-4.98 1.27-5.99 3.29c-.74 1.48-.9 2.81-.9 6.15v7.37h-1.38c-2.6 0-3.55.16-4.67.74-1.64.85-2.54 2.49-2.54 4.56s.9 3.71 2.54 4.56c1.11.58 2.07.74 4.67.74h1.38v27.25c0 8.06 4.51 15.8 15.96 15.8h.74c2.65 0 4.45-.32 5.67-.95 1.64-.85 2.76-2.49 2.76-4.93s-1.06-4.08-2.76-4.93c-1.17-.58-2.39-.74-4.14-.85-3.5-.21-4.45-2.28-4.45-4.88V69.74h4.14ZM683.38 56.91c-14.31 0-24.02 10.23-24.02 28.26 0 22.32 12.46 28.26 25.55 28.26 6.1 0 11.29-1.27 15.06-3.82 3.18-2.12 5.41-4.51 5.41-7.1 0-3.18-2.92-5.78-5.57-5.78-1.64 0-2.97.53-5.14 2.07a15.96 15.96 0 0 1-9.54 2.97c-8.01 0-12.19-5.14-12.19-12.3h26.56c2.07 0 4.29 0 6.04-1.75 1.64-1.64 1.91-4.03 1.86-6.15-.48-13.94-9.12-24.65-24.02-24.65Zm-10.44 23.11c.05-2.39.32-3.98 1.22-5.99 1.43-3.29 4.61-5.67 9.22-5.67s7.79 2.39 9.28 5.67c.9 2.01 1.11 3.6 1.22 5.99h-20.94ZM754.31 59.46c-2.49-1.64-5.25-2.54-9.54-2.54-5.46 0-10.5 2.81-13.15 5.99-.32-2.01-.95-3.18-2.07-4.19a6.18 6.18 0 0 0-4.4-1.59c-2.6 0-4.93 1.27-5.94 3.18-.85 1.59-1.01 2.65-1.01 6.2v37.27c0 3.34.16 4.67.9 6.15 1.01 2.01 3.18 3.29 5.99 3.29s4.98-1.27 5.99-3.29c.74-1.48.9-2.81.9-6.15V79.5c0-7 4.56-10.18 9.17-10.18 1.86 0 3.6.58 5.25 1.43 1.86.95 3.34 1.43 4.72 1.43 1.7 0 3.39-.69 4.61-1.91a7.17 7.17 0 0 0 2.07-5.04c0-2.39-1.43-4.4-3.5-5.78Z" class="cls-2"/><path d="M276.41 36.29c-1.94 0-3.35.39-4.69 1.3-1.88 1.21-3.28 3.49-3.94 4.75l-18.21 34.69-18.22-34.69c-.66-1.25-2.06-3.54-3.93-4.74a7.77 7.77 0 0 0-4.7-1.31 7.3 7.3 0 0 0-5.36 2.17c-1.98 1.98-2.38 4.35-2.38 7.52v56.79c0 3.38.09 4.73 1.07 6.7 1.26 2.33 3.9 3.78 6.89 3.78s5.63-1.45 6.89-3.8c.98-1.95 1.06-3.31 1.06-6.68V71.28l11.1 21.86c1.76 3.47 3.56 5.48 7.58 5.48s5.82-2.01 7.58-5.48l11.1-21.86v31.49c0 3.38.09 4.73 1.07 6.7 1.26 2.33 3.9 3.78 6.89 3.78s5.63-1.45 6.9-3.8c.98-1.95 1.06-3.31 1.06-6.68V45.98c0-3.17-.4-5.54-2.38-7.52a7.32 7.32 0 0 0-5.36-2.17ZM336.41 56.39c-2.93 0-5.35 1.34-6.47 3.59-.81 1.62-.96 3.08-.96 6.37v24.21c0 8.63-6.56 9.31-8.57 9.31s-8.46-.67-8.46-9.31V66.35c0-3.29-.14-4.74-.96-6.37-1.12-2.25-3.54-3.59-6.47-3.59s-5.35 1.34-6.47 3.59c-.81 1.62-.96 3.08-.96 6.37v26.11c0 7.18 1.72 11.96 5.75 15.99 3.28 3.28 7.9 5.01 13.36 5.01 5.1 0 10.04-1.93 13.43-5.22a6.78 6.78 0 0 0 1.95 3.26 6.76 6.76 0 0 0 4.77 1.74c2.78 0 5.3-1.36 6.41-3.47.94-1.76 1.07-2.95 1.07-6.44v-37c0-3.29-.14-4.74-.96-6.37-1.12-2.25-3.54-3.59-6.47-3.59ZM378.62 69.78c2.27 0 3.9.59 6.23 2.26 2.03 1.48 3.36 2.01 5.08 2.01s3.5-.77 4.63-1.97a6.85 6.85 0 0 0 2.11-4.88c0-3.9-3.77-6.64-6.94-8.25-3.32-1.93-6.61-2.76-11.02-2.76-4.67 0-11.37 1.01-16.8 5.82-5.55 4.91-8.36 12.57-8.36 22.77s2.8 17.88 8.33 22.82c5.43 4.85 12.09 5.87 16.73 5.87a22 22 0 0 0 11.13-2.7c4.67-2.57 6.94-5.28 6.94-8.31 0-1.84-.71-3.48-2.11-4.88a6.73 6.73 0 0 0-4.64-2.03c-1.86 0-3.33.81-5.09 2.12-2.17 1.6-3.86 2.2-6.23 2.2a8.8 8.8 0 0 1-7.28-3.36c-2.02-2.53-2.92-6.15-2.92-11.74s.9-9.1 2.92-11.63a9.19 9.19 0 0 1 7.28-3.36ZM446.19 61.2c-3.28-3.28-7.9-5.01-13.36-5.01-5.13 0-9.12 1.51-12.78 4.88V46.26c0-3.29-.14-4.74-.96-6.37-1.12-2.25-3.54-3.59-6.47-3.59s-5.35 1.34-6.47 3.59c-.81 1.62-.96 3.08-.96 6.37v57.05c0 3.29.14 4.74.96 6.37 1.12 2.25 3.54 3.59 6.47 3.59s5.35-1.34 6.47-3.59c.81-1.63.96-3.08.96-6.37V79.1c0-8.63 6.56-9.31 8.57-9.31s8.46.67 8.46 9.31v24.21c0 3.29.14 4.74.96 6.37 1.12 2.25 3.54 3.59 6.47 3.59s5.35-1.34 6.47-3.59c.81-1.62.96-3.08.96-6.37v-26.1c0-7.18-1.72-11.96-5.75-16Z" class="cls-1"/></g></svg>