<?xml version="1.0" encoding="UTF-8"?><svg id="Layer_2" xmlns="http://www.w3.org/2000/svg" viewBox="0 0 757.81 164.41"><defs><style>.cls-1{fill:#f69220;}.cls-2{fill:#606060;}</style></defs><g id="Layer_1-2"><g><path class="cls-1" d="M62.32,117.62L19.21,43.73c-2.87-4.92-9.18-6.58-14.09-3.71C.2,42.89-1.46,49.2,1.41,54.11l43.11,73.89c1.92,3.28,5.37,5.11,8.91,5.11,1.76,0,3.55-.45,5.18-1.41,4.92-2.87,6.58-9.18,3.71-14.09Z"/><path class="cls-2" d="M161.9,92.94c-.17-5.24-1.78-10.53-4.82-15.86-4.74-8.28-10.09-13.94-17.33-17.36-6.16-2.91-13.05-4.54-20.15-3.79,2.49-4.83,3.78-10.13,4.28-15.5,.72-7.86-1.88-14.77-6.66-23.03-3.07-5.31-6.84-9.36-11.29-12.14-4.44-2.78-9.31-4.46-14.6-5.02-5.29-.56-10.79-.13-16.51,1.29-1.83,.45-3.78,1.02-5.75,1.67-.74,.24-1.49,.51-2.34,.81-3.43,1.25-12.45,6.26-15.52,8.04l-14.6,9.13-.33,.19c-5.51,3.15-7.42,10.16-4.27,15.67,2.12,3.71,5.99,5.78,9.98,5.78,1.93,0,3.89-.49,5.69-1.52l.25-.15,24.15-13.79c2.24-1.3,4.58-2.1,7-2.4,2.43-.31,4.77-.13,7.04,.53,2.27,.65,4.4,1.75,6.39,3.27,1.98,1.53,3.63,3.41,4.93,5.65,1.3,2.24,2.16,4.62,2.59,7.13,.42,2.51,.43,4.91,.02,7.2-.41,2.29-1.24,4.39-2.5,6.3-1.26,1.9-2.95,3.47-5.07,4.71l-14.56,8.69-6.2,3.59-4.01,2.31c-5.21,3.01-7,9.67-3.99,14.88,2.02,3.5,5.68,5.45,9.45,5.45,1.85,0,3.72-.47,5.44-1.46l8.07-4.66,20.66-11.29c2.14-1.22,4.35-1.89,6.62-2.02,2.29-.13,4.52,.21,6.7,1,2.18,.79,4.25,2.01,6.21,3.64,1.95,1.63,3.57,3.57,4.86,5.82,1.29,2.25,2.09,4.62,2.41,7.1,.32,2.48,.2,4.88-.38,7.17-.57,2.3-1.6,4.41-3.08,6.36-1.48,1.95-3.34,3.56-5.59,4.85l-35.82,20.4-1.76,1.01-6.46,3.75-12.53,6.75c-5.51,2.97-7.57,9.84-4.6,15.36,2.05,3.8,5.95,5.96,9.99,5.96,1.81,0,3.66-.44,5.37-1.36l30.93-16.66,24.79-13.57c5.57-3.18,10.4-6.89,14.5-11.12,4.1-4.23,7.24-8.77,9.41-13.63,2.17-4.85,3.17-9.9,3-15.15Z"/><g><path class="cls-2" d="M509.5,74.09c3.87-1.8,9.44-7.21,9.44-15.59,0-12.94-8.64-21.21-23.43-21.21h-21.47c-2.17,0-4.88,0-6.94,2.07-2.07,2.07-2.07,4.77-2.07,6.94v57.47c0,2.17,0,4.88,2.07,6.94,2.07,2.07,4.77,2.07,6.94,2.07h22.74c13.52,0,23.22-7.63,23.22-21.74,0-10.07-5.88-14.84-10.5-16.96Zm-29.64-23.64h14.47c6.26,0,9.75,3.5,9.75,8.69s-3.5,8.69-9.75,8.69h-14.47v-17.39Zm15.43,49.2h-15.43v-18.56h15.43c6.68,0,9.86,4.14,9.86,9.22s-3.18,9.33-9.86,9.33Z"/><path class="cls-2" d="M553.55,56.91c-14.31,0-24.02,10.23-24.02,28.26,0,22.32,12.46,28.26,25.55,28.26,6.1,0,11.29-1.27,15.06-3.82,3.18-2.12,5.41-4.51,5.41-7.1,0-3.18-2.92-5.78-5.57-5.78-1.64,0-2.97,.53-5.14,2.07-2.7,2.01-6.1,2.97-9.54,2.97-8.01,0-12.19-5.14-12.19-12.3h26.56c2.07,0,4.29,0,6.04-1.75,1.64-1.64,1.91-4.03,1.86-6.15-.48-13.94-9.12-24.65-24.02-24.65Zm-10.44,23.11c.05-2.39,.32-3.98,1.22-5.99,1.43-3.29,4.61-5.67,9.22-5.67s7.79,2.39,9.28,5.67c.9,2.01,1.11,3.6,1.22,5.99h-20.94Z"/><path class="cls-2" d="M609.06,69.74c2.6,0,3.55-.16,4.67-.74,1.64-.85,2.54-2.49,2.54-4.56s-.9-3.71-2.54-4.56c-1.11-.58-2.07-.74-4.67-.74h-4.14v-7.37c0-3.34-.16-4.67-.9-6.15-1.01-2.01-3.18-3.29-5.99-3.29s-4.98,1.27-5.99,3.29c-.74,1.48-.9,2.81-.9,6.15v7.37h-1.38c-2.6,0-3.55,.16-4.67,.74-1.64,.85-2.54,2.49-2.54,4.56s.9,3.71,2.54,4.56c1.11,.58,2.07,.74,4.67,.74h1.38v27.25c0,8.06,4.51,15.8,15.96,15.8h.74c2.65,0,4.45-.32,5.67-.95,1.64-.85,2.76-2.49,2.76-4.93s-1.06-4.08-2.76-4.93c-1.17-.58-2.39-.74-4.14-.85-3.5-.21-4.45-2.28-4.45-4.88v-26.51h4.14Z"/><path class="cls-2" d="M646.16,69.74c2.6,0,3.55-.16,4.67-.74,1.64-.85,2.54-2.49,2.54-4.56s-.9-3.71-2.54-4.56c-1.11-.58-2.07-.74-4.67-.74h-4.14v-7.37c0-3.34-.16-4.67-.9-6.15-1.01-2.01-3.18-3.29-5.99-3.29s-4.98,1.27-5.99,3.29c-.74,1.48-.9,2.81-.9,6.15v7.37h-1.38c-2.6,0-3.55,.16-4.67,.74-1.64,.85-2.54,2.49-2.54,4.56s.9,3.71,2.54,4.56c1.11,.58,2.07,.74,4.67,.74h1.38v27.25c0,8.06,4.51,15.8,15.96,15.8h.74c2.65,0,4.45-.32,5.67-.95,1.64-.85,2.76-2.49,2.76-4.93s-1.06-4.08-2.76-4.93c-1.17-.58-2.39-.74-4.14-.85-3.5-.21-4.45-2.28-4.45-4.88v-26.51h4.14Z"/><path class="cls-2" d="M683.38,56.91c-14.31,0-24.02,10.23-24.02,28.26,0,22.32,12.46,28.26,25.55,28.26,6.1,0,11.29-1.27,15.06-3.82,3.18-2.12,5.41-4.51,5.41-7.1,0-3.18-2.92-5.78-5.57-5.78-1.64,0-2.97,.53-5.14,2.07-2.7,2.01-6.1,2.97-9.54,2.97-8.01,0-12.19-5.14-12.19-12.3h26.56c2.07,0,4.29,0,6.04-1.75,1.64-1.64,1.91-4.03,1.86-6.15-.48-13.94-9.12-24.65-24.02-24.65Zm-10.44,23.11c.05-2.39,.32-3.98,1.22-5.99,1.43-3.29,4.61-5.67,9.22-5.67s7.79,2.39,9.28,5.67c.9,2.01,1.11,3.6,1.22,5.99h-20.94Z"/><path class="cls-2" d="M754.31,59.46c-2.49-1.64-5.25-2.54-9.54-2.54-5.46,0-10.5,2.81-13.15,5.99-.32-2.01-.95-3.18-2.07-4.19-1.06-1.01-2.54-1.59-4.4-1.59-2.6,0-4.93,1.27-5.94,3.18-.85,1.59-1.01,2.65-1.01,6.2v37.27c0,3.34,.16,4.67,.9,6.15,1.01,2.01,3.18,3.29,5.99,3.29s4.98-1.27,5.99-3.29c.74-1.48,.9-2.81,.9-6.15v-24.28c0-7,4.56-10.18,9.17-10.18,1.86,0,3.6,.58,5.25,1.43,1.86,.95,3.34,1.43,4.72,1.43,1.7,0,3.39-.69,4.61-1.91,1.22-1.22,2.07-3.02,2.07-5.04,0-2.39-1.43-4.4-3.5-5.78Z"/></g><g><path class="cls-1" d="M276.41,36.29c-1.94,0-3.35,.39-4.69,1.3-1.88,1.21-3.28,3.49-3.94,4.75l-18.21,34.69-18.22-34.69c-.66-1.25-2.06-3.54-3.93-4.74-1.35-.92-2.76-1.31-4.7-1.31-2.12,0-3.92,.73-5.36,2.17-1.98,1.98-2.38,4.35-2.38,7.52v56.79c0,3.38,.09,4.73,1.07,6.7,1.26,2.33,3.9,3.78,6.89,3.78s5.63-1.45,6.89-3.8c.98-1.95,1.06-3.31,1.06-6.68v-31.49l11.1,21.86c1.76,3.47,3.56,5.48,7.58,5.48s5.82-2.01,7.58-5.48l11.1-21.86v31.49c0,3.38,.09,4.73,1.07,6.7,1.26,2.33,3.9,3.78,6.89,3.78s5.63-1.45,6.9-3.8c.98-1.95,1.06-3.31,1.06-6.68V45.98c0-3.17-.4-5.54-2.38-7.52-1.44-1.44-3.25-2.17-5.36-2.17Z"/><path class="cls-1" d="M336.41,56.39c-2.93,0-5.35,1.34-6.47,3.59-.81,1.62-.96,3.08-.96,6.37v24.21c0,8.63-6.56,9.31-8.57,9.31s-8.46-.67-8.46-9.31v-24.21c0-3.29-.14-4.74-.96-6.37-1.12-2.25-3.54-3.59-6.47-3.59s-5.35,1.34-6.47,3.59c-.81,1.62-.96,3.08-.96,6.37v26.11c0,7.18,1.72,11.96,5.75,15.99,3.28,3.28,7.9,5.01,13.36,5.01,5.1,0,10.04-1.93,13.43-5.22,.38,1.27,.93,2.33,1.95,3.26,1.2,1.14,2.85,1.74,4.77,1.74,2.78,0,5.3-1.36,6.41-3.47,.94-1.76,1.07-2.95,1.07-6.44v-37c0-3.29-.14-4.74-.96-6.37-1.12-2.25-3.54-3.59-6.47-3.59Z"/><path class="cls-1" d="M378.62,69.78c2.27,0,3.9,.59,6.23,2.26,2.03,1.48,3.36,2.01,5.08,2.01s3.5-.77,4.63-1.97c1.42-1.48,2.11-3.08,2.11-4.88,0-3.9-3.77-6.64-6.94-8.25-3.32-1.93-6.61-2.76-11.02-2.76-4.67,0-11.37,1.01-16.8,5.82-5.55,4.91-8.36,12.57-8.36,22.77s2.8,17.88,8.33,22.82c5.43,4.85,12.09,5.87,16.73,5.87,4.29,0,7.62-.81,11.13-2.7,4.67-2.57,6.94-5.28,6.94-8.31,0-1.84-.71-3.48-2.11-4.88-1.17-1.23-2.99-2.03-4.64-2.03-1.86,0-3.33,.81-5.09,2.12-2.17,1.6-3.86,2.2-6.23,2.2-3.07,0-5.39-1.07-7.28-3.36-2.02-2.53-2.92-6.15-2.92-11.74s.9-9.1,2.92-11.63c1.79-2.18,4.25-3.31,7.28-3.36Z"/><path class="cls-1" d="M446.19,61.2c-3.28-3.28-7.9-5.01-13.36-5.01-5.13,0-9.12,1.51-12.78,4.88v-14.81c0-3.29-.14-4.74-.96-6.37-1.12-2.25-3.54-3.59-6.47-3.59s-5.35,1.34-6.47,3.59c-.81,1.62-.96,3.08-.96,6.37v57.05c0,3.29,.14,4.74,.96,6.37,1.12,2.25,3.54,3.59,6.47,3.59s5.35-1.34,6.47-3.59c.81-1.63,.96-3.08,.96-6.37v-24.21c0-8.63,6.56-9.31,8.57-9.31s8.46,.67,8.46,9.31v24.21c0,3.29,.14,4.74,.96,6.37,1.12,2.25,3.54,3.59,6.47,3.59s5.35-1.34,6.47-3.59c.81-1.62,.96-3.08,.96-6.37v-26.1c0-7.18-1.72-11.96-5.75-16Z"/></g></g></g></svg>