<svg xmlns="http://www.w3.org/2000/svg" width="80" height="14" fill="none"><g clip-path="url(#a)"><path fill="#83BA3B" d="M78.54 1.06C77.52.36 75.97 0 73.95 0h-5.3L66.7 10.83h-6.94l.44-2.46h4.18l.5-2.76h-4.18l.45-2.44h4.3L66.02 0h-8.75L55.4 10.27h-3.2L54.07 0H49.5l-1.87 10.27H44.5L46.4 0h-4.57l-1.97 10.83h-7l.45-2.46h4.2l.5-2.74h-4.2l.44-2.46h4.36L39.18 0H11.93l-1.55 8.58L7.29 0H2.55L0 14h4.53l1.54-8.82 3 8.82H25.3l1.97-10.83h2.54L27.84 14h42.7l1.24-6.84 2 6.84h4.53l-2.07-5.59.47-.1a4.05 4.05 0 0 0 2.43-1.44c.57-.74.86-1.69.86-2.83 0-1.32-.48-2.3-1.47-2.98Zm-57.18 9.77h-6.93l.44-2.46h4.35l.5-2.77H15.4l.41-2.43h6.92l-1.38 7.66ZM74.8 6.1c-.45.32-1.11.48-2.02.48h-.9l.7-3.76h.65c.75 0 1.3.12 1.68.37.3.2.64.58.64 1.31 0 .88-.4 1.36-.75 1.6Z"/></g><defs><clipPath id="a"><path fill="#fff" d="M0 0h80v14H0z"/></clipPath></defs></svg>