<svg xmlns="http://www.w3.org/2000/svg" width="76" height="35" fill="none"><g fill-rule="evenodd" clip-path="url(#a)" clip-rule="evenodd"><path fill="#F0A929" d="M.01 2.36c0-1.3 1.07-2.37 2.37-2.37h71.24c1.3 0 2.37 1.07 2.37 2.37v30.27c0 1.3-1.07 2.36-2.37 2.36H2.38A2.37 2.37 0 0 1 0 32.63V2.36Z"/><path fill="#fff" d="M.01 3.43H76v28.13H0V3.43Z"/><path fill="#E21C2A" d="M64.4 10.73a6.32 6.32 0 0 0-6.31 6.31 6.32 6.32 0 0 0 12.62 0c0-3.47-2.84-6.3-6.31-6.3ZM12.4 10.73a6.32 6.32 0 0 0-6.32 6.31 6.32 6.32 0 0 0 12.62 0c0-3.47-2.83-6.3-6.3-6.3Z"/><path fill="#E21C2A" d="M63.9 5.18c-5.84-.13-8.58 3.61-12.57 8.23l-3.76 4.36 5.95 7.12c1.42 2.19-1.28 4.36-2.96 2.36l-5.5-6.57-5.37 6.22c-1.7 1.98-4.38-.23-2.94-2.4l5.83-6.77-3.82-4.55 2.46-3.03 3.87 4.65 3.35-3.88c1.64-1.91 3.31-4.44 5.48-5.74H.02V29.8h12.6c5.84 0 8.49-3.49 12.37-8.2l3.66-4.44-6.12-6.98c-1.47-2.16 1.19-4.4 2.91-2.43l5.66 6.44 5.22-6.34c1.66-2.02 4.38.13 2.99 2.33l-5.67 6.9 3.92 4.46-2.47 2.92-3.9-4.4-3.25 3.97c-1.6 1.94-3.22 4.42-5.35 5.77h53.4V5.18H63.9ZM22.36 17.04a9.98 9.98 0 0 1-9.97 9.97 9.98 9.98 0 0 1-9.96-9.97 9.98 9.98 0 0 1 9.96-9.96 9.98 9.98 0 0 1 9.97 9.96Zm42.04 9.97a9.99 9.99 0 0 1-9.97-9.97 9.98 9.98 0 0 1 9.97-9.96c5.49 0 9.97 4.47 9.97 9.96a9.98 9.98 0 0 1-9.97 9.97Z"/></g><defs><clipPath id="a"><path fill="#fff" d="M0 0h76v35H0z"/></clipPath></defs></svg>