<svg width="94" height="38" viewBox="0 0 94 38" fill="none" xmlns="http://www.w3.org/2000/svg">
<g clip-path="url(#clip0_169_118)">
<path fill-rule="evenodd" clip-rule="evenodd" d="M30.528 22.4073C28.8632 23.8964 27.0834 25.2486 25.2055 26.4512C21.2587 28.9738 17.0744 31.0952 12.714 32.7845C11.2893 33.3418 9.60986 33.6648 8.19151 32.9196C7.28608 32.4222 6.61239 31.5827 6.31777 30.5847C6.10437 29.8075 5.94385 29.0165 5.83733 28.2171C4.73962 22.0125 5.2138 14.7767 6.44937 8.58588C6.75644 7.05005 7.48024 4.97905 9.09182 4.42699C9.8862 4.18425 10.7298 4.15695 11.5379 4.34783C11.7896 4.40377 12.0361 4.47977 12.2763 4.57477C17.4813 6.45245 22.3601 9.14919 26.7325 12.5653C27.991 13.5628 29.3708 14.5983 30.5259 15.7109C31.3376 16.3819 31.9128 17.3002 32.1657 18.3287C32.2148 18.621 32.2284 18.9177 32.2043 19.2122C32.1564 19.8324 31.9828 20.436 31.6945 20.9857C31.4061 21.5353 31.0091 22.0192 30.528 22.4073Z" fill="#FEFEFE"/>
<path fill-rule="evenodd" clip-rule="evenodd" d="M7.34553 30.2395C7.72989 31.4133 8.88296 33.1107 12.314 31.7627C17.2751 29.8142 24.6864 26.2485 29.845 21.5502C30.2123 21.2579 30.5153 20.8914 30.7347 20.4741C30.9541 20.0568 31.085 19.5979 31.1192 19.1267C31.2403 17.5159 29.9995 16.5511 26.0599 13.4256C21.7819 10.0681 16.9989 7.42561 11.893 5.59866C11.1107 5.2829 10.2475 5.23471 9.43547 5.46144C8.42862 5.80555 7.80613 7.30866 7.50742 8.79488C7.22542 10.2135 5.38511 19.4549 6.90164 28.0155C7.00818 28.7649 7.15649 29.507 7.34553 30.2395Z" fill="#FFB700"/>
<path fill-rule="evenodd" clip-rule="evenodd" d="M8.0109 7.12184C7.79992 7.89978 7.66624 8.69672 7.61401 9.50106V9.47361C9.06925 9.06546 10.5959 8.98796 12.0842 9.24667C18.5755 10.0552 25.2401 13.7539 28.8538 15.9748L29.8273 16.5617C29.5365 16.2812 29.2369 16.0101 28.929 15.7489L28.8591 15.6898L28.8235 15.6602L28.6042 15.4766L28.5677 15.4449L28.4925 15.3826L28.4549 15.3509L28.4152 15.3193L28.341 15.2549L28.3003 15.2222L28.2209 15.1557L28.1802 15.1229L28.0977 15.0564L28.0559 15.0216L27.9723 14.9541L27.9295 14.9192L27.8867 14.8844L27.8428 14.8496L27.7989 14.8147L27.7551 14.7788L27.6663 14.7081L27.6214 14.6712L27.5765 14.6353L27.5316 14.5983L27.4856 14.5614L27.3916 14.4854L27.3457 14.4474L27.2987 14.4104L27.2569 14.3777L27.2506 14.3724L27.2026 14.3344L27.1545 14.2954L27.1065 14.2574L27.0981 14.25L27.0563 14.2183L27.0083 14.1782L26.9582 14.1392L26.9352 14.1202L26.9091 14.0991L26.8589 14.0589L26.8067 14.0188L26.7681 13.9872L26.7576 13.9766L26.7054 13.9365L26.6532 13.8953L26.601 13.8552H26.5968L26.5487 13.8172L26.4965 13.775L26.4422 13.7328L26.4213 13.7169L26.3889 13.6906L26.3346 13.6483L26.2803 13.6061L26.2417 13.5744L26.225 13.5618L26.1707 13.5185L26.1153 13.4742L26.0599 13.4309C21.7816 10.0733 16.9983 7.43079 11.8921 5.60394C11.1096 5.28834 10.2465 5.24015 9.43448 5.46673L9.3927 5.4815H9.3833L9.34361 5.49839H9.33735L9.2987 5.51528H9.29557L9.25692 5.53428L9.24857 5.5385L9.21097 5.55961L9.20261 5.56278L9.16919 5.58178L9.16188 5.586L9.12533 5.60817L9.11592 5.6145L9.07937 5.63772L9.07206 5.643L9.03968 5.66517L9.03237 5.67045L8.99686 5.69683L8.9885 5.70422L8.95299 5.73167L8.91644 5.76228L8.91121 5.7665L8.87675 5.79817L8.86944 5.8045L8.83706 5.83406L8.80259 5.86572L8.79528 5.87417L8.76186 5.90795L8.75664 5.91217L8.72635 5.94489L8.72008 5.95123L8.68875 5.98711L8.68144 5.99556L8.6501 6.0325L8.64488 6.03778L8.61668 6.07261L8.60937 6.08106L8.57804 6.11906L8.57073 6.12961L8.54252 6.16761L8.51537 6.20456L8.50701 6.21617L8.47881 6.25522L8.47046 6.26895L8.44121 6.31011L8.01299 7.12289L8.0109 7.12184ZM8.07461 7.06061L8.06939 7.068L8.04015 7.11445L8.03597 7.12184L8.00672 7.16828L7.97957 7.21472L7.97539 7.22211L7.94615 7.27172L7.94197 7.27911L7.92004 7.32028L7.91273 7.33189L7.88766 7.37939L7.88139 7.391L7.85737 7.43745V7.448L7.83439 7.49339L7.82917 7.50395L7.80515 7.55145L7.79888 7.56411L7.77486 7.61689L7.75188 7.6665L7.74457 7.68128L7.72264 7.733L7.71741 7.74356L8.07461 7.06061Z" fill="#FFDF77"/>
<path fill-rule="evenodd" clip-rule="evenodd" d="M7.61607 9.47256C9.07197 9.06409 10.5993 8.98659 12.0884 9.24561C18.5786 10.0552 25.2432 13.7528 28.8569 15.9737C25.8333 24.8077 12.5699 31.1304 12.5699 31.1304C10.9823 29.526 9.45221 28.0366 7.9785 16.9797C7.59652 14.4972 7.47503 11.9808 7.61607 9.47256Z" fill="#FFCE00"/>
<path d="M38.4919 6.06733C39.923 5.91298 41.3628 5.85761 42.8013 5.90161C43.7746 5.89756 44.7258 6.19443 45.5273 6.75238C45.8 7.03688 46.0008 7.38366 46.1126 7.7633C46.2245 8.14295 46.244 8.54425 46.1696 8.93316C46.2097 10.2538 45.7618 11.5423 44.9132 12.5474C44.1071 13.3498 43.0442 13.8353 41.9156 13.9164C40.8513 14.0748 39.7714 14.0853 38.705 13.9492C38.4439 14.991 38.1807 16.0307 37.977 17.0863C37.9206 17.3945 37.7974 17.7618 37.4517 17.8378C37.0454 17.8642 36.637 17.8695 36.2307 17.8537C35.9839 17.8876 35.7329 17.8696 35.4933 17.8009C35.275 17.67 35.4119 17.3839 35.4192 17.1823C35.7147 15.7088 36.0145 14.2363 36.3174 12.7648C36.3874 12.3331 36.4908 11.9088 36.6255 11.4939C37.7807 11.4718 38.9379 11.4855 40.0941 11.4834C40.2738 11.4834 40.4492 11.5362 40.5996 11.6354C40.5265 11.9679 40.4826 12.3057 40.467 12.6456C41.0425 12.2856 41.5877 11.8782 42.0963 11.4264C42.6995 10.9288 43.2748 10.3978 43.8196 9.83566C43.0426 8.85083 42.2457 7.88711 41.4571 6.91494C41.2325 7.24005 41.3568 7.7805 40.9725 7.98211C40.4145 8.05437 39.8505 8.06711 39.2899 8.02011C38.6256 8.06022 37.9593 8.037 37.2992 7.95044C37.2793 7.42161 37.39 6.89489 37.6188 6.41989C37.8005 6.12644 38.189 6.12327 38.4919 6.06733ZM47.8293 9.519C48.9436 9.17616 50.1357 9.1909 51.2415 9.56122C51.5218 9.66709 51.7719 9.84129 51.9696 10.0683C52.1673 10.2954 52.3064 10.5683 52.3747 10.8627C52.6337 11.8993 52.2598 12.9369 52.1157 13.9618C51.9663 15.0227 51.7637 16.0793 51.5872 17.1391C51.5819 17.3292 51.5206 17.5133 51.4112 17.6681C51.3018 17.8228 51.1493 17.9411 50.973 18.0078C49.8775 18.2861 48.745 18.3859 47.6183 18.3033C47.2067 18.3611 46.7873 18.3043 46.4053 18.139C46.0233 17.9737 45.6932 17.7062 45.4506 17.3653C45.2079 17.0244 45.0619 16.623 45.0283 16.2044C44.9947 15.7858 45.0748 15.3659 45.2599 14.9899C45.3348 14.6089 45.503 14.2529 45.7491 13.9546C45.9952 13.6562 46.3115 13.425 46.6689 13.2821C47.5902 13.0306 48.542 12.9116 49.4962 12.9284C49.7343 12.8968 50.0205 12.9474 50.219 12.7764C50.384 12.3817 50.4143 11.9426 50.3025 11.5288C50.1249 11.0749 49.5693 11.02 49.1515 11.0432C48.2806 11.0837 47.4216 11.2647 46.6073 11.5794C46.4357 11.1277 46.4478 10.6258 46.6407 10.1829C46.9394 9.81772 47.3645 9.58128 47.8293 9.519ZM47.2705 15.1557C47.1274 15.504 47.1128 15.8946 47.2287 16.2534C47.4446 16.4783 47.7149 16.6421 48.0129 16.7286C48.3108 16.8151 48.626 16.8212 48.927 16.7464C49.2236 16.7031 49.6612 16.6345 49.6769 16.2513C49.8158 15.6423 49.8795 15.0163 49.867 14.3914C49.2142 14.3313 48.5564 14.3586 47.9107 14.4727C47.7544 14.5204 47.6131 14.6085 47.5009 14.7283C47.3886 14.848 47.3092 14.9954 47.2705 15.1557ZM55.7409 9.59922C57.1834 9.18681 58.7087 9.1715 60.1589 9.55488C60.4451 9.57599 60.7229 9.67205 60.9621 9.83355C61.0666 10.0489 61.0833 10.298 61.007 10.5239C60.5099 13.2736 60.0712 16.0328 59.5312 18.772C59.4752 19.1925 59.3302 19.5958 59.1062 19.9546C58.8822 20.3134 58.5844 20.6193 58.233 20.8514C57.3016 21.2426 56.2899 21.3984 55.2855 21.3053C54.8239 21.3398 54.3601 21.2816 53.9209 21.1339C53.4817 20.9863 53.0758 20.7521 52.7267 20.4451C52.5512 20.0334 52.8227 19.6164 52.9648 19.2417C53.1789 19.247 53.3909 19.2744 53.5977 19.3262C54.6432 19.6207 55.7388 19.684 56.8104 19.5119C57.3807 19.3716 57.4914 18.7118 57.5405 18.2115C56.5283 18.4302 55.4747 18.3394 54.5137 17.9508C54.1315 17.7633 53.804 17.4786 53.5636 17.1246C53.3232 16.7705 53.178 16.3594 53.1423 15.9315C53.0571 14.3883 53.3133 12.8453 53.8923 11.4148C54.0544 10.997 54.3028 10.6189 54.6209 10.3056C54.9389 9.99242 55.3193 9.75124 55.7368 9.59816H55.7409V9.59922ZM57.2616 10.9577C56.9767 11.0148 56.7057 11.1281 56.4641 11.2911C56.2225 11.4541 56.0151 11.6636 55.8537 11.9077C55.6256 12.3432 55.4736 12.8153 55.4046 13.3032C55.1852 14.1541 55.1214 15.0384 55.2166 15.9125C55.2641 16.0841 55.3613 16.2374 55.4957 16.3527C55.6301 16.468 55.7955 16.54 55.9707 16.5596C56.5643 16.6687 57.1749 16.6358 57.7536 16.4635C57.9478 16.4234 57.9541 16.1954 57.9969 16.0413C58.2518 14.6099 58.4795 13.1754 58.7322 11.7452C58.7875 11.5558 58.7839 11.3539 58.7218 11.1667C58.2727 10.9239 57.7546 10.8501 57.2575 10.9567L57.2616 10.9577ZM65.0689 9.30894C65.9577 9.13782 66.8777 9.27234 67.6821 9.69105C68.0682 9.92206 68.3917 10.2462 68.6236 10.6345C68.8554 11.0228 68.9884 11.4632 69.0106 11.9162C69.0261 12.9555 68.8889 13.9914 68.6033 14.9899C68.419 15.8511 67.9967 16.6417 67.3854 17.2699C66.81 17.7829 66.1092 18.1307 65.3558 18.2773C64.6024 18.424 63.8239 18.3641 63.1011 18.1038C62.7152 17.9588 62.3713 17.7188 62.1004 17.4054C61.8296 17.092 61.6404 16.7153 61.5501 16.3094C61.2698 14.9059 61.3964 13.4504 61.9146 12.1178C62.1397 11.4055 62.5515 10.7682 63.1064 10.2736C63.6612 9.77897 64.3383 9.44561 65.0657 9.30894H65.0689ZM65.0887 11.2026C64.8115 11.2912 64.5595 11.4458 64.3537 11.6534C64.148 11.8609 63.9946 12.1154 63.9064 12.3954C63.599 13.3054 63.4355 14.2586 63.4218 15.2201C63.4075 15.4083 63.434 15.5975 63.4995 15.7743C63.565 15.9511 63.6678 16.1114 63.8009 16.2439C64.0153 16.3774 64.255 16.464 64.5045 16.498C64.754 16.532 65.0079 16.5127 65.2495 16.4413C65.4768 16.3917 65.6889 16.2875 65.868 16.1376C66.047 15.9877 66.1878 15.7964 66.2783 15.58C66.7147 14.6058 66.9415 13.5492 66.9436 12.4798C66.972 12.2673 66.9455 12.051 66.8668 11.8518C66.7881 11.6526 66.6599 11.4774 66.4945 11.343C66.2849 11.2163 66.05 11.1383 65.8069 11.1146C65.5638 11.0909 65.3185 11.122 65.0887 11.2058V11.2026ZM11.9045 14.4389C12.1677 13.6156 12.4445 12.7954 12.7119 11.9732H19.1081C20.2041 11.9371 21.2785 12.2871 22.1474 12.9633C22.7861 13.5054 23.2118 14.2606 23.3475 15.0923C23.5164 15.9714 23.4784 16.8782 23.2365 17.7396C22.9947 18.6011 22.5558 19.3929 21.9552 20.0513C20.8042 21.2219 19.2742 21.9339 17.6459 22.0569C16.2797 22.1371 14.9094 22.1266 13.5443 22.0231C13.1506 23.6307 12.832 25.2563 12.4623 26.8723C11.4325 26.8269 10.4016 26.7647 9.37073 26.7457C9.87206 24.2071 10.4549 21.6843 10.9583 19.1446C12.6628 19.1235 14.3673 19.1446 16.0708 19.1362C16.0771 19.6671 16.0708 20.197 16.0708 20.7269C17.5028 19.5003 18.8961 18.2273 20.3186 16.9902C19.2637 15.6476 18.1879 14.3197 17.1456 12.9686C17.0025 13.4509 16.8698 13.9386 16.7539 14.4284C15.1361 14.4506 13.5193 14.4284 11.9014 14.4421L11.9045 14.4389ZM44.4233 19.4919C45.3653 19.0574 46.4328 18.9901 47.4209 19.3029C47.5097 19.7473 47.4313 20.2097 47.2005 20.5981C46.7096 20.8409 46.0986 20.6541 45.6255 20.9443C45.2516 21.2768 45.333 21.8437 45.262 22.2954C45.779 22.3588 46.3065 22.3018 46.8182 22.4158C46.8859 22.6452 46.9023 22.8869 46.8662 23.1235C46.83 23.3601 46.7423 23.5857 46.6093 23.7838C46.1592 24.0719 45.5785 23.9358 45.073 23.9875C44.9358 24.1777 44.8449 24.398 44.8077 24.6303C44.4212 26.8079 44.0578 28.9898 43.6692 31.1684C43.5949 31.9506 43.2533 32.6822 42.7031 33.2373C42.0222 33.672 41.2125 33.853 40.4137 33.7493C40.0951 33.7092 39.6868 33.7429 39.4841 33.44C39.4392 33.0283 39.5082 32.6135 39.6805 32.2388C40.1275 32.2177 40.5725 32.1723 41.0143 32.1047C41.4707 31.9464 41.5626 31.4081 41.6441 30.9932C41.9438 29.1196 42.277 27.2502 42.6081 25.3819C42.7073 24.9533 42.7637 24.5163 42.7773 24.0762C42.3522 23.9147 41.8101 24.055 41.4822 23.6793C41.3786 23.5052 41.3271 23.3046 41.3337 23.1015C41.3404 22.8985 41.405 22.7018 41.5198 22.5351C41.8874 22.1487 42.4681 22.4791 42.9151 22.3313C43.2337 22.1487 43.241 21.7254 43.312 21.4077C43.3396 21.0237 43.4537 20.6512 43.6456 20.3186C43.8374 19.986 44.1021 19.7021 44.4191 19.4887L44.4233 19.4919ZM67.8471 20.2772C67.9348 19.9183 67.94 19.418 68.3254 19.2438C68.88 19.1837 69.444 19.2164 70.0039 19.2111C70.1386 19.8624 70.0707 20.5411 69.8127 21.1533C69.2504 21.2827 68.6683 21.2985 68.0998 21.1998C67.6925 21.0921 67.8011 20.5812 67.8429 20.273L67.8471 20.2772ZM36.5764 19.608C37.9687 19.399 39.386 19.3969 40.7793 19.6017C40.9537 19.6291 41.126 19.6713 41.2952 19.7252C41.3944 20.1631 41.3526 20.6217 41.1761 21.034C41.0383 21.3169 40.6957 21.3486 40.4262 21.3581C39.4967 21.3761 38.5682 21.3391 37.6407 21.3718C37.4223 21.3532 37.2031 21.3983 37.0093 21.5018C36.8155 21.6052 36.6551 21.7627 36.5472 21.9556C36.2956 22.7211 36.1367 23.5147 36.074 24.3189C37.3378 24.3189 38.6016 24.3147 39.8654 24.3189C40.0722 24.3084 40.4189 24.358 40.3907 24.6409C40.385 25.0041 40.3244 25.3643 40.2111 25.7091C40.1526 25.8376 40.055 25.9438 39.9324 26.012C39.8098 26.0802 39.6688 26.1068 39.5301 26.0881C38.4282 26.0944 37.3263 26.0764 36.2244 26.0881C36.1549 26.0802 36.0846 26.0867 36.0176 26.1071C35.9507 26.1275 35.8885 26.1614 35.8349 26.2068C35.7813 26.2522 35.7374 26.3081 35.7058 26.3712C35.6742 26.4342 35.6555 26.5031 35.651 26.5736C35.4884 27.326 35.4071 28.094 35.4087 28.8642C35.4432 29.2716 35.8839 29.3941 36.2234 29.4078C37.2908 29.4321 38.3614 29.3898 39.4288 29.4321C39.669 29.4405 39.6293 29.735 39.6722 29.9071C39.7317 30.3673 39.6074 31.0291 39.0591 31.1019C37.4966 31.2687 35.8359 31.5389 34.3309 30.9204C34.0012 30.746 33.7232 30.4862 33.5256 30.1675C33.3279 29.8489 33.2176 29.4828 33.206 29.1069C33.1588 28.4941 33.2131 27.8777 33.3668 27.2829C33.6384 25.707 33.912 24.1321 34.2034 22.5614C34.3056 21.8288 34.5894 21.1342 35.0285 20.5422C35.4254 20.0661 35.9685 19.7368 36.5722 19.6048L36.5764 19.608ZM63.3142 20.9486C63.9337 20.6371 64.6284 20.5111 65.3164 20.5854C65.3362 21.1576 65.1284 21.7086 65.1566 22.2817C65.6057 22.2923 66.0538 22.3546 66.4903 22.4654C66.7567 22.5889 66.7097 22.9372 66.6627 23.1758C66.5812 23.4988 66.4611 23.9622 66.0465 23.9495C65.6203 24.0477 64.8923 23.7891 64.7555 24.3791C64.4996 25.6447 64.3064 26.923 64.0871 28.1949C63.9983 28.6372 63.9461 29.0869 63.9304 29.5376C64.3837 29.6569 64.8568 29.6833 65.3216 29.6136C65.4177 29.7632 65.4747 29.9351 65.4873 30.113C65.4998 30.2909 65.4676 30.4692 65.3935 30.6311C65.3195 30.793 65.206 30.9333 65.0638 31.0389C64.9215 31.1445 64.7551 31.212 64.5801 31.2349C63.8302 31.2297 62.9946 31.3774 62.3544 30.8972C62.1391 30.7037 61.9793 30.4554 61.8915 30.1782C61.8036 29.901 61.7911 29.605 61.8551 29.3212C62.0755 27.5658 62.4745 25.8368 62.6792 24.0783C62.1966 23.9474 61.6023 24.0624 61.2316 23.6624C61.1337 23.4797 61.092 23.2716 61.1117 23.0648C61.1314 22.8579 61.2117 22.6618 61.3423 22.5013C61.8091 22.192 62.4097 22.4527 62.9089 22.2585C63.2379 21.9007 63.028 21.3264 63.3121 20.9464L63.3142 20.9486ZM49.8095 22.3271C50.6523 22.1312 51.5361 22.2336 52.3131 22.6174C52.7661 22.9507 53.1276 23.3951 53.3637 23.9086C53.5998 24.4222 53.7026 24.9881 53.6625 25.5529C53.6876 26.1802 53.6325 26.8082 53.4985 27.4212C52.6212 27.5278 51.7386 27.5606 50.8561 27.5194C50.0101 27.5373 49.163 27.4824 48.3181 27.5363C48.1805 27.8357 48.1489 28.1738 48.2285 28.4939C48.3082 28.8141 48.4943 29.0968 48.7557 29.2948C49.2111 29.4637 49.6978 29.526 50.1803 29.4774C51.0576 29.3962 51.9266 29.2368 52.7768 29.0014C52.7768 29.5492 52.9199 30.2892 52.382 30.6364C51.7889 30.931 51.162 31.1501 50.5156 31.2888C49.5608 31.5488 48.5437 31.4278 47.6747 30.951C47.2916 30.7594 46.9604 30.4763 46.7098 30.1263C46.4593 29.7764 46.2968 29.37 46.2365 28.9423C46.0575 27.2388 46.387 25.5201 47.1827 24.0076C47.4591 23.5375 47.8417 23.1403 48.2992 22.8484C48.7567 22.5565 49.276 22.3782 49.8148 22.3282H49.8085L49.8095 22.3271ZM49.3082 24.4393C48.8883 24.8509 48.6335 25.403 48.5907 25.9909C49.6236 26.0026 50.6608 26.0458 51.6927 25.9656C51.7767 25.735 51.8021 25.4868 51.7665 25.2437C51.7309 25.0006 51.6355 24.7705 51.489 24.5744C51.3559 24.4187 51.1934 24.2914 51.011 24.2001C50.8286 24.1088 50.6299 24.0553 50.4268 24.0427C50.2236 24.0301 50.0199 24.0587 49.8278 24.1268C49.6357 24.1949 49.4591 24.3012 49.3082 24.4393ZM55.4986 23.6972C55.8704 23.2105 56.3555 22.8243 56.9108 22.5731C57.4661 22.3219 58.0742 22.2134 58.681 22.2574C59.366 22.2656 60.0392 22.439 60.6446 22.7631C61.0937 23.0533 60.772 23.6455 60.7125 24.0593C60.6812 24.4551 60.1965 24.3274 59.9323 24.3274C59.3056 24.3591 58.7458 23.8513 58.1223 24.0635C57.8634 24.1261 57.6229 24.2498 57.4205 24.4245C57.2181 24.5992 57.0595 24.8198 56.9577 25.0684C56.5184 26.1649 56.3141 27.3431 56.3582 28.5253C56.3448 28.7102 56.3919 28.8943 56.4923 29.0494C56.5928 29.2045 56.7409 29.3219 56.9138 29.3835C57.8403 29.6864 58.7876 29.3022 59.6983 29.1259C59.7936 29.6364 59.7286 30.1641 59.5124 30.6354C59.3759 30.7799 59.2124 30.8956 59.0313 30.9757C58.8502 31.0558 58.6552 31.0987 58.4575 31.1019C57.9666 31.1463 57.4757 31.2181 56.9838 31.2677C56.3999 31.2742 55.83 31.0864 55.3623 30.733C54.8945 30.3797 54.5548 29.8806 54.3957 29.3128C54.2595 28.3868 54.2796 27.4442 54.4552 26.5251C54.6083 25.5195 54.9622 24.5559 55.4955 23.693L55.4986 23.6972ZM80.8494 22.325C81.6684 22.1787 82.5109 22.2485 83.2955 22.5277C83.7349 22.7414 84.1099 23.0699 84.3818 23.479C84.6537 23.8881 84.8127 24.3632 84.8423 24.8552C84.881 26.0627 84.6979 27.267 84.3023 28.4071C84.0929 29.202 83.6426 29.9107 83.0145 30.4338C82.4637 30.8476 81.8249 31.1259 81.1489 31.2464C80.473 31.367 79.7786 31.3266 79.1208 31.1283C78.7512 31.0096 78.4111 30.8121 78.1236 30.5492C77.836 30.2862 77.6076 29.9639 77.4539 29.6041C76.9766 28.5728 77.2481 27.4128 77.434 26.3467C77.5773 25.1374 78.1266 24.0145 78.9903 23.1652C79.5177 22.7123 80.1611 22.4192 80.8462 22.3197L80.8494 22.3239V22.325ZM81.0614 24.1173C80.7625 24.1917 80.4868 24.3404 80.2591 24.5498C80.0315 24.7592 79.8592 25.0227 79.7579 25.3164C79.452 26.2023 79.2734 27.128 79.2274 28.0651C79.1997 28.2501 79.2146 28.439 79.2707 28.6173C79.3268 28.7956 79.4228 28.9584 79.5511 29.0932C79.827 29.2945 80.1537 29.4125 80.4934 29.4336C80.833 29.4548 81.1715 29.3781 81.4698 29.2125C81.6879 29.0832 81.8759 28.908 82.021 28.6987C82.1661 28.4894 82.2648 28.251 82.3105 27.9997C82.6042 27.0989 82.7558 26.1571 82.7597 25.2088C82.7597 25.0379 82.7213 24.8693 82.6473 24.7156C82.5733 24.562 82.4656 24.4274 82.3325 24.3221C81.9508 24.0876 81.4937 24.0126 81.0583 24.1131L81.0614 24.1173ZM67.5755 22.4643C68.1401 22.2933 68.7374 22.2643 69.3156 22.3799C69.6373 22.4274 69.5098 22.8232 69.5078 23.0449C69.1255 25.4178 68.6722 27.778 68.2774 30.1467C68.2168 30.5182 68.2032 31.0808 67.7343 31.1516C67.2412 31.2391 66.735 31.2131 66.2533 31.0756C66.1547 30.8431 66.137 30.5837 66.2031 30.3398C66.553 28.2783 66.8966 26.2168 67.234 24.1543C67.3092 23.5811 67.422 23.0143 67.5724 22.4559L67.5755 22.4643ZM70.3987 22.4907C70.5503 22.3794 70.736 22.326 70.923 22.3398C71.3368 22.302 71.7539 22.3237 72.1617 22.4042C72.38 22.4422 72.3351 22.7346 72.381 22.9003C72.4646 24.32 72.5126 25.7429 72.5815 27.1647C72.5847 27.9881 72.6651 28.8114 72.8218 29.6199C73.3029 29.0153 73.6601 28.3199 73.8725 27.5743C74.5576 25.8622 75.2031 24.1332 75.9426 22.4443C76.549 22.3001 77.1776 22.2785 77.7923 22.3809C78.0993 22.458 77.9427 22.8274 77.857 23.0291C76.7865 25.3924 75.7577 27.778 74.6767 30.1372C74.4034 30.6237 73.9658 30.9945 73.4442 31.1817C72.9225 31.369 72.3516 31.3601 71.8358 31.1568C71.5994 31.0458 71.3993 30.8688 71.2592 30.6466C71.1191 30.4244 71.0448 30.1663 71.0452 29.9028C70.7976 27.6893 70.5846 25.4737 70.3767 23.256C70.3418 22.9994 70.3513 22.7387 70.4049 22.4854L70.3987 22.4907Z" fill="white"/>
</g>
<defs>
<clipPath id="clip0_169_118">
<rect width="94" height="38" fill="white"/>
</clipPath>
</defs>
</svg>
