<svg xmlns="http://www.w3.org/2000/svg" width="94" height="38" fill="none"><g clip-path="url(#a)"><path fill="#FEFEFE" fill-rule="evenodd" d="M30.53 22.4a41.78 41.78 0 0 1-5.32 4.05 70.46 70.46 0 0 1-12.5 6.33c-1.42.56-3.1.88-4.52.14a3.93 3.93 0 0 1-1.87-2.34c-.22-.77-.38-1.56-.48-2.36-1.1-6.2-.63-13.44.6-19.63.32-1.54 1.04-3.61 2.65-4.16a4.68 4.68 0 0 1 3.19.14 52.32 52.32 0 0 1 14.45 8c1.26 1 2.64 2.03 3.8 3.14a4.92 4.92 0 0 1 1.64 2.62 4.58 4.58 0 0 1-1.64 4.08Z" clip-rule="evenodd"/><path fill="#FFB700" fill-rule="evenodd" d="M7.35 30.24c.38 1.17 1.53 2.87 4.96 1.52 4.97-1.95 12.38-5.51 17.53-10.21a3.4 3.4 0 0 0 1.28-2.42c.12-1.61-1.12-2.58-5.06-5.7A50.5 50.5 0 0 0 11.89 5.6a3.82 3.82 0 0 0-2.45-.14C8.43 5.81 7.8 7.31 7.5 8.8c-.28 1.42-2.12 10.66-.6 19.23.1.74.25 1.49.44 2.22Z" clip-rule="evenodd"/><path fill="#FFDF77" fill-rule="evenodd" d="M8.01 7.12c-.21.78-.34 1.58-.4 2.38v-.03c1.46-.4 2.99-.48 4.47-.22 6.5.8 13.16 4.5 16.77 6.72l.98.6c-.3-.29-.6-.56-.9-.82l-.07-.06-.04-.03-.22-.18-.03-.04-.08-.06-.04-.03-.03-.03-.08-.07-.04-.03-.08-.06-.04-.04-.08-.06-.04-.04-.09-.07-.04-.03-.04-.04-.05-.03-.04-.04-.04-.03-.1-.07-.04-.04-.04-.03-.05-.04-.04-.04-.1-.07-.04-.04-.05-.04-.04-.03-.06-.05-.05-.03-.04-.04-.01-.01-.04-.03-.05-.04-.05-.04-.02-.02-.03-.02-.05-.04-.05-.04-.04-.03-.01-.01-.05-.04-.06-.04-.05-.04-.05-.04-.05-.04-.06-.05-.02-.01-.03-.03-.06-.04-.05-.04-.04-.04h-.01l-.06-.05-.05-.05-.06-.04A50.5 50.5 0 0 0 11.89 5.6a3.82 3.82 0 0 0-2.46-.13l-.04.01-.05.02-.04.02-.04.01h-.01l-.04.03-.04.02-.04.03h-.01l-.04.03-.04.03L9 5.7h-.01l-.04.03-.03.03-.04.04h-.01l-.03.03-.04.04-.04.04-.03.03-.01.01-.03.04-.04.04-.03.04-.01.01-.03.04v.01l-.04.04-.02.03-.01.02-.03.04h-.01l-.03.05-.43.81Zm.06-.06-.03.05v.01L8 7.17l-.03.04v.01l-.03.05-.03.05v.01l-.03.05v.01l-.03.05-.03.05v.01l-.02.05-.01.01-.03.06-.02.05v.01l-.03.05v.01l.35-.68Z" clip-rule="evenodd"/><path fill="#FFCE00" fill-rule="evenodd" d="M7.62 9.47c1.45-.4 2.98-.48 4.47-.22 6.49.8 13.15 4.5 16.77 6.72-3.03 8.84-16.29 15.16-16.29 15.16-1.59-1.6-3.12-3.1-4.6-14.15-.37-2.48-.5-5-.35-7.5Z" clip-rule="evenodd"/><path fill="#fff" d="M38.5 6.07c1.42-.16 2.86-.21 4.3-.17.97 0 1.93.3 2.73.85a2.47 2.47 0 0 1 .64 2.18c.04 1.32-.4 2.61-1.26 3.62-.8.8-1.87 1.29-3 1.37-1.06.15-2.14.17-3.2.03-.27 1.04-.53 2.08-.73 3.14-.06.3-.18.67-.53.75-.4.02-.81.03-1.22.01-.25.04-.5.02-.74-.05-.22-.13-.08-.42-.07-.62l.9-4.42c.07-.43.17-.85.3-1.27 1.16-.02 2.32 0 3.47 0 .18 0 .36.05.51.15-.07.33-.12.67-.13 1a21.08 21.08 0 0 0 3.35-2.81l-2.36-2.92c-.23.33-.1.87-.49 1.07-.56.07-1.12.09-1.68.04-.66.04-1.33.02-2-.07-.01-.53.1-1.06.33-1.53.18-.3.57-.3.87-.35Zm9.33 3.45a5.58 5.58 0 0 1 3.41.04 1.82 1.82 0 0 1 1.13 1.3c.26 1.04-.11 2.08-.25 3.1-.15 1.06-.36 2.12-.53 3.18a.96.96 0 0 1-.62.87c-1.1.28-2.23.38-3.35.3a2.26 2.26 0 0 1-2.17-.94 2.32 2.32 0 0 1-.19-2.38 2.33 2.33 0 0 1 1.4-1.7c.93-.26 1.88-.38 2.84-.36.23-.03.52.02.72-.15.16-.4.2-.84.08-1.25-.18-.46-.73-.51-1.15-.49a8.1 8.1 0 0 0-2.54.54c-.17-.45-.16-.95.03-1.4.3-.36.72-.6 1.19-.66Zm-.56 5.64a1.6 1.6 0 0 0-.04 1.1 1.77 1.77 0 0 0 1.7.49c.3-.05.73-.12.75-.5.14-.6.2-1.23.19-1.86a7.36 7.36 0 0 0-1.96.08.94.94 0 0 0-.64.69Zm8.47-5.56a8.33 8.33 0 0 1 4.42-.05c.29.03.56.12.8.28.1.22.12.47.05.7-.5 2.74-.94 5.5-1.48 8.24a2.97 2.97 0 0 1-1.3 2.08c-.93.4-1.94.55-2.94.46a3.47 3.47 0 0 1-2.56-.86c-.18-.42.1-.83.23-1.2.22 0 .43.02.64.08 1.04.3 2.14.35 3.21.18.57-.14.68-.8.73-1.3a5.16 5.16 0 0 1-3.03-.26 2.46 2.46 0 0 1-1.37-2.02 10.5 10.5 0 0 1 .75-4.52 3.16 3.16 0 0 1 1.85-1.81Zm1.52 1.36a2.2 2.2 0 0 0-1.4.95c-.23.43-.39.9-.46 1.4a7.3 7.3 0 0 0-.18 2.6.9.9 0 0 0 .75.65c.6.1 1.2.08 1.78-.1.2-.04.2-.26.25-.42l.73-4.3a.97.97 0 0 0 0-.57 2.13 2.13 0 0 0-1.47-.21Zm7.8-1.65c.9-.17 1.82-.04 2.62.38a2.73 2.73 0 0 1 1.33 2.23 10.6 10.6 0 0 1-.4 3.07c-.2.86-.61 1.65-1.22 2.28a4.28 4.28 0 0 1-4.29.83 2.47 2.47 0 0 1-1.55-1.8 7.51 7.51 0 0 1 .36-4.18 4.14 4.14 0 0 1 3.16-2.81Zm.03 1.9a1.81 1.81 0 0 0-1.18 1.19c-.31.9-.47 1.86-.49 2.82a1.31 1.31 0 0 0 .38 1.02 1.79 1.79 0 0 0 1.45.2 1.44 1.44 0 0 0 1.03-.86c.43-.97.66-2.03.66-3.1a1.26 1.26 0 0 0-.45-1.14 1.64 1.64 0 0 0-1.4-.13ZM11.9 14.43l.81-2.47h6.4a4.7 4.7 0 0 1 3.04 1c.64.54 1.06 1.3 1.2 2.12a5.77 5.77 0 0 1-1.4 4.96 6.76 6.76 0 0 1-4.3 2c-1.37.09-2.74.08-4.1-.03-.4 1.61-.72 3.24-1.09 4.85-1.03-.04-2.06-.1-3.09-.12.5-2.54 1.08-5.07 1.59-7.6 1.7-.03 3.4 0 5.11-.01v1.59c1.43-1.23 2.83-2.5 4.25-3.74-1.06-1.34-2.13-2.67-3.17-4.02a27 27 0 0 0-.4 1.46c-1.61.02-3.23 0-4.85.01Zm32.52 5.05c.95-.43 2.01-.5 3-.19.09.45.01.91-.22 1.3-.49.24-1.1.05-1.57.34-.38.34-.3.9-.37 1.36.52.06 1.05 0 1.56.12a1.63 1.63 0 0 1-.21 1.36c-.45.3-1.03.16-1.54.2a1.5 1.5 0 0 0-.26.65l-1.14 6.54a3.4 3.4 0 0 1-.97 2.07c-.68.43-1.49.61-2.29.5-.31-.03-.72 0-.93-.3-.04-.41.03-.83.2-1.2.45-.02.9-.07 1.33-.14.46-.15.55-.7.63-1.1.3-1.88.64-3.75.97-5.62.1-.43.15-.86.17-1.3-.43-.17-.97-.02-1.3-.4a1.06 1.06 0 0 1 .04-1.14c.37-.4.95-.06 1.4-.2.31-.2.32-.61.4-.93a2.54 2.54 0 0 1 1.1-1.92Zm23.43.79c.08-.36.09-.86.48-1.04.55-.06 1.11-.02 1.67-.03a3.3 3.3 0 0 1-.19 1.94c-.56.13-1.14.15-1.71.05-.4-.1-.3-.62-.26-.93Zm-31.27-.67c1.39-.21 2.8-.21 4.2 0 .17.02.35.06.52.12.1.43.05.9-.12 1.3-.14.29-.48.32-.75.33-.93.02-1.86-.02-2.79.01a1.14 1.14 0 0 0-1.1.59c-.24.76-.4 1.55-.47 2.36h3.8c.2-.01.55.04.52.32 0 .36-.07.72-.18 1.07a.66.66 0 0 1-.68.38h-3.3a.51.51 0 0 0-.52.28 10.74 10.74 0 0 0-.3 2.5c.03.4.47.52.81.54 1.07.02 2.14-.02 3.2.02.25.01.2.3.25.48.06.46-.06 1.12-.61 1.2-1.56.16-3.22.43-4.73-.19a2.1 2.1 0 0 1-1.12-1.81c-.05-.62 0-1.23.16-1.83.27-1.57.54-3.15.83-4.72.1-.73.39-1.43.83-2.02.4-.47.94-.8 1.54-.94Zm26.73 1.34a3.6 3.6 0 0 1 2-.36c.03.57-.18 1.12-.15 1.7a6 6 0 0 1 1.33.18c.27.12.22.47.17.7-.08.33-.2.8-.61.78-.43.1-1.16-.16-1.3.43-.25 1.26-.44 2.54-.66 3.81-.1.45-.14.9-.16 1.35.45.12.93.14 1.4.07a1.06 1.06 0 0 1-.75 1.62c-.75 0-1.59.15-2.23-.33a1.63 1.63 0 0 1-.5-1.58c.23-1.75.62-3.48.83-5.24-.48-.13-1.08-.02-1.45-.42a1.05 1.05 0 0 1 .11-1.16c.47-.3 1.07-.05 1.57-.24.33-.36.12-.93.4-1.31Zm-13.5 1.38c.84-.2 1.73-.1 2.5.29a3.33 3.33 0 0 1 1.35 2.93c.03.63-.03 1.26-.16 1.87-.88.1-1.76.14-2.64.1-.85.02-1.7-.04-2.54.02a1.45 1.45 0 0 0 .44 1.75c.45.17.94.24 1.42.19.88-.08 1.75-.24 2.6-.48 0 .55.14 1.29-.4 1.64-.6.3-1.22.51-1.86.65-.96.26-1.98.14-2.85-.34a2.64 2.64 0 0 1-1.43-2c-.18-1.71.15-3.43.94-4.94a3.45 3.45 0 0 1 2.63-1.68Zm-.5 2.1c-.42.42-.68.97-.72 1.56 1.03.01 2.07.06 3.1-.02a1.48 1.48 0 0 0-.2-1.4 1.53 1.53 0 0 0-1.66-.44c-.2.06-.37.17-.52.3Zm6.19-.73a3.7 3.7 0 0 1 3.18-1.44c.69 0 1.36.18 1.96.5.45.3.13.89.07 1.3-.03.4-.51.27-.78.27-.62.03-1.18-.48-1.8-.27a1.68 1.68 0 0 0-1.17 1 8.45 8.45 0 0 0-.6 3.47.85.85 0 0 0 .55.85c.93.3 1.88-.08 2.79-.25.1.5.03 1.03-.19 1.5a1.5 1.5 0 0 1-1.05.47l-1.48.17a2.64 2.64 0 0 1-2.58-1.96 8.37 8.37 0 0 1 .06-2.78c.15-1.01.5-1.97 1.04-2.84Zm25.35-1.38a4.78 4.78 0 0 1 2.45.2 2.75 2.75 0 0 1 1.54 2.34 9.87 9.87 0 0 1-.54 3.55c-.2.8-.66 1.5-1.29 2.02a4.39 4.39 0 0 1-3.89.7 2.7 2.7 0 0 1-1.67-1.53c-.47-1.03-.2-2.19-.02-3.25.15-1.21.7-2.34 1.56-3.18a3.66 3.66 0 0 1 1.86-.85Zm.21 1.8a1.84 1.84 0 0 0-1.3 1.2c-.3.88-.49 1.8-.53 2.75a1.23 1.23 0 0 0 .32 1.02 1.79 1.79 0 0 0 1.92.12 1.77 1.77 0 0 0 .84-1.21c.3-.9.45-1.84.45-2.8a1.14 1.14 0 0 0-.43-.88 1.7 1.7 0 0 0-1.27-.2Zm-13.48-1.66c.56-.17 1.16-.2 1.74-.08.32.05.19.44.19.66-.38 2.38-.84 4.74-1.23 7.1-.06.38-.08.94-.55 1.01-.49.09-1 .06-1.48-.07-.1-.24-.11-.5-.05-.74.35-2.06.7-4.12 1.03-6.19.08-.57.2-1.14.34-1.7v.01Zm2.82.03a.79.79 0 0 1 .52-.15c.42-.04.83-.02 1.24.06.22.04.18.33.22.5.08 1.42.13 2.84.2 4.26 0 .83.09 1.65.24 2.46.48-.6.84-1.3 1.05-2.05.69-1.7 1.33-3.44 2.07-5.13.6-.14 1.24-.16 1.85-.06.3.08.15.45.07.65-1.07 2.36-2.1 4.75-3.18 7.1a2.31 2.31 0 0 1-2.84 1.03 1.37 1.37 0 0 1-.8-1.26c-.24-2.21-.46-4.43-.66-6.64-.04-.26-.03-.52.02-.77Z"/></g><defs><clipPath id="a"><path fill="#fff" d="M0 0h94v38H0z"/></clipPath></defs></svg>