<svg xmlns="http://www.w3.org/2000/svg" width="94" height="25" fill="none"><g clip-path="url(#a)"><path fill="#F39001" d="M11.8 7.98a4.25 4.25 0 0 0-2.2-.46c-1.3 0-2.54.44-3.64 1.49l.16-1.02a.4.4 0 0 0-.23-.43.4.4 0 0 0-.17-.04h-2.7a.4.4 0 0 0-.4.33L.02 22.53a.4.4 0 0 0 .22.44l.18.03H3.1a.4.4 0 0 0 .4-.33l.9-5c.28.33.74.6 1.22.81.48.22 1 .32 1.54.32a6.4 6.4 0 0 0 5.26-2.67 7.68 7.68 0 0 0 1.41-4.29c0-.87-.18-1.64-.54-2.3a3.85 3.85 0 0 0-1.5-1.56Zm-1.26 5.15a3.59 3.59 0 0 1-1.8 2.36c-.47.24-.97.36-1.5.36-.46 0-.84-.1-1.16-.28a1.8 1.8 0 0 1-.71-.76c-.16-.33-.25-.69-.24-1.06 0-.22.02-.43.06-.62A3.88 3.88 0 0 1 7 10.76c.44-.26.94-.4 1.45-.4.71 0 1.26.19 1.63.56.37.38.55.87.55 1.5 0 .22-.02.46-.08.7Zm30.29-5.61h-2.7a.41.41 0 0 0-.35.2l-3.93 6.72-1.17-6.6a.4.4 0 0 0-.4-.33h-2.41a.41.41 0 0 0-.32.15.4.4 0 0 0-.08.33l1.88 10.54a.4.4 0 0 1-.05.27l-2.1 3.6a.4.4 0 0 0 .15.55c.06.03.13.05.2.05h2.7a.4.4 0 0 0 .35-.2l8.58-14.68a.4.4 0 0 0-.15-.55.4.4 0 0 0-.2-.05Zm-12.81.02h-2.23a.4.4 0 0 0-.35.2l-.69 1.17c-.64-.98-1.6-1.38-2.9-1.38-1.15 0-2.2.15-3.16.63a6.63 6.63 0 0 0-2.41 1.98 7.1 7.1 0 0 0-1.42 4.1 4.37 4.37 0 0 0 2.34 4.03c.72.4 1.52.58 2.39.58.57 0 1.5-.12 2-.32.6-.24.89-.29 1.4-.72l.44.82a.4.4 0 0 0 .36.22h1.9c.46 0 .85-.32.93-.76L28.42 8a.4.4 0 0 0-.1-.32.4.4 0 0 0-.3-.15Zm-4.54 5.6c-.1.5-.33.96-.64 1.36-.33.42-.73.76-1.2 1.01a3 3 0 0 1-1.43.38c-.43 0-.8-.1-1.12-.27a1.88 1.88 0 0 1-.75-.74 2.2 2.2 0 0 1-.26-1.09 3.37 3.37 0 0 1 .74-2.07c.34-.42.73-.75 1.19-.98.45-.23.91-.35 1.38-.35.43 0 .8.1 1.13.29.33.19.58.45.76.77a2.54 2.54 0 0 1 .2 1.69Zm57.93-5.62h-2.69a.4.4 0 0 0-.4.34l-1.02 5.69c-.23 1.3-1.19 2.09-2.25 2.1-.16 0-.33-.01-.5-.04-.84-.1-1.41-.78-1.26-1.6l1.03-5.78a.6.6 0 0 0-.14-.5.61.61 0 0 0-.47-.2h-2.27a.62.62 0 0 0-.6.5l-1.3 7.31c-.33 1.79 1.98 3.42 3.82 3.42 2.58 0 3.22-1.14 3.22-1.14l-.12.67a.4.4 0 0 0 .23.44c.05.02.11.04.17.04h2.69a.4.4 0 0 0 .4-.34L81.81 8a.4.4 0 0 0-.23-.44.42.42 0 0 0-.17-.04Zm.68 11.25h2.7a.4.4 0 0 0 .4-.34l1-5.69c.24-1.3 1.2-2.08 2.26-2.1.18 0 .35.02.5.04.84.1 1.42.78 1.27 1.6l-1.03 5.78a.6.6 0 0 0 .34.65c.08.04.17.06.26.06h2.27a.61.61 0 0 0 .6-.5l1.31-7.32c.32-1.79-1.99-3.42-3.82-3.42-2.58 0-3.23 1.14-3.23 1.14l.13-.67a.4.4 0 0 0-.23-.44.41.41 0 0 0-.18-.04h-2.68a.4.4 0 0 0-.27.1.4.4 0 0 0-.14.24L81.7 18.29a.4.4 0 0 0 .23.44c.06.02.11.04.17.04ZM69 7.52h-1.9a4.43 4.43 0 0 0-4.33 3.59l-.25 1.4h-1.9a.4.4 0 0 0-.4.34l-.4 2.24a.4.4 0 0 0 .23.43c.06.03.12.04.17.04h1.76l-.66 3.61a1.02 1.02 0 0 1-1 .83h-1.05a.4.4 0 0 0-.4.33l-.4 2.2a.4.4 0 0 0 .24.44.4.4 0 0 0 .17.03h1.55a4.48 4.48 0 0 0 4.38-3.62l.68-3.82h2.21a.4.4 0 0 0 .4-.33l.4-2.25a.4.4 0 0 0-.23-.43.4.4 0 0 0-.17-.04h-2.06l.16-.92c.05-.26.19-.5.4-.66.2-.18.45-.27.72-.27h1.25a.4.4 0 0 0 .4-.33l.42-2.34a.4.4 0 0 0-.09-.33.4.4 0 0 0-.3-.14Zm-13.11 9.32H44.77v3.1h4.95c.23 0 .42.18.42.4v2.27c0 .23.19.41.42.41h2.92c.23 0 .42-.18.42-.41v-2.27c0-.22.18-.4.41-.4h1.57c.23 0 .42-.2.42-.42v-2.26c0-.11-.05-.22-.13-.3a.42.42 0 0 0-.3-.12Zm-.7-10.94-2.64-1.51a.84.84 0 0 0-1.14.3l-5.3 9.06a.82.82 0 0 0 .31 1.13c.13.07.27.11.42.11h5.13a.84.84 0 0 0 .72-.41L56 8.9c.61-1.05.25-2.4-.81-3Zm-2.1 1.36.55.3-.94 1.61-.55-.31.94-1.6Zm-1.3-.27c.06-.1.15-.16.26-.19.1-.03.22-.01.32.04l.18.1-.94 1.6-.54-.3.73-1.25Zm1.57 3.51a.41.41 0 0 1-.42.2.42.42 0 0 1-.15-.05l-1.99-1.13a.41.41 0 0 1-.2-.41c0-.05.02-.1.05-.15l.1-.19 2.72 1.55-.11.18Zm1.15-1.96-.73 1.24-.53-.3.93-1.6.18.1a.41.41 0 0 1 .2.4.4.4 0 0 1-.05.16Zm-13.82 5.7L47.13 3.2a1.65 1.65 0 0 1 1.66-.8c.22.02.43.1.62.2l.37.21a.41.41 0 0 1 .15.56l-7.7 13.18a.42.42 0 0 1-.57.15l-.37-.2a1.65 1.65 0 0 1-.61-2.26Z"/></g><defs><clipPath id="a"><path fill="#fff" d="M0 0h94v25H0z"/></clipPath></defs></svg>