<svg xmlns="http://www.w3.org/2000/svg" fill="none" viewBox="0 0 188 49"><path fill="#0070E0" d="M164.01 11.45 160 36.65a.64.64 0 0 0 .64.75h4.75a.7.7 0 0 0 .7-.59l4-25.2a.64.64 0 0 0-.63-.75h-4.75a.7.7 0 0 0-.7.59zm-5.07 7.35h-4.5a.7.7 0 0 0-.7.59l-.15.93s-3.5-3.8-9.7-1.23a10.71 10.71 0 0 0-5.98 6.72s-2.3 6.75 2.9 10.47c0 0 4.84 3.58 10.28-.22l-.1.6a.64.64 0 0 0 .38.68c.08.04.17.06.27.06h4.5a.7.7 0 0 0 .7-.59l2.75-17.26a.63.63 0 0 0-.15-.52.64.64 0 0 0-.5-.23zm-6.63 9.54a5 5 0 0 1-1.71 3.1 5.07 5.07 0 0 1-3.35 1.2 4.6 4.6 0 0 1-1.41-.2 3.96 3.96 0 0 1-2.74-4.49 5.01 5.01 0 0 1 1.72-3.1 5.08 5.08 0 0 1 3.34-1.2 4.6 4.6 0 0 1 1.42.2 3.95 3.95 0 0 1 2.74 4.5zm-24.05.48c2.44 0 4.8-.87 6.66-2.45a10.15 10.15 0 0 0 3.45-6.16c.8-4.99-3.14-9.35-8.7-9.35h-8.98a.7.7 0 0 0-.7.6l-4.01 25.2a.64.64 0 0 0 .37.69c.09.04.18.06.27.06h4.75a.7.7 0 0 0 .7-.6l1.18-7.4a.7.7 0 0 1 .7-.59h4.3zm3.97-8.83c-.3 1.84-1.73 3.2-4.48 3.2h-3.52l1.07-6.71h3.45c2.85 0 3.77 1.67 3.48 3.51z"/><path fill="#003087" d="m110.57 19.23-5.44 9.1-2.75-9.03a.7.7 0 0 0-.68-.5h-4.9a.53.53 0 0 0-.53.45.52.52 0 0 0 .03.25l4.94 15.22-4.47 7.17a.52.52 0 0 0 .18.73.53.53 0 0 0 .27.07h5.28a.88.88 0 0 0 .75-.42l13.8-22.67a.51.51 0 0 0 .02-.53.52.52 0 0 0-.47-.26h-5.28a.88.88 0 0 0-.75.42zm-16.55-.43H89.5a.7.7 0 0 0-.7.6l-.14.92s-3.5-3.8-9.7-1.23a10.7 10.7 0 0 0-5.98 6.72s-2.31 6.75 2.9 10.47c0 0 4.83 3.58 10.27-.22l-.09.6a.64.64 0 0 0 .37.68c.09.04.18.06.27.06h4.51a.7.7 0 0 0 .7-.59l2.74-17.26a.64.64 0 0 0-.37-.69.66.66 0 0 0-.27-.06zm-6.63 9.54a5.01 5.01 0 0 1-1.72 3.1 5.08 5.08 0 0 1-3.34 1.2 4.6 4.6 0 0 1-1.41-.2 3.96 3.96 0 0 1-2.74-4.49 5.01 5.01 0 0 1 1.72-3.1 5.08 5.08 0 0 1 3.36-1.2c.48 0 .96.07 1.41.2a3.95 3.95 0 0 1 2.72 4.5zm-24.06.48A10.28 10.28 0 0 0 70 26.37a10.14 10.14 0 0 0 3.45-6.15c.8-5-3.14-9.35-8.7-9.35h-8.98a.7.7 0 0 0-.7.58l-4 25.2a.64.64 0 0 0 .37.69c.09.04.18.06.27.06h4.75a.7.7 0 0 0 .7-.59l1.18-7.4a.7.7 0 0 1 .7-.6h4.3zm3.98-8.83c-.3 1.84-1.73 3.2-4.48 3.2H59.3l1.07-6.71h3.45c2.85 0 3.77 1.67 3.48 3.51z"/><path fill="#001C64" d="M32.64 12.16c.1-5.57-4.48-9.84-10.8-9.84H8.78A1.28 1.28 0 0 0 7.52 3.4L2.3 36.1a1.04 1.04 0 0 0 1.02 1.2h7.74l-1.2 7.57a1.04 1.04 0 0 0 1.02 1.2h6.3c.3 0 .57-.11.8-.31.24-.2.27-.47.32-.77l1.85-10.89c.05-.3.2-.69.43-.88.23-.2.44-.31.74-.31h3.86c6.18 0 11.43-4.4 12.38-10.5.68-4.35-1.18-8.3-4.91-10.25z"/><path fill="#0070E0" d="M12.72 25.24 10.8 37.46l-1.21 7.66a1.04 1.04 0 0 0 1.02 1.2h6.67a1.28 1.28 0 0 0 1.26-1.08L20.3 34.1a1.28 1.28 0 0 1 1.26-1.08h3.93c6.18 0 11.43-4.5 12.39-10.62a9.74 9.74 0 0 0-5.24-10.24 12.55 12.55 0 0 1-12.5 12h-6.15a1.28 1.28 0 0 0-1.27 1.08"/><path fill="#003087" d="M10.8 37.46H3.04A1.04 1.04 0 0 1 2 36.26L7.25 3.08A1.28 1.28 0 0 1 8.5 2h13.33c6.31 0 10.9 4.6 10.8 10.16a11.66 11.66 0 0 0-5.44-1.3H16.08a1.28 1.28 0 0 0-1.26 1.08l-2.1 13.3-1.92 12.22z"/></svg>