<svg xmlns="http://www.w3.org/2000/svg" width="87" height="27" fill="none"><path fill="#fff" d="M2.35 9.21c.14-.09.29-.15.44-.2.13-.9.47-1.71.96-2.3.5-.58 1.1-.9 1.74-.9.64 0 1.25.33 1.74.9.5.6.83 1.4.96 2.3.38.09.73.34 1 .73 0-.34 0-.68-.03-1.01a6.52 6.52 0 0 0-1.2-3.56c-.71-.93-1.62-1.42-2.56-1.39-.94.03-1.84.58-2.52 1.55a6.72 6.72 0 0 0-1.1 3.64v.77c.18-.2.37-.38.57-.53Z"/><path fill="#fff" d="M7.66 9.6H3.22c-.23 0-.46.08-.67.24-.2.1-.39.3-.53.53a4.2 4.2 0 0 0-.43 2.09v5.04c-.03.76.13 1.51.43 2.13.16.22.34.4.53.53.21.15.44.23.67.25h4.44c1.13 0 1.73-.92 1.73-2.77v-5.28c0-1.84-.56-2.71-1.73-2.76Zm53.53 2.42v5.92c0 .32.04.63.13.93.08.29.21.55.37.76.19.24.4.42.63.54.22.12.47.17.7.14h2.64v-1.07h-2.6a.71.71 0 0 1-.42-.11 1.1 1.1 0 0 1-.35-.37c-.19-.32-.3-.73-.3-1.16v-5.33c0-.2.02-.4.07-.59.05-.18.13-.35.23-.48.1-.15.21-.26.34-.33a.7.7 0 0 1 .4-.1h2.6V9.64h-2.6a1.86 1.86 0 0 0-1.71 1.33c-.1.32-.15.68-.13 1.04Zm12.14-.24c0-.32-.04-.63-.13-.92-.09-.3-.21-.56-.37-.78a.85.85 0 0 0-.46-.43c-.21-.06-.42-.08-.64-.05h-4.17v1.12h4c.84 0 .97.67.97 1.1v1.37h-3.3c-1.13 0-1.67.97-1.67 3.05v1.55c0 .67.18 1.32.5 1.8.15.24.33.44.53.57.2.14.42.2.64.2h2.5c.21 0 .41-.07.6-.2.2-.12.36-.3.5-.53.16-.22.29-.48.37-.77.09-.3.13-.6.13-.92v-6.16Zm-.8 6.06c0 .22-.05.44-.13.63-.05.16-.11.3-.2.42a.83.83 0 0 1-.3.26c-.2.1-.4.12-.6.1h-1.67c-.3.03-.6-.06-.87-.25a1.54 1.54 0 0 1-.3-.53c-.05-.18-.09-.38-.1-.58v-2.04c0-.58.17-1.5 1.24-1.5h2.97l-.04 3.49Zm4.8-7.08h.37V9.6h-.46c-.23-.03-.46.01-.68.12-.22.1-.42.28-.6.5-.22.35-.32.98-.32 1.9v8.19h.76v-8.14c-.01-.19 0-.38.04-.56.04-.17.11-.33.2-.47.1-.13.2-.24.32-.3.12-.07.25-.1.38-.08Zm7.65-5.14h-.77V9.6h-3.1c-1.2 0-1.77.77-1.77 2.42v5.82c-.02.31 0 .63.08.93.07.3.18.58.32.81.15.24.34.44.55.57.2.13.42.2.65.2h2.43c.22.01.44-.05.63-.19.2-.13.37-.33.5-.58.33-.53.5-1.23.48-1.94V5.62ZM84.2 17.6c0 .22-.02.43-.07.63s-.13.39-.23.54c-.1.15-.22.28-.35.36a.74.74 0 0 1-.42.12h-2.17a.58.58 0 0 1-.35-.1.93.93 0 0 1-.28-.33 2 2 0 0 1-.23-1.02V12.3c0-1.02.36-1.55 1.03-1.55h3.07v6.83ZM16.66 13c0-.43-.13-.63-.4-.63h-1.4c-.1 0-.2.04-.3.13a.8.8 0 0 0-.2.35l-.03.3v3.68c0 .53.2.78.57.78h1.3c.06 0 .12-.03.18-.07.06-.05.11-.1.15-.18a.5.5 0 0 0 .1-.19.7.7 0 0 0 .04-.24v-3.93Zm-4.23-.53c0-.78.17-1.53.5-2.13.16-.22.34-.4.53-.54.21-.15.44-.23.67-.24h2.6c1.13 0 1.74.92 1.74 2.76v5.58c0 .31-.05.63-.14.91-.1.29-.23.54-.4.73-.32.47-.75.75-1.2.78h-2.47v4.02h-1.83V12.46Zm9.34 4.65c0 .08 0 .15.03.22.02.07.06.13.1.17.1.1.22.15.33.15h1.4c.3 0 .47-.2.5-.54v-.77c0-.44-.16-.63-.5-.63h-1.4a.42.42 0 0 0-.36.14c-.08.17-.12.38-.1.58v.68Zm2.37-4.17c0-.38-.17-.58-.5-.58h-3.67V9.65h4.13c1.2.05 1.8.87 1.84 2.52v5.67c0 .66-.16 1.3-.47 1.8-.15.23-.34.42-.55.55-.2.13-.43.18-.65.17h-2.5c-1.2 0-1.84-.82-1.84-2.43v-2.17c0-1.7.6-2.52 1.77-2.57h2.44v-.25Zm6.9 8.73c.14-.01.27-.1.37-.24a.63.63 0 0 0 .1-.2.84.84 0 0 0 .03-.24v-.63H29.2c-.24 0-.5-.04-.73-.15a1.63 1.63 0 0 1-.57-.58 4.2 4.2 0 0 1-.4-.92c-.08-.34-.13-.7-.13-1.06V9.6h1.83v7.17c0 .58.17.88.5.88H31a.4.4 0 0 0 .22-.07.6.6 0 0 0 .19-.18c.09-.1.15-.26.16-.43V9.6h1.8v11.83a4.4 4.4 0 0 1-.46 2.13c-.15.27-.34.48-.55.62-.22.15-.45.21-.69.2H27.4v-2.71h3.64Zm3.74-4.02H38c.3 0 .47-.2.47-.54v-.24c0-.08-.01-.17-.04-.24a.5.5 0 0 0-.1-.2.27.27 0 0 0-.16-.1h-1.6c-.46.01-.9-.25-1.24-.72a2.15 2.15 0 0 1-.38-.7c-.1-.26-.14-.55-.15-.85v-2.04c.03-1.6.6-2.37 1.77-2.42h3.77v2.71h-3.2c-.37 0-.57.15-.57.49v.24c0 .34.2.53.56.53h1.6c.21 0 .42.06.61.19.2.13.36.31.5.54.3.44.46 1.03.46 1.65v1.98a3.19 3.19 0 0 1-1.03 2.23c-.24.12-.49.17-.73.15h-3.77v-2.66Zm8.7-.54c0 .08 0 .15.03.22s.06.13.1.17c.1.1.22.15.34.15h1.4c.3 0 .47-.2.5-.54v-.77c0-.44-.17-.63-.5-.63h-1.4a.42.42 0 0 0-.37.14c-.08.17-.12.38-.1.58v.68Zm2.37-4.17c0-.38-.17-.58-.5-.58h-3.67V9.65h4.14c1.2.05 1.8.87 1.83 2.52v5.67c.01.66-.16 1.3-.47 1.8a1.7 1.7 0 0 1-.54.55c-.2.13-.43.19-.66.17h-2.5c-1.2 0-1.83-.82-1.83-2.43v-2.17c0-1.7.6-2.52 1.76-2.57h2.44v-.25Zm3.27-4.84c0-.34.04-.67.14-.98.1-.3.24-.56.43-.77.4-.46.89-.7 1.4-.68h1.16V8.3h-.7a.37.37 0 0 0-.22.03.53.53 0 0 0-.2.16.82.82 0 0 0-.13.26c-.03.1-.05.21-.05.33v.58h1.3v2.71h-1.3v8.05h-1.83V8.1Zm8.27 4.8v-.05a.5.5 0 0 0-.03-.2.32.32 0 0 0-.1-.14.44.44 0 0 0-.3-.15h-1.27c-.07 0-.14 0-.21.04a.54.54 0 0 0-.19.16.54.54 0 0 0-.14.2.82.82 0 0 0-.06.28v1.11l2.3-1.26Zm-2.23 3.82v.15c-.01.1 0 .2.02.29.02.09.06.17.11.24.07.15.13.25.23.25h3.74v2.7h-3.97a1.9 1.9 0 0 1-.83-.14c-.23-.1-.43-.29-.6-.53a2.54 2.54 0 0 1-.4-.87c-.08-.41-.12-.84-.1-1.26v-5.43c.03-1.65.6-2.47 1.76-2.52h2.47c1.14.05 1.7.87 1.74 2.62v2.13l-4.17 2.37Z"/></svg>