<svg width="81" height="19" viewBox="0 0 81 19" fill="none" xmlns="http://www.w3.org/2000/svg">
<path d="M2.19257 5.7988C2.32231 5.74461 2.45794 5.70422 2.59553 5.67762C2.71664 5.10534 3.03289 4.59324 3.4899 4.2294C3.95083 3.86188 4.5226 3.66215 5.11157 3.66292C5.70323 3.66292 6.27622 3.86291 6.73421 4.23038C7.19221 4.59687 7.5077 5.10818 7.6276 5.67762C7.97946 5.72787 8.30575 5.88845 8.55932 6.13475C8.56431 5.92081 8.5538 5.70679 8.52787 5.49438C8.45713 4.62957 8.05484 3.82588 7.40548 3.25209C6.74894 2.6717 5.89826 2.36073 5.02311 2.38119C4.14799 2.39881 3.3118 2.74718 2.68202 3.35653C2.05974 3.95913 1.69506 4.7803 1.66479 5.64708V6.13475C1.82893 6.00569 2.00584 5.89239 2.19257 5.7988Z" fill="#3200FF"/>
<path d="M7.1294 6.04312H2.99957C2.78236 6.03918 2.56712 6.09239 2.37842 6.19583C2.18579 6.26381 2.01477 6.37907 1.88111 6.53079C1.59216 6.90812 1.44867 7.37313 1.47815 7.84405V11.0173C1.45555 11.4971 1.59707 11.97 1.88111 12.3601C2.02853 12.4961 2.19562 12.6094 2.37842 12.6951C2.57204 12.7887 2.78335 12.8409 2.99957 12.8488H7.1294C8.18594 12.8488 8.74517 12.2685 8.74517 11.1089V7.78296C8.74517 6.6234 8.21641 6.07366 7.1294 6.04312ZM56.9734 7.57016V11.2932C56.969 11.4944 57.0083 11.6943 57.0888 11.8787C57.1692 12.0631 57.2889 12.2278 57.4393 12.3611C57.6077 12.5114 57.8043 12.6266 58.0176 12.7C58.2309 12.7734 58.4566 12.8036 58.6816 12.7887H61.1347V12.1168H58.7121C58.5781 12.1213 58.4448 12.0962 58.3215 12.0435C58.1982 11.9907 58.088 11.9115 57.9985 11.8114C57.817 11.6112 57.717 11.3499 57.7184 11.0794V7.72287C57.7116 7.59695 57.7332 7.47111 57.7817 7.35476C57.8302 7.2384 57.9043 7.13455 57.9985 7.05097C58.0873 6.96038 58.1938 6.88925 58.3114 6.8421C58.429 6.79495 58.555 6.77282 58.6816 6.77709H61.1033V6.07465H58.6816C58.2737 6.07859 57.8757 6.19484 57.5317 6.40961C57.3408 6.53365 57.1875 6.70777 57.0884 6.91304C56.9902 7.11796 56.9508 7.34455 56.9734 7.57016ZM68.2769 7.41844C68.2738 7.21823 68.2309 7.02064 68.151 6.83715C68.071 6.65365 67.9555 6.4879 67.8111 6.34952C67.7027 6.20993 67.549 6.1127 67.3767 6.07465C67.1824 6.03749 66.984 6.02755 66.787 6.0451H62.9048V6.74655H66.6307C67.4071 6.74655 67.532 7.17313 67.532 7.448V8.30215H64.4577C63.4011 8.30215 62.9048 8.91297 62.9048 10.2252V11.2016C62.9048 11.6232 63.0719 12.0291 63.3707 12.3306C63.5059 12.4858 63.6732 12.6099 63.8608 12.6942C64.0484 12.7786 64.252 12.8212 64.4577 12.8192H66.787C66.9795 12.815 67.1692 12.7723 67.3451 12.6936C67.5209 12.615 67.6794 12.5019 67.8111 12.3611C67.9569 12.2241 68.0734 12.0587 68.1535 11.8751C68.2336 11.6915 68.2756 11.4935 68.2769 11.2932V7.41844ZM67.532 11.2321C67.5256 11.3731 67.4825 11.5099 67.4071 11.6291C67.3641 11.7291 67.3004 11.8188 67.2203 11.8923C67.1401 11.9658 67.0454 12.0215 66.9423 12.0557C66.7624 12.1148 66.5717 12.1345 66.383 12.1168H64.8302C64.5523 12.137 64.274 12.0847 64.0223 11.9651C63.9047 11.8761 63.8092 11.7611 63.7432 11.6291C63.69 11.5137 63.6584 11.3895 63.6498 11.2626V9.9819C63.6498 9.61442 63.8051 9.03513 64.7997 9.03513H67.5624L67.532 11.2321ZM72.0028 6.7761H72.3449V6.04312H71.9104C71.6971 6.02574 71.4825 6.05196 71.2796 6.12021C71.0767 6.18846 70.8898 6.29731 70.7301 6.44015C70.5129 6.65394 70.4195 7.05097 70.4195 7.63026V12.7877H71.134V7.6608C71.1201 7.54356 71.1328 7.42467 71.1713 7.31308C71.2097 7.20148 71.2729 7.10008 71.3561 7.01649C71.4399 6.93151 71.5412 6.86594 71.6529 6.82441C71.7646 6.78288 71.8841 6.76639 72.0028 6.7761ZM79.1155 3.54076H78.401V6.04312H75.5125C74.395 6.04312 73.8673 6.53079 73.8673 7.56819V11.2311C73.8512 11.43 73.876 11.6301 73.9401 11.819C74.0041 12.0079 74.1061 12.1817 74.2397 12.3296C74.3835 12.4823 74.5566 12.6043 74.7487 12.6881C74.9408 12.7719 75.1478 12.8158 75.3572 12.8173H77.6246C77.8271 12.8212 78.0276 12.7788 78.2104 12.6941C78.3932 12.6094 78.5544 12.4853 78.6802 12.3296C78.9819 11.9946 79.1391 11.5562 79.1155 11.108V3.54076ZM78.401 11.0774C78.4082 11.2124 78.3869 11.3475 78.3386 11.4737C78.2904 11.6 78.2162 11.7147 78.1209 11.8104C78.03 11.9086 77.9195 11.9865 77.7966 12.0392C77.6736 12.0918 77.541 12.1179 77.4074 12.1158H75.3887C75.2759 12.1185 75.1641 12.0951 75.0618 12.0474C74.9595 11.9997 74.8696 11.9291 74.799 11.8409C74.65 11.6617 74.5723 11.4337 74.5808 11.2006V7.75242C74.5808 7.11107 74.9228 6.77512 75.544 6.77512H78.401V11.0774ZM15.5149 8.17999C15.5149 7.90513 15.3901 7.78296 15.1414 7.78296H13.8382C13.7406 7.78239 13.645 7.81056 13.5632 7.86397C13.4814 7.91739 13.4171 7.99371 13.3782 8.08345C13.3535 8.14272 13.3412 8.20641 13.3419 8.27063V10.5907C13.3419 10.9257 13.5286 11.0784 13.8696 11.0784H15.0805C15.1398 11.0756 15.198 11.0608 15.2514 11.0347C15.3048 11.0086 15.3523 10.9718 15.391 10.9267C15.434 10.8956 15.4681 10.8537 15.49 10.8054C15.5119 10.757 15.5208 10.7037 15.5159 10.6508V8.17999H15.5149ZM11.5708 7.84405C11.5663 7.35588 11.731 6.88127 12.0367 6.50124C12.1841 6.36528 12.3512 6.25198 12.533 6.16627C12.7271 6.07238 12.9387 6.02004 13.1541 6.01258H15.5768C16.6324 6.01258 17.1916 6.59286 17.1916 7.75242V11.2617C17.1956 11.4615 17.1526 11.6596 17.0663 11.8398C16.9799 12.02 16.8525 12.1773 16.6943 12.2991C16.3946 12.5944 15.9966 12.7684 15.5768 12.7877H13.278V15.3206H11.5698L11.5708 7.84405ZM20.2659 10.774C20.2632 10.8221 20.2733 10.8702 20.2953 10.9131C20.3172 10.956 20.3501 10.9923 20.3907 11.0183C20.4822 11.0804 20.5908 11.1124 20.7013 11.1099H22.0055C22.2846 11.1099 22.4399 10.9878 22.4713 10.775V10.2863C22.4713 10.0105 22.316 9.88929 22.0055 9.88929H20.7003C20.5793 9.87789 20.4583 9.91041 20.3592 9.98091C20.2835 10.0871 20.2502 10.2178 20.2659 10.3474V10.774ZM22.4713 8.14945C22.4713 7.90611 22.316 7.78395 22.0055 7.78395H18.5892V6.07465H22.4399C23.5573 6.10519 24.1166 6.62439 24.148 7.6608V11.2321C24.1559 11.6488 24.0006 12.0537 23.7136 12.3611C23.5708 12.5133 23.397 12.633 23.204 12.712C23.0111 12.791 22.8034 12.8276 22.5952 12.8192H20.2659C19.1484 12.8192 18.5577 12.3 18.5577 11.2922V9.92081C18.5577 8.85287 19.1179 8.33467 20.2039 8.30314H22.4713V8.14945ZM28.899 13.6428C29.0283 13.6377 29.1507 13.5831 29.241 13.4901C29.2798 13.4556 29.3108 13.4133 29.3321 13.3659C29.3535 13.3186 29.3646 13.2672 29.3649 13.2153V12.8182H27.1909C26.9598 12.8243 26.7292 12.7934 26.5078 12.7266C26.3057 12.648 26.1249 12.5228 25.98 12.3611C25.8276 12.1874 25.7021 11.9918 25.6075 11.7808C25.5281 11.566 25.4862 11.339 25.4837 11.1099V6.04411H27.1909V10.5602C27.1909 10.9267 27.3461 11.1099 27.6577 11.1099H28.8685C28.9376 11.1103 29.006 11.097 29.07 11.0708C29.1339 11.0446 29.192 11.006 29.241 10.9572C29.3266 10.8894 29.3823 10.7908 29.3963 10.6824V6.04411H31.073V13.4901C31.0917 13.9729 30.9374 14.4487 30.6386 14.8329C30.501 15.0014 30.3261 15.1364 30.1275 15.227C29.927 15.3171 29.7083 15.3596 29.4887 15.3512H25.5142V13.6428H28.899ZM32.3772 11.1099H35.3896C35.6687 11.1099 35.824 10.9878 35.824 10.774V10.6213C35.8263 10.5687 35.8158 10.5163 35.7935 10.4686C35.773 10.4182 35.739 10.3744 35.6954 10.3421C35.6517 10.3098 35.5999 10.2902 35.5459 10.2853H34.0549C33.6264 10.2911 33.2131 10.1268 32.905 9.82821C32.7571 9.71006 32.6362 9.56159 32.5502 9.39275C32.4643 9.22459 32.416 9.03968 32.4087 8.8509V7.57016C32.4392 6.56232 32.9679 6.07465 34.0549 6.04312H37.5636V7.75242H34.5827C34.2407 7.75242 34.0549 7.84404 34.0549 8.05783V8.21053C34.0549 8.42432 34.2417 8.5455 34.5827 8.5455H36.0727C36.2673 8.54352 36.4599 8.58392 36.6378 8.66372C36.8147 8.74253 36.9719 8.85878 37.0977 9.00361C37.3729 9.28241 37.5292 9.65383 37.5322 10.041V11.2922C37.5007 11.6863 37.3238 12.0547 37.0358 12.3306C36.904 12.4798 36.7462 12.6037 36.57 12.6961C36.3498 12.768 36.1179 12.7995 35.8869 12.7877H32.3782L32.3772 11.1099ZM40.4826 10.774C40.4798 10.8222 40.4899 10.8702 40.5119 10.9132C40.5338 10.9561 40.5668 10.9924 40.6074 11.0183C40.699 11.0804 40.8075 11.1124 40.918 11.1099H42.2222C42.5013 11.1099 42.6566 10.9878 42.6881 10.775V10.2863C42.6881 10.0105 42.5328 9.88929 42.2222 9.88929H40.918C40.7967 9.87756 40.6753 9.9101 40.576 9.98091C40.5002 10.087 40.4668 10.2178 40.4826 10.3474V10.774ZM42.6881 8.14945C42.6881 7.90611 42.5328 7.78395 42.2222 7.78395H38.8059V6.07465H42.6566C43.7751 6.10519 44.3333 6.62439 44.3648 7.6608V11.2321C44.3726 11.6488 44.2173 12.0537 43.9304 12.3611C43.7884 12.5145 43.6148 12.6349 43.4216 12.714C43.2284 12.7931 43.0204 12.8291 42.8119 12.8192H40.4826C39.3651 12.8192 38.7744 12.3 38.7744 11.2922V9.92081C38.7744 8.85287 39.3347 8.33467 40.4207 8.30314H42.6881V8.14945ZM45.7309 5.09833C45.7261 4.88646 45.7714 4.67647 45.8631 4.48553C45.9549 4.2946 46.0904 4.12816 46.2587 3.99985C46.6306 3.70972 47.0918 3.55853 47.5629 3.57228H48.6499V5.21951H47.9983C47.9278 5.21 47.8562 5.21563 47.788 5.23601C47.7199 5.2564 47.6569 5.29107 47.6032 5.33773C47.5506 5.38377 47.5086 5.44078 47.4803 5.50476C47.4519 5.56874 47.4379 5.63816 47.439 5.70816V6.07465H48.6499V7.78296H47.439V12.8478H45.7309V5.09833ZM53.4333 8.11891V8.08935C53.4356 8.04526 53.4251 8.00144 53.4029 7.96328C53.3807 7.92513 53.3479 7.8943 53.3085 7.87458C53.2265 7.81706 53.1294 7.78518 53.0294 7.78296H51.85C51.7827 7.77707 51.715 7.78485 51.6508 7.80584C51.5866 7.82683 51.5273 7.8606 51.4765 7.90512C51.4225 7.93647 51.3772 7.98081 51.3446 8.03413C51.312 8.08745 51.2931 8.14808 51.2898 8.21053V8.91199L53.4333 8.11891ZM51.3527 10.5297V10.6213C51.3466 10.6829 51.3546 10.745 51.376 10.8031C51.3975 10.8611 51.4319 10.9135 51.4765 10.9562C51.5384 11.0488 51.6003 11.1099 51.6937 11.1099H55.1729V12.8182H51.4765C51.2145 12.8279 50.9526 12.7969 50.7001 12.7266C50.4917 12.6568 50.3009 12.5425 50.1408 12.3917C49.9753 12.2401 49.8474 12.0519 49.7674 11.8419C49.6966 11.5838 49.6655 11.3164 49.675 11.0489V7.63026C49.7064 6.59286 50.2342 6.07366 51.3212 6.04411H53.6191C54.6756 6.07366 55.2034 6.59286 55.2338 7.69134V9.03415L51.3527 10.5297Z" fill="#3200FF"/>
</svg>
