<svg xmlns="http://www.w3.org/2000/svg" width="81" height="25" fill="none"><mask id="a" width="79" height="21" x="1" y="2" maskUnits="userSpaceOnUse" style="mask-type:luminance"><path fill="#fff" d="M79.63 2.53H1.37v19.94h78.26V2.53Z"/></mask><g mask="url(#a)"><path fill="#fff" d="M11.75 10.22V10c0-2.5-1.1-3.7-2.8-3.7-1.72 0-2.84 1.28-2.84 3.68v.21c0 2.43 1.06 3.66 2.83 3.66s2.8-1.28 2.8-3.63Zm-1.07-7.61c3.33 0 6.02 2.51 6.02 7.4v.21c0 4.91-2.7 7.37-6.04 7.37-2.15 0-3.7-1.01-4.41-2.43v6.88H1.37V2.99h4.88v2.13a5.03 5.03 0 0 1 4.43-2.51ZM28.33 10.12V9.9c0-2.48-1.03-3.68-2.66-3.68-1.72 0-2.73 1.22-2.73 3.7v.22c0 2.4 1.04 3.63 2.64 3.63 1.61 0 2.75-1.22 2.75-3.65ZM18 10.2v-.22c0-4.86 2.77-7.45 5.96-7.45 2.15 0 3.43.93 4.25 2.38v-2h4.87v14.27H28.2V14.9a4.72 4.72 0 0 1-4.28 2.62c-3.16 0-5.93-2.37-5.93-7.31M42.82 10.6 45.55 3h4.65l-7.62 19.04h-4.66l2.37-6.22-5.7-12.83h5.3l2.93 7.61ZM50.45 17.26v-3.38l6.48-7.2h-5.69l-.02-3.69h11.4v3.6l-6.2 6.96h6.67v3.71H50.45Z"/><path fill="#D0FA02" d="M65.39 15.35a7.07 7.07 0 0 1 7.06-7.15 7.13 7.13 0 0 1 7.18 7.15 7.05 7.05 0 0 1-7.18 7.12 6.94 6.94 0 0 1-7.06-7.12Z"/></g></svg>