<svg xmlns="http://www.w3.org/2000/svg" width="898.64" height="318.48" viewBox="0 0 237.77 84.26"><path d="M633.42 99.49V51.16c0-8.89 7.2-16.1 16.1-16.1l14.27.03a16.08 16.08 0 0 1 16.04 16.07v10.29c0 8.89-7.2 16.1-16.1 16.1h-20.16M683.82 35.06H690a6.6 6.6 0 0 1 6.6 6.6v36.1" style="fill:none;stroke:#939598;stroke-width:2.97638607;stroke-linecap:round;stroke-linejoin:round;stroke-miterlimit:10;stroke-dasharray:none;stroke-opacity:1" transform="translate(-535.6 -20.8)"/><path d="m695.29 29.47-2.8-2.81c-.7-.7-.7-1.83 0-2.52l2.8-2.8c.7-.7 1.83-.7 2.52 0l2.8 2.8c.7.7.7 1.82 0 2.52l-2.8 2.8c-.7.7-1.82.7-2.52 0" style="fill:#32bcad;fill-opacity:1;fill-rule:nonzero;stroke:none;stroke-width:.35277778" transform="translate(-535.6 -20.8)"/><path d="M708.49 35.03h6.14a11.9 11.9 0 0 1 8.42 3.48l14.35 14.36a4.76 4.76 0 0 0 6.74 0l14.3-14.3a11.9 11.9 0 0 1 8.42-3.5h4.99M708.49 77.45h6.14a11.9 11.9 0 0 0 8.42-3.49L737.4 59.6a4.76 4.76 0 0 1 6.74 0l14.3 14.3a11.9 11.9 0 0 0 8.42 3.5h4.99" style="fill:none;stroke:#939598;stroke-width:2.97638607;stroke-linecap:round;stroke-linejoin:round;stroke-miterlimit:10;stroke-dasharray:none;stroke-opacity:1" transform="translate(-535.6 -20.8)"/><path d="M596.83 86.62c-3.08 0-5.98-1.2-8.16-3.38L576.9 71.47a2.24 2.24 0 0 0-3.09 0l-11.82 11.82a11.46 11.46 0 0 1-8.16 3.37h-2.32l14.92 14.92a11.93 11.93 0 0 0 16.87 0l14.96-14.96zM553.82 44.96c3.08 0 5.98 1.2 8.16 3.38l11.82 11.82c.85.85 2.24.86 3.1 0l11.77-11.78a11.46 11.46 0 0 1 8.16-3.37h1.42l-14.96-14.96a11.93 11.93 0 0 0-16.87 0L551.5 44.96z" style="fill:#32bcad;fill-opacity:1;fill-rule:nonzero;stroke:none;stroke-width:.35277778" transform="translate(-535.6 -20.8)"/><path d="m610.62 57.38-9.04-9.04c-.2.08-.42.13-.64.13h-4.11c-2.13 0-4.2.86-5.7 2.36l-11.79 11.78a5.64 5.64 0 0 1-7.99 0L559.53 50.8a8.12 8.12 0 0 0-5.7-2.36h-5.06c-.22 0-.42-.05-.6-.13l-9.08 9.08a11.93 11.93 0 0 0 0 16.87l9.07 9.07c.2-.07.4-.12.61-.12h5.05c2.13 0 4.2-.86 5.71-2.36l11.82-11.82a5.79 5.79 0 0 1 8 0l11.77 11.77a8.12 8.12 0 0 0 5.7 2.37h4.12c.22 0 .44.05.64.13l9.04-9.04a11.93 11.93 0 0 0 0-16.87" style="fill:#32bcad;fill-opacity:1;fill-rule:nonzero;stroke:none;stroke-width:.35277778" transform="translate(-535.6 -20.8)"/><path d="M645.7 95.38c-.68 0-1.45.16-2.22.34v2.94c.53.2 1.14.3 1.72.3 1.48 0 2.18-.5 2.18-1.8 0-1.23-.58-1.78-1.69-1.78m-2.7 5.47v-5.82h.4l.04.25c.68-.16 1.63-.37 2.3-.37.55 0 1.07.08 1.51.44.51.41.67 1.08.67 1.8 0 .76-.25 1.48-.95 1.88-.48.27-1.13.38-1.7.38-.6 0-1.18-.1-1.78-.27v1.71zM651.62 95.36c-1.48 0-2.14.47-2.14 1.77 0 1.26.65 1.82 2.14 1.82 1.47 0 2.12-.45 2.12-1.75 0-1.26-.65-1.84-2.12-1.84m1.9 3.6a3.2 3.2 0 0 1-1.9.45c-.77 0-1.43-.11-1.91-.46-.54-.38-.76-1-.76-1.79 0-.77.22-1.4.76-1.8a3.24 3.24 0 0 1 1.9-.45c.77 0 1.42.1 1.9.45.56.4.77 1.03.77 1.8 0 .78-.22 1.41-.76 1.8M660.5 99.29l-1.64-3.54h-.03l-1.62 3.54h-.45L655 95.03h.55l1.46 3.57h.04l1.58-3.57h.46l1.63 3.57h.03l1.43-3.57h.53l-1.76 4.26zM665.9 95.36c-1.37 0-1.84.6-1.92 1.48h3.83c-.04-.97-.54-1.48-1.92-1.48m-.01 4.05c-.82 0-1.35-.12-1.78-.48-.5-.43-.66-1.05-.66-1.77 0-.68.23-1.4.8-1.82a2.86 2.86 0 0 1 1.65-.43c.55 0 1.19.06 1.7.41.62.42.74 1.14.74 1.97h-4.37c.02.88.3 1.65 1.96 1.65.78 0 1.52-.12 2.2-.24v.44c-.7.13-1.5.27-2.24.27M669.76 99.29v-4.26h.4l.05.25c.9-.23 1.32-.37 2.12-.37h.06v.47h-.12c-.67 0-1.07.1-2.01.34v3.57zM675.28 95.36c-1.37 0-1.83.6-1.92 1.48h3.83c-.04-.97-.54-1.48-1.91-1.48m-.02 4.05c-.82 0-1.35-.12-1.77-.48-.5-.43-.67-1.05-.67-1.77 0-.68.23-1.4.8-1.82a2.86 2.86 0 0 1 1.66-.43c.55 0 1.18.06 1.7.41.62.42.74 1.14.74 1.97h-4.37c.01.88.3 1.65 1.95 1.65.79 0 1.52-.12 2.2-.24v.44c-.7.13-1.49.27-2.24.27M683.17 95.65a5.11 5.11 0 0 0-1.72-.29c-1.48 0-2.18.5-2.18 1.8 0 1.23.58 1.77 1.7 1.77.66 0 1.43-.16 2.2-.33zm.1 3.64-.05-.25c-.68.16-1.63.37-2.3.37-.55 0-1.07-.08-1.51-.44-.5-.42-.67-1.08-.67-1.8 0-.77.26-1.49.95-1.87a3.57 3.57 0 0 1 1.72-.4c.59 0 1.16.11 1.76.28v-1.95h.5v6.06zM690.97 95.38c-.66 0-1.44.16-2.2.34v2.94c.53.2 1.13.3 1.71.3 1.48 0 2.18-.5 2.18-1.8 0-1.23-.57-1.78-1.69-1.78m1.28 3.65c-.48.27-1.13.38-1.72.38-.63 0-1.26-.11-1.9-.32l-.03.2h-.34v-6.06h.5v2.03c.68-.15 1.6-.35 2.25-.35.55 0 1.08.08 1.51.44.51.41.67 1.08.67 1.8 0 .76-.25 1.48-.94 1.88M693.85 100.93v-.47c.25.03.48.04.64.04.61 0 .98-.17 1.33-.87l.16-.34-2.23-4.26h.58l1.9 3.68h.04l1.81-3.68h.57l-2.4 4.78c-.44.87-.91 1.16-1.78 1.16-.2 0-.4-.02-.62-.04M705.5 96.86h-1.64v1.5h1.66c1.14 0 1.57-.13 1.57-.76 0-.67-.6-.74-1.58-.74m-.3-2.42h-1.35v1.51h1.35c1.13 0 1.57-.13 1.57-.76 0-.68-.56-.75-1.57-.75m2.56 4.44c-.6.4-1.34.4-2.68.4h-2.53v-5.77h2.47c1.15 0 1.86.01 2.45.37.43.25.6.64.6 1.15 0 .6-.26 1.01-.92 1.28v.03c.75.17 1.23.55 1.23 1.37 0 .56-.2.92-.62 1.17M713.44 97.5c-.5-.04-1-.07-1.54-.07-.87 0-1.17.18-1.17.58 0 .37.25.57.92.57.55 0 1.22-.13 1.79-.25zm.25 1.79-.04-.25c-.72.17-1.56.37-2.3.37-.46 0-.95-.06-1.3-.32-.32-.22-.47-.6-.47-1.03 0-.48.21-.92.72-1.15a3.92 3.92 0 0 1 1.6-.23c.44 0 1.04.03 1.54.06v-.08c0-.66-.44-.88-1.64-.88-.47 0-1.03.02-1.57.07V95c.6-.05 1.27-.08 1.83-.08.74 0 1.51.06 1.98.4.5.34.59.82.59 1.45v2.53zM720.19 99.29v-2.36c0-.77-.4-1.05-1.1-1.05-.53 0-1.19.13-1.74.27v3.14h-1.2v-4.26h.98l.04.27c.75-.2 1.59-.4 2.28-.4.52 0 1.05.08 1.46.45.33.3.46.72.46 1.33v2.6zM724.73 99.4c-.54 0-1.14-.07-1.58-.44-.53-.42-.68-1.09-.68-1.8 0-.68.22-1.42.87-1.83a3.38 3.38 0 0 1 1.87-.42c.5 0 .98.03 1.5.08v.91c-.42-.04-.94-.07-1.35-.07-1.13 0-1.66.35-1.66 1.33 0 .92.4 1.32 1.32 1.32.54 0 1.17-.1 1.79-.22v.88c-.67.13-1.4.27-2.08.27M730.32 95.8c-1.13 0-1.62.36-1.62 1.33 0 .97.49 1.38 1.62 1.38 1.13 0 1.62-.34 1.62-1.31 0-.98-.48-1.4-1.62-1.4m2.05 3.16c-.53.35-1.21.45-2.05.45-.85 0-1.53-.1-2.05-.45-.59-.39-.8-1.03-.8-1.8s.21-1.42.8-1.8c.52-.35 1.2-.45 2.05-.45.85 0 1.52.1 2.05.45.59.38.79 1.03.79 1.8 0 .76-.21 1.41-.8 1.8M740.03 99.4a3.2 3.2 0 0 1-2.08-.6c-.69-.57-.9-1.45-.9-2.4 0-.86.27-1.87 1.17-2.46.7-.46 1.57-.55 2.45-.55.64 0 1.3.04 2.02.1v1.04c-.62-.05-1.38-.1-1.97-.1-1.64 0-2.34.63-2.34 1.96 0 1.36.65 1.97 1.86 1.97.8 0 1.68-.16 2.58-.35v1.03c-.9.18-1.84.37-2.79.37M746.31 95.67c-.98 0-1.36.35-1.44 1h2.87c-.04-.69-.44-1-1.43-1m-.18 3.74c-.7 0-1.33-.09-1.8-.48-.5-.42-.68-1.05-.68-1.78 0-.65.2-1.37.8-1.8a3.17 3.17 0 0 1 1.86-.44c.61 0 1.33.07 1.85.43.68.48.74 1.22.75 2.1h-4.05c.03.65.37 1.07 1.57 1.07.74 0 1.57-.1 2.27-.22v.84c-.82.13-1.71.28-2.57.28M754.2 99.29v-2.36c0-.77-.39-1.05-1.1-1.05-.52 0-1.18.13-1.74.27v3.14h-1.19v-4.26h.97l.04.27c.76-.2 1.6-.4 2.28-.4.53 0 1.06.08 1.46.45.34.3.47.72.47 1.33v2.6zM758.78 99.4c-.58 0-1.1-.15-1.39-.6-.21-.3-.31-.72-.31-1.3v-1.59h-.86v-.88h.86l.13-1.3h1.05v1.3h1.68v.88h-1.68v1.37c0 .33.03.6.12.81.12.29.4.4.77.4.28 0 .62-.05.86-.09v.85c-.4.08-.84.16-1.23.16M761.1 99.29v-4.26h.97l.04.27c.79-.22 1.37-.4 2.11-.4.04 0 .09 0 .15.02v1.01h-.4c-.6 0-1.03.06-1.68.21v3.15zM768.7 97.5c-.5-.04-1-.07-1.53-.07-.87 0-1.18.18-1.18.58 0 .37.26.57.92.57.56 0 1.23-.13 1.8-.25zm.25 1.79-.03-.25c-.73.17-1.57.37-2.31.37-.46 0-.95-.06-1.3-.32-.31-.22-.47-.6-.47-1.03 0-.48.22-.92.72-1.15a3.92 3.92 0 0 1 1.6-.23c.44 0 1.04.03 1.54.06v-.08c0-.66-.44-.88-1.64-.88-.46 0-1.03.02-1.57.07V95c.6-.05 1.28-.08 1.84-.08.74 0 1.5.06 1.98.4.49.34.58.82.58 1.45v2.53zM771.42 93.23h1.2v6.06h-1.2z" style="fill:#939598;fill-opacity:1;fill-rule:nonzero;stroke:none;stroke-width:.35277778" transform="translate(-535.6 -20.8)"/></svg>