<svg xmlns="http://www.w3.org/2000/svg" width="44" height="45" fill="none"><path fill="#B4E52C" d="M1.17 24.29c.34.2 1.03.48 1.65.41.55 0 .9-.27.9-.69 0-.34-.21-.62-.83-.96-.76-.41-1.3-1.03-1.3-1.86 0-1.44 1.23-2.4 2.95-2.4.75 0 1.37.14 1.72.34l-.48 1.45a3 3 0 0 0-1.24-.28c-.55 0-.96.27-.96.69 0 .34.27.55.75.82.76.48 1.45 1.1 1.45 1.93 0 1.58-1.31 2.54-3.1 2.47-.82 0-1.58-.2-2-.48l.49-1.44Zm5.02 1.65 2-10.32h1.99l-.76 4.13v.07a2.78 2.78 0 0 1 2.13-1.03c1.03 0 1.65.69 1.65 1.85 0 .35-.07.83-.14 1.24l-.75 4.06h-2l.76-3.99c.07-.27.07-.55.07-.82 0-.42-.2-.76-.62-.76-.62 0-1.3.75-1.58 2.06l-.69 3.44H6.19v.07Zm14.37-4.33c0 2.47-1.58 4.6-4 4.6-1.78 0-2.74-1.23-2.74-2.82 0-2.47 1.58-4.6 4.05-4.6 1.8 0 2.69 1.37 2.69 2.82Zm-4.75 1.78c0 .76.28 1.31.96 1.31 1.1 0 1.66-1.93 1.66-3.16 0-.62-.21-1.24-.97-1.24-1.03.07-1.65 1.93-1.65 3.1Zm4.2 5.3 1.37-7.15c.14-.83.35-1.79.41-2.48h1.8l-.15.69c.55-.69 1.31-1.1 2.13-1.1 1.45 0 2.07 1.3 2.07 2.61 0 2.48-1.58 4.88-3.92 4.88-.34.07-.83-.2-1.03-.2h-.07l-.55 2.75H20Zm2.88-4.27c.21.21.48.28.83.28 1.1 0 1.92-1.86 1.92-3.16 0-.55-.2-1.1-.82-1.1-.69 0-1.38.82-1.58 2.06l-.35 1.93Zm4.95 1.52 1.38-6.88h2.06l-1.37 6.88h-2.07Zm2.62-7.57c-.55 0-.97-.55-.97-1.16 0-.7.49-1.24 1.17-1.24.62 0 1.03.55 1.03 1.1-.07.75-.62 1.3-1.23 1.3Zm1.16 7.57 1.1-5.5h-.96l.28-1.38H33l.07-.41a4 4 0 0 1 1.17-2.34 2.94 2.94 0 0 1 2-.68c.47 0 .88.06 1.1.13l-.42 1.58a2 2 0 0 0-.62-.13c-.69 0-1.1.68-1.17 1.37l-.2.48h1.37l-.27 1.38h-1.38l-1.1 5.5h-1.92Zm7.22-6.88.35 3.17c.07.68.14.96.2 1.64.14-.68.28-.89.62-1.64l1.24-3.17h2.06l-2.47 5.23c-.9 1.79-1.72 3.1-2.68 3.98-.7.7-1.58.97-2 1.1l-.55-1.71c.35-.14.76-.28 1.17-.55.48-.35.9-.76 1.1-1.24.07-.07.07-.14.07-.28l-1.24-6.53h2.13Z"/><path fill="#8BB43F" d="M4.54 18.79c.75 0 1.37.14 1.72.34l-.48 1.45a3 3 0 0 0-1.24-.28c-.55 0-.96.27-.96.69 0 .34.27.55.75.82.76.48 1.45 1.1 1.45 1.93 0 1.58-1.31 2.54-3.1 2.47-.82 0-1.58-.2-2-.48l.49-1.44c.34.2 1.03.48 1.65.41.55 0 .9-.27.9-.69 0-.34-.21-.62-.83-.96-.76-.41-1.3-1.03-1.3-1.86m4.6 4.75 1.78-8.18 2.2-2-.75 4.06a2.78 2.78 0 0 1 2.13-1.03c1.03 0 1.65.69 1.65 1.85 0 .35-.07.83-.14 1.24l-.75 4.06h-2l.76-3.99c.07-.27.07-.55.07-.82 0-.42-.2-.76-.62-.76-.62 0-1.3.75-1.58 2.06l-.69 3.44H6.19v.07Zm11.62-7.15c1.85 0 2.75 1.37 2.75 2.82 0 2.47-1.58 4.6-4 4.6-1.78 0-2.74-1.23-2.74-2.82m2 0c0 .76.27 1.31.95 1.31 1.1 0 1.66-1.93 1.66-3.16 0-.62-.21-1.24-.97-1.24-1.03.07-1.65 1.93-1.65 3.1Zm7.83-4.33-.14.69c.55-.69 1.3-1.1 2.13-1.1 1.45 0 2.07 1.3 2.07 2.61 0 2.48-1.59 4.88-3.92 4.88-.41.07-.9-.2-1.1-.2h-.07l-.55 2.75h-2l1.38-7.29m1.44 3.03c.21.2.48.27.83.27 1.1 0 1.92-1.86 1.92-3.16 0-.55-.2-1.1-.82-1.1-.69 0-1.38.82-1.58 2.06l-.35 1.93Zm4.95 1.5 1.38-5.22 2.06-1.65-1.37 6.88h-2.07Zm2.82-9.96c.62 0 1.03.48 1.03 1.1 0 .75-.55 1.3-1.17 1.3-.54 0-.96-.55-.96-1.16m6.6-1.59c.48 0 .9.07 1.1.21l-.41 1.58c-.2-.07-.41-.14-.62-.14-.69 0-1.1.7-1.17 1.38l-.14.41h1.38l-.27 1.38h-1.38l-1.1 5.5h-1.92l1.1-5.5h-.97l.28-1.38H33l.07-.41m5.77.41.35 3.1c.07.68.14 1.03.2 1.71.14-.68.28-.89.62-1.64l1.24-3.17h2.06l-2.47 5.23c-.9 1.79-1.72 3.1-2.68 3.98-.7.7-1.58.97-2 1.1l-.55-1.71c.35-.14.76-.28 1.17-.55.48-.35.9-.76 1.1-1.24.07-.07.07-.2.07-.35l-.48-4.95 1.37-1.5Z"/></svg>