<svg xmlns="http://www.w3.org/2000/svg" width="44" height="45" fill="none"><path fill="#B73091" d="m34.38 16.66 3.43-.62v13.34h-3.44V16.66Zm5.5 0v12.71h3.43V16.05l-3.44.62ZM29.55 29.37H33v-9.62h-3.44v9.63ZM6.05 21.06c-.48 0-1.51-.07-1.51-1.04 0-1.1 1.51-1.1 2.06-1.1.96 0 2.27.28 3.16.55l1.03.35h.14v-3.1l-.14-.06c-1.1-.35-2.4-.76-4.67-.76-3.99.14-5.43 2.47-5.43 4.47 0 1.17.48 3.85 5.09 4.2.4 0 1.44.06 1.44 1.02 0 .83-.96 1.24-2.4 1.24-1.59 0-2.76-.41-4.13-.75v3.16c1.37.34 3.02.55 4.88.55 3.92 0 5.7-2.2 5.7-4.4 0-2.48-1.92-4.06-5.22-4.33Zm21.38-1.52c-3.3.07-4.74 1.59-4.74 4.47v5.36h3.43v-4.33c0-1.71 0-2.47 2.07-2.54v-2.89c0-.13-.76-.07-.76-.07Zm-9.55.21c-.07 0-.7 1.72-2.07 3.37v-7.08l-3.44.75v12.59h3.44v-3.72a7.88 7.88 0 0 1 1.65 3.71h4.4c-.41-1.37-2.34-4.95-2.34-4.95 1.72-2.13 2.48-4.67 2.55-4.67h-4.2Zm13.4-1.03A1.7 1.7 0 0 0 33 17a1.7 1.7 0 0 0-1.72-1.72A1.7 1.7 0 0 0 29.56 17c0 .96.76 1.72 1.72 1.72Z"/><path fill="#862165" d="m35.75 16.38 2.06-.34v13.34h-3.44l1.38-13Zm5.36.07-1.24 12.93h3.44V16.04l-2.2.41ZM29.56 29.38H33v-9.63h-1.44l-2 9.63ZM.7 20.37c0 1.17.48 3.85 5.02 4.2.4 0 2.06.06 2.06 1.02 0 .83-1.65 1.24-3.03 1.24-1.58 0-2.75-.41-4.12-.75v3.16c1.37.34 3.02.55 4.88.55 3.92 0 5.7-2.2 5.7-4.4 0-2.48-1.92-4.06-5.22-4.33-.48 0-1.44-.07-1.44-1.04 0-1.1 1.51-1.1 2.06-1.1.96 0 2.27.28 3.16.55l1.03.35h.14v-3.1l-.14-.06c-1.1-.35-2.4-.76-4.67-.76m16.57 7.97v5.5h3.43v-4.33c0-1.71 0-2.47 2.07-2.54v-2.89c0-.07-.76-.07-.76-.07m-15.06 9.84h3.44v-3.72a73.78 73.78 0 0 1 2.96 3.71h3.02c-.4-1.37-2.33-4.95-2.33-4.95 1.71-2.13 2.47-4.67 2.54-4.67h-2.06c-.07 0-2.75 1.72-4.13 3.37v-6.8m15.47 2.4A1.7 1.7 0 0 0 33 17a1.7 1.7 0 0 0-1.72-1.72"/></svg>