<svg xmlns="http://www.w3.org/2000/svg" width="90" height="54" fill="none"><path fill="#852268" fill-rule="evenodd" d="M64.84 4.1a3.09 3.09 0 1 1-6.18-.02 3.09 3.09 0 0 1 6.18.01ZM34.5 14.96a21.8 21.8 0 0 0 3.57-6.13h-.01 7.4a28.47 28.47 0 0 1-4.54 8.54s3.36 5.88 4.12 9.07h-7.74a24.5 24.5 0 0 0-2.8-7.04v7.04h-6.47V3.68L34.5 2.4v12.57Zm11.84 1.59c0-5.16 2.94-7.77 8.73-7.95V8.6c.55-.03 1.11 0 1.66.09v5.14c-3.67.12-4.07 1.46-4.07 4.55v8.07h-6.32v-9.9Zm-29.16-5.21c5.81.38 9.28 3.22 9.28 7.6 0 3.87-3.1 7.76-10 7.76-2.82.05-5.63-.27-8.36-.95v-5.62c2.24.88 4.62 1.35 7.03 1.36 2.5 0 4-.82 4-2.23 0-1.7-1.8-1.81-2.5-1.86-8.1-.55-8.97-5.33-8.97-7.37 0-3.52 2.5-7.64 9.56-7.64 2.8-.08 5.59.37 8.21 1.31l.1.03v5.44l-.07-.02c-.76-.31-1.66-.63-1.66-.63-1.82-.58-3.7-.91-5.6-1-1 0-3.64 0-3.64 2 0 1.64 1.82 1.77 2.62 1.82Zm47.7 15.1h-6.27V8.86h6.26v17.6Zm11.8 0V3.52l6.27-1.12v24.05H76.7ZM73.8 2.4l-6.26 1.12v22.93h6.26V2.4ZM10.78 34.91h.05v13.06h3.73V31.48h-3.2L7 33.51l.63 2.9 3.15-1.5Zm15.56 5.13v2.56H19.7v-2.56h6.64Zm-.26-5.91h4.59v13.85h3.88V34.13h4.67v-3.25H26.08v3.25Zm20.45 13.85-.23-1.24h-.07a4.48 4.48 0 0 1-3.56 1.52c-2.51 0-4-1.83-4-3.8 0-3.23 2.89-4.78 7.28-4.75v-.18c0-.66-.36-1.6-2.26-1.6-1.27 0-2.61.44-3.43.94l-.7-2.48c.85-.48 2.55-1.1 4.82-1.1 4.14 0 5.45 2.44 5.45 5.36v4.32c0 1.19.05 2.34.18 3.02h-3.48v-.01Zm-.45-5.86c-2.02-.03-3.6.45-3.6 1.95 0 .99.65 1.48 1.52 1.48a2.1 2.1 0 0 0 2-1.42c.06-.21.08-.44.08-.66v-1.35Zm6.71-6.54c.04 1.14.1 2.53.1 4.16v-.01V53h3.86v-6.16h.06c.56.8 1.72 1.42 3.22 1.42 2.76 0 5.63-2.14 5.63-6.65 0-3.95-2.43-6.32-5.15-6.32-1.8 0-3.23.69-4.14 2.01h-.05l-.18-1.72h-3.35Zm4.03 7.88a3.6 3.6 0 0 1-.08-.81v-1.7c0-.23.03-.48.08-.68a2.42 2.42 0 0 1 2.31-1.96c1.73 0 2.61 1.5 2.61 3.48 0 2.1-.99 3.5-2.66 3.5-1.12 0-2-.8-2.26-1.83Zm11.73-11.72h-2.28v-1.62h6.54v1.62h-2.33v6.9h-1.93v-6.9Zm12.43 3.54v.11l.12 3.26H83l-.47-8.5H80l-.9 2.82a75.7 75.7 0 0 0-.81 3.05h-.04c-.2-1.02-.44-2.04-.72-3.05l-.83-2.84h-2.57l-.54 8.51h1.77l.16-3.23.09-2.1.06-1.43h.02c.2 1.11.5 2.33.78 3.32l.9 3.3h1.5l1.04-3.32c.33-1 .69-2.21.95-3.3h.04c0 1.2.04 2.4.08 3.4Z" clip-rule="evenodd"/></svg>