<svg xmlns="http://www.w3.org/2000/svg" width="89" height="28" fill="none"><g fill="#233DB4" clip-path="url(#a)"><path d="M32.03 4.55h-3.4v4.2H26.5v2.98h2.14v9.63h3.39v-9.63h2.17V8.75h-2.17v-4.2Zm11.6 11.87c.01.48-.1.95-.31 1.38-.2.37-.5.68-.87.89-.4.21-.85.32-1.31.31-.73 0-1.25-.22-1.58-.67a3.2 3.2 0 0 1-.48-1.9V8.74h-3.64v8.06c0 1.5.37 2.68 1.1 3.54.73.85 1.84 1.28 3.32 1.28.89 0 1.64-.18 2.25-.56a4.32 4.32 0 0 0 1.52-1.63v1.92h3.5V8.75h-3.5v7.67Zm15.72-7.3c-.9-.5-1.9-.76-2.94-.76a4.73 4.73 0 0 0-4.25 2.46V8.75h-3.53v18.92h3.53v-8.4a4.73 4.73 0 0 0 4.26 2.47 5.73 5.73 0 0 0 5.15-3.04c.55-1 .84-2.22.84-3.65 0-1.44-.28-2.66-.85-3.66-.56-1-1.3-1.75-2.2-2.26Zm-1.04 7.85c-.29.52-.72.93-1.23 1.2-.53.29-1.1.43-1.7.42A3.21 3.21 0 0 1 52.63 17a3.73 3.73 0 0 1-.47-1.95c0-.77.15-1.41.47-1.94a3.22 3.22 0 0 1 2.75-1.6c.6 0 1.17.14 1.7.42.51.27.94.7 1.23 1.2.3.53.46 1.17.46 1.92s-.15 1.4-.46 1.92Zm14.23-8.09a9.72 9.72 0 0 0-6 .01c-.81.28-1.61.61-2.38 1l1.3 2.42a7.2 7.2 0 0 1 3.85-1.12c.35 0 .7.03 1.03.1.3.07.56.2.8.36.22.16.4.37.5.62.12.28.18.59.17.9v1.33c-.49-.26-1-.46-1.53-.6a8.05 8.05 0 0 0-2.1-.25c-1.56 0-2.76.36-3.61 1.07a3.6 3.6 0 0 0-1.28 2.91c0 .86.2 1.59.61 2.18.4.6.97 1.06 1.62 1.36.68.31 1.42.47 2.17.46a5.9 5.9 0 0 0 2.18-.4 4.07 4.07 0 0 0 1.94-1.57v1.7h3.39v-8.94a3.4 3.4 0 0 0-.7-2.18 4.37 4.37 0 0 0-1.96-1.36Zm-.73 7.43c0 .6-.14 1.12-.4 1.55-.27.42-.63.76-1.07 1a3.09 3.09 0 0 1-2.5.13 1.7 1.7 0 0 1-.75-.6 1.82 1.82 0 0 1-.03-1.87c.2-.27.46-.47.76-.58.35-.13.79-.2 1.33-.2a6.59 6.59 0 0 1 2.66.56v.01Zm13.38-7.56-3.08 7.82L79 8.75h-3.91l5.18 11.35L77 27.67h3.6l8.26-18.92h-3.67ZM10.9.33a10.8 10.8 0 0 0-7.7 3.23 11.04 11.04 0 0 0-3.2 7.8C0 16.73 8.47 25.5 10.48 27.5a.6.6 0 0 0 .85 0c2-2 10.48-10.76 10.48-16.13a11.14 11.14 0 0 0-3.2-7.8 10.9 10.9 0 0 0-7.7-3.23Zm0 17.74a6.58 6.58 0 0 1-6.12-4.14 6.78 6.78 0 0 1 1.44-7.3 6.6 6.6 0 0 1 11.32 4.73c0 1.78-.7 3.49-1.95 4.74a6.6 6.6 0 0 1-4.69 1.97Zm2.8-6.59a2.7 2.7 0 0 0-.63-.52 4.77 4.77 0 0 0-.8-.39l-.86-.3a2.48 2.48 0 0 1-.63-.27.46.46 0 0 1-.18-.65.5.5 0 0 1 .2-.19.73.73 0 0 1 .36-.08c.14 0 .28.04.4.1.16.08.3.18.42.31.14.16.26.34.35.53l1.78-.99c-.18-.3-.4-.56-.64-.8a2.7 2.7 0 0 0-.94-.6 3.13 3.13 0 0 0-.65-.16l.16-1.07a5.25 5.25 0 0 0-1.84-.07l.12 1.15c-.29.05-.56.13-.82.25-.41.17-.77.45-1.05.8-.24.31-.38.7-.38 1.1a2.15 2.15 0 0 0 .8 1.72c.2.2.45.36.7.5a7 7 0 0 0 .65.3c.3.12.57.23.78.3.18.08.35.16.5.26a.41.41 0 0 1 .18.33c0 .1-.03.19-.08.27a.4.4 0 0 1-.22.16A1.68 1.68 0 0 1 9.76 13c-.2-.21-.4-.44-.56-.69l-1.61 1.2c.18.34.44.65.75.89a4.3 4.3 0 0 0 1.98.91l-.1 1.07a5.08 5.08 0 0 0 1.8-.07l-.16-1.02c.27-.04.53-.1.79-.19.5-.17.88-.42 1.16-.77.28-.37.42-.82.4-1.29h.01a2.22 2.22 0 0 0-.53-1.56Z"/></g><defs><clipPath id="a"><path fill="#fff" d="M0 0h89v28H0z"/></clipPath></defs></svg>