<svg xmlns="http://www.w3.org/2000/svg" width="94" height="58" fill="none"><g clip-path="url(#clip0_197_135)"><path fill="#fff" d="M0 6.76h4.4l3.53 13.51 3.4-12.87h3.6l3.46 12.87 3.46-13.51h4.4l-5.7 19.42h-3.97l-3.5-13.12-3.4 13.12H5.7L0 6.76Z"/><path fill="#fff" d="M28.37 18.01c.2 3.11 2.95 4.85 5.6 4.81a4.97 4.97 0 0 0 4.64-2.62h4.75a10.95 10.95 0 0 1-3.9 4.89 9.54 9.54 0 0 1-5.53 1.7 10.2 10.2 0 0 1-10.2-10.27C23.72 11 28 6.16 33.85 6.16c2.88 0 5.42 1.1 7.21 2.97 2.36 2.44 3.24 5.48 2.85 8.88H28.37Zm11.01-3.54c-.18-1.84-2.11-4.42-5.49-4.39-3.41 0-5.28 2.48-5.45 4.4h10.94Z"/><path fill="#fff" d="M43.25 0h4.61v9.16c1.9-2.37 4.68-3 6.44-3 4.58 0 9.64 3.36 9.64 10.22 0 6.58-4.57 10.4-9.85 10.4-3.03 0-5.38-1.48-6.4-3.4v2.8h-4.44V0Zm16.08 16.42a5.83 5.83 0 0 0-5.8-5.95c-3.6 0-5.84 2.83-5.84 5.98 0 3.26 2.25 6.02 5.73 6.02 3.77 0 5.91-3.01 5.91-6.02v-.03Z"/><path fill="#FFA817" d="M5.7 25.8h4.32v2.84a8.04 8.04 0 0 1 6.83-3.43c6.76 0 9.6 5.77 9.6 10.47 0 5.52-3.9 10.16-9.57 10.16-3.76 0-5.8-1.95-6.58-3.19v9.38H5.7V25.8Zm16.15 9.7c0-2.8-2-5.98-5.92-5.98-1.68 0-3.13.68-4.18 1.77a6.16 6.16 0 0 0-1.66 4.28 5.88 5.88 0 0 0 5.88 5.94c3.52 0 5.88-2.79 5.88-5.97v-.03Z"/><path fill="#FFA817" d="M46.37 45.23h-4.6v-2.8c-1.24 2.27-3.8 3.4-6.52 3.4-6.19 0-9.81-4.84-9.81-10.33 0-6.12 4.4-10.3 9.81-10.3 3.52 0 5.67 1.88 6.51 3.44v-2.83h4.61v19.42Zm-16.33-9.62c0 2.4 1.73 5.9 5.88 5.9a5.47 5.47 0 0 0 5.14-3.1 6.08 6.08 0 0 0 .21-5.45 5.67 5.67 0 0 0-5.38-3.44c-3.73 0-5.85 3.05-5.85 6.05v.04Z"/><path fill="#FFA817" d="m51.97 44.5-7.29-18.7h4.93l4.72 12.92 4.64-12.91h4.93L53.73 52.03H48.8l3.17-7.54Z"/><path fill="#FF0005" d="M78.88 13.56a.57.57 0 0 0-.8 0L66.2 25.51l-.4.4v14.33c0 .3.25.57.56.57h13.68c.3 0 .74-.19.96-.4L92.9 28.44a.57.57 0 0 0 0-.8l-14-14.09Z"/><path fill="#fff" d="M67.7 26.96h1.13v1.1a2.71 2.71 0 0 1 2.4-1.28c2.14 0 3.15 1.8 3.15 3.36 0 1.78-1.27 3.29-3.15 3.29-1.3 0-2.06-.72-2.34-1.22v3.32h-1.2v-8.57Zm5.47 3.13c0-1.03-.72-2.2-2.18-2.2-.62 0-1.16.25-1.55.65-.38.4-.6.95-.6 1.57 0 .63.22 1.17.61 1.56.4.4.95.64 1.55.64 1.27 0 2.17-.98 2.17-2.2v-.02ZM74.74 24.7h1.2v8.54h-1.2V24.7ZM82.38 33.24h-1.12v-.97c-.3.65-1 1.17-2.12 1.16-2-.01-2.52-1.48-2.52-2.78v-3.69h1.2v3.4c0 1.14.43 1.95 1.66 1.95 1.17-.01 1.7-.76 1.7-1.84v-3.5h1.2v6.27ZM85.84 28.6c0-.48-.3-.85-.9-.84-.6 0-.91.4-.9.8.02.5.47.74 1.13.92.96.27 2 .54 2.04 1.9.02 1.22-.99 2.05-2.23 2.05-.99 0-2.22-.57-2.27-2h1.18c.04.76.65 1.02 1.1 1.02.58 0 1.02-.4 1.02-.94 0-.62-.48-.83-1.6-1.2-.87-.26-1.55-.68-1.57-1.63 0-1.19.97-1.9 2.1-1.9.87 0 2 .43 2.08 1.82h-1.18Z"/></g></svg>