<svg xmlns="http://www.w3.org/2000/svg" width="44" height="45" fill="none"><path fill="#14A0EF" fill-rule="evenodd" d="M.69 18.65c.69-.07 1.51 0 2.27 0l.82 4.33c.48-1.37.83-2.89 1.24-4.33h2.2c.41 1.44.82 2.89 1.17 4.33.34-1.37.55-2.89.82-4.33h2.27c-.62 2.61-1.17 5.22-1.72 7.84H7.43C7 24.9 6.46 23.32 6.04 21.8c-.48 1.51-.9 3.16-1.44 4.68H2.27c-.41-2.68-.96-5.3-1.58-7.84Z" clip-rule="evenodd"/><path fill="#1B7EC1" fill-rule="evenodd" d="M1.58 18.65c.69-.07.69 0 1.38 0l.82 4.33c.48-1.37.83-2.89 1.24-4.33h2.2c.41 1.44.82 2.89 1.17 4.33.34-1.37.55-2.89.82-4.33h2.27c-.62 2.61-1.17 5.22-1.72 7.84H7.42c-.4-1.58-.96-3.17-1.37-4.68-.48 1.51-.9 3.16-1.44 4.68H2.27c-.41-2.68-.14-5.3-.69-7.84Z" clip-rule="evenodd"/><path fill="#14A0EF" fill-rule="evenodd" d="M15.95 18.58h.69c2.68.14 3.99 1.65 3.85 4.6h-5.5c0 1.18.96 1.86 2 1.45.47-.2.68-.55.68-.55l2.61.28c0 .13-.07.27-.2.4a3.86 3.86 0 0 1-3.37 1.66h-.76c-2.2-.07-3.64-1.38-3.78-3.5-.14-2.62 1.37-4.13 3.78-4.34Zm-.48 2.06c-.28.28-.41.7-.48 1.24h2.75c.07-1.3-1.38-2.06-2.27-1.24Zm6.4-1.99s4.4-.41 5.63.34c.62.42.9 1.1.9 2 0 2.13-1.72 2.68-4.13 2.47v2.82h-2.4v-7.63Zm4.26 2.4c0-.82-.9-.96-1.8-.89-.06.55 0 1.17 0 1.72.9.14 1.8 0 1.8-.82Zm4.53-2.4h2.62l2.88 7.7H33.7l-.35-1.24H30.6l-.4 1.24h-2.41l2.88-7.7Zm.42 4.81h1.71l-.89-2.82-.82 2.82Zm3.91-4.74 2.62-.07 1.58 2.61 1.58-2.61h2.54l-2.88 4.47v3.23h-2.41v-3.16l-3.03-4.47Z" clip-rule="evenodd"/><path fill="#1B7EC1" fill-rule="evenodd" d="M20.28 24.36c0 .13-.07.27-.2.4a3.86 3.86 0 0 1-3.37 1.66h-.76c-2.2-.07-2.96-1.38-3.1-3.5-.2-2.69.7-4.2 3.1-4.34h.69c2.68.14 3.99 1.65 3.85 4.6h-5.5c0 1.18.96 1.86 2 1.45m-1.52-3.99c-.28.28-.41.7-.48 1.24h3.37c.13-1.3-2-2.06-2.9-1.24Zm6.4-1.99s4.4-.41 5.63.34c.62.42.9 1.1.9 2 0 2.13-1.72 2.68-4.13 2.47v2.82h-1.72l-.69-7.63Zm4.94 2.4c0-.82-1.51-.96-2.47-.89-.07.55 0 1.17 0 1.72.9.14 2.47 0 2.47-.82Zm3.85-2.4h2.62l2.88 7.7h-1.85l-1.03-1.24h-2.75l-.42 1.24H28.4l2.27-7.7Zm.42 4.81h2.33l-1.51-2.82-.82 2.82Zm3.91-4.74 2.62-.07 1.58 2.61 1.58-2.61h2.54l-2.88 4.47v3.23h-2.41l.62-3.16-3.65-4.47Z" clip-rule="evenodd"/></svg>