<svg xmlns="http://www.w3.org/2000/svg" width="120" height="27" fill="none"><path fill="#15A0FF" d="M69.43 7.88C70.5 3.58 67.88.01 61.48.01H47.59l-5.2 21.07 3.02 5.19h9.88c6.47 0 11.48-3.02 12.77-8.27.65-2.7-.1-4.58-1.8-5.52v-.06a7.32 7.32 0 0 0 3.17-4.54Zm-8.47 9.95c-.26 1.1-1 2.23-4.08 2.23h-6.3l1.1-4.52h6.27c3.04 0 3.26 1.15 2.97 2.29h.04Zm1.26-9.8c-.23.84-.87 1.88-3.53 1.88h-5.64l.94-3.67h5.64c2.68-.02 2.82.84 2.59 1.78ZM78.17 16.1H90.8l1.44-6.21H79.69l.98-3.67H93.1L94.54 0H74.13l-6.47 26.25h23.12l1.52-6.21H77.23l.94-3.95ZM96.31 0l-1.45 6.22h7.56l-4.96 20.04h7.93l4.97-20.04h8.09L120 0H96.31Z"/><path fill="#fff" d="M8.3 26.26h-8l3.46-14.02.8-2.12-2.11 2.12-2.36 2.38-.09-7L8.3.01h6.46L8.3 26.26Z"/><path fill="#fff" d="m37.17 15.38-2.55-4.32L46.99.01H35.47l-4.7 4.51L14.8 19.15l-7.66 7.1h10.9l8.2-7.3 2.75 4.7c.94 1.19 2.27 2.62 7.9 2.62h6.58l-6.3-10.9-.01.01ZM29.88 3.08v-.06A7.23 7.23 0 0 0 23.63.01h-8.51l6.35 10.8 8.4-7.73Z"/></svg>