<svg xmlns="http://www.w3.org/2000/svg" width="127" height="29" fill="none"><path fill="#FEFEFE" d="m111.76 14.8-.56-.06c-.76.24-1.52.51-2.27-.1.35-.52.4-1.18.94-1.57l.61-.71c0-.23 0-.46.28-.55a2.9 2.9 0 0 1 1.03-1.7c-1.21-.85-2.53-.19-3.73-.36l-3.77 6.54-3.67-6.49h-3.95v14.36h3.66v-8.47l3.95 6.46 3.89-6.2.32.1v8.12h3.6c0-2.37.02-4.64 0-6.91-.04-.82.27-1.7-.33-2.45ZM41.54 17.07c1.6-1.49 1.71-3.27.93-5.03-.77-1.7-2.53-2.23-4.32-2.31-2.37-.12-4.76-.03-7.22-.03v15.43c2.92-.13 5.66.18 8.4-.24 1.99-.3 3.38-1.08 3.93-2.98.58-1.96.15-3.59-1.72-4.84Zm-6.73-4.27c1.13-.18 2.3-.11 3.4.19.71.7.88 1.53.36 2.27-.94 1.32-2.41.6-3.75.85l-.01-3.31Zm3.31 9.08c-1.1.33-2.2.46-3.29-.03v-3.27h2.37c.47-.21.7.2 1.05.33 1.06-.22.94.61 1.01 1.11.13.85-.06 1.63-1.14 1.86ZM74.08 21.65c-1.65.4-3.3.4-3.99-1.14-1.05-2.34-1.2-5.18.15-7.3 1.44-2.26 3.93-1.07 6.09-.8l.93-2.51c-3-1.98-8.06-1.43-10.07 1.04-1.81 2.22-1.97 9.09-.27 11.68 1.8 2.72 6.34 3.33 10.41 1.36V17.2h-3.25v4.44ZM85.52 9.68c.53 1.6 1.28 3.02 1.55 4.58A14.03 14.03 0 0 1 88.54 18c-.76.24-1.47.13-2.22.09.12-1.11.77-2.04.72-3.12h-3.17l-3.64 9.19h3.83l1.2-2.96h4.34l1.26 2.97h3.87l-5.7-14.5h-3.51ZM50 20.67c-1.54-1.9-1.3-4.53-.45-6.67 1.35-3.43 4.27-1.55 6.58-1.72.3-.87.77-1.63.82-2.54-3.19-1.85-8.22-1.14-10.19 1.4-1.65 2.14-1.8 9.1-.23 11.27 2.1 2.9 6.66 3.6 10.5 1.55-.17-1-.5-1.97-.99-2.85-2.1.87-4.4 1.58-6.04-.44ZM119.02 18.32h6.64V15.5l-10.63-.03v8.7h11.6v-3.2h-7.61v-2.65ZM60.18 24.17h3.62v-2.9h-3.86c.12 1.03-.21 1.97.24 2.9ZM126.56 12.27l.07-2.3c-.55-.42-1.24-.27-1.87-.27-3.1-.03-6.2-.03-9.3-.03l-.43.34h.09c.02 0 .05-.02.06-.04v2.3l-.03.27 11.14.03c.09-.02.19-.03.28-.03v-.26l-.01-.01Z"/><path fill="#5DDA1C" d="m22.23 21.27-.03-9.21c-.4-.83-.12-1.9-.9-2.6-1.91-.7-3.35-2.22-5.26-2.87l-2.3-1.62c-1.6-.94-3.22-1.18-4.87-.14a.19.19 0 0 1-.2.13c-.03.09-.04.19-.05.29l-1.09.6-.62.1-.96.58-.14-.33c.08-.97.24-1.98-.14-2.95l-.59-1.63A1.36 1.36 0 0 0 3.96.77C3.43.1 2.7.35 2.03.34 1.35-.2.68-.02 0 .37l.1 7.8v9.08l.04 4.43-.14.11.41.67.12.6c.38.75 1.3.85 1.81 1.46.47.06.69.65 1.22.56l1.68 1.01c.1.27.33.3.57.33l2.31 1.3a4.43 4.43 0 0 0 4.96.9l.33-.38.65-.22.63-.13c0-.09.02-.18.08-.26.25-.5.74-.63 1.23-.74l.4-.43c1.13-.48 2.04-1.4 3.24-1.74l2.23-1.7c.02-.3-.2-.6.03-.9.35-.2.33-.53.33-.85ZM7.88 10.71l.65-.17c1.79-1.34 3.74-1.26 5.75-.67l.04.02 2.33 1.53c.25.65-.53.8-.61 1.3-.57.08-.7.65-1.08.95 0 .1-.02.19-.04.28-.7.67-1.63 1.1-2.16 1.97-.69.45-.79 1-.28 1.65l.31.3c.98.24 1.37 1.3 2.25 1.68l1.42 1.55a.81.81 0 0 1 .51.65c-.78.87-1.86 1.4-2.9 2l-.32-.1-.6.09a2.38 2.38 0 0 1-2.1.02c-.88.19-1.65-.4-2.51-.4-.42-.35-.69-.88-1.27-1.04-1.02-.69-1.46-1.78-1.98-2.81-.46-1.46-.85-2.95-.4-4.5l.08-.33 1.06-1.95a33.3 33.3 0 0 1-.05-.21l.93-.75.97-1.06Z"/><path fill="#F0F0EB" d="m10.63 14.92-.31-1.18c-1.25-.53-1.6-.1-1.62 1.96.32.45.74.7 1.18.73l.7-.74.05-.77Z"/></svg>