<?xml version="1.0" encoding="UTF-8"?> <svg xmlns="http://www.w3.org/2000/svg" id="Layer_1" data-name="Layer 1" viewBox="0 0 186.78 41.59"><defs><style>.cls-1{fill:#fff;}</style></defs><path class="cls-1" d="M22,11.14a28.81,28.81,0,0,0-8,1.37l1.49-9.06a1.43,1.43,0,0,0-.24-1.2,1.34,1.34,0,0,0-1.11-.47H8a1.91,1.91,0,0,0-1.25.47,2,2,0,0,0-.68,1.2L0,38.57a18,18,0,0,0,6,2.14,37.55,37.55,0,0,0,7.93.88q16.83,0,19.52-15.21c.87-4.93.27-8.7-1.83-11.32S26.29,11.14,22,11.14ZM24.1,26.38c-.55,3.07-1.46,5.29-2.76,6.66a7.5,7.5,0,0,1-5.73,2.06A21.15,21.15,0,0,1,10,34.48l2.6-14.32L8,20.35a23,23,0,0,1,10.83-2.73q3.69,0,4.87,2.08T24.1,26.38ZM52.63,11.14a18.84,18.84,0,0,0-12.25,3.95q-4.87,4-6.19,11.37t2.15,11.27q3.46,3.85,10.9,3.86Q62,41.62,63.3,34a1.54,1.54,0,0,0-.25-1.27,1.3,1.3,0,0,0-1.1-.5h-4a4.67,4.67,0,0,0-3.36,1.45Q52.78,35.49,49,35.5c-2.24,0-3.83-.46-4.75-1.39s-1.29-2.43-1.1-4.48H63.41a1.91,1.91,0,0,0,1.28-.48,2,2,0,0,0,.69-1.22l.27-1.56Q67,19,63.51,15.08T52.63,11.14Zm4,12.41H44.16q1.44-6.33,7.4-6.33T56.68,23.55Zm21.67-3.86h7.51a2,2,0,0,0,1.93-1.64l.56-3.21a1.37,1.37,0,0,0-.24-1.18A1.33,1.33,0,0,0,87,13.2H77.28l2.53-1.67,1.3-8.09a1.41,1.41,0,0,0-.25-1.19,1.32,1.32,0,0,0-1.1-.47h-6a1.89,1.89,0,0,0-1.25.47,2,2,0,0,0-.68,1.2L67.29,29.52q-2.15,12.09,9.44,12.07A41,41,0,0,0,84,41.06a2.66,2.66,0,0,0,1.3-.54,1.75,1.75,0,0,0,.65-1.05l.5-2.78a1.32,1.32,0,0,0-.27-1.15A1.44,1.44,0,0,0,85,35.1H84a14.86,14.86,0,0,0-1.77.16,15.74,15.74,0,0,1-2,.16,3.58,3.58,0,0,1-3.18-1.5,5.73,5.73,0,0,1-.54-4.28Zm38.38,10.93h-4.07a4.6,4.6,0,0,0-3.48,2c-1.37,1.68-3.48,2.51-6.31,2.51s-4.51-.69-5.38-2.06-1-3.59-.5-6.66S98.48,21,99.8,19.67s3.29-2.05,5.89-2.05c2.84,0,4.65.85,5.42,2.53a3,3,0,0,0,2.8,2H118a2,2,0,0,0,1.3-.46,1.9,1.9,0,0,0,.68-1.18c.54-3.07-.38-5.39-2.78-7s-6-2.35-10.8-2.35q-7.65,0-12.51,3.85T87.68,26.38c-.89,5-.16,8.77,2.18,11.34s6.15,3.86,11.41,3.86q7.22,0,11.63-2.36a9.48,9.48,0,0,0,5.23-7,1.34,1.34,0,0,0-.27-1.15A1.4,1.4,0,0,0,116.73,30.62Zm26.66-12.28a2,2,0,0,0,1.28-.45,1.9,1.9,0,0,0,.68-1.16l.8-4a1.33,1.33,0,0,0-.27-1.14,1.37,1.37,0,0,0-1.12-.46c-2.74,0-6-.16-7.77.47s-2.79,1.58-4.85,2.89l.29-1.66a1.35,1.35,0,0,0-.25-1.17,1.33,1.33,0,0,0-1.1-.46h-6a1.9,1.9,0,0,0-1.25.46,2,2,0,0,0-.69,1.2L118.3,40a1.41,1.41,0,0,0,.25,1.18,1.35,1.35,0,0,0,1.1.45h6a2,2,0,0,0,1.93-1.64l3.16-17.78c2.67-2.66,5.22-4,7.65-4,.48,0,1.18,0,2.11.08s1.59.07,2,.07ZM156,13.66a1.37,1.37,0,0,0-1.11-.47h-6a1.92,1.92,0,0,0-1.25.45,2,2,0,0,0-.68,1.18L142.54,40a1.28,1.28,0,0,0,1.35,1.62h6a1.9,1.9,0,0,0,1.25-.45,1.85,1.85,0,0,0,.68-1.17l4.38-25.14A1.39,1.39,0,0,0,156,13.66Zm17.29-2.52q-14,0-15.56,8.65a6,6,0,0,0,1.19,5.15,9.71,9.71,0,0,0,4.53,3,54.57,54.57,0,0,0,5.71,1.55A28.69,28.69,0,0,1,174,30.92c1.3.53,1.88,1.2,1.73,2q-.45,2.57-6.63,2.57c-2.59,0-4.28-.58-5.05-1.79a3.08,3.08,0,0,0-2.83-1.45h-4a1.9,1.9,0,0,0-1.27.47,2,2,0,0,0-.69,1.19q-1.35,7.66,13.42,7.66c9.89,0,15.35-2.87,16.37-8.65a6,6,0,0,0-1.17-5.19,9.83,9.83,0,0,0-4.55-3,51.34,51.34,0,0,0-5.72-1.54,27,27,0,0,1-4.85-1.41q-2-.8-1.74-2,.43-2.57,5.8-2.57c2.58,0,4.27.61,5,1.82a3.12,3.12,0,0,0,2.85,1.42h4A1.89,1.89,0,0,0,186,20a2,2,0,0,0,.67-1.18Q188,11.14,173.28,11.14Z"></path><path class="cls-1" d="M157.69,2.18c-.12-.17,0,0-.13-.16a5.61,5.61,0,0,0-9.91,3.31A23.94,23.94,0,0,1,157.69,2.18Z"></path><path class="cls-1" d="M147.69,6.39a5.61,5.61,0,0,0,11.17-.78,5,5,0,0,0-.09-1C156.59,3.86,152,4.1,147.69,6.39Z"></path></svg> 