<svg width="119" height="36" viewBox="0 0 119 36" fill="none" xmlns="http://www.w3.org/2000/svg">
<path d="M9.42582 28.9208C8.8988 28.9208 8.51137 29.1502 8.26337 29.6086V27.3686H6.87769V33.7122H7.61699C7.73563 33.3218 7.83872 33.0818 7.92617 32.9919C8.12751 33.3204 8.32733 33.5388 8.52557 33.6472C8.72381 33.7556 8.98093 33.8099 9.29686 33.8099C9.90404 33.8099 10.3688 33.5853 10.6909 33.136C11.013 32.6868 11.1741 32.0967 11.1741 31.3654C11.1741 30.6064 11.0175 30.0091 10.7044 29.5738C10.3914 29.1386 9.96522 28.9208 9.42582 28.9208ZM9.53279 32.5434C9.384 32.7465 9.19488 32.8478 8.96554 32.8478C8.77333 32.8478 8.60826 32.7642 8.47034 32.5969C8.33241 32.4296 8.26345 32.1818 8.26345 31.8533V30.9563C8.26345 30.6031 8.33011 30.3305 8.46343 30.1383C8.59668 29.9463 8.7765 29.8502 9.00284 29.8502C9.19814 29.8502 9.37249 29.9355 9.52597 30.1058C9.67945 30.2763 9.75611 30.6946 9.75611 31.3606C9.75595 31.9463 9.68159 32.3406 9.53279 32.5434ZM16.756 31.5977C16.756 30.6652 16.5397 29.9859 16.1073 29.5598C15.6749 29.1339 15.1564 28.9208 14.5518 28.9208C13.8822 28.9208 13.3343 29.1502 12.9081 29.6086C12.4818 30.0672 12.2687 30.6698 12.2687 31.4164C12.2687 31.9183 12.3749 32.3491 12.5872 32.7084C12.7995 33.0679 13.0693 33.3413 13.3963 33.5287C13.7233 33.7161 14.1209 33.8099 14.589 33.8099C15.6615 33.8099 16.373 33.2677 16.7233 32.1833L15.4679 32.0903C15.3749 32.5829 15.0974 32.8292 14.6356 32.8292C14.3876 32.8292 14.1744 32.7441 13.9962 32.5736C13.8179 32.4033 13.7288 32.1507 13.7288 31.816C13.7288 31.7542 13.7304 31.6813 13.7335 31.5976H16.756V31.5977ZM14.603 29.827C15.0897 29.827 15.3547 30.1493 15.3982 30.7937H13.7289C13.7909 30.1494 14.0823 29.827 14.603 29.827ZM19.7798 32.5783C19.7056 32.4947 19.6687 32.329 19.6687 32.081V30.0965H20.6777V29.0184H19.6687V27.5405L18.4736 27.6335L18.362 29.0184H17.539V30.0966H18.283V32.2809C18.283 32.8604 18.4038 33.2608 18.6456 33.4822C18.8875 33.7038 19.2966 33.8145 19.8733 33.8145C20.05 33.8145 20.3398 33.7804 20.7428 33.7122V32.6852C20.5761 32.6976 20.4295 32.7037 20.303 32.7037C20.0282 32.7038 19.8539 32.6619 19.7798 32.5783ZM23.8392 28.9208C23.3562 28.9208 22.9567 29.0277 22.6407 29.2414C22.3249 29.4552 22.0763 29.7364 21.8952 30.085C21.7141 30.4336 21.6235 30.8573 21.6235 31.356C21.6235 32.0748 21.824 32.6635 22.2251 33.122C22.6261 33.5806 23.1611 33.8099 23.83 33.8099C24.5205 33.8099 25.0741 33.5783 25.4906 33.1151C25.9071 32.6519 26.1154 32.0733 26.1154 31.3792C26.1154 30.676 25.9148 30.0904 25.5138 29.6226C25.1127 29.1548 24.5546 28.9208 23.8392 28.9208ZM24.4374 32.5899C24.2921 32.7961 24.102 32.8989 23.8671 32.8989C23.5983 32.8989 23.4004 32.7781 23.2737 32.5365C23.147 32.2948 23.0836 31.8968 23.0836 31.342C23.0836 30.7379 23.1501 30.3344 23.283 30.1314C23.4159 29.9285 23.6137 29.827 23.8764 29.827C24.1392 29.827 24.3346 29.937 24.4629 30.1569C24.5911 30.3769 24.6553 30.7952 24.6553 31.4117C24.6553 31.9912 24.5826 32.3839 24.4374 32.5899ZM30.0139 28.9208C29.4869 28.9208 29.0994 29.1502 28.8514 29.6086V27.3686H27.4657V33.7122H28.2051C28.3237 33.3218 28.4268 33.0818 28.5142 32.9919C28.7156 33.3204 28.9154 33.5388 29.1136 33.6472C29.3119 33.7556 29.5689 33.8099 29.8849 33.8099C30.4921 33.8099 30.9568 33.5853 31.2789 33.136C31.6011 32.6868 31.7622 32.0967 31.7622 31.3654C31.7622 30.6064 31.6056 30.0091 31.2925 29.5738C30.9794 29.1386 30.5532 28.9208 30.0139 28.9208ZM30.1208 32.5434C29.972 32.7465 29.7829 32.8478 29.5535 32.8478C29.3613 32.8478 29.1962 32.7642 29.0583 32.5969C28.9204 32.4296 28.8514 32.1818 28.8514 31.8533V30.9563C28.8514 30.6031 28.9181 30.3305 29.0514 30.1383C29.1847 29.9463 29.3645 29.8502 29.5908 29.8502C29.7861 29.8502 29.9605 29.9355 30.114 30.1058C30.2674 30.2763 30.3441 30.6946 30.3441 31.3606C30.344 31.9463 30.2696 32.3406 30.1208 32.5434ZM37.344 31.5977C37.344 30.6652 37.1278 29.9859 36.6953 29.5598C36.2629 29.1339 35.7445 28.9208 35.1399 28.9208C34.4703 28.9208 33.9224 29.1502 33.4962 29.6086C33.0699 30.0672 32.8568 30.6698 32.8568 31.4164C32.8568 31.9183 32.9629 32.3491 33.1753 32.7084C33.3876 33.0679 33.6573 33.3413 33.9844 33.5287C34.3114 33.7161 34.709 33.8099 35.177 33.8099C36.2496 33.8099 36.961 33.2677 37.3114 32.1833L36.0559 32.0903C35.9629 32.5829 35.6855 32.8292 35.2236 32.8292C34.9756 32.8292 34.7625 32.7441 34.5842 32.5736C34.4059 32.4033 34.3169 32.1507 34.3169 31.816C34.3169 31.7542 34.3185 31.6813 34.3216 31.5976H37.344V31.5977ZM35.1911 29.827C35.6777 29.827 35.9428 30.1493 35.9863 30.7937H34.317C34.3789 30.1494 34.6703 29.827 35.1911 29.827ZM40.3678 32.5783C40.2937 32.4947 40.2567 32.329 40.2567 32.081V30.0965H41.2658V29.0184H40.2567V27.5405L39.0617 27.6335L38.9501 29.0184H38.1271V30.0966H38.871V32.2809C38.871 32.8604 38.9919 33.2608 39.2337 33.4822C39.4755 33.7038 39.8847 33.8145 40.4613 33.8145C40.638 33.8145 40.9279 33.7804 41.3309 33.7122V32.6852C41.1642 32.6976 41.0175 32.7037 40.891 32.7037C40.6163 32.7038 40.442 32.6619 40.3678 32.5783ZM43.0512 32.6178C42.7179 32.6178 42.4893 32.8652 42.4893 33.227C42.4798 33.56 42.7179 33.817 43.0417 33.817C43.394 33.817 43.6131 33.56 43.6131 33.227C43.6131 32.8652 43.394 32.6178 43.0512 32.6178ZM50.5994 28.9208C50.0723 28.9208 49.6849 29.1502 49.437 29.6086V27.3686H48.0513V33.7122H48.7906C48.9092 33.3218 49.0123 33.0818 49.0998 32.9919C49.3011 33.3204 49.5008 33.5388 49.6992 33.6472C49.8973 33.7556 50.1544 33.8099 50.4705 33.8099C51.0776 33.8099 51.5424 33.5853 51.8645 33.136C52.1867 32.6868 52.3477 32.0967 52.3477 31.3654C52.3477 30.6064 52.1911 30.0091 51.878 29.5738C51.565 29.1386 51.1388 28.9208 50.5994 28.9208ZM50.7064 32.5434C50.5576 32.7465 50.3685 32.8478 50.1391 32.8478C49.9468 32.8478 49.7818 32.7642 49.6439 32.5969C49.5059 32.4296 49.437 32.1818 49.437 31.8533V30.9563C49.437 30.6031 49.5036 30.3305 49.637 30.1383C49.7703 29.9463 49.9501 29.8502 50.1764 29.8502C50.3717 29.8502 50.5461 29.9355 50.6996 30.1058C50.853 30.2763 50.9297 30.6946 50.9297 31.3606C50.9295 31.9463 50.8552 32.3406 50.7064 32.5434ZM57.9296 31.5977C57.9296 30.6652 57.7134 29.9859 57.281 29.5598C56.8485 29.1339 56.3301 28.9208 55.7255 28.9208C55.0559 28.9208 54.5078 29.1502 54.0818 29.6086C53.6554 30.0672 53.4424 30.6698 53.4424 31.4164C53.4424 31.9183 53.5485 32.3491 53.7609 32.7084C53.9731 33.0679 54.2429 33.3413 54.5701 33.5287C54.897 33.7161 55.2946 33.8099 55.7627 33.8099C56.8353 33.8099 57.5466 33.2677 57.8971 32.1833L56.6416 32.0903C56.5486 32.5829 56.2711 32.8292 55.8093 32.8292C55.5612 32.8292 55.3481 32.7441 55.1699 32.5736C54.9916 32.4033 54.9026 32.1507 54.9026 31.816C54.9026 31.7542 54.9041 31.6813 54.9072 31.5976H57.9296V31.5977ZM55.7767 29.827C56.2633 29.827 56.5283 30.1493 56.5719 30.7937H54.9026C54.9644 30.1494 55.2559 29.827 55.7767 29.827ZM60.9534 32.5783C60.8792 32.4947 60.8423 32.329 60.8423 32.081V30.0965H61.8513V29.0184H60.8423V27.5405L59.6472 27.6335L59.5356 29.0184H58.7126V30.0966H59.4566V32.2809C59.4566 32.8604 59.5774 33.2608 59.8192 33.4822C60.0611 33.7038 60.4702 33.8145 61.0468 33.8145C61.2236 33.8145 61.5134 33.7804 61.9164 33.7122V32.6852C61.7497 32.6976 61.6031 32.7037 61.4766 32.7037C61.2018 32.7038 61.0275 32.6619 60.9534 32.5783ZM65.9609 33.7123H67.3466V27.3686H65.9609V33.7123ZM68.9619 28.6233H70.3476V27.2384H68.9619V28.6233ZM68.9619 33.7123H70.3476V29.0184H68.9619V33.7123ZM76.413 29.0184H75.0625L73.6923 30.6311C73.6334 30.7024 73.5607 30.7969 73.474 30.9145L73.2696 31.1702V27.3686H71.963V33.7122H73.2696V32.5223L74.0847 31.5859L75.0652 33.7122H76.5944L75.0658 30.6105L76.413 29.0184ZM81.7112 31.5977C81.7112 30.6652 81.4949 29.9859 81.0625 29.5598C80.6301 29.1339 80.1116 28.9208 79.5071 28.9208C78.8374 28.9208 78.2895 29.1502 77.8633 29.6086C77.4371 30.0672 77.2239 30.6698 77.2239 31.4164C77.2239 31.9183 77.3301 32.3491 77.5425 32.7084C77.7548 33.0679 78.0245 33.3413 78.3515 33.5287C78.6786 33.7161 79.0761 33.8099 79.5442 33.8099C80.6168 33.8099 81.3282 33.2677 81.6786 32.1833L80.4231 32.0903C80.3301 32.5829 80.0527 32.8292 79.5908 32.8292C79.3428 32.8292 79.1296 32.7441 78.9514 32.5736C78.7731 32.4033 78.684 32.1507 78.684 31.816C78.684 31.7542 78.6856 31.6813 78.6887 31.5976H81.7112V31.5977ZM79.5583 29.827C80.045 29.827 80.31 30.1493 80.3534 30.7937H78.6841C78.746 30.1494 79.0374 29.827 79.5583 29.827ZM89.9313 30.7054C89.9313 30.2934 89.9034 30.0045 89.8476 29.8386C89.7918 29.6729 89.6848 29.5156 89.5267 29.3669C89.3687 29.2182 89.1485 29.1067 88.8665 29.0323C88.5844 28.9579 88.2837 28.9208 87.9644 28.9208C87.4312 28.9208 86.9539 29.0323 86.5322 29.2554C86.1106 29.4785 85.858 29.8565 85.7743 30.3894L87.053 30.5102C87.1085 30.0547 87.379 29.827 87.8642 29.827C88.3185 29.827 88.5456 30.0547 88.5456 30.5102V30.7797C87.6202 30.8479 86.9827 30.9525 86.6329 31.0934C86.2832 31.2344 86.0294 31.4288 85.8716 31.6767C85.7137 31.9246 85.6348 32.1957 85.6348 32.49C85.6348 32.8928 85.7701 33.2135 86.041 33.452C86.3118 33.6907 86.6669 33.8099 87.1065 33.8099C87.4037 33.8099 87.669 33.7549 87.9027 33.6449C88.1363 33.535 88.3708 33.3126 88.606 32.978C88.606 33.2817 88.6277 33.5264 88.6711 33.7123H90.015C89.9592 33.5357 89.9312 33.2429 89.9312 32.834L89.9313 30.7054ZM88.5456 31.8905C88.5456 32.1879 88.4629 32.4382 88.2977 32.6411C88.1323 32.8441 87.9277 32.9455 87.6836 32.9455C87.4951 32.9455 87.3499 32.8859 87.2479 32.7666C87.1458 32.6473 87.0949 32.5056 87.0949 32.3413C87.0949 31.8519 87.5785 31.5591 88.5456 31.463V31.8905ZM96.9192 28.9208C96.3302 28.9208 95.9179 29.1827 95.6823 29.7062V29.0183H94.4082V35.297H95.752V33.1917C95.9784 33.6038 96.3565 33.8098 96.8866 33.8098C97.4106 33.8098 97.836 33.5999 98.1631 33.1801C98.4901 32.7604 98.6537 32.1368 98.6537 31.3095C98.6537 30.5319 98.4917 29.9394 98.1677 29.5319C97.8438 29.1246 97.4276 28.9208 96.9192 28.9208ZM96.9982 32.5481C96.8494 32.7418 96.6805 32.8386 96.4914 32.8386C96.3395 32.8386 96.1984 32.7883 96.0682 32.6876C95.938 32.5869 95.8528 32.4731 95.8124 32.3459C95.7721 32.219 95.752 31.9897 95.752 31.6581V30.961C95.752 30.5676 95.8279 30.2887 95.9798 30.1245C96.1317 29.9604 96.3007 29.8782 96.4867 29.8782C96.9765 29.8782 97.2214 30.3415 97.2214 31.2678C97.2215 31.9277 97.147 32.3545 96.9982 32.5481ZM101.292 29.8921V29.0184H100.023V33.7123H101.366V31.8022C101.366 31.4211 101.416 31.1184 101.515 30.8937C101.614 30.6691 101.742 30.5134 101.899 30.4266C102.055 30.3399 102.275 30.2964 102.557 30.2964V28.9301C102.458 28.9208 102.374 28.9161 102.306 28.9161C101.825 28.9162 101.487 29.2414 101.292 29.8921ZM105.751 28.9208C105.268 28.9208 104.868 29.0277 104.552 29.2414C104.236 29.4552 103.988 29.7364 103.807 30.085C103.626 30.4336 103.535 30.8573 103.535 31.356C103.535 32.0748 103.735 32.6635 104.137 33.122C104.538 33.5806 105.073 33.8099 105.742 33.8099C106.432 33.8099 106.986 33.5783 107.402 33.1151C107.819 32.6519 108.027 32.0733 108.027 31.3792C108.027 30.676 107.826 30.0904 107.425 29.6226C107.024 29.1548 106.466 28.9208 105.751 28.9208ZM106.349 32.5899C106.204 32.7961 106.014 32.8989 105.779 32.8989C105.51 32.8989 105.312 32.7781 105.185 32.5365C105.059 32.2948 104.995 31.8968 104.995 31.342C104.995 30.7379 105.062 30.3344 105.195 30.1314C105.327 29.9285 105.525 29.827 105.788 29.827C106.051 29.827 106.246 29.937 106.375 30.1569C106.503 30.3769 106.567 30.7952 106.567 31.4117C106.567 31.9912 106.494 32.3839 106.349 32.5899ZM110.633 31.8161L111.093 27.3686H109.312L109.777 31.8161H110.633ZM109.475 33.7123H110.94V32.2484H109.475V33.7123Z" fill="#FED041"/>
<path d="M8.50735 5.25705C6.7486 5.25705 5.45552 6.02269 4.62821 7.55324V0.0793304H0V21.228H2.476C2.86708 19.93 3.20657 19.1317 3.49496 18.8328C4.16721 19.9244 4.83446 20.6505 5.49663 21.011C6.1588 21.3714 7.01731 21.5517 8.07262 21.5517C10.1002 21.5517 11.6518 20.803 12.7279 19.3058C13.8037 17.8084 14.3417 15.8415 14.3417 13.4044C14.3417 10.8744 13.8192 8.88424 12.7746 7.43339C11.7298 5.98247 10.3073 5.25705 8.50735 5.25705ZM8.87192 17.3388C8.37426 18.0154 7.74225 18.3536 6.97556 18.3536C6.33276 18.3536 5.78105 18.0749 5.31982 17.5169C4.85851 16.9593 4.62821 16.133 4.62821 15.0379V12.0474C4.62821 10.8701 4.85081 9.96118 5.29665 9.32055C5.74209 8.68016 6.34323 8.3598 7.10008 8.3598C7.75304 8.3598 8.3357 8.64391 8.84875 9.21197C9.36181 9.78011 9.61829 11.1748 9.61829 13.3954C9.61829 15.3477 9.3695 16.6625 8.87192 17.3388ZM31.3383 14.1848C31.3383 11.0749 30.6179 8.80936 29.1769 7.38842C27.7359 5.96764 26.0087 5.25705 23.9945 5.25705C21.7631 5.25705 19.9374 6.0215 18.5172 7.54967C17.097 9.07784 16.387 11.0864 16.387 13.5748C16.387 15.2476 16.7405 16.683 17.4479 17.8808C18.155 19.0788 19.0534 19.9902 20.1427 20.6148C21.2319 21.2391 22.5562 21.5517 24.1153 21.5517C27.6877 21.5517 30.0571 19.7452 31.224 16.1315L27.0338 15.822C26.7248 17.459 25.8044 18.2776 24.2717 18.2776C23.4486 18.2776 22.7416 17.9944 22.1499 17.4281C21.5583 16.8618 21.2628 16.0227 21.2628 14.9106C21.2628 14.7048 21.2678 14.463 21.2782 14.1849H31.3383V14.1848ZM24.1653 8.28374C25.7813 8.28374 26.6612 9.35624 26.8054 11.5008H21.2629C21.4688 9.35624 22.4363 8.28374 24.1653 8.28374ZM41.4288 17.7794C40.5129 17.7794 39.9317 17.6402 39.6846 17.3618C39.4376 17.0834 39.3145 16.5314 39.3145 15.706V9.0991H42.6855V5.50135H39.3145V0.571087L35.3338 0.881291L34.9528 5.50135H32.2102V9.0991H34.6862V16.3796C34.6862 18.3109 35.0894 19.6458 35.8965 20.384C36.7032 21.1222 38.0689 21.4914 39.9931 21.4914C40.5828 21.4914 41.5499 21.3774 42.895 21.1495V17.7172C42.3392 17.7589 41.8505 17.7794 41.4288 17.7794Z" fill="white"/>
<path d="M84.3743 5.17772C82.6155 5.17772 81.3225 5.94336 80.4952 7.47391V0H75.8669V21.1487H78.3429C78.734 19.8507 79.0735 19.0524 79.3619 18.7535C80.0342 19.8451 80.7014 20.5711 81.3636 20.9316C82.0257 21.2921 82.8843 21.4723 83.9396 21.4723C85.9671 21.4723 87.5187 20.7237 88.5948 19.2264C89.6707 17.7291 90.2087 15.7622 90.2087 13.325C90.2087 10.7951 89.6862 8.80491 88.6416 7.35407C87.5967 5.90314 86.1742 5.17772 84.3743 5.17772ZM84.7389 17.2595C84.2412 17.9361 83.6092 18.2743 82.8425 18.2743C82.1997 18.2743 81.648 17.9956 81.1868 17.4376C80.7254 16.88 80.4952 16.0537 80.4952 14.9585V11.9681C80.4952 10.7908 80.7178 9.88185 81.1636 9.24122C81.609 8.60083 82.2102 8.28047 82.967 8.28047C83.62 8.28047 84.2026 8.56458 84.7157 9.13264C85.2288 9.70078 85.4852 11.0955 85.4852 13.3161C85.4852 15.2684 85.2365 16.5832 84.7389 17.2595ZM107.285 14.2641C107.285 11.1542 106.564 8.88866 105.123 7.46772C103.682 6.04686 101.955 5.33628 99.9408 5.33628C97.7095 5.33628 95.8838 6.10072 94.4636 7.62889C93.0434 9.15707 92.3334 11.1657 92.3334 13.654C92.3334 15.3268 92.6869 16.7622 93.3943 17.96C94.1014 19.158 94.9998 20.0694 96.0891 20.694C97.1783 21.3183 98.5026 21.631 100.062 21.631C103.634 21.631 106.003 19.8244 107.17 16.2108L102.98 15.9012C102.671 17.5383 101.751 18.3568 100.218 18.3568C99.395 18.3568 98.6879 18.0737 98.0963 17.5073C97.5047 16.941 97.2092 16.1019 97.2092 14.9899C97.2092 14.784 97.2142 14.5422 97.2246 14.2641H107.285ZM100.112 8.36304C101.728 8.36304 102.608 9.43554 102.752 11.5801H97.2092C97.4151 9.43554 98.3826 8.36304 100.112 8.36304ZM117.534 17.938C116.618 17.938 116.037 17.7988 115.79 17.5204C115.543 17.242 115.419 16.69 115.419 15.8646V9.25772H118.791V5.65996H115.419V0.729704L111.439 1.03991L111.058 5.65996H108.315V9.25772H110.791V16.5383C110.791 18.4695 111.194 19.8044 112.001 20.5426C112.808 21.2809 114.174 21.65 116.098 21.65C116.688 21.65 117.655 21.536 119 21.3081V17.8758C118.444 17.9175 117.956 17.938 117.534 17.938Z" fill="white"/>
<path d="M67.0857 18.3372C69.0286 16.4147 70 14.1601 70 11.5733C70 8.87929 68.9989 6.64707 66.9974 4.87632C64.9953 3.10586 62.3393 2.22034 59.0293 2.22034C55.7059 2.22034 53.0371 3.12143 51.0221 4.92325C49.0072 6.72521 48 9.00897 48 11.774C48 14.4233 48.9616 16.6601 50.8846 18.4842C52.8077 20.3084 55.4899 21.2203 58.9316 21.2203C62.4244 21.2204 65.1427 20.2597 67.0857 18.3372ZM54.0439 16.8005C53.4728 16.2561 53.2521 15.9107 52.9814 15.4287C52.4572 14.4952 52.3176 13.7888 52.1076 12.4554C52.0214 11.9082 52.0847 10.8728 52.183 10.4193C52.2883 9.93361 52.4114 9.40965 52.5854 8.92957C52.9218 8.00128 53.1951 7.57826 53.8679 6.86868C54.6633 6.02986 55.5226 5.48601 56.6467 5.14299C57.4244 4.90567 59.0966 4.76064 60.0165 4.92571C61.2613 5.14917 61.8938 5.32839 62.4684 5.61473C62.9154 5.83738 63.3446 6.10591 63.8892 6.63277C64.7574 7.47264 64.8358 7.56597 65.3101 8.65642C65.5793 9.27527 65.825 10.7341 65.7879 11.5863C65.6874 13.8955 65.3101 14.988 64.0779 16.5274C63.51 17.2369 62.7449 17.7007 61.9906 18.042C61.3871 18.3151 60.2806 18.638 58.9729 18.6131C56.8555 18.573 55.5025 18.1911 54.0439 16.8005Z" fill="white"/>
<path d="M56.7393 8.10453C56.0709 7.82763 55.2524 8.27021 54.9111 9.09306C54.5699 9.91591 54.8351 10.8074 55.5036 11.0843C56.172 11.3613 56.9905 10.9187 57.3317 10.0958C57.673 9.27296 57.4078 8.38143 56.7393 8.10453Z" fill="#FED041"/>
<path d="M60.2417 8.90568C61.0833 9.10319 61.9069 8.66144 62.0814 7.91901C62.2558 7.17658 61.715 6.4146 60.8734 6.21709C60.0318 6.01958 59.2082 6.46133 59.0338 7.20376C58.8593 7.94619 59.4002 8.70816 60.2417 8.90568Z" fill="#FED041"/>
<path d="M57.0091 14.942C57.5325 15.6078 58.4501 15.7601 59.0585 15.2823C59.6669 14.8045 59.7358 13.8774 59.2123 13.2116C58.6888 12.5458 57.7712 12.3934 57.1628 12.8712C56.5544 13.3491 56.4856 14.2762 57.0091 14.942Z" fill="#FED041"/>
<path d="M61.1143 12.5493C61.2846 13.3716 62.0284 13.9129 62.7757 13.7583C63.523 13.6037 63.9907 12.8117 63.8204 11.9894C63.65 11.167 62.9062 10.6257 62.1589 10.7803C61.4116 10.9349 60.9439 11.7269 61.1143 12.5493Z" fill="#FED041"/>
<path d="M54.6693 12.2005C54.1255 12.1449 53.6341 12.5942 53.5717 13.204C53.5094 13.8138 53.8998 14.3531 54.4437 14.4086C54.9876 14.4642 55.479 14.0148 55.5413 13.4051C55.6036 12.7953 55.2132 12.256 54.6693 12.2005Z" fill="#FED041"/>
<path d="M61.8021 14.9489C61.2918 14.7063 60.6543 14.98 60.3781 15.5602C60.1019 16.1405 60.2916 16.8076 60.8019 17.0502C61.3122 17.2928 61.9497 17.0191 62.2259 16.4389C62.5021 15.8586 62.3124 15.1916 61.8021 14.9489Z" fill="#FED041"/>
<path d="M64.9568 8.71957C64.6323 8.12372 64.0226 7.82927 63.5951 8.06188C63.1675 8.2945 63.084 8.9661 63.4085 9.56194C63.733 10.1578 64.3427 10.4522 64.7703 10.2196C65.1978 9.98701 65.2814 9.31541 64.9568 8.71957Z" fill="#FED041"/>
<path d="M63.9701 15.7847C63.7503 15.6304 63.3703 15.7927 63.1213 16.1471C62.8724 16.5014 62.8487 16.9137 63.0686 17.068C63.2884 17.2222 63.6684 17.06 63.9173 16.7056C64.1662 16.3512 64.1899 15.9389 63.9701 15.7847Z" fill="#FED041"/>
<path d="M57.3841 16.6997C56.9376 16.4435 56.4233 16.501 56.2354 16.8281C56.0475 17.1553 56.2571 17.6282 56.7035 17.8844C57.15 18.1406 57.6643 18.0831 57.8522 17.756C58.0402 17.4288 57.8306 16.9559 57.3841 16.6997Z" fill="#FED041"/>
<path d="M54.9867 15.5679C54.7695 15.2156 54.4121 15.0417 54.1882 15.1795C53.9644 15.3173 53.959 15.7146 54.1762 16.0669C54.3933 16.4192 54.7508 16.5931 54.9746 16.4553C55.1984 16.3175 55.2038 15.9202 54.9867 15.5679Z" fill="#FED041"/>
<path d="M60 18.2203C60.5523 18.2203 61 17.9965 61 17.7203C61 17.4442 60.5523 17.2203 60 17.2203C59.4477 17.2203 59 17.4442 59 17.7203C59 17.9965 59.4477 18.2203 60 18.2203Z" fill="#FED041"/>
<path d="M65.5794 12.8916C65.2796 12.7561 64.8433 13.0734 64.605 13.6003C64.3666 14.1272 64.4164 14.6642 64.7162 14.7997C65.016 14.9352 65.4523 14.6179 65.6907 14.0909C65.929 13.564 65.8792 13.027 65.5794 12.8916Z" fill="#FED041"/>
<path d="M65.7153 10.3312C65.464 10.3608 65.3019 10.7374 65.3532 11.1725C65.4044 11.6075 65.6497 11.9362 65.901 11.9066C66.1523 11.877 66.3144 11.5004 66.2631 11.0653C66.2118 10.6303 65.9666 10.3016 65.7153 10.3312Z" fill="#FED041"/>
<path d="M53.0609 8.63146C52.9288 8.90305 53.0187 9.16316 53.2611 9.21227C53.5035 9.26142 53.8072 9.08093 53.939 8.8092C54.0712 8.53761 53.9813 8.27755 53.7389 8.2284C53.4965 8.17929 53.1928 8.35969 53.0609 8.63146Z" fill="#FED041"/>
<path d="M62.4976 5.6668C62.5977 5.46386 62.3307 5.12767 61.9012 4.91589C61.4717 4.70411 61.0423 4.69695 60.9421 4.89989C60.8419 5.10284 61.1089 5.43903 61.5385 5.6508C61.968 5.86258 62.3974 5.86975 62.4976 5.6668Z" fill="#FED041"/>
<path d="M64.7989 7.55951C64.5775 7.29809 64.2642 7.15826 64.0992 7.24704C63.9341 7.3359 63.9798 7.61996 64.2013 7.8813C64.4224 8.14264 64.7358 8.28232 64.9008 8.19369C65.0659 8.10491 65.0203 7.82101 64.7989 7.55951Z" fill="#FED041"/>
<path d="M59.5 11.2203C60.3284 11.2203 61 10.7726 61 10.2203C61 9.66805 60.3284 9.22034 59.5 9.22034C58.6716 9.22034 58 9.66805 58 10.2203C58 10.7726 58.6716 11.2203 59.5 11.2203Z" fill="#FED041"/>
<path d="M52.0066 11.1619C51.9621 11.7131 52.1471 12.1863 52.4197 12.2186C52.6921 12.251 52.9493 11.8301 52.9934 11.2787C53.038 10.7276 52.8528 10.2545 52.5804 10.2221C52.3079 10.1896 52.0508 10.6105 52.0066 11.1619Z" fill="#FED041"/>
<path d="M56.9202 5.15586C56.2698 5.34047 55.8489 5.86423 55.98 6.32571C56.1111 6.78718 56.7447 7.01163 57.3951 6.82702C58.0455 6.64241 58.4665 6.11865 58.3353 5.65717C58.2042 5.1957 57.5706 4.97125 56.9202 5.15586Z" fill="#FED041"/>
<path d="M55.1514 6.03693C55.0388 5.91575 54.7536 5.99757 54.5142 6.21967C54.2749 6.44178 54.1721 6.72007 54.2847 6.84124C54.3973 6.96242 54.6825 6.8806 54.9219 6.6585C55.1612 6.43639 55.264 6.15811 55.1514 6.03693Z" fill="#FED041"/>
<path d="M59 5.22034C59.5523 5.22034 60 4.99648 60 4.72034C60 4.44419 59.5523 4.22034 59 4.22034C58.4477 4.22034 58 4.44419 58 4.72034C58 4.99648 58.4477 5.22034 59 5.22034Z" fill="#FED041"/>
<path d="M58 6.22034L58.1101 6.25485L58.4672 6.37104L58.8503 6.52333L59.307 6.73522L59.7165 6.96128L60 7.14498L59.8977 7.22034L59.5907 7.03037L59.3176 6.87341L58.8818 6.65987L58.4093 6.46681L58.0708 6.34904L58 6.22034Z" fill="#FED041"/>
<path d="M55.6045 7.22034L55.3025 7.41901L55.0465 7.70044L55 7.95872V8.22034L55.349 8.21038L55.4185 7.76005L55.558 7.5415L55.837 7.31634L56 7.24349L55.6045 7.22034Z" fill="#FED041"/>
<path d="M64.8161 9.22831L64.6324 9.56815L64.4162 9.83692L64.1784 10.0978L63.8541 10.4298L63.6595 10.5958L63.4001 10.8251L63 11.1097L63.1297 11.2203L63.7135 10.7381L64.1891 10.2954L64.5567 9.88435L64.8378 9.52072L65 9.22034L64.8161 9.22831Z" fill="#FED041"/>
<path d="M64.0577 12.2203L64.3398 12.4981L64.6218 12.7851L64.8462 12.9981L65 13.137L64.9872 13.2203L64.8205 13.0537L64.5192 12.7851L64.2757 12.5351L64.109 12.3777L64 12.2666L64.0577 12.2203Z" fill="#FED041"/>
<path d="M61.9588 13.2203L61.4295 13.5211L60.9691 13.7542L60.5773 13.9195L60.2337 14.0549L60 14.1376L60.0206 14.2203L60.2955 14.1225L60.6186 13.9872L60.9004 13.8744L61.244 13.7091L61.4777 13.5963L61.7457 13.4459L61.9381 13.3407L62 13.288L61.9588 13.2203Z" fill="#FED041"/>
<path d="M59 15.2703L59.34 15.4981L59.63 15.6481L59.91 15.8148L60.21 15.9537L60.5001 16.0759L60.8001 16.187L60.96 16.2203L61 16.1703L60.85 16.1481L60.6501 16.0704L60.3801 15.9593L60.05 15.8204L59.77 15.6759L59.4699 15.4981L59.21 15.3259L59.06 15.2203L59 15.2703Z" fill="#FED041"/>
<path d="M54 12.2203L54.0347 11.7515L54.1388 11.2945L54.2638 10.779L54.4583 10.2282L54.618 9.86494L54.7917 9.47824L54.9513 9.22034L55 9.30246L54.7083 9.85313L54.5903 10.1695L54.4444 10.5446L54.3055 10.9548L54.2153 11.2945L54.1388 11.646L54.1111 11.9156V12.1734L54 12.2203Z" fill="#FED041"/>
<path d="M56.0895 10.2203L56.2114 10.5318L56.3902 10.9539L56.5691 11.3552L56.7317 11.6598L56.8861 11.9643L57 12.1649L56.9349 12.2203L56.7154 11.8259L56.439 11.2792L56.2439 10.8639L56.1058 10.5179L56 10.248L56.0895 10.2203Z" fill="#FED041"/>
<path d="M54.0796 8.22034L54.6705 8.70126L54.9887 8.95111L55 9.22034L54.4659 8.83572L54 8.48957L54.0796 8.22034Z" fill="#FED041"/>
</svg>
