<svg width="168" height="46" viewBox="0 0 168 46" fill="none" xmlns="http://www.w3.org/2000/svg">
<path fill-rule="evenodd" clip-rule="evenodd" d="M21.2179 29.0045C21.2179 34.6223 18.3594 40.3111 12.898 40.3111C9.76069 40.3111 6.4374 37.2178 4.50851 34.089C4.46203 33.0223 4.46203 23.8135 4.50851 22.6401C6.22825 19.9379 8.73814 16.9157 12.9678 16.9157C16.965 16.9157 21.2179 20.0802 21.2179 29.0045ZM13.1769 11.298C9.08673 11.298 6.786 13.2891 4.53175 15.8135V2.33804C4.53175 1.0936 3.85779 0.0625 3.0444 0.0625H0.395075V38.32L0 44.9689H1.83594H2.44017C3.53244 44.9689 3.78808 43.8311 3.92751 42.8L4.27611 40.7734C6.76276 43.8311 8.99377 45.9289 13.572 45.9289C22.2404 45.9289 25.3778 35.7245 25.3778 28.8979C25.3545 22.3201 22.7982 11.298 13.1769 11.298Z" fill="white"/>
<path fill-rule="evenodd" clip-rule="evenodd" d="M31.7688 24.6313C32.7913 19.5114 35.3942 16.8091 39.2752 16.8091C44.9224 16.8091 46.5492 22.2847 46.9908 24.6313H31.7688ZM38.9963 11.1914C32.2568 11.1914 27.3532 18.4091 27.3532 28.3646C27.3532 38.4979 32.4195 45.8223 39.3914 45.8223C46.1309 45.8223 48.4316 42.0534 50.4535 38.7468L51.2204 37.5024L47.8971 33.8402L47.5021 34.6224C46.2704 36.969 44.5739 40.2046 39.6935 40.2046C34.7434 40.2046 32.0709 35.2624 31.5596 30.2491H51.5225L51.5458 29.0046C51.5458 23.8135 50.5465 19.618 48.5478 16.5247C46.3401 13.0758 42.9471 11.1914 38.9963 11.1914Z" fill="white"/>
<path fill-rule="evenodd" clip-rule="evenodd" d="M64.072 40.3822C60.9811 40.3822 60.3768 38.7822 60.3768 36.0445V17.9112H68.4875V14.569C68.4875 13.3246 67.8136 12.2935 67.0002 12.2935H60.3536V4.18689C60.3536 2.94245 59.6797 1.9469 58.8663 1.9469H56.2169V12.3291H51.8943V17.9468H56.2402V36.5422C56.2402 39.1378 56.2402 46 63.398 46C64.7227 46 66.3262 45.6444 68.627 45.1111L69.0453 45.0044V39.28L68.1854 39.5289C66.6051 40.0267 65.4663 40.3822 64.072 40.3822Z" fill="white"/>
<path fill-rule="evenodd" clip-rule="evenodd" d="M82.6405 25.2356C79.1778 24.5956 76.1798 24.0623 76.1798 21.1823C76.1798 17.4134 79.5496 16.8445 81.5482 16.8445C85.0109 16.8445 87.6602 18.6223 89.4729 22.1778L89.7983 22.8178L92.6568 18.8356L92.4012 18.3023C91.5878 16.5601 89.1244 11.2268 81.5947 11.2268C76.9932 11.2268 72.0664 13.929 72.0664 21.4667C72.0664 29.1823 77.4348 30.1778 82.1757 31.0667C85.8476 31.7422 89.0314 32.3467 89.0314 35.6889C89.0314 39.0666 85.8475 40.24 83.1285 40.24C79.4101 40.24 76.4355 38.1422 74.2742 33.9467L73.9488 33.3067L70.8812 37.6089L71.1833 38.1777C74.1115 43.4044 77.8298 45.8577 82.8729 45.8577C89.4265 45.8577 93.1913 42.0177 93.1913 35.3333C93.1681 27.1556 87.5673 26.1245 82.6405 25.2356Z" fill="white"/>
<path fill-rule="evenodd" clip-rule="evenodd" d="M106.903 25.2356C103.44 24.5956 100.442 24.0623 100.442 21.1823C100.442 17.4134 103.812 16.8445 105.81 16.8445C109.273 16.8445 111.923 18.6223 113.735 22.1778L114.061 22.8178L116.919 18.8356L116.663 18.3023C115.85 16.5601 113.387 11.2268 105.857 11.2268C101.255 11.2268 96.3287 13.929 96.3287 21.4667C96.3287 29.1823 101.697 30.1778 106.438 31.0667C110.11 31.7422 113.294 32.3467 113.294 35.6889C113.294 39.0666 110.11 40.24 107.391 40.24C103.672 40.24 100.698 38.1422 98.5364 33.9467L98.2111 33.3067L95.1434 37.6089L95.4455 38.1777C98.3738 43.4044 102.092 45.8577 107.135 45.8577C113.689 45.8577 117.454 42.0177 117.454 35.3333C117.407 27.1556 111.83 26.1245 106.903 25.2356Z" fill="white"/>
<path fill-rule="evenodd" clip-rule="evenodd" d="M139.787 28.6134C139.787 35.7956 136.696 40.2755 131.7 40.2755C126.75 40.2755 123.566 35.6889 123.566 28.6134C123.566 22.9601 126.122 16.8801 131.7 16.8801C137.277 16.8801 139.787 22.7468 139.787 28.6134ZM131.7 11.2624C124.588 11.2624 119.429 18.3023 119.429 28.009C119.429 39.0311 124.123 45.8933 131.7 45.8933C139.252 45.8933 143.924 39.0311 143.924 28.009C143.924 18.3023 138.788 11.2624 131.7 11.2624Z" fill="white"/>
<path fill-rule="evenodd" clip-rule="evenodd" d="M159.076 11.2624C156.241 11.2624 153.591 12.7913 150.989 15.9201V14.4624C150.989 13.2179 150.315 12.1868 149.501 12.1868H146.852V44.8977H150.989V22.6757C152.383 20.4357 155.195 16.8446 158.704 16.8446C160.494 16.8446 161.818 17.5201 162.678 18.8712C163.491 20.1512 163.887 22.0357 163.863 24.5245V44.9333H168V23.6001C167.977 12.8624 162.399 11.2624 159.076 11.2624Z" fill="white"/>
</svg>
