<svg width="131" height="50" viewBox="0 0 131 50" fill="none" xmlns="http://www.w3.org/2000/svg">
<g clip-path="url(#clip0_71_25)">
<path d="M7.43691 10.3983C8.02867 10.1614 8.63183 9.98017 9.24208 9.85593C9.96838 9.71172 10.7018 9.64372 11.4359 9.65254C12.8238 9.62146 14.2004 9.99429 15.4724 10.7458C16.6188 11.428 17.6413 12.4403 18.4685 13.7119C19.2973 15.0357 19.9246 16.5679 20.3144 18.2203C20.7412 19.9989 20.9529 21.859 20.9412 23.7288C20.9784 26.0437 20.6825 28.3462 20.07 30.5085C19.5416 32.3252 18.7042 33.9482 17.6255 35.2458C16.5442 36.5161 15.278 37.4658 13.9086 38.0339C12.3857 38.6641 10.8002 38.9742 9.20761 38.9534C7.50896 38.9765 5.8132 38.7549 4.14938 38.2924C2.73843 37.8856 1.35156 37.3389 0 36.6568V0H7.43691V10.3983ZM7.43691 31.1991C8.07311 31.4411 8.73171 31.5581 9.39251 31.5466C10.5745 31.5988 11.7121 30.9354 12.4951 29.7373C13.2891 28.5283 13.685 26.6794 13.6829 24.1907C13.6829 21.7754 13.2933 19.9944 12.5139 18.8475C11.7647 17.7147 10.6853 17.0842 9.56175 17.1229C9.19028 17.1188 8.81953 17.1671 8.45545 17.2669C8.11072 17.3635 7.77059 17.488 7.43691 17.6398V31.1991Z" fill="white"/>
<path d="M29.0676 26.1991C29.124 27.894 29.5283 29.2062 30.2804 30.1356C31.0634 31.0939 32.0926 31.6003 33.148 31.5466C33.9774 31.5761 34.8 31.3394 35.5486 30.8559C36.2686 30.3339 36.8987 29.6119 37.3977 28.7373L41.9451 33.5635C41.4819 34.3454 40.9564 35.056 40.3781 35.6822C39.0422 37.1231 37.466 38.1007 35.7868 38.5296C34.7011 38.8073 33.5979 38.9407 32.493 38.9279C31.0833 38.9429 29.6821 38.6319 28.3499 38.0085C25.7628 36.827 23.6894 34.1707 22.6774 30.7415C22.0825 28.7211 21.7936 26.5597 21.8281 24.3856C21.8003 22.2571 22.0747 20.1411 22.6367 18.1525C23.1247 16.4225 23.8716 14.8473 24.8305 13.5254C25.7841 12.2362 26.9367 11.248 28.2057 10.6313C29.5464 9.96655 30.9648 9.63494 32.3927 9.65252C35.4807 9.65252 37.9377 11.0028 39.7638 13.7034C41.59 16.4039 42.5175 20.569 42.5468 26.1991H29.0676ZM35.5706 20.8559C35.5422 19.5603 35.1898 18.316 34.5708 17.3262C34.0457 16.4958 33.2761 16.0212 32.4679 16.0296C31.6175 16.0333 30.8076 16.5209 30.2366 17.3729C29.5749 18.3319 29.1766 19.5688 29.1083 20.8771L35.5706 20.8559Z" fill="white"/>
<path d="M42.3682 17.2966V10.2882H45.3016V3.21613H52.7385V10.2882H55.8912L57.7278 17.2966H52.7385V28.5551C52.7164 29.315 52.795 30.0741 52.9704 30.7966C53.1271 31.3348 53.475 31.6017 54.014 31.6017C54.5192 31.6007 55.0175 31.4442 55.4713 31.1441C55.914 30.8577 56.334 30.5113 56.7249 30.1102L58.6366 36.1992C57.7069 37.0771 56.6825 37.756 55.5998 38.2119C54.3642 38.697 53.0816 38.9284 51.7952 38.8983C50.7469 38.9361 49.7025 38.712 48.7145 38.2373C47.9382 37.8505 47.2449 37.2099 46.6962 36.3729C46.1698 35.5239 45.7983 34.5195 45.6118 33.4407C45.393 32.18 45.2877 30.8881 45.2984 29.5932V17.3051L42.3682 17.2966Z" fill="white"/>
<path d="M64.4 38.3263L55.2112 3.20337H62.4005L67.7283 25.1695L70.9155 10.2881H75.7481L78.9353 25.1695L81.9941 10.2881H89.6002L82.248 38.3263H76.5535L73.2817 23.6144L70.0537 38.3263H64.4Z" fill="white"/>
<path d="M101.265 38.3263L100.669 36.1398C99.9993 36.9538 99.2208 37.5879 98.3753 38.0085C97.3028 38.5514 96.1639 38.8146 95.0189 38.7839C94.1084 38.7954 93.2029 38.6021 92.3393 38.2118C91.5465 37.8512 90.8169 37.2743 90.1957 36.5169C89.5865 35.7729 89.1005 34.8632 88.7697 33.8474C88.4175 32.7209 88.2445 31.5067 88.262 30.2839C88.2008 27.8546 88.9964 25.5305 90.4057 24.0212C91.1056 23.2686 91.888 22.6682 92.7248 22.2415C93.6278 21.7707 94.5679 21.4423 95.5266 21.2627C96.4354 21.072 97.2753 20.9279 98.0557 20.839C98.836 20.75 99.5506 20.6737 100.202 20.6356V19.9407C100.202 18.7881 99.9329 17.9491 99.3939 17.3983C98.8389 16.8545 98.1674 16.5717 97.4822 16.5932C96.6863 16.5871 95.8981 16.802 95.1662 17.2246C94.4176 17.6788 93.716 18.2628 93.0789 18.9618L89.7475 13.983C90.8754 12.6479 92.1617 11.5793 93.5522 10.822C95.1614 10.0087 96.871 9.61892 98.5884 9.67371C101.305 9.67371 103.471 10.5649 105.088 12.3474C106.705 14.1299 107.513 16.897 107.511 20.6483V38.3263H101.265ZM100.202 25.6144C99.7762 25.6525 99.3531 25.6991 98.9269 25.7585C98.5007 25.8178 98.0619 25.9025 97.6106 26.0169C96.7331 26.2076 96.1063 26.6186 95.7303 27.25C95.3689 27.8473 95.1737 28.5969 95.1787 29.3686C95.1631 30.1218 95.3921 30.8464 95.8055 31.3517C96.2831 31.9016 96.8999 32.1796 97.526 32.1271C98.0254 32.1359 98.5216 32.0195 98.9896 31.7839C99.4242 31.5569 99.8325 31.2473 100.202 30.8644V25.6144Z" fill="white"/>
<path d="M109.413 41.428C109.86 41.7606 110.33 42.0304 110.817 42.2331C111.297 42.4488 111.798 42.5645 112.303 42.5763C112.756 42.5977 113.204 42.4511 113.6 42.1526C113.978 41.799 114.267 41.2978 114.428 40.7161L115.618 37.0975L106.821 10.2881H114.895L119.091 26.661L123.256 10.2881H130.903L120.536 43.4958C119.8 45.8291 118.802 47.476 117.54 48.4365C116.176 49.4276 114.646 49.9226 113.099 49.8729C112.097 49.8848 111.099 49.7311 110.125 49.4153C109.236 49.1151 108.369 48.711 107.533 48.2076L109.413 41.428Z" fill="white"/>
</g>
<defs>
<clipPath id="clip0_71_25">
<rect width="131" height="50" fill="white"/>
</clipPath>
</defs>
</svg>
