<svg xmlns="http://www.w3.org/2000/svg" width="137" height="14" fill="none"><path fill="#FFCE06" fill-rule="evenodd" d="M13.54 6.8c.6.27 1.07.63 1.4 1.09.32.46.48 1.01.48 1.65 0 1.48-.6 2.6-1.83 3.34A8.9 8.9 0 0 1 8.9 14H.8L3.6 0h7.42c1.64 0 2.89.29 3.74.87.86.58 1.28 1.4 1.28 2.47 0 .79-.22 1.48-.66 2.07a4.33 4.33 0 0 1-1.84 1.39ZM7.58 3.3l-.42 2.08h2.4c1.04 0 1.56-.4 1.56-1.22 0-.28-.1-.5-.32-.64a1.62 1.62 0 0 0-.92-.22h-2.3Zm1.56 7.4c.48 0 .87-.11 1.16-.33.3-.22.44-.54.44-.95a.8.8 0 0 0-.33-.68c-.22-.16-.5-.24-.83-.24H6.54l-.44 2.2h3.04Zm13.84-7.14-.32 1.64h5.92l-.68 3.4h-5.94l-.36 1.84h7.02L27.9 14H16.26l2.8-14h11.38l-.72 3.56h-6.74Zm11.84.1h-4.1L31.46 0h12.92l-.74 3.66h-4.1L37.48 14h-4.72l2.06-10.34Z" clip-rule="evenodd"/><path fill="#fff" fill-rule="evenodd" d="M70.09 0 62.8 14h-5.06l-.8-7.38L53.1 14h-5.06L46.37 0h4.66l.9 7.98L56.09 0h4.34l.8 8.1L65.45 0h4.64Zm1.34 0h4.72l-2.8 14h-4.72l2.8-14Zm20.8 0-2.8 14h-3.88l-4.02-6.52-1.3 6.52h-4.6l2.8-14h3.88l4.02 6.52L87.63 0h4.6Zm16.08 0-2.8 14h-3.88L97.6 7.48 96.3 14h-4.6l2.8-14h3.88l4.02 6.52L103.7 0h4.6Zm6.2 3.56-.32 1.64h5.92l-.68 3.4h-5.94l-.36 1.84h7.02l-.72 3.56h-11.64l2.8-14h11.38l-.72 3.56h-6.74Zm21.64 1.04a5.46 5.46 0 0 1-3.78 5.32L134.7 14h-4.9l-1.98-3.52h-1.16l-.7 3.52h-4.72l2.8-14h6.28c1.84 0 3.27.4 4.29 1.21a4.08 4.08 0 0 1 1.53 3.39Zm-4.78.46c0-.95-.6-1.42-1.76-1.42h-1.58l-.66 3.28h1.94c.65 0 1.16-.16 1.52-.49.36-.33.54-.78.54-1.37Z" clip-rule="evenodd"/></svg>