<svg width="151" height="51" viewBox="0 0 151 51" fill="none" xmlns="http://www.w3.org/2000/svg">
<path d="M99.4825 17.1047L91.4962 49.5709H104.454L112.76 15.7447L99.4825 17.1047Z" fill="white"/>
<path d="M142.197 15.6784C138.335 15.2997 132.309 16.4897 129.331 18.7597C129.262 17.5184 129.035 16.5422 128.77 15.5422L117.301 16.9472C117.758 20.1509 117.307 23.7047 116.181 28.4872L111.042 49.5709H124L129.304 28.0584C130.602 26.1934 132.666 24.9447 134.411 24.9447C136.57 24.9447 137.096 26.5272 136.427 29.1209L131.447 49.5709H144.406L149.966 27.3609C151.292 21.3409 149.339 16.3797 142.197 15.6784Z" fill="white"/>
<path d="M114.886 6.57969C114.886 3.09719 111.845 0.259691 107.956 0.259691C103.995 0.259691 100.742 3.09719 100.742 6.57969C100.742 10.0609 103.925 12.9009 107.744 12.9009C111.702 12.9009 114.886 10.0609 114.886 6.57969Z" fill="white"/>
<path d="M83.8112 16.0947L79.7149 25.5672C78.1999 29.1259 76.87 32.4772 75.7037 35.7647L75.5449 16.0947H63.8512L54.1649 35.9297L55.2125 15.6409L42.33 17.2472L44.9362 49.5709H56.3299C56.3299 49.5709 64.9737 32.1309 65.7474 30.1122L65.8637 49.5709H77.5537L96.845 16.0947H83.8112Z" fill="white"/>
<path d="M28.3799 15.2509C25.0149 15.2509 22.4962 16.1334 21.0137 16.9597C23.1324 10.3897 23.6049 4.32468 23.6049 4.32468L23.6037 4.32592C23.6949 3.34092 23.7162 2.16967 23.6899 1.39717L10.1099 3.04842C10.2637 5.22717 9.94368 8.67217 8.19743 16.0309L1.64366 43.1484C1.34616 44.4459 0.602415 46.9109 0.00616455 47.8197C4.10241 49.1822 8.79368 50.4147 16.5387 50.4147C20.7837 50.4147 24.1349 49.6347 27.5612 47.6234C33.4437 44.1859 37.0762 37.9959 38.5787 31.9897C41.3899 20.7622 36.7949 15.2509 28.3799 15.2509ZM24.9537 32.5734C23.4649 38.8009 21.5274 41.5909 18.2512 41.5909C16.9112 41.5909 15.7937 41.2659 15.1987 40.8122L18.7724 25.9559C19.4437 25.3722 20.6349 24.3334 22.5712 24.3334C25.4749 24.3334 26.5174 25.9559 24.9537 32.5734Z" fill="white"/>
</svg>
