<svg width="128" height="41" viewBox="0 0 128 41" fill="none" xmlns="http://www.w3.org/2000/svg">
<g clip-path="url(#clip0_71_23)">
<path fill-rule="evenodd" clip-rule="evenodd" d="M44.6931 29.7213C44.6931 30.258 44.4441 30.3996 44.4441 31.4041C44.4441 32.91 45.1671 34.5052 47.4936 34.5052C48.9987 34.5052 50.1802 33.5771 50.1802 31.9092C50.1802 29.656 48.4445 28.8901 46.7228 27.6116C45.0236 26.35 43.3386 24.5925 43.3386 20.4217C43.3386 15.5744 46.6581 12.656 51.2647 12.6541C53.1509 12.6541 54.4577 13.0734 55.8896 14.2755C56.8714 11.4614 59.3104 9.45609 62.0687 9.45609C66.3392 9.45609 68.2085 13.0361 68.2085 16.003C68.2085 20.1962 64.775 27.278 64.775 31.1078C64.775 31.9781 65.2983 32.4552 65.83 32.4571C68.9709 32.4571 72.3566 21.6722 72.5352 14.0201C72.5386 13.7385 72.6121 13.4663 72.7444 13.2459C72.8767 13.0254 73.0603 12.8691 73.2666 12.8013C73.5522 12.7044 73.9137 12.6522 74.3356 12.6522C76.0911 12.6522 77.9604 13.9251 77.9407 17.2629C77.9056 23.247 74.7239 28.59 74.7239 31.4973C74.7239 32.2521 75.2288 33.0628 76.2064 33.0628C79.495 33.0628 82.0368 22.9022 82.0368 14.9016C82.0368 14.0723 82.688 13.4182 84.2029 13.4182C86.2003 13.4182 87.5844 14.9464 87.4634 18.983C87.6266 18.6606 90.2344 12.6541 94.2263 12.6541C96.8355 12.6541 97.9355 14.8178 97.9355 17.5853C97.9355 17.5853 99.629 12.6541 104.129 12.6541C106.737 12.6541 108.163 14.732 108.164 18.1239C108.164 23.4539 104.496 29.2535 104.496 31.8905C104.496 32.7553 104.946 33.0777 105.475 33.0777C106.827 33.0777 108.794 31.447 109.498 28.9274C110.036 26.9929 111.672 21.4262 115.006 21.4262C116.148 21.4262 116.414 22.0543 116.414 22.6674C116.414 23.9682 115.365 24.3503 115.365 28.9907C115.365 32.485 116.183 33.9983 117.486 33.9983C119.309 33.9983 122.075 28.9497 122.075 22.673C122.075 19.9838 120.915 17.4455 117.996 17.4455C115.822 17.4455 115.275 18.3251 114.395 18.3251C114.106 18.3251 113.509 18.0642 113.509 17.1566C113.509 15.3526 116.912 12.6541 120.784 12.6541C126.447 12.6541 128 19.2439 128 23.0215C128 32.6379 121.87 40.2788 116.574 40.2788C113.183 40.2788 111.42 38.1542 110.512 35.7874L110.509 35.793C108.934 38.0387 106.097 40.2788 102.891 40.2788C99.9582 40.2788 98.2871 38.5158 98.2871 35.014C98.2871 30.5413 101.809 23.4017 101.809 21.2473C101.809 20.7087 101.726 20.4404 101.359 20.4404C98.2956 20.4404 94.3402 31.1805 93.7452 38.2008C93.7171 38.5288 93.4822 40.2788 91.8632 40.2788C90.029 40.2788 88.2412 38.7841 88.2412 35.4985C88.2412 30.9736 91.9054 23.3476 91.904 21.2455C91.904 20.7609 91.7816 20.4404 91.3751 20.4404C89.5845 20.4404 87.6083 24.2161 86.1651 28.754C85.1749 31.8663 84.442 35.3364 84.1776 38.1934C84.1255 38.7655 83.7894 40.2806 82.2885 40.2806C80.4515 40.2806 79.3769 38.963 78.8382 37.31C77.5005 38.8345 75.8421 40.2788 74.0276 40.2788C70.6841 40.2788 69.4843 38.1785 69.3605 35.916C69.3605 35.916 67.5362 40.2788 63.1349 40.2788C60.9814 40.2788 58.9039 37.9362 58.9039 32.9826C58.9039 27.4178 61.3218 23.2824 62.2221 18.2245C62.4921 16.5249 61.4428 15.5539 60.2641 15.5539C58.7562 15.5539 58.0121 16.9386 58.0121 19.1861C58.0121 21.5977 56.9909 23.5135 54.5744 23.5135C54.4581 23.5145 54.3429 23.4849 54.2353 23.4265C54.1277 23.368 54.0299 23.2819 53.9476 23.173C53.8654 23.0642 53.8002 22.9348 53.7559 22.7923C53.7116 22.6499 53.6891 22.4972 53.6897 22.3431C53.6897 22.0319 53.767 21.7095 53.767 20.9081C53.767 18.914 52.5475 17.781 51.0368 17.781C49.6513 17.781 49.0001 18.6997 49.0001 20.1012C49.0001 22.4922 50.8596 23.316 52.6811 24.5143C54.4295 25.6641 56.1414 27.1569 56.1414 30.7071C56.1414 36.8478 52.0721 40.2788 47.021 40.2788C44.4469 40.2788 42.5691 39.5296 41.4945 37.8821C40.2423 39.4451 38.5815 40.3042 36.8612 40.2788C33.152 40.2788 33.0198 36.0297 33.0198 36.0297C33.0198 36.0297 31.2756 40.2788 26.0178 40.2788C21.7122 40.2788 20.7937 35.7818 20.7937 35.7818C18.6416 38.3089 15.412 40.2788 10.9827 40.2788C3.74154 40.2788 0 34.4046 0 25.3827C0 15.7533 6.28747 0 16.1378 0C21.4238 0 24.1329 4.11864 24.1329 8.71995C24.1329 12.9523 21.6236 17.5778 17.4333 17.5778C15.2151 17.5778 14.6061 16.5696 14.6061 15.8633C14.6061 14.5326 17.1393 13.7108 17.1393 9.96486C17.1393 8.01736 16.2082 6.62895 14.9085 6.62895C11.2851 6.62895 6.44923 16.2919 6.44923 24.0912C6.44923 30.409 8.62664 33.7821 12.8436 33.7821C15.3825 33.7821 18.9651 31.3035 19.8794 27.7458C21.2719 22.3189 24.5732 12.6504 33.6626 12.6504C38.2171 12.6504 39.8094 16.0552 39.8094 17.6039C39.8094 18.0325 39.5604 18.7724 38.9233 18.7724C38.2917 18.7724 37.3858 17.7455 34.7035 17.7455C28.5229 17.7455 25.8279 24.3894 25.8279 29.1976C25.8279 32.0117 26.6071 33.3703 27.897 33.3703C30.5189 33.3703 30.9113 30.2878 31.9564 25.8132C32.5345 23.3365 33.8834 21.4281 36.0257 21.4281C38.1496 21.4281 38.1356 22.6674 38.1327 22.865C38.1299 23.1967 38.0244 23.6309 37.7713 24.3074C37.0215 26.3127 36.6769 29.0895 36.6769 30.3251C36.6769 31.5141 37.03 33.3367 38.6222 33.3367C40.7884 33.3367 40.8207 28.5509 43.8069 28.5509C44.4216 28.5509 44.6931 29.2237 44.6931 29.7213Z" fill="white"/>
</g>
<defs>
<clipPath id="clip0_71_23">
<rect width="128" height="41" fill="white"/>
</clipPath>
</defs>
</svg>
