<svg width="128" height="44" viewBox="0 0 128 44" fill="none" xmlns="http://www.w3.org/2000/svg">
<g clip-path="url(#clip0_71_14)">
<path d="M15.2301 32.9255C14.1436 35.4437 12.7493 36.7231 11.0798 36.7231C7.84358 36.7231 5.40473 33.0271 5.40473 28.1194C5.40473 23.848 7.27 19.5089 10.8653 19.5089C13.6632 19.5089 14.6752 22.1083 15.2254 23.496L15.314 23.7262H21.3155L21.1756 23.1237C20.4797 19.9514 19.1044 17.1843 17.25 15.2254C15.3955 13.2664 13.1588 12.2177 10.8653 12.232C8.0463 12.2643 5.34291 13.8631 3.31095 16.6997C2.25922 18.1603 1.42331 19.9164 0.854106 21.8611C0.284906 23.8057 -0.0056665 25.8982 8.37041e-05 28.0111C-0.0086191 32.2285 1.13433 36.2792 3.17864 39.2759C5.22295 42.2727 8.00202 43.9714 10.9073 44C15.6684 44 19.5109 40.0129 21.1663 33.3249L21.3202 32.7089H15.3233L15.2301 32.9255ZM33.7569 12.2388C31.5913 12.2254 29.4716 13.1453 27.6664 14.8822C25.8613 16.619 24.4518 19.0945 23.6167 21.9951C22.7815 24.8957 22.5582 28.0909 22.975 31.1758C23.3918 34.2608 24.4301 37.0968 25.9582 39.3245C27.4863 41.5522 29.4355 43.0715 31.5588 43.6897C33.6822 44.308 35.8843 43.9975 37.886 42.7975C39.8877 41.5976 41.599 39.5622 42.8032 36.9492C44.0073 34.3362 44.6501 31.2632 44.6502 28.1194C44.6582 26.0364 44.3822 23.9716 43.8382 22.0441C43.2942 20.1165 42.4928 18.3643 41.4803 16.8882C40.4678 15.4121 39.2641 14.2414 37.9386 13.4434C36.6131 12.6455 35.1919 12.2361 33.7569 12.2388ZM33.8036 36.4388C32.3615 36.378 30.9926 35.5038 29.9873 34.0016C28.9821 32.4995 28.4198 30.4878 28.4198 28.3935C28.4198 26.2993 28.9821 24.2876 29.9873 22.7854C30.9926 21.2833 32.3615 20.409 33.8036 20.3483C34.5449 20.3171 35.283 20.5021 35.9742 20.8924C36.6655 21.2826 37.2957 21.8702 37.8277 22.6204C38.3596 23.3705 38.7825 24.268 39.0713 25.2596C39.3601 26.2513 39.5089 27.3169 39.5089 28.3935C39.5089 29.4701 39.3601 30.5358 39.0713 31.5274C38.7825 32.5191 38.3596 33.4165 37.8277 34.1667C37.2957 34.9169 36.6655 35.5045 35.9742 35.8947C35.283 36.285 34.5449 36.47 33.8036 36.4388ZM62.8133 15.4542C61.1754 13.4164 59.0991 12.2721 56.9423 12.2185C51.0201 12.2185 46.4315 19.2991 46.4315 28.0991C46.4315 32.3019 47.5816 36.3326 49.6289 39.3044C51.6761 42.2763 54.4528 43.9458 57.348 43.9458C60.2433 43.9458 63.02 42.2763 65.0672 39.3044C67.1144 36.3326 68.2646 32.3019 68.2646 28.0991V0H62.8133V15.4745V15.4542ZM57.3247 36.4388C55.8637 36.4298 54.4648 35.5798 53.4349 34.0754C52.4051 32.5709 51.8284 30.5348 51.8315 28.4139C51.8346 26.293 52.4172 24.2605 53.4514 22.7623C54.4856 21.2642 55.887 20.4228 57.348 20.4228C58.8091 20.4228 60.2105 21.2642 61.2447 22.7623C62.2789 24.2605 62.8615 26.293 62.8646 28.4139C62.8677 30.5348 62.291 32.5709 61.2612 34.0754C60.2313 35.5798 58.8324 36.4298 57.3714 36.4388H57.3247ZM84.721 35.992C83.4127 36.8059 81.9578 36.9819 80.5747 36.4937C79.1916 36.0055 77.9549 34.8794 77.05 33.2843L92.4013 23.848L91.7904 21.7631C89.4075 13.5926 83.6345 9.68 77.6189 13.376C71.6034 17.072 69.0433 26.1022 71.4262 34.2726C73.8091 42.4431 80.4915 45.7803 86.5117 42.0978C89.2009 40.4844 91.4222 37.5685 92.7976 33.8462L88.335 30.536C88.0366 31.7678 87.5595 32.8924 86.9361 33.8336C86.3126 34.7748 85.5572 35.5109 84.721 35.992ZM79.4143 19.5495C80.4073 18.9188 81.5081 18.7364 82.5734 19.0261C83.6388 19.3159 84.6195 20.0644 85.3878 21.1742L75.7537 27.0769C75.8033 25.4451 76.1746 23.8683 76.8235 22.5339C77.4724 21.1996 78.3716 20.1637 79.4143 19.5495ZM123.537 30.5563C123.236 31.7802 122.759 32.8966 122.136 33.8305C121.514 34.7645 120.761 35.4945 119.928 35.9717C118.622 36.7893 117.169 36.9707 115.786 36.4887C114.403 36.0067 113.165 34.8871 112.257 33.2978L127.608 23.8615L126.998 21.7766C124.619 13.6197 118.846 9.70708 112.849 13.4031C106.853 17.0991 104.274 26.136 106.652 34.3065C109.03 42.4769 115.722 45.8142 121.737 42.1317C124.423 40.507 126.637 37.5782 128 33.8462L123.537 30.5563ZM114.621 19.5495C115.615 18.9191 116.717 18.737 117.783 19.0267C118.849 19.3164 119.83 20.0646 120.6 21.1742L110.984 27.0769C111.032 25.4492 111.4 23.8754 112.045 22.5416C112.689 21.2077 113.583 20.1695 114.621 19.5495ZM95.0733 26.1902V43.1742H100.469V27.1514C100.469 22.3385 102.362 20.0031 105.015 20.0031V12.9292C98.8598 12.9292 95.0733 18.9538 95.0733 26.1902Z" fill="white"/>
</g>
<defs>
<clipPath id="clip0_71_14">
<rect width="128" height="44" fill="white"/>
</clipPath>
</defs>
</svg>
