<svg xmlns="http://www.w3.org/2000/svg" width="114" height="23" fill="none"><path fill="#fff" d="M72.25 6.2a9 9 0 0 1 4.34 1.04 7.36 7.36 0 0 1 3.03 2.96 8.6 8.6 0 0 1 1.1 4.4 8.6 8.6 0 0 1-1.1 4.4 7.61 7.61 0 0 1-3.03 2.96 9.13 9.13 0 0 1-7.5.44 6.1 6.1 0 0 1-2.37-1.76v2.12H63V0h3.93v8.36a7.22 7.22 0 0 1 2.33-1.64 8.63 8.63 0 0 1 3-.52Zm-.45 13.48a4.9 4.9 0 0 0 3.56-1.4 4.95 4.95 0 0 0 1.4-3.72 4.77 4.77 0 0 0-4.95-5.12 4.88 4.88 0 0 0-5 5.08c0 1.04.2 1.92.65 2.68.41.76 1.02 1.36 1.8 1.8.74.48 1.6.68 2.54.68Zm28.37-5.04c0 .28 0 .64-.09 1.12h-13.1c.25 1.2.82 2.16 1.8 2.88a6.29 6.29 0 0 0 3.65 1.04c1.84 0 3.36-.6 4.54-1.76l2.09 2.36a6.95 6.95 0 0 1-2.86 2c-1.15.44-2.46.68-3.9.68-1.84 0-3.43-.36-4.86-1.08a8.3 8.3 0 0 1-3.28-2.96 8.57 8.57 0 0 1-1.14-4.36c0-1.6.36-3.04 1.1-4.28a7.66 7.66 0 0 1 3.11-3A9.07 9.07 0 0 1 91.7 6.2a8.6 8.6 0 0 1 4.34 1.08 7.61 7.61 0 0 1 3.03 2.96 8.59 8.59 0 0 1 1.1 4.4Zm-8.48-5.4a4.63 4.63 0 0 0-4.75 4h9.5a4.4 4.4 0 0 0-1.55-2.88 4.68 4.68 0 0 0-3.2-1.12ZM114 21.84c-.45.36-1.02.64-1.68.84a7.1 7.1 0 0 1-2.09.28c-1.84 0-3.27-.48-4.25-1.4-1.03-.92-1.52-2.32-1.52-4.12V9.56h-2.74V6.48h2.74V2.76h3.93v3.72h4.5v3.08h-4.5v7.8c0 .8.2 1.4.62 1.84.4.4.98.6 1.71.6.86 0 1.6-.24 2.22-.68l1.06 2.72Z"/><path fill="#FFDC26" d="M7.33 6.61v3.77h9.08v5.57H7.33V23H0V1h17.66v5.57H7.33v.04ZM38 17.4v5.57H19.97V1h17.67v5.57h-10.5v2.58h9.2v5.33h-9.2v2.87H38v.04Zm22-.17v5.74H40.07V18.4l9.92-11.67h-9.6V1h19.12v4.55L49.6 17.22H60Z"/></svg>