<svg width="128" height="54" viewBox="0 0 128 54" fill="none" xmlns="http://www.w3.org/2000/svg">
<path fill-rule="evenodd" clip-rule="evenodd" d="M88.7467 18.6945V22.7066H106.63V18.6945H88.7467ZM102.326 9.21922L97.651 0L92.9762 9.21922L85.2591 3.84134L88.8209 16.6458H106.481L110.043 3.84134L102.326 9.21922ZM126.59 45.4132C125.403 46.0961 124.364 46.4376 123.474 46.4376C122.064 46.4376 121.47 45.4132 121.47 43.4499V32.6087H127.629V27.4016H121.47V18.097H115.014V27.4016H111.898V32.6087H115.014V44.7303C115.014 47.2912 115.682 49.3399 117.018 50.7057C118.354 52.0715 120.06 52.7545 122.138 52.7545C123.177 52.7545 124.216 52.5837 125.18 52.3276C126.219 51.9862 127.184 51.5594 128 50.9618L126.59 45.4132ZM110.117 40.2061C110.117 35.7672 109.152 32.2673 107.149 29.7918C105.146 27.3162 102.326 26.0358 98.5415 26.0358C96.2412 26.0358 94.0893 26.6333 92.3084 27.743C90.4533 28.8528 89.0435 30.4747 88.0046 32.5234C86.9658 34.5721 86.5206 36.9623 86.5206 39.6939C86.5206 42.3401 87.04 44.7303 88.0046 46.8644C88.9693 48.9131 90.4533 50.535 92.3084 51.6447C94.1635 52.7544 96.3154 53.352 98.7641 53.352C100.842 53.352 102.771 52.9252 104.478 52.1569C106.184 51.3886 107.594 50.1936 108.856 48.657L105.294 44.5596C104.478 45.4986 103.587 46.2669 102.548 46.6937C101.51 47.1205 100.471 47.4619 99.3577 47.4619C97.8736 47.4619 96.538 47.0351 95.4991 46.0961C94.3861 45.1571 93.7183 43.7913 93.273 42.1694H110.117C110.043 41.5719 110.117 40.9743 110.117 40.2061ZM93.1246 37.5598C93.4215 35.7672 94.0151 34.316 94.9797 33.2916C95.9444 32.1819 97.2058 31.6697 98.6157 31.6697C100.1 31.6697 101.435 32.1819 102.326 33.2916C103.29 34.4014 103.81 35.7672 103.81 37.5598H93.1246ZM82.4394 37.3037C81.3264 35.6818 79.7681 34.7428 77.7646 34.316C79.3971 33.8892 80.6586 32.9502 81.6232 31.499C82.5878 30.1332 83.033 28.5113 83.033 26.7187C83.033 24.0724 82.0684 21.9383 80.1391 20.4018C78.1357 18.8653 75.5386 18.097 72.1994 18.097H58.2493V52.8398H72.7188C76.2806 52.8398 79.0261 51.9862 81.1038 50.2789C83.1073 48.5717 84.1461 46.1815 84.1461 43.2791C84.1461 40.889 83.5525 38.9256 82.4394 37.3037ZM65.0759 24.4139H71.8284C73.0899 24.4139 74.1287 24.67 74.8707 25.3529C75.6128 26.0358 75.9838 26.9748 75.9838 28.1699C75.9838 29.3649 75.6128 30.3893 74.8707 31.0722C74.1287 31.7551 73.1641 32.0966 71.8284 32.0966H65.0759V24.4139ZM75.687 45.2425C74.7223 46.0108 73.4609 46.3522 71.8284 46.3522H65.0759V38.1573H71.8284C73.4609 38.1573 74.7223 38.4988 75.687 39.2671C76.6516 40.0353 77.0968 40.9743 77.0968 42.2548C77.0968 43.4499 76.5774 44.4742 75.687 45.2425ZM35.6916 18.0116V52.7545H43.1861V18.0116H35.6916ZM52.5357 19.1214C51.8678 18.3531 50.9032 18.0116 49.8643 18.0116C48.7513 18.0116 47.8609 18.3531 47.193 19.1214C46.5252 19.8896 46.1542 20.8286 46.1542 21.9383C46.1542 23.0481 46.5252 23.9017 47.193 24.67C47.8609 25.4382 48.7513 25.7797 49.8643 25.7797C50.9774 25.7797 51.8678 25.4382 52.5357 24.67C53.2035 23.9017 53.5745 22.9627 53.5745 21.853C53.5745 20.7433 53.2035 19.8043 52.5357 19.1214ZM46.08 29.621V52.8398H53.5745V29.621H46.08ZM30.0522 19.1214C29.3844 18.3531 28.4197 18.0116 27.3067 18.0116C26.2678 18.0116 25.3032 18.3531 24.6354 19.1214C23.9675 19.8896 23.5965 20.8286 23.5965 21.853C23.5965 22.9627 23.9675 23.8163 24.6354 24.5846C25.3032 25.3529 26.1936 25.6943 27.3067 25.6943C28.4197 25.6943 29.3101 25.3529 30.0522 24.5846C30.72 23.8163 31.091 22.8773 31.091 21.7676C31.091 20.7433 30.7942 19.8043 30.0522 19.1214ZM23.6707 29.5357V52.7545H31.1652V29.5357H23.6707ZM6.97507 46.0108V18.0116H0V52.7545H20.1832V46.0108H6.97507Z" fill="white"/>
</svg>
