<svg xmlns="http://www.w3.org/2000/svg" width="133" height="16" fill="none"><path fill="#1B9DD9" d="M76.843 3.24c-.018 1.792-1.44 3.236-3.188 3.236h-.097c-1.749 0-3.171-1.443-3.191-3.236C70.384 1.446 71.808 0 73.558 0h.093c1.75 0 3.174 1.446 3.192 3.24Z"/><path fill="#E6352B" d="M76.843 12.035c-.018 1.793-1.442 3.238-3.192 3.238h-.093c-1.75 0-3.174-1.445-3.191-3.238.017-1.793 1.442-3.238 3.191-3.238h.093c1.75 0 3.174 1.445 3.192 3.238Z"/><path fill="#fff" d="M88.278.483h-6.28V14.79h4.063V10.7h2.008c3.645 0 6.298-1.779 6.298-5.149 0-3.209-2.383-5.07-6.09-5.07Zm-.295 7.1h-1.898V3.796h1.898c1.467 0 2.345.653 2.345 1.893s-.902 1.908-2.326 1.908l-.019-.014Zm-56.654 3.64h-7.874V8.95h7.03V5.822h-7.03V3.649h7.76V.275H19.44v14.308h11.89v-3.36ZM8.467 6.582h-.636L5.63.337H0V14.63h4.148V6.962h.446l2.51 7.034H9.17l2.51-7.034h.446v7.658h4.148V.336H10.67L8.467 6.584Zm91.657-6.11-6.237 14.332h4.272l1.049-2.542h5.648l1.068 2.542h4.352L104.039.483l-3.915-.01Zm.27 8.714 1.457-3.56h.39l1.424 3.56h-3.271Zm-57.873-.052h1.599l1.614.038a3.01 3.01 0 0 1-.584.88 4.55 4.55 0 0 1-1.381 1.013 4.486 4.486 0 0 1-1.984.402 3.82 3.82 0 0 1-3.977-3.962c0-2.228 1.632-3.965 3.744-3.965h.035c1.295 0 2.546.48 3.506 1.348l2.373-2.802A8.678 8.678 0 0 0 41.524.005c-4.542 0-7.888 3.27-7.888 7.44 0 4.374 3.408 7.44 7.974 7.44h.074c2.286 0 4.505-.78 6.285-2.21V6.24l-5.448-.001v2.897ZM56.032.285 49.796 14.6h4.272l1.049-2.537h5.647l1.068 2.537h4.338L59.934.294l-3.902-.01Zm.271 8.708 1.424-3.507h.436l1.424 3.507h-3.284Zm72.615-8.52v14.308H133V.474h-4.082Zm-3.569 4.923a4.483 4.483 0 0 0-1.296-3.389c-.982-.947-2.529-1.533-4.746-1.533h-6.929V14.78h4.063v-4.335h1.78l2.947 4.335h4.689l-3.522-4.979a4.526 4.526 0 0 0 3.014-4.397v-.01Zm-6.255 1.945h-2.677V3.905h2.658c1.357 0 2.197.573 2.197 1.699 0 1.127-.797 1.746-2.178 1.746v-.009Z"/></svg>