<svg xmlns="http://www.w3.org/2000/svg" width="113" height="27" fill="none"><path fill="#EB622B" d="M0 27h113v-3.55H0v3.56Z"/><path fill="#fff" d="M93.02 1.13h-4.38v18.08h11.45v-4.13h-7.07V1.13ZM113 5.14v-4h-11.8V19.2H113V15.2h-7.44v-3.07H113v-4h-7.44V5.14H113ZM6.93 1.13H0V19.2h4.38v-4.75H6.9c4.32 0 7.02-3.07 7.02-6.7 0-3.6-2.72-6.6-7-6.6Zm-.17 9.33H4.38V5.08h2.38c1.57 0 2.75 1.1 2.75 2.7s-1.18 2.68-2.75 2.68ZM19.45 1.13h-4.4V19.2h4.4V1.13ZM33.14 11.96 25.4 1.13h-4.65v18.08h4.34V7.66l8.04 11.55h4.32V1.13h-4.32v10.83ZM63.24 0l-9.21 19.21h5.07l.93-1.97h6.74l.92 1.97h5.1L63.56 0h-.32Zm-1.48 13.5 1.65-3.56 1.64 3.55h-3.29ZM79.31 15.17a4.81 4.81 0 0 1-4.88-4.99c0-2.8 2.04-5.04 4.94-5.04 2 0 3.45 1.02 4.26 2.61l3.83-2.4A9.39 9.39 0 0 0 79.33.92a9.1 9.1 0 0 0-9.35 9.29v.06l3.55 7.38a9.53 9.53 0 0 0 5.8 1.85c3.9 0 6.87-2.1 8.42-5.1l-4.03-2.14a4.66 4.66 0 0 1-4.4 2.92ZM55.52 1.15h-4.34v10.8l-7.7-10.8H38.8v18.06h4.35V7.66l8.02 11.55h1.33l.18-.42 2.83-5.85V1.15Z"/></svg>