<svg xmlns="http://www.w3.org/2000/svg" width="105" height="20" fill="none"><path fill="#fff" d="M0 3.63h4.09l9.54 15h-4.1L0 3.62Z"/><path fill="#fff" fill-rule="evenodd" d="M10.86 1.7C9.62.57 7.86 0 5.6 0H0v3.54h6.26c1.1 0 1.85.31 2.24.94.38.6.57 1.24.57 1.9 0 .38-.09.79-.27 1.21-.19.42-.49.8-.9 1.11-.43.3-.98.46-1.67.46H0v9.46h3.65v-5.9h2.6a6.7 6.7 0 0 0 3.73-.93 5.35 5.35 0 0 0 2.08-2.38c.44-.98.66-2.02.66-3.13 0-1.94-.62-3.47-1.86-4.58Z" clip-rule="evenodd"/><path fill="#fff" d="M26.8 15.4h-6l-1.48 3.54H15.8L23.97.13h.2l8.16 18.8H28.2l-1.4-3.53Zm-1.18-3L23.87 8l-1.82 4.4h3.57Zm18.68-3a5.56 5.56 0 0 1 2.21 1.74c.55.7.82 1.53.82 2.46 0 1.84-.61 3.19-1.83 4.06a7.57 7.57 0 0 1-4.5 1.28h-6.03V.84h5.32c1.92 0 3.43.4 4.53 1.18 1.1.77 1.64 1.9 1.64 3.37a4.35 4.35 0 0 1-2.16 4Zm-5.76-1.16h2.17c.65 0 1.16-.2 1.52-.59.36-.4.54-.9.54-1.5s-.2-1.06-.61-1.37c-.41-.33-.98-.5-1.7-.5h-1.92v3.96Zm2.3 7.38c.83 0 1.5-.17 2-.5.53-.34.8-.85.8-1.52 0-1.28-1.02-1.92-3.06-1.92h-2.04v3.94h2.3ZM84.98.84v18.83h-.1L72.22 8.24l.07 10.7h-3.61V.13h.14l12.65 11.6L81.4.84h3.59ZM98.61 15.4h-6l-1.48 3.54H87.6L95.78.13h.2l8.17 18.8H100l-1.4-3.53Zm-1.18-3L95.68 8l-1.82 4.4h3.57Zm-46-10.9h12.72v3.63H51.42V1.49Z"/><path fill="#ECFD00" fill-rule="evenodd" d="M57.79 19.22a6.36 6.36 0 1 0 0-12.73 6.36 6.36 0 0 0 0 12.73Zm0-3.64a2.73 2.73 0 1 0 0-5.45 2.73 2.73 0 0 0 0 5.45Z" clip-rule="evenodd"/><path fill="#000" fill-rule="evenodd" d="M10.9 14.04 8.76 10.9a3.6 3.6 0 0 1-1.32.22h-2.9l2.43 3.57h.5c1.35 0 2.5-.22 3.43-.65ZM5.43 5.45H.2h.02L0 3.63h4.25l1.2 1.82h-.02Z" clip-rule="evenodd" opacity=".2"/></svg>