<svg width="362" height="63" viewBox="0 0 362 63" fill="none" xmlns="http://www.w3.org/2000/svg">
<path fill-rule="evenodd" clip-rule="evenodd" d="M31.5045 61.0777C48.4035 61.0777 62.0434 47.4378 62.0434 30.5388C62.0434 13.6399 48.4035 0 31.5045 0C14.6056 0 0.965698 13.6399 0.965698 30.5388C0.965698 47.4378 14.6056 61.0777 31.5045 61.0777ZM31.5045 54.8009C44.903 54.8009 55.7666 43.9373 55.7666 30.5388C55.7666 17.1404 44.903 6.27676 31.5045 6.27676C18.1061 6.27676 7.24246 17.1404 7.24246 30.5388C7.24246 43.9373 18.1061 54.8009 31.5045 54.8009Z" fill="white"/>
<path d="M14.7262 29.5732C22.9343 29.5732 29.4525 22.9343 29.4525 14.8469C29.4525 6.75959 22.9343 0 14.7262 0C6.63888 0 0 6.63888 0 14.7262C0 22.8136 6.63888 29.5732 14.7262 29.5732Z" fill="white"/>
<path d="M84.6156 22.5721C84.6156 24.0206 85.3398 25.3484 86.909 26.1933C88.3575 27.159 90.7716 27.8832 94.0307 28.6075C98.2555 29.4524 101.515 30.9009 103.567 32.8322C105.619 34.7635 106.705 37.2984 106.705 40.5575C106.705 43.8165 105.377 46.7135 102.722 49.0069C100.066 51.3004 96.5656 52.5074 92.2201 52.5074C87.6333 52.5074 83.8913 51.3004 81.2358 49.1277C78.4595 46.8342 76.7696 43.8166 75.9247 40.0746L82.3221 36.8156C83.5292 42.9716 86.7883 46.11 92.0994 46.11C94.2721 46.11 96.0827 45.6272 97.2898 44.6615C98.6176 43.6958 99.2211 42.3681 99.2211 40.7989C99.2211 39.109 98.4969 37.7812 96.9277 36.8156C95.3585 35.8499 92.9443 35.0049 89.5646 34.4014C85.8226 33.6772 82.9257 32.3494 80.753 30.4181C78.5802 28.4868 77.4939 25.9519 77.4939 22.8136C77.4939 19.6752 78.7009 17.0196 81.3565 15.0883C83.8913 13.157 87.1504 12.1913 91.2545 12.1913C98.6176 12.1913 103.567 15.5711 105.981 22.0893L100.187 25.2277C98.6176 20.6408 95.5999 18.3474 91.013 18.3474C89.2024 18.3474 87.6332 18.7095 86.3055 19.3131C85.2191 20.158 84.6156 21.1237 84.6156 22.5721ZM109.723 63.0089V24.1413H116.724V28.1247C117.689 26.6762 119.017 25.5898 120.707 24.7449C122.397 23.8999 124.328 23.4171 126.259 23.4171C129.881 23.4171 132.898 24.7449 135.312 27.4004C137.727 30.056 138.934 33.5565 138.934 38.0226C138.934 42.3681 137.727 45.8686 135.071 48.5241C132.536 51.3004 129.398 52.5074 125.656 52.5074C121.914 52.5074 119.017 51.059 116.724 48.2827V63.0089C116.724 63.0089 109.723 63.0089 109.723 63.0089ZM129.639 32.2287C128.191 30.6595 126.259 29.9353 124.087 29.9353C121.793 29.9353 120.103 30.6595 118.534 32.2287C117.086 33.7979 116.241 35.6085 116.241 37.9019C116.241 40.1953 116.965 42.0059 118.534 43.5751C119.983 45.1443 121.914 45.8686 124.087 45.8686C126.38 45.8686 128.07 45.1443 129.639 43.5751C131.088 42.0059 131.933 40.1953 131.933 37.9019C131.812 35.6085 131.088 33.7979 129.639 32.2287ZM166.213 27.159C169.231 29.6938 170.68 33.315 170.68 37.7812C170.68 42.2474 169.231 45.8686 166.213 48.4034C163.316 50.9383 159.695 52.266 155.591 52.266C151.608 52.266 147.987 50.9383 144.969 48.4034C142.072 45.8686 140.503 42.2474 140.503 37.7812C140.503 33.315 141.951 29.6938 144.969 27.159C147.866 24.6242 151.487 23.2964 155.591 23.2964C159.816 23.2964 163.316 24.6242 166.213 27.159ZM150.159 43.6958C151.729 45.1443 153.539 45.8686 155.712 45.8686C157.885 45.8686 159.695 45.1443 161.264 43.6958C162.834 42.2474 163.558 40.3161 163.558 37.9019C163.558 35.4878 162.834 33.5565 161.264 32.108C159.695 30.6595 157.885 29.9353 155.712 29.9353C153.539 29.9353 151.729 30.6595 150.159 32.108C148.59 33.5565 147.866 35.4878 147.866 37.9019C147.866 40.3161 148.59 42.2474 150.159 43.6958ZM191.079 23.6585V30.1767C190.355 29.8146 188.544 29.9353 187.699 29.9353C185.647 29.9353 184.078 30.6595 182.871 32.2287C181.664 33.7979 181.06 35.7292 181.06 38.0226V51.6625H174.059V24.1413H181.06V28.4868C182.75 25.107 185.285 23.2964 188.786 23.2964C189.51 23.2964 190.355 23.5378 191.079 23.6585ZM194.58 24.1413V16.6575H201.581V24.1413H207.616V29.8146H201.581V42.2474C201.581 44.7822 202.788 46.11 205.081 46.11C205.805 46.11 206.65 45.9893 207.374 45.7479L208.099 51.5418C206.65 52.1453 205.202 52.266 203.391 52.266C197.477 52.266 194.58 49.3691 194.58 43.4544V29.8146V24.1413ZM217.031 30.9009C217.031 32.5908 219.204 33.9186 223.549 34.7635C226.688 35.4878 229.102 36.4534 230.55 37.7812C231.999 39.109 232.723 40.9196 232.723 43.213C232.723 45.8686 231.757 48.0413 229.826 49.8519C227.895 51.5418 225.239 52.3867 221.859 52.3867C218.721 52.3867 216.065 51.6625 213.893 50.0933C211.841 48.5241 210.271 46.5928 209.185 44.1787L214.738 40.5575C215.341 42.3681 216.307 43.8166 217.514 44.9029C218.721 45.9893 220.169 46.5928 221.859 46.5928C223.066 46.5928 224.032 46.3514 224.877 45.8686C225.722 45.265 226.205 44.5408 226.205 43.5751C226.205 42.7302 225.722 41.8852 224.756 41.5231C223.791 40.9196 222.342 40.5575 220.29 40.0746C213.893 38.8676 210.754 35.9706 210.754 31.5044C210.754 28.9696 211.72 27.0383 213.772 25.7105C215.824 24.262 218.238 23.6585 221.135 23.6585C224.032 23.6585 226.446 24.262 228.136 25.3484C229.826 26.4348 231.274 28.2454 232.482 30.6595L227.412 33.6772C226.205 30.5388 224.032 28.8489 221.135 28.8489C218.48 28.4868 217.031 29.211 217.031 30.9009ZM235.258 51.6625V12.7949H242.259V27.5211C244.431 24.7449 247.449 23.2964 251.312 23.2964C255.174 23.2964 258.192 24.6242 260.727 27.159C263.262 29.8146 264.469 33.315 264.469 37.7812C264.469 42.2474 263.262 45.7479 260.606 48.4034C258.071 51.059 254.933 52.3867 251.191 52.3867C247.328 52.3867 244.311 50.9383 242.259 48.162V51.5418L235.258 51.6625ZM244.069 43.6958C245.518 45.1443 247.449 45.9893 249.622 45.9893C251.915 45.9893 253.726 45.265 255.174 43.6958C256.623 42.2474 257.347 40.3161 257.347 37.9019C257.347 35.6085 256.623 33.6772 255.174 32.108C253.726 30.6595 251.795 29.8146 249.622 29.8146C247.328 29.8146 245.518 30.5388 244.069 32.108C242.621 33.5565 241.897 35.4878 241.897 37.9019C241.897 40.1953 242.621 42.1267 244.069 43.6958ZM294.163 39.5918H272.918C273.16 41.6438 273.884 43.4544 275.332 44.6615C276.781 45.8686 278.471 46.4721 280.523 46.4721C283.903 46.4721 286.437 44.7822 288.127 41.4024L293.318 44.4201C290.783 49.7312 286.437 52.5074 280.402 52.5074C276.54 52.5074 273.16 51.1797 270.383 48.5241C267.607 45.7479 266.279 42.2474 266.279 38.0226C266.279 33.7979 267.728 30.2974 270.504 27.5211C273.28 24.7449 276.781 23.5378 280.764 23.5378C284.627 23.5378 287.886 24.8656 290.421 27.4004C292.956 29.9353 294.283 33.3151 294.283 37.2984C294.163 37.2984 294.163 39.5918 294.163 39.5918ZM280.523 28.7282C278.712 28.7282 277.143 29.3317 275.815 30.4181C274.488 31.5044 273.522 32.9529 273.039 34.5221H287.765C287.403 32.7115 286.558 31.263 285.351 30.2974C284.144 29.211 282.454 28.7282 280.523 28.7282ZM296.335 24.1413V16.6575H303.336V24.1413H309.372V29.8146H303.336V42.2474C303.336 44.7822 304.544 46.11 306.837 46.11C307.561 46.11 308.406 45.9893 309.13 45.7479L309.855 51.5418C308.406 52.1453 306.958 52.266 305.147 52.266C299.232 52.266 296.335 49.3691 296.335 43.4544V29.8146V24.1413ZM315.769 51.6625C317.821 51.6625 319.511 49.9726 319.511 47.9206C319.511 45.8686 317.821 44.1787 315.769 44.1787C313.717 44.1787 312.027 45.8686 312.027 47.9206C312.027 49.9726 313.717 51.6625 315.769 51.6625ZM322.529 51.6625V24.1413H329.53V51.6625H322.529ZM357.534 27.159C360.552 29.6938 362 33.315 362 37.7812C362 42.2474 360.552 45.8686 357.534 48.4034C354.637 50.9383 351.016 52.266 346.912 52.266C342.928 52.266 339.307 50.9383 336.289 48.4034C333.392 45.8686 331.823 42.2474 331.823 37.7812C331.823 33.315 333.272 29.6938 336.289 27.159C339.186 24.6242 342.808 23.2964 346.912 23.2964C351.016 23.2964 354.516 24.6242 357.534 27.159ZM341.359 43.6958C342.928 45.1443 344.739 45.8686 346.912 45.8686C349.084 45.8686 350.895 45.1443 352.464 43.6958C354.033 42.2474 354.758 40.3161 354.758 37.9019C354.758 35.4878 354.033 33.5565 352.464 32.108C350.895 30.6595 349.084 29.9353 346.912 29.9353C344.739 29.9353 342.928 30.6595 341.359 32.108C339.79 33.5565 339.066 35.4878 339.066 37.9019C339.066 40.3161 339.79 42.2474 341.359 43.6958Z" fill="white"/>
<path d="M322.167 16.5368C322.167 18.5889 323.857 20.2787 325.909 20.2787C327.961 20.2787 329.651 18.5889 329.651 16.5368C329.651 14.4848 327.961 12.7949 325.909 12.7949C323.857 12.7949 322.167 14.3641 322.167 16.5368Z" fill="white"/>
</svg>
