<svg xmlns="http://www.w3.org/2000/svg" width="131" height="23" fill="none"><path fill="#fff" fill-rule="evenodd" d="M11.4 22.12c6.12 0 11.05-4.94 11.05-11.06a11.04 11.04 0 1 0-22.1 0c0 6.12 4.94 11.06 11.05 11.06Zm0-2.28a8.78 8.78 0 1 0 0-17.56 8.78 8.78 0 0 0 0 17.56Z" clip-rule="evenodd"/><path fill="#0CD664" d="M5.33 10.7c2.97 0 5.33-2.4 5.33-5.32A5.36 5.36 0 0 0 5.33 0a5.35 5.35 0 0 0 0 10.7Z"/><path fill="#fff" d="M30.62 8.17c0 .53.26 1 .83 1.31.52.35 1.4.62 2.58.88 1.53.3 2.7.83 3.45 1.53.74.7 1.13 1.62 1.13 2.8 0 1.18-.48 2.22-1.44 3.05a5.62 5.62 0 0 1-3.8 1.27 6.17 6.17 0 0 1-3.97-1.22 5.7 5.7 0 0 1-1.92-3.28l2.31-1.18c.44 2.23 1.62 3.37 3.54 3.37a3 3 0 0 0 1.88-.53c.48-.35.7-.83.7-1.4 0-.6-.27-1.09-.83-1.44a7.84 7.84 0 0 0-2.67-.87A6.54 6.54 0 0 1 29.22 11a3.5 3.5 0 0 1-1.18-2.75c0-1.14.44-2.1 1.4-2.8.92-.7 2.1-1.05 3.58-1.05 2.67 0 4.46 1.23 5.33 3.59l-2.1 1.13c-.56-1.66-1.65-2.49-3.31-2.49-.66 0-1.23.13-1.7.35-.4.3-.62.66-.62 1.18Zm9.09 14.64V8.74h2.53v1.44a3.6 3.6 0 0 1 1.44-1.22c.61-.3 1.31-.48 2.01-.48 1.31 0 2.4.48 3.28 1.44a5.48 5.48 0 0 1 1.3 3.85c0 1.57-.43 2.84-1.4 3.8a4.37 4.37 0 0 1-3.4 1.44c-1.35 0-2.4-.52-3.23-1.53v5.33h-2.53Zm7.2-11.14a2.64 2.64 0 0 0-2-.83c-.84 0-1.45.26-2.01.83a2.9 2.9 0 0 0-.83 2.05c0 .83.26 1.49.83 2.06.52.57 1.22.83 2 .83.83 0 1.45-.26 2.01-.83a2.9 2.9 0 0 0 .83-2.06 3.11 3.11 0 0 0-.83-2.05Zm13.24-1.84a4.77 4.77 0 0 1 1.62 3.85c0 1.62-.53 2.93-1.62 3.85a5.7 5.7 0 0 1-3.84 1.4 5.86 5.86 0 0 1-3.85-1.4 4.91 4.91 0 0 1-1.61-3.85c0-1.62.52-2.93 1.61-3.85a5.7 5.7 0 0 1 3.85-1.4c1.52 0 2.8.49 3.84 1.4Zm-5.81 6c.57.52 1.22.78 2 .78.8 0 1.45-.26 2.02-.79a2.7 2.7 0 0 0 .83-2.1 2.7 2.7 0 0 0-.83-2.1 2.84 2.84 0 0 0-2.01-.78c-.79 0-1.44.26-2.01.79a2.7 2.7 0 0 0-.83 2.1c0 .87.26 1.57.83 2.1Zm14.8-7.26v2.36c-.25-.13-.91-.1-1.22-.1-.74 0-1.3.27-1.74.84a3.34 3.34 0 0 0-.66 2.1v4.94H63V8.74h2.53v1.57c.61-1.22 1.53-1.87 2.8-1.87.26 0 .57.08.83.13Zm1.27.17v-2.7h2.54v2.7h2.18v2.06h-2.18v4.5c0 .91.43 1.4 1.26 1.4.27 0 .57-.05.83-.14l.27 2.1c-.53.22-1.05.26-1.7.26-2.15 0-3.2-1.04-3.2-3.19V8.74Zm8.13 2.45c0 .61.79 1.1 2.36 1.4 1.13.26 2 .6 2.53 1.09.53.48.79 1.14.79 1.97 0 .96-.35 1.74-1.05 2.4-.7.61-1.66.92-2.88.92-1.14 0-2.1-.26-2.89-.83A5.47 5.47 0 0 1 75.7 16l2-1.31c.23.65.58 1.18 1.01 1.57.44.4.96.61 1.58.61.43 0 .78-.09 1.09-.26.3-.22.48-.48.48-.83 0-.3-.18-.61-.53-.75a5.8 5.8 0 0 0-1.61-.52c-2.32-.44-3.45-1.49-3.45-3.1 0-.92.35-1.62 1.09-2.1a4.45 4.45 0 0 1 2.66-.74c1.05 0 1.93.21 2.54.6.6.4 1.13 1.06 1.57 1.93l-1.83 1.1c-.44-1.14-1.23-1.75-2.28-1.75-.96-.14-1.48.13-1.48.74Zm6.6 7.52V4.63h2.53v5.33c.78-1 1.88-1.52 3.27-1.52 1.4 0 2.5.48 3.41 1.4a5.3 5.3 0 0 1 1.36 3.84c0 1.62-.44 2.88-1.4 3.85a4.52 4.52 0 0 1-3.4 1.44 3.8 3.8 0 0 1-3.24-1.53v1.22l-2.54.05Zm3.18-2.89a2.8 2.8 0 0 0 2.01.83c.83 0 1.49-.26 2.01-.83.53-.52.79-1.22.79-2.1 0-.83-.26-1.53-.79-2.1a2.8 2.8 0 0 0-2-.82c-.84 0-1.5.26-2.02.83a2.84 2.84 0 0 0-.78 2.1c0 .82.26 1.52.78 2.1Zm18.13-1.48h-7.69c.1.74.35 1.4.88 1.83.52.44 1.13.66 1.88.66 1.22 0 2.14-.61 2.75-1.84l1.88 1.1a4.84 4.84 0 0 1-4.68 2.92c-1.4 0-2.62-.48-3.62-1.44-1-1-1.49-2.27-1.49-3.8 0-1.53.53-2.8 1.53-3.8 1-1.01 2.27-1.45 3.71-1.45a4.77 4.77 0 0 1 4.9 4.99c-.05 0-.05.83-.05.83Zm-4.94-3.94c-.65 0-1.22.22-1.7.61-.48.4-.83.92-1 1.49h5.33a2.56 2.56 0 0 0-.88-1.53 2.55 2.55 0 0 0-1.75-.57Zm5.73-1.66v-2.7h2.53v2.7h2.19v2.06h-2.19v4.5c0 .91.44 1.4 1.27 1.4.26 0 .57-.05.83-.14l.26 2.1c-.52.22-1.05.26-1.7.26-2.14 0-3.2-1.04-3.2-3.19V8.74Zm7.03 9.97c.74 0 1.35-.62 1.35-1.36 0-.74-.6-1.35-1.35-1.35-.74 0-1.35.6-1.35 1.35 0 .74.6 1.36 1.35 1.36Zm2.45 0V8.74h2.53v9.97h-2.53Zm12.66-8.88a4.77 4.77 0 0 1 1.62 3.85c0 1.62-.52 2.93-1.62 3.85a5.7 5.7 0 0 1-3.84 1.4 5.86 5.86 0 0 1-3.84-1.4 4.91 4.91 0 0 1-1.62-3.85c0-1.62.52-2.93 1.62-3.85a5.7 5.7 0 0 1 3.84-1.4c1.48 0 2.75.49 3.84 1.4Zm-5.85 6c.57.52 1.22.78 2.01.78.79 0 1.44-.26 2-.79a2.7 2.7 0 0 0 .84-2.1 2.7 2.7 0 0 0-.83-2.1 2.84 2.84 0 0 0-2.01-.78c-.79 0-1.44.26-2 .79a2.7 2.7 0 0 0-.84 2.1c0 .87.26 1.57.83 2.1Z"/><path fill="#0CD664" d="M116.58 5.99c0 .74.62 1.35 1.36 1.35.74 0 1.35-.6 1.35-1.35 0-.75-.6-1.36-1.35-1.36-.74 0-1.36.57-1.36 1.36Z"/></svg>