<svg width="128" height="51" viewBox="0 0 128 51" fill="none" xmlns="http://www.w3.org/2000/svg">
<path d="M8.29856 14.6595C8.26625 7.83874 13.7403 4.05601 23.7902 4.02767C31.0222 4.00705 32.3148 7.77947 32.3148 9.15032C32.3148 11.7761 27.655 14.5616 27.655 14.5616C27.655 14.5616 27.9135 16.1978 31.9141 16.185C35.9147 16.1721 39.8118 14.0668 39.7892 8.7973C39.7698 2.74442 31.8172 -0.0230466 23.955 0.000144507C17.379 0.018182 -0.0612361 0.755143 0.000161697 14.5616C0.058328 26.8245 29.0833 27.9068 29.106 35.7583C29.1447 44.2848 17.1495 46.5808 13.0908 46.5808C9.0321 46.5808 7.38082 44.29 7.37436 43.0325C7.34528 36.1267 15.9636 34.2044 15.9636 34.2044C15.9636 33.6891 15.4595 31.3932 12.1214 31.4035C3.52246 31.4164 0.0971056 37.3121 0.122957 43.0686C0.145578 47.9645 4.48543 51.0206 11.0388 51C23.5705 50.9639 37.7017 46.0886 37.6499 35.2609C37.6047 25.1341 8.33411 22.4904 8.29856 14.6595Z" fill="white"/>
<path d="M127.763 41.7904C127.662 41.5972 127.381 41.6436 127.01 41.8884C125.588 42.8237 122.337 45.4727 114.73 45.4959C100.861 45.5371 98.4532 27.3089 98.4532 27.3089C98.4532 27.3089 109.023 21.0164 110.675 18.4782C112.326 15.9401 107.071 15.3861 107.071 15.3861C107.071 15.3861 99.6779 22.5599 94.4364 24.6625C95.0052 21.542 98.8829 14.4301 99.1059 10.3407C99.3289 6.25137 92.9306 7.24859 91.9094 7.64026C91.9094 9.42598 86.2576 25.6366 84.1992 34.5471C82.9874 36.0932 81.2553 37.8608 79.7042 37.8634C78.8059 37.8634 78.4763 36.5364 78.4666 34.6347C78.4666 31.9961 80.2891 27.7676 80.2762 25.1985C80.2762 23.4205 79.2518 23.3149 78.3696 23.3174C78.179 23.3174 77.119 23.3406 76.9251 23.3406C74.6631 23.3406 75.4064 21.7946 73.3705 21.81C67.1403 21.8281 59.2038 27.2522 58.858 35.4387C56.7543 36.5493 53.8105 37.9485 52.3079 37.9536C50.7309 37.9536 50.3399 36.7915 50.3367 35.7865C50.3367 34.0214 53.9171 23.5339 53.9171 23.5339C53.9171 23.5339 58.4767 22.6011 60.4673 22.2945C61.9732 22.06 62.4062 21.9724 62.9911 21.3926C63.576 20.8128 64.7199 19.6146 65.6441 18.5375C66.5683 17.4604 65.6603 16.6281 63.9508 16.6333C61.7082 16.6333 55.7074 17.767 55.7074 17.767C55.7074 17.767 58.5898 7.85671 58.5866 7.65572C58.5834 7.45473 58.2634 7.34909 57.7755 7.35166C56.6833 7.35166 54.7347 7.82064 53.4873 8.17624C51.5775 8.71994 50.0232 10.5855 49.7098 11.4539C49.3963 12.3223 47.2377 19.1224 47.2377 19.1224C47.2377 19.1224 35.6787 22.3048 34.0986 22.7815C34.0514 22.7944 34.0105 22.8187 33.9815 22.851C33.9526 22.8834 33.937 22.9221 33.937 22.9619C33.937 23.0443 35.2587 27.0847 37.9698 27.0693C39.9087 27.0693 45.6058 25.2088 45.6058 25.2088C45.6058 25.2088 42.6781 34.4853 42.6975 37.5774C42.6975 39.5615 43.8705 41.8858 48.7306 41.8729C53.2547 41.8729 57.2132 40.0099 59.43 38.7138C60.6418 41.1591 63.5049 41.8291 65.4599 41.8239C69.8418 41.8239 73.2154 39.0359 73.6484 38.6622C74.2172 39.7342 75.5582 41.793 78.6217 41.7853C80.3537 41.7853 82.1472 40.2392 83.4689 38.7395C83.4438 39.0512 83.4492 39.3639 83.485 39.6749C84.015 43.5195 91.1727 41.2596 91.5637 40.7237C91.806 37.9433 91.6542 32.2589 93.0469 28.7493C94.8953 40.7211 101.908 48.7735 114.514 48.7375C121.561 48.7169 125.177 47.1012 126.674 45.769C127.274 45.2391 127.691 44.5932 127.882 43.8953C128.073 43.1974 128.032 42.4718 127.763 41.7904ZM67.2792 37.8428C61.2267 37.8608 69.1309 25.3505 74.2947 25.3351C74.3012 26.9481 74.1881 37.8248 67.2792 37.8428Z" fill="white"/>
<path d="M116.417 41.6771C121.881 41.6616 126.111 38.7936 126.887 37.8608C127.889 36.6472 125.723 34.8151 125.035 34.846C123.31 36.1627 121.506 37.7552 117.457 37.7655C112.691 37.781 113.77 33.5988 113.77 33.5988C113.77 33.5988 122.944 34.5445 126.632 29.2853C127.811 27.6026 127.859 25.2758 127.384 24.2734C126.909 23.2711 124.24 21.4158 119.994 21.6966C114.778 22.0471 108.206 26.3838 106.761 31.5915C105.601 35.7814 107.795 41.7028 116.417 41.6771ZM122.233 24.1291C123.093 24.1059 123.016 25.2346 122.786 26.4147C122.463 28.0149 119.706 32.0837 114.446 31.9239C114.811 29.5558 118.724 24.2219 122.243 24.1291H122.233Z" fill="white"/>
</svg>
