<svg xmlns="http://www.w3.org/2000/svg" width="97" height="35" fill="none"><path fill="#fff" d="M6.29 10.06c-.03-4.68 4.12-7.28 11.74-7.3 5.48-.01 6.46 2.58 6.46 3.52 0 1.8-3.53 3.71-3.53 3.71s.2 1.13 3.22 1.12c3.04-.01 5.99-1.46 5.97-5.07-.01-4.16-6.04-6.06-12-6.04C13.17.01-.05.52 0 10c.04 8.4 22.04 9.15 22.06 14.54.03 5.85-9.06 7.43-12.14 7.43s-4.33-1.57-4.33-2.44c-.02-4.74 6.5-6.06 6.5-6.06 0-.35-.37-1.93-2.9-1.92-6.52.01-9.12 4.06-9.1 8 .02 3.37 3.3 5.46 8.28 5.45 9.5-.02 20.2-3.37 20.16-10.8-.03-6.95-22.21-8.77-22.24-14.14Z"/><path fill="#fff" d="M96.82 28.68c-.08-.13-.29-.1-.57.07-1.08.64-3.54 2.46-9.3 2.47-10.52.03-12.34-12.48-12.34-12.48s8-4.32 9.26-6.06c1.25-1.74-2.73-2.12-2.73-2.12s-5.6 4.92-9.57 6.37C72 14.78 74.93 9.9 75.1 7.1c.17-2.81-4.68-2.13-5.45-1.86 0 1.23-4.28 12.35-5.84 18.47-.92 1.06-2.23 2.27-3.4 2.27-.69 0-.94-.9-.95-2.21 0-1.81 1.38-4.71 1.37-6.48 0-1.22-.77-1.29-1.44-1.29l-1.1.02c-1.7 0-1.15-1.06-2.69-1.05-4.72.01-10.73 3.73-11 9.35-1.6.76-3.82 1.72-4.96 1.73-1.2 0-1.5-.8-1.5-1.5 0-1.2 2.72-8.4 2.72-8.4s3.45-.64 4.96-.85c1.14-.16 1.47-.22 1.92-.62.44-.4 1.3-1.22 2-1.96s.02-1.3-1.28-1.3c-1.7 0-6.24.77-6.24.77s2.18-6.8 2.18-6.94c0-.13-.25-.2-.62-.2-.82 0-2.3.32-3.25.56a4.84 4.84 0 0 0-2.86 2.25c-.24.6-1.87 5.26-1.87 5.26s-8.76 2.19-9.96 2.51a.19.19 0 0 0-.09.05.1.1 0 0 0-.03.08c0 .05 1 2.83 3.05 2.82 1.47 0 5.8-1.28 5.8-1.28s-2.23 6.37-2.21 8.49c0 1.36.89 2.96 4.57 2.95 3.43 0 6.43-1.28 8.1-2.17.92 1.68 3.1 2.14 4.58 2.13 3.32 0 5.87-1.91 6.2-2.17a4.1 4.1 0 0 0 3.77 2.15c1.31 0 2.67-1.06 3.67-2.1-.02.22-.01.43.02.65.4 2.64 5.82 1.09 6.12.72.18-1.91.07-5.81 1.12-8.22 1.4 8.22 6.72 13.74 16.27 13.72 5.34-.02 8.08-1.13 9.21-2.04.46-.36.78-.8.92-1.29.15-.47.11-.97-.09-1.44Zm-45.83-2.7c-4.6 0 1.4-8.58 5.31-8.6 0 1.11-.08 8.58-5.31 8.6Z"/><path fill="#fff" d="M88.22 28.6c4.14 0 7.35-1.98 7.94-2.62.76-.83-.89-2.09-1.4-2.07-1.31.9-2.68 2-5.75 2-3.61.02-2.8-2.85-2.8-2.85s6.96.65 9.75-2.96c.9-1.16.93-2.75.57-3.44-.36-.69-2.38-1.96-5.6-1.77-3.95.24-8.93 3.22-10.03 6.79-.87 2.88.79 6.94 7.32 6.92Zm4.41-12.04c.65-.02.6.76.42 1.57-.25 1.1-2.33 3.89-6.32 3.78.28-1.63 3.24-5.29 5.9-5.35Z"/></svg>