<svg width="137" height="49" viewBox="0 0 137 49" fill="none" xmlns="http://www.w3.org/2000/svg">
<path d="M101.739 7.43817H107.205V40.7533H101.739V7.43817Z" fill="white"/>
<path d="M119.901 40.7533H129.231V30.4731H125.469V7.43817H119.901V40.7533Z" fill="white"/>
<path d="M109.224 40.7533H118.554V30.4731H114.795V7.43817H109.224V40.7533Z" fill="white"/>
<path d="M94.2539 7.43817V19.1639H91.5601V7.43817H86.0939V40.7533H91.5601V27.5576H94.2539V40.7533H99.7202V7.43817H94.2539Z" fill="white"/>
<path d="M51.3054 40.7533C52.3402 40.7533 53.4396 39.7488 55.1577 36.5001C54.7021 39.1069 55.2392 40.7533 56.4736 40.7533C57.8571 40.7533 59.0156 38.2102 60.2528 35.574L65.4491 24.5196C66.5739 22.1284 67.4034 20.6584 68.3004 20.6584C69.1411 20.6584 68.9921 22.4175 67.8533 24.9165C66.8635 27.0872 60.7561 40.4397 60.7561 40.4397H63.3262L69.6219 26.1954C71.5087 21.9177 72.7993 20.6535 73.5051 20.6535C73.8763 20.6535 73.9635 21.1288 73.9635 21.6139C73.9635 22.9418 73.3926 24.1031 71.6437 27.9202L65.9103 40.4397H68.4269L74.6945 26.2591C77.0565 20.9132 77.8523 20.6535 78.3725 20.6535C78.7324 20.6535 78.828 21.1386 78.828 21.5894C78.828 24.8381 73.5923 31.4727 73.5923 37.4801C73.5923 39.2588 74.3627 40.7827 75.808 40.7827C79.8487 40.7827 84.0328 25.4849 84.0328 17.2725C84.0328 10.3978 81.727 7.02169 79.067 7.02169C75.2513 7.02169 73.8707 10.6918 73.8707 13.377C73.8707 15.7045 74.5736 16.9442 75.8671 16.9442C77.6864 16.9442 78.9489 13.3231 78.9489 12.2745C78.9489 12.103 78.9124 12.0687 78.8533 12.0197C78.1588 14.8813 77.0256 15.8221 76.137 15.8221C75.1444 15.8221 74.6214 14.8764 74.6214 13.1908C74.6214 11.2945 75.7912 7.89879 78.8308 7.89879C81.6427 7.89879 83.3073 11.0348 83.3073 17.2725C83.3073 28.0868 79.1598 39.4156 76.1117 39.4156C75.4003 39.4156 75.1979 38.759 75.1979 38.0534C75.1979 36.2649 76.8119 33.5846 78.17 30.0027C79.2413 27.1803 80.3127 24.4412 80.3127 21.9814C80.3127 19.8891 79.7868 19.0071 78.9124 19.0071C77.9985 19.0071 76.9525 20.1439 75.1754 23.4955C75.4847 21.4816 75.5972 19.0071 74.1181 19.0071C73.342 19.0071 71.9895 19.9675 70.0437 23.8336C70.6089 20.7319 70.0915 19.0071 68.8768 19.0071C67.6649 19.0071 66.841 20.5359 65.9131 22.5155L61.3157 32.3008C59.6229 35.9023 58.0736 39.7439 57.0782 39.7439C56.4343 39.7439 56.1503 37.9848 57.23 35.6181L64.6646 19.3256H61.923L61.3241 20.7564C61.206 19.649 60.7139 19.1149 60.1234 19.1149C58.1551 19.1149 55.7004 21.5698 53.8783 24.745C52.3514 27.4057 51.0158 31.2718 50.3522 34.2412C49.3877 36.4315 47.7681 39.7439 46.5871 39.7439C45.7829 39.7439 45.6057 37.9848 46.6883 35.6181L54.1229 19.3256H51.3813C51.3813 19.3256 48.2714 26.7491 46.2272 31.6148C45.6845 32.8545 43.9833 36.6177 43.4575 37.534C42.5914 39.0432 41.8547 39.7488 41.3289 39.7488C40.5247 39.7488 40.3475 37.9897 41.4301 35.623C42.3946 33.5111 53.0853 10.0499 53.0853 10.0499H50.3887C50.3887 10.0499 43.5025 25.8426 40.9858 31.6148C40.4431 32.8545 38.742 36.6177 38.2161 37.534C37.3501 39.0432 36.6134 39.7488 36.0876 39.7488C35.2834 39.7488 35.1062 37.9897 36.1888 35.623C37.1533 33.5111 47.844 10.0499 47.844 10.0499H45.1474C45.1474 10.0499 37.4204 27.7683 35.3452 32.5311L35.334 32.5605L35.3255 32.5801L35.289 32.6683C35.2665 32.7222 35.244 32.7761 35.2187 32.83C34.5354 34.4568 32.3393 39.7537 30.8434 39.7537C30.0392 39.7537 29.8621 37.9946 30.9446 35.6279L38.3792 19.3354H35.6264C35.6264 19.3354 32.0835 27.7879 30.0758 32.5654C28.0681 37.3429 28.9201 40.768 30.7 40.768C32.2718 40.768 33.3094 38.6659 34.1474 36.9509C33.9674 39.2882 34.7294 40.768 35.8907 40.768C37.4626 40.768 38.5479 38.6659 39.3915 36.9558C39.2144 39.2882 39.9764 40.768 41.1349 40.768C42.7461 40.768 43.8483 38.5581 44.7003 36.8235C44.4922 39.249 45.2655 40.768 46.4521 40.768C47.8074 40.768 49.0953 38.5679 49.9557 36.8333C49.8629 38.6316 50.0991 40.7533 51.3054 40.7533ZM56.5608 24.0296C58.2676 21.0553 59.2658 20.6584 59.6229 20.6584C59.98 20.6584 60.1515 21.0308 60.1515 21.8099C60.1515 24.2011 55.5063 34.4176 54.345 36.4413C53.763 37.4556 52.6354 39.2098 51.7047 39.2098C49.8545 39.2049 53.2456 29.8067 56.5608 24.0296ZM41.5398 12.3578C41.8181 10.9809 41.4442 9.86369 40.7046 9.86369C39.9651 9.86369 39.1412 10.9809 38.8629 12.3578C38.5845 13.7347 38.9585 14.8519 39.698 14.8519C40.4375 14.8519 41.2614 13.7347 41.5398 12.3578ZM55.4445 14.8519C56.184 14.8519 57.0079 13.7347 57.2863 12.3578C57.5646 10.9809 57.1906 9.86369 56.4511 9.86369C55.7116 9.86369 54.8877 10.9809 54.6094 12.3578C54.331 13.7347 54.705 14.8519 55.4445 14.8519ZM14.9788 45.9081C10.1002 45.9081 7.22089 40.7337 6.52916 33.7855C6.78223 33.9031 7.04093 33.9668 7.30243 33.9717C7.91261 33.9717 8.79553 33.761 9.75157 32.9378C10.1733 33.5111 10.702 33.8443 11.3487 33.8443C16.4185 33.8443 20.1555 17.2725 16.9584 12.6224C19.6381 10.4811 22.4697 9.74609 24.4717 11.7551C23.9543 12.4068 23.4679 13.1271 23.0124 13.9062C19.1657 20.6094 17.3717 34.2657 14.4586 39.7488C14.1437 39.5675 13.7979 39.4009 13.3789 39.4009C12.7996 39.4009 12.271 39.8762 12.1979 40.4593C12.1248 41.0424 12.5353 41.5177 13.1146 41.5177C13.5504 41.5177 13.9947 41.3364 14.5711 40.7386C14.8832 40.8023 15.1954 40.8317 15.5103 40.8366C16.6885 40.8366 17.802 39.9546 19.0898 37.7055C22.4556 31.8402 25.3631 19.4628 27.3398 17.0863C25.484 22.5351 23.4988 34.8096 20.7994 39.8125C20.4957 39.6018 20.1724 39.4009 19.7534 39.4009C19.1742 39.4009 18.6455 39.8762 18.5724 40.4593C18.4993 41.0473 18.9098 41.5177 19.4891 41.5177C19.939 41.5177 20.3945 41.3266 20.9991 40.6798C21.3224 40.8317 21.7048 40.9591 22.0929 40.9591C23.0686 40.9591 24.244 40.0036 25.2281 38.2886C28.7964 32.0705 33.301 19.2717 37.1223 12.6126C38.5114 10.192 40.9915 6.85509 44.301 6.85509C47.2872 6.85509 49.2696 10.0401 49.2696 10.0401C49.3399 9.91759 49.3118 9.70689 49.1515 9.42759C47.5319 6.60519 45.5861 5.40469 43.8258 5.40469C42.0656 5.40469 39.0991 6.46799 35.5083 12.7302C31.6757 19.4089 27.3258 32.7908 24.4717 37.7643C23.2739 39.8517 22.495 40.3221 21.8651 40.3221C21.7105 40.3221 21.5586 40.2829 21.4096 40.2094C21.882 39.6067 22.4387 38.7492 23.1333 37.5438C27.815 29.3853 28.8751 14.406 31.4845 9.85879C31.3046 9.54519 30.028 10.0548 27.7841 13.965C24.1652 20.2517 22.1126 31.2571 18.5555 37.4556C17.442 39.396 16.2751 40.1996 15.544 40.1996C15.3978 40.1996 15.2516 40.1653 15.1082 40.1016C15.5637 39.5038 16.098 38.6757 16.7531 37.5389C19.3794 32.9623 22.1885 19.1492 25.2506 12.3872C28.6783 12.1128 28.6277 9.26589 27.5254 9.26589C26.9068 9.26589 26.0126 9.98619 25.1325 10.9662C24.2693 9.64319 22.8071 8.67299 20.7882 8.67299C18.6483 8.67299 16.6041 9.72649 14.8158 11.4219C10.8988 11.4219 5.48596 18.6396 5.48596 30.8455C5.48596 31.1885 5.49158 31.5266 5.50283 31.8598C4.56086 30.772 3.72292 28.7728 3.72292 25.3918C3.72292 15.6016 12.2907 3.675 22.3966 3.675C26.4344 3.675 30.5454 6.01229 33.0985 9.24139L33.2448 8.94739C31.6729 6.20829 27.8432 1.9502 21.2071 1.9502C12.4791 1.9502 2.86248 10.878 2.86248 25.3477C2.86248 29.2726 4.19812 31.8892 5.56188 33.1338C6.17768 41.8754 10.3055 47.0596 14.5205 47.0596H129.068V45.913H14.9788V45.9081ZM16.3257 13.1565C19.7618 16.9344 15.9236 32.8398 11.5905 32.8398C11.1069 32.8398 10.716 32.634 10.4039 32.2812C11.8239 30.6593 13.3058 27.5625 14.2646 21.7609L14.0678 21.6384C13.3508 25.4457 11.8239 29.5225 9.96808 31.5952C9.44789 30.4927 9.27355 28.8316 9.27355 27.2832C9.27355 22.4861 12.5663 16.5032 16.3257 13.1565ZM6.36608 30.3996C6.36608 22.7311 10.1734 13.5534 13.8203 12.4656C10.6148 16.1406 8.45249 21.8834 8.45249 26.9059C8.45249 28.9933 8.73086 30.9239 9.32979 32.2175C8.73648 32.7075 8.11787 32.9868 7.48801 32.9868C7.19839 32.9868 6.83004 32.8888 6.43637 32.6585C6.38857 31.9088 6.36608 31.1542 6.36608 30.3996Z" fill="white"/>
</svg>
