<svg width="19" height="19" viewBox="0 0 19 19" fill="none" xmlns="http://www.w3.org/2000/svg">
<g clip-path="url(#clip0_209_205)">
<path d="M19 9.5C19 4.24838 14.7414 0 9.5 0C4.24838 0 0 4.24838 0 9.5C0 14.7414 4.24838 19 9.5 19C14.7414 19 19 14.7414 19 9.5Z" fill="url(#paint0_radial_209_205)"/>
<path d="M15.9595 6.53126C15.9186 6.76671 15.8776 6.87932 15.8162 7.00216C15.7548 7.14548 15.6933 7.29904 15.6319 7.62662C15.6114 7.74947 15.591 7.85184 15.5807 7.93374V7.94397C15.5603 8.07705 15.55 8.16919 15.4988 8.32274C15.4579 8.45583 15.3862 8.6708 15.2122 8.89602C15.0689 9.08029 14.8334 9.39764 14.5161 9.43858C14.4854 9.43858 14.4342 9.43858 14.4035 9.42835C13.5026 8.96768 12.7348 8.62986 12.4687 8.5582C12.1616 8.46606 12.2025 7.79042 12.2332 7.19667C12.2537 6.9305 12.2639 6.67458 12.2537 6.4596C12.2127 5.70205 12.0797 4.88309 11.4245 4.48384C11.0355 4.24839 10.5236 4.17673 10.0425 4.17673C10.1346 4.13578 10.2267 4.07436 10.3394 4.01294C10.626 3.84914 10.9741 3.6444 11.3324 3.60346C11.445 3.59322 11.5576 3.58298 11.6702 3.56251C12.3765 3.48061 12.9908 3.40895 13.6357 3.63417C13.9326 3.73654 14.5263 4.06412 14.6799 4.38147C14.7925 4.59645 14.9767 4.77048 15.335 5.1083C15.5295 5.28233 15.6524 5.38471 15.7445 5.4666C15.8776 5.56897 15.8981 5.59968 15.939 5.67134C16.0619 5.91703 16.0209 6.17296 15.9595 6.53126Z" fill="white"/>
<path d="M12.694 9.6331C12.7349 9.64333 12.7554 9.69452 12.7247 9.73547C12.6325 9.87879 12.5199 10.0835 12.3869 10.319C12.3254 10.4316 12.264 10.5442 12.2128 10.6261C12.0388 10.923 12.0286 11.1789 12.0183 11.3734C12.0081 11.5884 11.9978 11.6805 11.8648 11.7624C11.7624 11.8341 11.6498 11.8545 10.9127 11.9671C10.7796 11.9876 10.7285 12.0081 10.6773 12.0388C10.667 12.049 10.6466 12.049 10.6363 12.0593C10.5954 12.0798 10.5544 12.0388 10.5544 11.9979C10.5647 11.8955 10.5647 11.7624 10.5647 11.5884V11.5577C10.5647 11.4143 10.5647 11.2915 10.5544 11.1994C10.5442 11.0151 10.5442 10.9332 10.5954 10.8513C10.6568 10.7489 10.708 10.7182 10.7796 10.667C10.8922 10.5954 11.0458 10.5032 11.2608 10.1961C11.3836 10.0323 11.4041 9.94021 11.4246 9.86855C11.4348 9.83784 11.4348 9.8276 11.5269 9.75594C11.6191 9.68428 11.916 9.45907 12.2947 9.52049C12.4176 9.54096 12.5507 9.58191 12.694 9.6331Z" fill="white"/>
<path d="M9.75593 13.0318C9.73546 13.0523 9.72522 13.0625 9.69451 13.0625C9.61261 13.0625 9.56143 13.042 9.53071 13.0011C9.45905 12.909 9.46929 12.7247 9.47953 12.6121L9.79688 12.5302C9.81735 12.7042 9.82759 12.9397 9.75593 13.0318Z" fill="white"/>
<path d="M9.77637 11.9057C9.76613 11.9467 9.76613 11.9979 9.76613 12.0593C9.76613 12.0797 9.76613 12.1002 9.76613 12.1207C9.76613 12.1719 9.76613 12.2538 9.76613 12.2947C9.66376 12.3254 9.58186 12.3254 9.47949 12.3254C9.47949 12.2947 9.47949 12.2435 9.47949 12.2128C9.47949 12.1924 9.47949 12.1616 9.47949 12.1412C9.47949 12.1105 9.47949 12.09 9.47949 12.0593C9.47949 11.9979 9.47949 11.9057 9.48973 11.875C9.52044 11.875 9.55115 11.8648 9.58186 11.8545C9.64329 11.8443 9.73542 11.8238 9.7866 11.8341C9.7866 11.8545 9.7866 11.8852 9.77637 11.9057Z" fill="white"/>
<path d="M9.20309 12.9397C9.19285 13.1035 9.14166 13.298 8.98811 13.3287C8.91645 13.3389 8.88574 13.3184 8.86526 13.298C8.76289 13.2058 8.75266 12.9192 8.76289 12.7145C8.83455 12.7145 8.91645 12.7042 9.01882 12.6837C9.08024 12.6735 9.14166 12.653 9.19285 12.6428C9.20309 12.7247 9.21332 12.8271 9.20309 12.9397Z" fill="white"/>
<path d="M9.1314 12.3664L8.79358 12.4892C8.81405 12.3561 8.83453 12.1719 8.84476 12.049C8.855 11.9671 8.87548 11.9364 8.88571 11.9262C8.88571 11.9262 8.89595 11.916 8.90619 11.916C8.90619 11.916 8.90619 11.916 8.91642 11.916H8.92666L9.14164 11.9057C9.1314 12.0081 9.1314 12.2333 9.1314 12.3664Z" fill="white"/>
<path d="M8.57857 12.264C8.5581 12.3152 8.53762 12.4585 8.52739 12.5609L8.10767 12.5507C8.12814 12.4176 8.16909 12.2845 8.1998 12.1821C8.24075 12.0797 8.27146 11.9979 8.31241 11.9774C8.35336 11.9569 8.44549 11.9467 8.50691 11.9979C8.59905 12.0593 8.61952 12.1514 8.57857 12.264Z" fill="white"/>
<path d="M8.42508 13.5641C8.39437 13.6051 8.35342 13.6358 8.31247 13.6358C8.26129 13.646 8.23058 13.6255 8.19987 13.6051C8.06678 13.4822 8.07702 13.083 8.08726 12.8885C8.26129 12.8475 8.45579 12.8168 8.54793 12.8066C8.54793 12.9601 8.55816 13.3799 8.42508 13.5641Z" fill="white"/>
<path d="M7.87225 12.5302C7.85178 12.5814 7.8313 12.6326 7.82107 12.6837C7.76988 12.7042 7.61632 12.6837 7.46277 12.653L7.56514 11.9876C7.73917 11.9364 7.94391 11.9262 7.98486 11.9774C8.05652 12.049 7.92344 12.3869 7.87225 12.5302Z" fill="white"/>
<path d="M7.67774 13.6563C7.59584 13.7586 7.473 13.8098 7.29897 13.7996C7.17612 13.7996 7.13518 13.7484 7.1147 13.7177C7.02257 13.5641 7.1147 13.2058 7.20683 12.9806L7.78011 13.0113C7.79035 13.0523 7.79035 13.1035 7.79035 13.1546C7.80058 13.3287 7.78011 13.5334 7.67774 13.6563Z" fill="white"/>
<path d="M12.4278 8.81412C11.9057 8.6708 11.9569 7.91326 11.9979 7.17619C12.0081 6.92027 12.0286 6.67458 12.0183 6.46984C11.9774 5.78395 11.8648 5.03665 11.312 4.69882C10.7182 4.34052 9.7457 4.42242 9.15195 4.49408C8.93697 4.5555 8.73223 4.60669 8.56843 4.59645C8.22037 4.57598 7.94397 4.43266 7.69828 4.29958C7.51402 4.19721 7.35022 4.10507 7.18643 4.10507C7.17619 4.10507 7.16596 4.10507 7.16596 4.10507C6.70529 4.13578 6.49031 4.24839 6.29581 4.42242C6.24462 4.46337 6.1832 4.58621 5.98869 5.14925C5.88632 5.43589 5.87609 5.58945 5.85561 5.73277C5.83514 5.86585 5.8249 6.00917 5.75324 6.22415C5.70206 6.36746 5.66111 6.49031 5.6304 6.61315C5.53826 6.9305 5.45637 7.18643 5.23115 7.49354C5.20044 7.52425 5.16973 7.58568 5.12878 7.63686C5.07759 7.71876 5.01617 7.82113 4.92404 7.93374C4.86262 8.01563 4.72953 8.32274 4.73977 8.41488C4.75001 8.56843 4.80119 8.66057 4.85238 8.76294C4.90356 8.86531 4.97522 8.98815 4.98546 9.16218V9.1929C5.00594 9.45906 4.96499 9.59214 4.46337 10.0426C4.14602 10.3292 3.91057 10.6056 3.75701 10.8104C3.74678 10.8308 3.75701 10.8513 3.78772 10.8513C3.79796 10.8513 3.79796 10.8513 3.79796 10.8513C3.8082 10.8513 3.81844 10.8513 3.82867 10.8513C3.83891 10.8513 3.84915 10.8513 3.85938 10.8513C3.86962 10.8513 3.87986 10.8513 3.89009 10.8513C4.01294 10.8615 4.13578 10.9127 4.21768 11.0049C4.22792 11.0253 4.25863 11.0253 4.2791 11.0151C4.361 10.9844 4.45313 10.9844 4.53503 10.9946C4.6374 11.0049 4.75001 11.0356 4.82167 11.1072C4.84214 11.1277 4.87285 11.1379 4.90356 11.1277C4.98546 11.1072 5.07759 11.1072 5.15949 11.1379C5.22091 11.1584 5.28234 11.1994 5.32328 11.2505C5.354 11.2813 5.40518 11.2915 5.44613 11.271C5.4666 11.2608 5.49731 11.2403 5.52803 11.2301C5.64063 11.1891 5.76348 11.2096 5.86585 11.2505C5.91703 11.271 5.96822 11.2813 6.0194 11.3222C6.1013 11.3836 6.16272 11.4655 6.19343 11.5577C6.21391 11.6088 6.28557 11.6293 6.32652 11.5884C6.40841 11.5269 6.46984 11.5167 6.53126 11.5372C6.56197 11.5474 6.58244 11.5679 6.60292 11.5986C6.63363 11.6396 6.68481 11.6805 6.72576 11.66C6.89979 11.6088 7.10453 11.6396 7.25809 11.7215C7.30928 11.7522 7.3707 11.7931 7.40141 11.8545V11.8238C7.40141 11.8136 7.41165 11.8033 7.42188 11.7931L7.45259 11.7829C7.53449 11.7522 7.96445 11.6293 8.12824 11.8033C8.13848 11.8136 8.14871 11.8136 8.15895 11.8033C8.17943 11.7829 8.1999 11.7624 8.21014 11.7624C8.32274 11.701 8.50701 11.6907 8.62986 11.8033C8.65033 11.8238 8.69128 11.8136 8.71175 11.7931C8.72199 11.7726 8.73223 11.7624 8.7527 11.7522C8.79365 11.7112 8.85507 11.701 8.91649 11.701L9.15195 11.6907C9.21337 11.6907 9.39764 11.6703 9.44882 11.66H9.45906C9.47953 11.66 9.51024 11.6498 9.54096 11.6396C9.65356 11.6191 9.78665 11.5884 9.88902 11.6396C9.99139 11.6907 9.98115 11.8033 9.97091 11.9057C9.97091 11.9467 9.96068 11.9876 9.96068 12.0286C9.96068 12.049 9.96068 12.0695 9.96068 12.09C9.96068 12.1821 9.96068 12.264 9.95044 12.3254L9.96068 12.3766C9.96068 12.3766 9.96068 12.3766 9.96068 12.3869C9.97091 12.4278 10.0221 12.4585 10.0528 12.4278C10.1347 12.3766 10.2166 12.3152 10.2473 12.2743V12.264C10.2473 12.2538 10.2576 12.2333 10.2678 12.1924C10.278 12.1002 10.2985 11.9262 10.2985 11.5679C10.2985 11.5474 10.2985 11.5372 10.2985 11.5269C10.2985 11.3939 10.2985 11.2813 10.2883 11.1891C10.278 10.9946 10.2678 10.8411 10.3702 10.6875C10.4623 10.534 10.5544 10.4828 10.6466 10.4213C10.7489 10.3599 10.8615 10.2883 11.056 10.0221C11.1482 9.88902 11.1584 9.83783 11.1687 9.79688C11.1891 9.69451 11.2198 9.63309 11.3734 9.53072C11.4962 9.43858 11.8545 9.16218 12.3459 9.24408C12.5097 9.27479 12.7656 9.35669 13.0318 9.45906C13.042 9.45906 13.0523 9.4693 13.0625 9.4693H13.0727C13.3082 9.56143 13.5232 9.6638 13.6767 9.7457C13.7074 9.76617 13.7484 9.75593 13.7791 9.72522C13.8303 9.6638 13.8815 9.63309 13.9327 9.59214C13.9531 9.5819 13.9736 9.57167 13.9838 9.56143C13.9941 9.56143 13.9941 9.55119 13.9941 9.55119C14.035 9.52048 14.035 9.43858 13.9838 9.41811C13.298 9.08029 12.6428 8.87555 12.4278 8.81412ZM7.49354 8.96768C7.32975 9.6638 6.24462 10.4418 5.75324 10.4418H5.743C5.73277 10.4418 5.72253 10.4418 5.72253 10.4418C5.71229 10.4418 5.70206 10.4418 5.69182 10.4316C5.68158 10.4316 5.68158 10.4316 5.67134 10.4316C5.57921 10.4009 5.45637 10.3394 5.36423 10.2473C5.30281 10.1859 5.25162 10.104 5.23115 10.0323C5.23115 10.0221 5.22091 10.0016 5.22091 9.99139C5.1902 9.86854 5.15949 9.72522 5.26186 9.47953C5.2721 9.44882 5.29257 9.41811 5.30281 9.3874C5.30281 9.37716 5.31305 9.36693 5.31305 9.35669C5.32328 9.32598 5.33352 9.3055 5.34376 9.28503C5.354 9.24408 5.37447 9.21337 5.38471 9.1929C5.38471 9.18266 5.39494 9.17242 5.39494 9.16218C5.42565 9.08029 5.42565 9.04958 5.43589 9.01886C5.43589 8.99839 5.44613 8.95744 5.45637 8.91649C5.48708 8.78341 5.50755 8.6708 5.51779 8.57867C5.53826 8.40464 5.56897 8.25108 5.66111 8.10777C5.68158 8.08729 5.69182 8.06682 5.71229 8.04634C5.72253 8.03611 5.72253 8.03611 5.73277 8.02587C5.743 8.01563 5.743 8.01563 5.75324 8.00539C5.77372 7.98492 5.80443 7.97468 5.8249 7.96445C5.83514 7.96445 5.84537 7.95421 5.85561 7.95421C5.87609 7.94397 5.89656 7.94397 5.91703 7.93374C6.00917 7.91326 6.11154 7.91326 6.23438 7.9235C6.36747 7.93374 6.49031 7.95421 6.59268 7.98492C6.68481 8.0054 6.76671 8.03611 6.82813 8.06682C6.83837 8.06682 6.83837 8.07705 6.84861 8.07705C6.85884 8.08729 6.86908 8.08729 6.88956 8.09753C6.91003 8.10777 6.92027 8.10777 6.94074 8.118C6.96122 8.12824 6.98169 8.13848 7.00216 8.14871L7.02264 8.15895C7.0943 8.18966 7.16596 8.23061 7.21714 8.27156C7.24785 8.29203 7.26833 8.31251 7.2888 8.33298C7.29904 8.34322 7.30928 8.34322 7.30928 8.35346C7.31951 8.36369 7.31951 8.36369 7.32975 8.37393C7.54473 8.5582 7.53449 8.81412 7.49354 8.96768ZM8.0054 6.31628L7.98492 6.43912C7.93374 6.72576 7.82113 7.11477 7.41165 7.21714C7.0124 7.30927 6.92027 7.32975 6.64387 7.35022C6.63363 7.35022 6.63363 7.35022 6.62339 7.35022C6.41865 7.35022 6.0194 7.21714 5.94775 6.89979C5.9068 6.69505 5.99893 6.54149 6.14225 6.2958C6.16272 6.25486 6.19343 6.21391 6.22415 6.16272C6.42889 5.8249 6.50055 5.57921 6.56197 5.38471C6.62339 5.1902 6.67458 5.03665 6.80766 4.90356C6.83837 4.87285 6.86908 4.84214 6.91003 4.82167C6.9305 4.80119 6.96122 4.79096 6.99193 4.77048C7.03287 4.75001 7.07382 4.73977 7.11477 4.7193C7.2069 4.68858 7.30928 4.67835 7.40141 4.67835C7.59591 4.67835 7.79042 4.72953 7.9235 4.84214C7.98492 4.89333 8.07706 4.98546 8.12824 5.28233C8.14872 5.43589 8.10777 5.71229 8.0054 6.31628ZM10.9434 7.13524C10.8001 7.38093 10.7285 7.51402 10.6056 7.61639C10.3599 7.82113 10.0835 7.86208 9.84807 7.86208C9.68427 7.86208 9.54096 7.83137 9.44882 7.82113C9.20313 7.78018 8.76294 7.69828 8.60938 7.33999C8.57867 7.26833 8.57867 7.22738 8.57867 7.16596C8.57867 7.11477 8.57867 7.0124 8.54796 6.79742V6.78718C8.53772 6.68481 8.52749 6.57221 8.54796 6.42889V6.40841C8.62986 5.97846 8.66057 5.91703 8.6708 5.87609C8.71175 5.79419 8.81412 5.75324 8.90626 5.80443C8.98815 5.84537 9.01887 5.94774 8.98815 6.02964C8.97792 6.05012 8.95744 6.14225 8.88578 6.48007V6.50055C8.86531 6.59268 8.87555 6.66434 8.88578 6.75647V6.76671C8.91649 7.0124 8.91649 7.11477 8.91649 7.17619C8.91649 7.18643 8.91649 7.19667 8.91649 7.2069V7.21714C8.94721 7.2888 9.00863 7.32975 9.08029 7.3707C9.13147 7.39117 9.18266 7.35022 9.17242 7.29904C9.10076 6.92027 9.10076 6.48007 9.24408 6.20367C9.29527 6.11154 9.37716 5.96822 9.45906 5.8249C9.4693 5.81466 9.47953 5.79419 9.47953 5.78395C9.48977 5.77371 9.48977 5.76348 9.50001 5.75324C9.54096 5.69182 9.57167 5.64063 9.60238 5.58945C9.60238 5.57921 9.61262 5.57921 9.61262 5.56897L9.62285 5.55874C9.63309 5.5485 9.63309 5.53826 9.64333 5.52802C9.64333 5.52802 9.64333 5.51779 9.65356 5.51779L9.6638 5.50755C9.6638 5.49731 9.67404 5.49731 9.67404 5.48708C9.70475 5.44613 9.73546 5.40518 9.75593 5.36423C9.79688 5.31305 9.7457 5.25162 9.69451 5.2721C9.55119 5.33352 9.45906 5.40518 9.43858 5.41542C9.36693 5.47684 9.25432 5.4666 9.1929 5.38471C9.13147 5.31305 9.14171 5.20044 9.22361 5.13902C9.31574 5.06736 9.78665 4.72953 10.3497 4.88309C10.7592 4.9957 10.9639 5.31305 11.0458 5.42565C11.1072 5.51779 11.312 5.80443 11.3017 6.21391C11.3017 6.51078 11.1789 6.736 10.9434 7.13524Z" fill="white"/>
<path d="M7.27853 5.03665C7.24781 5.10831 7.2171 5.19021 7.17615 5.28234C7.09426 5.49732 6.99189 5.74301 6.9407 5.83514C6.85881 5.9887 6.79738 6.09107 6.7462 6.16273C6.68478 6.25486 6.64383 6.32652 6.60288 6.42889C6.54146 6.60292 6.53122 6.79743 6.57217 7.01241C6.45956 7.00217 6.28553 6.93051 6.26506 6.82814C6.25482 6.75648 6.29577 6.68482 6.41861 6.46984C6.43909 6.42889 6.4698 6.37771 6.50051 6.33676C6.71549 5.96822 6.80762 5.69182 6.86904 5.48708C6.9407 5.2721 6.97141 5.17997 7.08402 5.09807C7.15568 5.06736 7.2171 5.04689 7.27853 5.03665Z" fill="white"/>
<path d="M7.06353 12.7759C6.94068 13.0216 6.79737 13.2468 6.70523 13.3594C6.62334 13.1546 6.49025 12.6735 6.5312 12.2947C6.5312 12.2845 6.5312 12.2743 6.5312 12.264C6.54144 12.1412 6.57215 12.0388 6.63357 11.9467C6.67452 11.8852 6.77689 11.8545 6.8895 11.8545C6.9714 11.8545 7.06353 11.875 7.14543 11.916C7.18637 11.9364 7.2478 11.9876 7.2478 12.1207C7.26827 12.305 7.17614 12.5507 7.06353 12.7759Z" fill="white"/>
<path d="M13.6153 10.0426C13.6255 10.0528 13.6255 10.063 13.6255 10.0733C13.5948 10.1449 13.5436 10.1961 13.4924 10.2575C13.431 10.3292 13.3594 10.4111 13.2979 10.5442C13.2058 10.7285 13.1751 10.8922 13.1649 11.3222C13.1444 11.8238 13.1649 12.1002 13.1853 12.305C13.1956 12.4995 13.2058 12.6223 13.1751 12.8168C13.1034 13.2058 12.9396 13.4617 12.7247 13.7893C12.4585 14.1988 12.1923 14.6185 11.7419 14.7516C11.701 14.7619 11.701 14.7619 11.5781 14.7619C11.4757 14.7619 11.3017 14.7619 10.9844 14.7721C10.3906 14.7926 10.0937 14.8028 9.84804 14.854C9.58188 14.9052 9.4488 14.9666 9.30548 15.0178C9.18263 15.069 9.07003 15.1099 8.85505 15.1611C8.72197 15.1918 8.52746 15.2123 7.86205 15.2225C7.16593 15.2225 6.74621 15.2225 6.20365 15.1611C5.4461 15.0792 5.06733 15.028 4.81141 14.8949C4.21766 14.5776 3.96173 14.0043 3.55225 13.0625C3.55225 13.0523 3.56248 13.042 3.57272 13.042C3.59319 13.0523 3.61367 13.0625 3.63414 13.0727C3.65462 13.083 3.67509 13.083 3.68533 13.083C3.72628 13.0932 3.76722 13.0932 3.80817 13.083C3.81841 13.083 3.81841 13.083 3.82865 13.0727C3.83888 13.0727 3.84912 13.0727 3.84912 13.083C3.87983 13.1546 3.92078 13.2161 3.99244 13.257C4.0641 13.298 4.146 13.298 4.21766 13.298C4.29955 13.298 4.38145 13.2877 4.46334 13.2775C4.50429 13.2775 4.54524 13.298 4.56572 13.3287C4.63738 13.5129 4.72951 13.6358 4.87283 13.6563C4.88306 13.6563 4.8933 13.6563 4.90354 13.6563C4.93425 13.6563 4.98544 13.646 5.04686 13.6051C5.09804 13.5641 5.17994 13.5948 5.22089 13.646C5.2516 13.6972 5.29255 13.7279 5.3335 13.7586C5.47681 13.9019 5.82488 13.9736 6.11151 13.9736C6.26507 13.9736 6.40839 13.9531 6.49028 13.9122C6.61313 13.8508 6.61313 13.7689 6.60289 13.7279C6.59266 13.6665 6.58242 13.5948 6.57218 13.5334C6.57218 13.5232 6.58242 13.5232 6.58242 13.5334C6.60289 13.5744 6.62337 13.6153 6.67455 13.6255C6.68479 13.6255 6.68479 13.6255 6.69503 13.6255C6.77692 13.6255 6.89977 13.6563 6.92024 13.7279C6.93048 13.7689 6.95095 13.7996 6.97143 13.8405C7.02261 13.9122 7.11475 14.0043 7.30925 14.0145H7.31949C7.5447 14.0145 7.71873 13.9429 7.83134 13.7996C7.84158 13.7893 7.84158 13.7791 7.85181 13.7689C7.89276 13.7074 8.01561 13.7074 8.06679 13.7586C8.12822 13.8098 8.19987 13.8405 8.28177 13.8405C8.29201 13.8405 8.31248 13.8405 8.32272 13.8405C8.42509 13.8303 8.50699 13.7791 8.57865 13.687C8.6196 13.6255 8.65031 13.5539 8.67078 13.472C8.68102 13.4515 8.71173 13.4413 8.7322 13.4617C8.77315 13.5027 8.84481 13.5436 8.94718 13.5436C8.96766 13.5436 8.99837 13.5436 9.02908 13.5334C9.22358 13.4925 9.32595 13.3287 9.3669 13.1546C9.3669 13.1444 9.37714 13.1444 9.37714 13.1546C9.42832 13.2161 9.52046 13.2877 9.67401 13.2877C9.68425 13.2877 9.69449 13.2877 9.69449 13.2877C9.77638 13.2877 9.84804 13.2468 9.89923 13.1853C9.96065 13.1035 9.98112 12.9806 9.99136 12.868C9.99136 12.8373 10.0118 12.8066 10.0528 12.7861C10.2166 12.7144 10.4213 12.5609 10.4827 12.4585C10.4827 12.4585 10.4827 12.4483 10.493 12.4483C10.5032 12.4176 10.5339 12.3971 10.5544 12.3971C10.6875 12.3766 10.7387 12.3459 10.7899 12.3254C10.8308 12.305 10.8615 12.2947 10.9639 12.2742C11.7112 12.1616 11.8545 12.1309 12.0183 12.0286C12.264 11.8648 12.2742 11.6395 12.2845 11.4246C12.2947 11.2403 12.3049 11.0356 12.4483 10.7899C12.4994 10.6977 12.5609 10.5954 12.6223 10.4725C12.7349 10.2678 12.8885 9.98114 13.0011 9.82759C13.0215 9.79688 13.0625 9.78664 13.0932 9.80711C13.3491 9.89925 13.5743 10.0016 13.6153 10.0426Z" fill="white"/>
<path d="M6.34695 12.2743C6.31624 12.5302 6.29576 12.8782 6.33671 13.3287C6.34695 13.4515 6.36742 13.5846 6.3879 13.7177C6.35719 13.7382 6.24458 13.7689 6.06031 13.7586C5.79415 13.7484 5.52798 13.687 5.44609 13.5948L5.43585 13.5846C5.37443 13.5334 5.32324 13.4925 5.32324 13.4003C5.32324 13.3696 5.33348 13.3389 5.36419 13.2877C5.38466 13.2673 5.40514 13.2365 5.42561 13.1956C5.46656 13.1342 5.52798 13.0625 5.58941 12.9601C5.76344 12.6735 5.82486 12.5814 5.90676 12.4688C5.91699 12.4585 5.91699 12.4483 5.92723 12.438C5.97841 12.3766 6.0296 12.2947 6.12173 12.1616C6.18316 12.0695 6.23434 11.9876 6.28553 11.9262C6.35719 11.8238 6.40837 11.7726 6.43908 11.7419C6.43908 11.7829 6.42885 11.8443 6.41861 11.9057C6.37766 12.0286 6.35719 12.1412 6.34695 12.2743Z" fill="white"/>
<path d="M6.21392 8.24084C6.21392 8.25108 6.21392 8.25108 6.21392 8.24084C6.17297 8.29203 6.13203 8.35345 6.08084 8.45582C5.94776 8.74246 5.94776 8.90625 5.94776 9.03933C5.94776 9.11099 5.94776 9.16218 5.92728 9.2236C5.91705 9.26455 5.89657 9.31573 5.86586 9.36692C5.7942 9.54095 5.69183 9.76616 5.73278 10.0733C5.67136 10.0426 5.57922 9.97091 5.55875 9.94019C5.55875 9.91972 5.54851 9.90948 5.54851 9.88901C5.52804 9.79688 5.5178 9.73545 5.56899 9.59213C5.73278 9.2236 5.75325 9.13147 5.76349 9.0291C5.76349 9.00862 5.77373 8.98815 5.77373 8.95744C5.80444 8.81412 5.82491 8.69127 5.83515 8.5889C5.85563 8.43535 5.8761 8.33297 5.92728 8.26132C5.94776 8.2306 5.99894 8.22037 6.0706 8.22037C6.10131 8.22037 6.13203 8.22037 6.17297 8.2306H6.18321C6.21392 8.24084 6.21392 8.24084 6.21392 8.24084Z" fill="white"/>
<path d="M6.00909 11.8955C5.99885 11.8033 5.98861 11.7214 5.94767 11.6293C5.94767 11.6293 5.93743 11.6088 5.93743 11.5986C5.92719 11.5884 5.92719 11.5781 5.91695 11.5679L5.90672 11.5577C5.89648 11.5474 5.89648 11.5474 5.88624 11.5474L5.87601 11.5372C5.86577 11.5372 5.86577 11.5269 5.85553 11.5269H5.84529C5.79411 11.5065 5.74292 11.486 5.6815 11.4758C5.67126 11.4758 5.66103 11.4758 5.66103 11.4758C5.65079 11.4758 5.65079 11.4758 5.64055 11.4758H5.63032C5.62008 11.4758 5.60984 11.486 5.58937 11.486C5.57913 11.486 5.57913 11.4962 5.56889 11.4962L5.55866 11.5065C5.54842 11.5167 5.54842 11.5167 5.53818 11.5269L5.52795 11.5372V11.5474C5.50747 11.5781 5.487 11.6088 5.46652 11.6395C5.41534 11.7112 5.36415 11.7931 5.31297 11.8648C5.26178 11.9364 5.22083 11.9978 5.16965 12.0695C5.13894 12.1105 5.11846 12.1412 5.08775 12.1821C5.08775 12.1923 5.07751 12.1923 5.07751 12.2026C5.10823 12.2128 5.13894 12.2128 5.16965 12.2231C5.24131 12.2333 5.31297 12.2435 5.37439 12.2538C5.51771 12.2742 5.67126 12.2845 5.81458 12.2742C5.82482 12.2742 5.82482 12.2742 5.83506 12.2742C5.86577 12.2231 5.91695 12.1616 5.96814 12.0797C5.99885 12.0388 6.02956 11.9978 6.05004 11.9569C6.01932 11.9467 6.00909 11.9159 6.00909 11.8955Z" fill="white"/>
<path d="M5.48702 12.4995C5.47679 12.6121 5.35394 12.8987 5.15944 13.1751C4.99564 13.4003 4.89327 13.4618 4.8728 13.4618C4.7909 13.4515 4.71924 13.257 4.65782 13.0625C4.63735 12.9806 4.60664 12.909 4.5964 12.8373C4.55545 12.694 4.54521 12.4892 4.55545 12.3664C4.71924 12.4585 5.00588 12.479 5.41536 12.479C5.43584 12.4892 5.46655 12.4892 5.48702 12.4995Z" fill="white"/>
<path d="M5.20038 11.5781C5.12872 11.6907 5.05706 11.7931 4.9854 11.8955C4.94445 11.9467 4.91374 11.9979 4.87279 12.049C4.85232 12.0798 4.82161 12.1105 4.80113 12.1412C4.73971 12.1309 4.68853 12.1105 4.6271 12.1002C4.57592 12.09 4.53497 12.0695 4.48379 12.049C4.47355 12.049 4.46331 12.0388 4.45307 12.0388C4.44284 12.0286 4.4326 12.0081 4.42236 11.9979C4.44284 11.9671 4.45307 11.9262 4.47355 11.8955C4.50426 11.8341 4.53497 11.7726 4.57592 11.7112C4.63734 11.6088 4.709 11.4962 4.82161 11.4246C4.83185 11.4246 4.83185 11.4143 4.84208 11.4143C4.88303 11.3939 4.92398 11.3734 4.97516 11.3632C4.9854 11.3632 5.01611 11.3632 5.03659 11.3632H5.04682C5.04682 11.3632 5.04682 11.3632 5.05706 11.3632C5.0673 11.3632 5.07754 11.3734 5.09801 11.3734C5.09801 11.3734 5.10825 11.3734 5.10825 11.3836C5.11848 11.3939 5.12872 11.3939 5.13896 11.4041C5.11848 11.3939 5.15943 11.4348 5.15943 11.4246C5.17991 11.486 5.19014 11.5167 5.20038 11.5781Z" fill="white"/>
<path d="M4.64763 11.2813C4.51454 11.3836 4.42241 11.5269 4.35075 11.6805C4.3098 11.7624 4.26885 11.8443 4.22791 11.9262C4.22791 11.9364 4.21767 11.9467 4.21767 11.9467C4.17672 11.9364 4.13577 11.9262 4.10506 11.916C4.06411 11.9057 4.02316 11.8852 3.98222 11.875C3.96174 11.8648 3.9515 11.8545 3.93103 11.8443C3.97198 11.7726 4.01293 11.701 4.06411 11.6293C4.12553 11.5372 4.19719 11.4348 4.26885 11.3529C4.29956 11.3222 4.33028 11.2813 4.36099 11.2608C4.40194 11.2403 4.44288 11.2403 4.49407 11.2505C4.54525 11.2505 4.59644 11.2505 4.63739 11.271C4.62715 11.271 4.63739 11.2813 4.64763 11.2813Z" fill="white"/>
<path d="M4.44288 13.0216C4.43265 13.0318 4.43265 13.0318 4.42241 13.042H4.41217C4.38146 13.042 4.35075 13.0523 4.32004 13.0523C4.25862 13.0523 4.19719 13.0625 4.13577 13.0523C4.10506 13.0523 4.07435 13.042 4.05387 13.0216C4.0334 12.9908 4.02316 12.9294 4.01293 12.8885C3.97198 12.6633 3.97198 12.438 3.99245 12.2128C4.10506 12.2538 4.2279 12.2845 4.35075 12.305C4.32004 12.5097 4.37122 12.8066 4.3917 12.8885C4.42241 12.9294 4.43265 12.9806 4.44288 13.0216Z" fill="white"/>
<path d="M4.07429 11.2096C3.97192 11.3324 3.87979 11.4655 3.79789 11.6088C3.76718 11.66 3.72623 11.7215 3.69552 11.7829C3.65457 11.7726 3.61362 11.7522 3.58291 11.7317C3.5522 11.7112 3.52149 11.6907 3.50101 11.6703C3.49078 11.66 3.4703 11.6498 3.46007 11.6396C3.46007 11.6396 3.44983 11.6396 3.44983 11.6293C3.46007 11.5986 3.48054 11.5781 3.48054 11.5577C3.50101 11.5065 3.52149 11.4655 3.5522 11.4246C3.60339 11.3427 3.65457 11.2608 3.71599 11.1789C3.73647 11.1482 3.75694 11.1175 3.79789 11.1072C3.8286 11.097 3.86955 11.1072 3.90026 11.1072C3.96168 11.1175 4.0231 11.1584 4.07429 11.2096Z" fill="white"/>
<path d="M3.28607 11.7522C3.28607 11.7419 3.2963 11.7419 3.28607 11.7522C3.32701 11.7931 3.35772 11.8238 3.39867 11.8545C3.41915 11.8648 3.42938 11.8853 3.44986 11.8955C3.44986 11.8955 3.44986 11.8955 3.44986 11.9057C3.40891 12.0798 3.3782 12.264 3.3782 12.4483C3.3782 12.4585 3.36796 12.4585 3.36796 12.4483C3.31678 12.2333 3.25535 11.8853 3.28607 11.7522Z" fill="white"/>
<path d="M3.78768 12.1309C3.7672 12.2845 3.75696 12.4381 3.7672 12.5916C3.7672 12.6735 3.77744 12.7554 3.78768 12.8475C3.7672 12.8475 3.74673 12.8475 3.72625 12.8475H3.71602H3.70578C3.68531 12.8373 3.68531 12.8373 3.66483 12.8271C3.64436 12.8168 3.62388 12.7861 3.60341 12.7554C3.56246 12.6837 3.55222 12.6018 3.55222 12.5199C3.54199 12.3664 3.56246 12.2026 3.59317 12.049C3.61365 12.0593 3.64436 12.0695 3.67507 12.0798C3.71602 12.1002 3.74673 12.1207 3.78768 12.1309Z" fill="white"/>
<mask id="mask0_209_205" style="mask-type:luminance" maskUnits="userSpaceOnUse" x="0" y="0" width="19" height="19">
<path d="M19 9.5C19 4.24838 14.7414 0 9.5 0C4.24838 0 0 4.24838 0 9.5C0 14.7414 4.24838 19 9.5 19C14.7414 19 19 14.7414 19 9.5Z" fill="white"/>
</mask>
<g mask="url(#mask0_209_205)">
<g opacity="0.8">
<path opacity="0.8" d="M7.82108 20.1158C7.12496 20.1158 6.46979 20.0749 5.91699 20.0339L5.76343 20.0237L5.60988 20.0032C5.53822 19.993 5.45632 19.9828 5.36419 19.9725C4.83186 19.9111 3.83886 19.8087 2.7435 19.2969L2.56947 19.215L2.41591 19.1228C0.307075 17.9353 -0.470943 16.1643 -0.9009 15.2123C-0.931611 15.1509 -0.962322 15.0792 -0.993033 15.0075C-1.20801 14.5673 -1.34109 14.1783 -1.4537 13.8098L-1.47418 13.7279L-1.49465 13.646C-1.80176 12.5609 -1.87342 11.6293 -1.74034 10.6977C-1.59702 9.76616 -1.2592 8.92672 -0.65521 8.0361L-0.348098 7.53448C-0.286675 7.43211 -0.245727 7.3195 -0.215016 7.2069C0.0204366 6.03987 0.552764 5.21067 0.818928 4.81142C0.890587 4.33028 1.01343 3.85937 1.17723 3.39871L1.1977 3.32705L1.22841 3.25539C1.22841 3.24515 1.23865 3.22468 1.24888 3.19396C1.37173 2.83567 1.64813 2.00646 2.35449 1.12608L2.62065 0.818964L2.89705 0.573275C3.59317 -0.0614235 4.43261 -0.532329 5.33347 -0.798492C5.83509 -0.952049 6.35718 -1.04418 6.88951 -1.07489H6.9407H7.01235C7.10449 -1.07489 7.19662 -1.08513 7.27852 -1.08513C7.6061 -1.08513 7.93369 -1.05442 8.26128 -1.00323C8.46602 -0.972523 8.67076 -0.992997 8.86526 -1.07489C9.4283 -1.31035 10.0118 -1.4639 10.6158 -1.5458C10.667 -1.55604 10.7079 -1.55604 10.7489 -1.56627C10.841 -1.57651 10.9946 -1.59698 11.1788 -1.61746C11.4962 -1.64817 11.9876 -1.68912 12.5097 -1.68912C13.5436 -1.68912 14.4342 -1.55604 15.2327 -1.27963L15.3044 -1.25916L15.3658 -1.23869C17.1266 -0.573277 18.0172 0.358296 18.6621 1.16702L18.6929 1.20797L18.785 1.28987C19.3685 1.7403 19.8599 2.30334 20.2489 2.9278L20.3717 3.1223L20.4741 3.32705C21.334 5.07759 21.0576 6.70528 20.9552 7.30927L20.945 7.33998C20.8733 7.79041 20.7505 8.2306 20.5969 8.66056C20.5355 9.07004 20.4434 9.47952 20.3103 9.86853C20.0851 10.5647 19.7473 11.2301 19.3173 11.8238C19.0716 12.1719 18.785 12.5097 18.4779 12.8066C18.3653 12.9089 18.2936 13.0523 18.2731 13.2058C18.2629 13.298 18.2424 13.3901 18.2322 13.4822C17.9763 14.8335 17.3927 15.7753 17.1471 16.1541L16.4202 17.1983C15.5398 18.2936 14.4957 19.0102 13.2365 19.3992L12.9294 19.4914L12.6018 19.5528C12.223 19.6245 11.8443 19.6552 11.4552 19.6552C11.4041 19.6552 11.3529 19.6552 11.2914 19.6552H11.271H11.2096H11.1379C10.9946 19.6552 10.8513 19.6859 10.7079 19.7268C9.8685 19.993 8.94716 20.1158 7.82108 20.1158Z" stroke="url(#paint1_linear_209_205)" stroke-width="1.0554" stroke-miterlimit="10"/>
<path opacity="0.8" d="M7.82107 19.389C7.15566 19.389 6.51072 19.3481 5.97839 19.3071L5.85555 19.2969L5.7327 19.2764C5.65081 19.2662 5.55867 19.2559 5.46654 19.2457C4.94445 19.1945 4.08454 19.0921 3.12225 18.6417L2.97893 18.57L2.84585 18.4984C0.972467 17.4644 0.286583 15.9186 -0.1229 14.9973C-0.153611 14.9359 -0.184322 14.854 -0.22527 14.7823C-0.419775 14.3933 -0.542619 14.0248 -0.64499 13.6972L-0.665464 13.6255L-0.685938 13.5641C-0.952102 12.5916 -1.02376 11.7726 -0.900917 10.9639C-0.778072 10.1654 -0.47096 9.4181 0.0613677 8.64008L0.460613 7.99515C0.532273 7.88254 0.583458 7.74946 0.603932 7.61638C0.798437 6.51077 1.32053 5.73276 1.55598 5.37446L1.58669 5.33351L1.59693 5.31304C1.59693 5.3028 1.60716 5.29256 1.60716 5.28233C1.6174 5.23114 1.63788 5.19019 1.64811 5.14924C1.70954 4.69881 1.82214 4.24838 1.9757 3.81842L1.99617 3.757L2.01665 3.69558C2.02688 3.67511 2.02688 3.65463 2.04736 3.59321C2.15997 3.25539 2.39542 2.54903 3.00964 1.79149L3.23486 1.52532L3.46007 1.32058C4.06406 0.767778 4.79089 0.358295 5.56891 0.13308C6.01934 -2.0874e-06 6.46977 -0.0818986 6.94068 -0.102373H6.98163H7.04305C7.12495 -0.102373 7.1966 -0.11261 7.26826 -0.11261C7.60609 -0.11261 7.93367 -0.204743 8.26126 -0.143321C8.51719 -0.0921357 8.77311 -0.122847 9.00857 -0.225218C9.44876 -0.419722 10.0425 -0.491381 10.7182 -0.583515C10.7693 -0.593752 10.8103 -0.593752 10.841 -0.603989C10.9331 -0.614226 11.0765 -0.6347 11.2402 -0.644937C11.5371 -0.675649 11.9978 -0.70636 12.4994 -0.70636C13.4412 -0.70636 14.2397 -0.583515 14.9461 -0.348062L15.0075 -0.327588L15.0587 -0.307114C16.6147 0.286636 17.3825 1.06465 17.9865 1.83243C18.0172 1.87338 18.0581 1.91433 18.0684 1.9348L18.0786 1.94504L18.1912 2.04741L18.2015 2.06789C18.7235 2.46713 19.1637 2.95851 19.5016 3.51131L19.6039 3.67511L19.6858 3.84914C20.4229 5.35399 20.1977 6.73599 20.0953 7.3195L20.0851 7.35021C20.0134 7.78017 19.9008 8.18965 19.7473 8.59914C19.6961 8.98815 19.6039 9.37715 19.4811 9.74569C19.2763 10.3599 18.9795 10.9434 18.6007 11.4758C18.3448 11.8443 18.0377 12.1821 17.7101 12.479C17.5565 12.6223 17.4541 12.8066 17.4337 13.0215C17.4132 13.1751 17.3927 13.3184 17.3723 13.472C17.147 14.6697 16.6352 15.4887 16.3895 15.8572L15.7957 16.7171C15.0075 17.7306 14.0759 18.3858 12.9498 18.7338L12.6939 18.8157L12.4175 18.8669C12.0899 18.9283 11.7521 18.9591 11.4245 18.9488C11.3733 18.9488 11.3221 18.9488 11.271 18.9488H11.2607H11.23C11.23 18.9488 11.2198 18.9488 11.1993 18.9488H11.1379H11.0765H10.9638C10.8103 18.9591 10.6567 18.9795 10.5032 19.0307C9.75587 19.2764 8.88572 19.389 7.82107 19.389Z" stroke="url(#paint2_linear_209_205)" stroke-width="1.0554" stroke-miterlimit="10"/>
<path opacity="0.8" d="M7.82111 18.5393C7.18641 18.5393 6.56195 18.4984 6.03986 18.4574L5.93749 18.4472L5.83512 18.437C5.74298 18.4267 5.64061 18.4165 5.53824 18.4062C5.04686 18.3551 4.29955 18.2732 3.46012 17.8739L3.34751 17.8227L3.24514 17.7613C1.63792 16.8604 1.04417 15.5296 0.655159 14.6492C0.624448 14.5776 0.5835 14.4854 0.552788 14.4138C0.378758 14.0657 0.26615 13.7381 0.174017 13.431L0.153543 13.3798L0.143306 13.3287C-0.0921469 12.4892 -0.153569 11.7726 -0.0511986 11.097C0.0511721 10.4111 0.327573 9.76616 0.798478 9.08027L0.8599 8.99838L0.921323 8.91648C0.962271 8.86529 0.992982 8.81411 1.03393 8.77316L1.26938 8.33297C1.35128 8.18965 1.40246 8.03609 1.42294 7.8723C1.5765 6.88954 2.0474 6.18318 2.26238 5.8556C2.27262 5.83512 2.29309 5.81465 2.30333 5.80441L2.35451 5.73275C2.37499 5.6918 2.39546 5.64062 2.41593 5.57919C2.43641 5.51777 2.46712 5.42564 2.48759 5.34374C2.53878 4.92402 2.64115 4.51454 2.78447 4.11529L2.80494 4.06411L2.82542 4.01292C2.83565 3.97197 2.85613 3.94126 2.8766 3.8696C2.97897 3.55225 3.17348 2.96874 3.69557 2.33404L3.8696 2.11907L4.05387 1.95527C4.56572 1.48437 5.17994 1.14654 5.84535 0.941802C6.23436 0.829194 6.62337 0.757535 7.03285 0.737061H7.06356H7.11475C7.17617 0.737061 7.23759 0.737061 7.30925 0.737061C7.65731 0.737061 7.99514 0.778009 8.33296 0.870142C8.6196 0.941802 8.92671 0.911091 9.19287 0.778009C9.62283 0.573267 10.1961 0.348052 10.8615 0.266155C10.9025 0.255918 10.9434 0.255918 10.9741 0.245681C11.056 0.235444 11.1891 0.21497 11.3529 0.204733C11.6293 0.174022 12.0695 0.143311 12.5302 0.143311C13.3696 0.143311 14.076 0.245681 14.7004 0.46066L14.7414 0.481134L14.7823 0.501608C16.2155 1.04417 16.8502 1.75053 17.3416 2.37499C17.4542 2.50807 17.4644 2.52855 17.5361 2.60021L17.6282 2.6821L17.6589 2.72305C17.8944 2.90732 18.3755 3.28609 18.7952 3.97197L18.8771 4.10506L18.9488 4.23814C19.5733 5.4973 19.3788 6.64385 19.2866 7.19665L19.2764 7.22736C19.215 7.62661 19.1024 8.02585 18.9386 8.40463V8.43534C18.8976 8.79363 18.8157 9.15193 18.7031 9.48975C18.5291 10.0323 18.2732 10.5339 17.9353 10.9946C17.6589 11.3938 17.3211 11.7521 16.9423 12.0593C16.8502 12.1309 16.7785 12.2231 16.7274 12.3254C16.6762 12.4278 16.6455 12.5404 16.6352 12.653C16.625 12.8782 16.5943 13.1034 16.5533 13.3287C16.3588 14.3626 15.9084 15.0792 15.6832 15.4375L15.2225 16.1131C14.5366 17.0345 13.7177 17.6282 12.7247 17.9353L12.5199 17.9968L12.2947 18.0377C12.0183 18.0889 11.7317 18.1094 11.445 18.1094C11.4041 18.1094 11.3529 18.1094 11.3017 18.1094H11.2915H11.2403C11.2301 18.1094 11.2096 18.1094 11.1584 18.1094H11.1072H11.0663L10.8308 18.1196C10.667 18.1298 10.5032 18.1503 10.3497 18.2117C9.6433 18.437 8.83458 18.5393 7.82111 18.5393Z" stroke="url(#paint3_linear_209_205)" stroke-width="0.9894" stroke-miterlimit="10"/>
<path opacity="0.8" d="M7.82108 17.6897C7.2171 17.6897 6.61311 17.6487 6.11149 17.6078L6.03983 17.5975L5.96817 17.5873C5.8658 17.5771 5.7532 17.5566 5.65083 17.5463C5.19016 17.4952 4.55546 17.4235 3.83886 17.0959L3.75697 17.055L3.67507 17.014C2.31354 16.2462 1.81192 15.1202 1.44339 14.3012C1.40244 14.2193 1.36149 14.1272 1.33078 14.0453C1.17723 13.7279 1.07486 13.431 0.992959 13.1751L0.982722 13.1342L0.952011 13.1035C0.552765 11.6907 0.706321 10.6977 1.48434 9.56143L1.52529 9.50001L1.56623 9.43858C1.61742 9.37716 1.66861 9.3055 1.71979 9.24408C1.79145 9.15195 1.86311 9.04957 1.94501 8.95744C1.99619 8.89602 2.03714 8.82436 2.06785 8.7527L2.15998 8.52748C2.20093 8.42511 2.22141 8.32274 2.23164 8.22037C2.31354 7.30927 2.75373 6.6541 2.96871 6.32651C2.98919 6.30604 3.00966 6.26509 3.0199 6.25485L3.07108 6.17296L3.09156 6.15248C3.12227 6.1013 3.17345 5.97845 3.2144 5.85561C3.23488 5.77371 3.27583 5.64063 3.31677 5.52802V5.51779C3.35772 5.13901 3.44986 4.76024 3.58294 4.40195L3.59317 4.37123L3.60341 4.34052C3.62389 4.2791 3.64436 4.22791 3.66483 4.15626C3.75697 3.87985 3.91052 3.40895 4.33024 2.88686L4.46332 2.72307L4.59641 2.60022C5.5894 1.69936 6.69501 1.6277 7.06354 1.59699H7.08401H7.12496C7.17615 1.59699 7.22733 1.59699 7.27852 1.59699C7.71871 1.59699 8.14867 1.68912 8.55815 1.86315C8.62981 1.89386 8.71171 1.9041 8.78337 1.9041C8.86526 1.9041 8.93692 1.88363 9.00858 1.84268C9.38735 1.6277 10.0732 1.22845 10.9536 1.12608C10.9946 1.11585 11.0355 1.11585 11.0662 1.11585C11.1481 1.10561 11.271 1.09537 11.4143 1.0749C11.6805 1.05442 12.0797 1.02371 12.5097 1.02371C13.257 1.02371 13.8712 1.11585 14.3933 1.28988L14.424 1.30011L14.4547 1.31035C15.6832 1.77102 16.2052 2.35453 16.6454 2.90733C16.758 3.06089 16.8195 3.12231 16.9423 3.24516L17.014 3.30658L17.0652 3.368L17.1061 3.39871C17.3108 3.56251 17.6999 3.85938 18.0479 4.42242L18.1093 4.52479L18.1605 4.62716C18.6621 5.65087 18.4983 6.5722 18.4164 7.06358V7.09429C18.355 7.45259 18.2527 7.81089 18.1093 8.14871L18.0991 8.17942C18.0991 8.18966 18.0991 8.18966 18.0889 8.21013C18.0786 8.24085 18.0786 8.27156 18.0786 8.30227L18.0684 8.34322C18.0377 8.65033 17.966 8.9472 17.8636 9.23384C17.7101 9.69451 17.4951 10.1245 17.2085 10.5135C16.9321 10.9127 16.6147 11.2403 16.2667 11.4962C16.1131 11.6088 15.9903 11.7522 15.8981 11.9262C15.806 12.1002 15.765 12.2845 15.765 12.479C15.765 12.7144 15.7343 12.9601 15.6934 13.1956C15.5296 14.076 15.1611 14.6697 14.9256 15.028L14.5878 15.5296C13.994 16.3588 13.2877 16.8912 12.438 17.1573L12.3971 17.1676C12.3254 17.188 12.2537 17.2085 12.1821 17.2188L12.1309 17.229C11.8954 17.2699 11.66 17.2904 11.4245 17.2904C11.3836 17.2904 11.3426 17.2904 11.3017 17.2904H11.2914C11.271 17.2904 11.2505 17.2904 11.23 17.2904C11.2096 17.2904 11.1686 17.2904 11.0867 17.2904H11.056H11.0253C10.9127 17.2904 10.7694 17.3007 10.6465 17.3007C10.4725 17.3109 10.3087 17.3416 10.1449 17.403C9.53067 17.5873 8.78337 17.6897 7.82108 17.6897Z" stroke="url(#paint4_linear_209_205)" stroke-width="0.9235" stroke-miterlimit="10"/>
<path opacity="0.8" d="M7.8211 16.84C7.23758 16.84 6.66431 16.799 6.17293 16.7581H6.12174L6.07056 16.7478C5.95795 16.7274 5.8351 16.7171 5.7225 16.7069C5.29254 16.6557 4.76021 16.6045 4.18694 16.3281L4.12551 16.2974L4.07433 16.2667C2.95849 15.6422 2.53877 14.7004 2.21118 13.9429C2.17023 13.8508 2.12929 13.7586 2.08834 13.6562C1.95526 13.3901 1.86312 13.1239 1.79146 12.8987L1.78122 12.868L1.77099 12.8373C1.4434 11.6703 1.55601 10.9332 2.19071 10.0119L2.22142 9.9709L2.25213 9.92995C2.30332 9.85829 2.3545 9.79687 2.40569 9.72521C2.56948 9.51023 2.73327 9.29526 2.96872 9.03933C3.01991 8.98814 3.05062 8.90625 3.06086 8.83459L3.0711 8.59914L3.06086 8.507V8.41487C3.08133 7.65732 3.4601 7.09429 3.66485 6.78717C3.68532 6.75646 3.71603 6.71551 3.72627 6.69504L3.75698 6.64386L3.78769 6.60291C3.82864 6.54148 3.92077 6.32651 4.00267 6.132C4.03338 6.05011 4.07433 5.88631 4.12551 5.75323C4.13575 5.71228 4.13575 5.70204 4.14599 5.60991C4.1767 5.29256 4.2586 4.97521 4.36097 4.67834L4.3712 4.65786L4.38144 4.63739C4.41215 4.55549 4.43263 4.49407 4.46334 4.41217C4.54523 4.16648 4.66808 3.80819 4.98543 3.40894L5.07756 3.29633L5.16969 3.21444C5.86582 2.58998 6.61312 2.46713 7.12497 2.43642H7.14545H7.16592C7.20687 2.43642 7.23758 2.43642 7.27853 2.43642C7.70849 2.43642 8.23058 2.64116 8.50698 2.77424C8.5684 2.80495 8.64006 2.82543 8.71172 2.82543C8.78338 2.82543 8.85504 2.81519 8.9267 2.79472C9.10073 2.73329 9.26452 2.66164 9.41808 2.57974C9.76614 2.375 10.3394 2.04741 11.056 1.96551C11.097 1.95528 11.1277 1.95528 11.1584 1.95528C11.23 1.94504 11.3426 1.9348 11.486 1.91433C11.7317 1.89386 12.1002 1.86314 12.4994 1.86314C13.1444 1.86314 13.6767 1.9348 14.1067 2.08836L14.1271 2.0986L14.1476 2.10883C15.1713 2.49784 15.5808 2.93804 15.9698 3.43965C16.0926 3.60345 16.1848 3.71605 16.369 3.87985L16.41 3.92079L16.4509 3.96174C16.4919 4.00269 16.5328 4.0334 16.5738 4.06411C16.7478 4.1972 17.0447 4.43265 17.3006 4.8626L17.3416 4.92403L17.3723 4.99569C17.7511 5.76347 17.6282 6.4903 17.5565 6.92026V6.95097C17.5054 7.24784 17.4235 7.53448 17.3006 7.81088C17.2699 7.88254 17.2494 7.9542 17.229 8.0361C17.2187 8.08728 17.2085 8.13847 17.2085 8.17942L17.1983 8.22036C17.1675 8.46605 17.1164 8.71174 17.0345 8.9472C16.9116 9.32597 16.7273 9.68426 16.5021 10.0016C16.1541 10.493 15.7548 10.8411 15.2737 11.0663C15.1611 11.1175 15.0587 11.1994 14.987 11.312C14.9154 11.4143 14.8744 11.5474 14.8642 11.6703C14.8642 11.7214 14.8642 11.7624 14.8642 11.7931C14.8847 12.1616 14.9154 12.5814 14.8335 13.0215C14.7004 13.7381 14.3933 14.2193 14.1681 14.5776C14.1681 14.5776 13.1239 16.0312 12.1719 16.3281L12.0695 16.3588L11.9569 16.3793C11.7726 16.41 11.5883 16.4305 11.3938 16.4305C11.3631 16.4305 11.3222 16.4305 11.2812 16.4305C11.2608 16.4305 11.23 16.4305 11.1993 16.4305C11.1584 16.4305 11.097 16.4305 11.0048 16.4407H10.9844H10.9639C10.5953 16.451 10.2575 16.4612 10.1551 16.4817C10.104 16.4919 10.0528 16.5022 10.0016 16.5226C9.49998 16.7376 8.79362 16.84 7.8211 16.84Z" stroke="url(#paint5_linear_209_205)" stroke-width="0.8575" stroke-miterlimit="10"/>
<path opacity="0.8" d="M7.82103 16.0005C7.26823 16.0005 6.71543 15.9596 6.24452 15.9289H6.22405H6.20357C6.07049 15.9084 5.94765 15.8982 5.83504 15.8879C5.43579 15.847 5.01607 15.7958 4.56564 15.591L4.53493 15.5808L4.50422 15.5706C3.63407 15.0792 3.30648 14.3524 2.99937 13.646C2.95842 13.5436 2.90724 13.4413 2.85605 13.3389C2.75368 13.1342 2.67179 12.9089 2.61036 12.694V12.6837V12.6735C2.3442 11.7419 2.41586 11.271 2.90724 10.5544L2.91748 10.5339L2.92771 10.5135C2.98913 10.4418 3.04032 10.3701 3.09151 10.3087C3.32696 10.0016 3.5317 9.73544 3.99237 9.30549C4.02308 9.27478 4.05379 9.23383 4.06403 9.18264C4.07426 9.14169 4.07426 9.09051 4.05379 9.04956L3.97189 8.81411C3.95142 8.74245 3.94118 8.66055 3.94118 8.58889V8.52747V8.47629C3.96166 7.96443 4.22782 7.56519 4.40185 7.29902C4.43256 7.25807 4.45304 7.21713 4.47351 7.18641L4.49398 7.1557L4.51446 7.12499C4.60659 7.00215 4.76015 6.64385 4.84204 6.42887C4.86252 6.35721 4.9137 6.18318 4.96489 6.0501C4.9956 5.94773 5.01607 5.84536 5.02631 5.74299C5.05702 5.48706 5.10821 5.23113 5.20034 4.99568V4.98545V4.97521C5.24129 4.87284 5.272 4.79094 5.29248 4.70904C5.36413 4.49407 5.44603 4.24838 5.67125 3.97198L5.7122 3.92079L5.75314 3.87984C6.24452 3.42941 6.78709 3.34751 7.19657 3.3168H7.20681H7.21704C7.23752 3.3168 7.26823 3.3168 7.2887 3.3168C7.69819 3.3168 8.0053 3.4806 8.21004 3.5932L8.26122 3.61368H8.27146C8.33289 3.64439 8.37383 3.6751 8.42502 3.69557C8.54786 3.757 8.70142 3.77747 8.8345 3.73652C9.12114 3.66486 9.56133 3.49083 9.84797 3.32704H9.85821C10.1653 3.14277 10.6362 2.87661 11.189 2.81519C11.2197 2.80495 11.2607 2.80495 11.2914 2.80495C11.3528 2.79471 11.4654 2.78448 11.5883 2.77424C11.8135 2.75376 12.1615 2.72305 12.5198 2.72305C13.0726 2.72305 13.5128 2.78448 13.8507 2.89708H13.8609H13.8711C14.6901 3.2042 14.9972 3.53178 15.3248 3.96174C15.4579 4.13577 15.591 4.29956 15.8367 4.51454L15.8571 4.53501L15.8776 4.55549C15.939 4.61691 16.0107 4.67833 16.0926 4.73976C16.2359 4.85236 16.4406 5.00592 16.6147 5.30279L16.6351 5.33351L16.6556 5.36422C16.9115 5.89654 16.8297 6.39816 16.7682 6.77693V6.80764C16.7273 7.0431 16.6659 7.26831 16.5635 7.49353C16.5123 7.61637 16.4714 7.74945 16.4509 7.88254C16.4406 7.96443 16.4304 8.02585 16.4202 8.07704L16.4099 8.11799C16.3895 8.31249 16.3485 8.49676 16.2871 8.68103C16.195 8.9779 16.0516 9.2543 15.8674 9.51023C15.5603 9.96066 15.2122 10.2371 14.7515 10.3804C14.5263 10.452 14.342 10.5954 14.2192 10.7899L14.1783 10.841L14.1373 10.8922C14.0247 11.0253 14.0554 11.5372 14.0759 11.8443C14.0964 12.1821 14.1168 12.5302 14.0554 12.8578C13.953 13.4208 13.7073 13.7996 13.4924 14.1271C13.4924 14.1271 12.6939 15.2839 11.967 15.4989L11.9159 15.5194L11.8647 15.5296C11.7316 15.5501 11.5883 15.5706 11.445 15.5706C11.4142 15.5706 11.3835 15.5706 11.3426 15.5706C11.3119 15.5706 11.2812 15.5706 11.2402 15.5706C11.189 15.5706 11.1174 15.5706 10.9945 15.5808H10.9843H10.974C10.4929 15.6013 10.196 15.6115 10.0322 15.6422C9.91963 15.6627 9.81726 15.6934 9.71489 15.7344C9.27469 15.9084 8.68095 16.0005 7.82103 16.0005Z" stroke="url(#paint6_linear_209_205)" stroke-width="0.8575" stroke-miterlimit="10"/>
</g>
</g>
</g>
<defs>
<radialGradient id="paint0_radial_209_205" cx="0" cy="0" r="1" gradientUnits="userSpaceOnUse" gradientTransform="translate(9.50037 10.4925) rotate(90) scale(10.6717)">
<stop offset="0.1667" stop-color="#073183"/>
<stop offset="1" stop-color="#0054F9"/>
</radialGradient>
<linearGradient id="paint1_linear_209_205" x1="-1.33047" y1="-2.13596" x2="20.4364" y2="20.7096" gradientUnits="userSpaceOnUse">
<stop offset="0.2057" stop-color="#89D0FF"/>
<stop offset="0.3984" stop-color="#EBBF9A"/>
<stop offset="0.6015" stop-color="#EB8280"/>
<stop offset="0.8411" stop-color="#A281FF"/>
</linearGradient>
<linearGradient id="paint2_linear_209_205" x1="-0.486418" y1="-1.15297" x2="19.5802" y2="19.9943" gradientUnits="userSpaceOnUse">
<stop offset="0.2057" stop-color="#89D0FF"/>
<stop offset="0.3984" stop-color="#EBBF9A"/>
<stop offset="0.6015" stop-color="#EB80DA"/>
<stop offset="0.8411" stop-color="#A281FF"/>
</linearGradient>
<linearGradient id="paint3_linear_209_205" x1="0.366116" y1="-0.303067" x2="18.7322" y2="19.1455" gradientUnits="userSpaceOnUse">
<stop offset="0.2057" stop-color="#89D0FF"/>
<stop offset="0.3984" stop-color="#EBBF9A"/>
<stop offset="0.6015" stop-color="#EB8280"/>
<stop offset="0.8411" stop-color="#A281FF"/>
</linearGradient>
<linearGradient id="paint4_linear_209_205" x1="1.21742" y1="0.549808" x2="17.8792" y2="18.2944" gradientUnits="userSpaceOnUse">
<stop offset="0.2057" stop-color="#89D0FF"/>
<stop offset="0.3984" stop-color="#EBBF9A"/>
<stop offset="0.6015" stop-color="#EB80E7"/>
<stop offset="0.8411" stop-color="#A281FF"/>
</linearGradient>
<linearGradient id="paint5_linear_209_205" x1="2.06379" y1="1.4043" x2="17.0244" y2="17.4436" gradientUnits="userSpaceOnUse">
<stop offset="0.2057" stop-color="#89D0FF"/>
<stop offset="0.3984" stop-color="#EBBF9A"/>
<stop offset="0.6015" stop-color="#EB80D3"/>
<stop offset="0.8411" stop-color="#A281FF"/>
</linearGradient>
<linearGradient id="paint6_linear_209_205" x1="2.92108" y1="2.24851" x2="16.1791" y2="16.5889" gradientUnits="userSpaceOnUse">
<stop offset="0.2057" stop-color="#89D0FF"/>
<stop offset="0.3984" stop-color="#EBBF9A"/>
<stop offset="0.6015" stop-color="#A280EB"/>
<stop offset="0.8411" stop-color="#A281FF"/>
</linearGradient>
<clipPath id="clip0_209_205">
<rect width="19" height="19" fill="white"/>
</clipPath>
</defs>
</svg>
