<svg xmlns="http://www.w3.org/2000/svg" width="19" height="19" fill="none"><g clip-path="url(#a)"><path fill="url(#b)" d="M19 9.5a9.5 9.5 0 1 0-19 0 9.5 9.5 0 0 0 19 0Z"/><path fill="#fff" d="M15.96 6.53c-.04.24-.08.35-.14.47-.07.15-.13.3-.19.63l-.05.3v.01c-.02.14-.03.23-.08.38-.04.14-.11.35-.29.58-.14.18-.38.5-.7.54l-.1-.01c-.9-.46-1.68-.8-1.94-.87-.3-.1-.27-.77-.24-1.36.02-.27.03-.53.02-.74-.04-.76-.17-1.58-.83-1.98-.38-.23-.9-.3-1.38-.3.1-.04.19-.1.3-.17.29-.16.63-.37 1-.4l.33-.05c.7-.08 1.32-.15 1.97.07.3.1.89.43 1.04.75.11.22.3.39.66.73l.4.36c.14.1.16.13.2.2.12.25.08.5.02.86ZM12.7 9.63c.03.01.06.06.02.1l-.33.59-.18.3c-.17.3-.18.56-.2.75 0 .22-.01.31-.15.4-.1.06-.21.08-.95.2a.58.58 0 0 0-.23.07c-.01 0-.03 0-.04.02-.04.02-.09-.02-.09-.06l.01-.41v-.39c-.02-.18-.02-.27.04-.35.06-.1.1-.13.18-.18.11-.07.27-.17.48-.47.12-.17.14-.26.16-.33.01-.03.01-.04.1-.11.1-.08.4-.3.77-.24.13.02.26.06.4.11ZM9.76 13.03c-.02.02-.03.03-.07.03-.08 0-.13-.02-.16-.06-.07-.1-.06-.28-.05-.39l.32-.08c.02.17.03.41-.04.5ZM9.78 11.9l-.01.16v.23c-.1.04-.19.04-.3.04v-.27c0-.06 0-.15.02-.19a.3.3 0 0 0 .1-.02c.05 0 .15-.03.2-.02l-.01.08ZM9.2 12.94c0 .16-.06.36-.21.39-.07 0-.1-.01-.12-.03-.1-.1-.12-.38-.1-.59.06 0 .15 0 .25-.03.06 0 .12-.03.17-.04.01.08.02.19.01.3ZM9.13 12.37l-.34.12.05-.44c.02-.08.04-.11.05-.12l.02-.01h.02l.21-.01v.46ZM8.58 12.26l-.05.3H8.1c.02-.14.06-.28.09-.38.04-.1.07-.18.11-.2.04-.02.14-.03.2.02.09.06.11.15.07.26ZM8.43 13.56c-.04.05-.08.08-.12.08-.05 0-.08-.01-.11-.03-.13-.13-.12-.53-.11-.72.17-.04.37-.07.46-.08 0 .15 0 .57-.12.75ZM7.87 12.53l-.05.15c-.05.02-.2 0-.36-.03l.1-.66c.18-.05.38-.06.42-.01.08.07-.06.4-.1.55ZM7.68 13.66c-.08.1-.2.15-.38.14-.12 0-.16-.05-.19-.08-.09-.16 0-.51.1-.74l.57.03.01.14c.01.18-.01.38-.11.5Z"/><path fill="#fff" d="M12.43 8.81c-.52-.14-.47-.9-.43-1.63 0-.26.03-.5.02-.71-.04-.69-.16-1.43-.7-1.77-.6-.36-1.57-.28-2.17-.2a1.9 1.9 0 0 1-.58.1 2.04 2.04 0 0 1-.87-.3c-.19-.1-.35-.2-.51-.2h-.02c-.46.04-.68.15-.87.32-.06.04-.12.17-.31.73-.1.29-.11.44-.13.58-.02.14-.04.28-.1.5-.06.14-.1.26-.13.38-.1.32-.17.58-.4.88l-.1.15-.2.3c-.07.08-.2.38-.19.47.01.16.06.25.11.35.05.1.13.23.14.4v.03c.02.27-.03.4-.53.85a5.5 5.5 0 0 0-.7.77c-.01.02 0 .04.03.04h.1a.5.5 0 0 1 .33.15c0 .03.04.03.06.02a.55.55 0 0 1 .26-.03c.1.01.21.05.28.12.02.02.05.03.08.02a.44.44 0 0 1 .26 0c.06.03.12.07.16.12a.1.1 0 0 0 .13.02l.08-.04a.48.48 0 0 1 .34.02c.05.02.1.03.15.07a.5.5 0 0 1 .17.24c.02.05.1.07.14.03.08-.06.14-.07.2-.05.03 0 .05.03.07.06.03.04.08.08.13.06a.74.74 0 0 1 .53.06c.05.03.11.07.14.13v-.03l.02-.03h.03c.08-.04.51-.16.68.01h.03l.05-.04c.11-.06.3-.07.42.04.02.02.06.01.08 0a.08.08 0 0 1 .04-.05c.04-.04.1-.05.17-.05h.23l.3-.04.1-.02c.1-.02.24-.05.34 0 .1.05.1.16.08.27v.18c0 .1 0 .17-.02.24l.01.05c.01.05.06.08.1.05a.85.85 0 0 0 .19-.16l.02-.08c0-.09.03-.26.03-.62v-.04l-.01-.34c-.01-.2-.02-.35.08-.5.1-.16.18-.2.28-.27.1-.06.21-.13.4-.4.1-.13.1-.18.12-.22.02-.1.05-.17.2-.27.13-.1.48-.37.98-.29.16.03.42.12.68.22h.04c.24.1.45.2.6.29.04.02.08 0 .1-.02.06-.07.11-.1.16-.14.02 0 .04-.02.05-.03H14c.04-.04.04-.12 0-.14-.7-.34-1.35-.54-1.56-.6Zm-4.94.16c-.16.7-1.25 1.47-1.74 1.47h-.08a.82.82 0 0 1-.3-.2.54.54 0 0 1-.14-.2v-.05a.71.71 0 0 1 .03-.51l.04-.1.01-.02a.5.5 0 0 1 .03-.07l.04-.1.01-.03c.04-.08.04-.11.05-.14a3.04 3.04 0 0 0 .08-.44c.02-.18.05-.33.14-.47l.05-.06.02-.02.02-.02c.02-.03.05-.04.07-.05h.04l.06-.03c.09-.02.2-.02.31 0a1.74 1.74 0 0 1 .6.14h.02c0 .02.02.02.04.03.02 0 .03 0 .05.02l.06.03h.02l.2.12.07.06.02.02.02.02c.21.19.2.44.16.6Zm.52-2.65-.03.12c-.05.29-.16.67-.57.78-.4.09-.49.11-.77.13h-.02c-.2 0-.6-.13-.67-.45-.04-.2.05-.36.2-.6.01-.05.04-.09.07-.14.2-.34.28-.58.34-.78.06-.19.11-.34.25-.48a.4.4 0 0 1 .1-.08l.08-.05.12-.05c.1-.03.2-.04.3-.04.19 0 .38.05.51.16.06.05.16.15.2.44.03.16-.01.43-.11 1.04Zm2.93.82c-.14.24-.21.37-.33.48-.25.2-.53.24-.76.24-.17 0-.3-.03-.4-.04-.25-.04-.69-.12-.84-.48-.03-.07-.03-.11-.03-.17 0-.06 0-.16-.03-.37v-.01c-.01-.1-.02-.22 0-.36V6.4c.08-.43.11-.5.12-.53a.17.17 0 0 1 .24-.08c.08.05.1.15.08.23l-.1.45v.02c-.02.1-.01.16 0 .26.03.25.03.35.03.42v.03c.03.08.09.12.16.16.05.02.1-.02.1-.07-.08-.38-.08-.82.06-1.1a43.44 43.44 0 0 1 .24-.42l.02-.03.1-.16.01-.02.01-.01.02-.03.01-.01.01-.01.01-.02a.85.85 0 0 0 .09-.13c.04-.05-.01-.1-.07-.09-.14.06-.23.14-.25.15a.17.17 0 0 1-.25-.04.17.17 0 0 1 .03-.24c.1-.07.57-.41 1.13-.26.4.12.61.43.7.55.06.09.26.37.25.78 0 .3-.12.53-.36.93Z"/><path fill="#fff" d="m7.28 5.04-.1.24a5.9 5.9 0 0 1-.58 1.15 1.1 1.1 0 0 0-.03.58c-.11 0-.28-.08-.3-.18-.02-.07.03-.15.15-.36l.08-.13c.22-.37.3-.65.37-.85.07-.22.1-.31.21-.4a.84.84 0 0 1 .2-.05ZM7.06 12.78c-.12.24-.26.47-.35.58a2.6 2.6 0 0 1-.18-1.07v-.03a.65.65 0 0 1 .1-.31c.04-.06.15-.1.26-.1.08 0 .17.03.26.07.04.02.1.07.1.2.02.19-.07.43-.19.66Z"/><path fill="#fff" d="M13.62 10.04v.03c-.03.07-.08.13-.13.19-.06.07-.13.15-.2.28-.08.19-.11.35-.13.78-.02.5 0 .78.03.98 0 .2.02.32-.01.52-.08.39-.24.64-.46.97-.26.4-.53.83-.98.96l-.16.01-.6.01c-.59.02-.89.03-1.13.08-.27.06-.4.12-.54.17-.13.05-.24.09-.45.14-.14.03-.33.05-1 .06-.7 0-1.11 0-1.66-.06a4.36 4.36 0 0 1-1.39-.27c-.6-.31-.85-.89-1.26-1.83l.02-.02.06.03.06.01H3.85c.03.07.07.14.14.18.07.04.16.04.23.04l.24-.02c.04 0 .09.02.1.05.08.18.17.3.31.33h.03c.03 0 .09-.01.15-.05.05-.05.13-.02.17.04.03.05.07.08.11.1.15.15.5.22.78.22.16 0 .3-.02.38-.06.12-.06.12-.14.11-.18l-.03-.2h.01c.02.04.04.09.1.1h.02c.08 0 .2.03.22.1l.05.11a.4.4 0 0 0 .34.17c.23 0 .4-.07.52-.21l.02-.03c.04-.06.17-.06.22-.01.06.05.13.08.21.08h.04c.1-.01.19-.06.26-.15a.68.68 0 0 0 .1-.22c0-.02.03-.03.05 0a.3.3 0 0 0 .22.07h.08c.2-.05.3-.21.34-.39.06.07.15.14.3.14h.02c.09 0 .16-.04.2-.1.07-.09.1-.2.1-.32 0-.03.02-.06.06-.08.17-.08.37-.23.43-.33l.01-.01c.01-.03.04-.05.06-.05.14-.02.19-.05.24-.07a.6.6 0 0 1 .17-.06c.75-.1.9-.14 1.06-.24.24-.17.25-.39.26-.6.01-.19.02-.4.17-.64l.17-.32c.11-.2.27-.49.38-.64a.07.07 0 0 1 .1-.02c.25.09.47.2.52.23Z"/><path fill="#fff" d="M6.35 12.27a4.96 4.96 0 0 0 .04 1.45c-.03.02-.15.05-.33.04-.27-.01-.53-.07-.61-.17h-.01c-.07-.06-.12-.1-.12-.19 0-.03.01-.06.04-.11a.36.36 0 0 0 .07-.1l.16-.23c.17-.29.23-.38.32-.5l.02-.02.2-.28c.05-.1.1-.17.16-.23l.15-.19-.02.17c-.04.12-.06.23-.07.36ZM6.21 8.24c0 .01 0 .01 0 0-.04.05-.08.11-.13.22-.13.28-.13.45-.13.58 0 .07 0 .12-.02.18a.55.55 0 0 1-.06.15c-.08.17-.18.4-.14.7a.64.64 0 0 1-.17-.13l-.01-.05a.44.44 0 0 1 .02-.3c.16-.37.18-.46.2-.56v-.07l.07-.37a.74.74 0 0 1 .09-.33c.02-.03.07-.04.14-.04l.1.01h.01l.03.01ZM6 11.9a.84.84 0 0 0-.05-.27l-.01-.03-.02-.03-.01-.01-.02-.01-.01-.01-.02-.01h-.01c-.06-.02-.1-.04-.17-.05H5.6l-.02.02h-.01l-.02.03h-.01v.02l-.06.09-.16.22-.14.21-.08.11-.01.02.09.02.2.03c.15.02.3.03.44.02h.03l.13-.19a.85.85 0 0 0 .08-.12c-.03-.01-.04-.04-.04-.06ZM5.49 12.5c-.01.11-.14.4-.33.68-.16.22-.27.28-.29.28-.08 0-.15-.2-.21-.4l-.06-.22a1.52 1.52 0 0 1-.04-.47c.16.09.45.1.86.1.02.02.05.02.07.03ZM5.2 11.58l-.21.32-.12.15-.07.1-.17-.05-.15-.05-.03-.01-.03-.04.05-.1.1-.19c.07-.1.14-.21.25-.29h.02c.04-.03.08-.05.14-.06h.08l.04.01v.01l.04.02c-.02 0 .02.03.02.02l.04.16ZM4.65 11.28c-.14.1-.23.25-.3.4l-.12.25-.01.02-.11-.03-.13-.04-.05-.04.13-.21.2-.28.1-.09a.2.2 0 0 1 .13 0l.15.01v.01ZM4.44 13.02l-.02.02-.1.01h-.18a.12.12 0 0 1-.09-.03c-.02-.03-.03-.1-.04-.13A2.5 2.5 0 0 1 4 12.2l.36.1c-.03.2.02.5.04.58.03.04.04.1.05.13ZM4.07 11.21c-.1.12-.19.26-.27.4l-.1.17a.38.38 0 0 1-.12-.05l-.08-.06-.04-.03-.01-.01.03-.07.07-.14c.05-.08.1-.16.17-.24.02-.03.04-.06.08-.07h.1c.06 0 .12.05.17.1ZM3.29 11.75l.1.1c.03.01.04.04.06.05a2.39 2.39 0 0 0-.08.55 2.27 2.27 0 0 1-.08-.7ZM3.79 12.13c-.02.15-.03.3-.02.46 0 .08 0 .17.02.26H3.7l-.05-.02-.06-.07a.47.47 0 0 1-.05-.24c0-.15.01-.32.04-.47l.09.03.1.05Z"/><mask id="c" width="19" height="19" x="0" y="0" maskUnits="userSpaceOnUse" style="mask-type:luminance"><path fill="#fff" d="M19 9.5a9.5 9.5 0 1 0-19 0 9.5 9.5 0 0 0 19 0Z"/></mask><g stroke-miterlimit="10" mask="url(#c)" opacity=".8"><path stroke="url(#d)" stroke-width="1.06" d="M7.82 20.12c-.7 0-1.35-.05-1.9-.09h-.16L5.61 20a8.35 8.35 0 0 0-.25-.03c-.53-.06-1.52-.16-2.62-.67l-.17-.09-.15-.09C.3 17.94-.48 16.16-.9 15.22L-1 15a7.85 7.85 0 0 1-.45-1.2l-.02-.08-.02-.08a6.91 6.91 0 0 1-.25-2.95A6.3 6.3 0 0 1-.66 8.04l.31-.5c.06-.1.1-.22.13-.33.24-1.17.77-2 1.04-2.4.07-.48.2-.95.36-1.41l.02-.07.03-.07c0-.01 0-.04.02-.07.12-.35.4-1.18 1.1-2.06l.27-.31.28-.25a6.26 6.26 0 0 1 3.99-1.64H7.01l.27-.02c.33 0 .65.04.98.09.2.03.41 0 .6-.07a6.92 6.92 0 0 1 1.76-.48c.05 0 .09 0 .13-.02.1 0 .24-.03.43-.05.32-.03.8-.07 1.33-.07 1.03 0 1.92.13 2.72.41l.07.02.07.02a7.17 7.17 0 0 1 3.3 2.4l.02.05.1.08a6.21 6.21 0 0 1 1.46 1.64l.12.2.1.2c.86 1.75.59 3.38.49 3.98l-.02.03c-.07.45-.19.9-.34 1.32a7.04 7.04 0 0 1-2.12 4.15.66.66 0 0 0-.2.4l-.05.27a7.42 7.42 0 0 1-1.08 2.67l-.73 1.05a6.42 6.42 0 0 1-3.18 2.2l-.31.1-.33.05c-.38.07-.76.1-1.14.1h-.32c-.15 0-.29.04-.43.08-.84.26-1.76.39-2.89.39Z" opacity=".8"/><path stroke="url(#e)" stroke-width="1.06" d="M7.82 19.39c-.66 0-1.3-.04-1.84-.08l-.12-.01-.13-.02-.26-.03a6.93 6.93 0 0 1-2.35-.6l-.14-.08-.13-.07C.97 17.46.29 15.92-.12 15l-.1-.22c-.2-.39-.32-.76-.42-1.08l-.03-.07-.02-.07a6.12 6.12 0 0 1-.21-2.6c.12-.8.43-1.54.96-2.32L.46 8a1 1 0 0 0 .14-.38c.2-1.1.72-1.89.96-2.25l.03-.04v-.02l.02-.03c0-.05.03-.09.04-.13.06-.45.17-.9.33-1.33L2 3.76l.02-.06c0-.02 0-.05.03-.1.11-.34.35-1.05.96-1.8l.22-.27.23-.2A5.33 5.33 0 0 1 6.94-.1h.1l.23-.01c.34 0 .66-.1 1-.03.25.05.5.02.74-.09.44-.19 1.03-.26 1.7-.35l.13-.02.4-.04c.3-.04.76-.07 1.26-.07.94 0 1.74.13 2.45.36l.06.02.05.02a6.26 6.26 0 0 1 2.93 2.14l.08.1v.02l.12.1.01.02c.52.4.96.89 1.3 1.44l.1.17.09.17a5.5 5.5 0 0 1 .4 3.47v.03c-.08.43-.19.84-.34 1.25a6.22 6.22 0 0 1-1.15 2.88c-.26.36-.56.7-.89 1a.85.85 0 0 0-.28.54l-.06.45a6.37 6.37 0 0 1-.98 2.39l-.6.86a5.63 5.63 0 0 1-2.84 2.01l-.26.09-.27.05c-.33.06-.67.09-1 .08h-.46c-.15 0-.3.03-.46.08-.74.25-1.61.36-2.68.36Z" opacity=".8"/><path stroke="url(#f)" stroke-width=".99" d="M7.82 18.54c-.63 0-1.26-.04-1.78-.08l-.1-.01-.1-.01-.3-.03a6.03 6.03 0 0 1-2.08-.54l-.11-.05-.1-.06a5.97 5.97 0 0 1-2.6-3.11l-.1-.24a6 6 0 0 1-.38-.98l-.02-.05v-.05a5.23 5.23 0 0 1-.2-2.23c.1-.69.38-1.33.85-2.02L.86 9l.06-.08.11-.15.24-.44c.08-.14.13-.3.15-.46.16-.98.63-1.69.84-2.01l.04-.06.05-.07.07-.15.07-.24c.05-.42.15-.83.3-1.22l.01-.06.03-.05c0-.04.03-.07.05-.14.1-.32.3-.9.82-1.54l.17-.21.18-.16A4.65 4.65 0 0 1 7.03.74h.28c.35 0 .69.04 1.02.13.29.07.6.04.86-.1.43-.2 1-.42 1.67-.5l.11-.02c.09-.01.22-.04.38-.05.28-.03.72-.06 1.18-.06.84 0 1.55.1 2.17.32l.04.02.04.02a5.36 5.36 0 0 1 2.56 1.87c.11.14.12.16.2.23l.09.08.03.04c.23.19.72.57 1.14 1.25l.08.14.07.13c.62 1.26.43 2.4.34 2.96l-.01.03c-.07.4-.18.8-.34 1.17v.04a5.25 5.25 0 0 1-1 2.55c-.28.4-.62.76-1 1.07a.77.77 0 0 0-.21.27.92.92 0 0 0-.1.32c0 .23-.04.45-.08.68a5.88 5.88 0 0 1-.87 2.1l-.46.68a4.83 4.83 0 0 1-2.5 1.83l-.2.06-.23.04c-.27.05-.56.07-.84.07H11.06l-.24.01c-.16.01-.33.03-.48.1-.7.22-1.52.32-2.53.32Z" opacity=".8"/><path stroke="url(#g)" stroke-width=".92" d="M7.82 17.69c-.6 0-1.2-.04-1.7-.08l-.08-.01-.07-.01-.32-.04a5.57 5.57 0 0 1-1.81-.45l-.08-.05-.08-.04c-1.37-.76-1.87-1.89-2.24-2.7A6.5 6.5 0 0 1 1 13.17v-.05l-.04-.03c-.4-1.4-.24-2.4.53-3.54l.05-.06.04-.06.15-.2c.07-.09.14-.19.23-.28.05-.06.09-.14.12-.2l.09-.23c.04-.1.06-.2.07-.31.08-.91.52-1.57.74-1.9.02-.01.04-.05.05-.07l.05-.08.02-.02c.03-.05.08-.17.12-.3l.1-.32v-.01c.05-.38.14-.76.27-1.12l.01-.03.01-.03.06-.18c.1-.28.25-.75.67-1.27l.13-.17.14-.12c.99-.9 2.1-.97 2.46-1h.22c.44 0 .87.09 1.28.26.07.03.15.04.22.04.09 0 .16-.02.23-.06.38-.21 1.06-.61 1.94-.71l.12-.01.34-.05c.27-.02.67-.05 1.1-.05.75 0 1.36.1 1.88.27l.03.01.03.01a4.53 4.53 0 0 1 2.2 1.6c.1.15.17.21.3.34l.06.06.06.06.04.03c.2.16.59.46.94 1.02l.06.1.05.1c.5 1.03.34 1.95.26 2.44v.03c-.07.36-.17.72-.31 1.06l-.01.03-.01.03-.01.1-.01.03a4.59 4.59 0 0 1-1.8 3.15c-.16.12-.28.26-.37.44-.1.17-.13.35-.13.55a4.82 4.82 0 0 1-.84 2.55l-.34.5c-.6.83-1.3 1.36-2.15 1.63h-.04c-.07.03-.15.05-.22.06h-.05c-.23.05-.47.07-.7.07h-.4l-.38.01c-.18.01-.34.04-.5.1-.62.19-1.37.29-2.33.29Z" opacity=".8"/><path stroke="url(#h)" stroke-width=".86" d="M7.82 16.84c-.58 0-1.16-.04-1.65-.08h-.05l-.05-.01-.35-.04c-.43-.05-.96-.1-1.53-.38l-.06-.03-.06-.03a4.33 4.33 0 0 1-1.86-2.33 5.21 5.21 0 0 1-.42-1.04v-.03l-.02-.03c-.33-1.17-.21-1.9.42-2.83l.03-.04.03-.04.16-.2c.16-.22.32-.43.56-.7a.38.38 0 0 0 .1-.2V8.41c.01-.75.39-1.32.6-1.62l.06-.1.03-.05.03-.04c.04-.06.13-.27.21-.47.03-.08.07-.24.13-.38l.02-.14c.03-.32.1-.63.21-.93l.01-.02.01-.02.08-.23c.09-.24.2-.6.53-1l.09-.11.09-.09c.7-.62 1.44-.74 1.95-.77H7.27c.44 0 .96.2 1.24.33.06.03.13.06.2.06s.15-.01.22-.04c.17-.06.33-.13.49-.21.35-.2.92-.53 1.64-.61l.1-.01.33-.05c.24-.02.61-.05 1-.05.65 0 1.19.07 1.62.23h.02l.02.02c1.02.39 1.43.83 1.82 1.33.12.16.21.28.4.44l.04.04.04.04.12.1c.18.14.47.37.73.8l.04.06.03.08c.38.76.26 1.49.19 1.92v.03c-.05.3-.14.58-.26.86a1.44 1.44 0 0 0-.1.37v.04a3.93 3.93 0 0 1-.7 1.78c-.35.5-.75.84-1.23 1.07a.66.66 0 0 0-.28.24.75.75 0 0 0-.13.36v.12c.02.37.06.8-.03 1.23-.13.72-.44 1.2-.66 1.56 0 0-1.05 1.45-2 1.75l-.1.03-.11.02c-.19.03-.37.05-.57.05h-.2l-.19.01h-.04a8.69 8.69 0 0 0-.96.08c-.5.22-1.2.32-2.18.32Z" opacity=".8"/><path stroke="url(#i)" stroke-width=".86" d="M7.82 16c-.55 0-1.1-.04-1.58-.07H6.2l-.36-.04c-.4-.04-.82-.1-1.27-.3h-.04l-.03-.02c-.87-.5-1.2-1.22-1.5-1.92l-.14-.31a3.8 3.8 0 0 1-.25-.65v-.02c-.27-.93-.2-1.4.3-2.12v-.02l.02-.02.16-.2c.24-.3.44-.57.9-1a.25.25 0 0 0 .07-.13.2.2 0 0 0 0-.13l-.09-.24a.85.85 0 0 1-.03-.22v-.11c.02-.52.29-.91.46-1.18l.07-.11.02-.03.02-.04a4.05 4.05 0 0 0 .52-1.38c.03-.25.08-.5.17-.74v-.02l.1-.27c.06-.22.15-.46.37-.74l.04-.05.04-.04c.5-.45 1.04-.53 1.45-.56H7.3c.4 0 .72.16.92.27l.05.02h.01c.06.03.1.07.16.09.12.06.27.08.4.04.3-.08.73-.25 1.02-.41.32-.19.79-.45 1.34-.51.03-.02.07-.02.1-.02l.3-.03c.22-.02.57-.05.93-.05.55 0 1 .06 1.33.18h.02c.82.3 1.13.63 1.45 1.06.14.18.27.34.52.55l.02.03.02.02a2 2 0 0 0 .21.18c.15.11.35.27.52.56l.03.03.02.03c.25.54.17 1.04.1 1.42v.03c-.03.23-.1.46-.2.68-.05.13-.09.26-.1.4l-.04.19-.01.04a2.88 2.88 0 0 1-.54 1.4c-.31.44-.66.72-1.12.86a.97.97 0 0 0-.53.41l-.04.05-.04.05c-.12.14-.08.65-.06.95.02.34.04.69-.02 1.02-.1.56-.35.94-.57 1.27 0 0-.8 1.15-1.52 1.37l-.05.02-.06.01c-.13.02-.27.04-.41.04H11.23l-.25.01h-.02c-.48.02-.77.03-.94.06a5.2 5.2 0 0 1-2.21.36Z" opacity=".8"/></g></g><defs><linearGradient id="d" x1="-1.33" x2="20.44" y1="-2.14" y2="20.71" gradientUnits="userSpaceOnUse"><stop offset=".21" stop-color="#89D0FF"/><stop offset=".4" stop-color="#EBBF9A"/><stop offset=".6" stop-color="#EB8280"/><stop offset=".84" stop-color="#A281FF"/></linearGradient><linearGradient id="e" x1="-.49" x2="19.58" y1="-1.15" y2="19.99" gradientUnits="userSpaceOnUse"><stop offset=".21" stop-color="#89D0FF"/><stop offset=".4" stop-color="#EBBF9A"/><stop offset=".6" stop-color="#EB80DA"/><stop offset=".84" stop-color="#A281FF"/></linearGradient><linearGradient id="f" x1=".37" x2="18.73" y1="-.3" y2="19.15" gradientUnits="userSpaceOnUse"><stop offset=".21" stop-color="#89D0FF"/><stop offset=".4" stop-color="#EBBF9A"/><stop offset=".6" stop-color="#EB8280"/><stop offset=".84" stop-color="#A281FF"/></linearGradient><linearGradient id="g" x1="1.22" x2="17.88" y1=".55" y2="18.29" gradientUnits="userSpaceOnUse"><stop offset=".21" stop-color="#89D0FF"/><stop offset=".4" stop-color="#EBBF9A"/><stop offset=".6" stop-color="#EB80E7"/><stop offset=".84" stop-color="#A281FF"/></linearGradient><linearGradient id="h" x1="2.06" x2="17.02" y1="1.4" y2="17.44" gradientUnits="userSpaceOnUse"><stop offset=".21" stop-color="#89D0FF"/><stop offset=".4" stop-color="#EBBF9A"/><stop offset=".6" stop-color="#EB80D3"/><stop offset=".84" stop-color="#A281FF"/></linearGradient><linearGradient id="i" x1="2.92" x2="16.18" y1="2.25" y2="16.59" gradientUnits="userSpaceOnUse"><stop offset=".21" stop-color="#89D0FF"/><stop offset=".4" stop-color="#EBBF9A"/><stop offset=".6" stop-color="#A280EB"/><stop offset=".84" stop-color="#A281FF"/></linearGradient><radialGradient id="b" cx="0" cy="0" r="1" gradientTransform="rotate(90 -.5 10) scale(10.6717)" gradientUnits="userSpaceOnUse"><stop offset=".17" stop-color="#073183"/><stop offset="1" stop-color="#0054F9"/></radialGradient><clipPath id="a"><path fill="#fff" d="M0 0h19v19H0z"/></clipPath></defs></svg>