<svg xmlns="http://www.w3.org/2000/svg" width="21" height="21" fill="none"><g clip-path="url(#a)"><path fill="#213147" d="M1.9 6.38v8.24c0 .53.28 1 .74 1.27l7.13 4.12c.45.26 1.02.26 1.47 0l7.13-4.12c.45-.26.74-.74.74-1.27V6.38c0-.53-.28-1-.74-1.27L11.24.99a1.48 1.48 0 0 0-1.47 0L2.64 5.11c-.46.26-.73.74-.73 1.27H1.9Z"/><path fill="#12AAFF" d="m12.05 12.1-1.01 2.78a.4.4 0 0 0 0 .25l1.74 4.8 2.03-1.17-2.43-6.66a.18.18 0 0 0-.33 0ZM14.1 7.4a.18.18 0 0 0-.33 0l-1.02 2.8a.4.4 0 0 0 0 .24l2.87 7.86 2.02-1.17-3.54-9.71V7.4Z"/><path fill="#9DCCED" d="M10.5 1.3c.05 0 .1.02.14.04l7.71 4.46c.1.05.15.15.15.25v8.9c0 .1-.06.2-.15.25l-7.7 4.46a.28.28 0 0 1-.15.04.28.28 0 0 1-.14-.04L2.65 15.2a.29.29 0 0 1-.15-.25V6.04c0-.1.06-.2.15-.25l7.7-4.45c.05-.03.1-.05.15-.05v.01Zm0-1.3c-.28 0-.55.07-.8.21L2 4.66c-.5.29-.8.8-.8 1.38v8.9c0 .57.3 1.1.8 1.38l7.7 4.45c.25.15.52.21.8.21s.55-.06.8-.2l7.7-4.46c.5-.28.8-.8.8-1.38v-8.9c0-.57-.3-1.1-.8-1.38L11.3.21a1.58 1.58 0 0 0-.8-.21h.01Z"/><path fill="#213147" d="m5.4 18.3.7-1.95 1.43 1.19-1.33 1.23-.8-.47Z"/><path fill="#fff" d="M9.84 5.41H7.9c-.15 0-.28.1-.33.23l-4.2 11.49L5.4 18.3l4.62-12.66a.17.17 0 0 0-.16-.24v.01ZM13.27 5.41h-1.96c-.14 0-.27.1-.32.23l-4.8 13.12 2.03 1.16 5.21-14.28a.17.17 0 0 0-.16-.24v.01Z"/></g><defs><clipPath id="a"><path fill="#fff" d="M0 0h21v21H0z"/></clipPath></defs></svg>