<svg xmlns="http://www.w3.org/2000/svg" width="18" height="18" fill="none"><g clip-path="url(#a)"><path fill="#fff" d="M14.55 3.09H3.44v10.1h11.11V3.09Z"/><path fill="#E84142" fill-rule="evenodd" d="M18 9A9 9 0 1 1 0 9 9 9 0 0 1 18 9ZM6.44 12.58H4.71c-.37 0-.55 0-.66-.07a.44.44 0 0 1-.2-.35c-.01-.13.08-.29.26-.6l4.31-7.6c.18-.32.28-.48.4-.54a.44.44 0 0 1 .4 0c.11.06.2.22.39.54l.89 1.55c.2.35.3.53.34.7.05.21.05.42 0 .62a2.9 2.9 0 0 1-.34.72l-2.27 4c-.2.35-.3.53-.44.66-.15.15-.34.26-.54.32-.18.05-.39.05-.8.05Zm4.4 0h2.51c.37 0 .55 0 .67-.08.11-.07.19-.2.2-.34 0-.13-.09-.28-.26-.58l-.02-.03L12.7 9.4l-.01-.02c-.18-.3-.27-.45-.38-.5a.44.44 0 0 0-.4 0c-.12.05-.21.21-.4.53l-1.24 2.14c-.19.32-.28.48-.27.6 0 .15.08.28.2.36.1.07.29.07.66.07Z" clip-rule="evenodd"/></g><defs><clipPath id="a"><path fill="#fff" d="M0 0h18v18H0z"/></clipPath></defs></svg>