<svg xmlns="http://www.w3.org/2000/svg" width="18" height="18" fill="none"><g clip-path="url(#a)"><path fill="#0AC18E" d="M9 18A9 9 0 1 0 9 0a9 9 0 0 0 0 18Z"/><path fill="#fff" d="M11.8 5.98c-.44-1.03-1.48-1.25-2.76-1.03l-.4-1.59-.97.25.4 1.58c-.25.06-.51.12-.77.2L6.9 3.8l-.97.25.41 1.58-1.94.5.26 1.04s.71-.2.7-.18c.4-.1.58.1.67.28l1.12 4.34c.02.13 0 .34-.28.42l-.7.18.1 1.2 1.96-.5.4 1.6.97-.24-.41-1.62.77-.19.42 1.6.96-.24-.41-1.6c1.48-.37 2.53-1.3 2.31-2.73-.13-.87-1.08-1.58-1.86-1.66.48-.42.73-1.05.43-1.86Zm-.46 3.78c.2 1.42-1.78 1.6-2.43 1.76L8.35 9.4c.65-.17 2.67-.9 3 .36Zm-1.18-2.9c.2 1.27-1.49 1.42-2.03 1.56l-.52-1.93c.55-.14 2.13-.79 2.55.38Z"/></g><defs><clipPath id="a"><path fill="#fff" d="M0 0h18v18H0z"/></clipPath></defs></svg>