<svg width="32" height="33" viewBox="0 0 32 33" fill="none" xmlns="http://www.w3.org/2000/svg">
<g clip-path="url(#clip0_1209_8074)">
<path d="M31.5212 20.3705C29.3841 28.942 20.7016 34.1584 12.1281 32.021C3.55818 29.8841 -1.65886 21.202 0.47923 12.6312C2.61545 4.0587 11.298 -1.15814 19.8688 0.978775C28.4417 3.11569 33.6584 11.7987 31.521 20.3706L31.5212 20.3705H31.5212Z" fill="#F7931A"/>
<path d="M23.0561 14.2204C23.3746 12.0912 21.7534 10.9466 19.5364 10.1831L20.2556 7.29885L18.4997 6.86137L17.7996 9.66969C17.3379 9.55457 16.8639 9.44609 16.3927 9.33856L17.0979 6.51171L15.3431 6.07422L14.6235 8.95754C14.2415 8.87057 13.8663 8.78462 13.5023 8.69406L13.5043 8.68499L11.0828 8.08037L10.6157 9.95561C10.6157 9.95561 11.9185 10.2542 11.891 10.2726C12.6021 10.45 12.7307 10.9207 12.7093 11.2937L11.8901 14.5796C11.9391 14.592 12.0026 14.61 12.0726 14.6381C12.0141 14.6236 11.9517 14.6077 11.887 14.5922L10.7388 19.1952C10.6519 19.4112 10.4313 19.7354 9.93416 19.6123C9.95176 19.6378 8.65792 19.2939 8.65792 19.2939L7.78613 21.3036L10.0712 21.8732C10.4963 21.9798 10.9129 22.0913 11.3231 22.1962L10.5965 25.1135L12.3504 25.551L13.07 22.6646C13.5491 22.7947 14.0141 22.9147 14.4693 23.0278L13.7522 25.9005L15.5082 26.338L16.2347 23.4261C19.229 23.9927 21.4804 23.7643 22.428 21.0563C23.1917 18.8761 22.39 17.6185 20.8148 16.7984C21.9621 16.5339 22.8263 15.7793 23.0567 14.2207L23.0562 14.2203L23.0561 14.2204ZM19.0442 19.8455C18.5016 22.0258 14.8303 20.8472 13.64 20.5517L14.6042 16.6867C15.7944 16.9838 19.6114 17.5718 19.0443 19.8455H19.0442ZM19.5873 14.1888C19.0922 16.172 16.0366 15.1645 15.0454 14.9174L15.9196 11.4121C16.9108 11.6592 20.1029 12.1203 19.5874 14.1888H19.5873Z" fill="white"/>
</g>
<defs>
<clipPath id="clip0_1209_8074">
<rect width="32" height="32" fill="white" transform="translate(0 0.5)"/>
</clipPath>
</defs>
</svg>
