<svg xmlns="http://www.w3.org/2000/svg" width="16" height="21" fill="none"><mask id="a" width="14" height="14" x="1" y="4" maskUnits="userSpaceOnUse" style="mask-type:luminance"><path fill="#fff" d="M14.44 4H1v13.68h13.44V4Z"/></mask><g mask="url(#a)"><path fill="#F7931A" d="M14.24 12.5a6.71 6.71 0 0 1-8.15 4.98 6.85 6.85 0 0 1-4.89-8.3A6.71 6.71 0 0 1 9.34 4.2c3.6.92 5.8 4.63 4.9 8.3Z"/><path fill="#fff" d="M10.68 9.87c.14-.91-.55-1.4-1.48-1.73l.3-1.23-.73-.19-.3 1.2-.59-.14.3-1.21-.74-.19-.3 1.24-.47-.12-1.02-.26-.2.8s.55.13.54.14c.3.07.36.28.35.43l-.35 1.41a.6.6 0 0 1 .08.02l-.08-.01-.48 1.96c-.04.1-.13.23-.34.18l-.53-.13-.37.85.96.25.52.14-.3 1.24.74.2.3-1.24.59.15-.3 1.23.73.19.3-1.25c1.26.24 2.21.15 2.6-1.01.33-.93 0-1.47-.67-1.82.48-.11.85-.44.94-1.1ZM9 12.27c-.23.93-1.77.43-2.27.3l.4-1.65c.5.13 2.1.38 1.87 1.35Zm.23-2.42c-.21.85-1.5.42-1.91.31l.36-1.5c.42.11 1.76.3 1.55 1.2Z"/></g></svg>