<svg xmlns="http://www.w3.org/2000/svg" width="14" height="14" fill="none"><g clip-path="url(#a)"><g filter="url(#b)"><path fill="#000" d="M7 13.13A6.56 6.56 0 1 0 7 0a6.56 6.56 0 0 0 0 13.13Z"/></g><path fill="#F3BA2F" d="M7 13.13A6.56 6.56 0 1 0 7 0a6.56 6.56 0 0 0 0 13.13Z"/><path fill="url(#c)" d="M7 13.13A6.56 6.56 0 1 0 7 0a6.56 6.56 0 0 0 0 13.13Z" style="mix-blend-mode:soft-light"/><path stroke="#000" stroke-opacity=".1" d="M7 12.9A6.34 6.34 0 1 0 7 .23 6.34 6.34 0 0 0 7 12.9Z"/><g filter="url(#d)"><path fill="#000" d="M5.3 5.86 7 4.16l1.7 1.7.99-.98L7 2.18l-2.69 2.7 1 .98Zm-2.67.7.98-.99 1 1-1 .98-.98-.99Zm2.67.7L7 8.96l1.7-1.7.99.99L7 10.94 4.31 8.25l1-.99Zm4.1-.7.99-.99.98 1-.98.98-1-.99Zm-1.4 0-1 1-1-1 .17-.17.09-.09.74-.74 1 1Z"/></g><path fill="#fff" d="M5.3 5.86 7 4.16l1.7 1.7.99-.98L7 2.18l-2.69 2.7 1 .98Zm-2.67.7.98-.99 1 1-1 .98-.98-.99Zm2.67.7L7 8.96l1.7-1.7.99.99L7 10.94 4.31 8.25l1-.99Zm4.1-.7.99-.99.98 1-.98.98-1-.99Zm-1.4 0-1 1-1-1 .17-.17.09-.09.74-.74 1 1Z"/></g><defs><filter id="b" width="15.13" height="15.13" x="-.56" y="-.5" color-interpolation-filters="sRGB" filterUnits="userSpaceOnUse"><feFlood flood-opacity="0" result="BackgroundImageFix"/><feColorMatrix in="SourceAlpha" result="hardAlpha" values="0 0 0 0 0 0 0 0 0 0 0 0 0 0 0 0 0 0 127 0"/><feOffset dy=".5"/><feGaussianBlur stdDeviation=".5"/><feComposite in2="hardAlpha" operator="out"/><feColorMatrix values="0 0 0 0 0 0 0 0 0 0 0 0 0 0 0 0 0 0 0.199474 0"/><feBlend in2="BackgroundImageFix" result="effect1_dropShadow_209_143"/><feBlend in="SourceGraphic" in2="effect1_dropShadow_209_143" result="shape"/></filter><filter id="d" width="10.75" height="10.75" x="1.63" y="1.69" color-interpolation-filters="sRGB" filterUnits="userSpaceOnUse"><feFlood flood-opacity="0" result="BackgroundImageFix"/><feColorMatrix in="SourceAlpha" result="hardAlpha" values="0 0 0 0 0 0 0 0 0 0 0 0 0 0 0 0 0 0 127 0"/><feOffset dy=".5"/><feGaussianBlur stdDeviation=".5"/><feColorMatrix values="0 0 0 0 0 0 0 0 0 0 0 0 0 0 0 0 0 0 0.204257 0"/><feBlend in2="BackgroundImageFix" result="effect1_dropShadow_209_143"/><feBlend in="SourceGraphic" in2="effect1_dropShadow_209_143" result="shape"/></filter><linearGradient id="c" x1="656.69" x2="656.69" y1="0" y2="1312.5" gradientUnits="userSpaceOnUse"><stop stop-color="#fff" stop-opacity=".5"/><stop offset="1" stop-opacity=".5"/></linearGradient><clipPath id="a"><path fill="#fff" d="M0 0h14v14H0z"/></clipPath></defs></svg>