<svg xmlns="http://www.w3.org/2000/svg" width="17" height="16" fill="none"><g fill="#0033AD" clip-path="url(#a)"><path d="M4.66 7.94c-.04.64.45 1.2 1.08 1.23h.07c.63 0 1.14-.52 1.14-1.17 0-.64-.51-1.17-1.15-1.16-.6 0-1.1.48-1.14 1.1ZM.39 7.64A.37.37 0 0 0 0 8c0 .2.15.39.35.4.2 0 .38-.15.39-.36a.37.37 0 0 0-.35-.4ZM4.59 1.17c.18-.09.25-.32.16-.5a.37.37 0 0 0-.5-.17.38.38 0 0 0-.16.5c.09.2.31.27.5.17ZM5.75 3.24c.28-.15.4-.5.25-.78a.57.57 0 0 0-.76-.26c-.29.14-.4.5-.26.78s.49.4.77.26ZM1.84 4.65c.22.15.5.09.65-.13a.49.49 0 0 0-.13-.67.47.47 0 0 0-.66.14.48.48 0 0 0 .14.66ZM2.53 7.43a.57.57 0 0 0-.6.55c-.02.33.22.6.54.62.32.02.59-.23.6-.55a.58.58 0 0 0-.54-.62ZM1.9 11.35a.49.49 0 0 0-.2.64c.11.24.4.33.63.21.23-.12.33-.4.2-.64a.47.47 0 0 0-.63-.21ZM4.13 6.23c.3.2.73.12.92-.2a.69.69 0 0 0-.19-.95.66.66 0 0 0-.93.2c-.2.32-.12.74.2.95ZM11.17 3.2c.27.17.63.1.8-.18a.6.6 0 0 0-.17-.8.57.57 0 0 0-.79.16c-.18.28-.1.64.16.81ZM12.34 1.14c.18.11.4.06.52-.11a.38.38 0 0 0-.11-.53.37.37 0 0 0-.51.11.4.4 0 0 0 .1.53ZM11.26 6.83a1.15 1.15 0 0 0-1.2 1.1c-.04.64.44 1.2 1.07 1.23h.07c.63 0 1.14-.53 1.14-1.17 0-.62-.47-1.13-1.08-1.16ZM6.12 6.15c.2.39.6.64 1.03.64.63 0 1.14-.52 1.14-1.17 0-.18-.04-.36-.12-.53-.29-.57-.98-.8-1.54-.51-.56.3-.8 1-.5 1.57ZM15.1 4.65a.49.49 0 0 0 .2-.64.47.47 0 0 0-.63-.21.49.49 0 0 0-.21.64c.12.24.4.33.64.21ZM12.2 5.02a.7.7 0 0 0-.3.92c.16.34.57.48.9.3a.7.7 0 0 0 .3-.91.67.67 0 0 0-.9-.3ZM8.45.96A.48.48 0 0 0 8.51 0a.48.48 0 0 0-.5.45c-.01.27.19.5.44.51ZM8.45 3.98c.37.02.69-.27.7-.65a.67.67 0 1 0-1.34-.07c-.01.37.27.7.64.72ZM4.8 10.98a.7.7 0 0 0 .3-.92.67.67 0 0 0-.9-.3.7.7 0 0 0-.3.91c.17.34.57.48.9.3ZM8.89 4.98c-.35.54-.2 1.26.33 1.6.53.36 1.23.21 1.58-.33.34-.54.2-1.26-.33-1.6-.19-.13-.4-.2-.63-.2-.38 0-.74.2-.95.53ZM10.88 9.85c-.29-.57-.98-.8-1.54-.51-.57.29-.8.99-.5 1.56.28.58.97.81 1.53.52.56-.29.8-.98.51-1.56ZM12.87 9.77a.66.66 0 0 0-.92.2c-.2.32-.12.74.19.95.31.2.73.12.93-.2a.69.69 0 0 0-.2-.95ZM15.07 8.02a.58.58 0 0 0-.54-.61.57.57 0 0 0-.6.55c-.02.32.22.6.54.61.3.02.58-.23.6-.55ZM16.65 7.6a.37.37 0 0 0-.39.36c0 .2.15.39.35.4.2.01.38-.15.39-.36 0-.2-.14-.38-.35-.4ZM15.16 11.35a.47.47 0 0 0-.65.13.49.49 0 0 0 .13.67c.22.14.51.08.66-.14a.48.48 0 0 0-.14-.66ZM4.65 14.86a.37.37 0 0 0-.51.11c-.11.18-.06.4.1.52a.37.37 0 1 0 .4-.63ZM12.41 14.83a.38.38 0 0 0-.16.5c.09.19.32.26.5.17.18-.1.25-.32.16-.5a.36.36 0 0 0-.5-.17ZM8.11 11.02c.35-.54.2-1.26-.33-1.61a1.13 1.13 0 0 0-1.58.33c-.35.54-.2 1.26.33 1.62a1.12 1.12 0 0 0 1.59-.34ZM5.83 12.8a.57.57 0 0 0-.8.18.6.6 0 0 0 .17.8c.26.18.62.1.79-.16a.58.58 0 0 0-.16-.81ZM8.5 15.04a.48.48 0 0 0-.06.96c.26.01.48-.18.5-.45a.48.48 0 0 0-.44-.51ZM8.5 12.02a.67.67 0 0 0-.7.65c-.03.38.26.7.63.72.37.02.69-.27.7-.65a.68.68 0 0 0-.63-.72ZM11.25 12.76c-.28.15-.4.5-.25.79.15.28.5.4.77.25.28-.14.4-.5.26-.78a.57.57 0 0 0-.78-.26Z"/></g><defs><clipPath id="a"><path fill="#fff" d="M0 0h17v16H0z"/></clipPath></defs></svg>