<svg width="17" height="16" viewBox="0 0 17 16" fill="none" xmlns="http://www.w3.org/2000/svg">
<g clip-path="url(#clip0_240_160)">
<path d="M4.66023 7.94228C4.62397 8.58413 5.10903 9.13363 5.73917 9.17057C5.76183 9.17057 5.7845 9.17057 5.80717 9.17057C6.44183 9.17057 6.9541 8.64878 6.94957 8.00231C6.94957 7.35585 6.4373 6.83406 5.80263 6.83868C5.19517 6.83868 4.69197 7.32352 4.66023 7.94228Z" fill="#0033AD"/>
<path d="M0.389881 7.64214C0.185881 7.62829 0.0090807 7.7899 1.40318e-05 7.9977C-0.00905264 8.20549 0.145081 8.38557 0.349081 8.39481C0.553081 8.40866 0.725347 8.24705 0.738947 8.03925C0.752547 7.83146 0.593881 7.65599 0.389881 7.64214Z" fill="#0033AD"/>
<path d="M4.58775 1.17288C4.76908 1.08052 4.84162 0.849643 4.75095 0.664939C4.66028 0.480235 4.43362 0.406353 4.25228 0.498705C4.07095 0.591057 3.99842 0.81732 4.08908 1.00202C4.17975 1.19135 4.40188 1.26984 4.58775 1.17288Z" fill="#0033AD"/>
<path d="M5.74832 3.23695C6.02939 3.0938 6.14272 2.74286 6.00219 2.45657C5.86166 2.17028 5.51712 2.05484 5.23606 2.19799C4.95499 2.34113 4.84166 2.69207 4.98219 2.97836C5.12272 3.26465 5.46726 3.38009 5.74832 3.23695Z" fill="#0033AD"/>
<path d="M1.84049 4.65455C2.05809 4.79769 2.34822 4.73766 2.49329 4.51602C2.63382 4.29437 2.57489 3.99885 2.35729 3.85108C2.13969 3.70794 1.84956 3.76797 1.70449 3.98961C1.55942 4.21126 1.62289 4.5114 1.84049 4.65455Z" fill="#0033AD"/>
<path d="M2.53419 7.43435C2.21686 7.41587 1.94939 7.66061 1.93126 7.98384C1.91313 8.30707 2.15339 8.57951 2.47073 8.59798C2.78806 8.61645 3.05553 8.37172 3.07366 8.04849C3.09179 7.72987 2.85153 7.45282 2.53419 7.43435Z" fill="#0033AD"/>
<path d="M1.90398 11.3455C1.67278 11.4655 1.57758 11.7518 1.69544 11.9919C1.81331 12.2274 2.09438 12.3244 2.33011 12.2043C2.56131 12.0843 2.65651 11.798 2.53864 11.5579C2.42078 11.3224 2.13518 11.2254 1.90398 11.3455Z" fill="#0033AD"/>
<path d="M4.12539 6.22915C4.43819 6.43694 4.85525 6.34921 5.05472 6.03059C5.25872 5.71198 5.17259 5.28716 4.85979 5.08398C4.54699 4.87619 4.12992 4.96393 3.93045 5.28254C3.72645 5.59654 3.81259 6.02136 4.12539 6.22915Z" fill="#0033AD"/>
<path d="M11.1747 3.19077C11.4377 3.36624 11.7958 3.29235 11.9681 3.02453C12.1403 2.75671 12.0678 2.39192 11.8049 2.21645C11.5419 2.04098 11.1838 2.11487 11.0115 2.38269C10.8347 2.65513 10.9073 3.0153 11.1747 3.19077Z" fill="#0033AD"/>
<path d="M12.3443 1.13593C12.5165 1.25137 12.7432 1.20058 12.8565 1.02511C12.9699 0.849642 12.92 0.618762 12.7477 0.503322C12.5755 0.387882 12.3488 0.438675 12.2355 0.609527C12.1267 0.784996 12.1765 1.02049 12.3443 1.13593Z" fill="#0033AD"/>
<path d="M11.2608 6.82944C10.6306 6.7925 10.0866 7.28659 10.0549 7.92843C10.0186 8.57028 10.5037 9.12439 11.1338 9.15672C11.1565 9.15672 11.1792 9.15672 11.1973 9.15672C11.8274 9.15672 12.3397 8.63493 12.3397 7.98846C12.3442 7.37432 11.8682 6.86177 11.2608 6.82944Z" fill="#0033AD"/>
<path d="M6.12454 6.14603C6.31947 6.53853 6.71387 6.78788 7.14907 6.78788C7.77921 6.78788 8.29147 6.26609 8.29147 5.61963C8.29147 5.43954 8.25067 5.25945 8.16907 5.09322C7.88347 4.51602 7.19441 4.28514 6.63227 4.57605C6.06561 4.87157 5.83894 5.57345 6.12454 6.14603Z" fill="#0033AD"/>
<path d="M15.096 4.65455C15.3272 4.53449 15.4178 4.24359 15.3 4.00809C15.1821 3.77259 14.8965 3.68024 14.6653 3.8003C14.4341 3.92035 14.3434 4.20664 14.4568 4.44214C14.5792 4.67764 14.8602 4.77461 15.096 4.65455Z" fill="#0033AD"/>
<path d="M12.1946 5.02396C11.8637 5.19481 11.7277 5.60578 11.8954 5.94286C12.0632 6.27995 12.4666 6.41848 12.7976 6.24763C13.1285 6.07677 13.2645 5.66581 13.0968 5.32872C12.929 4.99164 12.5256 4.85773 12.1946 5.02396Z" fill="#0033AD"/>
<path d="M8.45469 0.960466C8.71309 0.974318 8.93522 0.771144 8.95336 0.50794C8.97149 0.244737 8.76749 0.0184742 8.50909 3.77989e-06C8.25069 -0.013849 8.02856 0.184708 8.01042 0.447911C7.99682 0.715733 8.19629 0.941995 8.45469 0.960466Z" fill="#0033AD"/>
<path d="M8.45019 3.97576C8.82193 3.99885 9.13926 3.70794 9.15739 3.3293C9.18006 2.95065 8.89446 2.62742 8.52273 2.60895C8.15099 2.58586 7.83366 2.87677 7.81553 3.25542C7.79739 3.63406 8.07846 3.95729 8.45019 3.97576Z" fill="#0033AD"/>
<path d="M4.80538 10.976C5.13632 10.8052 5.27232 10.3942 5.10458 10.0571C4.93685 9.72006 4.53338 9.58153 4.20245 9.75238C3.87152 9.92323 3.73552 10.3342 3.90325 10.6713C4.07098 11.0084 4.47445 11.1469 4.80538 10.976Z" fill="#0033AD"/>
<path d="M8.88539 4.97778C8.54085 5.51804 8.68592 6.23839 9.21632 6.58933C9.74672 6.94027 10.4539 6.7925 10.7985 6.25224C11.143 5.71198 10.9979 4.99164 10.4675 4.6407C10.2817 4.51602 10.0641 4.45138 9.84192 4.45138C9.45659 4.45138 9.09845 4.64993 8.88539 4.97778Z" fill="#0033AD"/>
<path d="M10.8755 9.85397C10.5899 9.27677 9.90083 9.04589 9.3387 9.3368C8.77203 9.62771 8.54536 10.3296 8.83096 10.9022C9.11656 11.4794 9.80563 11.7102 10.3678 11.4193C10.9299 11.133 11.1611 10.4404 10.88 9.8632C10.88 9.85859 10.88 9.85859 10.8755 9.85397Z" fill="#0033AD"/>
<path d="M12.8747 9.77086C12.5619 9.56307 12.1448 9.6508 11.9453 9.96941C11.7413 10.288 11.8275 10.7128 12.1403 10.916C12.4531 11.1238 12.8701 11.0361 13.0696 10.7175C13.2736 10.4035 13.1875 9.97865 12.8747 9.77086Z" fill="#0033AD"/>
<path d="M15.0688 8.02078C15.0869 7.69755 14.8466 7.42511 14.5293 7.40664C14.212 7.38817 13.9445 7.63291 13.9264 7.95614C13.9082 8.27937 14.1485 8.55181 14.4658 8.57028C14.7786 8.58875 15.0506 8.3394 15.0688 8.02078Z" fill="#0033AD"/>
<path d="M16.651 7.6052C16.447 7.59135 16.2702 7.75296 16.2611 7.96075C16.2521 8.16855 16.4062 8.34863 16.6102 8.35787C16.8142 8.37172 16.9865 8.21011 17.0001 8.00231C17.0091 7.79452 16.855 7.61905 16.651 7.6052Z" fill="#0033AD"/>
<path d="M15.1595 11.3455C14.9419 11.2023 14.6518 11.2623 14.5067 11.484C14.3662 11.7056 14.4251 12.0012 14.6427 12.1489C14.8603 12.2921 15.1504 12.232 15.2955 12.0104C15.4406 11.7888 15.3771 11.4886 15.1595 11.3455Z" fill="#0033AD"/>
<path d="M4.65123 14.8641C4.47896 14.7486 4.25229 14.7994 4.13896 14.9703C4.02563 15.1458 4.07549 15.3766 4.24323 15.4921C4.41549 15.6075 4.64216 15.5567 4.75549 15.3859C4.87336 15.215 4.82349 14.9795 4.65123 14.8641Z" fill="#0033AD"/>
<path d="M12.4123 14.8271C12.231 14.9195 12.1584 15.1504 12.2491 15.3351C12.3398 15.5198 12.5664 15.5937 12.7478 15.5013C12.9291 15.409 13.0016 15.1827 12.911 14.998C12.8203 14.8087 12.5982 14.7302 12.4123 14.8271Z" fill="#0033AD"/>
<path d="M8.11468 11.0222C8.45921 10.482 8.31415 9.76162 7.78375 9.40607C7.25335 9.05513 6.54615 9.20289 6.19708 9.74315C5.84801 10.2834 5.99761 11.0038 6.52801 11.3593C6.71388 11.484 6.93148 11.5486 7.15361 11.5486C7.54348 11.5533 7.90161 11.3547 8.11468 11.0222Z" fill="#0033AD"/>
<path d="M5.82537 12.8092C5.56244 12.6338 5.2043 12.7077 5.03204 12.9755C4.85977 13.2433 4.9323 13.6081 5.19524 13.7836C5.45817 13.959 5.8163 13.8851 5.98857 13.6173C6.16537 13.3495 6.09284 12.9847 5.82537 12.8092Z" fill="#0033AD"/>
<path d="M8.49552 15.0395C8.23712 15.0257 8.01498 15.2289 7.99685 15.4921C7.97872 15.7553 8.18272 15.9815 8.44112 16C8.69952 16.0139 8.92165 15.8153 8.93978 15.5521C8.95338 15.2843 8.75392 15.058 8.49552 15.0395Z" fill="#0033AD"/>
<path d="M8.49997 12.0242C8.12823 12.0012 7.8109 12.2921 7.79277 12.6707C7.7701 13.0494 8.0557 13.3726 8.42743 13.3911C8.79917 13.4095 9.1165 13.1232 9.13463 12.7446C9.1573 12.3706 8.8717 12.0427 8.49997 12.0242Z" fill="#0033AD"/>
<path d="M11.2518 12.7631C10.9707 12.9108 10.8574 13.2618 11.0025 13.5481C11.1475 13.8343 11.4921 13.9498 11.7731 13.802C12.0542 13.6589 12.1675 13.3079 12.027 13.0216C11.8819 12.7354 11.5374 12.6153 11.2518 12.7631Z" fill="#0033AD"/>
</g>
<defs>
<clipPath id="clip0_240_160">
<rect width="17" height="16" fill="white"/>
</clipPath>
</defs>
</svg>
