<svg xmlns="http://www.w3.org/2000/svg" width="32" height="33" fill="none"><g clip-path="url(#a)"><path fill="#F5AC37" d="M16 .5a16 16 0 1 1 0 32 16 16 0 0 1 0-32Z"/><path fill="#FEFEFD" d="M16.59 17.63h6.08c.13 0 .19 0 .2-.17.05-.62.05-1.24 0-1.86 0-.12-.06-.17-.19-.17h-12.1c-.15 0-.19.05-.19.19v1.78c0 .23 0 .23.24.23h5.96Zm5.6-4.28a.2.2 0 0 0 0-.14c-.1-.22-.22-.43-.36-.63a5.1 5.1 0 0 0-.74-.93 7.19 7.19 0 0 0-5.16-2.15h-5.37c-.15 0-.17.06-.17.19v3.55c0 .15 0 .19.19.19h11.54s.1-.02.12-.08h-.05Zm0 6.36a2.34 2.34 0 0 0-.51 0H10.59c-.15 0-.2 0-.2.2v3.47c0 .16 0 .2.2.2h5.12c.24.02.49 0 .73-.05a7.62 7.62 0 0 0 2.9-.82h.07a6.5 6.5 0 0 0 2.79-2.8s.07-.16 0-.2ZM8.38 25.38v-5.53c0-.13 0-.15-.16-.15H6.05c-.12 0-.17 0-.17-.16v-1.9H8.2c.13 0 .18 0 .18-.17V15.6c0-.12 0-.15-.16-.15H6.05c-.12 0-.17 0-.17-.16v-1.76c0-.1 0-.14.16-.14h2.15c.15 0 .19 0 .19-.19V7.8c0-.16 0-.2.2-.2h7.5a9.78 9.78 0 0 1 4.75 1.34 8.82 8.82 0 0 1 2.83 2.7c.31.47.58.98.78 1.52.03.14.16.24.3.21h1.79c.23 0 .23 0 .24.22v1.64c0 .16-.06.2-.22.2h-1.38c-.14 0-.18 0-.17.18.05.61.05 1.22 0 1.83 0 .17 0 .2.19.2h1.58c.07.08 0 .17 0 .26v1.56c0 .17-.05.22-.2.22h-1.9a.25.25 0 0 0-.28.2 8 8 0 0 1-2.1 3.05c-.34.3-.7.6-1.07.86-.4.23-.8.47-1.2.66a10.81 10.81 0 0 1-4.7.94H8.38v-.01Z"/></g><defs><clipPath id="a"><path fill="#fff" d="M0 .5h32v32H0z"/></clipPath></defs></svg>