<svg xmlns="http://www.w3.org/2000/svg" xmlns:xlink="http://www.w3.org/1999/xlink" width="32" height="32"><defs><filter id="a" width="111.7%" height="111.7%" x="-5.8%" y="-4.2%" filterUnits="objectBoundingBox"><feOffset dy=".5" in="SourceAlpha" result="shadowOffsetOuter1"/><feGaussianBlur in="shadowOffsetOuter1" result="shadowBlurOuter1" stdDeviation=".5"/><feComposite in="shadowBlurOuter1" in2="SourceAlpha" operator="out" result="shadowBlurOuter1"/><feColorMatrix in="shadowBlurOuter1" values="0 0 0 0 0 0 0 0 0 0 0 0 0 0 0 0 0 0 0.199473505 0"/></filter><filter id="d" width="123.3%" height="121.9%" x="-11.7%" y="-7.8%" filterUnits="objectBoundingBox"><feOffset dy=".5" in="SourceAlpha" result="shadowOffsetOuter1"/><feGaussianBlur in="shadowOffsetOuter1" result="shadowBlurOuter1" stdDeviation=".5"/><feColorMatrix in="shadowBlurOuter1" values="0 0 0 0 0 0 0 0 0 0 0 0 0 0 0 0 0 0 0.204257246 0"/></filter><linearGradient id="c" x1="50%" x2="50%" y1="0%" y2="100%"><stop offset="0%" stop-color="#FFF" stop-opacity=".5"/><stop offset="100%" stop-opacity=".5"/></linearGradient><circle id="b" cx="16" cy="15" r="15"/><path id="e" d="M13.25 13.61h4.31v2.29h-4.31v4.81h2.72c1.08 0 1.96-.14 2.64-.43a3.87 3.87 0 0 0 2.41-3.03c.14-.7.21-1.44.21-2.25 0-.8-.07-1.56-.2-2.25a3.87 3.87 0 0 0-2.41-3.03 6.82 6.82 0 0 0-2.65-.43h-2.72v4.32Zm-2.77 2.29H9V13.6h1.48V7h6.55c1.21 0 2.26.2 3.14.63.89.42 1.61.99 2.17 1.71.56.73.98 1.57 1.25 2.55.27.97.41 2 .41 3.11 0 1.1-.14 2.14-.4 3.11a7.36 7.36 0 0 1-1.26 2.55 5.85 5.85 0 0 1-2.17 1.71c-.88.42-1.93.63-3.14.63h-6.55v-7.1Z"/></defs><g fill="none" fill-rule="evenodd"><use xlink:href="#b" fill="#000" filter="url(#a)"/><use xlink:href="#b" fill="#C3A634"/><use xlink:href="#b" fill="url(#c)" style="mix-blend-mode:soft-light"/><circle cx="16" cy="15" r="14.5" stroke="#000" stroke-opacity=".1"/><use xlink:href="#e" fill="#000" filter="url(#d)"/><use xlink:href="#e" fill="#FFF"/></g></svg>