<svg xmlns="http://www.w3.org/2000/svg" width="16" height="21" fill="none"><mask id="a" width="14" height="15" x="1" y="4" maskUnits="userSpaceOnUse" style="mask-type:luminance"><path fill="#fff" d="M15 4H1v14.25h14V4Z"/></mask><g mask="url(#a)"><path fill="#fff" d="M8 17.48a6.3 6.3 0 0 0 6.24-6.35A6.3 6.3 0 0 0 8 4.77a6.3 6.3 0 0 0-6.24 6.36A6.3 6.3 0 0 0 8 17.48Z"/><path fill="#345D9D" d="M8 4c-1.38 0-2.74.42-3.89 1.2a7.25 7.25 0 0 0-1.06 10.97 6.96 6.96 0 0 0 7.63 1.54 7.03 7.03 0 0 0 3.14-2.62 7.22 7.22 0 0 0-3.11-10.54A6.87 6.87 0 0 0 8.04 4H8Zm.12 7.37-.73 2.5h3.9a.2.2 0 0 1 .14.05.2.2 0 0 1 .06.14v.07l-.34 1.2a.26.26 0 0 1-.1.13.25.25 0 0 1-.15.05H4.93l1-3.47-1.12.35.26-.8 1.12-.34 1.4-4.87c.02-.05.05-.1.1-.14.04-.03.1-.05.16-.05h1.5a.2.2 0 0 1 .2.12.2.2 0 0 1 0 .07v.07l-1.18 4.1 1.12-.34-.24.83-1.13.33Z"/></g></svg>