<svg width="32" height="33" viewBox="0 0 32 33" fill="none" xmlns="http://www.w3.org/2000/svg">
<g clip-path="url(#clip0_1209_8082)">
<path d="M16.0002 30.7682C23.8804 30.7682 30.2685 24.3801 30.2685 16.5C30.2685 8.61982 23.8804 2.23169 16.0002 2.23169C8.12006 2.23169 1.73193 8.61982 1.73193 16.5C1.73193 24.3801 8.12006 30.7682 16.0002 30.7682Z" fill="white"/>
<path d="M16 0.5C12.8355 0.5 9.74207 1.43838 7.11088 3.19649C4.4797 4.95459 2.42894 7.45345 1.21793 10.3771C0.0069325 13.3007 -0.309921 16.5177 0.307443 19.6214C0.924806 22.7251 2.44866 25.5761 4.6863 27.8137C6.92394 30.0513 9.77487 31.5752 12.8786 32.1926C15.9823 32.8099 19.1993 32.4931 22.1229 31.2821C25.0466 30.0711 27.5454 28.0203 29.3035 25.3891C31.0616 22.7579 32 19.6645 32 16.5C32.0061 14.405 31.5995 12.3292 30.8034 10.3913C30.0073 8.4534 28.8373 6.69127 27.3602 5.20553C25.8831 3.71979 24.1278 2.53954 22.1946 1.73216C20.2614 0.924785 18.188 0.506096 16.093 0.5H16ZM16.2712 17.0424L14.6053 22.6598H23.5157C23.5748 22.6577 23.6336 22.6673 23.6889 22.688C23.7443 22.7087 23.795 22.7401 23.8381 22.7804C23.8813 22.8207 23.9161 22.8691 23.9406 22.9229C23.965 22.9766 23.9786 23.0347 23.9806 23.0937V23.2409L23.2058 25.914C23.1717 26.0405 23.0955 26.1515 22.9899 26.2289C22.8843 26.3064 22.7555 26.3456 22.6247 26.3402H8.9879L11.2736 18.5533L8.71671 19.3281L9.29783 17.546L11.8547 16.7712L15.0702 5.84625C15.1056 5.72054 15.1821 5.6103 15.2874 5.53307C15.3927 5.45584 15.5208 5.41607 15.6513 5.4201H19.0993C19.1583 5.41803 19.2172 5.42761 19.2725 5.4483C19.3278 5.46899 19.3785 5.50038 19.4217 5.54068C19.4648 5.58098 19.4997 5.62939 19.5241 5.68315C19.5486 5.73692 19.5622 5.79497 19.5642 5.85399V6.00121L16.8523 15.2215L19.4092 14.4467L18.8668 16.3063L16.2712 17.0424Z" fill="#345D9D"/>
</g>
<defs>
<clipPath id="clip0_1209_8082">
<rect width="32" height="32" fill="white" transform="translate(0 0.5)"/>
</clipPath>
</defs>
</svg>
