<svg xmlns="http://www.w3.org/2000/svg" width="19" height="19" fill="none"><path fill="#E2761B" stroke="#E2761B" stroke-linecap="round" stroke-linejoin="round" d="m16.35 2.12-5.94 4.4 1.1-2.6 4.84-1.8Z"/><path fill="#E4761B" stroke="#E4761B" stroke-linecap="round" stroke-linejoin="round" d="m2.65 2.12 5.88 4.45L7.5 3.92l-4.84-1.8ZM14.2 12.33l-1.58 2.42 3.38.93.97-3.3-2.77-.05Zm-12.19.06.97 3.3 3.38-.94-1.58-2.42-2.77.06Z"/><path fill="#E4761B" stroke="#E4761B" stroke-linecap="round" stroke-linejoin="round" d="m6.18 8.24-.94 1.43 3.35.15-.12-3.61-2.3 2.03Zm6.64 0-2.33-2.07-.08 3.65 3.35-.15-.94-1.43Zm-6.45 6.51 2.01-.98-1.74-1.36-.27 2.34Zm4.24-.98 2.02.98-.28-2.34-1.74 1.36Z"/><path fill="#D7C1B3" stroke="#D7C1B3" stroke-linecap="round" stroke-linejoin="round" d="m12.63 14.75-2.02-.98.16 1.32-.02.55 1.88-.89Zm-6.26 0 1.88.9-.01-.56.14-1.32-2.01.98Z"/><path fill="#233447" stroke="#233447" stroke-linecap="round" stroke-linejoin="round" d="m8.28 11.54-1.68-.5 1.18-.54.5 1.04Zm2.44 0 .5-1.04 1.18.54-1.68.5Z"/><path fill="#CD6116" stroke="#CD6116" stroke-linecap="round" stroke-linejoin="round" d="m6.37 14.75.29-2.42-1.87.06 1.58 2.36Zm5.97-2.42.3 2.42 1.57-2.36-1.87-.06Zm1.42-2.66-3.35.15.31 1.72.5-1.04 1.19.54 1.35-1.37ZM6.6 11.04l1.19-.54.49 1.04.31-1.72-3.35-.15 1.36 1.37Z"/><path fill="#E4751F" stroke="#E4751F" stroke-linecap="round" stroke-linejoin="round" d="m5.24 9.67 1.4 2.74-.04-1.37-1.36-1.37Zm7.17 1.37-.06 1.37 1.41-2.74-1.35 1.37ZM8.59 9.82l-.31 1.72.4 2.03.08-2.67-.17-1.08Zm1.82 0-.16 1.07.07 2.68.4-2.03-.3-1.72Z"/><path fill="#F6851B" stroke="#F6851B" stroke-linecap="round" stroke-linejoin="round" d="m10.72 11.54-.4 2.03.29.2 1.74-1.36.06-1.37-1.69.5Zm-4.12-.5.04 1.37 1.74 1.36.3-.2-.4-2.03-1.68-.5Z"/><path fill="#C0AD9E" stroke="#C0AD9E" stroke-linecap="round" stroke-linejoin="round" d="m10.75 15.64.02-.55-.15-.13H8.37l-.13.13v.55l-1.87-.89.66.54 1.33.93h2.28l1.33-.93.66-.54-1.88.9Z"/><path fill="#161616" stroke="#161616" stroke-linecap="round" stroke-linejoin="round" d="m10.6 13.77-.28-.2H8.67l-.29.2-.14 1.32.13-.13h2.25l.15.13-.16-1.32Z"/><path fill="#763D16" stroke="#763D16" stroke-linecap="round" stroke-linejoin="round" d="m16.6 6.81.5-2.43-.75-2.26-5.74 4.26 2.2 1.86 3.12.91.7-.8-.3-.22.48-.43-.37-.29.47-.36-.31-.24ZM1.9 4.38l.5 2.43-.32.24.48.36-.37.29.48.43-.3.22.69.8 3.12-.9 2.2-1.87-5.73-4.26-.75 2.26Z"/><path fill="#F6851B" stroke="#F6851B" stroke-linecap="round" stroke-linejoin="round" d="m15.93 9.15-3.11-.9.94 1.42-1.4 2.74 1.85-.02h2.77l-1.05-3.24Zm-9.75-.9-3.12.9-1.04 3.24H4.8l1.85.02-1.4-2.74.94-1.43Zm4.23 1.57.2-3.44.9-2.46H7.5l.9 2.46.2 3.44.08 1.08v2.67h1.65l.01-2.67.08-1.08Z"/></svg>