<svg width="19" height="19" viewBox="0 0 19 19" fill="none" xmlns="http://www.w3.org/2000/svg">
<path d="M16.3462 2.11707L10.4125 6.52417L11.5098 3.92404L16.3462 2.11707Z" fill="#E2761B" stroke="#E2761B" stroke-linecap="round" stroke-linejoin="round"/>
<path d="M2.64778 2.11707L8.53385 6.56591L7.49022 3.92404L2.64778 2.11707ZM14.2112 12.3327L12.6308 14.7539L16.0122 15.6842L16.9843 12.3864L14.2112 12.3327ZM2.02161 12.3864L2.98771 15.6842L6.36906 14.7539L4.78871 12.3327L2.02161 12.3864Z" fill="#E4761B" stroke="#E4761B" stroke-linecap="round" stroke-linejoin="round"/>
<path d="M6.17833 8.24168L5.23608 9.66698L8.59359 9.81607L8.47431 6.2081L6.17833 8.24168ZM12.8158 8.24168L10.49 6.16635L10.4125 9.81607L13.764 9.66698L12.8158 8.24168ZM6.36917 14.7539L8.38486 13.7699L6.64349 12.4102L6.36917 14.7539ZM10.6093 13.7699L12.6309 14.7539L12.3506 12.4102L10.6093 13.7699Z" fill="#E4761B" stroke="#E4761B" stroke-linecap="round" stroke-linejoin="round"/>
<path d="M12.6309 14.7539L10.6093 13.7699L10.7703 15.0879L10.7524 15.6425L12.6309 14.7539ZM6.36914 14.7539L8.24767 15.6425L8.23574 15.0879L8.38483 13.7699L6.36914 14.7539Z" fill="#D7C1B3" stroke="#D7C1B3" stroke-linecap="round" stroke-linejoin="round"/>
<path d="M8.27744 11.5395L6.5957 11.0446L7.78246 10.5019L8.27744 11.5395ZM10.7165 11.5395L11.2115 10.5019L12.4042 11.0446L10.7165 11.5395Z" fill="#233447" stroke="#233447" stroke-linecap="round" stroke-linejoin="round"/>
<path d="M6.36917 14.7539L6.65542 12.3327L4.78882 12.3864L6.36917 14.7539ZM12.3447 12.3327L12.6309 14.7539L14.2113 12.3864L12.3447 12.3327ZM13.764 9.66698L10.4125 9.81607L10.7226 11.5395L11.2176 10.5019L12.4103 11.0446L13.764 9.66698ZM6.59579 11.0446L7.7885 10.5019L8.27752 11.5395L8.59359 9.81607L5.23609 9.66698L6.59579 11.0446Z" fill="#CD6116" stroke="#CD6116" stroke-linecap="round" stroke-linejoin="round"/>
<path d="M5.23608 9.66698L6.64349 12.4102L6.59578 11.0446L5.23608 9.66698ZM12.4103 11.0446L12.3506 12.4102L13.764 9.66698L12.4103 11.0446ZM8.59359 9.81607L8.27752 11.5395L8.67111 13.5731L8.76057 10.8955L8.59359 9.81607ZM10.4125 9.81607L10.2515 10.8895L10.323 13.5731L10.7226 11.5395L10.4125 9.81607Z" fill="#E4751F" stroke="#E4751F" stroke-linecap="round" stroke-linejoin="round"/>
<path d="M10.7225 11.5395L10.3229 13.5731L10.6092 13.7699L12.3506 12.4102L12.4102 11.0446L10.7225 11.5395ZM6.5957 11.0446L6.64341 12.4102L8.38478 13.7699L8.67103 13.5731L8.27744 11.5395L6.5957 11.0446Z" fill="#F6851B" stroke="#F6851B" stroke-linecap="round" stroke-linejoin="round"/>
<path d="M10.7524 15.6425L10.7703 15.0879L10.6212 14.9567H8.37291L8.23574 15.0879L8.24767 15.6425L6.36914 14.7539L7.02514 15.2906L8.35502 16.215H10.6391L11.9749 15.2906L12.6309 14.7539L10.7524 15.6425Z" fill="#C0AD9E" stroke="#C0AD9E" stroke-linecap="round" stroke-linejoin="round"/>
<path d="M10.6092 13.7699L10.323 13.5731H8.67106L8.38481 13.7699L8.23572 15.0879L8.37288 14.9567H10.6212L10.7702 15.0879L10.6092 13.7699Z" fill="#161616" stroke="#161616" stroke-linecap="round" stroke-linejoin="round"/>
<path d="M16.5966 6.81042L17.1035 4.37727L16.3461 2.11707L10.6092 6.37508L12.8157 8.24168L15.9347 9.15411L16.6264 8.34903L16.3283 8.13434L16.8053 7.69899L16.4356 7.41274L16.9127 7.04896L16.5966 6.81042ZM1.89636 4.37727L2.40327 6.81042L2.08123 7.04896L2.55832 7.41274L2.19454 7.69899L2.67163 8.13434L2.37345 8.34903L3.05926 9.15411L6.17822 8.24168L8.38475 6.37508L2.64777 2.11707L1.89636 4.37727Z" fill="#763D16" stroke="#763D16" stroke-linecap="round" stroke-linejoin="round"/>
<path d="M15.9347 9.15411L12.8157 8.24168L13.7639 9.66698L12.3505 12.4102L14.2112 12.3864H16.9843L15.9347 9.15411ZM6.17823 8.24168L3.05927 9.15411L2.02161 12.3864H4.78871L6.64339 12.4102L5.23598 9.66698L6.17823 8.24168ZM10.4124 9.81607L10.6092 6.37508L11.5156 3.92404H7.49022L8.38476 6.37508L8.59348 9.81607L8.66505 10.9014L8.67101 13.5731H10.3229L10.3349 10.9014L10.4124 9.81607Z" fill="#F6851B" stroke="#F6851B" stroke-linecap="round" stroke-linejoin="round"/>
</svg>
