<svg xmlns="http://www.w3.org/2000/svg" width="17" height="18" fill="none"><g fill="#E6007A" clip-path="url(#a)"><path d="M8.5 3.78c1.8 0 3.26-.85 3.26-1.9C11.76.86 10.3 0 8.5 0 6.7 0 5.24.85 5.24 1.89S6.7 3.78 8.5 3.78ZM8.5 18c1.8 0 3.26-.85 3.26-1.89s-1.46-1.89-3.26-1.89c-1.8 0-3.26.85-3.26 1.9C5.24 17.14 6.7 18 8.5 18ZM3.96 6.39c.9-1.55.9-3.24-.02-3.76-.9-.52-2.37.32-3.27 1.87-.9 1.55-.9 3.23.01 3.75.91.53 2.38-.3 3.28-1.86ZM16.33 13.5c.9-1.55.9-3.23-.01-3.76-.91-.52-2.38.32-3.28 1.87-.9 1.55-.9 3.23.02 3.76.9.52 2.37-.32 3.27-1.87ZM3.94 15.37c.91-.53.92-2.2.02-3.76-.9-1.55-2.37-2.39-3.28-1.87-.9.53-.91 2.2 0 3.76.9 1.55 2.36 2.39 3.26 1.87ZM16.32 8.26c.9-.53.9-2.2 0-3.76-.9-1.55-2.36-2.39-3.26-1.87-.91.52-.92 2.2-.02 3.76.9 1.55 2.37 2.39 3.28 1.87Z"/></g><defs><clipPath id="a"><path fill="#fff" d="M0 0h17v18H0z"/></clipPath></defs></svg>