<svg xmlns="http://www.w3.org/2000/svg" width="17" height="17" fill="none"><g clip-path="url(#a)"><path fill="#8247E5" d="M8.5 17a8.5 8.5 0 1 0 0-17 8.5 8.5 0 0 0 0 17Z"/><path fill="#fff" d="M11.41 6.59a.76.76 0 0 0-.7 0l-1.66.98-1.13.62-1.62.97a.76.76 0 0 1-.71 0L4.3 8.4a.72.72 0 0 1-.35-.62V6.3c0-.23.12-.47.35-.62l1.28-.74c.2-.12.47-.12.7 0l1.28.77c.2.12.35.36.35.62v.98l1.13-.65v-1a.73.73 0 0 0-.36-.63L6.32 3.63a.76.76 0 0 0-.7 0L3.18 5.05a.65.65 0 0 0-.36.6v2.77c0 .24.12.48.36.63l2.4 1.39c.2.11.47.11.7 0l1.63-.95 1.13-.65 1.63-.95c.2-.12.47-.12.7 0l1.28.74c.2.12.35.36.35.62v1.48c0 .24-.12.48-.35.62l-1.25.74a.76.76 0 0 1-.7 0l-1.28-.74a.72.72 0 0 1-.35-.62V9.8l-1.13.65v.97c0 .24.12.48.36.62l2.4 1.4c.2.11.47.11.7 0l2.4-1.4c.2-.11.36-.35.36-.62v-2.8a.73.73 0 0 0-.36-.63l-2.4-1.4Z"/></g><defs><clipPath id="a"><path fill="#fff" d="M0 0h17v17H0z"/></clipPath></defs></svg>