<svg xmlns="http://www.w3.org/2000/svg" width="18" height="22" fill="none"><g clip-path="url(#a)"><path fill="#008CFF" d="M15.97 13.43a3.82 3.82 0 0 0-2.25-.58c-.62 0-1.62-.47-1.62-1.82 0-.47.16-.94.47-1.3.32-.34.73-.52 1.15-.52a4.95 4.95 0 0 0 2.25-.59 4.5 4.5 0 0 0 1.5-1.7c.37-.7.53-1.46.53-2.29 0-.82-.2-1.58-.52-2.28a4.5 4.5 0 0 0-1.51-1.7 3.6 3.6 0 0 0-2.04-.6c-.73 0-1.4.24-2.03.6a4.5 4.5 0 0 0-1.52 1.7c-.36.7-.52 1.46-.57 2.28 0 .88.26 1.7.62 2.47.32.64.47 1.82-.57 2.52-.36.24-.83.3-1.25.18a1.6 1.6 0 0 1-1-.82c-.41-.7-.88-1.41-1.56-1.88a3.6 3.6 0 0 0-2.03-.59c-.73 0-1.41.24-2.04.59A4.5 4.5 0 0 0 .47 8.8c-.37.7-.52 1.47-.52 2.29 0 .82.2 1.58.52 2.29.36.7.89 1.29 1.51 1.7.63.4 1.3.58 2.04.58.73 0 1.4-.23 2.03-.58a4.73 4.73 0 0 0 1.57-1.88c.31-.59 1.15-1.35 2.19-.7.36.23.62.64.73 1.11.1.47.05.94-.16 1.4a5.7 5.7 0 0 0-.62 2.47c0 .82.2 1.59.52 2.3.36.7.89 1.28 1.51 1.7.63.4 1.3.58 2.04.58.73 0 1.4-.24 2.03-.59a4.5 4.5 0 0 0 1.51-1.7c.37-.7.53-1.47.53-2.29 0-.82-.21-1.58-.53-2.29a3.03 3.03 0 0 0-1.4-1.76Z"/></g><defs><clipPath id="a"><path fill="#fff" d="M0 0h18v22H0z"/></clipPath></defs></svg>