<svg xmlns="http://www.w3.org/2000/svg" width="36" height="36"><defs><linearGradient id="a" x1="90.74%" x2="35.51%" y1="34.78%" y2="55.41%"><stop offset="0%" stop-color="#00FFA3"/><stop offset="100%" stop-color="#DC1FFF"/></linearGradient><linearGradient id="b" x1="66.59%" x2="11.36%" y1="43.8%" y2="64.44%"><stop offset="0%" stop-color="#00FFA3"/><stop offset="100%" stop-color="#DC1FFF"/></linearGradient><linearGradient id="c" x1="78.59%" x2="23.36%" y1="39.32%" y2="59.96%"><stop offset="0%" stop-color="#00FFA3"/><stop offset="100%" stop-color="#DC1FFF"/></linearGradient></defs><g fill="none"><circle cx="18" cy="18" r="18" fill="#181E33"/><path fill="url(#a)" d="M3.9 14.36a.79.79 0 0 1 .55-.23h19.16a.4.4 0 0 1 .27.66l-3.78 3.79a.79.79 0 0 1-.55.23H.39a.4.4 0 0 1-.27-.67l3.78-3.79z" transform="translate(6 9)"/><path fill="url(#b)" d="M3.9.23A.8.8 0 0 1 4.45 0h19.16a.4.4 0 0 1 .27.67L20.1 4.45a.79.79 0 0 1-.55.23H.39a.4.4 0 0 1-.27-.67L3.9.23z" transform="translate(6 9)"/><path fill="url(#c)" d="M20.1 7.25a.79.79 0 0 0-.55-.23H.39a.4.4 0 0 0-.27.67l3.78 3.78c.14.15.34.23.55.23h19.16a.4.4 0 0 0 .27-.67L20.1 7.25z" transform="translate(6 9)"/></g></svg>