<svg xmlns="http://www.w3.org/2000/svg" width="60" height="51" fill="none"><g clip-path="url(#a)"><path fill="#fff" d="M60.08 12.75v5.2l-2.2 1.11a4.64 4.64 0 0 0-2.5 4.49 25.5 25.5 0 0 1-13.82 24.67 25.4 25.4 0 0 1-26.51-2.09l4.5-2.3.25-.13a20.8 20.8 0 0 0 20.71-.19 20.89 20.89 0 0 0 10.13-20.75l-35 17.88-7.25 3.7-8.47 4.32v-5.2l8.53-4.36 4.14-2.12 47.49-24.23ZM18.44 2.78a25.4 25.4 0 0 1 26.5 2.08l-.61.32-4.15 2.12a20.8 20.8 0 0 0-20.69.21A20.89 20.89 0 0 0 9.37 28.22l34.97-17.85 7.25-3.7 8.49-4.34v5.21l-8.57 4.38-4.14 2.1L10.5 32.87 8.45 33.9l-2.09 1.07-6.44 3.29v-5.21l2.2-1.12a4.64 4.64 0 0 0 2.5-4.48A25.5 25.5 0 0 1 18.44 2.79Z"/></g><defs><clipPath id="a"><path fill="#fff" d="M0 0h60v51H0z"/></clipPath></defs></svg>