<svg width="32" height="33" viewBox="0 0 32 33" fill="none" xmlns="http://www.w3.org/2000/svg">
<g clip-path="url(#clip0_1209_8079)">
<path fill-rule="evenodd" clip-rule="evenodd" d="M5.8592 0.656921L0.0244761 14.7457C0.00227334 14.7981 -0.00476259 14.8573 0.00439729 14.9146C0.0135572 14.972 0.0384323 15.0244 0.075385 15.0643L15.8336 32.4228C15.8783 32.4722 15.9379 32.4997 16 32.4997C16.062 32.4997 16.1216 32.4722 16.1664 32.4228L31.9245 15.0654C31.9615 15.0255 31.9864 14.9731 31.9955 14.9157C32.0047 14.8584 31.9977 14.7992 31.9755 14.7468L26.1407 0.658005C26.1219 0.610689 26.0916 0.570606 26.0535 0.542547C26.0154 0.514488 25.971 0.49964 25.9258 0.499777H6.07603C6.03055 0.499126 5.98588 0.513617 5.94741 0.541501C5.90893 0.569384 5.8783 0.609469 5.8592 0.656921Z" fill="#50AF95"/>
<path fill-rule="evenodd" clip-rule="evenodd" d="M18.0245 16.1927C17.9114 16.2024 17.3269 16.2425 16.023 16.2425C14.986 16.2425 14.2497 16.2068 13.9914 16.1927C9.98373 15.99 6.99236 15.188 6.99236 14.2278C6.99236 13.2676 9.98373 12.4667 13.9914 12.2608V15.394C14.2535 15.4156 15.0039 15.4666 16.0409 15.4666C17.2854 15.4666 17.9085 15.407 18.0207 15.395V12.263C22.0199 12.4678 25.0047 13.2698 25.0047 14.2278C25.0047 15.1859 22.0208 15.9878 18.0207 16.1916L18.0245 16.1927ZM18.0245 11.9389V9.13527H23.6056V4.85986H8.41027V9.13527H13.9904V11.9379C9.45484 12.1774 6.04395 13.2102 6.04395 14.4478C6.04395 15.6855 9.45484 16.7172 13.9904 16.9578V25.9421H18.0236V16.9546C22.5488 16.715 25.954 15.6833 25.954 14.4468C25.954 13.2102 22.5516 12.1785 18.0236 11.9379L18.0245 11.9389Z" fill="white"/>
</g>
<defs>
<clipPath id="clip0_1209_8079">
<rect width="32" height="32" fill="white" transform="translate(0 0.5)"/>
</clipPath>
</defs>
</svg>
