<svg width="46" height="40" viewBox="0 0 46 40" fill="none" xmlns="http://www.w3.org/2000/svg">
<g clip-path="url(#clip0_123_33)">
<path fill-rule="evenodd" clip-rule="evenodd" d="M8.42287 0.196426L0.0354591 17.8074C0.00354258 17.8729 -0.00657156 17.9469 0.00659577 18.0186C0.0197631 18.0902 0.0555211 18.1558 0.108641 18.2057L22.761 39.9038C22.8254 39.9655 22.9111 39.9999 23.0002 39.9999C23.0894 39.9999 23.1751 39.9655 23.2394 39.9038L45.8918 18.2071C45.9449 18.1572 45.9807 18.0916 45.9938 18.0199C46.007 17.9483 45.9969 17.8743 45.965 17.8088L37.5776 0.197781C37.5505 0.138636 37.507 0.0885321 37.4522 0.0534584C37.3974 0.0183847 37.3336 -0.000175603 37.2686 -4.30107e-06H8.73457C8.6692 -0.000817336 8.60498 0.0172959 8.54967 0.0521503C8.49437 0.0870048 8.45033 0.137112 8.42287 0.196426Z" fill="#50AF95"/>
<path fill-rule="evenodd" clip-rule="evenodd" d="M25.9103 19.6159C25.7477 19.6281 24.9074 19.6783 23.0332 19.6783C21.5424 19.6783 20.484 19.6336 20.1127 19.6159C14.3517 19.3626 10.0516 18.3601 10.0516 17.1599C10.0516 15.9596 14.3517 14.9585 20.1127 14.7011V18.6175C20.4894 18.6446 21.5682 18.7083 23.0589 18.7083C24.8478 18.7083 25.7436 18.6338 25.9049 18.6189V14.7038C31.6537 14.9599 35.9443 15.9623 35.9443 17.1599C35.9443 18.3574 31.655 19.3599 25.9049 19.6146L25.9103 19.6159ZM25.9103 14.2988V10.7942H33.9331V5.44993H12.0898V10.7942H20.1113V14.2974C13.5914 14.5968 8.68823 15.8878 8.68823 17.4349C8.68823 18.982 13.5914 20.2716 20.1113 20.5724V31.8028H25.9089V20.5683C32.4139 20.2689 37.309 18.9792 37.309 17.4335C37.309 15.8878 32.418 14.5982 25.9089 14.2974L25.9103 14.2988Z" fill="white"/>
</g>
<defs>
<clipPath id="clip0_123_33">
<rect width="46" height="40" fill="white"/>
</clipPath>
</defs>
</svg>
