<svg xmlns="http://www.w3.org/2000/svg" width="17" height="21" fill="none"><path fill="#50AF95" fill-rule="evenodd" d="M3.75 4.06 1 9.8a.11.11 0 0 0 .03.13l7.38 7.05a.11.11 0 0 0 .16 0l7.38-7.05a.11.11 0 0 0 .03-.13l-2.74-5.73a.11.11 0 0 0-.1-.06h-9.3a.11.11 0 0 0-.1.06Z" clip-rule="evenodd"/><path fill="#fff" fill-rule="evenodd" d="M9.42 10.3a14.64 14.64 0 0 1-1.83 0c-1.8-.08-3.16-.38-3.16-.75 0-.36 1.35-.66 3.16-.74V10a14.1 14.1 0 0 0 1.82 0V8.8c1.81.09 3.16.4 3.16.75 0 .37-1.35.67-3.16.75Zm0-1.61V7.62h2.52V6H5.07v1.62h2.52V8.7C5.54 8.78 4 9.17 4 9.64s1.54.86 3.6.95V14h1.82v-3.41c2.04-.1 3.58-.48 3.58-.95s-1.54-.86-3.58-.95Z" clip-rule="evenodd"/></svg>