<svg xmlns="http://www.w3.org/2000/svg" width="201" height="193" fill="none"><path fill="#FF060A" d="M100.8 192.15c55.25 0 100-42.91 100-95.83 0-52.9-44.75-95.82-100-95.82S.8 43.41.8 96.32c0 52.92 44.79 95.83 100 95.83Z"/><path fill="#fff" d="M157.04 79.12c-5.51-4.9-13.17-12.37-19.38-17.66l-.38-.23a8.04 8.04 0 0 0-2.04-1.11C120.22 57.43 50.34 44.9 49 45.06c-.38.04-.77.2-1.07.38l-.35.27c-.42.42-.76.92-.96 1.5l-.07.22v1.47c7.85 20.99 38.92 89.72 45.05 105.9.39 1.1 1.08 3.17 2.38 3.29h.3c.7 0 3.68-3.8 3.68-3.8s53.38-61.99 58.78-68.58c.69-.8 1.3-1.69 1.84-2.6.15-.73.07-1.46-.2-2.15a4.85 4.85 0 0 0-1.34-1.84Zm-45.43 7.24 22.75-18.08 13.38 11.8-36.14 6.28Zm-8.86-1.19-39.2-30.8 63.46 11.23-24.26 19.57Zm3.53 8.05 40.11-6.2L100.53 140l5.75-46.78ZM58.23 57.47 99.5 91l-5.98 49.04-35.29-82.57Z"/></svg>