<svg xmlns="http://www.w3.org/2000/svg" width="19" height="19" fill="none"><g clip-path="url(#a)"><path fill="#2775CA" d="M9.5 19c5.26 0 9.5-4.24 9.5-9.5S14.76 0 9.5 0A9.48 9.48 0 0 0 0 9.5C0 14.76 4.24 19 9.5 19Z"/><path fill="#fff" d="M12.11 11c0-1.38-.83-1.86-2.5-2.05-1.18-.16-1.42-.48-1.42-1.03 0-.56.4-.91 1.2-.91.7 0 1.1.23 1.3.83.04.12.16.2.27.2h.64c.16 0 .28-.12.28-.28v-.04a1.98 1.98 0 0 0-1.79-1.62v-.95c0-.16-.12-.28-.31-.32h-.6c-.16 0-.27.12-.31.32v.9c-1.2.16-1.94.96-1.94 1.95 0 1.3.79 1.82 2.45 2.01 1.11.2 1.47.44 1.47 1.07 0 .64-.56 1.07-1.31 1.07-1.03 0-1.39-.43-1.5-1.03-.04-.16-.16-.23-.28-.23h-.67a.27.27 0 0 0-.28.27v.04c.16 1 .79 1.7 2.1 1.9v.95c0 .16.11.28.31.32h.6c.15 0 .27-.12.31-.32v-.95c1.2-.2 1.98-1.03 1.98-2.1Z"/><path fill="#fff" d="M7.48 15.16a5.9 5.9 0 0 1-3.52-7.6 5.86 5.86 0 0 1 3.52-3.52c.16-.08.24-.2.24-.4V3.1c0-.16-.08-.28-.24-.32a7.11 7.11 0 0 0-.16 13.62c.16.08.32 0 .36-.16.04-.04.04-.08.04-.16v-.55c0-.12-.12-.28-.24-.36Zm4.2-12.35c-.16-.08-.32 0-.36.16-.04.04-.04.08-.04.16v.55c0 .16.12.32.24.4a5.9 5.9 0 0 1 3.52 7.6 5.86 5.86 0 0 1-3.52 3.52c-.16.08-.24.2-.24.4v.55c0 .16.08.28.24.32.04 0 .12 0 .16-.04a7.11 7.11 0 0 0 4.63-8.95 7.18 7.18 0 0 0-4.63-4.67Z"/></g><defs><clipPath id="a"><path fill="#fff" d="M0 0h19v19H0z"/></clipPath></defs></svg>