<svg xmlns="http://www.w3.org/2000/svg" xmlns:xlink="http://www.w3.org/1999/xlink" width="32" height="32"><defs><linearGradient id="c" x1="50%" x2="50%" y1="0%" y2="100%"><stop offset="0%" stop-color="#FFF" stop-opacity=".5"/><stop offset="100%" stop-opacity=".5"/></linearGradient><filter id="a" width="111.7%" height="111.7%" x="-5.8%" y="-4.2%" filterUnits="objectBoundingBox"><feOffset dy=".5" in="SourceAlpha" result="shadowOffsetOuter1"/><feGaussianBlur in="shadowOffsetOuter1" result="shadowBlurOuter1" stdDeviation=".5"/><feComposite in="shadowBlurOuter1" in2="SourceAlpha" operator="out" result="shadowBlurOuter1"/><feColorMatrix in="shadowBlurOuter1" values="0 0 0 0 0 0 0 0 0 0 0 0 0 0 0 0 0 0 0.199473505 0"/></filter><circle id="b" cx="15" cy="15" r="15"/></defs><g fill="none" fill-rule="nonzero"><g transform="translate(1)"><use xlink:href="#b" fill="#000" filter="url(#a)"/><use xlink:href="#b" fill="#23292F" fill-rule="evenodd"/><use xlink:href="#b" fill="url(#c)" fill-rule="evenodd" style="mix-blend-mode:soft-light"/><circle cx="15" cy="15" r="14.5" stroke="#000" stroke-linejoin="square" stroke-opacity=".1"/></g><g fill="#FFF"><path d="M22.36 8h2.6l-5.4 5.36a5.06 5.06 0 0 1-7.11 0L7.03 8h2.6l4.12 4.07a3.2 3.2 0 0 0 4.5 0L22.36 8ZM9.6 22.9H7l5.45-5.39a5.06 5.06 0 0 1 7.1 0l5.45 5.4h-2.6l-4.15-4.11a3.2 3.2 0 0 0-4.5 0l-4.14 4.1Z"/></g></g></svg>