<svg width="44" height="45" viewBox="0 0 44 45" fill="none" xmlns="http://www.w3.org/2000/svg">
<path fill-rule="evenodd" clip-rule="evenodd" d="M34.1001 19.0625C33.0688 19.0625 32.2438 19.3375 31.5563 19.475L31.3501 21.0562C31.6938 20.9187 32.6563 20.6437 33.4813 20.575C34.3063 20.575 34.7876 20.7125 34.6501 21.4687C32.1751 21.4687 30.5251 21.95 30.1813 23.6C29.7001 26.35 32.7251 26.4187 33.8938 25.1812L33.7563 25.9375H35.9563L36.9188 21.4687C37.2626 19.6125 35.6126 18.9937 34.1001 19.0625ZM34.2376 23.6687C34.1001 24.2187 33.6188 24.425 33.0688 24.4937C32.5876 24.4937 32.1751 24.2187 32.4501 23.6687C32.7251 23.2562 33.3438 23.2562 33.8251 23.2562H34.3751C34.3063 23.1875 34.2376 23.4625 34.2376 23.6687Z" fill="#32A6CE"/>
<path fill-rule="evenodd" clip-rule="evenodd" d="M31.3501 21.0563C31.6938 20.9188 32.6563 20.6438 33.4813 20.5751C34.3063 20.5751 34.7876 20.7126 34.6501 21.4688C32.1751 21.4688 30.5251 21.9501 30.1813 23.6001C29.7001 26.3501 32.7251 26.4188 33.8938 25.1813L33.7563 25.9376H35.9563L36.9188 21.4688C37.3313 19.6126 35.6126 19.1313 34.1001 19.1313M34.2376 23.6688C34.1001 24.2188 33.6188 24.4251 33.0688 24.4938C32.5876 24.4938 32.1751 24.2188 32.4501 23.6688C32.7251 23.2563 33.3438 23.2563 33.8251 23.2563H34.3751C34.3063 23.1876 34.2376 23.4626 34.2376 23.6688Z" fill="#1A80AD"/>
<path fill-rule="evenodd" clip-rule="evenodd" d="M38.7748 17L36.9873 25.9375H39.1873L41.0436 17H38.7748Z" fill="#32A6CE"/>
<path fill-rule="evenodd" clip-rule="evenodd" d="M40.3561 17L36.9873 25.9375H39.1873L41.0436 17H38.7748H40.3561Z" fill="#1A80AD"/>
<path fill-rule="evenodd" clip-rule="evenodd" d="M28.5312 17H24.475L22.6875 25.9375H25.0938L25.7125 23.1875H27.4313C29.0813 23.1875 30.4562 22.225 30.8 20.5063C31.1437 18.5125 29.7 17 28.5312 17ZM28.4625 20.0938C28.325 20.7125 27.7063 21.125 27.0875 21.125H25.9875L26.4688 19.0625H27.6375C28.2563 19.0625 28.6 19.475 28.4625 20.0938Z" fill="#32A6CE"/>
<path fill-rule="evenodd" clip-rule="evenodd" d="M28.5312 17H25.7812L22.6187 25.9375H25.0249L25.6437 23.1875H27.3624C29.0124 23.1875 30.3874 22.225 30.7312 20.5063C31.1437 18.5125 29.6999 17 28.5312 17ZM28.4624 20.0938C28.3249 20.7125 27.7062 21.125 27.0874 21.125H25.9874L26.4687 19.0625H27.6374C28.2562 19.0625 28.5999 19.475 28.4624 20.0938Z" fill="#1A80AD"/>
<path fill-rule="evenodd" clip-rule="evenodd" d="M12.6501 19.0625C11.6189 19.0625 10.7939 19.3375 10.1751 19.475L9.96889 21.0562C10.2439 20.9187 11.2751 20.6437 12.1001 20.575C12.9251 20.575 13.4064 20.7125 13.2689 21.4687C10.8626 21.4687 9.21264 21.95 8.86889 23.6C8.38764 26.35 11.3439 26.4187 12.5126 25.1812L12.3751 25.9375H14.5751L15.5376 21.4687C15.8814 19.6125 14.1626 18.9937 12.6501 19.0625ZM12.8564 23.6687C12.7189 24.2187 12.2376 24.425 11.6876 24.4937C11.2064 24.4937 10.7939 24.2187 11.1376 23.6687C11.4126 23.2562 12.0314 23.2562 12.4439 23.2562H12.9939C12.9251 23.1875 12.8564 23.4625 12.8564 23.6687Z" fill="#21789E"/>
<path fill-rule="evenodd" clip-rule="evenodd" d="M10.0377 21.0563C10.3127 20.9188 11.344 20.6438 12.169 20.5751C12.994 20.5751 13.4752 20.7126 13.3377 21.4688C10.9315 21.4688 9.28149 21.9501 8.93774 23.6001C8.45649 26.3501 11.4127 26.4188 12.5815 25.1813L12.3752 25.9376H14.5752L15.5377 21.4688C15.9502 19.6126 14.2315 19.1313 12.719 19.1313M12.8565 23.6688C12.719 24.2188 12.2377 24.4251 11.6877 24.4938C11.2065 24.4938 10.794 24.2188 11.1377 23.6688C11.4127 23.2563 12.0315 23.2563 12.444 23.2563H12.994C12.9252 23.1876 12.8565 23.4626 12.8565 23.6688Z" fill="#1A5B80"/>
<path fill-rule="evenodd" clip-rule="evenodd" d="M16.4312 19.0625H18.6312L18.9749 22.9125L21.1749 19.0625H23.4437L18.2187 28.6875H15.7437L17.3249 25.8L16.4312 19.0625Z" fill="#21789E"/>
<path fill-rule="evenodd" clip-rule="evenodd" d="M18.6312 19.2L18.9749 22.9813L21.1749 19.0625H23.4437L18.2187 28.6875H15.7437L17.3249 25.8688" fill="#1A5B80"/>
<path fill-rule="evenodd" clip-rule="evenodd" d="M7.21865 17H3.09365L1.30615 25.9375H3.7124L4.33115 23.1875H6.0499C7.6999 23.1875 9.0749 22.225 9.41865 20.5063C9.83115 18.5125 8.3874 17 7.21865 17ZM7.1499 20.0938C7.0124 20.7125 6.39365 21.125 5.7749 21.125H4.6749L5.15615 19.0625H6.3249C6.94365 19.0625 7.2874 19.475 7.1499 20.0938Z" fill="#21789E"/>
<path fill-rule="evenodd" clip-rule="evenodd" d="M7.21865 17H5.3624L1.30615 25.9375H3.7124L4.33115 23.1875H6.0499C7.6999 23.1875 9.0749 22.225 9.41865 20.5063C9.83115 18.5125 8.3874 17 7.21865 17ZM7.1499 20.0938C7.0124 20.7125 6.39365 21.125 5.7749 21.125H4.6749L5.15615 19.0625H6.3249C6.94365 19.0625 7.2874 19.475 7.1499 20.0938Z" fill="#1A5B80"/>
<path fill-rule="evenodd" clip-rule="evenodd" d="M12.2377 21.4688C10.3814 21.6063 9.14395 22.1562 8.86895 23.5312C8.3877 26.2812 11.3439 26.35 12.5127 25.1125L12.3752 25.9375H14.5752L14.9189 24.2875L12.2377 21.4688ZM12.8564 23.6688C12.7189 24.2188 12.2377 24.425 11.6877 24.4938C11.2064 24.4938 10.7939 24.2188 11.1377 23.6688C11.4127 23.2563 12.0314 23.2562 12.4439 23.2562H12.9939C12.9252 23.1875 12.8564 23.4625 12.8564 23.6688ZM19.1127 22.8438L18.9752 23.05L20.4189 24.425L23.4439 19.0625H21.1752L19.1127 22.8438ZM3.7127 25.9375L4.33145 23.1875L1.5127 25.9375H3.7127Z" fill="#06435E"/>
<path fill-rule="evenodd" clip-rule="evenodd" d="M25.0252 25.9375L25.6439 23.05V23.1188L22.8252 25.9375H25.0252ZM33.6189 21.4688C31.7627 21.6063 30.5252 22.1562 30.2502 23.5312C29.7689 26.2812 32.7939 26.35 33.9627 25.1125L33.7564 25.9375H35.9564L36.3002 24.2875L33.6189 21.4688ZM34.2377 23.6688C34.1002 24.2188 33.6189 24.425 33.0689 24.4938C32.5877 24.4938 32.1752 24.2188 32.4502 23.6688C32.7252 23.2563 33.3439 23.2562 33.8252 23.2562H34.3752C34.3064 23.1875 34.2377 23.4625 34.2377 23.6688ZM38.5689 21.8813L36.9877 25.9375H39.1877L39.8064 23.1875L38.5689 21.8813Z" fill="#2273AA"/>
<path d="M41.5249 18.4437V17.4812H41.1812V17.3437H42.0749V17.4812H41.7312V18.4437H41.5249ZM42.2124 18.4437V17.3437H42.4187L42.6937 18.0999C42.6937 18.1687 42.7624 18.2374 42.7624 18.2374C42.7624 18.1687 42.7624 18.1687 42.8312 18.0312L43.1062 17.2749H43.3124V18.3749H43.1749V17.4124L42.8312 18.3749H42.6249L42.2812 17.4124V18.3749H42.2124V18.4437Z" fill="#32A6CE"/>
</svg>
