<svg width="44" height="45" viewBox="0 0 44 45" fill="none" xmlns="http://www.w3.org/2000/svg">
<path d="M34.9909 13.9861H10.3438C9.46924 13.9861 8.76025 14.6951 8.76025 15.5696V30.3167C8.76025 31.1913 9.46924 31.9002 10.3438 31.9002H34.9909C35.8654 31.9002 36.5744 31.1913 36.5744 30.3167V15.5696C36.5744 14.6951 35.8654 13.9861 34.9909 13.9861Z" fill="#F9F9F9" stroke="black" stroke-width="0.8" stroke-linecap="round" stroke-linejoin="round"/>
<path fill-rule="evenodd" clip-rule="evenodd" d="M20.2172 19.5885L19.1154 26.36H20.8782L21.9802 19.5885H20.2172ZM17.6322 19.5885L15.9514 24.2459L15.7526 23.243L15.7527 23.2433L15.7089 23.0185C15.5055 22.5801 15.0344 21.7469 14.1448 21.0359C13.8958 20.8375 13.6338 20.6561 13.3604 20.4931L14.8879 26.36H16.7247L19.5295 19.5885H17.6322ZM24.5123 21.4684C24.5123 20.7028 26.2292 20.8012 26.9836 21.2169L27.2351 19.7625C27.2351 19.7625 26.4588 19.4673 25.6495 19.4673C24.7746 19.4673 22.6971 19.8499 22.6971 21.709C22.6971 23.4586 25.1355 23.4803 25.1355 24.3989C25.1355 25.3174 22.9485 25.1533 22.2268 24.5738L21.9645 26.094C21.9645 26.094 22.7516 26.4766 23.9546 26.4766C25.1574 26.4766 26.9726 25.8534 26.9726 24.1583C26.9726 22.3978 24.5123 22.2338 24.5123 21.4684ZM31.7061 19.5885H30.2887C29.6342 19.5885 29.4748 20.0931 29.4748 20.0931L26.8458 26.36H28.6833L29.0509 25.3543H31.292L31.4988 26.36H33.1175L31.7061 19.5885ZM29.5589 23.9647L30.4853 21.4306L31.0064 23.9647H29.5589Z" fill="#005BAC"/>
<path fill-rule="evenodd" clip-rule="evenodd" d="M15.1836 20.2261C15.1836 20.2261 15.1107 19.615 14.3316 19.615H11.5014L11.4683 19.7298C11.4683 19.7298 12.8287 20.0072 14.1339 21.0462C15.3811 22.0392 15.788 23.2771 15.788 23.2771L15.1836 20.2261Z" fill="#F6AC1D"/>
</svg>
